<?xml version="1.0" standalone="no"?><!DOCTYPE svg PUBLIC "-//W3C//DTD SVG 1.1//EN" "http://www.w3.org/Graphics/SVG/1.1/DTD/svg11.dtd"><svg t="1739088840770" class="icon" viewBox="0 0 1024 1024" version="1.1" xmlns="http://www.w3.org/2000/svg" p-id="8589" xmlns:xlink="http://www.w3.org/1999/xlink" width="256" height="256"><path d="M118.25 301.0625a182.8125 182.8125 0 1 1 365.625 0v149.625a33.1875 33.1875 0 0 1-33.1875 33.1875H301.0625A182.8125 182.8125 0 0 1 118.25 301.0625z" fill="#FF7D00" p-id="8590"></path><path d="M118.25 722.9375A182.8125 182.8125 0 0 1 301.0625 540.125h149.625a33.1875 33.1875 0 0 1 33.1875 33.1875v149.625a182.8125 182.8125 0 0 1-365.625 0zM540.125 301.0625a182.8125 182.8125 0 1 1 182.8125 182.8125H573.3125a33.1875 33.1875 0 0 1-33.1875-33.1875V301.0625z" fill="#FFC87A" p-id="8591"></path><path d="M540.125 573.3125a33.1875 33.1875 0 0 1 33.1875-33.1875h149.625a182.8125 182.8125 0 1 1-182.8125 182.8125V573.3125z" fill="#FF7D00" p-id="8592"></path></svg>