<svg width="256" height="256" viewBox="0 0 256 256" fill="none" xmlns="http://www.w3.org/2000/svg">
<path d="M30.0625 75.2656C30.0625 63.277 34.825 51.7794 43.3022 43.3022C51.7794 34.825 63.277 30.0625 75.2656 30.0625C87.2542 30.0625 98.7518 34.825 107.229 43.3022C115.706 51.7794 120.469 63.277 120.469 75.2656V112.672C120.469 114.74 119.647 116.723 118.185 118.185C116.723 119.647 114.74 120.469 112.672 120.469H75.2656C63.277 120.469 51.7794 115.706 43.3022 107.229C34.825 98.7518 30.0625 87.2542 30.0625 75.2656Z" fill="url(#paint0_radial_9_1041)" stroke="url(#paint1_linear_9_1041)"/>
<g filter="url(#filter0_b_9_1041)">
<path d="M29.5625 180.734C29.5625 168.613 34.3776 156.988 42.9486 148.417C51.5196 139.846 63.1444 135.031 75.2656 135.031H112.672C114.872 135.031 116.983 135.905 118.539 137.461C120.095 139.017 120.969 141.128 120.969 143.328V180.734C120.969 192.856 116.154 204.48 107.583 213.051C99.0116 221.622 87.3868 226.438 75.2656 226.438C63.1444 226.438 51.5196 221.622 42.9486 213.051C34.3776 204.48 29.5625 192.856 29.5625 180.734ZM135.031 75.2656C135.031 66.2264 137.712 57.3902 142.734 49.8743C147.756 42.3585 154.893 36.5006 163.245 33.0415C171.596 29.5823 180.785 28.6772 189.651 30.4407C198.516 32.2042 206.66 36.557 213.051 42.9487C219.443 49.3404 223.796 57.4839 225.559 66.3494C227.323 75.2149 226.418 84.4043 222.959 92.7555C219.499 101.107 213.642 108.244 206.126 113.266C198.61 118.288 189.774 120.969 180.734 120.969H143.328C141.128 120.969 139.017 120.095 137.461 118.539C135.905 116.983 135.031 114.872 135.031 112.672V75.2656Z" fill="url(#paint2_radial_9_1041)"/>
<path d="M30.0625 180.734C30.0625 168.746 34.825 157.248 43.3022 148.771C51.7794 140.294 63.277 135.531 75.2656 135.531H112.672C114.74 135.531 116.723 136.353 118.185 137.815C119.647 139.277 120.469 141.26 120.469 143.328V180.734C120.469 192.723 115.706 204.221 107.229 212.698C98.7518 221.175 87.2542 225.938 75.2656 225.938C63.277 225.938 51.7794 221.175 43.3022 212.698C34.825 204.221 30.0625 192.723 30.0625 180.734ZM135.531 75.2656C135.531 66.3253 138.182 57.5858 143.149 50.1521C148.116 42.7185 155.176 36.9247 163.436 33.5034C171.696 30.0821 180.785 29.1869 189.553 30.9311C198.322 32.6753 206.376 36.9804 212.698 43.3022C219.02 49.624 223.325 57.6784 225.069 66.447C226.813 75.2155 225.918 84.3043 222.497 92.5641C219.075 100.824 213.281 107.884 205.848 112.851C198.414 117.818 189.675 120.469 180.734 120.469H143.328C141.26 120.469 139.277 119.647 137.815 118.185C136.353 116.723 135.531 114.74 135.531 112.672V75.2656Z" stroke="url(#paint3_radial_9_1041)"/>
</g>
<path d="M135.531 143.328C135.531 141.26 136.353 139.277 137.815 137.815C139.277 136.353 141.26 135.531 143.328 135.531H180.734C189.675 135.531 198.414 138.182 205.848 143.149C213.282 148.116 219.075 155.176 222.497 163.436C225.918 171.696 226.813 180.785 225.069 189.553C223.325 198.322 219.02 206.376 212.698 212.698C206.376 219.02 198.322 223.325 189.553 225.069C180.785 226.813 171.696 225.918 163.436 222.497C155.176 219.075 148.116 213.282 143.149 205.848C138.182 198.414 135.531 189.675 135.531 180.734V143.328Z" fill="url(#paint4_radial_9_1041)" stroke="url(#paint5_linear_9_1041)"/>
<defs>
<filter id="filter0_b_9_1041" x="15.9711" y="15.9711" width="224.058" height="224.058" filterUnits="userSpaceOnUse" color-interpolation-filters="sRGB">
<feFlood flood-opacity="0" result="BackgroundImageFix"/>
<feGaussianBlur in="BackgroundImageFix" stdDeviation="6.7957"/>
<feComposite in2="SourceAlpha" operator="in" result="effect1_backgroundBlur_9_1041"/>
<feBlend mode="normal" in="SourceGraphic" in2="effect1_backgroundBlur_9_1041" result="shape"/>
</filter>
<radialGradient id="paint0_radial_9_1041" cx="0" cy="0" r="1" gradientUnits="userSpaceOnUse" gradientTransform="translate(120.969 48.408) rotate(107.881) scale(57.1815)">
<stop stop-color="#FDF132"/>
<stop offset="1" stop-color="#F96518"/>
</radialGradient>
<linearGradient id="paint1_linear_9_1041" x1="82.8697" y1="29.9297" x2="52.8298" y2="85.3157" gradientUnits="userSpaceOnUse">
<stop offset="0.0292499" stop-color="white" stop-opacity="0.304266"/>
<stop offset="1" stop-color="white" stop-opacity="0.01"/>
</linearGradient>
<radialGradient id="paint2_radial_9_1041" cx="0" cy="0" r="1" gradientUnits="userSpaceOnUse" gradientTransform="translate(208.737 103.462) rotate(150.231) scale(140.075)">
<stop stop-color="white" stop-opacity="0.799873"/>
<stop offset="1" stop-color="#FFC49A" stop-opacity="0.550071"/>
</radialGradient>
<radialGradient id="paint3_radial_9_1041" cx="0" cy="0" r="1" gradientUnits="userSpaceOnUse" gradientTransform="translate(205.562 103.077) rotate(155.431) scale(170.73 127.316)">
<stop stop-color="white"/>
<stop offset="1" stop-color="white" stop-opacity="0.01"/>
</radialGradient>
<radialGradient id="paint4_radial_9_1041" cx="0" cy="0" r="1" gradientUnits="userSpaceOnUse" gradientTransform="translate(226.438 153.877) rotate(107.881) scale(57.1815)">
<stop stop-color="#FDF132"/>
<stop offset="1" stop-color="#F96518"/>
</radialGradient>
<linearGradient id="paint5_linear_9_1041" x1="188.338" y1="135.398" x2="158.299" y2="190.784" gradientUnits="userSpaceOnUse">
<stop offset="0.0292499" stop-color="white" stop-opacity="0.304266"/>
<stop offset="1" stop-color="white" stop-opacity="0.01"/>
</linearGradient>
</defs>
</svg>
