<?xml version="1.0" standalone="no"?><!DOCTYPE svg PUBLIC "-//W3C//DTD SVG 1.1//EN" "http://www.w3.org/Graphics/SVG/1.1/DTD/svg11.dtd"><svg t="1739088819939" class="icon" viewBox="0 0 1024 1024" version="1.1" xmlns="http://www.w3.org/2000/svg" p-id="8105" xmlns:xlink="http://www.w3.org/1999/xlink" width="256" height="256"><path d="M570.32 463.232c-8.976 1.824-17.28 7.008-26.928 16.896l-20.736 21.216-27.168-11.808a45.024 45.024 0 0 1-12.288-7.2c-2.112-1.776-4.128-3.6-6-5.568-9.552-9.888-20.88-14.544-36.768-15.216-1.104-0.048-2.208-0.048-3.312-0.048-16.56 0-28.32 5.328-37.872 16.992-21.552 26.4-22.176 68.208-1.392 97.344 12.816 17.952 29.04 34.752 49.68 51.312 18.48 14.88 38.4 30.24 64.368 49.584 36.912-26.736 71.712-52.032 100.224-83.472 25.44-28.08 33.84-53.904 27.312-83.76-4.848-21.504-20.112-56.208-69.12-46.272z" fill="#FF7E3E" p-id="8106"></path><path d="M829.232 255.968h-286.896c-17.904 0-35.184-6.72-48.384-18.864L418.016 167.312a71.472 71.472 0 0 0-48.384-18.864H194.768c-38.88 0-70.416 31.536-70.416 70.416V802.4c0 38.88 31.536 70.416 70.416 70.416h634.464c38.88 0 70.416-31.536 70.416-70.416V326.384c0-38.88-31.536-70.416-70.416-70.416z m-153.408 394.992c-34.752 38.352-75.216 67.68-114.336 96l-3.888 2.784c-13.872 10.032-29.472 15.024-45.216 15.024-16.896 0-33.984-5.76-49.296-17.184-28.08-20.976-49.536-37.44-69.456-53.472-26.832-21.552-48.336-43.92-65.808-68.4-43.2-60.576-41.184-145.44 4.848-201.696 27.408-33.504 65.856-50.208 111.216-48.432 25.584 1.056 48.432 7.632 68.256 19.728 13.008-8.064 26.64-13.488 41.136-16.416 81.936-16.56 151.872 29.568 170.016 112.08 12.672 57.408-3.36 111.216-47.472 159.984z" fill="#FC7032" p-id="8107"></path><path d="M829.232 255.968h-286.896c-17.904 0-35.184-6.72-48.384-18.864L418.016 167.312a71.472 71.472 0 0 0-48.384-18.864H194.768c-38.88 0-70.416 31.536-70.416 70.416V802.4c0 38.88 31.536 70.416 70.416 70.416h269.856c246.576-76.464 426-305.472 428.064-576.672-11.28-23.76-35.424-40.176-63.456-40.176z m-153.408 394.992c-34.752 38.352-75.216 67.68-114.336 96l-3.888 2.784c-13.872 10.032-29.472 15.024-45.216 15.024-16.896 0-33.984-5.76-49.296-17.184-28.08-20.976-49.536-37.44-69.456-53.472-26.832-21.552-48.336-43.92-65.76-68.4-43.2-60.576-41.184-145.44 4.848-201.696 27.408-33.504 65.856-50.208 111.216-48.432 25.584 1.056 48.432 7.632 68.256 19.728 13.008-8.064 26.64-13.488 41.136-16.416 81.936-16.56 151.872 29.568 170.064 112.08 12.576 57.408-3.456 111.216-47.568 159.984z" fill="#FF7E3E" p-id="8108"></path><path d="M493.952 237.104L418.016 167.312a71.472 71.472 0 0 0-48.384-18.864H194.768c-38.88 0-70.416 31.536-70.416 70.416v464.928c76.128-0.816 148.848-15.552 215.808-41.904-4.32-5.28-8.496-10.656-12.384-16.128-43.2-60.576-41.184-145.44 4.848-201.696 27.408-33.504 65.856-50.208 111.216-48.432 25.584 1.056 48.432 7.632 68.256 19.728 13.008-8.064 26.64-13.488 41.136-16.416 31.728-6.432 61.632-3.312 87.456 7.536a608.976 608.976 0 0 0 58.272-130.512h-156.672c-17.904 0-35.136-6.72-48.336-18.864z" fill="#FF9552" p-id="8109"></path><path d="M587.984 461.552c-5.376-0.096-11.184 0.384-17.664 1.68-8.976 1.824-17.28 7.008-26.928 16.896l-20.736 21.216-27.168-11.808a45.024 45.024 0 0 1-12.288-7.2c-2.112-1.776-4.128-3.6-6-5.568-9.552-9.888-20.88-14.544-36.768-15.216-1.104-0.048-2.208-0.048-3.312-0.048-16.56 0-28.32 5.328-37.872 16.992-21.552 26.4-22.176 68.208-1.392 97.344 6.672 9.36 14.304 18.432 22.992 27.264a612.3264 612.3264 0 0 0 167.136-141.552z" fill="#FF9552" p-id="8110"></path><path d="M463.232 208.88l-45.216-41.568a71.472 71.472 0 0 0-48.384-18.864H194.768c-38.88 0-70.416 31.536-70.416 70.416v228.384c139.056-37.728 258.288-123.504 338.88-238.368z" fill="#FFA56A" p-id="8111"></path></svg>