<svg width="256" height="256" viewBox="0 0 256 256" fill="none" xmlns="http://www.w3.org/2000/svg">
<path d="M25 59C25 43.536 37.536 31 53 31H98.1585C100.866 31 103.39 32.3698 104.866 34.6401L113.854 48.468C118.945 56.2997 127.605 61.0771 136.945 61.2057L202.81 62.1121C218.348 62.3259 230.739 75.1509 230.419 90.6866L228.565 180.577C228.251 195.813 215.81 208 200.571 208H53C37.536 208 25 195.464 25 180V59Z" fill="#F96518"/>
<path d="M229.919 90.6763L228.066 180.567C227.757 195.531 215.538 207.5 200.571 207.5H53C37.8122 207.5 25.5 195.188 25.5 180V59C25.5 43.8122 37.8122 31.5 53 31.5H87.3048C96.6129 31.5 105.289 36.2085 110.362 44.0128L113.435 48.7405C118.616 56.712 127.432 61.5748 136.938 61.7056L202.803 62.612C218.063 62.822 230.234 75.418 229.919 90.6763Z" fill="url(#paint0_radial_9_1049)" stroke="url(#paint1_linear_9_1049)"/>
<g filter="url(#filter0_b_9_1049)">
<mask id="path-3-inside-1_9_1049" fill="white">
<path fill-rule="evenodd" clip-rule="evenodd" d="M148.31 208H53C37.536 208 25 195.464 25 180V59C25 43.536 37.536 31 53 31H98.1585C100.866 31 103.39 32.3698 104.866 34.6401L113.854 48.468C118.945 56.2997 127.605 61.0771 136.945 61.2057L202.81 62.1121C215.254 62.2833 225.68 70.5441 229.174 81.808C221.626 134.678 191.231 180.182 148.31 208Z"/>
</mask>
<path fill-rule="evenodd" clip-rule="evenodd" d="M148.31 208H53C37.536 208 25 195.464 25 180V59C25 43.536 37.536 31 53 31H98.1585C100.866 31 103.39 32.3698 104.866 34.6401L113.854 48.468C118.945 56.2997 127.605 61.0771 136.945 61.2057L202.81 62.1121C215.254 62.2833 225.68 70.5441 229.174 81.808C221.626 134.678 191.231 180.182 148.31 208Z" fill="url(#paint2_radial_9_1049)"/>
<path d="M148.31 208V209H148.605L148.853 208.839L148.31 208ZM104.866 34.6401L104.028 35.1851L104.028 35.1851L104.866 34.6401ZM113.854 48.468L114.693 47.923L114.693 47.923L113.854 48.468ZM136.945 61.2057L136.932 62.2056L136.932 62.2056L136.945 61.2057ZM202.81 62.1121L202.796 63.112L202.81 62.1121ZM229.174 81.808L230.164 81.9493L230.196 81.7266L230.129 81.5118L229.174 81.808ZM148.31 207H53V209H148.31V207ZM53 207C38.0883 207 26 194.912 26 180H24C24 196.016 36.9837 209 53 209V207ZM26 180V59H24V180H26ZM26 59C26 44.0883 38.0883 32 53 32V30C36.9837 30 24 42.9837 24 59H26ZM53 32H98.1585V30H53V32ZM98.1585 32C100.528 32 102.736 33.1985 104.028 35.1851L105.705 34.0951C104.044 31.541 101.205 30 98.1585 30V32ZM104.028 35.1851L113.016 49.013L114.693 47.923L105.705 34.0951L104.028 35.1851ZM113.016 49.013C118.288 57.1244 127.258 62.0725 136.932 62.2056L136.959 60.2058C127.953 60.0818 119.601 55.475 114.693 47.923L113.016 49.013ZM136.932 62.2056L202.796 63.112L202.824 61.1122L136.959 60.2058L136.932 62.2056ZM202.796 63.112C214.794 63.2771 224.85 71.2415 228.219 82.1042L230.129 81.5118C226.511 69.8467 215.714 61.2895 202.824 61.1122L202.796 63.112ZM228.184 81.6667C220.679 134.242 190.453 179.495 147.766 207.161L148.853 208.839C192.01 180.869 222.574 135.114 230.164 81.9493L228.184 81.6667Z" fill="url(#paint3_radial_9_1049)" mask="url(#path-3-inside-1_9_1049)"/>
</g>
<path d="M108.996 91.9629C96.8452 91.9629 86.9956 101.811 86.9956 113.963C86.9956 126.699 94.2496 138.715 106.246 149.715C110.34 153.467 114.748 156.759 119.12 159.715C120.653 160.747 122.086 161.683 123.371 162.463C124.154 162.939 124.67 163.283 124.996 163.463C126.204 164.135 127.788 164.135 128.996 163.463C129.321 163.283 129.837 162.939 130.62 162.463C131.905 161.683 133.338 160.747 134.871 159.715C139.243 156.759 143.651 153.467 147.746 149.715C159.742 138.715 166.996 126.699 166.996 113.963C166.996 101.811 157.146 91.9629 144.996 91.9629C138.095 91.9629 131.357 95.7229 127.12 101.211C122.989 95.6269 116.275 91.9629 108.996 91.9629Z" fill="white"/>
<defs>
<filter id="filter0_b_9_1049" x="11.4086" y="17.4086" width="231.357" height="204.183" filterUnits="userSpaceOnUse" color-interpolation-filters="sRGB">
<feFlood flood-opacity="0" result="BackgroundImageFix"/>
<feGaussianBlur in="BackgroundImageFix" stdDeviation="6.7957"/>
<feComposite in2="SourceAlpha" operator="in" result="effect1_backgroundBlur_9_1049"/>
<feBlend mode="normal" in="SourceGraphic" in2="effect1_backgroundBlur_9_1049" result="shape"/>
</filter>
<radialGradient id="paint0_radial_9_1049" cx="0" cy="0" r="1" gradientUnits="userSpaceOnUse" gradientTransform="translate(231 67.4927) rotate(110.581) scale(112.562 126.767)">
<stop stop-color="#FDF132"/>
<stop offset="1" stop-color="#F96518"/>
</radialGradient>
<linearGradient id="paint1_linear_9_1049" x1="145.137" y1="31.7111" x2="91.9948" y2="145.745" gradientUnits="userSpaceOnUse">
<stop offset="0.0292499" stop-color="white" stop-opacity="0.304266"/>
<stop offset="1" stop-color="white" stop-opacity="0.01"/>
</linearGradient>
<radialGradient id="paint2_radial_9_1049" cx="0" cy="0" r="1" gradientUnits="userSpaceOnUse" gradientTransform="translate(210.817 97.4392) rotate(153.625) scale(140.749 129.978)">
<stop stop-color="white" stop-opacity="0.799873"/>
<stop offset="1" stop-color="#FFC49A" stop-opacity="0.550071"/>
</radialGradient>
<radialGradient id="paint3_radial_9_1049" cx="0" cy="0" r="1" gradientUnits="userSpaceOnUse" gradientTransform="translate(207.524 97.093) rotate(158.38) scale(173.215 117.004)">
<stop stop-color="white"/>
<stop offset="1" stop-color="white" stop-opacity="0.01"/>
</radialGradient>
</defs>
</svg>
