<svg width="24" height="24" viewBox="0 0 24 24" fill="none" xmlns="http://www.w3.org/2000/svg">
<g clip-path="url(#clip0_5672_110)">
<path d="M23.6408 14.9029C22.0378 21.3315 15.526 25.2438 9.096 23.6407C2.66858 22.038 -1.24421 15.5266 0.359459 9.0984C1.96163 2.66907 8.47342 -1.24364 14.9016 0.359093C21.3313 1.96183 25.2437 8.47402 23.6408 14.9029Z" fill="#1E2329"/>
<path d="M9.08685 10.8031L12 7.89L14.9145 10.8043L16.6095 9.10935L12 4.5L7.392 9.108L9.08693 10.803L9.08685 10.8031ZM4.5 12L6.19506 10.3047L7.89 11.9996L6.19494 13.6947L4.5 12ZM9.08685 13.1971L12 16.11L14.9144 13.1957L16.6103 14.8898L16.6095 14.8906L12 19.5L7.3896 14.8896L9.08708 13.1968L9.08685 13.1971ZM16.11 12.0007L17.8051 10.3057L19.5 12.0006L17.805 13.6957L16.11 12.0007Z" fill="#F0B90B"/>
<path d="M13.7192 11.9991H13.7199L12 10.2791L10.7288 11.55L10.5828 11.6961L10.2816 11.9974L10.2792 11.9997L10.2816 12.0022L12 13.7209L13.72 12.0009L13.7208 11.9999L13.7193 11.9991" fill="#F0B90B"/>
</g>
<defs>
<clipPath id="clip0_5672_110">
<rect width="24" height="24" fill="white"/>
</clipPath>
</defs>
</svg>
