<svg width="24" height="24" viewBox="0 0 24 24" fill="none" xmlns="http://www.w3.org/2000/svg">
<g clip-path="url(#clip0_5672_109)">
<path d="M23.6408 14.9029C22.0378 21.3315 15.526 25.2438 9.096 23.6407C2.66858 22.038 -1.24421 15.5266 0.359459 9.0984C1.96163 2.66907 8.47342 -1.24364 14.9016 0.359093C21.3313 1.96183 25.2437 8.47402 23.6408 14.9029Z" fill="#F0B90B"/>
<path d="M12 4.5L13.8582 6.40298L9.1791 11.0821L7.32092 9.22388L12 4.5Z" fill="white"/>
<path d="M14.8209 7.32089L16.6791 9.22387L9.1791 16.7239L7.32092 14.8657L14.8209 7.32089Z" fill="white"/>
<path d="M6.35821 10.1418L8.2164 12.0448L6.35821 13.903L4.5 12.0448L6.35821 10.1418Z" fill="white"/>
<path d="M17.6417 10.1418L19.5 12.0448L12 19.5448L10.1417 17.6866L17.6417 10.1418Z" fill="white"/>
</g>
<defs>
<clipPath id="clip0_5672_109">
<rect width="24" height="24" fill="white"/>
</clipPath>
</defs>
</svg>
