<svg width="32" height="32" viewBox="0 0 32 32" fill="none" xmlns="http://www.w3.org/2000/svg">
<path d="M16 32C24.8365 32 32 24.8365 32 16C32 7.16344 24.8365 0 16 0C7.16344 0 0 7.16344 0 16C0 24.8365 7.16344 32 16 32Z" fill="#988430"/>
<path d="M16.0001 31.4867C24.5537 31.4867 31.4877 24.5527 31.4877 15.9992C31.4877 7.44571 24.5537 0.511719 16.0001 0.511719C7.44668 0.511719 0.512695 7.44571 0.512695 15.9992C0.512695 24.5527 7.44668 31.4867 16.0001 31.4867Z" fill="#7A6A2A"/>
<path d="M16 31.1621C24.3733 31.1621 31.1612 24.3743 31.1612 16.0011C31.1612 7.62773 24.3733 0.839844 16 0.839844C7.62676 0.839844 0.838867 7.62773 0.838867 16.0011C0.838867 24.3743 7.62676 31.1621 16 31.1621Z" fill="#BA9F33"/>
<path fill-rule="evenodd" clip-rule="evenodd" d="M6.99462 14.2925C6.90401 14.2099 6.80827 14.1269 6.7202 14.0441C6.63213 13.9613 6.54168 13.8784 6.45105 13.7956L6.18175 13.5396C6.13772 13.4956 6.09112 13.4568 6.04709 13.4127C6.00305 13.3739 5.95134 13.3299 5.90732 13.2909C5.54993 12.9518 5.19052 12.6127 4.83809 12.2734C5.20315 12.6074 5.56052 12.939 5.92557 13.278L6.05238 13.4049C6.09641 13.4488 6.143 13.4877 6.18704 13.5317L6.45617 13.7803C6.5468 13.8631 6.63486 13.946 6.72549 14.0363C6.81612 14.1265 6.90417 14.2096 6.9948 14.2923L6.99462 14.2925ZM2.25164 14.2413C2.25164 14.2413 3.55126 14.3759 4.18562 14.4665C4.77324 14.5495 6.61148 14.8316 6.61148 14.8316L2.25164 14.2413ZM2.25164 14.2413C2.61669 14.2724 2.98174 14.3112 3.3468 14.3501C3.53317 14.3681 3.71185 14.3888 3.89055 14.4069L4.16481 14.4381C4.25543 14.4509 4.34349 14.464 4.43412 14.4769L5.52161 14.6503L6.06519 14.7409C6.24387 14.772 6.42256 14.8057 6.60892 14.8368C6.43024 14.8188 6.24387 14.7928 6.06519 14.7669L5.52161 14.6892L4.43412 14.5288C4.34349 14.5159 4.25543 14.4976 4.16481 14.4848L3.89037 14.4532C3.71169 14.4351 3.52532 14.4092 3.34662 14.3884C2.98157 14.3445 2.61652 14.2977 2.25146 14.2409L2.25164 14.2413ZM6.48212 15.1701C6.48212 15.1701 5.09443 15.5224 4.62577 15.6571C4.16497 15.7839 2.76944 16.2085 2.76944 16.2085L6.48195 15.1703L6.48212 15.1701Z" fill="#CFB66C"/>
<path fill-rule="evenodd" clip-rule="evenodd" d="M6.48336 15.168C6.17529 15.2585 5.86894 15.3467 5.55646 15.4296L4.62957 15.6781C4.32152 15.7687 4.01517 15.8568 3.70797 15.9475L3.24717 16.0743C3.09442 16.1183 2.93912 16.1569 2.78125 16.2012C2.93382 16.15 3.0893 16.0976 3.24205 16.0536L3.70285 15.9061C4.0109 15.8101 4.31725 15.7196 4.62445 15.6239C4.93762 15.5461 5.24585 15.4632 5.55902 15.3881C5.85666 15.3131 6.17001 15.2381 6.48336 15.1681V15.168ZM2.96505 17.0607C3.11764 17.0037 4.87822 16.1831 5.28732 15.9915C5.49212 15.8955 6.0874 15.6843 6.0874 15.6843L2.96505 17.0607Z" fill="#CFB66C"/>
<path fill-rule="evenodd" clip-rule="evenodd" d="M2.96404 17.0609C3.09852 17.0097 3.22549 16.9471 3.35487 16.8876L3.73801 16.7089L4.50704 16.3387C4.76304 16.2171 5.01187 16.0827 5.27589 15.9684C5.41055 15.9115 5.5452 15.8649 5.67968 15.8209L5.88448 15.7563C5.95429 15.7381 6.01915 15.7173 6.08928 15.6992C5.83328 15.8209 5.5638 15.9245 5.30747 16.0435C5.05147 16.1704 4.78965 16.274 4.52547 16.3879L3.74364 16.7321C3.48116 16.8384 3.22516 16.9523 2.96387 17.0609H2.96404ZM3.13471 17.7777C3.13471 17.7777 4.72941 16.8432 5.27828 16.5428C5.56568 16.3824 6.49513 15.9215 6.49513 15.9215L3.13471 17.7777Z" fill="#CFB66C"/>
<path fill-rule="evenodd" clip-rule="evenodd" d="M3.13574 17.7795C3.40488 17.6137 3.67932 17.4455 3.95374 17.2745L4.36334 17.026C4.50312 16.9432 4.63777 16.8655 4.78028 16.7828C4.92006 16.6997 5.05472 16.6171 5.19705 16.5393C5.26481 16.4975 5.33581 16.4612 5.40936 16.4307L5.62678 16.322C5.9142 16.1821 6.2016 16.0396 6.50453 15.918C6.23009 16.0916 5.94781 16.2392 5.6657 16.3917C5.52593 16.4693 5.38342 16.5393 5.24364 16.6171C5.10386 16.6947 4.96921 16.7776 4.8267 16.8527C4.68693 16.9355 4.55228 17.0132 4.40993 17.0883L3.98788 17.3187L3.13608 17.7795H3.13574ZM6.4832 16.1276C6.4832 16.1276 5.49162 16.8887 5.1706 17.1321C4.84957 17.3755 3.9046 18.0589 3.9046 18.0589L6.4832 16.1276Z" fill="#CFB66C"/>
<path fill-rule="evenodd" clip-rule="evenodd" d="M12.1729 22.2651L11.6655 21.3045L11.9606 20.1032L14.0655 19.2903L13.1696 17.4523L13.6123 15.5959L14.4435 13.9336L17.0119 13.5299L18.8991 11.7305L22.9743 12.0385L23.7741 16.3959L22.2337 21.8819L21.3561 24.7221L17.7988 24.8568L16.1471 23.7125L14.2131 22.9045L12.1729 22.2651Z" fill="#E2CC85"/>
<path fill-rule="evenodd" clip-rule="evenodd" d="M18.4131 22.2347C18.4131 22.2347 17.9209 22.4599 17.0819 22.408C16.8389 22.0819 15.1381 21.9292 15.1381 21.9292C15.1381 21.9292 14.9257 21.8644 14.5503 22.0197C14.1724 22.1733 13.8151 22.1544 13.4811 22.2372C13.1471 22.32 12.8155 21.8851 12.5595 21.7945C12.3035 21.6988 11.964 21.4684 11.964 21.4684L11.2472 21.3984L9.80782 20.79L7.52106 18.5117L6.89966 19.4845L6.70801 20.6884L7.39937 22.1151L9.26083 23.8108L12.8906 24.7324L15.042 24.0985L17.7372 22.9593L18.4131 22.2345V22.2347Z" fill="#F1D789"/>
<path fill-rule="evenodd" clip-rule="evenodd" d="M5.51658 14.1824L5.97738 12.787L6.52642 11.8859L8.29452 11.7383L7.76375 13.2866L6.2856 15.9171L6.89915 18.2652L5.81183 18.8088L5.47767 18.2963L5.20852 17.1209L5.19043 15.8005L5.51658 14.1824Z" fill="#F4ECB4"/>
<path fill-rule="evenodd" clip-rule="evenodd" d="M7.50049 22.1373L7.16138 21.6636C7.16138 21.6636 7.07075 21.4383 7.12263 21.2415C7.17383 21.0421 7.1665 21.0292 7.14073 20.9541C7.11495 20.8791 6.89735 20.6201 6.91033 20.3975C6.92313 20.1721 6.89223 20.0971 7.05778 19.9185C7.23118 19.7451 7.17946 19.4448 7.17946 19.4448L7.40474 19.5845L7.45594 19.5069C7.45594 19.5069 7.53871 19.5716 7.53871 19.6725C7.55681 19.5328 7.48171 18.8855 7.65255 18.738C7.82339 18.5905 8.12633 19.4292 8.12633 19.4292L7.93995 18.2124L7.4609 16.9647L6.6091 15.8255L6.5579 14.5696V14.4609C6.5579 14.4609 6.1669 15.0617 6.05818 15.5361C5.98053 15.8623 6.1669 16.2584 6.12815 16.7271C6.09693 17.1932 6.05818 17.1568 6.17202 17.3415C6.28586 17.5261 6.56302 17.9059 6.4543 18.1803C6.35855 18.416 6.03225 18.2503 6.03225 18.2503C6.03225 18.2503 5.96757 18.4417 5.8795 18.5117C5.84843 18.3979 5.81482 18.3253 5.75269 18.2557C5.74741 18.2997 5.73461 18.3593 5.73461 18.3593C5.73461 18.3593 5.67759 18.1807 5.62059 17.9553C5.54311 17.6552 5.46017 17.2591 5.38507 17.0467C5.35402 17.1684 5.27637 17.5385 5.27637 17.5385L5.32039 18.1083L5.5327 18.8901L5.7375 19.4021L5.93685 20.0285L6.11007 20.4495L6.24985 20.7705L6.37153 21.4929L6.95914 22.1141L7.27247 22.2541L7.50015 22.1375L7.50049 22.1373Z" fill="#F3E19D"/>
<path fill-rule="evenodd" clip-rule="evenodd" d="M5.82583 13.0424C5.82583 13.0424 5.40378 13.7592 5.28226 14.4819C5.16075 15.2044 5.05186 15.968 5.12866 16.9517C5.20631 17.9435 5.35394 18.5517 5.47307 18.9867C5.67787 19.7092 6.2083 20.7137 6.2083 20.7137L6.22639 20.6748C6.13723 20.5057 6.06607 20.3279 6.01408 20.144C5.94411 19.8696 5.91816 19.5435 5.85348 19.3959C5.79648 19.2484 5.70074 19.1213 5.65415 18.9401C5.61011 18.7667 5.60295 18.4923 5.46778 18.2879C5.41078 18.2049 5.3408 17.9875 5.32015 17.77C5.2942 17.4437 5.33312 17.0787 5.30206 16.7784C5.24506 16.2788 5.20631 15.9396 5.25803 15.678C5.30974 15.4164 5.57922 14.6736 5.74494 14.0833C5.85366 13.7053 5.7888 13.3868 5.98814 13.0579C6.18748 12.7318 6.30934 12.4444 6.3532 12.245C6.4044 12.0638 5.82515 13.0424 5.82515 13.0424H5.82583Z" fill="#F2E8B0"/>
<path fill-rule="evenodd" clip-rule="evenodd" d="M7.82726 12.7559C7.82726 12.7559 7.60984 12.8207 7.50624 12.9346C7.40265 13.0433 7.35861 13.1339 7.21884 13.3177C7.07906 13.5015 7.07121 13.6517 6.95721 13.8821C6.84337 14.1073 6.59216 14.4465 6.56109 14.5681C6.53002 14.6899 6.47832 15.2593 6.41364 15.5287C6.35664 15.798 6.47832 16.1295 6.47832 16.1295L6.62577 16.0981C6.62577 16.0981 6.62577 16.2899 6.7734 16.4193C6.92085 16.5461 6.9468 15.9895 6.9468 15.9895L7.49822 14.128L8.3292 13.5636L8.41982 13.108L7.82693 12.7559H7.82726Z" fill="#F5EEC0"/>
<path fill-rule="evenodd" clip-rule="evenodd" d="M8.23047 13.6C8.23047 13.6 7.83947 13.6257 7.64797 13.7657C7.57032 13.8225 7.53927 13.8692 7.45649 13.9391C7.30375 14.066 7.14827 14.1825 7.07335 14.3487C6.9904 14.5143 6.89977 14.7655 6.83765 15.2393C6.81171 15.4387 6.81171 15.6224 6.79363 15.7831C6.76768 16.0004 6.72893 16.1739 6.74959 16.2951C6.77553 16.5435 7.03187 16.6731 7.05679 16.9552L7.58756 16.686L8.08728 14.7156L9.14883 14.05L8.54808 13.3769L8.22979 13.5988L8.23047 13.6Z" fill="#E6DB9D"/>
<path fill-rule="evenodd" clip-rule="evenodd" d="M5.42985 26.8681C5.43207 26.8488 5.43429 26.8293 5.43651 26.8093C5.51399 26.1437 5.52713 25.6392 5.58397 25.3233C5.66674 24.8755 5.72374 24.7089 5.71077 24.5413C5.69267 24.2721 5.67203 24.0753 5.69797 23.8683C5.73671 23.5937 6.00602 23.2676 5.99834 23.0424C5.99305 22.8636 5.90243 22.7472 5.82478 22.6385C5.74713 22.5299 5.68499 22.4392 5.68499 22.4392C5.68499 22.4392 6.21577 22.0741 6.21065 20.6035C6.22149 20.6065 6.23193 20.6109 6.24171 20.6165L6.50318 21.3595L6.68186 21.5768L7.36794 22.8559L8.25081 23.7129L9.55555 24.5905L10.3737 25.4808L10.4565 27.8549L9.38727 29.2427L9.21217 29.5597C7.82102 28.8613 6.54533 27.9536 5.42969 26.868L5.42985 26.8681Z" fill="#E5CB7A"/>
<path fill-rule="evenodd" clip-rule="evenodd" d="M8.69678 29.1387C8.69678 29.1387 8.71487 28.8436 8.95824 28.652C8.99715 28.7167 9.02292 28.7789 9.01524 28.8253C9.05927 28.7479 9.36732 28.2508 10.0638 28.1212C10.7603 27.9944 10.9286 27.4871 10.9286 27.4871L12.4067 26.1433L14.0973 24.5873L16.1531 23.8649L17.1137 23.6293C17.1137 23.6293 17.1319 23.6992 17.0956 23.8545C17.2741 23.8417 17.6703 23.7511 18.0819 23.606C18.2476 23.5413 18.4031 23.5155 18.4859 23.6009C18.6076 23.7148 18.6256 23.9841 18.6333 24.1445C18.8327 24.1005 19.0631 23.9089 19.2477 23.9271C19.5429 23.9581 19.8044 24.3051 20.1048 24.3051C20.5009 24.3051 20.6795 24.0617 20.9567 23.8701C21.1223 23.7563 21.3604 23.6141 21.4951 23.518C21.8161 23.2823 25.2129 22.2441 25.2129 22.2441L26.4037 22.3217L26.5955 23.6008L26.4931 26.9441C26.4804 26.9563 26.4677 26.9689 26.4549 26.9809L21.0401 29.8091L13.5341 30.9597C11.8528 30.6851 10.2303 30.1269 8.7357 29.3092L8.6973 29.1385L8.69678 29.1387Z" fill="#D8C173"/>
<path fill-rule="evenodd" clip-rule="evenodd" d="M5.88574 27.2928C5.99241 27.0697 6.08832 26.8832 6.10521 26.8164C6.11853 26.9509 6.14293 27.246 6.19209 27.5596C6.08889 27.472 5.98677 27.3829 5.88574 27.2925V27.2928Z" fill="#F1D789"/>
<path fill-rule="evenodd" clip-rule="evenodd" d="M11.3684 30.4397L12.3391 30.1697L12.4219 30.1956C12.4219 30.1956 12.4659 30.2216 12.4659 30.3095C12.5876 30.2397 12.6912 30.2525 12.7663 30.2061C12.8051 30.2888 12.8438 30.5633 13.0148 30.5969C13.1933 30.6359 13.3849 30.5192 13.5792 30.3717C13.7707 30.2191 13.9888 30.0273 14.1539 29.9497C14.2144 30.0611 14.268 30.176 14.3144 30.294C14.5319 30.1205 14.9099 29.4164 15.4484 29.4292C15.604 29.0615 15.864 28.7473 16.1963 28.5257C16.6959 28.1865 17.0091 28.1607 17.4001 28.1917C17.5553 27.99 17.7468 27.8188 17.9645 27.6868C18.0292 27.7128 18.2079 27.8215 18.4305 27.7179C18.6559 27.6145 18.9095 27.2131 19.2435 27.1613C19.4235 27.1367 19.6064 27.1751 19.7612 27.2701C19.7612 27.2701 20.734 26.3043 21.4053 25.9833C21.3793 25.9056 21.3276 25.6131 22.1145 24.9657C22.1587 25.0047 22.1276 25.1133 22.1587 25.1193C22.1715 25.1193 22.3635 25.0365 22.6064 24.85C22.9068 24.6249 23.2665 24.3892 23.484 24.3245C23.8936 24.2029 24.3281 24.4513 24.3281 24.4513C24.3651 24.4255 24.4063 24.4061 24.4499 24.3944C24.5532 24.3763 24.6284 24.3633 24.6853 24.3432C24.6803 24.4779 24.7553 24.7083 24.6853 24.9076C24.7664 24.9532 24.8523 24.9896 24.9413 25.0163C24.8975 25.112 24.8016 25.3553 24.6412 25.472C24.7756 25.5367 24.7937 25.6117 24.9853 25.6768C24.9077 25.7855 24.7805 25.972 24.7239 26.0864C24.6669 26.208 24.4623 26.7129 24.3716 26.9044C24.2759 27.096 24.1465 27.4481 24.0843 27.5188C24.022 27.5895 23.7968 27.8889 23.6235 28.0364C23.7771 27.9793 24.4055 27.7879 24.672 27.7153C24.5927 27.8317 24.1904 28.4285 23.8037 29.0025C21.952 30.1124 19.8851 30.8148 17.7407 31.0631C15.5961 31.3113 13.4235 31.0997 11.3672 30.4423L11.3684 30.4397Z" fill="#E0CD81"/>
<path fill-rule="evenodd" clip-rule="evenodd" d="M8.29448 13.5301C8.29448 13.5301 8.06938 13.5301 8.02534 13.5612C7.98131 13.5923 8.25062 13.6572 8.33339 13.6883C8.41616 13.7193 8.59486 13.8616 8.64144 13.9756C8.68548 14.0844 10.2595 14.7185 10.2595 14.7185L11.3728 14.6616L11.7566 14.1313L11.0265 13.4917L11.5385 11.9824L10.8603 12.0911L9.22923 13.0639L8.41104 13.3773L8.29448 13.5301Z" fill="#DFC57C"/>
<path fill-rule="evenodd" clip-rule="evenodd" d="M10.7393 14.0284C10.7553 14.0545 10.778 14.0759 10.805 14.0904C10.8319 14.1049 10.8622 14.1121 10.8929 14.1112C11.1233 14.1112 11.3354 14.1683 11.4235 14.2847C11.5711 14.4712 11.9802 15.0667 11.9802 15.0667L12.9588 15.4187L13.0219 14.2664L11.9527 13.5235L10.7358 13.9713V14.0283H10.7386L10.7393 14.0284Z" fill="#E5CC7C"/>
<path fill-rule="evenodd" clip-rule="evenodd" d="M10.5471 14.4571C10.5471 14.4571 10.7257 14.47 10.9509 14.3871C11.1762 14.3041 11.5464 14.1256 11.707 14.1956C11.9321 14.2913 11.8855 14.5917 12.1291 14.8612C12.2765 15.0269 12.5458 15.0217 12.6986 15.2005C12.8513 15.3792 13.3768 15.2963 13.3768 15.2963L13.5761 16.3715L12.7762 17.3968L12.5146 18.6705H11.4329L10.4447 18.2784L9.95801 17.1008L10.2014 15.91L10.5471 14.4571Z" fill="#D2C281"/>
<path fill-rule="evenodd" clip-rule="evenodd" d="M12.6392 14.5083C12.666 14.5165 12.6939 14.5209 12.7219 14.5212C12.6909 14.5472 12.626 14.604 12.652 14.7516C12.6779 14.8992 12.7607 15.0856 12.6909 15.1995C12.7466 15.2604 12.7882 15.3329 12.8126 15.4117C12.8566 15.5387 12.8696 15.6551 13.1568 15.6733C13.1153 15.6989 13.0771 15.7293 13.043 15.764C13.043 15.764 13.2423 15.9373 13.3433 16.0979C13.4468 16.0933 13.7212 16.008 13.7212 16.008L13.7783 16.0469L13.8999 15.9957C13.8999 15.9957 13.786 15.9517 13.8688 15.6748C13.9465 15.4313 14.0164 15.4444 14.0224 15.4263C14.0284 15.4081 14.0795 15.1519 14.0795 15.0483C14.1181 14.9137 14.1492 14.5047 14.1492 14.5047L14.0664 13.6012L13.6005 13.3189L13.2217 12.9531L12.8643 13.6263L12.6289 13.8609L12.6108 14.4433L12.6392 14.5083Z" fill="#E2C270"/>
<path fill-rule="evenodd" clip-rule="evenodd" d="M13.7608 13.7532C13.7608 13.7532 13.8435 13.9887 13.8748 14.17C13.8857 14.1348 13.8919 14.0981 13.8928 14.0612C13.8928 14.0612 13.9575 14.4187 13.9703 14.5663C13.9963 14.5609 14.0215 14.5533 14.0273 14.5791C14.0331 14.6048 14.0921 14.8924 14.0785 15.0528C14.1864 14.8749 14.3355 14.7257 14.5133 14.618C14.6169 14.5531 14.7387 14.4833 14.8656 14.478C15.0649 14.4729 15.2099 14.6051 15.4481 14.6051C16.0228 14.6051 16.5433 14.1829 16.9264 14.0536C17.2085 13.9577 17.4519 13.8879 17.6228 13.7324C17.7057 13.6625 17.8533 13.5073 17.9879 13.2767C18.1665 12.9695 18.3529 12.7021 18.5395 12.6685C18.4551 12.684 18.3692 12.69 18.2835 12.6865C18.2835 12.6865 18.3404 12.6295 18.4371 12.5519C18.5336 12.4742 18.6493 12.3785 18.8148 12.3785C19.1101 12.3785 19.2576 12.4223 19.4233 12.4223C19.5891 12.4172 19.6848 12.3785 19.6848 12.3785C19.6848 12.3785 19.8583 12.5002 20.2492 12.5002C20.6401 12.5053 20.9016 12.5389 21.1063 12.5572C21.3108 12.5754 21.9968 12.5002 22.1936 12.506C22.3219 12.5109 22.4479 12.5417 22.5639 12.5966L21.9295 10.7534L19.6508 8.76172L18.2941 9.72223L16.2072 11.809L14.1879 12.5572L13.7659 13.0309V13.7532H13.7608Z" fill="#CCB360"/>
<path fill-rule="evenodd" clip-rule="evenodd" d="M18.2908 12.6966C18.2908 12.6966 18.3479 12.6397 18.4435 12.5621C18.5391 12.4844 18.6559 12.3885 18.8215 12.3885C19.1165 12.3885 19.2641 12.4326 19.4299 12.4326C19.5956 12.4274 19.6913 12.3885 19.6913 12.3885C19.6913 12.3885 19.8651 12.51 20.2557 12.51C20.6468 12.5152 20.9083 12.5488 21.1128 12.5669C21.3175 12.585 22.0033 12.51 22.2001 12.5157C22.3284 12.5205 22.4544 12.5513 22.5703 12.6063L22.2829 11.7751L21.9491 11.1409L20.9963 10.0975C20.9963 10.0975 19.8528 9.42439 19.8441 9.41927C19.8389 9.41415 19.448 9.31055 19.448 9.31055L18.4124 9.93707L17.4727 12.3682L17.4545 12.8802L18.0628 13.1676C18.2156 12.9116 18.384 12.7068 18.5419 12.6809C18.3993 12.6964 18.2907 12.6964 18.2907 12.6964L18.2908 12.6966Z" fill="#D5B457"/>
<path fill-rule="evenodd" clip-rule="evenodd" d="M18.2781 12.8697C18.1875 12.8748 18.1125 12.8567 18.0917 12.7921C18.0141 12.5746 17.952 12.5436 17.8869 12.5436C17.8219 12.5436 17.7343 12.6833 17.6821 12.6961C17.6301 12.7089 17.5683 12.5357 17.5683 12.5357L17.5113 12.5098C17.5113 12.5098 17.1773 12.7272 16.9419 12.9835C16.7063 13.2399 16.3204 13.6749 16.1471 13.7524C15.9736 13.8299 15.378 13.856 15.1743 13.9C14.9704 13.944 14.7445 14.0917 14.7135 14.1253C14.6824 14.1589 14.8043 14.1951 14.8223 14.2287C14.8404 14.2597 14.6228 14.2468 14.6047 14.2799C14.5919 14.3059 14.6559 14.4533 14.6876 14.5284C14.7432 14.5008 14.8041 14.4857 14.8661 14.4844C15.0655 14.4792 15.2105 14.6113 15.4487 14.6113C16.0235 14.6113 16.5439 14.1893 16.9269 14.0597C17.2092 13.964 17.4527 13.894 17.6235 13.7388C17.7063 13.6689 17.8539 13.5135 17.9885 13.2831C18.0868 13.1252 18.1827 12.9776 18.2787 12.8689L18.2781 12.8697Z" fill="#D2B257"/>
<path fill-rule="evenodd" clip-rule="evenodd" d="M10.0352 25.6836C10.0352 25.6836 9.984 25.492 9.50955 24.9976C9.3749 24.8577 9.29212 24.7416 9.2015 24.6584C8.97622 24.446 8.84412 24.3892 8.6837 24.2675C8.33162 24.006 7.94847 24.006 7.65339 23.6849C7.3583 23.364 7.0144 22.7505 6.77547 22.1237C6.53995 21.4972 6.4751 21.2979 6.4751 21.2797C6.4751 21.2617 6.53995 21.14 6.62272 21.1581C6.7055 21.1761 6.7055 21.3365 6.72632 21.3755C6.76756 21.4391 6.81434 21.4988 6.8661 21.554C6.98779 21.694 7.16118 21.8612 7.24924 22.1108C7.23115 21.8984 7.15862 21.6629 7.15862 21.6629C7.15862 21.6629 7.6143 21.9503 8.00256 22.2505C8.39356 22.5509 8.55399 22.6545 8.66816 22.846C8.78235 23.0375 9.05131 23.5424 9.18016 23.6901C9.30902 23.8377 11.0746 24.3943 11.0746 24.3943L11.9144 25.0204L12.3314 25.9344L12.005 26.4464L11.3785 26.5811L10.361 26.1253L10.0352 25.6835V25.6836Z" fill="#D2B159"/>
<path fill-rule="evenodd" clip-rule="evenodd" d="M7.7749 22.5343C7.7749 22.5343 7.98721 22.8733 8.50501 23.1944C8.9711 23.4767 9.70889 23.7329 10.3666 23.8857C10.7445 23.9764 11.1225 24.0461 11.4616 24.0515C12.3756 24.0643 13.0046 23.8029 13.7841 23.7175C14.2061 23.6735 14.724 23.6397 15.2624 23.5127C15.9536 23.3469 16.3627 23.1604 16.9193 22.8983C17.3232 22.7119 17.6935 22.5721 17.9937 22.3935C18.4157 22.1449 18.7239 21.8679 19.0812 21.7852C19.0372 21.9068 18.9905 22.1243 18.6385 22.3496C18.8249 22.3443 19.0812 22.3315 19.0812 22.3315C19.0812 22.3315 18.8327 22.4789 18.3952 22.8104C18.1259 23.0152 17.7687 23.3617 17.4036 23.5921C17.1679 23.7399 16.9116 23.8481 16.7432 23.9365C16.3336 24.1619 16.1684 24.2757 15.8993 24.5509C15.9951 24.5459 16.0029 24.5509 16.0029 24.5509C16.0029 24.5509 15.6636 24.5951 15.4204 24.7244C15.3692 24.7244 15.2805 24.7063 15.1252 24.7503C15.0035 24.7891 14.8429 24.8773 14.6773 24.9237C14.4416 24.9937 14.3641 24.9627 14.3641 24.9627L14.4029 25.0403C14.4029 25.0403 14.0957 25.0349 13.9933 25.0455C14.0115 25.0505 14.0063 25.0584 14.0063 25.0584C13.9883 25.0613 13.9709 25.0675 13.9551 25.0764C13.9059 25.1084 13.8516 25.132 13.7947 25.1463C13.7636 25.1513 13.7376 25.1513 13.6988 25.1592C13.7117 25.1903 13.8128 25.364 13.8593 25.4664C13.8205 25.4924 13.2379 25.9325 13.2379 25.9325C13.256 25.9609 13.2708 25.9913 13.282 26.0232C13.3001 26.08 13.3079 26.1629 13.326 26.2017C13.3699 26.2793 13.3959 26.2923 13.3959 26.2923C13.3959 26.2923 13.326 26.3052 13.2041 26.3363C13.1007 26.3623 12.9737 26.4061 12.7945 26.4321C12.7396 26.4392 12.6842 26.4436 12.6288 26.4451C12.6548 26.502 12.7686 26.7195 12.5588 26.9705C12.3491 27.2216 12.2844 27.2581 12.2197 27.4185C12.1872 27.3939 12.1525 27.3721 12.1161 27.3537C12.0463 27.3227 11.9504 27.2761 11.9168 27.2139C11.8972 27.2969 11.8712 27.3783 11.8392 27.4572C11.7745 27.6307 11.6787 27.8017 11.6606 27.9311C11.5907 27.8533 11.4613 27.7007 11.2826 27.7317C11.1039 27.7628 10.9616 28.0061 10.9305 28.0761C10.9305 28.0321 10.8995 27.9984 10.8918 28.0501C10.8865 28.1072 10.7882 28.7024 10.2393 29.1841C10.2342 29.0624 10.2342 28.7931 10.2212 28.7052C10.17 28.7564 10.1074 28.832 9.73449 28.9925C9.36944 29.1531 9.42729 29.3136 9.42729 29.3136C9.42729 29.3136 9.39624 29.0576 9.59301 28.788C9.79234 28.5188 9.91404 28.3919 9.91404 28.3712C9.91082 28.3501 9.90184 28.3304 9.88809 28.3141C9.86216 28.2883 9.81044 28.2572 9.81044 28.2365C9.8415 28.2237 10.1496 28.0761 10.1315 27.7704C10.1134 27.4961 9.99698 27.3537 9.91404 27.2528C9.90124 27.2399 10.0359 27.1441 10.0176 27.1131C10.0047 27.0949 9.83912 26.9731 9.81829 26.9083C9.82318 26.8695 9.83188 26.8313 9.84424 26.7944C9.86232 26.7373 9.87529 26.6985 9.87017 26.6597C9.8572 26.5951 9.78722 26.4164 9.76658 26.3983C9.78466 26.4033 9.91404 26.3983 9.91404 26.3983C9.91404 26.3983 9.81061 26.2325 9.79234 26.1549C9.77409 26.0772 9.73534 25.8727 9.71469 25.8339C9.75873 25.8391 9.86744 25.8467 9.86744 25.8339C9.87273 25.7949 9.7717 25.7303 9.81624 25.6803C9.8473 25.6855 9.90686 25.7113 9.9637 25.7839C9.93264 25.7009 9.88093 25.5405 9.77204 25.4759C9.82324 25.4577 9.99732 25.4109 10.1501 25.5016C10.3028 25.5923 10.3549 25.7191 10.3549 25.7191C10.3549 25.7191 10.4455 25.7889 10.5854 25.8925C10.7459 26.0193 10.9503 26.1997 11.2766 26.3275C11.3466 26.3664 11.5251 26.3664 11.6547 26.3404C11.7111 26.3269 11.7651 26.3052 11.8151 26.2757C11.8331 26.2651 11.8522 26.2564 11.8721 26.2497C11.8443 26.1939 11.8122 26.1403 11.7763 26.0892C11.8204 26.0892 11.8721 26.0945 11.8721 26.0945C11.8721 26.0945 11.9032 26.0245 11.7634 25.8897C11.7944 25.8587 11.8333 25.8385 11.8333 25.7861C11.7893 25.7809 11.7117 25.7163 11.6936 25.6904C11.7193 25.6723 11.7583 25.6127 11.8023 25.5947C11.7634 25.5636 11.6676 25.434 11.6236 25.4212C11.6657 25.4056 11.7064 25.3865 11.7453 25.3643C11.7453 25.3643 11.5279 25.3072 11.4579 25.2607C11.3879 25.2095 11.2845 25.1208 11.2224 25.0949C11.1575 25.0689 11.0437 25.0561 10.9971 25.0043C11.0409 25.0172 11.1109 25.0043 11.1628 25.0043C11.2015 25.0043 11.2198 25.0093 11.2326 25.0093C11.2275 24.9913 11.2275 24.9524 11.3285 24.9396C11.3771 24.9323 11.4243 24.9175 11.4683 24.8956C11.4683 24.8956 11.3724 24.8904 11.2635 24.7868C11.1546 24.6832 11.0642 24.6005 11.002 24.5875C10.9374 24.5745 10.8157 24.6316 10.7406 24.6263C10.637 24.6135 10.5929 24.5616 10.5929 24.5616C10.5929 24.5616 10.2487 24.5927 9.48498 24.1267C8.82466 23.7228 8.53726 23.3655 8.53726 23.3655C8.47548 23.3431 8.41574 23.3153 8.35874 23.2825C8.11026 23.1532 7.76585 22.8839 7.77626 22.5316L7.7749 22.5343Z" fill="#C2A44D"/>
<path fill-rule="evenodd" clip-rule="evenodd" d="M17.2991 6.99432C17.3589 7.01377 17.4121 7.04968 17.4527 7.09792C17.5743 7.23769 17.652 7.50172 17.3749 7.784C17.4836 7.82273 17.5285 7.8352 17.6235 7.82273C17.5277 7.93674 17.3103 8.18012 17.2973 8.39242C17.2843 8.56582 17.3931 8.6177 17.3931 8.6177C17.3931 8.6177 17.2273 8.80918 17.2196 9.1297C17.2979 9.04145 17.3836 8.96002 17.4756 8.88633C17.6673 8.73358 17.9313 8.56018 18.11 8.45148C18.1076 8.49704 18.1137 8.54265 18.1281 8.58596C18.1281 8.58596 18.4619 8.31153 18.7425 8.43338C18.8693 8.49038 18.8123 8.6689 18.8123 8.6689C18.8123 8.6689 18.9859 8.60422 19.1076 8.7259C19.2292 8.84758 19.4013 9.16145 19.4895 9.28313C19.5283 9.34013 19.6293 9.44885 19.7327 9.61713C19.874 9.85272 19.992 10.1015 20.0849 10.36C20.0901 10.2254 20.1237 10.0158 20.5071 10.1477C20.8901 10.2824 21.3251 10.5647 21.6901 11.1205C22.0552 11.6764 22.1456 12.3039 22.3295 12.5429C22.5157 12.7733 22.7075 13.1564 22.7204 13.317C22.7333 13.4776 22.6635 13.9952 23.0465 15.3959C23.1553 14.9611 23.3209 13.9952 23.3209 13.9952L23.4116 13.1434L23.5152 10.5078L20.7631 8.22141L18.6116 6.66016L17.2109 6.79481L17.2988 6.99414L17.2991 6.99432Z" fill="#CAA13E"/>
<path fill-rule="evenodd" clip-rule="evenodd" d="M22.4123 10.9189C22.4123 10.9189 22.3733 10.6629 21.7261 10.2277C21.0788 9.79794 20.574 9.79794 20.1081 9.43287C19.7507 9.14547 19.378 8.48516 19.1353 8.26774C18.8996 8.05287 18.8608 7.43147 18.8608 7.43147L19.6556 6.76587L20.8377 5.05732L21.8369 3.95703L22.3159 4.62263L22.9815 5.40446L23.3516 6.9734L23.4863 9.2699L22.4111 10.919L22.4123 10.9189Z" fill="#B59544"/>
<path fill-rule="evenodd" clip-rule="evenodd" d="M23.2127 13.6707C23.2323 13.3223 23.1893 12.9734 23.0857 12.6403C22.9151 12.1095 22.5421 11.1671 22.3689 10.8142C22.2989 10.4232 22.3508 10.3921 22.426 10.3481C22.5011 10.304 22.7833 10.1433 22.938 9.57922C23.0925 9.01516 23.5723 8.99672 23.5723 8.99672L23.8673 8.7793L24.3153 9.90024L24.7063 10.9126L24.8279 11.6868L24.9185 12.3469L24.7063 13.7424L23.6579 14.69L23.2125 13.6707H23.2127Z" fill="#C89D3A"/>
<path fill-rule="evenodd" clip-rule="evenodd" d="M8.58301 29.2251V29.1963C8.60479 29.1827 8.62402 29.1653 8.63983 29.1451C8.65793 29.1192 8.67106 29.0881 8.68386 29.0804C8.70981 29.0675 8.83149 29.0292 8.89618 29.0416C8.96086 29.0539 9.13186 29.1243 9.22249 29.1192C9.40886 29.1141 9.62629 28.9716 9.9707 29.0364C10.4885 29.1321 10.6102 29.4843 10.9106 29.6836C11.1154 29.8236 11.3273 29.7612 11.3584 29.7612H11.4282C11.4412 29.7612 11.5369 29.6525 11.5888 29.6579C11.6924 29.6629 11.7026 29.7484 11.7673 29.7536C11.92 29.7716 12.2153 29.6759 12.3629 29.7148C12.4067 29.7285 12.4465 29.7527 12.479 29.7851C12.5114 29.8175 12.5355 29.8572 12.5493 29.9011C12.5804 29.9968 12.5544 30.1184 12.4793 30.1884C12.3189 30.3359 12.1662 30.4759 12.1351 30.598C12.1746 30.6281 12.2125 30.6603 12.2488 30.6943C10.9678 30.3679 9.73527 29.8744 8.58301 29.2265V29.2251Z" fill="#CEB052"/>
<path fill-rule="evenodd" clip-rule="evenodd" d="M22.3687 24.0525C22.3687 24.0525 22.7724 23.514 22.9124 23.2472C23.0521 22.9723 22.4697 19.4907 22.4697 19.4907L23.64 15.6565L23.6087 14.4087C23.6087 14.4087 23.6657 13.2564 23.8004 12.7567C23.9609 13.0441 24.4607 13.3911 24.5695 13.5749C24.6207 13.2226 24.7945 12.4797 24.7688 11.6875C24.8645 11.835 25.0949 13.3186 25.0949 13.3186L25.3253 14.3179L25.6256 15.3793L25.9596 16.5005L26.1591 17.2747L26.2728 17.4609L26.3688 17.7871L26.4593 18.1393L26.7208 18.9652L26.8744 19.6435L26.9961 20.8733C27.0225 20.9675 27.0416 21.0636 27.0531 21.1607C27.0583 21.2953 27.0351 21.3731 27.0351 21.3964C27.0351 21.4197 27.0791 21.6915 27.0609 21.8961C27.0351 22.1009 27.0351 22.2612 26.8744 22.4081C26.7139 22.5551 26.6129 23.4333 26.6129 23.4333L26.3256 23.2419C26.3256 23.2419 26.3825 22.9801 26.2479 22.7421C26.1132 22.504 25.8517 22.4547 25.7041 22.4936C25.5566 22.5247 25.2616 22.5711 25.1657 22.654C25.0751 22.7368 24.8525 22.9932 24.6479 23.1097C24.3919 23.2633 23.9748 23.2755 23.7523 23.3272C23.5269 23.3784 23.2785 23.532 23.0168 23.7103C22.8117 23.8431 22.5951 23.9573 22.3697 24.0516L22.3687 24.0525Z" fill="#CCA847"/>
<path fill-rule="evenodd" clip-rule="evenodd" d="M22.3687 29.7081C22.3687 29.7081 22.3857 29.7192 22.4187 29.7373C24.258 28.8755 25.9061 27.654 27.2656 26.1448C27.2508 25.6208 27.2315 25.0837 27.2103 24.8847C27.1664 24.4627 27.1975 24.0329 27.1845 23.7844C27.1716 23.536 27.0317 22.5236 26.9671 22.2621C26.8971 22.0007 26.7623 21.8711 26.7419 21.8711C26.7237 21.8764 26.6148 22.3631 26.6148 22.4855C26.6148 22.6079 26.5889 22.9024 26.5889 22.9775C26.5708 22.9723 26.5631 22.9263 26.5631 22.9076C26.5372 22.9723 26.5061 23.0863 26.4932 23.0992C26.4801 23.1121 26.5112 22.9905 26.4932 22.9645C26.4751 22.9387 26.442 22.9516 26.4491 22.8869C26.4521 22.8485 26.4583 22.8105 26.4672 22.7731C26.4672 22.7731 26.3896 22.8869 26.3327 23.1768C26.2757 23.4643 26.2757 23.4721 26.2551 23.4979C26.2369 23.5291 26.1333 23.6325 26.1281 23.6715C26.1229 23.7412 26.224 23.8112 26.2317 23.85C26.2368 23.9148 26.1411 24.2151 26.11 24.362C26.0789 24.5089 26.0919 24.7968 26.0588 24.9444C26.0329 25.0791 26.0076 25.1568 25.9191 25.2136C25.9837 25.2265 26.0459 25.2447 26.0459 25.2447C26.0459 25.2447 26.1364 25.6279 25.906 25.9541C25.8233 26.068 25.8027 26.1199 25.7145 26.2235C25.5411 26.4149 25.4064 26.6331 25.3933 26.7748C25.3844 26.7329 25.3784 26.6905 25.3753 26.6479C25.3753 26.6479 25.1061 26.9612 24.9921 27.1399C24.8447 27.3703 24.64 27.3573 24.5825 27.4144C24.5251 27.4713 24.5125 27.5748 24.5313 27.6577C24.4801 27.6705 24.3839 27.6888 24.3191 27.8881C24.288 27.9916 24.2103 28.0929 24.0887 28.1625C23.9669 28.2321 23.8193 28.2532 23.7443 28.2712C23.8089 28.2893 23.8348 28.2893 23.8659 28.31C23.8272 28.3747 23.6485 28.4757 23.4492 28.6052C23.2499 28.7269 23.1539 28.9055 23.1048 29.022C23.0536 29.1308 22.9779 29.2007 22.8563 29.2137C22.9075 29.2448 22.9832 29.3171 23.022 29.3405C22.9649 29.3535 22.8684 29.3535 22.6959 29.5011C22.5145 29.6513 22.4524 29.6953 22.3695 29.7083L22.3687 29.7081Z" fill="#C39D3C"/>
<path fill-rule="evenodd" clip-rule="evenodd" d="M18.7665 30.9092C18.8656 30.8397 18.9729 30.7828 19.0861 30.7397C19.49 30.5793 19.9171 30.5483 20.0853 30.4965C20.246 30.4453 20.3728 30.3747 20.5721 30.336C20.5668 30.3813 20.5624 30.424 20.5576 30.4643C19.97 30.6491 19.3715 30.7976 18.7656 30.9092H18.7665Z" fill="#D2BA6B"/>
<path fill-rule="evenodd" clip-rule="evenodd" d="M26.214 20.2871C26.214 20.2871 26.1313 20.7349 25.9836 21.0172C25.836 21.2995 25.6764 21.6903 25.6764 21.6903C25.6775 21.6023 25.6879 21.5145 25.7075 21.4287C25.5212 21.5373 25.068 21.7991 24.9395 21.9155C24.8179 22.0241 24.6132 22.2157 24.5615 22.3064C24.6832 21.9492 24.81 21.6281 24.8308 21.4805C24.6444 21.6152 23.7744 22.3324 23.3215 22.8061L21.9104 23.9479C21.7475 24.0357 21.5799 24.1143 21.4081 24.1831C21.1649 24.2865 20.8775 24.3745 20.6652 24.4575C20.7221 24.3048 20.8127 24.1699 20.9396 24.0405C21.0743 23.9137 21.478 23.4761 21.5401 23.2725C21.5972 23.0603 21.6101 22.9335 21.5351 22.7548C21.4651 22.7728 21.3047 22.7807 21.196 22.8117C21.0872 22.8428 20.9707 22.9592 20.9707 22.9592C20.9707 22.9592 21.0535 22.4855 21.2321 22.0376C21.0975 22.0427 20.8671 22.0815 20.8671 22.0815C20.8671 22.0815 21.1881 21.5431 21.7375 21.1677C21.5692 21.2035 21.4045 21.2545 21.2456 21.3203C20.9245 21.4549 20.5725 21.6543 20.3111 21.7631C20.4585 21.5583 21.4941 20.0803 22.1104 18.7028C22.7248 17.328 22.9543 16.976 23.0889 16.2381C23.1588 15.8731 23.1401 15.3336 23.1588 14.8505C23.1768 14.3715 23.2364 13.9417 23.1977 13.6543C23.3581 13.8536 23.9588 14.4155 23.9795 15.6712C23.9976 16.9268 23.4049 18.6228 22.7756 19.5365C22.9292 19.5805 23.3272 19.6324 23.7361 18.9221C24.1451 18.2117 24.1401 18.0135 24.2877 17.7183C24.3059 17.8659 24.3005 17.9176 24.3005 17.9176C24.3005 17.9176 24.8961 17.1953 25.1783 16.2865C25.2353 16.6775 25.4036 17.0219 25.1393 17.7391C24.9039 18.3861 24.5957 18.5443 24.5957 18.5443C24.5957 18.5443 24.7485 18.5183 24.9736 18.3836C25.0125 18.4793 25.0049 18.5884 25.0696 18.6271C25.1343 18.6656 25.2223 18.7307 25.2353 18.7927C25.3051 18.6891 25.4137 18.5571 25.4476 18.4587C25.4216 18.6635 25.4036 19.5591 25.4988 20.0147C25.6983 19.9967 25.9028 19.9836 26.0425 19.6237C25.9468 19.976 25.9468 20.1881 26.0115 20.4885C26.1176 20.4161 26.2133 20.2865 26.2133 20.2865L26.214 20.2871Z" fill="#C0993A"/>
<path fill-rule="evenodd" clip-rule="evenodd" d="M19.4879 6.01544C19.4879 6.01544 19.2885 6.09822 18.9495 6.09822C18.6544 6.09822 18.7371 5.98438 18.2763 5.98438C17.5671 5.98438 15.0893 6.39398 14.6543 6.38818C14.372 6.38306 15.6069 6.50986 15.6069 6.50986L18.7631 6.5539L19.3972 6.5027L19.6329 6.02312L19.4879 6.01544Z" fill="#A88F33"/>
<path fill-rule="evenodd" clip-rule="evenodd" d="M11.3039 12.1872C11.3039 12.1872 10.9 12.4953 10.7291 12.731C10.5583 12.9667 10.4677 13.1218 10.2734 13.3134C10.319 13.3152 10.3646 13.3091 10.4081 13.2953C10.4081 13.2953 10.4081 13.3465 10.377 13.36C10.4039 13.3571 10.431 13.3601 10.4566 13.3689C10.4821 13.3777 10.5053 13.3923 10.5245 13.4112C10.4675 13.4423 10.3122 13.5977 10.4339 13.7816C10.5245 13.9213 10.7161 13.9341 10.7161 13.9341C10.7161 13.9341 10.6721 14.0612 10.8559 14.0481C11.252 14.0301 11.6947 13.8565 11.8992 13.9005C12.104 13.9517 12.2204 13.9705 12.3653 14.2217C12.5189 14.4703 12.6527 14.5092 12.6527 14.5092C12.6527 14.5092 12.7433 14.2785 12.7227 13.9343C12.797 13.7488 12.8382 13.5516 12.8444 13.3519L12.7097 12.3603L12.1221 11.6172L11.3609 12.0392L11.3039 12.1867V12.1872Z" fill="#E3C571"/>
<path fill-rule="evenodd" clip-rule="evenodd" d="M12.0264 12.039C12.0264 12.039 12.0834 12.1737 12.3216 12.1865C12.2957 12.2435 12.2957 12.2514 12.3035 12.2952C12.3086 12.3392 12.3163 12.4039 12.3163 12.4039C12.3426 12.3912 12.3663 12.3739 12.3863 12.3527C12.3993 12.4097 12.3733 12.5002 12.3863 12.565C12.3943 12.6045 12.4073 12.6427 12.425 12.6789C12.4288 12.67 12.4332 12.6614 12.438 12.6531C12.4431 12.6401 12.4892 12.7929 12.6167 12.9091C12.6166 12.8912 12.621 12.8736 12.6295 12.8579C12.6314 12.8904 12.6422 12.9217 12.6606 12.9485C12.651 12.944 12.6423 12.9379 12.6348 12.9304C12.6348 12.9304 12.6476 13.34 12.7176 13.5519C12.7293 13.5381 12.7396 13.5235 12.7486 13.5079C12.7486 13.4951 12.7435 13.6219 12.7305 13.7127C12.7124 13.8032 12.7254 13.93 12.7254 13.93C12.7721 13.8933 12.8234 13.8628 12.878 13.8395C12.9556 13.8081 13.0828 13.7124 13.1603 13.5001C13.2052 13.3799 13.2399 13.256 13.2639 13.13C13.2889 13.1781 13.3062 13.23 13.3151 13.2836C13.3204 13.3483 13.442 13.3146 13.442 13.3146L13.468 13.0323L13.6216 12.3928L13.7613 11.9967L14.4345 10.9483L15.6507 10.0117L16.7121 10.2551L17.6079 9.03821L16.0648 8.11133L14.6047 8.26407L13.2794 10.0996L12.218 11.7644L12.0264 12.0389V12.039Z" fill="#D8B65B"/>
<path fill-rule="evenodd" clip-rule="evenodd" d="M19.6739 9.38383C19.6739 9.38383 19.5833 9.40191 19.3219 9.53743C19.0604 9.67293 18.8791 9.71593 18.7781 9.91528C18.6771 10.1146 18.6693 10.2727 18.6693 10.2727C18.6693 10.2727 18.848 10.195 18.9516 10.1691C19.0604 10.1433 19.182 10.151 19.1691 10.195C19.1567 10.2252 19.1393 10.2531 19.1179 10.2778C19.1179 10.2778 19.3227 10.2727 19.3172 10.3737C19.3117 10.4747 19.2785 10.586 19.2397 10.6351C19.2008 10.6863 19.0404 10.7621 19.0223 10.8217C18.9783 10.9434 19.0404 10.9485 19.0171 11.0468C18.9989 11.1427 18.9136 11.3291 18.6339 11.6552C18.3464 11.9815 18.2243 12.2119 18.2243 12.2119C18.2243 12.2119 18.0845 11.9505 18.012 11.7252C17.9608 11.751 17.6859 11.9037 17.6859 11.9037L17.0489 9.68505L17.0617 9.53743C17.0617 9.53743 17.1187 9.46761 17.1316 9.33808C17.0359 9.30703 17.0229 9.28108 16.896 9.15956C16.7689 9.03805 16.6656 8.89025 16.4535 8.78921C16.4224 8.73221 16.3835 8.65473 16.2281 8.62351C16.0728 8.59227 15.9796 8.56667 15.9796 8.56667C15.9796 8.56667 16.0624 8.53544 16.1013 8.47076C16.0055 8.48372 15.928 8.51479 15.7181 8.50967C15.5059 8.50437 15.4825 8.49669 15.3661 8.51479C15.2497 8.53288 15.1101 8.58476 15.058 8.40607C15.0011 8.36204 14.8793 8.40095 14.7757 8.55352C14.6721 8.70611 14.636 8.82796 14.4367 8.88752C14.4227 8.97539 14.3919 9.05975 14.346 9.13601C14.2891 9.23193 14.1984 9.32767 14.0767 9.47001C13.8851 9.69529 13.9161 10.0655 13.6107 10.3477C13.3026 10.6299 13.6619 9.56575 13.6619 9.56575L14.1537 8.38815L15.5544 7.01855L17.7292 6.87109L17.9415 7.99749L19.0031 8.36255L19.6736 9.38519L19.6739 9.38383Z" fill="#D3AE4D"/>
<path fill-rule="evenodd" clip-rule="evenodd" d="M20.0187 9.63212L19.1047 8.3144L18.4652 7.82237C18.4652 7.82237 18.0096 6.98372 17.9785 6.95777C17.9525 6.93968 17.5228 6.89309 17.2484 6.875L17.2996 7.0018C17.3595 7.02127 17.4127 7.05716 17.4532 7.1054C17.5748 7.24517 17.6525 7.5092 17.3755 7.79148C17.4843 7.83023 17.5291 7.84268 17.624 7.83023C17.5283 7.94423 17.3108 8.1876 17.2979 8.39991C17.2849 8.57331 17.3936 8.62501 17.3936 8.62501C17.3936 8.62501 17.2279 8.81667 17.2203 9.13701C17.2985 9.04876 17.3841 8.96735 17.4763 8.89364C17.6679 8.74004 17.9319 8.56733 18.1105 8.45861C18.1081 8.50424 18.1143 8.54991 18.1287 8.59327C18.1287 8.59327 18.4625 8.31884 18.7431 8.44052C18.8699 8.49753 18.8129 8.67621 18.8129 8.67621C18.8129 8.67621 18.9864 8.61153 19.1081 8.73321C19.2299 8.85491 19.4032 9.16808 19.4913 9.28993C19.53 9.34693 19.6311 9.45565 19.7345 9.62376C19.8759 9.85939 19.9937 10.1083 20.0867 10.3668C20.0919 10.2632 20.1127 10.1183 20.2915 10.1183L20.0196 9.6316L20.0187 9.63212Z" fill="#CAA13E"/>
<path fill-rule="evenodd" clip-rule="evenodd" d="M6.31781 13.3752C6.31781 13.3752 6.25313 13.2146 6.31781 12.9015C6.38249 12.5883 6.48353 12.4407 6.51714 11.9799C6.55077 11.5191 6.85114 10.9443 6.85114 10.9443L7.68212 10.5664L8.26989 10.7268L8.44329 11.514L7.70021 11.9236C7.70021 11.9236 7.66146 12.097 7.45172 12.2367C7.24197 12.3765 6.95201 12.4852 6.8822 12.6277C6.84048 12.715 6.81002 12.8072 6.79158 12.9022C6.79158 12.9022 6.57926 12.8581 6.45246 12.9979C6.31781 13.1404 6.32293 13.2672 6.31781 13.3759V13.3752Z" fill="#F4EFC8"/>
<path fill-rule="evenodd" clip-rule="evenodd" d="M7.99514 13.1638C7.99514 13.1638 7.92517 13.2079 7.87346 13.3174C7.82226 13.2347 7.69989 12.7426 7.69477 12.2999C7.68965 11.8572 7.6632 11.7475 7.7656 11.5949C7.868 11.4423 8.26957 11.2816 8.21257 11.0068C8.15557 10.7453 7.91732 10.6366 7.6248 10.7117C7.42 10.7629 7.2676 11.1985 7.05528 11.4159C6.89469 11.5816 6.7032 11.5557 6.65149 11.6463C6.58152 11.768 6.6462 11.8897 6.62554 11.9673C6.62025 11.9932 6.55557 12.133 6.43901 12.3013C6.20349 12.6404 5.80481 13.1195 5.75293 13.5492C5.77102 13.3058 5.75822 13.3007 5.8229 13.0314L5.78398 12.9667L6.03998 12.1279L6.2057 11.4367L6.57605 10.2792L7.22834 9.09617L7.8627 8.38672L8.52285 8.43075L8.6005 9.42232L8.97853 11.2839L9.77332 12.2626L8.49946 13.1198L7.99464 13.1638H7.99514Z" fill="#EBCC73"/>
<path fill-rule="evenodd" clip-rule="evenodd" d="M8.39134 13.5172C8.39134 13.5172 8.28263 13.5432 8.24371 13.5225C8.2048 13.5019 8.16623 13.4785 8.17903 13.4525C8.19183 13.4267 8.2618 13.3828 8.2618 13.362C8.26324 13.3431 8.2573 13.3245 8.24522 13.31C8.23314 13.2955 8.21588 13.2863 8.19712 13.2843C8.13756 13.2766 8.11947 13.3153 8.11947 13.3153C8.11947 13.3153 8.06247 13.2715 8.01604 13.2641C8.04351 13.2608 8.07115 13.259 8.09882 13.2589C8.02727 13.2264 7.95138 13.2047 7.87354 13.1942C7.93822 13.1554 8.0652 13.0414 8.14798 13.0414C8.23075 13.0414 8.28263 13.0286 8.26966 12.9846C8.25668 12.9406 8.192 12.8759 8.1222 12.8499C8.14798 12.8189 8.16623 12.7723 8.10411 12.6451C8.03926 12.5183 8.0652 12.4328 8.08602 12.4019C8.10411 12.363 8.16879 12.2932 8.19986 12.2492C8.23091 12.2052 8.25686 12.1456 8.30856 12.1145C8.33451 12.0964 8.41728 12.0633 8.50023 12.0318C8.59086 12.0007 8.66595 11.9618 8.71766 12.0007C8.77466 12.0394 8.74872 12.0913 8.74872 12.0913C8.74872 12.0913 8.9274 12.0265 9.08783 12.1094C9.24843 12.1869 9.63943 12.2362 9.63943 12.2362L9.77955 12.5185L8.85266 13.3133L8.46951 13.5049L8.39186 13.5177L8.39134 13.5172Z" fill="#E5C66B"/>
<path fill-rule="evenodd" clip-rule="evenodd" d="M9.67741 12.2175C9.67741 12.2175 9.39001 12.4091 9.32533 12.4789C9.36406 12.4842 9.42874 12.5102 9.40281 12.5489C9.37174 12.5877 9.18538 12.7223 9.08178 12.8493C8.97306 12.9761 8.86948 13.1367 8.83329 13.2143C8.79456 13.2841 8.4993 13.4888 8.39844 13.5145C8.61074 13.5145 9.03792 13.2531 9.19834 13.2531C9.19322 13.3307 9.24238 13.4188 9.33301 13.4265C9.42362 13.4341 9.68509 13.4835 10.0372 13.2661C10.3893 13.0537 10.2729 12.8957 10.4203 12.7923C10.7026 12.6057 10.8164 12.44 10.9717 12.3366C11.1271 12.2332 11.2074 12.2096 11.2074 12.2096C11.2074 12.2096 11.2126 12.132 11.2586 12.1398C11.2713 12.1413 11.2832 12.1461 11.2933 12.1539C11.3033 12.1617 11.3111 12.172 11.3156 12.1839C11.3156 12.1839 11.5849 11.9922 11.93 11.9405C11.922 11.9369 11.9155 11.9305 11.9119 11.9224C11.9119 11.9224 11.9377 11.9094 11.943 11.8965C11.943 11.8965 11.9611 11.8705 11.9741 11.8835C11.987 11.8965 12.0051 11.9922 12.0311 12.0311C12.0881 12.0052 12.1968 11.7618 12.1968 11.7618L12.4584 11.0136V10.3301L12.2536 10.369L10.7176 11.0213L9.78544 11.9871L9.67673 12.2175H9.67741Z" fill="#E6BD62"/>
<path fill-rule="evenodd" clip-rule="evenodd" d="M14.1003 8.86481C14.1833 8.84465 14.2631 8.81233 14.3367 8.7689C14.3056 8.85183 14.3056 8.94246 14.1709 9.13925C14.0363 9.33602 14.0312 9.36453 13.9224 9.56898C13.8137 9.78129 13.8008 10.0868 13.6972 10.2213C13.7436 10.1987 13.7933 10.1839 13.8447 10.1774C13.8447 10.1774 13.7412 10.268 13.6972 10.3638C13.6531 10.4595 13.5755 10.6589 13.384 10.7807C13.1925 10.9026 12.9489 10.9801 12.6875 11.2675C12.4258 11.5496 12.1567 11.907 12.0219 12.0355C12.0919 11.9138 12.1876 11.6704 12.2135 11.51C12.2395 11.3496 12.2082 11.1577 12.2523 10.9456C12.2963 10.7334 12.2963 10.5805 12.5083 10.2102C12.7202 9.83983 13.0831 8.55317 13.0831 8.55317L13.8649 8.30469L14.1007 8.86395L14.1003 8.86481Z" fill="#B6933F"/>
<path fill-rule="evenodd" clip-rule="evenodd" d="M13.5351 8.39093C13.5351 8.39093 13.2995 8.73005 13.2348 9.03042C13.1702 9.3308 13.2296 9.30485 13.1908 9.45248C13.1676 9.54249 13.1676 9.6369 13.1908 9.72692C13.2724 9.5955 13.384 9.48541 13.5167 9.40572C13.7393 9.27124 13.9205 9.17532 14.0287 9.06149C14.1373 8.9398 14.228 8.74046 14.4635 8.58772C14.3677 8.57474 14.2331 8.53072 14.2075 8.53652C14.3033 8.4278 14.5907 8.26208 14.8805 8.06274C15.168 7.85794 15.1499 7.77534 15.616 7.57088C15.4632 7.59682 15.3907 7.55792 15.2637 7.57088C15.3149 7.46217 15.4941 7.41029 15.6733 7.23177C15.8525 7.05325 15.5595 6.78906 15.5595 6.78906L14.1941 7.61492L13.534 8.39162L13.5351 8.39093Z" fill="#C49937"/>
<path fill-rule="evenodd" clip-rule="evenodd" d="M9.82959 7.77564L9.86066 7.52716L10.2517 6.90064L10.6607 5.80035V4.2961L10.6297 3.4262L10.6944 2.85652L10.7435 2.67544L10.7954 2.60547L11.1292 2.77887L11.5902 3.40539L11.6342 4.61456L11.1862 6.52262L9.90724 7.91815L9.82959 7.77564Z" fill="#DFC068"/>
<path fill-rule="evenodd" clip-rule="evenodd" d="M10.8479 2.53376C10.8479 2.53376 10.6431 2.53905 10.5995 3.39085C10.5558 4.24264 10.5346 4.69048 10.5035 5.11253C10.4725 5.53458 10.4001 5.79076 10.3638 6.03942C10.3274 6.28808 10.3068 6.62702 10.1904 6.83421C10.1392 6.92996 10.0298 7.23033 9.77344 7.45561C9.48603 7.7041 9.05664 7.87768 8.99161 7.89065C8.87761 7.91641 8.30024 7.97341 8.06472 8.10296C7.98195 8.14698 7.83944 8.1987 7.68157 8.34633C7.36823 8.62844 6.95147 9.13326 6.65109 9.74169C6.19029 10.6505 5.72949 13.2161 5.72949 13.2161L5.83309 13.0427C5.83309 13.0427 5.84605 12.8123 6.07645 12.4084C6.30173 12.0046 6.23705 11.5515 6.55023 10.7773C6.67191 10.4822 6.82465 10.0991 7.01103 9.77276C7.30628 9.24198 7.66348 8.7863 8.02343 8.53781C8.61103 8.13401 9.25836 8.04594 9.25836 8.04594L9.95485 7.58514C9.95485 7.58514 10.0765 7.34964 10.2371 7.08032C10.4622 6.70246 10.7491 6.2804 10.8118 5.66685C10.9077 4.75805 10.6771 4.1626 10.6901 3.62414C10.7031 3.08569 10.7082 2.68957 10.8171 2.59366C10.9259 2.49774 10.8481 2.5341 10.8481 2.5341L10.8479 2.53376Z" fill="#A88F33"/>
<path fill-rule="evenodd" clip-rule="evenodd" d="M10.847 6.60058C10.847 6.60058 11.1542 5.84452 11.2949 5.17398C11.3208 5.03933 11.3725 4.90483 11.3855 4.79612C11.4502 4.16175 11.4682 3.9003 11.3855 3.55332C11.3208 3.29732 11.0723 3.06659 10.9428 2.88773C10.816 2.70119 10.7564 2.63173 10.7823 2.59247C10.8083 2.55322 10.9091 2.48905 11.0074 2.49673C11.1119 2.49977 11.2147 2.52403 11.3095 2.56805C11.4044 2.61206 11.4893 2.67488 11.559 2.75272C11.7584 2.98312 11.9162 3.76512 11.9162 3.76512L12.0823 4.79698L12.5044 6.09661L10.8474 6.6016L10.847 6.60058Z" fill="#C99E3D"/>
<path fill-rule="evenodd" clip-rule="evenodd" d="M13.7355 5.81345C13.7355 5.81345 13.6785 5.83923 13.5751 5.81345C13.5795 5.85572 13.5721 5.89837 13.5539 5.93675C13.5356 5.97511 13.5071 6.00768 13.4715 6.03088C13.3628 5.98685 12.3451 6.07492 12.3451 6.07492C12.3451 6.07492 11.8713 5.99197 11.7237 5.36545C11.6203 4.94852 11.8013 4.37388 11.7418 3.99585C11.6511 3.43913 11.5243 3.33025 11.5114 3.15703C11.4984 2.9838 11.4854 2.9396 11.4854 2.83088C11.4284 2.81791 11.3948 2.79983 11.338 2.79983C11.325 2.74863 11.3508 2.70391 11.2939 2.61328C11.325 2.62625 11.5373 2.65219 11.7858 2.88771C11.9906 3.07937 11.9906 3.14917 12.0215 3.18809C12.0602 3.22683 12.3736 3.49528 12.5082 3.76289C12.6429 4.03049 12.9044 4.88383 12.9639 5.02361C12.982 5.08061 13.0209 5.13761 13.1175 5.26697C13.2677 5.45352 13.4877 5.76191 13.7361 5.81311L13.7355 5.81345Z" fill="#B58634"/>
<path fill-rule="evenodd" clip-rule="evenodd" d="M12.0576 3.19922C12.2145 3.45258 12.3554 3.71546 12.4795 3.98634C12.6323 4.33058 12.7229 4.61286 12.9145 4.84326C12.8109 4.54306 12.6271 3.95271 12.5184 3.74297C12.3967 3.5211 12.1482 3.28217 12.0576 3.19939V3.19922Z" fill="#A88F33"/>
<path fill-rule="evenodd" clip-rule="evenodd" d="M10.2969 7.4572C10.2969 7.4572 10.0354 7.52188 9.54871 7.77823C9.38811 7.861 9.23553 7.9308 9.08791 7.99566C8.70441 8.16906 8.29311 8.32931 7.9668 8.41772C7.99273 8.44878 8.00553 8.46158 8.00553 8.46158C8.00553 8.46158 8.00553 8.58855 8.07551 8.66092C8.03677 8.69983 7.5188 9.05191 7.67171 10.2299C7.77513 10.1911 7.89683 10.1392 7.91491 10.1392C7.94615 10.1445 7.95383 10.2299 7.99256 10.2299C8.03131 10.2299 8.15828 10.1787 8.29293 10.0046C8.28781 10.0746 8.21016 10.7787 8.62693 11.2525C8.70459 11.1619 8.90136 10.8615 8.90136 10.8615L8.90648 10.7658C8.90648 10.7658 8.92457 10.4318 9.03345 10.1263C9.14235 9.82076 9.35448 9.59548 9.35448 9.59548L10.4623 8.01358L10.2966 7.45703L10.2969 7.4572Z" fill="#E6C367"/>
<path fill-rule="evenodd" clip-rule="evenodd" d="M9.26067 9.779C9.20995 9.81484 9.15407 9.84275 9.09495 9.86177C9.07685 9.79709 9.05091 9.57437 9.20365 9.35693C9.38235 9.09531 9.77317 8.75619 9.88189 8.48653C9.95187 8.31297 9.9208 7.87811 10.5422 7.3214C11.1636 6.76468 11.4068 6.57319 11.4068 6.57319L12.4113 6.06836L13.6463 6.55511L13.0327 8.9598L12.5564 10.0862L10.662 9.72899L9.26049 9.779H9.26067Z" fill="#DCBA5A"/>
<path fill-rule="evenodd" clip-rule="evenodd" d="M9.98438 9.12591L10.2201 8.83083V8.62107C10.2201 8.62107 10.4815 8.5511 10.7636 8.2637C11.0457 7.9763 11.4367 7.42487 11.7812 7.4585C12.1256 7.49741 12.1592 8.2067 12.1722 8.40621C12.1851 8.60571 12.2292 9.0585 12.299 9.30203C12.3766 9.54541 11.4601 10.467 11.4601 10.467L10.8377 10.9408L9.98438 9.12591Z" fill="#E9CE77"/>
<path fill-rule="evenodd" clip-rule="evenodd" d="M10.7139 11.5832C10.7139 11.5832 10.9055 11.2828 10.7651 11.2182C10.8478 11.0318 11.0006 10.835 11.0006 10.835C11.0006 10.835 11.1093 10.5659 11.4614 10.2344C11.8135 9.903 12.0311 9.68285 12.0881 9.4603C12.1232 9.31526 12.1423 9.16679 12.1451 9.01758C12.1831 9.04868 12.2239 9.07638 12.2668 9.10035C12.3238 9.1263 12.5929 9.34885 12.5542 9.79685C12.5154 10.2448 12.3494 10.4312 12.3494 10.4312C12.3494 10.4312 12.1889 10.5916 12.0751 10.6746C11.9532 10.7574 11.9094 10.8531 11.7048 10.861C11.7258 10.8442 11.7494 10.8311 11.7747 10.822C11.7747 10.822 11.5624 10.7963 11.4484 10.8997C11.3344 11.0031 11.0921 11.3218 10.9704 11.4177C10.8487 11.4953 10.7144 11.5834 10.7144 11.5834L10.7139 11.5832Z" fill="#CDAE50"/>
<path fill-rule="evenodd" clip-rule="evenodd" d="M19.3223 6.54849C19.0163 6.43701 18.6949 6.37413 18.3696 6.36213C17.8259 6.34404 17.0311 6.37509 16.2517 6.38021C15.4129 6.38533 14.6517 6.09281 13.5955 6.04111C13.4221 5.93751 12.9811 5.48439 11.6045 6.44491C11.6873 6.43979 12.6039 6.23259 12.9222 6.63144C13.2432 7.02756 13.1526 7.70067 13.1087 7.86109C13.0258 8.21847 12.7565 8.73883 12.6479 9.10388C12.5394 9.46895 12.565 9.66077 12.4873 9.91677C12.4097 10.1728 12.2389 10.2999 12.3397 10.595C12.4744 10.5122 12.5445 10.5122 12.7695 10.0074C12.9944 9.50256 12.9481 9.14263 13.3211 8.71545C13.6861 8.28571 14.2939 7.69793 14.5249 7.55031C14.756 7.40268 16.5908 6.45003 18.512 7.35881C18.9755 7.30967 19.3224 6.54832 19.3224 6.54832L19.3223 6.54849Z" fill="#D2A83E"/>
<path fill-rule="evenodd" clip-rule="evenodd" d="M12.3773 6.19523C12.3754 6.17578 12.3711 6.15663 12.3645 6.13823C12.3465 6.10036 12.3229 6.06544 12.2945 6.03463C12.2945 6.03463 11.8388 5.95186 11.6084 5.97763C11.2045 6.02167 10.8394 6.52138 10.6686 6.77772C10.4977 7.03406 10.2854 7.43 10.055 7.63463C10.0575 7.6147 10.0529 7.59451 10.0421 7.57763C10.0421 7.57763 10.055 7.59572 10.0293 7.62167C10.0035 7.6476 10.0033 7.6604 10.0163 7.67287L10.0552 7.7116C10.068 7.7116 10.4254 7.551 10.9121 7.0972C11.4299 6.62343 11.826 6.3804 12.0332 6.29712C12.1437 6.25016 12.2592 6.21598 12.3775 6.19523H12.3773Z" fill="#C29637"/>
<path fill-rule="evenodd" clip-rule="evenodd" d="M21.2177 4.25C21.2177 4.25 21.1348 4.35343 21.0312 4.46743C20.8008 4.7108 20.5004 4.98507 20.244 5.26735C20.0008 5.53665 19.7264 5.7464 19.4183 6.09849C19.11 6.45057 18.7525 6.8414 18.6621 6.95541C18.5793 7.06941 18.5147 7.25579 18.5147 7.35152C18.4707 7.32047 18.4189 7.28684 18.4189 7.28684C18.4407 7.32749 18.4668 7.36571 18.4965 7.40085C18.5613 7.49147 18.6621 7.60565 18.714 7.67528C18.7777 7.76392 18.8233 7.86417 18.8485 7.97036C18.8796 7.97548 19.0789 8.0144 19.3276 7.60531C19.5763 7.19621 19.9023 6.74839 19.9023 6.74839L20.42 5.97936L20.7463 5.32708L21.1559 4.59696L21.2183 4.25H21.2177Z" fill="#AC8132"/>
<path fill-rule="evenodd" clip-rule="evenodd" d="M21.748 3.72656C21.748 3.72656 21.4347 3.98256 21.3129 4.13616C21.1912 4.28976 20.9033 4.69288 20.9033 4.69288L21.0069 4.67991L21.5325 4.21399L21.7373 3.84894L21.7477 3.72724L21.748 3.72656Z" fill="#A88F33"/>
<path fill-rule="evenodd" clip-rule="evenodd" d="M21.6513 24.3001C21.6513 24.3001 21.6461 24.0879 21.7653 23.9611C21.8869 23.8341 22.1951 23.6477 22.4953 22.9487C22.7957 22.2496 22.8292 22.0917 22.8292 22.0917C22.8292 22.0917 22.2908 22.5525 21.9588 22.6613C22.0364 22.5007 22.0805 22.3868 22.1195 22.3039C22.0753 22.2652 21.8891 22.2211 21.8709 22.2005C21.9744 22.0969 22.0313 21.8431 22.2411 21.6748C22.5104 21.47 23.0023 21.1181 23.3845 20.8044C23.7668 20.4908 24.5185 19.7612 24.6144 19.5488C24.6713 19.6316 24.6841 19.6833 24.6841 19.6833C24.6841 19.6833 24.3063 20.1753 24.1096 20.4885C23.936 20.7579 23.9489 20.9105 23.9489 20.9105L24.3063 20.7569C24.3063 20.7569 24.4097 21.1401 23.9413 21.7228C24.1461 21.6451 24.2287 21.6917 24.3451 21.6268C24.1535 21.7487 23.8893 21.9144 23.6409 22.37C23.3975 22.8256 23.0661 23.3564 22.5069 23.6876C21.9632 24.0372 21.6499 24.2987 21.6499 24.2987L21.6513 24.3001Z" fill="#A67A2E"/>
<path fill-rule="evenodd" clip-rule="evenodd" d="M20.2485 6.81688C20.2485 6.81688 20.0361 7.25942 20.0051 7.60382C20 7.68676 19.9792 7.75144 19.9792 7.84719C19.974 8.15524 19.9973 8.49966 19.928 8.66008C19.902 8.59539 19.8891 8.55136 19.8631 8.52559C19.8244 8.63431 19.7544 8.97342 19.6975 9.10023C19.6716 9.01746 19.6147 8.73006 19.6199 8.39094C19.6252 8.05182 19.6327 7.98696 19.6327 7.91716C19.6199 8.02059 19.55 8.16054 19.524 8.24331C19.4853 8.17351 19.4412 8.08288 19.3893 8.00779C19.3583 8.05899 19.3196 8.13459 19.2859 8.17351C19.2807 8.14244 19.2679 8.0595 19.26 7.94311C19.2549 7.80846 19.2471 7.63506 19.2549 7.5987C19.2677 7.5289 19.3765 7.25447 19.6069 7.00324C19.8813 6.70287 20.1636 6.12568 20.2464 5.94699C20.3292 5.76831 20.6813 5.02539 20.6813 5.02539H20.9507L20.5596 5.91594C20.5596 5.91594 20.3241 6.40267 20.2024 6.58154C20.0807 6.76039 19.8244 7.2729 19.7104 7.47224C19.7932 7.36352 19.8631 7.30652 19.946 7.20292C20.0263 7.13039 20.2488 6.81722 20.2488 6.81722L20.2485 6.81688Z" fill="#8C6228"/>
<path fill-rule="evenodd" clip-rule="evenodd" d="M21.7531 3.69141C21.7091 3.82681 21.6396 3.95253 21.5483 4.06175C21.3877 4.25342 21.0433 4.50959 20.8752 4.71405C20.7216 4.91338 20.4144 5.45713 20.554 6.10174C20.6052 5.96197 20.7016 5.68497 20.958 5.37162C21.2143 5.05829 21.4888 4.69851 21.6236 4.41897C21.7581 4.13669 21.7761 3.91413 21.7761 3.91413L21.8273 3.84945L21.7963 3.70182L21.7523 3.69141H21.7531Z" fill="#CBA94C"/>
<path fill-rule="evenodd" clip-rule="evenodd" d="M26.9951 20.8641C26.9951 20.8641 26.8915 20.582 26.8604 20.3257C26.8293 20.0693 26.9116 20.0185 26.8163 19.7251C26.7593 19.5464 26.6559 19.5715 26.63 19.5464C26.604 19.5213 26.5859 19.2513 26.5911 19.1037C26.5961 18.9561 26.5859 18.7647 26.56 18.6817C26.5212 18.6507 26.4953 18.6247 26.4383 18.4332C26.3736 18.2415 26.3425 18.1457 26.3115 18.0889C26.2804 18.0321 26.1896 17.9803 26.1896 17.9232C26.1896 17.8092 26.2932 17.7499 26.2932 17.7184C26.2881 17.6537 26.2104 17.7056 26.1896 17.6873C26.1639 17.6563 26.2545 17.47 26.2209 17.444C26.2079 17.4312 26.1173 17.5399 26.0939 17.5088C26.068 17.4776 26.0369 17.1696 25.9903 16.9651C25.9464 16.7657 25.8997 16.6208 25.8945 16.5613C25.8895 16.5043 25.5372 15.4997 25.4519 15.2564C25.3831 15.0508 25.3252 14.8416 25.2784 14.6299C25.2525 14.5081 25.2344 14.2595 25.2215 14.2855C25.2085 14.3115 25.2163 14.4383 25.1955 14.4331C25.1775 14.4277 25.1127 13.9852 25.0921 13.9153C25.074 13.8453 24.9651 13.6081 24.9385 13.4364C24.9125 13.2628 24.8557 12.8097 24.8168 12.5017C24.7779 12.1936 24.7597 12.0668 24.7597 11.9897C24.7661 11.801 24.7557 11.6121 24.7287 11.4253C24.6775 11.0989 24.5751 10.7028 24.4853 10.4726C24.312 10.0376 23.8509 8.92431 23.7685 8.64732C23.7685 8.57735 23.8592 8.61625 23.8592 8.61625C23.8592 8.61625 24.0843 9.18065 24.25 9.61551C24.4107 10.0505 24.5633 10.4337 24.6023 10.4726C24.6333 10.5113 24.8767 10.9385 24.9855 11.6376C25.0941 12.3366 25.1328 12.9812 25.1977 13.4109C25.2288 13.6157 25.2547 13.8331 25.3195 14.0504C25.3892 14.2861 25.4979 14.5295 25.6404 14.9023C25.7621 15.2156 25.8528 15.4771 25.9019 15.7024C25.9589 15.9897 25.9589 16.2072 25.9925 16.3497C26.0237 16.4713 26.0701 16.7145 26.1791 17.0665C26.288 17.4184 26.4481 17.8717 26.5569 18.1537C26.7693 18.7181 26.8641 19.1893 26.8961 19.4407C26.9245 19.6995 27.0204 20.5953 26.9945 20.8645L26.9951 20.8641Z" fill="#A88F33"/>
<path fill-rule="evenodd" clip-rule="evenodd" d="M21.7653 3.66037L21.7523 3.69143C21.7523 3.69143 21.7911 3.70441 21.7833 3.75629C21.784 3.82727 21.7796 3.89821 21.7704 3.96859C21.7576 4.05922 21.7317 4.12902 21.7265 4.18602C21.7265 4.30771 21.7447 4.44749 21.5729 4.79446C21.5217 4.89019 21.4901 4.97297 21.4643 5.02998C21.3996 5.16975 21.3865 5.19057 21.3296 5.25526C21.4203 5.20406 21.7465 4.99926 21.9121 5.02998C21.7983 5.09466 21.6247 5.22163 21.516 5.38735C21.5419 5.39247 21.6507 5.41329 21.8232 5.38735C22.1105 5.34331 22.4316 5.23973 22.7137 5.26038C23.0219 5.27846 22.9003 4.89019 22.9003 4.89019L22.5445 4.10837L21.8715 3.63477L21.7653 3.66054V3.66037Z" fill="#BE9C44"/>
<path fill-rule="evenodd" clip-rule="evenodd" d="M23.5213 9.51698C23.5213 9.51698 23.2209 9.21661 23.0992 8.18578C22.9776 7.15018 23.0035 5.62578 23.0035 5.62578L22.7601 5.03033C22.7601 5.03033 22.7089 4.63421 22.5815 4.48676C22.454 4.3393 22.2036 4.09064 22.0896 3.96896C21.9756 3.84726 21.8463 3.68156 21.7685 3.65561C21.8073 3.59093 21.9808 3.22588 22.6461 3.22076C23.3113 3.21564 23.5165 3.58581 23.586 3.72046C23.6555 3.85512 23.9691 4.43726 24.0855 5.5466C24.1943 6.65457 24.1995 6.7375 24.1815 7.12065C24.1685 7.33297 24.0985 7.82482 23.9767 8.3503C23.8653 8.79574 23.7437 9.2929 23.5209 9.51801L23.5213 9.51698Z" fill="#A17C34"/>
<path fill-rule="evenodd" clip-rule="evenodd" d="M22.5792 10.4002C22.6793 10.4074 22.7793 10.3849 22.8667 10.3354C22.9624 10.3302 23.3093 10.3743 23.5759 10.0352C23.594 10.1126 23.6408 10.3226 23.5189 10.5089C23.5837 10.4441 23.6795 10.4183 23.6925 10.4002C23.6976 10.496 23.7883 10.791 23.4051 11.5082C23.5085 11.3943 23.6301 11.3995 23.7389 11.3865C23.7441 11.5211 23.8165 11.9741 23.6251 12.2176C23.4983 12.3834 23.2911 12.3315 23.2911 12.3315C23.2941 12.2953 23.2941 12.2589 23.2911 12.2228C23.286 12.1528 23.26 12.083 23.2783 12.0364C23.1781 11.9907 23.0869 11.9275 23.0089 11.8498C22.7837 11.6375 22.4912 11.2752 22.4705 11.0059C22.4445 10.7055 22.7139 10.6408 22.7139 10.6408C22.6913 10.6207 22.6721 10.597 22.6569 10.5709C22.6439 10.527 22.6309 10.457 22.5792 10.4002Z" fill="#8C6228"/>
<path fill-rule="evenodd" clip-rule="evenodd" d="M20.5828 7.14309C20.5828 7.14309 20.5699 7.12501 20.5 7.20778C20.5129 7.12501 20.526 7.04718 20.5311 6.97209C20.5641 6.90257 20.6068 6.83809 20.658 6.7806C20.6191 6.85808 20.5932 6.92805 20.5932 6.92805C20.5932 6.92805 20.6891 6.74937 20.8289 6.64065C20.9247 6.563 21.0463 6.52682 21.098 6.45429C21.1551 6.37664 21.142 6.36366 21.1551 6.35069C21.1551 6.35069 21.282 6.26792 21.4763 6.02437C21.502 5.99332 21.5409 5.95969 21.5668 5.92864C21.6107 5.91054 21.7143 5.86394 21.836 5.80165C21.9629 5.73185 22.1053 5.6361 22.1933 5.59685C22.3668 5.5192 22.5507 5.52705 22.636 5.4052C22.7008 5.3871 22.7705 5.19289 22.7577 5.02734C22.8535 5.06608 23.3453 5.37157 23.5137 6.03957C23.6355 6.51333 23.4179 7.24345 23.3272 7.5957C23.2367 7.94796 23.2239 8.20925 23.0968 8.36968C22.9363 8.58216 22.4187 8.88168 22.2916 9.02998C22.1829 9.15168 21.8568 9.45973 21.8696 9.68228C21.8825 9.848 22.0871 9.93828 22.1312 9.96968C22.1755 10.0011 22.1751 10.0397 22.258 10.0209C22.3409 10.0021 22.3719 9.96388 22.4056 9.96388C22.4444 9.969 22.4444 9.97685 22.4625 9.97685C22.4756 9.97646 22.4887 9.97469 22.5015 9.97156C22.5015 9.97156 22.4884 10.2073 21.9371 10.2788C21.8981 10.2841 21.8593 10.2969 21.81 10.3047C21.8749 10.2736 21.9136 10.2736 21.9836 10.1779C21.906 10.1649 21.6832 10.152 21.6263 10.1339C21.6443 10.1028 21.7039 10.0199 21.7531 9.98112C21.7971 9.94237 21.7479 9.92992 21.7092 9.95005C21.6425 9.99544 21.5785 10.0447 21.5175 10.0975C21.4528 10.1545 21.3959 10.2322 21.2923 10.3023C21.2612 10.1987 21.2663 10.0019 21.3881 9.8596C21.3569 9.86472 21.2973 9.95534 21.2405 9.93725C21.2303 9.84282 21.2364 9.74732 21.2587 9.65497C21.2897 9.53841 21.458 9.33394 21.458 9.33394L22.2708 7.8814L22.4443 6.78112L20.5828 7.14276V7.14309Z" fill="#92723A"/>
<path fill-rule="evenodd" clip-rule="evenodd" d="M20.5381 7.20561C20.5381 7.20561 20.4941 7.23667 20.5821 7.29623C20.5692 7.31433 20.5381 7.37901 20.4992 7.42303C20.4553 7.47423 20.4085 7.50598 20.3905 7.55002C20.3517 7.64063 20.3207 7.70277 20.3207 7.74167C20.3207 7.78058 20.3077 8.02907 20.1989 8.1895C20.1601 8.2465 20.116 8.34225 20.0849 8.40693C20.0203 8.52077 19.9633 8.61173 19.9503 8.66293C19.9245 8.75355 19.9065 9.00205 19.9065 9.00205C19.9065 9.00205 19.9635 8.93207 19.9841 8.9063C19.9529 8.97098 19.9193 9.04078 19.8701 9.09267C19.9012 9.06673 19.9919 9.00205 20.1445 8.86739C20.3568 8.68887 20.6883 8.3885 21.0923 8.15059C20.9704 8.19462 20.8669 8.19462 20.7843 8.20759C20.8489 8.14291 21.4313 7.45939 21.7369 7.39471C21.7555 7.37119 21.7647 7.34166 21.7628 7.31177L21.5012 7.28599L20.9704 7.39983L20.8929 6.99023L20.5381 7.2051V7.20561Z" fill="#B18E3E"/>
<path fill-rule="evenodd" clip-rule="evenodd" d="M21.3828 9.53603C21.3828 9.53603 21.3128 9.60585 21.2481 9.77941C21.1983 9.72741 21.1556 9.66905 21.1211 9.60585C21.0253 9.44542 20.8779 9.24078 20.5335 9.35735C20.5284 9.24863 20.5205 9.19163 20.5335 9.11398C20.5905 9.10118 20.7639 8.96141 20.9373 8.75678C21.0592 8.61699 21.1731 8.45641 21.2507 8.25194C21.3019 8.21303 21.3904 8.14835 21.5067 8.07326C21.6724 7.95942 21.8717 7.80394 21.9028 7.63054C21.8251 7.66161 21.6595 7.73926 21.4108 7.72646C21.5067 7.68243 21.6541 7.63583 21.636 7.44418C21.6749 7.41823 21.706 7.40014 21.706 7.40014C21.6768 7.39041 21.6461 7.38602 21.6153 7.38718C21.6101 7.36909 21.6024 7.34331 21.5584 7.35611C21.5144 7.36891 21.5072 7.36909 21.5013 7.38718C21.4833 7.39246 21.4237 7.38718 21.3797 7.41841C21.3356 7.44963 21.214 7.55289 21.1673 7.57098C21.1855 7.53993 21.2112 7.4935 21.2112 7.4935C21.2112 7.4935 21.0844 7.5063 20.9939 7.5447C20.8281 7.6017 20.6367 7.7053 20.4424 7.80617C20.4605 7.7751 20.4683 7.75497 20.4811 7.74915C20.4939 7.74335 20.5252 7.73635 20.5252 7.73107C20.5252 7.72578 20.5124 7.67987 20.52 7.66126C20.5781 7.53826 20.6467 7.42046 20.7248 7.30918C20.8155 7.18733 20.8336 7.01393 20.8336 7.01393L21.2296 6.81459L22.3429 6.55859L23.0653 6.60262L22.9747 7.10233L22.548 7.97478L22.1831 8.76958L21.7661 9.25649L21.3829 9.53603H21.3828Z" fill="#543E26"/>
<path fill-rule="evenodd" clip-rule="evenodd" d="M23.1864 7.37189C23.1864 7.37189 22.7515 7.91034 22.6297 7.99329C22.7073 7.82757 23.1864 6.84111 23.3599 6.56669C23.3211 6.53562 23.2692 6.53562 23.3909 6.05469C23.2875 6.29789 23.2511 6.42486 23.1657 6.48954C23.0804 6.55422 23.0699 6.53357 23.0121 6.53357C23.0231 6.51387 23.0276 6.49126 23.0249 6.46889C23.0249 6.46889 22.6599 6.42486 22.4105 6.42486C22.1612 6.42486 21.6677 6.55951 21.3931 6.66823C21.1756 6.75885 21.054 6.75885 20.9763 6.81569C20.8987 6.88037 20.8547 6.95034 20.8157 6.96843C20.7847 6.98653 20.6372 7.03311 20.6035 7.08226C20.5724 7.13346 20.5207 7.19098 20.5207 7.20395C20.5207 7.21693 20.5076 7.23518 20.5465 7.22205C20.5593 7.21693 20.6553 7.16503 20.764 7.10035C20.9115 7.01758 21.0901 6.92183 21.2197 6.86483C21.5899 6.71721 21.7064 6.74315 21.872 6.71209C22.0453 6.68103 22.294 6.6085 22.4596 6.6085C22.6253 6.60338 22.9387 6.6085 23.0112 6.62146C22.9801 6.64741 22.9541 6.67847 22.9671 6.78718C22.9671 6.81825 22.9412 6.85186 22.9159 6.92695C22.8384 7.13927 22.6908 7.49135 22.6087 7.67005C22.4949 7.91325 22.3655 8.11787 22.3015 8.24467C22.2375 8.37149 22.0967 8.70547 21.9573 8.88417C21.8179 9.06285 21.7449 9.17157 21.7013 9.21047C21.6576 9.24939 21.3439 9.47962 21.3673 9.56257C21.4243 9.54447 21.7843 9.40897 22.0455 9.11474C22.3068 8.8205 22.3589 8.64097 22.5633 8.48037C22.7677 8.31977 22.9284 8.05063 23.0241 7.82807C23.1044 7.62089 23.0863 7.55621 23.1871 7.37239L23.1864 7.37189Z" fill="#806031"/>
<path fill-rule="evenodd" clip-rule="evenodd" d="M13.8121 11.3905C13.8121 11.3905 13.7551 11.626 13.6256 11.7426C13.4988 11.8566 13.2735 11.9549 13.2477 12.1466C13.2167 12.3381 13.4731 12.434 13.4731 12.434C13.4731 12.434 13.3331 12.6644 13.3331 12.8378C13.3331 13.0165 13.3279 13.0501 13.346 13.2209C13.3255 13.2341 13.308 13.2516 13.2948 13.2721C13.2948 13.2721 13.3076 13.4379 13.4347 13.5412C13.5616 13.6447 13.6701 13.7069 13.7348 13.6811C13.7447 13.7021 13.7533 13.7237 13.7608 13.7459C13.7608 13.7459 13.8567 13.5025 13.9213 13.2902C13.986 13.0728 14.0431 13.1037 14.0688 12.8112C14.0945 12.5186 14.376 12.0164 14.376 12.0164L14.568 11.5871L14.2548 11.3438L13.8121 11.3904V11.3905Z" fill="#B6903C"/>
<path fill-rule="evenodd" clip-rule="evenodd" d="M14.3945 11.8125C14.33 11.8788 14.2704 11.9498 14.2163 12.0248C14.1335 12.1388 14.0688 12.2422 13.9471 12.2864C13.8253 12.3306 13.7477 12.3303 13.7555 12.4522C13.7631 12.574 13.8771 12.6255 13.9417 12.6877C14.0117 12.7524 14.0688 12.8611 14.0377 12.9829C14.0764 12.9648 14.1464 12.944 14.2111 12.8042C14.2757 12.6645 14.7283 11.8127 14.7283 11.8127H14.3945V11.8125Z" fill="#685026"/>
<path fill-rule="evenodd" clip-rule="evenodd" d="M16.1787 9.84803C16.1787 9.84803 16.2175 9.7446 16.1787 9.66951C16.1397 9.59186 15.9043 9.56592 15.7877 9.47786C15.666 9.38723 15.5184 9.32426 15.3967 9.36402C15.4148 9.31999 15.4873 9.22407 15.4277 9.20342C15.3708 9.18534 15.1587 9.28107 15.1016 9.32511C15.0445 9.36914 14.9151 9.42086 14.8893 9.45208C14.8635 9.48331 14.8193 9.54271 14.7933 9.51676C14.7675 9.49868 14.7547 9.45208 14.7107 9.47786C14.6665 9.50363 14.4547 9.67719 14.4155 9.77823C14.3764 9.87927 14.2885 10.1046 14.0245 10.3607C13.7605 10.6169 13.6465 10.7828 13.7241 10.8785C13.8019 10.9743 13.8381 10.9045 13.8511 10.9872C13.8611 11.0685 13.8567 11.1509 13.8381 11.2306C13.8071 11.3653 13.7553 11.4921 13.8252 11.518C14.0039 11.575 14.1775 11.4668 14.2161 11.4999C14.2939 11.5697 14.1721 11.8209 14.356 11.8701C14.5425 11.9213 14.7263 11.8261 14.7263 11.8261L15.4045 11.461L16.0569 11.1168L16.3908 10.4565L16.2117 9.90503L16.1776 9.84803H16.1787Z" fill="#D4B968"/>
<path fill-rule="evenodd" clip-rule="evenodd" d="M15.5389 11.425C15.5389 11.425 15.4249 11.2516 15.5648 11.0987C15.7048 10.9458 15.904 10.8813 15.9816 10.7856C15.9668 10.7673 15.9469 10.7538 15.9247 10.7468C15.9761 10.6546 16.0548 10.5804 16.1499 10.5343C16.1112 10.4956 16.0592 10.4645 16.0024 10.4645C15.8755 10.4645 15.7976 10.5422 15.6812 10.5422C15.5673 10.5422 15.5544 10.4852 15.5544 10.4852C15.5544 10.4852 15.7461 10.4671 15.7279 10.3816C15.7097 10.291 15.6767 10.291 15.6767 10.291C15.6767 10.291 16.0468 10.1374 16.1115 10.0554C16.1761 9.97352 16.1685 9.87676 16.1815 9.83801C16.2253 9.83801 16.4816 9.70336 16.5852 9.76036C16.6888 9.81736 16.6163 9.97266 16.6163 9.97266C16.6163 9.97266 16.9299 9.73698 17.0896 9.50589C17.2293 9.51886 17.2944 9.41016 17.3968 9.41016C17.5237 9.41016 17.7231 9.58354 17.7619 9.95373C17.7877 10.166 17.8265 10.2877 17.7877 10.6632C17.7697 10.8755 17.7748 11.3288 17.8389 11.5537C17.8828 11.7324 17.9864 11.7143 17.9864 11.7143C17.9705 11.7688 17.9391 11.8174 17.8959 11.8541C17.8259 11.9188 17.8181 12.0898 17.8259 12.1545C17.8361 12.2018 17.8492 12.2484 17.8648 12.2942C17.8648 12.2942 17.782 12.39 17.7612 12.4548C17.7431 12.5195 17.6577 12.5636 17.5955 12.5636C17.5332 12.5636 17.5644 12.5583 17.4816 12.5636C17.3988 12.5689 17.3729 12.5817 17.3209 12.5636C17.2691 12.5455 17.2304 12.5246 17.2512 12.3588C17.2693 12.193 16.6117 11.8073 16.6117 11.8073L15.5365 11.4242L15.5389 11.425Z" fill="#CCA849"/>
<path fill-rule="evenodd" clip-rule="evenodd" d="M14.3041 13.0617C14.3041 13.0617 14.5396 13.3751 15.508 13.3751C15.9688 13.3751 16.1293 13.331 16.2248 13.305C16.3284 13.2791 16.7167 13.1265 17.1076 12.6655C17.4597 12.2488 17.382 12.0779 17.382 12.0779L17.1772 12.0469L16.5116 12.1375L14.5421 12.9763L14.3032 13.0617H14.3041Z" fill="#585136"/>
<path fill-rule="evenodd" clip-rule="evenodd" d="M15.0263 13.1399C15.0263 13.1399 14.1875 13.3264 14.1875 12.7957C14.1875 12.2779 14.7053 11.7341 14.8348 11.6384C14.9695 11.5425 15.2905 11.4336 15.2905 11.4336H16.0647L16.2121 11.8246L16.1475 12.6685L15.0263 13.1397V13.1399Z" fill="#252211"/>
<path fill-rule="evenodd" clip-rule="evenodd" d="M15.7999 11.5918C15.7999 11.5918 15.6395 11.4442 15.2744 11.643C14.9093 11.8418 14.6141 12.2574 14.596 12.6347C14.5779 12.9685 14.8704 13.2172 15.3261 13.2302C15.6652 13.243 15.8699 13.2042 15.9735 13.179C15.9475 13.1479 15.8128 12.9796 15.8128 12.9796L15.8 11.5919L15.7999 11.5918Z" fill="#C3B378"/>
<path fill-rule="evenodd" clip-rule="evenodd" d="M15.6431 11.6738C15.6431 11.6738 15.6043 11.6427 15.4895 11.7048C15.3937 11.756 15.2539 11.8914 15.1452 11.9871C15.0752 12.0441 15.0312 12.0699 14.9916 12.1139C14.8309 12.3056 14.6963 12.6189 14.7741 12.7742C14.852 12.9295 15.1081 13.1082 15.7607 12.9865L15.6412 11.6739L15.6431 11.6738Z" fill="#E6D89C"/>
<path fill-rule="evenodd" clip-rule="evenodd" d="M15.43 11.9942C15.43 11.9942 15.3264 12.1548 15.3264 12.4111C15.3264 12.6726 15.474 13.0893 16.0177 13.1204C16.4345 13.1463 16.714 12.5198 17.0169 12.2765C17.2473 12.0901 17.3872 12.0848 17.3872 12.0848C17.3872 12.0848 17.1516 11.8288 16.5225 11.4972C15.9012 11.1632 15.2047 11.1192 14.8267 11.6318C15.0053 11.6189 15.5827 11.4712 15.5827 11.4712L15.8649 11.5619L15.43 11.9943V11.9942Z" fill="#252211"/>
<path fill-rule="evenodd" clip-rule="evenodd" d="M16.2428 12.3331C16.2247 12.2943 16.2117 12.2424 16.2868 12.2296C16.3619 12.2168 16.3955 12.2243 16.4215 12.2808C16.4475 12.3373 16.4727 12.3844 16.4343 12.4078C16.3955 12.4285 16.2945 12.4078 16.2427 12.3327L16.2428 12.3331ZM16.1211 11.968C16.1211 11.968 16.0952 11.9861 16.1081 11.9499C16.1132 11.906 16.1471 11.8282 16.2299 11.8465C16.3125 11.8647 16.2947 11.9552 16.2811 11.9811C16.2673 12.0071 16.1983 12.0509 16.1464 12.0323C16.1397 12.0307 16.1337 12.0274 16.1285 12.023C16.1235 12.0185 16.1195 12.0129 16.1169 12.0066C16.1144 12.0003 16.1135 11.9935 16.114 11.9867C16.1147 11.9799 16.1168 11.9734 16.1204 11.9677L16.1211 11.968Z" fill="#6F674D"/>
<path fill-rule="evenodd" clip-rule="evenodd" d="M9.11426 12.1331C9.11426 12.1331 9.31906 12.2867 9.55698 12.2808C9.7925 12.2755 10.0954 12.0323 10.2352 11.8768C10.318 11.7862 10.3888 11.6904 10.4656 11.6153C10.5305 11.5506 10.5743 11.5196 10.6054 11.4756C10.6494 11.4244 10.696 11.3281 10.7194 11.2969C10.6624 11.3409 10.5796 11.4187 10.4941 11.4704C10.4113 11.5216 10.2326 11.6179 10.1601 11.6438C10.0903 11.6698 9.36531 12.0534 9.36531 12.0534L9.11426 12.1331Z" fill="#AC924C"/>
<path fill-rule="evenodd" clip-rule="evenodd" d="M9.42676 10.2215C9.42676 10.2215 9.54058 10.1439 9.76074 10.0945C9.97306 10.0433 10.4002 10.0039 10.4002 10.0039L10.7523 10.1575L10.8921 10.6883L10.6361 11.2399L10.31 11.4447L9.93961 10.8492L9.42761 10.2225L9.42676 10.2215Z" fill="#9F8E57"/>
<path fill-rule="evenodd" clip-rule="evenodd" d="M8.9656 10.695L8.84375 10.786C8.84375 10.786 8.87499 10.729 8.90075 10.5556C8.92652 10.3822 9.06135 9.96012 9.25814 9.71675C9.45491 9.47337 9.44979 9.48635 9.44979 9.48635C9.43168 9.48304 9.41308 9.48363 9.39522 9.48807C9.37735 9.49251 9.36064 9.50071 9.34619 9.51212C9.37214 9.45477 9.53786 9.24997 9.70358 9.14757C9.8693 9.04517 9.93398 9.01292 10.1074 9.09637C10.2808 9.17983 10.3248 9.22319 10.4518 9.21807C10.5787 9.21295 10.6873 9.07828 10.6873 9.07828C10.6873 9.07828 10.7132 9.16105 10.6175 9.35272C10.5217 9.54437 10.1437 9.9352 10.1437 9.9352L9.3566 10.4737L8.9656 10.6955V10.695Z" fill="#EAC970"/>
<path fill-rule="evenodd" clip-rule="evenodd" d="M9.54755 10.157C9.54755 10.157 10.1172 10.2346 10.2906 10.0742C10.2958 10.0923 10.3166 10.0923 10.3166 10.1053C10.3152 10.115 10.3106 10.1241 10.3036 10.131C10.3225 10.128 10.3415 10.1263 10.3606 10.1259C10.3834 10.1327 10.4069 10.1371 10.4306 10.1389C10.4497 10.1385 10.4687 10.1367 10.4876 10.1336C10.4858 10.1465 10.4814 10.1588 10.4747 10.17C10.468 10.1811 10.4592 10.1908 10.4487 10.1985C10.4746 10.1985 10.4999 10.2036 10.4999 10.2242C10.4999 10.2449 10.505 10.3072 10.4739 10.3201C10.4482 10.3273 10.4208 10.3254 10.3963 10.3148C10.3983 10.3639 10.4116 10.4117 10.4352 10.4548C10.4864 10.5505 10.5956 10.6596 10.7424 10.6282C10.7424 10.6282 10.8199 10.8146 10.4937 11.2288C10.4499 11.2858 10.4031 11.3634 10.3463 11.4281C10.3238 11.4771 10.3067 11.5283 10.2951 11.5809C10.2951 11.5809 10.8467 11.3685 11.0045 10.8844C11.1651 10.3976 11.1962 9.91872 11.1651 9.47089C11.1598 9.34392 11.1392 9.25347 11.1081 9.18861C11.0305 9.02801 10.8129 9.05396 10.725 9.14458C10.598 9.27156 10.3857 9.58729 10.0906 9.80472C9.79025 10.0221 9.77744 10.0607 9.54688 10.157H9.54755Z" fill="#D7BC6B"/>
<path fill-rule="evenodd" clip-rule="evenodd" d="M8.8644 10.8561C8.8644 10.8561 8.75568 10.9207 8.69868 11.1633C8.64168 11.4117 8.74988 11.7147 8.81252 11.8104C8.87515 11.9062 9.01732 12.1678 9.31223 12.1808C9.38523 12.1804 9.45742 12.1654 9.52455 12.1367C9.6275 12.0895 9.72407 12.0295 9.81195 11.9581C9.93892 11.8623 10.0423 11.7795 10.0294 11.7717C9.99832 11.7587 9.24755 11.1373 9.24755 11.1373L8.96527 10.8223L8.86423 10.8564L8.8644 10.8561Z" fill="#585136"/>
<path fill-rule="evenodd" clip-rule="evenodd" d="M9.575 11.8874C9.575 11.8874 9.72774 11.8746 9.81837 11.8176C9.909 11.7606 9.2876 11.1445 9.2876 11.1445L9.33162 11.8101L9.575 11.8874Z" fill="#453A25"/>
<path fill-rule="evenodd" clip-rule="evenodd" d="M8.91469 10.8081C8.91469 10.8081 8.83704 10.9557 8.83704 10.9946C8.82406 11.1214 8.86297 11.5201 8.89404 11.6469C8.9251 11.7816 9.09337 11.986 9.31097 11.986C9.44546 11.986 9.632 11.9032 9.632 11.8826C9.632 11.8567 9.44034 11.8314 9.38862 11.735C9.35757 11.6838 9.3446 11.5564 9.33742 11.4278C9.3323 11.345 9.3323 11.2544 9.36337 11.223C9.43334 11.1453 9.44614 10.9226 9.44614 10.9226L9.69464 10.4609H9.36781L8.97681 10.7043L8.91469 10.8081Z" fill="#84754B"/>
<path fill-rule="evenodd" clip-rule="evenodd" d="M8.81885 10.9516C8.81885 10.9516 9.07485 10.6125 9.30558 10.5347C9.53633 10.4569 9.63958 10.5036 9.63958 10.5036L9.50493 10.848L9.31326 11.0604L9.32623 11.1691C9.32623 11.1691 9.29501 11.4565 9.48666 11.6558C9.67831 11.8552 9.82065 11.8475 9.90359 11.8475C9.98654 11.8475 10.2246 11.7775 10.3463 11.4901C10.455 11.221 10.5456 10.8757 10.3282 10.5296C10.1157 10.1852 9.74043 10.1719 9.6679 10.1719C9.59537 10.1719 9.02586 10.2004 8.81885 10.9511V10.9516Z" fill="#252211"/>
<path fill-rule="evenodd" clip-rule="evenodd" d="M15.3923 12.1038C15.2965 12.0597 15.3872 11.7906 15.4829 11.7077C15.5787 11.6247 15.7004 11.5291 15.9128 11.516C15.9903 11.5109 16.0655 11.56 16.0527 11.6119C16.0345 11.7077 15.8999 11.8423 15.7781 11.9381C15.6099 12.0702 15.5011 12.1529 15.3923 12.1038Z" fill="#F7F7E7"/>
<path fill-rule="evenodd" clip-rule="evenodd" d="M10.2141 10.637C10.284 10.6319 10.3747 10.6882 10.3928 10.764C10.4108 10.8468 10.3487 11.0125 10.2141 11.0125C10.1054 11.0125 10.0483 10.8779 10.0483 10.8391C10.0496 10.8073 10.0585 10.7762 10.0743 10.7485C10.0794 10.7406 10.0924 10.65 10.2141 10.637Z" fill="#F8F6DE"/>
<path fill-rule="evenodd" clip-rule="evenodd" d="M9.20406 10.6953C9.20406 10.6953 9.02537 10.7781 8.9426 10.9513C8.88345 11.0792 8.86556 11.2224 8.8914 11.3609C8.90437 11.4256 8.96905 11.586 9.01308 11.643C9.05712 11.7 9.11668 11.7389 9.16071 11.7336C9.20475 11.7284 9.2952 11.612 9.2952 11.5422C9.2952 11.4724 9.30049 11.1771 9.38582 11.0165C9.46092 10.8561 9.20457 10.6955 9.20457 10.6955L9.20406 10.6953Z" fill="#D4C38B"/>
<path fill-rule="evenodd" clip-rule="evenodd" d="M9.22968 10.6826C9.19863 10.7007 9.14691 10.7266 9.15971 10.7602C9.17269 10.7913 9.28141 10.8114 9.32031 10.8872C9.36435 10.9648 9.36435 11.0476 9.35138 11.0865C9.38519 11.0705 9.41589 11.0485 9.44201 11.0217C9.49901 10.957 9.56881 10.8691 9.62837 10.8691C9.66729 10.8691 9.70602 10.8872 9.74238 10.8872C9.79938 10.8872 9.85621 10.8691 9.86406 10.8095C9.87686 10.7319 9.75534 10.6619 9.68537 10.6749C9.69834 10.6237 9.71643 10.5481 9.65943 10.4962C9.60243 10.4443 9.42391 10.5351 9.38499 10.5611C9.34609 10.587 9.22968 10.6827 9.22968 10.6827V10.6826Z" fill="#E2D59D"/>
<path fill-rule="evenodd" clip-rule="evenodd" d="M13.3431 16.1209L13.7263 16.0079L13.8349 16.0855C13.8349 16.0855 13.9124 16.2512 14.0343 16.2719C13.9953 16.3547 13.8944 16.4255 13.8996 16.4841C13.9049 16.5428 13.9567 16.5877 13.9567 16.5877C13.9567 16.5877 13.6123 17.1572 14.2907 17.7312C14.13 17.7959 13.9256 17.8848 13.8168 17.936C13.8944 17.9541 14.06 17.9872 14.13 18.05C14.2 18.1128 14.2 18.1328 14.2647 18.1717C14.3293 18.2107 14.3681 18.2623 14.3553 18.2855C14.3113 18.2596 14.1636 18.1821 14.1379 18.2545C14.1121 18.3268 13.4984 18.2985 13.4984 18.2985L12.4628 18.4979C12.4628 18.4979 12.5015 18.3943 12.3928 18.2985C12.266 18.1847 12.1107 18.3036 11.945 18.1768C11.7276 18.0111 11.7197 17.8195 11.6499 17.7471C11.7197 17.7031 11.8622 17.6384 12.2013 17.5935C12.1884 17.5676 12.1443 17.4899 12.1703 17.4201C12.2013 17.3295 12.3307 17.2724 12.2919 17.1641C12.3489 17.1511 12.3747 17.1511 12.5172 16.9724C12.6519 16.7937 12.7346 16.7549 12.8382 16.742C12.9418 16.7291 13.004 16.742 13.1956 16.5633C13.3301 16.4365 13.2862 16.3279 13.2862 16.3279C13.2862 16.3279 13.3741 16.2993 13.3432 16.1207L13.3431 16.1209Z" fill="#CBAC5A"/>
<path fill-rule="evenodd" clip-rule="evenodd" d="M12.213 16.1796C12.2181 16.1536 12.2389 16.1407 12.3787 16.1536C12.5185 16.1665 13.4039 16.0708 13.6447 16.0579C13.8881 16.0397 14.7451 16.0525 15.162 16.1407C15.5789 16.2287 16.0008 16.3323 16.2052 16.384C16.41 16.4411 16.4745 16.4615 16.4667 16.4875C16.4616 16.5133 16.4155 16.5387 16.3891 16.5315C16.3633 16.5264 15.6849 16.3192 15.4753 16.2755C15.2657 16.2317 14.5405 16.1149 14.1441 16.1219C13.7739 16.1272 13.6263 16.1168 13.3131 16.1529C12.9998 16.1919 12.482 16.2436 12.3267 16.2229C12.1731 16.2048 12.2048 16.2048 12.2127 16.1789L12.213 16.1796Z" fill="#D6BC6F"/>
<path fill-rule="evenodd" clip-rule="evenodd" d="M14.2968 18.2079C14.2968 18.2079 14.8275 18.4953 15.0192 18.8475C15.1589 19.1089 14.9364 19.2384 14.9364 19.2384C14.9364 19.2384 15.2368 19.2384 15.1979 19.4041C15.1797 19.5076 14.6801 19.7871 14.3461 19.9347C14.0069 20.0824 14.02 20.0747 13.8543 20.1004C13.6936 20.1264 13.2535 20.0492 13.1628 20.1781C13.0722 20.3069 13.1116 20.4397 13.1369 20.4604C13.1628 20.4785 13.3725 20.5044 13.3725 20.5044C13.3725 20.5044 13.3286 20.6261 12.8937 20.6391C12.4588 20.652 12.35 20.6829 12.324 20.7297C12.2981 20.7736 12.4068 20.7477 12.6063 20.7809C12.8056 20.812 13.0852 20.8321 13.0852 20.8321C13.0852 20.8321 12.9946 20.9097 12.7591 20.9719C12.4897 21.0417 12.0677 21.1065 11.9409 21.1841C12.0056 21.2283 12.1015 21.2929 12.1457 21.298C12.037 21.324 11.884 21.3809 11.8583 21.4016C11.897 21.4276 11.9489 21.4587 11.9489 21.4587C11.9489 21.4587 11.7313 21.7201 11.6045 21.7849C11.4777 21.8497 10.7476 22.1887 10.4963 22.124C9.86984 21.9583 9.79218 21.2723 9.63944 21.2205C9.40904 21.1429 9.30032 21.298 9.09569 21.1893C9.18632 21.1247 9.23564 21.0859 9.33138 21.0419C9.22778 20.9907 8.69189 20.6508 8.69189 20.6508C8.63585 20.5287 8.57365 20.4095 8.50552 20.2936C8.40193 20.1149 8.24952 19.8767 8.13517 19.6669C7.88669 19.2061 7.87372 18.9939 7.64844 18.7324C7.68734 18.6812 7.82184 18.6884 7.82184 18.6884L9.70941 19.3097L13.0563 19.4067L13.9268 18.164L14.2969 18.2081L14.2968 18.2079Z" fill="#DFC677"/>
<path fill-rule="evenodd" clip-rule="evenodd" d="M9.33887 20.1035C9.35907 20.126 9.38261 20.1452 9.40867 20.1605C9.47352 20.2045 9.56927 20.2564 9.63395 20.3339C9.65989 20.2951 9.72457 20.2252 9.83875 20.3339C9.95292 20.4425 10.0947 20.3651 10.183 20.3909C10.2736 20.4221 10.2787 20.4349 10.2787 20.4349C10.2787 20.4349 10.3299 20.3909 10.4445 20.3443C10.5144 20.3184 10.5972 20.3003 10.6878 20.2745C10.7706 20.2564 10.8612 20.2304 10.9235 20.2304C10.9805 20.2692 11.185 20.4864 12.0057 20.1657C12.7799 19.8653 12.9584 19.8317 13.0879 19.8781C13.1009 19.8471 13.1138 19.7876 13.3132 19.7955C13.3132 19.7127 13.1475 19.4304 13.1475 19.4304L12.2335 19.1172H11.7337L10.2347 19.3916L9.40407 19.8656L9.33937 20.1045L9.33887 20.1035Z" fill="#C4A859"/>
<path fill-rule="evenodd" clip-rule="evenodd" d="M8.83887 19.5785C8.83887 19.5785 8.85696 19.7184 9.06415 19.866C9.26895 20.0135 9.33329 20.1015 9.33329 20.1015C9.33329 20.1015 9.3722 20.0503 9.40327 19.9981C9.43432 19.9411 9.46027 19.8764 9.51197 19.8583C9.61557 19.8143 9.85109 19.8971 9.90297 19.8841C9.947 19.8713 9.93404 19.7807 9.98063 19.7807C10.0893 19.7753 10.1591 19.8504 10.1981 19.8504C10.237 19.8504 10.3325 19.8453 10.3455 19.8247C10.3585 19.804 10.3636 19.5889 10.5112 19.4853C10.6718 19.3716 10.8686 19.4207 10.9208 19.4467C10.9208 19.4853 10.9259 19.5813 11.0295 19.5864C11.1331 19.5916 11.1434 19.5735 11.2343 19.6045C11.3253 19.6356 11.4337 19.5995 11.4828 19.752C11.5269 19.7392 11.6305 19.7263 11.6045 19.5785C11.6557 19.5399 11.7004 19.5139 11.8093 19.3612C11.8353 19.3224 11.8791 19.2784 11.9129 19.2213C12.0035 19.2213 12.1123 19.2033 12.2571 19.3301C12.2131 19.3612 12.1872 19.3813 12.1744 19.4128C12.2123 19.4504 12.2469 19.4911 12.2778 19.5345C12.3167 19.5857 12.3427 19.6485 12.3918 19.6615C12.5005 19.6925 12.6792 19.6485 12.8785 19.6615C13.0702 19.6745 13.2306 19.7443 13.3006 19.7883C13.3265 19.7755 13.3265 19.7703 13.3912 19.7832C13.4559 19.7961 13.5051 19.8013 13.4352 19.7185C13.474 19.7367 13.518 19.7755 13.5569 19.7367C13.5959 19.6977 13.6268 19.6409 13.7355 19.6279C13.8441 19.6149 13.8831 19.6331 13.9271 19.5192C13.9841 19.3795 13.7873 19.3795 13.7873 19.3795C13.7873 19.3795 13.878 19.2964 13.9791 19.1877C14.1007 19.0739 14.2405 18.9263 14.2741 18.7451C14.3311 18.4111 14.0049 18.3672 14.0049 18.3672L12.423 18.8539L10.489 18.758L8.83989 19.5788L8.83887 19.5785Z" fill="#927D49"/>
<path fill-rule="evenodd" clip-rule="evenodd" d="M7.41768 15.0091C7.41768 15.0091 7.36648 15.0737 7.33491 15.2264C7.30334 15.3792 7.31682 15.3611 7.29087 15.4699C7.26494 15.5785 6.9463 16.6608 7.06576 17.0257C7.18523 17.3908 7.39208 17.5255 7.52144 17.8205C7.54739 17.8853 7.57264 17.9241 7.58612 17.9812C7.63016 18.1727 7.59142 18.3203 7.64314 18.512C7.66122 18.5767 7.70799 18.6517 7.77779 18.7293C7.93139 18.8899 8.18175 19.0425 8.28979 19.1513C8.44236 19.3119 8.65996 19.6381 8.93695 19.6691C9.08458 19.6872 9.29434 19.6251 9.46772 19.5216C9.62132 19.4257 9.71622 19.2912 9.87732 19.2144C9.99116 19.1575 10.1128 19.1368 10.2216 19.1108C10.4468 19.0668 10.6515 19.0596 10.7732 19.0849C10.9595 19.1239 11.3997 19.2584 11.6436 19.2584C11.8341 19.2553 12.0236 19.2293 12.2079 19.1808C12.5781 19.0721 13.026 18.8856 13.3212 18.8028C13.4947 18.7516 13.6344 18.7381 13.7769 18.7071C14.0203 18.65 14.2247 18.5724 14.3413 18.4248C14.2636 18.3341 14.1679 18.1944 13.6499 18.1995C13.0623 18.2124 12.3839 18.5385 12.0499 18.5905C11.7159 18.6424 11.571 18.6863 11.1981 18.5516C10.8325 18.4156 10.8204 18.3256 10.8204 18.3256C10.8204 18.3256 10.4366 18.0572 10.276 17.3728C10.1154 16.6884 10.276 16.1897 10.6929 15.7157C10.8017 15.5941 10.7757 15.4853 10.7757 15.4853C10.7757 15.4853 11.0501 15.1152 10.9751 14.7685C10.8923 14.4241 10.3615 14.4941 10.3615 14.4941L7.41786 15.0091H7.41768Z" fill="#6E6342"/>
<path fill-rule="evenodd" clip-rule="evenodd" d="M7.85955 16.1601C7.83672 16.2031 7.82599 16.2513 7.82848 16.2999C7.8336 16.3697 7.85443 16.4604 8.064 16.6649C8.24269 16.8435 8.20377 17.0428 8.20377 17.0428C8.20377 17.0428 8.29372 17.0609 8.53777 16.9468C8.72943 16.8561 8.79377 17.0168 8.79377 17.0168C8.84956 16.9875 8.91003 16.9681 8.97245 16.9597C9.02901 16.9545 9.08376 16.9371 9.13288 16.9085C9.13288 16.9085 9.35816 17.1389 9.55495 17.2476C9.73363 17.3436 9.83723 17.4083 9.92529 17.3436C10.0081 17.2865 10.0081 17.17 10.0028 17.1183C9.98224 17.0705 9.95624 17.0253 9.92529 16.9836C9.86829 16.9008 9.77767 16.8049 9.77169 16.7276C9.75872 16.5491 9.90635 16.3367 9.87512 16.2849C9.84388 16.2332 9.72765 16.2203 9.44025 16.3239C9.14261 16.4221 7.85835 16.1607 7.85835 16.1607L7.85955 16.1601Z" fill="#39331F"/>
<path fill-rule="evenodd" clip-rule="evenodd" d="M8.53789 17.3183C8.53789 17.3183 8.39044 17.1785 8.44215 16.5001C8.50475 16.4992 8.56725 16.5052 8.62851 16.5181C8.62851 16.5181 8.70889 17.0439 8.53789 17.3183Z" fill="#292311"/>
<path fill-rule="evenodd" clip-rule="evenodd" d="M7.48769 14.4903C7.50827 14.4749 7.52736 14.4579 7.54469 14.4391C7.49349 14.5348 7.25712 14.9179 7.44879 15.5212C7.64044 16.1217 8.12189 16.5696 8.71479 16.5904C9.30768 16.6112 9.61932 16.3211 9.97567 15.8863C10.1155 15.7128 10.276 15.4952 10.4184 15.3479C10.6307 15.1172 10.7964 15.0525 10.7964 14.83C10.7964 14.3743 10.3303 14.1697 9.64424 13.9652C8.95816 13.7608 8.33932 13.786 8.01829 13.926C7.70512 14.0785 7.57047 14.2392 7.48752 14.4904L7.48769 14.4903Z" fill="#252211"/>
<path fill-rule="evenodd" clip-rule="evenodd" d="M9.69095 17.5223L9.74215 17.4963C9.74215 17.4963 9.75495 17.2915 9.83788 17.2969C9.92066 17.31 9.95958 17.4188 9.95172 17.4576C9.9466 17.4963 9.92595 17.5612 9.843 17.5533C9.7343 17.5559 9.69043 17.5223 9.69043 17.5223H9.69095Z" fill="#3F3824"/>
<path fill-rule="evenodd" clip-rule="evenodd" d="M9.46094 16.6528C9.46094 16.6528 9.51214 16.6348 9.57478 16.6969C9.62598 16.6969 9.8492 16.6709 9.91918 16.7149C9.98915 16.7589 10.0098 16.7977 10.0098 16.7977C10.0098 16.7977 9.74834 16.8547 9.60583 16.7977C9.46094 16.7485 9.46094 16.6528 9.46094 16.6528Z" fill="#2D2815"/>
<path fill-rule="evenodd" clip-rule="evenodd" d="M10.6129 16.6905C10.6129 16.6776 10.4731 16.5819 10.3255 16.5505C10.2995 16.5455 10.2942 16.5636 10.2743 16.5636C10.2613 16.5584 10.2562 16.5195 10.2562 16.5195L10.1722 16.5637C10.1722 16.5637 10.1592 16.5819 10.2033 16.6149C10.242 16.646 10.3069 16.672 10.3249 16.7236C10.343 16.7753 10.343 16.7935 10.3509 16.8013C10.356 16.8064 10.4466 16.8013 10.4907 16.7753C10.5347 16.7495 10.6176 16.7071 10.6123 16.69L10.6129 16.6905Z" fill="#82764F"/>
<path fill-rule="evenodd" clip-rule="evenodd" d="M9.30469 17.2164C9.30469 17.2164 9.33045 17.0379 9.50402 17.03C9.68254 17.0171 9.71633 17.1904 9.71633 17.1904L9.61273 17.294C9.61273 17.2915 9.53507 17.1828 9.30554 17.2164H9.30469Z" fill="#2D2816"/>
<path fill-rule="evenodd" clip-rule="evenodd" d="M10.4317 16.4484C10.4317 16.4484 10.3357 16.552 10.1236 16.5831C10.1055 16.5571 10.0666 16.5053 10.1236 16.4225C10.1806 16.3399 10.2453 16.3139 10.31 16.3396C10.3385 16.3443 10.3651 16.3569 10.3867 16.3763C10.4083 16.3955 10.4239 16.4205 10.4317 16.4484Z" fill="#574F35"/>
<path fill-rule="evenodd" clip-rule="evenodd" d="M10.8222 16.5743C10.8275 16.5484 10.8094 16.5432 10.8222 16.5303C10.835 16.5173 10.9051 16.4916 10.9181 16.5044C10.9232 16.5096 10.9181 16.5303 10.9181 16.5556C10.9181 16.5808 10.9181 16.6068 10.9051 16.6253C10.887 16.6513 10.8353 16.6643 10.8094 16.6565C10.7834 16.6489 10.7783 16.6125 10.7783 16.6053C10.7911 16.6003 10.8222 16.5873 10.8222 16.5743ZM11.2642 16.2948C11.2642 16.2817 11.3082 16.2559 11.3342 16.2559C11.3729 16.2559 11.3729 16.2869 11.3782 16.2948C11.391 16.2999 11.391 16.2895 11.404 16.3128C11.417 16.3363 11.4352 16.3776 11.4221 16.4035C11.4089 16.4295 11.3574 16.4473 11.3446 16.4423C11.3265 16.4292 11.2695 16.3128 11.2642 16.2948Z" fill="#82764F"/>
<path fill-rule="evenodd" clip-rule="evenodd" d="M10.3735 16.6329C10.3735 16.6329 10.4305 16.6457 10.5082 16.7107C10.4823 16.7287 10.4433 16.7493 10.4433 16.7493C10.4433 16.7493 10.4382 16.6899 10.3735 16.6328V16.6329Z" fill="#6E6342"/>
<path fill-rule="evenodd" clip-rule="evenodd" d="M10.2472 16.0652C10.2342 16.0524 10.2859 16.0213 10.317 16.0264C10.348 16.0316 10.361 16.0524 10.3946 16.0575C10.4282 16.0627 10.4335 16.0445 10.4458 16.0316C10.4581 16.0185 10.5028 16.0264 10.5105 16.0316C10.5153 16.0372 10.5196 16.0433 10.5235 16.0496C10.524 16.0397 10.5266 16.0301 10.531 16.0213C10.5355 16.0125 10.5417 16.0048 10.5492 15.9984C10.5592 15.9912 10.5706 15.9861 10.5828 15.984C10.5949 15.9817 10.6073 15.9823 10.6192 15.9855C10.6243 16.0036 10.6503 16.0683 10.6452 16.0812C10.64 16.0941 10.5624 16.1124 10.5492 16.0993C10.5622 16.1305 10.6192 16.1952 10.6269 16.208C10.6346 16.2208 10.5699 16.252 10.5441 16.2469C10.508 16.2444 10.2852 16.1148 10.2465 16.0657L10.2472 16.0652ZM10.5863 15.6355C10.5815 15.6224 10.5723 15.6115 10.5603 15.6044C10.5423 15.5992 10.4827 15.6044 10.4827 15.6355C10.4827 15.6665 10.5339 15.8403 10.5914 15.9307C10.6563 16.0213 10.7001 16.0963 10.7442 16.1171C10.758 16.1233 10.7737 16.1241 10.7881 16.1193C10.8025 16.1145 10.8145 16.1044 10.8218 16.0911C10.8269 16.0781 10.8399 15.9824 10.8348 15.7571C10.8297 15.5319 10.8218 15.3144 10.8088 15.3015C10.7959 15.2884 10.7442 15.2887 10.7261 15.3144C10.708 15.3401 10.5914 15.5967 10.5861 15.6355H10.5863Z" fill="#585136"/>
<path fill-rule="evenodd" clip-rule="evenodd" d="M10.3565 16.9613C10.3565 16.9613 10.2659 16.9044 10.1778 16.9433C10.095 16.9821 10.1002 17.1349 10.1002 17.1349C10.1188 17.1423 10.1389 17.1448 10.1588 17.1425C10.1786 17.1404 10.1977 17.1332 10.2142 17.122C10.2712 17.0832 10.3435 17.0185 10.3565 16.9616V16.9613Z" fill="#574F35"/>
<path fill-rule="evenodd" clip-rule="evenodd" d="M10.5263 17.1641C10.5212 17.1129 10.4751 17.1129 10.4751 17.0865C10.4783 17.0739 10.4856 17.0627 10.4959 17.0547C10.5062 17.0467 10.5189 17.0424 10.5319 17.0424C10.5579 17.0424 10.5831 17.0735 10.6149 17.0936C10.6459 17.1117 10.6925 17.1448 10.6976 17.1843C10.7028 17.2237 10.6465 17.3317 10.5838 17.3317C10.5212 17.3317 10.5398 17.2152 10.5268 17.1635L10.5263 17.1641ZM11.026 17.0941C11.026 17.0941 10.9224 17.1252 10.9301 17.0941C10.9378 17.0631 10.9613 17.0555 10.995 17.0555C11.012 17.0376 11.035 17.0264 11.0596 17.0241C11.0737 17.0235 11.0876 17.0281 11.0984 17.0372C11.0984 17.0372 11.1684 17.0061 11.189 17.0241C11.2097 17.0423 11.1943 17.0423 11.2071 17.0631C11.2234 17.0863 11.2341 17.1128 11.2383 17.1408C11.2383 17.1615 11.1607 17.2055 11.0984 17.1977C11.026 17.1823 11.0388 17.1071 11.026 17.0941ZM11.6292 16.9776C11.6292 16.9776 11.6602 16.9957 11.6344 17.0165C11.6164 17.0345 11.5257 17.0677 11.4479 17.0735C11.3702 17.0735 11.3004 17.0863 11.3004 17.0605C11.3004 17.0348 11.3651 16.9829 11.4039 16.9699C11.4116 16.9601 11.4215 16.9524 11.4327 16.9469C11.444 16.9416 11.4563 16.9388 11.4687 16.9388C11.4998 16.9388 11.6213 16.9259 11.6551 16.9208C11.6862 16.9155 11.7121 16.9336 11.6938 16.9595C11.6862 16.9776 11.6292 16.9776 11.6292 16.9776ZM11.8078 16.1781C11.8078 16.1781 11.7689 16.2609 11.7251 16.2609C11.681 16.2559 11.681 16.2429 11.681 16.2299C11.681 16.2119 11.7251 16.1652 11.7198 16.1523C11.707 16.1523 11.6757 16.1523 11.681 16.1212C11.681 16.0952 11.7251 16.0641 11.7638 16.07C11.7931 16.046 11.8295 16.0323 11.8674 16.0312C11.9114 16.0312 11.9502 16.044 11.9502 16.07C11.9502 16.0959 11.899 16.1528 11.8802 16.1659C11.8596 16.1865 11.8336 16.2 11.8078 16.1787V16.1781ZM11.2175 17.7083C11.2175 17.7083 11.1663 17.7135 11.1663 17.7393C11.1663 17.7523 11.1791 17.7523 11.1974 17.7445C11.2079 17.744 11.2183 17.7423 11.2284 17.7393C11.2336 17.7445 11.2336 17.7704 11.2725 17.7704C11.3044 17.766 11.3352 17.7555 11.3631 17.7393C11.3941 17.7265 11.4201 17.7133 11.4201 17.6881C11.4071 17.644 11.3812 17.6232 11.3424 17.6232C11.3226 17.622 11.3028 17.6265 11.2854 17.6361C11.2854 17.6361 11.2725 17.6103 11.2284 17.6361C11.1844 17.6621 11.1895 17.6621 11.2025 17.6751C11.2257 17.6957 11.218 17.7092 11.218 17.7092L11.2175 17.7083ZM10.925 17.9775C10.925 17.9645 10.9897 17.9387 11.0078 17.9465C11.0258 17.9516 11.0776 18.0499 11.0776 18.0603C11.0776 18.0733 11.0129 18.1044 10.9869 18.1044C10.961 18.1044 10.9171 18.0603 10.9171 18.0532C10.9171 18.048 10.9482 18.0404 10.9482 18.0351C10.9559 18.0223 10.925 17.9911 10.925 17.978V17.9775ZM10.7202 17.5995C10.7332 17.5944 10.7332 17.5815 10.7512 17.5684C10.7569 17.5647 10.7634 17.5623 10.7701 17.5613C10.7768 17.5605 10.7837 17.5612 10.7902 17.5633C10.7947 17.5552 10.801 17.5481 10.8087 17.5428C10.8163 17.5373 10.825 17.5337 10.8342 17.5321C10.8652 17.5269 10.8912 17.5321 10.8854 17.5451C10.8854 17.584 10.9113 17.6097 10.9113 17.6408C10.9113 17.6719 10.8932 17.7108 10.8286 17.7367C10.7639 17.7548 10.6758 17.7548 10.6628 17.7497C10.6499 17.7445 10.6369 17.6927 10.6499 17.6668C10.6628 17.6408 10.699 17.6125 10.7198 17.5995H10.7202Z" fill="#82764F"/>
<path fill-rule="evenodd" clip-rule="evenodd" d="M10.8022 17.6172C10.8022 17.6172 10.7581 17.6431 10.7581 17.6561C10.7542 17.6687 10.7525 17.6817 10.753 17.6948C10.753 17.7025 10.81 17.6897 10.8177 17.6819C10.8203 17.6768 10.8022 17.6307 10.8022 17.6172Z" fill="#6E6342"/>
<path fill-rule="evenodd" clip-rule="evenodd" d="M10.419 17.496C10.4447 17.5012 10.4888 17.496 10.5224 17.5089C10.5483 17.5219 10.5664 17.5479 10.5405 17.5789C10.5145 17.61 10.4893 17.6565 10.4318 17.6487C10.3671 17.6436 10.305 17.61 10.305 17.584C10.3039 17.5676 10.3061 17.5512 10.3114 17.5356C10.3167 17.52 10.3251 17.5057 10.336 17.4933C10.362 17.4728 10.3748 17.4857 10.4188 17.496H10.419Z" fill="#585136"/>
<path fill-rule="evenodd" clip-rule="evenodd" d="M10.3865 17.5235C10.3865 17.5235 10.3038 17.5881 10.2829 17.6193C10.257 17.6504 10.1302 17.8108 10.0915 17.8444C10.1043 17.8217 10.119 17.8001 10.1353 17.7797C10.0841 17.8125 10.0457 17.8619 10.0266 17.9196C9.99554 18.0155 10.2002 18.0672 10.3347 18.1061C10.4691 18.1451 10.5212 18.1573 10.5212 18.1573C10.4717 18.0829 10.4292 18.004 10.3942 17.9217C10.343 17.8001 10.3166 17.7871 10.3502 17.7301C10.3761 17.6731 10.415 17.6344 10.415 17.5904C10.3995 17.5493 10.3865 17.5235 10.3865 17.5235Z" fill="#574F35"/>
<path fill-rule="evenodd" clip-rule="evenodd" d="M7.43637 17.7279C7.45521 17.7313 7.47453 17.7313 7.49337 17.7279C7.53211 17.7225 7.93609 17.5743 8.35814 17.6008C8.6741 17.62 8.98726 17.6715 9.29271 17.7544C9.82349 17.8943 10.4836 18.1712 10.9108 18.3292C11.0246 18.3731 11.1361 18.4509 11.218 18.4819C11.5443 18.6088 11.5571 18.6088 11.7488 18.6424C11.974 18.6735 12.2044 18.5984 12.4453 18.5467C12.7403 18.4819 13.2452 18.4508 13.6879 18.3861C13.8311 18.3663 13.9723 18.3343 14.11 18.2904C14.11 18.2904 13.7579 18.6424 12.9137 18.7692C12.5725 18.8211 12.2258 18.8255 11.8834 18.7823C11.6141 18.7563 11.4356 18.7173 11.3009 18.6787C11.1482 18.6345 10.8349 18.518 10.4492 18.4227C10.1798 18.3527 9.87946 18.3009 9.53523 18.2363C8.686 18.0808 7.7644 17.9023 7.43604 17.7288L7.43637 17.7279Z" fill="#252211"/>
<path fill-rule="evenodd" clip-rule="evenodd" d="M6.48351 16.1269C6.27871 16.3004 6.06144 16.4661 5.84931 16.6265L5.20981 17.1179C4.99239 17.2783 4.78008 17.444 4.56248 17.6045C4.34488 17.7652 4.12761 17.9177 3.89688 18.0653C4.10168 17.892 4.31893 17.7313 4.53636 17.5735C4.7538 17.4156 4.97924 17.2609 5.189 17.1008L5.82848 16.6088C6.04847 16.4483 6.26079 16.2827 6.48351 16.1273V16.1269ZM5.35215 17.9393C5.35215 17.9393 5.58255 17.7476 5.86996 17.4785C6.22716 17.1447 6.66475 16.7173 6.80452 16.6399L5.35199 17.9395L5.35215 17.9393Z" fill="#CFB66C"/>
<path fill-rule="evenodd" clip-rule="evenodd" d="M5.35156 17.9377C5.46558 17.8239 5.58726 17.7127 5.70894 17.6037L5.89531 17.4433C5.95231 17.3921 6.01716 17.3345 6.074 17.2776C6.18783 17.1637 6.29928 17.0419 6.41311 16.9255C6.46954 16.8669 6.52919 16.8116 6.5918 16.7597C6.62311 16.7321 6.65787 16.7085 6.69523 16.6899C6.72646 16.6717 6.76008 16.6387 6.80394 16.6328C6.77818 16.6717 6.74711 16.6899 6.72116 16.7235C6.69011 16.7493 6.66416 16.7804 6.63839 16.8063C6.58139 16.8632 6.51671 16.9149 6.45971 16.9668C6.33802 17.0704 6.21122 17.1716 6.08952 17.28C5.96784 17.3884 5.854 17.5052 5.73215 17.614C5.60023 17.7255 5.47854 17.8341 5.35156 17.9383V17.9377ZM6.89986 16.9021C6.89986 16.9021 6.05591 17.7281 5.88234 17.8627L6.89986 16.9021Z" fill="#CFB66C"/>
<path fill-rule="evenodd" clip-rule="evenodd" d="M6.90033 16.9024C6.82441 16.9903 6.74301 17.0732 6.65661 17.1508L6.40061 17.3943C6.31784 17.4769 6.24001 17.5599 6.15212 17.6427C6.06151 17.7204 5.97873 17.7963 5.88281 17.868L6.13131 17.6247C6.21425 17.5419 6.30487 17.472 6.39293 17.3891L6.64143 17.1457C6.72676 17.0604 6.80971 16.9775 6.90033 16.9024ZM6.93907 17.3501C6.86128 17.5673 6.76961 17.7792 6.66464 17.9845C6.44721 18.4196 6.12107 18.9632 5.97856 19.2403L6.93907 17.3501Z" fill="#CFB66C"/>
<path fill-rule="evenodd" clip-rule="evenodd" d="M6.9394 17.3516C6.9394 17.4473 6.91346 17.5303 6.88239 17.6131C6.85212 17.6959 6.8176 17.7771 6.77898 17.8564C6.74006 17.934 6.69603 18.0169 6.652 18.0921C6.60796 18.1672 6.55626 18.2447 6.51734 18.3225L6.25588 18.7833C6.16526 18.9369 6.07719 19.0913 5.98145 19.2389C6.04614 19.0732 6.13419 18.918 6.21714 18.7652C6.30776 18.6116 6.39054 18.458 6.47314 18.2991C6.51347 18.2199 6.54975 18.1388 6.58186 18.0559C6.62059 17.9729 6.65934 17.8953 6.69057 17.8203C6.72931 17.7375 6.76038 17.6596 6.79929 17.5847C6.84315 17.5043 6.8795 17.4267 6.93906 17.3516H6.9394Z" fill="#CFB66C"/>
<path fill-rule="evenodd" clip-rule="evenodd" d="M7.86013 19.4747C7.86013 19.4747 7.60413 19.8137 7.62973 20.2435C7.69953 20.0184 7.7876 19.674 7.86013 19.4747ZM8.1035 19.8145C8.1035 19.8145 8.01288 20.7361 7.93778 21.1893C8.04393 20.6655 8.06458 20.7096 8.1035 19.8145ZM9.79924 21.2437C9.79924 21.2437 9.41609 22.3701 9.40825 22.6832C9.49118 22.3612 9.65161 21.7037 9.79924 21.2429V21.2437Z" fill="#DEC270"/>
<path fill-rule="evenodd" clip-rule="evenodd" d="M10.6953 19.4043C10.6953 19.4043 11.3167 20.4295 11.7828 21.3045C11.6567 20.8641 11.3666 20.0565 10.6953 19.4043Z" fill="#CBAF59"/>
<path fill-rule="evenodd" clip-rule="evenodd" d="M12.3656 20.914C12.7068 21.5172 13.0145 22.1385 13.2872 22.7755C13.2355 22.3353 13.0956 21.582 12.3656 20.914Z" fill="#E3C677"/>
<path fill-rule="evenodd" clip-rule="evenodd" d="M17.2741 22.4268C17.3776 22.3621 17.5823 22.0099 17.7609 21.922C17.9395 21.8315 18.074 21.8133 18.2347 21.6347C18.3951 21.4481 18.4395 21.3343 18.7912 21.1868C19.2832 20.9743 18.9448 20.6999 18.9448 20.6999C18.9991 20.6467 19.0569 20.5973 19.1181 20.5524C19.2452 20.4567 19.3927 20.3401 19.3799 20.1355C19.3617 19.7912 19.2971 19.2916 19.0148 19.0016C19.2892 18.9445 19.8147 18.9059 20.1412 18.8231C20.5191 18.7272 20.6925 18.5925 20.6925 18.5925C20.6925 18.5925 20.4752 18.2223 20.8272 17.8496C21.1793 17.4768 21.4668 17.2541 21.6791 16.8372C21.4357 16.8061 21.0647 16.6768 20.1177 17.0365C20.1689 17.0605 20.2183 17.0883 20.2655 17.1193C20.2655 17.1193 19.6829 17.2799 19.4707 17.4585C19.1003 17.7717 19.0537 18.0281 18.6524 18.2197C18.2512 18.4115 17.8472 18.3596 17.5135 18.5148C17.1796 18.6701 17.1303 18.8023 17.0084 18.8592C17.0344 18.8903 17.0033 18.942 17.0524 18.986C17.0213 19.0301 16.8401 19.3252 16.6564 19.3252C16.6744 19.3952 16.8297 19.4468 16.8297 19.4468C16.8297 19.4468 16.7159 19.5297 16.426 19.5504C16.5733 19.704 16.7133 19.8715 17.0991 20.1148C17.068 20.1795 16.9384 20.2755 16.9903 20.3971C17.0473 20.5188 17.1951 20.6845 17.7851 20.8192C17.4848 20.832 17.1328 20.902 16.6587 20.8373C16.1849 20.7803 16.1073 20.7467 15.8148 20.8192C15.8459 20.8503 15.9287 20.8503 16.0012 20.9331C15.9235 20.9381 15.4368 20.876 15.2711 21.0936C15.0976 21.3187 15.0225 21.6891 15.0355 21.9376C14.9449 21.9816 14.8568 22.0592 14.9008 22.2199C14.9449 22.3804 15.1753 22.4321 15.3229 22.5331C15.4704 22.6417 15.4833 22.6805 15.6233 22.6547C15.7708 22.6236 15.9881 22.4761 16.1152 22.4761C16.2421 22.4761 16.3325 22.5719 16.3325 22.5719C16.3325 22.5719 16.6769 22.4063 16.7107 22.4373C16.7417 22.4683 16.7157 22.6677 16.7493 22.6988C16.7835 22.7221 17.1715 22.4917 17.2751 22.4268H17.2741Z" fill="#ECD592"/>
<path fill-rule="evenodd" clip-rule="evenodd" d="M24.7992 12.066C23.1811 7.88743 19.1811 7.11328 19.1811 7.11328H7.76871L7.81275 11.3695H10.0855V20.8737H7.76855V25.1224H18.8652C21.5395 25.1224 23.6832 22.4349 23.6832 22.4349C27.1161 17.5625 24.7991 12.066 24.7991 12.066H24.7992ZM18.9247 19.5715C18.9247 19.5715 18.0543 20.8272 17.1072 20.8272H15.2128L15.168 11.3799H17.5991C17.5991 11.3799 18.7255 11.6155 19.5125 13.8445C19.5125 13.8445 20.5557 17.036 18.9247 19.5715Z" fill="white" fill-opacity="0.8"/>
</svg>
