<?xml version="1.0" standalone="no"?><!DOCTYPE svg PUBLIC "-//W3C//DTD SVG 1.1//EN" "http://www.w3.org/Graphics/SVG/1.1/DTD/svg11.dtd"><svg t="1727602256525" class="icon" viewBox="0 0 1024 1024" version="1.1" xmlns="http://www.w3.org/2000/svg" p-id="1875" xmlns:xlink="http://www.w3.org/1999/xlink" width="200" height="200"><path d="M512 642.03174613c98.82412693 0 182.0444448-57.213968 223.65460267-137.8336512 2.60063467-5.20126933 5.20126933-13.0031744 5.2012704-20.80507946 0-23.40571413-18.2044448-41.61015893-41.61015894-41.61015787-15.60380907 0-31.2076192 10.40253973-36.40888853 23.40571413-26.0063488 57.213968-83.22031787 96.22349227-148.23619093 96.22349227s-122.22984107-39.00952427-148.23618987-93.6228576c-7.80190507-13.0031744-20.80507947-23.40571413-36.4088896-23.40571413-23.40571413 0-41.61015893 18.2044448-41.61015787 41.61015893 0 5.20126933 2.60063467 13.0031744 5.20126934 18.20444373C329.9555552 584.81777813 413.17587307 642.03174613 512 642.03174613z" fill="#f96518" p-id="1876"></path></svg>