<svg width="34" height="7" viewBox="0 0 34 7" fill="none" xmlns="http://www.w3.org/2000/svg">
<path d="M10.874 5.72219C10.687 5.72219 10.512 5.69659 10.352 5.64549C10.194 5.59429 10.05 5.51759 9.918 5.41529C9.79 5.30959 9.675 5.17999 9.573 5.02649L9.938 4.59169C10.099 4.83039 10.253 4.99579 10.401 5.08789C10.549 5.17999 10.724 5.22599 10.928 5.22599C11.053 5.22599 11.166 5.20559 11.268 5.16459C11.369 5.12369 11.45 5.06739 11.509 4.99579C11.568 4.92419 11.598 4.84239 11.598 4.75029C11.598 4.68889 11.588 4.63099 11.568 4.57639C11.548 4.52179 11.517 4.47239 11.474 4.42809C11.435 4.38369 11.383 4.34279 11.317 4.30529C11.255 4.26779 11.181 4.23539 11.095 4.20809C11.01 4.17739 10.911 4.15179 10.8 4.13139C10.622 4.09389 10.468 4.04439 10.337 3.98299C10.206 3.92169 10.096 3.84489 10.007 3.75289C9.918 3.66079 9.853 3.5568 9.81 3.4409C9.767 3.3215 9.746 3.18849 9.746 3.04189C9.746 2.89869 9.775 2.76569 9.835 2.64289C9.897 2.52009 9.981 2.41439 10.086 2.32579C10.194 2.23369 10.32 2.16379 10.465 2.11599C10.609 2.06489 10.765 2.03929 10.933 2.03929C11.11 2.03929 11.273 2.06319 11.42 2.11089C11.568 2.15869 11.699 2.23029 11.814 2.32579C11.929 2.41779 12.024 2.5321 12.1 2.6685L11.726 3.05209C11.66 2.93959 11.586 2.84579 11.504 2.77079C11.422 2.69229 11.332 2.63439 11.233 2.59689C11.135 2.55589 11.03 2.53549 10.918 2.53549C10.79 2.53549 10.678 2.55589 10.583 2.59689C10.488 2.63779 10.412 2.69579 10.357 2.77079C10.304 2.84239 10.278 2.92759 10.278 3.02649C10.278 3.09809 10.291 3.16459 10.317 3.22599C10.343 3.28399 10.383 3.33679 10.435 3.38459C10.491 3.42889 10.565 3.46979 10.657 3.50739C10.749 3.54149 10.859 3.5721 10.987 3.5994C11.168 3.6403 11.328 3.6932 11.47 3.758C11.611 3.8194 11.731 3.89269 11.829 3.97789C11.928 4.06319 12.001 4.15869 12.051 4.26439C12.103 4.37009 12.13 4.48429 12.13 4.60709C12.13 4.83559 12.079 5.03329 11.977 5.20039C11.875 5.36749 11.731 5.4971 11.543 5.5892C11.356 5.6778 11.133 5.72219 10.874 5.72219ZM14.208 5.72219C13.942 5.72219 13.706 5.66419 13.499 5.54829C13.295 5.42889 13.134 5.26689 13.016 5.06229C12.901 4.85769 12.844 4.62239 12.844 4.35639C12.844 4.14499 12.877 3.95239 12.942 3.77839C13.008 3.60449 13.098 3.45449 13.213 3.32829C13.331 3.19869 13.471 3.09979 13.632 3.03159C13.796 2.95999 13.973 2.92419 14.164 2.92419C14.331 2.92419 14.487 2.95829 14.631 3.02649C14.776 3.09129 14.901 3.18169 15.006 3.29759C15.114 3.41359 15.196 3.55169 15.252 3.71189C15.311 3.86879 15.339 4.04099 15.336 4.22859L15.331 4.45359H13.218L13.105 4.03419H14.892L14.819 4.12119V3.99839C14.809 3.88589 14.773 3.78529 14.71 3.69659C14.648 3.60789 14.569 3.53799 14.474 3.48689C14.379 3.43569 14.275 3.41019 14.164 3.41019C13.986 3.41019 13.837 3.44599 13.715 3.51759C13.594 3.58579 13.502 3.68809 13.44 3.82449C13.377 3.95749 13.346 4.12289 13.346 4.32059C13.346 4.50819 13.384 4.67189 13.459 4.81169C13.535 4.94809 13.642 5.05379 13.779 5.12879C13.917 5.20379 14.077 5.24139 14.257 5.24139C14.385 5.24139 14.503 5.21919 14.612 5.17489C14.723 5.13049 14.843 5.05039 14.971 4.93449L15.227 5.30789C15.149 5.38969 15.052 5.46129 14.937 5.52269C14.825 5.58409 14.705 5.63349 14.577 5.67099C14.453 5.70509 14.329 5.72219 14.208 5.72219ZM17.128 5.72219C16.915 5.72219 16.719 5.66079 16.542 5.53799C16.368 5.41529 16.228 5.24819 16.123 5.03679C16.018 4.82529 15.966 4.58659 15.966 4.32059C15.966 4.05119 16.018 3.81249 16.123 3.60449C16.232 3.39309 16.376 3.22769 16.557 3.10839C16.741 2.98899 16.946 2.92929 17.172 2.92929C17.307 2.92929 17.43 2.94979 17.542 2.99069C17.653 3.03159 17.75 3.08959 17.832 3.16459C17.918 3.23629 17.987 3.31979 18.039 3.41529C18.095 3.51079 18.129 3.61309 18.143 3.72219L18.029 3.68129V2.9856H18.542V5.67099H18.029V5.03159L18.148 4.99579C18.128 5.08789 18.087 5.17829 18.024 5.26689C17.965 5.35219 17.888 5.42889 17.793 5.49709C17.701 5.56529 17.598 5.61989 17.483 5.66079C17.371 5.70169 17.253 5.72219 17.128 5.72219ZM17.261 5.23619C17.415 5.23619 17.552 5.19699 17.67 5.11859C17.788 5.04019 17.88 4.9327 17.946 4.7963C18.015 4.6565 18.049 4.49799 18.049 4.32059C18.049 4.14669 18.015 3.99159 17.946 3.85519C17.88 3.71879 17.788 3.61139 17.67 3.53289C17.552 3.45449 17.415 3.41529 17.261 3.41529C17.11 3.41529 16.975 3.45449 16.857 3.53289C16.742 3.61139 16.65 3.71879 16.581 3.85519C16.516 3.99159 16.483 4.14669 16.483 4.32059C16.483 4.49799 16.516 4.6565 16.581 4.7963C16.65 4.9327 16.742 5.04019 16.857 5.11859C16.975 5.19699 17.11 5.23619 17.261 5.23619ZM20.855 5.72219C20.744 5.72219 20.632 5.70339 20.52 5.66589C20.412 5.62839 20.312 5.57899 20.22 5.51759C20.131 5.45279 20.056 5.38289 19.993 5.30789C19.934 5.22939 19.895 5.15099 19.875 5.07259L20.003 5.00089V5.65569H19.496V1.88589H20.003V3.5994L19.924 3.55339C19.941 3.47499 19.977 3.39989 20.033 3.32829C20.089 3.25329 20.159 3.18679 20.245 3.12879C20.333 3.06749 20.428 3.0197 20.53 2.9856C20.632 2.9481 20.735 2.92929 20.841 2.92929C21.074 2.92929 21.28 2.98899 21.461 3.10839C21.642 3.22769 21.784 3.39309 21.89 3.60449C21.995 3.81249 22.047 4.05119 22.047 4.32059C22.047 4.58999 21.995 4.83039 21.89 5.04189C21.788 5.25329 21.647 5.42039 21.466 5.54319C21.285 5.66249 21.082 5.72219 20.855 5.72219ZM20.772 5.24139C20.923 5.24139 21.057 5.2021 21.175 5.1237C21.294 5.0419 21.387 4.9327 21.456 4.7963C21.525 4.6565 21.56 4.49799 21.56 4.32059C21.56 4.14669 21.525 3.99159 21.456 3.85519C21.39 3.71539 21.299 3.60619 21.18 3.52779C21.062 3.44939 20.926 3.41019 20.772 3.41019C20.617 3.41019 20.481 3.44939 20.363 3.52779C20.245 3.60619 20.151 3.71539 20.082 3.85519C20.013 3.99159 19.979 4.14669 19.979 4.32059C19.979 4.49799 20.013 4.6565 20.082 4.7963C20.151 4.9327 20.245 5.0419 20.363 5.1237C20.481 5.2021 20.617 5.24139 20.772 5.24139ZM24.051 5.72219C23.785 5.72219 23.549 5.66419 23.342 5.54829C23.138 5.42889 22.977 5.26689 22.859 5.06229C22.744 4.85769 22.687 4.62239 22.687 4.35639C22.687 4.14499 22.72 3.95239 22.785 3.77839C22.851 3.60449 22.941 3.45449 23.056 3.32829C23.174 3.19869 23.314 3.09979 23.475 3.03159C23.639 2.95999 23.816 2.92419 24.007 2.92419C24.174 2.92419 24.33 2.95829 24.475 3.02649C24.619 3.09129 24.744 3.18169 24.849 3.29759C24.957 3.41359 25.039 3.55169 25.095 3.71189C25.154 3.86879 25.182 4.04099 25.179 4.22859L25.174 4.45359H23.061L22.948 4.03419H24.736L24.662 4.12119V3.99839C24.652 3.88589 24.616 3.78529 24.553 3.69659C24.491 3.60789 24.412 3.53799 24.317 3.48689C24.222 3.43569 24.118 3.41019 24.007 3.41019C23.829 3.41019 23.68 3.44599 23.558 3.51759C23.437 3.58579 23.345 3.68809 23.283 3.82449C23.22 3.95749 23.189 4.12289 23.189 4.32059C23.189 4.50819 23.227 4.67189 23.302 4.81169C23.378 4.94809 23.485 5.05379 23.623 5.12879C23.76 5.20379 23.92 5.24139 24.1 5.24139C24.228 5.24139 24.346 5.21919 24.455 5.17489C24.566 5.13049 24.686 5.05039 24.814 4.93449L25.07 5.30789C24.992 5.38969 24.895 5.46129 24.78 5.52269C24.668 5.58409 24.548 5.63349 24.42 5.67099C24.296 5.70509 24.172 5.72219 24.051 5.72219ZM26.296 5.67099V2.30019H26.804V5.67099H26.296ZM25.76 3.49709V2.9856H27.405V3.49709H25.76ZM28.32 5.72729C28.211 5.72729 28.127 5.69489 28.068 5.63009C28.009 5.56189 27.98 5.46639 27.98 5.34369C27.98 5.23109 28.011 5.13909 28.073 5.06739C28.136 4.99579 28.218 4.95999 28.32 4.95999C28.428 4.95999 28.512 4.99409 28.571 5.06229C28.63 5.12709 28.659 5.22089 28.659 5.34369C28.659 5.45619 28.628 5.5483 28.566 5.6199C28.503 5.6915 28.421 5.72729 28.32 5.72729ZM29.563 5.67099V2.9856H30.071V5.67099H29.563ZM29.81 2.3923C29.701 2.3923 29.617 2.36329 29.558 2.30529C29.499 2.24729 29.47 2.16549 29.47 2.05979C29.47 1.96089 29.499 1.88069 29.558 1.81939C29.621 1.75799 29.704 1.72729 29.81 1.72729C29.918 1.72729 30.002 1.75629 30.061 1.81429C30.12 1.87219 30.149 1.95409 30.149 2.05979C30.149 2.15869 30.118 2.23879 30.056 2.30019C29.997 2.36159 29.915 2.3923 29.81 2.3923ZM32.259 5.72219C32.006 5.72219 31.779 5.66249 31.579 5.54319C31.382 5.42039 31.226 5.25499 31.111 5.04699C30.996 4.83559 30.939 4.59519 30.939 4.32579C30.939 4.05639 30.996 3.8177 31.111 3.6097C31.226 3.3982 31.382 3.23279 31.579 3.11349C31.779 2.99069 32.006 2.92929 32.259 2.92929C32.508 2.92929 32.731 2.99069 32.928 3.11349C33.129 3.23279 33.286 3.3982 33.401 3.6097C33.516 3.8177 33.573 4.05639 33.573 4.32579C33.573 4.59519 33.516 4.83559 33.401 5.04699C33.286 5.25499 33.129 5.42039 32.928 5.54319C32.731 5.66249 32.508 5.72219 32.259 5.72219ZM32.259 5.24139C32.413 5.24139 32.551 5.2021 32.672 5.1237C32.794 5.0419 32.889 4.9327 32.958 4.7963C33.027 4.6565 33.06 4.49969 33.056 4.32579C33.06 4.14839 33.027 3.99159 32.958 3.85519C32.889 3.71539 32.794 3.60619 32.672 3.52779C32.551 3.44939 32.413 3.41019 32.259 3.41019C32.104 3.41019 31.965 3.45109 31.84 3.53289C31.718 3.61139 31.623 3.72049 31.554 3.86029C31.485 3.99669 31.452 4.15179 31.456 4.32579C31.452 4.49969 31.485 4.6565 31.554 4.7963C31.623 4.9327 31.718 5.0419 31.84 5.1237C31.965 5.2021 32.104 5.24139 32.259 5.24139Z" fill="#FDFDFD"/>
<path d="M3.92 6.3693C5.532 6.3693 6.84 5.1674 6.84 3.6846C6.84 2.202 5.532 1 3.92 1C2.307 1 1 2.202 1 3.6846C1 5.1674 2.307 6.3693 3.92 6.3693Z" stroke="url(#paint0_linear_1736_839)" stroke-width="0.3" stroke-miterlimit="10"/>
<path d="M6.213 4.36539C6.676 3.06099 6.32301 1.78569 5.42701 1.51699C4.53001 1.24829 3.42801 2.08789 2.96601 3.39239C2.50401 4.69689 2.85601 5.97219 3.75201 6.24079C4.64901 6.50949 5.751 5.66989 6.213 4.36539Z" stroke="url(#paint1_linear_1736_839)" stroke-width="0.3" stroke-miterlimit="10"/>
<path d="M4.51796 4.93534C5.98396 4.41734 6.96296 3.49744 6.70496 2.88064C6.44796 2.26384 5.04996 2.18374 3.58396 2.70174C2.11796 3.21974 1.13896 4.13964 1.39696 4.75644C1.65396 5.37324 3.05196 5.45334 4.51796 4.93534Z" stroke="url(#paint2_linear_1736_839)" stroke-width="0.3" stroke-miterlimit="10"/>
<path d="M6.29697 5.1912C6.83197 4.4232 6.20198 3.1737 4.88898 2.4003C3.57498 1.627 2.07698 1.62271 1.54198 2.39071C1.00698 3.15881 1.63797 4.40831 2.95097 5.18161C4.26397 5.95501 5.76197 5.9593 6.29697 5.1912Z" stroke="url(#paint3_linear_1736_839)" stroke-width="0.3" stroke-miterlimit="10"/>
<defs>
<linearGradient id="paint0_linear_1736_839" x1="6.735" y1="5.1746" x2="2.045" y2="2.1326" gradientUnits="userSpaceOnUse">
<stop stop-color="#FFD527" stop-opacity="0.752054"/>
<stop offset="0.349005" stop-color="#FFCC00"/>
<stop offset="0.651042" stop-color="#FFCD00" stop-opacity="0.536038"/>
<stop offset="1" stop-color="#E3C136" stop-opacity="0"/>
</linearGradient>
<linearGradient id="paint1_linear_1736_839" x1="3.47401" y1="1.92309" x2="5.96501" y2="5.01489" gradientUnits="userSpaceOnUse">
<stop stop-color="#FFD600"/>
<stop offset="0.223958" stop-color="#FFED93" stop-opacity="0.776042"/>
<stop offset="1" stop-color="#FFCE09" stop-opacity="0"/>
</linearGradient>
<linearGradient id="paint2_linear_1736_839" x1="5.42296" y1="1.97304" x2="5.19296" y2="4.43994" gradientUnits="userSpaceOnUse">
<stop stop-color="#FFCC00"/>
<stop offset="1" stop-color="#FFCE09" stop-opacity="0"/>
</linearGradient>
<linearGradient id="paint3_linear_1736_839" x1="0.810976" y1="4.122" x2="9.60397" y2="3.17301" gradientUnits="userSpaceOnUse">
<stop stop-color="#FFD600"/>
<stop offset="0.317708" stop-color="#FFD52D" stop-opacity="0.65"/>
<stop offset="1" stop-color="#FFCC00" stop-opacity="0.3"/>
</linearGradient>
</defs>
</svg>
