<?xml version="1.0" standalone="no"?><!DOCTYPE svg PUBLIC "-//W3C//DTD SVG 1.1//EN" "http://www.w3.org/Graphics/SVG/1.1/DTD/svg11.dtd"><svg t="1727537763437" class="icon" viewBox="0 0 1024 1024" version="1.1" xmlns="http://www.w3.org/2000/svg" p-id="9144" xmlns:xlink="http://www.w3.org/1999/xlink" width="200" height="200"><path d="M170.666667 614.4C170.666667 425.8816 323.4816 273.066667 512 273.066667h204.8a136.533333 136.533333 0 0 1 136.533333 136.533333v238.933333c0 188.5184-152.814933 341.333333-341.333333 341.333334H307.2a136.533333 136.533333 0 0 1-136.533333-136.533334v-238.933333z" fill="#ff5f00" p-id="9145" data-spm-anchor-id="a313x.search_index.0.i9.144b3a81AD8krY" class="selected"></path><path d="M375.466667 170.666667a136.533333 136.533333 0 0 1 136.533333-136.533334h238.933333a34.133333 34.133333 0 0 1 34.133334 34.133334v34.133333a136.533333 136.533333 0 0 1-136.533334 136.533333h-238.933333a34.133333 34.133333 0 0 1-34.133333-34.133333V170.666667z" fill="#FFAA44" p-id="9146"></path></svg>