<svg width="118" height="22" viewBox="0 0 118 22" fill="none" xmlns="http://www.w3.org/2000/svg">
<path d="M34.2144 17.18C33.5304 17.18 32.8944 17.09 32.3064 16.91C31.7304 16.73 31.2024 16.4599 30.7224 16.0999C30.2544 15.7279 29.8344 15.2719 29.4624 14.7319L30.7944 13.202C31.3824 14.042 31.9464 14.6239 32.4864 14.9479C33.0264 15.2719 33.6684 15.4339 34.4124 15.4339C34.8684 15.4339 35.2824 15.3619 35.6544 15.2179C36.0264 15.0739 36.3204 14.876 36.5364 14.624C36.7524 14.372 36.8604 14.0839 36.8604 13.7599C36.8604 13.5439 36.8244 13.3399 36.7524 13.1479C36.6804 12.9559 36.5664 12.7819 36.4104 12.6259C36.2664 12.4699 36.0744 12.326 35.8344 12.194C35.6064 12.062 35.3364 11.9479 35.0244 11.8519C34.7124 11.7439 34.3524 11.654 33.9444 11.582C33.2964 11.45 32.7324 11.2759 32.2524 11.0599C31.7724 10.8439 31.3704 10.574 31.0464 10.25C30.7224 9.92595 30.4824 9.55995 30.3264 9.15195C30.1704 8.73195 30.0924 8.26395 30.0924 7.74795C30.0924 7.24395 30.2004 6.77595 30.4164 6.34395C30.6444 5.91195 30.9504 5.53995 31.3344 5.22795C31.7304 4.90395 32.1924 4.65795 32.7204 4.48995C33.2484 4.30995 33.8184 4.21995 34.4304 4.21995C35.0784 4.21995 35.6724 4.30395 36.2124 4.47195C36.7524 4.63995 37.2324 4.89195 37.6524 5.22795C38.0724 5.55195 38.4204 5.95395 38.6964 6.43395L37.3284 7.78395C37.0884 7.38795 36.8184 7.05795 36.5184 6.79395C36.2184 6.51795 35.8884 6.31395 35.5284 6.18195C35.1684 6.03795 34.7844 5.96595 34.3764 5.96595C33.9084 5.96595 33.5004 6.03795 33.1524 6.18195C32.8044 6.32595 32.5284 6.52995 32.3244 6.79395C32.1324 7.04595 32.0364 7.34595 32.0364 7.69395C32.0364 7.94595 32.0844 8.17995 32.1804 8.39595C32.2764 8.59995 32.4204 8.78595 32.6124 8.95395C32.8164 9.10995 33.0864 9.25395 33.4224 9.38595C33.7584 9.50595 34.1604 9.61395 34.6284 9.70995C35.2884 9.85395 35.8764 10.0399 36.3924 10.2679C36.9084 10.4839 37.3464 10.742 37.7064 11.042C38.0664 11.342 38.3364 11.6779 38.5164 12.0499C38.7084 12.4219 38.8044 12.824 38.8044 13.256C38.8044 14.06 38.6184 14.7559 38.2464 15.3439C37.8744 15.9319 37.3464 16.3879 36.6624 16.7119C35.9784 17.0239 35.1624 17.18 34.2144 17.18ZM46.4008 17.18C45.4288 17.18 44.5648 16.976 43.8088 16.568C43.0648 16.148 42.4768 15.5779 42.0448 14.8579C41.6248 14.1379 41.4148 13.31 41.4148 12.374C41.4148 11.63 41.5348 10.952 41.7748 10.34C42.0148 9.72795 42.3448 9.19995 42.7648 8.75595C43.1968 8.29995 43.7068 7.95195 44.2948 7.71195C44.8948 7.45995 45.5428 7.33395 46.2388 7.33395C46.8508 7.33395 47.4208 7.45395 47.9488 7.69395C48.4768 7.92195 48.9328 8.23995 49.3168 8.64795C49.7128 9.05595 50.0128 9.54195 50.2168 10.1059C50.4328 10.6579 50.5348 11.264 50.5228 11.924L50.5048 12.716H42.7828L42.3688 11.2399H48.9028L48.6328 11.5459V11.1139C48.5968 10.7179 48.4648 10.3639 48.2368 10.0519C48.0088 9.73995 47.7208 9.49395 47.3728 9.31395C47.0248 9.13395 46.6468 9.04395 46.2388 9.04395C45.5908 9.04395 45.0448 9.16995 44.6008 9.42195C44.1568 9.66195 43.8208 10.0219 43.5928 10.5019C43.3648 10.9699 43.2508 11.5519 43.2508 12.2479C43.2508 12.9079 43.3888 13.4839 43.6648 13.9759C43.9408 14.4559 44.3308 14.8279 44.8348 15.0919C45.3388 15.3559 45.9208 15.4879 46.5808 15.4879C47.0488 15.4879 47.4808 15.4099 47.8768 15.2539C48.2848 15.0979 48.7228 14.816 49.1908 14.408L50.1268 15.722C49.8388 16.01 49.4848 16.262 49.0648 16.478C48.6568 16.694 48.2188 16.868 47.7508 17C47.2948 17.12 46.8448 17.18 46.4008 17.18ZM57.0737 17.18C56.2937 17.18 55.5797 16.9639 54.9317 16.5319C54.2957 16.0999 53.7857 15.5119 53.4017 14.7679C53.0177 14.0239 52.8257 13.1839 52.8257 12.2479C52.8257 11.2999 53.0177 10.46 53.4017 9.72795C53.7977 8.98395 54.3257 8.40195 54.9857 7.98195C55.6577 7.56195 56.4077 7.35195 57.2357 7.35195C57.7277 7.35195 58.1777 7.42395 58.5857 7.56795C58.9937 7.71195 59.3477 7.91595 59.6477 8.17995C59.9597 8.43195 60.2117 8.72595 60.4037 9.06195C60.6077 9.39795 60.7337 9.75795 60.7817 10.1419L60.3677 9.99795V7.54995H62.2397V17H60.3677V14.75L60.7997 14.624C60.7277 14.948 60.5777 15.2659 60.3497 15.5779C60.1337 15.8779 59.8517 16.148 59.5037 16.388C59.1677 16.628 58.7897 16.82 58.3697 16.964C57.9617 17.108 57.5297 17.18 57.0737 17.18ZM57.5597 15.4699C58.1237 15.4699 58.6217 15.332 59.0537 15.056C59.4857 14.78 59.8217 14.402 60.0617 13.922C60.3137 13.43 60.4397 12.8719 60.4397 12.2479C60.4397 11.6359 60.3137 11.09 60.0617 10.61C59.8217 10.13 59.4857 9.75195 59.0537 9.47595C58.6217 9.19995 58.1237 9.06195 57.5597 9.06195C57.0077 9.06195 56.5157 9.19995 56.0837 9.47595C55.6637 9.75195 55.3277 10.13 55.0757 10.61C54.8357 11.09 54.7157 11.6359 54.7157 12.2479C54.7157 12.8719 54.8357 13.43 55.0757 13.922C55.3277 14.402 55.6637 14.78 56.0837 15.056C56.5157 15.332 57.0077 15.4699 57.5597 15.4699ZM70.696 17.18C70.288 17.18 69.88 17.1139 69.472 16.9819C69.076 16.8499 68.71 16.6759 68.3743 16.4599C68.0503 16.2319 67.7743 15.986 67.5463 15.722C67.3303 15.446 67.1863 15.17 67.1143 14.894L67.5823 14.6419V16.9459H65.7283V3.67995H67.5823V9.70995L67.2943 9.54795C67.3543 9.27195 67.4863 9.00795 67.6903 8.75595C67.8943 8.49195 68.1523 8.25795 68.4643 8.05395C68.788 7.83795 69.136 7.66995 69.508 7.54995C69.88 7.41795 70.258 7.35195 70.642 7.35195C71.494 7.35195 72.25 7.56195 72.91 7.98195C73.57 8.40195 74.092 8.98395 74.476 9.72795C74.86 10.46 75.052 11.2999 75.052 12.2479C75.052 13.1959 74.86 14.0419 74.476 14.7859C74.104 15.5299 73.588 16.1179 72.928 16.5499C72.268 16.9699 71.524 17.18 70.696 17.18ZM70.39 15.4879C70.942 15.4879 71.434 15.3499 71.866 15.0739C72.298 14.7859 72.64 14.402 72.892 13.922C73.144 13.43 73.27 12.8719 73.27 12.2479C73.27 11.6359 73.144 11.09 72.892 10.61C72.652 10.118 72.316 9.73395 71.884 9.45795C71.452 9.18195 70.954 9.04395 70.39 9.04395C69.826 9.04395 69.328 9.18195 68.896 9.45795C68.4643 9.73395 68.1223 10.118 67.8703 10.61C67.6183 11.09 67.4923 11.6359 67.4923 12.2479C67.4923 12.8719 67.6183 13.43 67.8703 13.922C68.1223 14.402 68.4643 14.7859 68.896 15.0739C69.328 15.3499 69.826 15.4879 70.39 15.4879ZM82.376 17.18C81.404 17.18 80.54 16.976 79.784 16.568C79.04 16.148 78.452 15.5779 78.02 14.8579C77.6 14.1379 77.39 13.31 77.39 12.374C77.39 11.63 77.51 10.952 77.75 10.34C77.99 9.72795 78.32 9.19995 78.74 8.75595C79.172 8.29995 79.682 7.95195 80.27 7.71195C80.87 7.45995 81.518 7.33395 82.214 7.33395C82.826 7.33395 83.396 7.45395 83.924 7.69395C84.452 7.92195 84.908 8.23995 85.292 8.64795C85.688 9.05595 85.988 9.54195 86.192 10.1059C86.408 10.6579 86.51 11.264 86.498 11.924L86.48 12.716H78.758L78.344 11.2399H84.878L84.608 11.5459V11.1139C84.572 10.7179 84.44 10.3639 84.212 10.0519C83.984 9.73995 83.696 9.49395 83.348 9.31395C83 9.13395 82.622 9.04395 82.214 9.04395C81.566 9.04395 81.02 9.16995 80.576 9.42195C80.132 9.66195 79.796 10.0219 79.568 10.5019C79.34 10.9699 79.226 11.5519 79.226 12.2479C79.226 12.9079 79.364 13.4839 79.64 13.9759C79.916 14.4559 80.306 14.8279 80.81 15.0919C81.314 15.3559 81.896 15.4879 82.556 15.4879C83.024 15.4879 83.456 15.4099 83.852 15.2539C84.26 15.0979 84.698 14.816 85.166 14.408L86.102 15.722C85.814 16.01 85.46 16.262 85.04 16.478C84.632 16.694 84.194 16.868 83.726 17C83.27 17.12 82.82 17.18 82.376 17.18ZM90.583 17V5.13795H92.437V17H90.583ZM88.621 9.34995V7.54995H94.633V9.34995H88.621ZM97.977 17.1979C97.581 17.1979 97.275 17.0839 97.059 16.8559C96.843 16.6159 96.735 16.2799 96.735 15.8479C96.735 15.4519 96.849 15.1279 97.077 14.8759C97.305 14.6239 97.605 14.4979 97.977 14.4979C98.373 14.4979 98.679 14.6179 98.895 14.8579C99.111 15.0859 99.219 15.4159 99.219 15.8479C99.219 16.2439 99.105 16.568 98.877 16.82C98.649 17.072 98.349 17.1979 97.977 17.1979ZM102.523 17V7.54995H104.377V17H102.523ZM103.423 5.46195C103.027 5.46195 102.721 5.35995 102.505 5.15595C102.289 4.95195 102.181 4.66395 102.181 4.29195C102.181 3.94395 102.289 3.66195 102.505 3.44595C102.733 3.22995 103.039 3.12195 103.423 3.12195C103.819 3.12195 104.125 3.22395 104.341 3.42795C104.557 3.63195 104.665 3.91995 104.665 4.29195C104.665 4.63995 104.551 4.92195 104.323 5.13795C104.107 5.35395 103.807 5.46195 103.423 5.46195ZM112.374 17.18C111.45 17.18 110.622 16.9699 109.89 16.5499C109.17 16.1179 108.6 15.536 108.18 14.804C107.76 14.06 107.55 13.2139 107.55 12.2659C107.55 11.3179 107.76 10.4779 108.18 9.74595C108.6 9.00195 109.17 8.41995 109.89 7.99995C110.622 7.56795 111.45 7.35195 112.374 7.35195C113.286 7.35195 114.102 7.56795 114.822 7.99995C115.554 8.41995 116.13 9.00195 116.55 9.74595C116.97 10.4779 117.18 11.3179 117.18 12.2659C117.18 13.2139 116.97 14.06 116.55 14.804C116.13 15.536 115.554 16.1179 114.822 16.5499C114.102 16.9699 113.286 17.18 112.374 17.18ZM112.374 15.4879C112.938 15.4879 113.442 15.3499 113.886 15.0739C114.33 14.7859 114.678 14.402 114.93 13.922C115.182 13.43 115.302 12.8779 115.29 12.2659C115.302 11.6419 115.182 11.09 114.93 10.61C114.678 10.118 114.33 9.73395 113.886 9.45795C113.442 9.18195 112.938 9.04395 112.374 9.04395C111.81 9.04395 111.3 9.18795 110.844 9.47595C110.4 9.75195 110.052 10.1359 109.8 10.6279C109.548 11.1079 109.428 11.6539 109.44 12.2659C109.428 12.8779 109.548 13.43 109.8 13.922C110.052 14.402 110.4 14.7859 110.844 15.0739C111.3 15.3499 111.81 15.4879 112.374 15.4879Z" fill="black"/>
<path d="M10.8437 20.6875C16.2803 20.6875 20.6875 16.2803 20.6875 10.8437C20.6875 5.4072 16.2803 1 10.8437 1C5.4072 1 1 5.4072 1 10.8437C1 16.2803 5.4072 20.6875 10.8437 20.6875Z" stroke="url(#paint0_linear_1736_833)" stroke-width="1.3" stroke-miterlimit="10"/>
<path d="M18.5759 13.3398C20.1346 8.55679 18.9474 3.88068 15.9241 2.89548C12.9008 1.91028 9.18645 4.98898 7.62765 9.77198C6.06895 14.555 7.25624 19.2311 10.2795 20.2163C13.3028 21.2015 17.0172 18.1228 18.5759 13.3398Z" stroke="url(#paint1_linear_1736_833)" stroke-width="1.3" stroke-miterlimit="10"/>
<path d="M12.86 15.4294C17.8025 13.5301 21.1047 10.1572 20.2357 7.8956C19.3667 5.6341 14.6555 5.3404 9.713 7.2396C4.7705 9.1389 1.4682 12.5118 2.3373 14.7734C3.2063 17.0349 7.9175 17.3286 12.86 15.4294Z" stroke="url(#paint2_linear_1736_833)" stroke-width="1.3" stroke-miterlimit="10"/>
<path d="M18.8598 16.3676C20.6636 13.5515 18.537 8.96989 14.11 6.13429C9.68291 3.29879 4.63191 3.283 2.82811 6.0992C1.02441 8.9153 3.15091 13.4969 7.57801 16.3325C12.005 19.168 17.056 19.1838 18.8598 16.3676Z" stroke="url(#paint3_linear_1736_833)" stroke-width="1.3" stroke-miterlimit="10"/>
<defs>
<linearGradient id="paint0_linear_1736_833" x1="20.3351" y1="16.307" x2="3.766" y2="6.4246" gradientUnits="userSpaceOnUse">
<stop stop-color="#FFD527" stop-opacity="0.752054"/>
<stop offset="0.349005" stop-color="#FFCC00"/>
<stop offset="0.651042" stop-color="#FFCD00" stop-opacity="0.536038"/>
<stop offset="1" stop-color="#E3C136" stop-opacity="0"/>
</linearGradient>
<linearGradient id="paint1_linear_1736_833" x1="9.34135" y1="4.38448" x2="18.6081" y2="14.9601" gradientUnits="userSpaceOnUse">
<stop stop-color="#FFD600"/>
<stop offset="0.223958" stop-color="#FFED93" stop-opacity="0.776042"/>
<stop offset="1" stop-color="#FFCE09" stop-opacity="0"/>
</linearGradient>
<linearGradient id="paint2_linear_1736_833" x1="15.9118" y1="4.5677" x2="14.9956" y2="13.5988" gradientUnits="userSpaceOnUse">
<stop stop-color="#FFCC00"/>
<stop offset="1" stop-color="#FFCE09" stop-opacity="0"/>
</linearGradient>
<linearGradient id="paint3_linear_1736_833" x1="0.362614" y1="12.4471" x2="30.062" y2="9.5" gradientUnits="userSpaceOnUse">
<stop stop-color="#FFD600"/>
<stop offset="0.317708" stop-color="#FFD52D" stop-opacity="0.65"/>
<stop offset="1" stop-color="#FFCC00" stop-opacity="0.3"/>
</linearGradient>
</defs>
</svg>
