<?xml version="1.0" standalone="no"?><!DOCTYPE svg PUBLIC "-//W3C//DTD SVG 1.1//EN" "http://www.w3.org/Graphics/SVG/1.1/DTD/svg11.dtd"><svg t="1739088833426" class="icon" viewBox="0 0 1024 1024" version="1.1" xmlns="http://www.w3.org/2000/svg" p-id="8271" xmlns:xlink="http://www.w3.org/1999/xlink" width="256" height="256"><path d="M830.71996453 305.33825977c10.68940046-35.63133436 21.37880093-71.26266873 24.94193389-110.45713683 24.94193391 0 46.32073482 21.37880093 42.75760108 49.88386856v99.76773638c0 74.82580248-60.57326826 135.39907073-135.39907072 135.39907072-10.68940046 117.58340355-103.33087012 213.78800694-220.91427368 228.04054116v99.76773637h85.51520294c28.50506765 0 49.88386857 21.37880093 49.88386781 49.8838678v35.63133513c0 7.12626672-7.12626672 10.68940046-10.68940047 10.68939969H349.69694909c-7.12626672 0-10.68940046-7.12626672-10.68940047-10.68939969v-35.63133513c0-28.50506765 21.37880093-49.88386857 49.88386857-49.8838678H474.40661937v-99.76773637c-35.63133436-3.56313375-71.26266873-17.81566717-99.76773638-35.63133436 10.68940046 7.12626672 21.37880093 10.68940046 32.06820139 17.81566717 163.90413837-42.75760108 302.86634285-149.65160493 381.2552783-285.05067565h-3.56313299c10.68940046-3.56313375 21.37880093-7.12626672 28.50506766-17.81566719 10.68940046-10.68940046 17.81566717-28.50506765 17.81566718-42.75760185V305.33825977z" fill="#F6721A" p-id="8272"></path><path d="M720.2628277 123.61845422c24.94193391 0 46.32073482 21.37880093 49.88386779 42.75760185V194.88112294h85.51520293c-3.56313375 39.1944681-14.25253344 74.82580248-24.94193389 110.45713683v-35.63133435h-60.57326904v135.3990715c7.12626672 0 10.68940046 0 17.81566719-3.56313375-78.38893544 138.96220447-217.35113992 242.29307459-381.2552783 285.05067566-49.88386857-21.37880093-89.0783359-57.01013528-117.58340433-103.3308701l7.1262675 10.68940045c74.82580248-28.50506765 138.96220447-67.69953575 195.97233899-117.58340354l24.94193467-14.25253421 46.32073482 24.94193467h7.12626672c3.56313375 0 3.56313375 0 7.12626672-3.56313375s3.56313375-7.12626672 3.56313374-10.68940045v-3.56313298l-10.68940046-57.01013529L609.80569086 373.03779553c3.56313375-3.56313375 3.56313375-7.12626672 3.56313297-10.68940046-3.56313375-3.56313375-3.56313375-7.12626672-7.12626671-7.12626673h-3.56313375l-14.25253344-3.56313374c42.75760108-71.26266873 71.26266873-149.65160493 78.38893545-235.1668071l53.44700232 7.12626672z" fill="#FF9234" p-id="8273"></path><path d="M666.81582538 123.61845422c-7.12626672 85.51520293-32.0682014 163.90413837-78.38893544 235.16680787l-39.19446812-7.12626749-24.94193389-49.88386779c-3.56313375-3.56313375-7.12626672-7.12626672-10.68940046-7.12626674-3.56313375 0-7.12626672 0-10.68940047 3.56313299V301.77512681l-24.94193389 49.88386779-49.88386858 10.68940046c-3.56313375 0-7.12626672 3.56313375-10.68939968 7.12626672v14.25253422l39.19446733 39.1944681-7.12626672 53.44700155c0 3.56313375 0 10.68940046 3.56313374 10.68940045 3.56313375 3.56313375 7.12626672 3.56313375 10.68940047 3.56313298h3.56313297l21.37880093-10.68940048C435.21215202 526.25253344 367.51261627 569.01013528 296.24994755 593.95206919c-21.37880093-32.0682014-35.63133436-67.69953575-39.19446811-103.33087012V479.9317986c-21.37880093 0-39.1944681-3.56313375-57.01013529-10.68939968l7.12626672 3.56313298C339.00754862 405.10599691 431.64901828 273.27005916 431.64901828 123.61845422h235.16680709z" fill="#F7B500" p-id="8274"></path><path d="M431.64901828 123.61845422c0 149.65160493-92.64146965 281.48754192-228.04054038 345.6239447C153.72460933 451.42673174 118.09327497 401.54286317 118.09327497 344.53272789V248.32812525c0-28.50506765 21.37880093-49.88386857 49.88386857-49.88386857h85.51520216v-24.9419339C253.4923457 144.99725515 274.87114662 123.61845422 303.37621427 123.61845422h128.27280401z m-178.15667258 146.0884712H192.91907744v71.26266949c0 17.81566717 7.12626672 32.0682014 17.81566718 42.75760109 10.68940046 10.68940046 28.50506765 17.81566717 42.75760108 17.81566717V269.70692541z" fill="#FFD259" p-id="8275"></path></svg>