<svg width="256" height="256" viewBox="0 0 256 256" fill="none" xmlns="http://www.w3.org/2000/svg">
<path d="M224.05 55.1534L224.057 55.1533C225.283 55.1367 226.5 55.3639 227.637 55.8216C228.774 56.2793 229.81 56.9585 230.682 57.8196C231.555 58.6808 232.248 59.7067 232.721 60.8379C233.194 61.9691 233.438 63.183 233.438 64.4091V91.04C233.438 111.085 218.338 127.619 198.81 129.963L198.465 130.004L198.383 130.341C194.995 144.239 187.523 156.805 176.929 166.418C166.336 176.032 153.106 182.253 138.945 184.28L138.516 184.342V184.775V206.265V206.765H139.016H176.984C179.474 206.765 181.862 207.754 183.622 209.514C185.383 211.275 186.372 213.663 186.372 216.152C186.372 218.642 185.383 221.03 183.622 222.79C181.862 224.551 179.474 225.54 176.984 225.54H81.1396C78.6499 225.54 76.2621 224.551 74.5015 222.79C72.741 221.03 71.752 218.642 71.752 216.152C71.752 213.663 72.741 211.275 74.5015 209.514C76.2621 207.754 78.6499 206.765 81.1396 206.765H119.24H119.74V206.265V184.907V184.471L119.308 184.412C105.058 182.467 91.7217 176.284 81.0293 166.665C70.3369 157.047 62.782 144.437 59.3449 130.471L59.2603 130.128L58.9082 130.093C38.991 128.141 23.5 111.347 23.5 91.04V64.4092C23.4999 63.183 23.7434 61.9691 24.2163 60.8379C24.6893 59.7067 25.3823 58.6808 26.255 57.8196C27.1278 56.9585 28.163 56.2793 29.3005 55.8216C30.4379 55.3639 31.655 55.1367 32.8809 55.1533L32.8809 55.1533H32.8877H56.75H57.25V54.6533V39.8877C57.25 34.6311 61.5042 30.5 66.6377 30.5H191.091C196.347 30.5 200.479 34.7542 200.479 39.8877V54.6533V55.1533H200.979L224.05 55.1534ZM56.601 110.634L56.6738 110.656H56.75H56.8818H57.3818V110.156V74.2969V73.7969H56.8818H42.7754H42.2754V74.2969V91.0385C42.2508 95.4078 43.6292 99.6696 46.2078 103.197C48.7866 106.725 52.4297 109.331 56.601 110.634ZM200.479 109.893V110.601L201.146 110.364C209.117 107.527 214.794 99.9597 214.794 91.04V74.2969V73.7969H214.294H200.979H200.479V74.2969V109.893Z" fill="url(#paint0_radial_9_1045)" stroke="url(#paint1_linear_9_1045)"/>
<mask id="path-2-inside-1_9_1045" fill="white">
<path fill-rule="evenodd" clip-rule="evenodd" d="M210.017 74.2969C211.007 68.789 211.5 63.3278 211.5 58C211.5 56.876 211.47 55.7604 211.409 54.6533H200.979V39.8877C200.979 34.4824 196.628 30 191.091 30H66.6377C61.2324 30 56.75 34.3506 56.75 39.8877V54.6533H32.8877C31.5955 54.6359 30.3127 54.8753 29.1138 55.3578C27.9149 55.8402 26.8238 56.5561 25.9039 57.4637C24.984 58.3714 24.2535 59.4528 23.755 60.6451C23.2565 61.8374 22.9999 63.1169 23 64.4092V91.04C23 111.606 38.6885 128.613 58.8594 130.591C62.3204 144.653 69.928 157.351 80.6949 167.037C82.3053 168.486 83.9754 169.857 85.6991 171.148C145.749 167.734 183.865 136.748 200.979 101.684V74.2969H210.017ZM56.75 110.156C52.6809 108.886 49.1271 106.343 46.6114 102.902C44.0957 99.4606 42.7511 95.3027 42.7754 91.04V74.2969H56.8818V110.156H56.75Z"/>
</mask>
<path fill-rule="evenodd" clip-rule="evenodd" d="M210.017 74.2969C211.007 68.789 211.5 63.3278 211.5 58C211.5 56.876 211.47 55.7604 211.409 54.6533H200.979V39.8877C200.979 34.4824 196.628 30 191.091 30H66.6377C61.2324 30 56.75 34.3506 56.75 39.8877V54.6533H32.8877C31.5955 54.6359 30.3127 54.8753 29.1138 55.3578C27.9149 55.8402 26.8238 56.5561 25.9039 57.4637C24.984 58.3714 24.2535 59.4528 23.755 60.6451C23.2565 61.8374 22.9999 63.1169 23 64.4092V91.04C23 111.606 38.6885 128.613 58.8594 130.591C62.3204 144.653 69.928 157.351 80.6949 167.037C82.3053 168.486 83.9754 169.857 85.6991 171.148C145.749 167.734 183.865 136.748 200.979 101.684V74.2969H210.017ZM56.75 110.156C52.6809 108.886 49.1271 106.343 46.6114 102.902C44.0957 99.4606 42.7511 95.3027 42.7754 91.04V74.2969H56.8818V110.156H56.75Z" fill="url(#paint2_radial_9_1045)"/>
<path d="M210.017 74.2969V75.2969H210.853L211.001 74.4738L210.017 74.2969ZM211.409 54.6533L212.408 54.599L212.357 53.6533H211.409V54.6533ZM200.979 54.6533H199.979V55.6533H200.979V54.6533ZM56.75 54.6533V55.6533H57.75V54.6533H56.75ZM32.8877 54.6533L32.8742 55.6533H32.8877V54.6533ZM25.9039 57.4637L25.2015 56.7519L25.2015 56.7519L25.9039 57.4637ZM23.755 60.6451L24.6776 61.0308L24.6776 61.0308L23.755 60.6451ZM23 64.4092L24 64.4092L24 64.4091L23 64.4092ZM58.8594 130.591L59.8304 130.352L59.6613 129.665L58.957 129.596L58.8594 130.591ZM80.6949 167.037L81.3637 166.293L81.3637 166.293L80.6949 167.037ZM85.6991 171.148L85.0996 171.948L85.3916 172.167L85.7559 172.146L85.6991 171.148ZM200.979 101.684L201.877 102.122L201.979 101.915V101.684H200.979ZM200.979 74.2969V73.2969H199.979V74.2969H200.979ZM56.75 110.156L56.452 111.111L56.5975 111.156H56.75V110.156ZM42.7754 91.04L43.7754 91.0457V91.04H42.7754ZM42.7754 74.2969V73.2969H41.7754V74.2969H42.7754ZM56.8818 74.2969H57.8818V73.2969H56.8818V74.2969ZM56.8818 110.156V111.156H57.8818V110.156H56.8818ZM210.5 58C210.5 63.2662 210.012 68.6683 209.032 74.12L211.001 74.4738C212.001 68.9098 212.5 63.3893 212.5 58H210.5ZM210.411 54.7076C210.47 55.7966 210.5 56.894 210.5 58H212.5C212.5 56.858 212.469 55.7243 212.408 54.599L210.411 54.7076ZM200.979 55.6533H211.409V53.6533H200.979V55.6533ZM199.979 39.8877V54.6533H201.979V39.8877H199.979ZM191.091 31C196.067 31 199.979 35.026 199.979 39.8877H201.979C201.979 33.9388 197.189 29 191.091 29V31ZM66.6377 31H191.091V29H66.6377V31ZM57.75 39.8877C57.75 34.9115 61.776 31 66.6377 31V29C60.6888 29 55.75 33.7896 55.75 39.8877H57.75ZM57.75 54.6533V39.8877H55.75V54.6533H57.75ZM32.8877 55.6533H56.75V53.6533H32.8877V55.6533ZM29.4871 56.2855C30.5631 55.8525 31.7144 55.6376 32.8742 55.6532L32.9012 53.6534C31.4765 53.6342 30.0623 53.8982 28.7405 54.4301L29.4871 56.2855ZM26.6062 58.1756C27.4319 57.3609 28.4111 56.7185 29.4871 56.2855L28.7405 54.4301C27.4187 54.962 26.2158 55.7512 25.2015 56.7519L26.6062 58.1756ZM24.6776 61.0308C25.125 59.9607 25.7806 58.9902 26.6062 58.1756L25.2015 56.7519C24.1873 57.7526 23.382 58.9448 22.8324 60.2593L24.6776 61.0308ZM24 64.4091C23.9999 63.2492 24.2302 62.1009 24.6776 61.0308L22.8324 60.2593C22.2828 61.5739 21.9999 62.9845 22 64.4093L24 64.4091ZM24 91.04V64.4092H22V91.04H24ZM58.957 129.596C39.2935 127.668 24 111.087 24 91.04H22C22 112.126 38.0835 129.559 58.7618 131.586L58.957 129.596ZM81.3637 166.293C70.7458 156.742 63.2435 144.22 59.8304 130.352L57.8884 130.83C61.3973 145.087 69.1101 157.961 80.0261 167.78L81.3637 166.293ZM86.2986 170.348C84.5987 169.074 82.9518 167.722 81.3637 166.293L80.0261 167.78C81.6588 169.249 83.352 170.639 85.0996 171.948L86.2986 170.348ZM200.08 101.245C183.13 135.975 145.342 166.756 85.6424 170.15L85.7559 172.146C146.156 168.713 184.601 137.522 201.877 102.122L200.08 101.245ZM199.979 74.2969V101.684H201.979V74.2969H199.979ZM210.017 73.2969H200.979V75.2969H210.017V73.2969ZM45.8041 103.492C48.4462 107.106 52.1785 109.777 56.452 111.111L57.048 109.202C53.1833 107.995 49.808 105.58 47.4187 102.312L45.8041 103.492ZM41.7754 91.0343C41.7499 95.5111 43.1621 99.8779 45.8041 103.492L47.4187 102.312C45.0294 99.0433 43.7523 95.0943 43.7754 91.0457L41.7754 91.0343ZM41.7754 74.2969V91.04H43.7754V74.2969H41.7754ZM56.8818 73.2969H42.7754V75.2969H56.8818V73.2969ZM57.8818 110.156V74.2969H55.8818V110.156H57.8818ZM56.75 111.156H56.8818V109.156H56.75V111.156Z" fill="url(#paint3_radial_9_1045)" mask="url(#path-2-inside-1_9_1045)"/>
<path d="M149.185 130.677L128.486 119.734L107.788 130.677L111.743 107.605L95 91.2578L118.203 87.9619L128.486 67L138.77 87.9619L161.973 91.2578L145.229 107.605L149.185 130.677Z" fill="white"/>
<defs>
<radialGradient id="paint0_radial_9_1045" cx="0" cy="0" r="1" gradientUnits="userSpaceOnUse" gradientTransform="translate(233.938 70.4182) rotate(109.144) scale(123.546 130.987)">
<stop stop-color="#FDF132"/>
<stop offset="1" stop-color="#F96518"/>
</radialGradient>
<linearGradient id="paint1_linear_9_1045" x1="146.017" y1="30.7876" x2="84.226" y2="153.371" gradientUnits="userSpaceOnUse">
<stop offset="0.0292499" stop-color="white" stop-opacity="0.304266"/>
<stop offset="1" stop-color="white" stop-opacity="0.01"/>
</linearGradient>
<radialGradient id="paint2_radial_9_1045" cx="0" cy="0" r="1" gradientUnits="userSpaceOnUse" gradientTransform="translate(194.552 82.9817) rotate(156.815) scale(126.646 106.349)">
<stop stop-color="white" stop-opacity="0.799873"/>
<stop offset="1" stop-color="#FFC49A" stop-opacity="0.550071"/>
</radialGradient>
<radialGradient id="paint3_radial_9_1045" cx="0" cy="0" r="1" gradientUnits="userSpaceOnUse" gradientTransform="translate(191.512 82.7056) rotate(161.102) scale(157.137 94.9556)">
<stop stop-color="white"/>
<stop offset="1" stop-color="white" stop-opacity="0.01"/>
</radialGradient>
</defs>
</svg>
