<?xml version="1.0" standalone="no"?><!DOCTYPE svg PUBLIC "-//W3C//DTD SVG 1.1//EN" "http://www.w3.org/Graphics/SVG/1.1/DTD/svg11.dtd"><svg t="1739088806486" class="icon" viewBox="0 0 1024 1024" version="1.1" xmlns="http://www.w3.org/2000/svg" p-id="7944" xmlns:xlink="http://www.w3.org/1999/xlink" width="256" height="256"><path d="M485.40028604 353.14454419m10.91184384-0.95466275l218.236862-19.09325171q10.91184302-0.95466275 11.86650577 9.95718109l48.83099057 558.14077579q0.95466275 10.91184302-9.95718026 11.86650577l-218.23686284 19.09325169q-10.91184302 0.95466275-11.86650576-9.95718108l-48.83099057-558.14077578q-0.95466275-10.91184302 9.9571811-11.86650577Z" fill="#FDB12A" p-id="7945"></path><path d="M243.39485553 86.77884405m32.68056088 3.43486506l250.550961 26.33396731q32.68056006 3.43486505 29.245695 36.11542511l-79.00190194 751.65288299q-3.43486505 32.68056006-36.11542512 29.24569502l-250.55096099-26.33396733q-32.68056006-3.43486505-29.24569501-36.1154251l79.00190112-751.652883q3.43486505-32.68056006 36.11542594-29.245695Z" fill="#FB7C3D" p-id="7946"></path><path d="M336.62010501 195.771745l108.9328027 11.4464328-34.33930005 326.80936038-108.94375578-11.44643361z" fill="#FFFFFF" p-id="7947"></path><path d="M332.17297481 762.56187537m-60.2443853 0a60.24438528 60.24438528 0 1 0 120.48877056 0 60.24438528 60.24438528 0 1 0-120.48877056 0Z" fill="#FFFFFF" p-id="7948"></path><path d="M496.2567728 352.13330817a10.9535246 10.9535246 0 0 0-9.96770737 11.82980676l21.9070492 246.34476837 27.49334655-261.57016709z" fill="#D36630" p-id="7949"></path></svg>