<?xml version="1.0" standalone="no"?><!DOCTYPE svg PUBLIC "-//W3C//DTD SVG 1.1//EN" "http://www.w3.org/Graphics/SVG/1.1/DTD/svg11.dtd"><svg t="1739168945497" class="icon" viewBox="0 0 1024 1024" version="1.1" xmlns="http://www.w3.org/2000/svg" p-id="12688" data-spm-anchor-id="a313x.search_index.0.i6.72f13a81ol0zou" xmlns:xlink="http://www.w3.org/1999/xlink" width="256" height="256"><path d="M191.609719 639.986721H831.930487c35.452499 0 64.121668 19.710054 64.121668 44.283627 0 11.390875-6.399368 21.757851-16.51037 29.437093L562.901054 1006.286549c-21.245902 19.454079-61.177959 23.549674-89.335179 8.831128a51.322932 51.322932 0 0 1-12.798736-8.831128L140.798736 710.635745c-20.989927-19.326092-15.358483-47.227336 12.798736-61.689908A81.783924 81.783924 0 0 1 191.609719 639.986721z" fill="#ffffff" p-id="12689" data-spm-anchor-id="a313x.search_index.0.i5.72f13a81ol0zou" class="selected"></path><path d="M191.609719 384.011999H831.930487C867.254999 384.011999 895.924167 364.301945 895.924167 339.728372c0-11.390875-6.399368-21.757851-16.510369-29.437093L562.901054 17.712171C541.655152-1.741908 501.723095-5.837504 473.565875 8.881043a51.322932 51.322932 0 0 0-12.798736 8.831128L140.798736 313.362975c-20.989927 19.326092-15.358483 47.227336 12.798736 61.689909 11.518863 6.143393 24.829548 8.959115 38.140234 8.959115z" fill="#666666" p-id="12690" data-spm-anchor-id="a313x.search_index.0.i4.72f13a81ol0zou" class=""></path></svg>