<svg width="17" height="26" viewBox="0 0 17 26" fill="none" xmlns="http://www.w3.org/2000/svg">
<g clip-path="url(#clip0_1322_6250)">
<path d="M1.7631 25.3808C1.26267 25.2406 0.79399 25.0621 0.4611 24.6795C0.188436 24.3665 0.0340355 24.0221 0.00446953 23.6328C-0.00100565 23.5584 8.93907e-05 23.4839 8.93907e-05 23.4095C8.93907e-05 16.2628 8.93907e-05 9.11603 8.93907e-05 1.96929C8.93907e-05 1.01607 0.570603 0.313803 1.55723 0.0714439C1.7631 0.0199187 1.98648 0.00369778 2.20221 0.00369778C6.23303 -0.0001189 10.2639 -0.0001189 14.2936 0.000835271C15.5857 0.000835271 16.4968 0.792797 16.4979 1.91777C16.5001 9.0979 16.5001 16.2771 16.4979 23.4572C16.4979 24.378 15.9208 25.0507 14.9178 25.3198C14.8553 25.336 14.7962 25.3598 14.736 25.3799H1.7631V25.3808ZM14.9002 3.1391H1.6087V20.546H14.9002V3.1391ZM5.69099 23.3866H10.8026V22.0365H5.69099V23.3866ZM5.41285 1.85956H11.0753V1.3548H5.41285V1.85956ZM12.9938 1.17351C12.6981 1.16779 12.4627 1.35862 12.4528 1.61052C12.443 1.87864 12.6718 2.08665 12.9785 2.08665C13.273 2.08665 13.4986 1.89296 13.5019 1.63533C13.5052 1.37389 13.2905 1.17828 12.9938 1.17256V1.17351Z" fill="#9C9C9C"/>
</g>
<defs>
<clipPath id="clip0_1322_6250">
<rect width="16.5" height="25.381" fill="white"/>
</clipPath>
</defs>
</svg>
