<svg width="33" height="20" viewBox="0 0 33 20" fill="none" xmlns="http://www.w3.org/2000/svg">
<path d="M16.0109 2.31788C16.0741 2.27642 16.0721 2.21126 16.0741 2.14611C16.0859 1.5558 16.2616 0.993128 16.3485 0.41466C16.3505 0.398865 16.3564 0.385046 16.3603 0.369252C16.3919 0.256717 16.2952 0.0928503 16.4077 0.0355958C16.5183 -0.0196844 16.6723 0.00992902 16.8085 0.00992902C21.9673 0.00992902 27.1242 0.00992902 32.283 0.00992902C32.3797 0.00992902 32.4745 0.00992902 32.5712 0.00992902C32.6522 0.00992902 32.6937 0.0474418 32.6719 0.128388C32.5436 0.588398 32.5772 1.07013 32.4706 1.53606C32.3363 2.11848 32.2297 2.70879 32.1053 3.29318C31.9928 3.83019 31.9533 4.37509 31.8724 4.91605C31.8072 5.34052 31.7381 5.76302 31.6414 6.18355C31.5545 6.55866 31.5525 6.95352 31.515 7.34048C31.5012 7.48066 31.5249 7.62873 31.361 7.70968C31.288 7.74521 31.2899 7.83603 31.3018 7.90513C31.365 8.27235 31.2228 8.6139 31.1774 8.9673C31.0708 9.81427 30.9444 10.6612 30.7983 11.5023C30.7667 11.6918 30.826 11.9268 30.6246 12.0729C30.5989 12.0906 30.591 12.1459 30.593 12.1854C30.6049 12.6513 30.4923 13.0955 30.3857 13.5437C30.2712 14.0294 30.2949 14.5348 30.1903 15.0205C30.0718 15.5733 30.0777 16.1537 29.8309 16.6809C29.7717 16.8052 29.8803 17.0165 29.6769 17.0619C29.5328 17.0935 29.3749 17.0599 29.2248 17.0599C25.3868 17.0599 21.5488 17.0599 17.7107 17.0599C17.3435 17.0599 16.9763 17.056 16.6091 17.054C16.4433 16.9731 16.2735 17.0362 16.1056 17.0422C15.3988 17.0659 14.6881 16.9829 13.9813 17.0856C13.853 17.1034 13.7089 17.1231 13.5884 17.0323C13.5726 16.823 13.6003 16.6197 13.6516 16.4183C13.7997 15.8339 13.8332 15.2317 14.0129 14.6434C14.1768 14.1103 14.155 13.522 14.2162 12.9573C14.3426 12.8073 14.3229 12.6118 14.3446 12.4401C14.4058 11.9524 14.4512 11.4608 14.5756 10.987C14.7868 10.1736 14.8934 9.34439 15.0119 8.51716C15.083 8.02754 15.1836 7.53988 15.237 7.04631C15.2547 6.87652 15.2429 6.70081 15.2863 6.52905C15.4995 5.69392 15.6279 4.84103 15.768 3.99405C15.8608 3.4373 15.9043 2.87068 16.0129 2.31393L16.0109 2.31788ZM28.7767 6.32372C28.9879 6.29805 29.0748 6.23291 28.9919 6.01968C28.9109 5.80646 28.8714 5.57546 28.7865 5.36421C28.6661 5.06412 28.595 4.72454 28.3858 4.48171C28.0797 4.12633 27.8172 3.71173 27.3591 3.51035C27.2979 3.48271 27.2387 3.41756 27.213 3.35636C27.1518 3.20828 27.0215 3.153 26.8971 3.08588C26.6405 2.9457 26.297 2.94768 26.143 2.63376C26.137 2.62389 26.1153 2.61402 26.1015 2.616C25.7797 2.62982 25.523 2.40277 25.215 2.37711C24.3523 2.30208 23.4954 2.23298 22.6564 2.57454C22.1628 2.77592 21.6514 2.93386 21.1618 3.153C20.9249 3.25764 20.7729 3.48469 20.5458 3.58933C20.0523 3.81835 19.691 4.22307 19.2922 4.56462C18.8361 4.95356 18.5005 5.4728 18.1648 5.97822C17.9062 6.36715 17.8707 6.85283 17.612 7.23979C17.6081 7.24572 17.612 7.25559 17.6101 7.26348C17.458 7.68993 17.3613 8.13217 17.2764 8.57244C17.0652 9.67805 17.077 10.7777 17.5094 11.8379C17.5923 12.0433 17.6278 12.2683 17.768 12.4519C17.9556 12.7007 18.1727 12.9258 18.3346 13.1943C18.4077 13.3186 18.5123 13.4312 18.6446 13.4845C18.7946 13.5457 18.9052 13.6523 18.9842 13.7708C19.1224 13.9781 19.3198 14.0807 19.531 14.1794C19.5962 14.209 19.6673 14.2308 19.7245 14.2722C20.1885 14.6039 20.7196 14.8033 21.2724 14.825C22.22 14.8606 23.1776 14.9455 24.0936 14.521C24.6464 14.2643 25.2269 14.0728 25.756 13.749C26.8122 13.1034 27.5526 12.1676 28.2278 11.1667C28.3719 10.9534 28.4983 10.6988 28.4864 10.4381C28.4667 10.0255 28.6187 9.64645 28.67 9.24765C28.6997 9.00481 28.6345 9.00086 28.4489 9.00086C27.0985 9.00481 25.7481 9.00086 24.3957 9.00086C24.0838 9.00086 23.7718 9.00481 23.4599 9.01073C23.3651 9.01073 23.2467 9.01074 23.2388 9.14104C23.2092 9.59315 23.0295 10.0137 22.9841 10.4618C22.9505 10.7994 22.9782 10.8389 23.3197 10.8429C24.2239 10.8508 25.1262 10.8527 26.0304 10.8606C26.1153 10.8606 26.2338 10.8251 26.2673 10.9199C26.293 10.9949 26.216 11.0818 26.1548 11.1449C25.7718 11.5398 25.3986 11.9307 24.9288 12.2387C24.1746 12.7343 23.3553 12.9218 22.4826 12.9791C21.912 13.0166 21.3908 12.7876 20.8578 12.6553C20.5241 12.5724 20.301 12.2407 20.0266 12.0275C19.7147 11.7866 19.5034 11.4075 19.3395 11.0443C18.9289 10.1302 18.9782 9.17263 19.1678 8.21312C19.2981 7.55568 19.7838 7.04829 19.9377 6.40072C19.9437 6.37505 19.9832 6.35728 20.0029 6.33359C20.4017 5.85779 20.7906 5.3879 21.3553 5.07202C21.7738 4.83708 22.1707 4.58042 22.6386 4.44617C22.8992 4.37115 23.1637 4.40471 23.4204 4.36325C23.9653 4.27638 24.4905 4.36719 25.0235 4.45999C25.3927 4.52316 25.6632 4.74428 25.9574 4.94171C26.4746 5.28919 26.8557 5.7413 27.0788 6.32372C27.1025 6.3869 27.1005 6.46587 27.211 6.456C27.7382 6.41059 28.2653 6.44613 28.7925 6.43625C28.83 6.43625 28.8931 6.46389 28.901 6.38097C28.8596 6.36321 28.8181 6.34544 28.7767 6.32964V6.32372Z" fill="#727272"/>
<path d="M16.0121 2.31794C15.9035 2.87469 15.8581 3.44328 15.7673 3.99806C15.6271 4.84503 15.4988 5.6999 15.2855 6.53305C15.2421 6.70481 15.2539 6.88053 15.2362 7.05032C15.1829 7.54389 15.0822 8.03154 15.0111 8.52116C14.8926 9.34642 14.786 10.1776 14.5748 10.991C14.4504 11.4648 14.405 11.9564 14.3438 12.4441C14.3221 12.6158 14.3398 12.8093 14.2155 12.9613C14.174 12.8942 14.1187 12.833 14.0931 12.76C13.8937 12.2131 13.6311 11.6919 13.4712 11.1292C13.3231 10.61 13.0151 10.1539 12.867 9.63269C12.7486 9.22006 12.6459 8.79757 12.4465 8.41653C12.1227 7.80055 11.8759 7.16483 11.7851 6.46988C11.7594 6.26258 11.714 6.03948 11.487 5.92497C11.4455 5.90325 11.412 5.84007 11.3981 5.78874C11.2442 5.21422 11.0803 4.64365 10.8513 4.09283C10.8177 4.01385 10.8216 3.88947 10.7407 3.86775C10.64 3.83814 10.6065 3.97831 10.5314 4.02767C10.5018 4.04741 10.488 4.09085 10.4683 4.12639C10.1721 4.66932 9.72197 5.10959 9.44951 5.66831C9.38041 5.81046 9.26788 5.92694 9.12968 6.01776C8.90658 6.16386 8.74667 6.41262 8.71903 6.63374C8.69534 6.82722 8.64203 6.9516 8.54134 7.09968C8.26297 7.50441 7.90759 7.84596 7.65094 8.27438C7.4614 8.59224 7.18697 8.86074 6.97572 9.17071C6.63812 9.66428 6.33013 10.1835 5.94317 10.6356C5.53252 11.1134 5.26796 11.6998 4.78821 12.1183C4.69739 12.606 4.25515 12.8607 4.01428 13.2575C3.66681 13.832 3.22852 14.369 2.81589 14.91C2.69941 15.062 2.55331 15.1884 2.45262 15.368C2.24137 15.7431 2.13278 16.1972 1.7399 16.4539C1.59578 16.5467 1.52273 16.6592 1.47337 16.8389C1.40427 17.0856 1.51088 17.0699 1.67277 17.0679C2.19201 17.058 2.71125 17.0442 3.23049 17.0442C3.49702 17.0442 3.66286 16.9297 3.76157 16.6849C3.88793 16.3729 4.05969 16.0669 4.29266 15.8399C4.6579 15.4845 4.79611 14.9514 5.24032 14.6691C5.25217 14.6612 5.25612 14.6415 5.26401 14.6277C5.49698 14.2012 5.76943 13.8044 6.0794 13.4253C6.25709 13.2081 6.43675 13.1509 6.68945 13.1509C8.31232 13.1548 9.93519 13.1568 11.5581 13.141C11.8621 13.1371 12.0891 13.1647 12.2056 13.4944C12.3043 13.7728 12.4939 14.0255 12.561 14.3078C12.6439 14.6553 12.7762 14.983 12.8966 15.3127C13.0881 15.83 13.3487 16.3216 13.4415 16.8744C13.4554 16.9593 13.5008 17.0166 13.5876 17.0383C13.7081 17.1291 13.8522 17.1093 13.9805 17.0916C14.6873 16.9889 15.3961 17.0718 16.1049 17.0481C16.2727 17.0422 16.4425 16.9771 16.6083 17.06C16.6004 17.4864 16.4977 17.901 16.4504 18.3235C16.4168 18.6137 16.3635 18.902 16.3694 19.1962C16.3734 19.366 16.3398 19.437 16.1325 19.4469C13.8482 19.5555 11.564 19.4765 9.27973 19.4903C6.27485 19.5081 3.268 19.4963 0.263125 19.5022C0.032133 19.5022 -0.0270956 19.4311 0.010416 19.206C0.0716191 18.8211 0.128878 18.4341 0.24931 18.0609C0.261156 18.0215 0.259181 17.9899 0.261155 17.9524C0.269052 17.7786 0.148621 17.5674 0.397382 17.4529C0.423048 17.441 0.423047 17.364 0.426995 17.3186C0.48425 16.4756 0.695498 15.6543 0.740907 14.8093C0.770522 14.2624 0.918596 13.7215 1.01534 13.1766C1.02126 13.141 1.01533 13.0838 1.07259 13.0936C1.13182 13.1035 1.09825 13.1746 1.13379 13.218C1.25422 12.5389 1.29174 11.8577 1.42204 11.1845C1.49312 10.8173 1.55036 10.4382 1.55234 10.0552C1.55234 9.86566 1.63329 9.67612 1.6708 9.48264C1.69449 9.35234 1.71818 9.21809 1.75174 9.08976C1.79913 8.9101 1.72608 8.71662 1.90772 8.54485C2.03407 8.42442 1.96497 8.17764 1.98471 7.98811C2.03407 7.5123 2.21373 7.05822 2.21768 6.57451C2.2236 5.9072 2.38352 5.25963 2.48816 4.60614C2.60267 3.8954 2.84748 3.21229 2.90671 2.49365C2.91658 2.36532 2.97186 2.30609 3.09821 2.30214C3.31341 2.29622 3.52861 2.27845 3.74381 2.27845C7.61342 2.27845 11.4811 2.27845 15.3507 2.27845C15.5758 2.27845 15.7988 2.28832 16.02 2.32583L16.0121 2.31794Z" fill="#9C9C9C"/>
<path d="M9.56635 11.1785C9.0708 11.1785 8.57525 11.1785 8.08168 11.1785C7.99086 11.1785 7.86648 11.216 7.82107 11.1134C7.78159 11.0226 7.86253 10.9357 7.90992 10.8508C8.12314 10.4776 8.43508 10.1756 8.67792 9.82218C8.80822 9.63265 8.86745 9.39573 9.04908 9.24371C9.30969 9.02457 9.43802 8.72053 9.61373 8.44413C9.68283 8.33554 9.79537 8.24274 9.9079 8.17364C10.056 8.08085 10.2179 8.15588 10.2652 8.32369C10.3107 8.48361 10.3482 8.6455 10.3877 8.80542C10.4192 8.9298 10.4548 9.04629 10.5693 9.12921C10.7035 9.22792 10.6739 9.40363 10.7272 9.54183C10.9089 10.0157 11.0668 10.4994 11.2465 10.9752C11.2998 11.1173 11.2741 11.1588 11.1241 11.1568C10.6048 11.1509 10.0876 11.1568 9.56832 11.1568C9.56832 11.1647 9.56832 11.1706 9.56832 11.1785H9.56635Z" fill="#9C9C9C"/>
</svg>
