<svg width="15" height="9" viewBox="0 0 15 9" fill="none" xmlns="http://www.w3.org/2000/svg">
<path d="M7.173 1.06301C7.2 1.04401 7.19899 1.01403 7.19999 0.984031C7.20499 0.713031 7.28 0.455018 7.317 0.189018C7.318 0.182018 7.32 0.176029 7.322 0.169029C7.335 0.117029 7.29399 0.0420372 7.34199 0.0150372C7.38899 -0.00996278 7.45399 0.00402038 7.51199 0.00402038C9.70199 0.00402038 11.892 0.00402038 14.082 0.00402038C14.123 0.00402038 14.164 0.00402038 14.205 0.00402038C14.239 0.00402038 14.257 0.0210365 14.247 0.0580365C14.193 0.269036 14.207 0.490033 14.162 0.704033C14.105 0.971033 14.06 1.24201 14.007 1.51101C13.959 1.75701 13.942 2.00703 13.908 2.25603C13.88 2.45003 13.851 2.64403 13.81 2.83703C13.773 3.01003 13.772 3.19103 13.756 3.36803C13.75 3.43303 13.76 3.50102 13.691 3.53802C13.66 3.55402 13.661 3.59601 13.666 3.62801C13.692 3.79601 13.632 3.95301 13.613 4.11501C13.568 4.50401 13.514 4.89301 13.452 5.27901C13.438 5.36601 13.464 5.47401 13.378 5.54101C13.367 5.54901 13.364 5.57403 13.365 5.59203C13.37 5.80603 13.322 6.01003 13.277 6.21603C13.228 6.43903 13.238 6.67103 13.194 6.89403C13.143 7.14703 13.146 7.41403 13.041 7.65603C13.016 7.71303 13.062 7.81002 12.976 7.83102C12.915 7.84502 12.848 7.83001 12.784 7.83001C11.154 7.83001 9.525 7.83001 7.895 7.83001C7.739 7.83001 7.583 7.82802 7.427 7.82702C7.357 7.79002 7.285 7.81901 7.214 7.82201C6.914 7.83301 6.61199 7.79403 6.31199 7.84203C6.25699 7.85003 6.196 7.85901 6.145 7.81701C6.138 7.72101 6.14999 7.62803 6.17199 7.53503C6.23499 7.26703 6.24899 6.99103 6.32499 6.72103C6.39499 6.47603 6.386 6.20601 6.412 5.94701C6.465 5.87801 6.457 5.78804 6.466 5.70904C6.492 5.48504 6.51099 5.26001 6.56399 5.04201C6.65399 4.66901 6.69899 4.28802 6.74899 3.90902C6.77899 3.68402 6.822 3.46002 6.845 3.23302C6.852 3.15502 6.84699 3.07502 6.86599 2.99602C6.95599 2.61302 7.011 2.22102 7.07 1.83202C7.11 1.57702 7.12799 1.31703 7.17399 1.06103L7.173 1.06301ZM12.594 2.90203C12.683 2.89003 12.72 2.86002 12.685 2.76202C12.651 2.66402 12.634 2.55802 12.598 2.46102C12.547 2.32402 12.516 2.16802 12.428 2.05602C12.298 1.89302 12.186 1.70301 11.992 1.61001C11.966 1.59801 11.941 1.56803 11.93 1.54003C11.904 1.47203 11.848 1.44601 11.796 1.41601C11.687 1.35101 11.541 1.35203 11.475 1.20803C11.473 1.20303 11.464 1.19903 11.458 1.20003C11.321 1.20603 11.212 1.10202 11.081 1.09002C10.715 1.05602 10.351 1.02402 9.99499 1.18102C9.78499 1.27302 9.568 1.34604 9.36 1.44604C9.26 1.49404 9.195 1.59903 9.099 1.64703C8.889 1.75203 8.736 1.93802 8.567 2.09402C8.373 2.27302 8.22999 2.51103 8.08799 2.74303C7.97799 2.92203 7.96299 3.14501 7.85299 3.32201C7.85199 3.32501 7.853 3.32903 7.852 3.33303C7.788 3.52903 7.74699 3.73201 7.71099 3.93401C7.62099 4.44101 7.62599 4.94604 7.80999 5.43304C7.84499 5.52704 7.85999 5.63002 7.91999 5.71502C7.99899 5.82902 8.091 5.93202 8.16 6.05502C8.191 6.11302 8.236 6.16402 8.292 6.18902C8.355 6.21702 8.402 6.26603 8.436 6.32003C8.495 6.41503 8.578 6.46202 8.668 6.50802C8.696 6.52102 8.726 6.53101 8.75 6.55001C8.947 6.70201 9.17299 6.79401 9.40699 6.80401C9.80999 6.82001 10.216 6.85902 10.605 6.66402C10.84 6.54702 11.086 6.45902 11.311 6.31002C11.759 6.01402 12.074 5.58402 12.36 5.12502C12.422 5.02702 12.475 4.91003 12.47 4.79003C12.462 4.60103 12.526 4.42701 12.548 4.24401C12.561 4.13201 12.533 4.13103 12.454 4.13103C11.881 4.13203 11.308 4.13103 10.733 4.13103C10.601 4.13103 10.469 4.13203 10.336 4.13503C10.296 4.13503 10.246 4.13503 10.242 4.19503C10.23 4.40203 10.153 4.59502 10.134 4.80102C10.12 4.95602 10.132 4.97404 10.277 4.97604C10.661 4.98004 11.044 4.98103 11.428 4.98403C11.464 4.98403 11.514 4.96801 11.528 5.01101C11.539 5.04601 11.506 5.08601 11.48 5.11501C11.318 5.29601 11.159 5.47503 10.96 5.61703C10.64 5.84403 10.292 5.93002 9.921 5.95702C9.679 5.97402 9.458 5.86904 9.231 5.80804C9.09 5.77004 8.995 5.61801 8.878 5.52001C8.746 5.40901 8.656 5.23502 8.587 5.06902C8.412 4.64902 8.433 4.20904 8.514 3.76904C8.569 3.46704 8.775 3.23403 8.841 2.93703C8.843 2.92503 8.85999 2.91703 8.86799 2.90603C9.03799 2.68803 9.20299 2.47202 9.44299 2.32702C9.61999 2.21902 9.789 2.10203 9.987 2.04003C10.098 2.00503 10.21 2.02104 10.319 2.00204C10.551 1.96204 10.774 2.00401 11 2.04601C11.157 2.07501 11.272 2.17702 11.397 2.26702C11.616 2.42702 11.778 2.63403 11.873 2.90203C11.883 2.93103 11.882 2.96703 11.929 2.96203C12.153 2.94203 12.376 2.95803 12.6 2.95303C12.616 2.95303 12.643 2.96603 12.646 2.92803C12.629 2.92003 12.611 2.91201 12.594 2.90401V2.90203Z" fill="#727272"/>
<path d="M7.17302 1.06302C7.12702 1.31902 7.10802 1.58005 7.07002 1.83405C7.01002 2.22305 6.95602 2.61502 6.86502 2.99802C6.84702 3.07702 6.85201 3.15702 6.84401 3.23502C6.82101 3.46202 6.77901 3.68603 6.74801 3.91003C6.69801 4.28903 6.65302 4.67104 6.56302 5.04404C6.51002 5.26204 6.49101 5.48703 6.46501 5.71103C6.45601 5.79003 6.46301 5.87903 6.41101 5.94803C6.39301 5.91803 6.37001 5.89002 6.35901 5.85602C6.27401 5.60502 6.16302 5.36603 6.09502 5.10703C6.03202 4.86903 5.90101 4.66002 5.83801 4.42102C5.78801 4.23102 5.74402 4.03703 5.66002 3.86203C5.52202 3.58003 5.41701 3.28802 5.37901 2.96902C5.36801 2.87402 5.34901 2.77102 5.25201 2.71902C5.23501 2.70902 5.22001 2.68004 5.21501 2.65604C5.14901 2.39204 5.08001 2.13102 4.98201 1.87802C4.96801 1.84102 4.97001 1.78402 4.93501 1.77402C4.89301 1.76102 4.87801 1.82502 4.84701 1.84802C4.83401 1.85702 4.82802 1.87704 4.82002 1.89304C4.69402 2.14204 4.50301 2.34404 4.38701 2.60104C4.35801 2.66604 4.31002 2.72002 4.25102 2.76102C4.15702 2.82802 4.08901 2.94304 4.07701 3.04404C4.06701 3.13304 4.04401 3.19003 4.00201 3.25803C3.88301 3.44403 3.73301 3.60003 3.62401 3.79703C3.54301 3.94303 3.42702 4.06605 3.33702 4.20905C3.19402 4.43505 3.06301 4.67304 2.89801 4.88104C2.72401 5.10004 2.61202 5.36904 2.40802 5.56204C2.37002 5.78504 2.18201 5.90205 2.07901 6.08405C1.93201 6.34805 1.74601 6.59502 1.57101 6.84302C1.52101 6.91302 1.45901 6.97104 1.41601 7.05304C1.32701 7.22504 1.28101 7.43403 1.11401 7.55203C1.05301 7.59403 1.02202 7.64603 1.00102 7.72803C0.971021 7.84203 1.01702 7.83404 1.08502 7.83304C1.30602 7.82904 1.52601 7.82303 1.74701 7.82303C1.86001 7.82303 1.93001 7.77002 1.97201 7.65802C2.02601 7.51402 2.09901 7.37402 2.19801 7.27002C2.35301 7.10702 2.41102 6.86203 2.60002 6.73203C2.60502 6.72903 2.60701 6.72004 2.61001 6.71304C2.70901 6.51804 2.82501 6.33504 2.95601 6.16104C3.03201 6.06204 3.10801 6.03503 3.21501 6.03503C3.90401 6.03703 4.59301 6.03804 5.28201 6.03104C5.41101 6.02904 5.50802 6.04202 5.55702 6.19302C5.59902 6.32102 5.68001 6.43702 5.70801 6.56702C5.74301 6.72602 5.80001 6.87605 5.85101 7.02805C5.93201 7.26505 6.04301 7.49103 6.08201 7.74503C6.08801 7.78403 6.10701 7.81004 6.14401 7.82004C6.19501 7.86204 6.25602 7.85202 6.31102 7.84402C6.61102 7.79702 6.91201 7.83504 7.21301 7.82404C7.28401 7.82204 7.35602 7.79202 7.42702 7.83002C7.42302 8.02602 7.38001 8.21603 7.36001 8.41003C7.34501 8.54303 7.32301 8.67503 7.32501 8.81003C7.32701 8.88803 7.31302 8.92102 7.22502 8.92502C6.25502 8.97502 5.28502 8.93904 4.31502 8.94504C3.03902 8.95404 1.76301 8.94802 0.487013 8.95102C0.389013 8.95102 0.364019 8.91803 0.380019 8.81503C0.406019 8.63803 0.430017 8.46103 0.481017 8.28903C0.486017 8.27103 0.485006 8.25704 0.486006 8.23904C0.489006 8.16004 0.43802 8.06304 0.54402 8.01004C0.55502 8.00504 0.555013 7.96904 0.556013 7.94904C0.581013 7.56204 0.670016 7.18503 0.690016 6.79703C0.702016 6.54603 0.765013 6.29703 0.806013 6.04703C0.809013 6.03103 0.806007 6.00503 0.831007 6.00903C0.856007 6.01403 0.841008 6.04604 0.857008 6.06604C0.908008 5.75504 0.924018 5.44203 0.979018 5.13303C1.00902 4.96403 1.03301 4.79004 1.03401 4.61404C1.03401 4.52704 1.06902 4.44002 1.08502 4.35202C1.09502 4.29202 1.10502 4.23002 1.11902 4.17102C1.13902 4.08902 1.10801 4.00002 1.18501 3.92102C1.23901 3.86602 1.20902 3.75302 1.21802 3.66602C1.23902 3.44702 1.31502 3.23903 1.31702 3.01703C1.31902 2.71103 1.38702 2.41304 1.43202 2.11304C1.48002 1.78704 1.58401 1.47404 1.60901 1.14404C1.61301 1.08504 1.63701 1.05803 1.69101 1.05603C1.78201 1.05303 1.87301 1.04504 1.96501 1.04504C3.60801 1.04504 5.25002 1.04504 6.89302 1.04504C6.98802 1.04504 7.08302 1.04902 7.17702 1.06702L7.17302 1.06302Z" fill="#9C9C9C"/>
<path d="M4.43702 5.13004C4.22602 5.13004 4.01602 5.13004 3.80602 5.13004C3.76802 5.13004 3.71502 5.14704 3.69602 5.10004C3.67902 5.05904 3.71302 5.01904 3.73302 4.98004C3.82402 4.80804 3.95603 4.67003 4.05903 4.50803C4.11503 4.42103 4.14001 4.31203 4.21701 4.24203C4.32801 4.14103 4.38202 4.00203 4.45702 3.87503C4.48602 3.82503 4.53402 3.78304 4.58202 3.75104C4.64402 3.70804 4.71302 3.74304 4.73302 3.82004C4.75302 3.89304 4.76902 3.96702 4.78502 4.04102C4.79902 4.09802 4.81402 4.15103 4.86202 4.19003C4.91902 4.23503 4.90702 4.31503 4.92902 4.37903C5.00702 4.59603 5.07401 4.81802 5.15001 5.03702C5.17301 5.10202 5.16203 5.12103 5.09803 5.12003C4.87703 5.11703 4.65802 5.12003 4.43702 5.12003C4.43702 5.12403 4.43702 5.12704 4.43702 5.13004Z" fill="#9C9C9C"/>
</svg>
