<svg width="8" height="13" viewBox="0 0 8 13" fill="none" xmlns="http://www.w3.org/2000/svg">
<path d="M2.63702 4.442C2.68502 4.294 2.72302 4.16401 2.76902 4.03901C2.80802 3.93301 2.87502 3.872 2.98002 3.873C3.12302 3.875 3.26602 3.873 3.41802 3.873V1.503C3.60702 1.579 3.78503 1.636 3.95103 1.727C3.99503 1.751 4.01603 1.87702 4.01803 1.95802C4.02603 2.28402 4.02303 2.61002 4.02403 2.93602C4.02403 3.19602 4.02302 3.45601 4.02302 3.71501C4.02302 3.74901 4.02602 3.78202 4.02802 3.82402C4.44102 3.76102 4.77803 3.56202 4.99803 3.14802C5.39303 2.39902 5.35203 1.417 4.76403 0.805005C4.41403 0.441005 3.98703 0.299014 3.52603 0.302014C3.23103 0.304014 2.95503 0.386012 2.69903 0.569012C2.12603 0.977012 2.10902 2.05702 2.73402 2.52202C2.75002 2.53402 2.76902 2.54501 2.80302 2.56901C2.75402 2.71401 2.71303 2.86601 2.65403 3.00801C2.61603 3.09701 2.53403 3.10301 2.44503 3.03401C2.20103 2.84601 2.02102 2.59702 1.92002 2.26902C1.66902 1.45102 1.97703 0.777023 2.57403 0.355023C3.05003 0.0200228 3.57002 -0.0389992 4.10902 0.0200008C4.65902 0.0810008 5.11803 0.368998 5.49203 0.829998C6.03203 1.495 6.15602 2.50602 5.82302 3.34102C5.78802 3.43102 5.82103 3.459 5.87603 3.494C6.61903 3.977 7.14003 4.70101 7.49003 5.59901C7.75603 6.28401 7.86702 7.006 7.83402 7.766C7.78902 8.799 7.50003 9.71502 6.94903 10.514C6.30203 11.451 5.46202 11.997 4.45202 12.182C4.34402 12.201 4.23402 12.217 4.12402 12.223C4.05102 12.228 4.01503 12.251 4.02203 12.349C4.02903 12.45 4.02303 12.553 4.02203 12.656C4.02003 12.769 3.98403 12.845 3.87603 12.869C3.72703 12.903 3.58003 12.954 3.42503 13V12.153C3.25003 12.132 3.08002 12.126 2.91502 12.091C2.08602 11.915 1.39803 11.451 0.869028 10.674C0.489028 10.115 0.272032 9.472 0.182032 8.766C0.0500315 7.72 0.330028 6.815 0.925028 6.063C1.56903 5.251 2.39203 4.92701 3.32803 5.06801C3.82103 5.14301 4.28502 5.335 4.64002 5.774C5.69102 7.072 5.10403 8.971 3.89903 9.429C3.55303 9.56 3.22002 9.553 2.88502 9.395C2.75702 9.334 2.74602 9.30401 2.81002 9.15901C2.82602 9.12101 2.84903 9.086 2.86903 9.05C2.91103 8.98 2.95902 8.96501 3.03202 8.99601C3.20902 9.07201 3.39602 9.10101 3.58302 9.06401C3.86102 9.00801 4.08503 8.855 4.20303 8.537C4.36003 8.115 4.36302 7.68801 4.20002 7.27101C4.08702 6.98001 3.87802 6.78802 3.64002 6.63902C3.23902 6.38902 2.81302 6.36302 2.37502 6.42802C1.58802 6.54402 0.843029 7.34402 0.714029 8.26902C0.609029 9.02402 0.746029 9.707 1.18603 10.287C1.67303 10.93 2.27102 11.352 3.00002 11.474C4.01602 11.642 4.89903 11.303 5.63803 10.462C6.36503 9.63402 6.64202 8.60303 6.51702 7.44603C6.38802 6.26003 5.82203 5.40802 4.90803 4.89402C4.39303 4.60402 3.83902 4.49202 3.27102 4.47102C3.09802 4.46502 2.92503 4.46002 2.75103 4.45402C2.71903 4.45402 2.68703 4.447 2.64103 4.442H2.63702Z" fill="#9C9C9C"/>
</svg>
