<svg width="19" height="29" viewBox="0 0 19 29" fill="none" xmlns="http://www.w3.org/2000/svg">
<path d="M6.39141 9.71475C6.50484 9.3909 6.59414 9.10918 6.70274 8.83536C6.79446 8.6063 6.95376 8.47201 7.19994 8.47465C7.53783 8.47991 7.8733 8.47465 8.23292 8.47465V3.31149C8.677 3.47737 9.09695 3.60112 9.48794 3.79859C9.59172 3.85124 9.63998 4.12507 9.64481 4.30147C9.66412 5.01236 9.65688 5.72325 9.65929 6.43414C9.65929 7.00021 9.65689 7.56629 9.65689 8.12974C9.65689 8.20346 9.66413 8.27718 9.66896 8.3667C10.6416 8.22979 11.4356 7.79799 11.9521 6.8949C12.8837 5.26249 12.7872 3.12456 11.4019 1.78967C10.5788 0.99716 9.57241 0.689111 8.48633 0.694377C7.79124 0.699643 7.142 0.878679 6.53863 1.27625C5.18948 2.16618 5.14845 4.51737 6.62069 5.53105C6.65931 5.55738 6.70275 5.58107 6.78239 5.63373C6.66896 5.94968 6.57242 6.28143 6.43243 6.58948C6.34313 6.78432 6.15006 6.79748 5.94008 6.6474C5.36567 6.23667 4.94089 5.69429 4.70437 4.98077C4.11306 3.19828 4.83711 1.72911 6.24419 0.810222C7.36405 0.080904 8.59011 -0.0481061 9.85962 0.0809068C11.1557 0.212553 12.2369 0.841819 13.1179 1.84496C14.3898 3.29307 14.6818 5.49682 13.8974 7.31616C13.813 7.511 13.8926 7.57156 14.0205 7.64791C15.7703 8.70108 16.9988 10.2782 17.8218 12.2345C18.4493 13.7273 18.71 15.2992 18.6327 16.9553C18.5265 19.2064 17.8459 21.2022 16.5475 22.9425C15.0245 24.983 13.0455 26.1731 10.6682 26.576C10.4123 26.6181 10.1541 26.6523 9.89583 26.6655C9.72205 26.676 9.63758 26.726 9.65447 26.9393C9.67137 27.1605 9.65689 27.3843 9.65447 27.6081C9.64965 27.8556 9.56518 28.0214 9.31176 28.0741C8.95939 28.1478 8.61425 28.2584 8.2474 28.3584V26.5128C7.8371 26.468 7.43646 26.4548 7.04789 26.3785C5.09536 25.9941 3.47348 24.983 2.22811 23.2901C1.33269 22.0737 0.821027 20.673 0.611052 19.1353C0.299709 16.8552 0.958597 14.8832 2.36085 13.2455C3.87653 11.4762 5.81458 10.7706 8.02053 11.0786C9.18142 11.2418 10.2747 11.6605 11.1098 12.6162C13.5861 15.444 12.2031 19.5803 9.36485 20.5782C8.54909 20.8652 7.76469 20.8494 6.97547 20.5045C6.6762 20.3728 6.64965 20.307 6.79929 19.991C6.83791 19.9068 6.89101 19.8304 6.93928 19.7541C7.03823 19.6014 7.15166 19.5671 7.32302 19.6356C7.74055 19.8015 8.17981 19.8647 8.62149 19.783C9.27555 19.6619 9.80169 19.3275 10.0817 18.6351C10.4509 17.7162 10.4582 16.7868 10.0744 15.8784C9.80652 15.2439 9.31416 14.8252 8.75423 14.5014C7.81054 13.9564 6.80653 13.8985 5.77597 14.0406C3.92239 14.2934 2.16777 16.0364 1.86366 18.0506C1.61507 19.6961 1.93849 21.1837 2.97389 22.4475C4.12272 23.8483 5.52978 24.7671 7.2482 25.0331C9.63999 25.399 11.7204 24.6618 13.4606 22.8293C15.1717 21.0258 15.8258 18.7799 15.5314 16.2576C15.2273 13.6747 13.895 11.8185 11.7422 10.6995C10.5282 10.0676 9.22245 9.8227 7.88537 9.77794C7.47749 9.76478 7.0696 9.75424 6.66172 9.74108C6.58449 9.74108 6.50966 9.72529 6.40106 9.71475H6.39141Z" fill="#9C9C9C"/>
</svg>
