<svg width="32" height="30" viewBox="0 0 32 30" fill="none" xmlns="http://www.w3.org/2000/svg">
<path d="M15.0514 0.8426C15.3555 -0.068677 16.6445 -0.06868 16.9486 0.842597L20.0377 10.0997C20.1739 10.5079 20.556 10.7832 20.9863 10.7832H30.925C31.9001 10.7832 32.2986 12.0364 31.5025 12.5996L23.5082 18.2549C23.1483 18.5095 22.9976 18.9697 23.1371 19.3878L26.2014 28.5706C26.5073 29.4872 25.4642 30.2616 24.6753 29.7035L16.5775 23.9749C16.2314 23.7301 15.7686 23.7301 15.4225 23.9749L7.32465 29.7035C6.53576 30.2616 5.49267 29.4872 5.79855 28.5706L8.86286 19.3878C9.00239 18.9697 8.85167 18.5095 8.4918 18.2549L0.497518 12.5996C-0.298586 12.0364 0.0998728 10.7832 1.07504 10.7832H11.0137C11.444 10.7832 11.8261 10.5079 11.9623 10.0997L15.0514 0.8426Z" fill="#9C9C9C"/>
</svg>
