<svg width="12" height="12" viewBox="0 0 12 12" fill="none" xmlns="http://www.w3.org/2000/svg">
<path d="M5.04401 1.12705C5.33201 0.18405 6.668 0.18405 6.956 1.12705L7.57999 3.16605C7.70799 3.58605 8.09602 3.87305 8.53602 3.87305H10.677C11.631 3.87305 12.043 5.08204 11.288 5.66504L9.45402 7.08104C9.12402 7.33504 8.98701 7.76704 9.10801 8.16504L9.78401 10.374C10.069 11.306 8.98802 12.053 8.21702 11.458L6.611 10.2181C6.251 9.94105 5.74902 9.94105 5.38902 10.2181L3.783 11.458C3.012 12.053 1.93101 11.306 2.21601 10.374L2.89201 8.16504C3.01301 7.76704 2.876 7.33504 2.546 7.08104L0.712014 5.66504C-0.0429861 5.08204 0.369006 3.87305 1.32301 3.87305H3.464C3.904 3.87305 4.29202 3.58605 4.42002 3.16605L5.04401 1.12705Z" fill="white"/>
</svg>
