<?xml version="1.0" standalone="no"?><!DOCTYPE svg PUBLIC "-//W3C//DTD SVG 1.1//EN" "http://www.w3.org/Graphics/SVG/1.1/DTD/svg11.dtd"><svg t="1686311191580" class="icon" viewBox="0 0 1024 1024" version="1.1" xmlns="http://www.w3.org/2000/svg" p-id="4177" xmlns:xlink="http://www.w3.org/1999/xlink" width="128" height="128"><path d="M896 0H128C57.408 0 0 57.408 0 128v768c0 70.592 57.408 128 128 128h768c70.592 0 128-57.408 128-128V128c0-70.592-57.408-128-128-128z" fill="#1976D2" p-id="4178"></path><path d="M864 512h-160v-128c0-35.328 28.672-32 64-32h64V192h-128a192 192 0 0 0-192 192v128h-128v160h128v352h192V672h96l64-160z" fill="#FAFAFA" p-id="4179"></path></svg>