<svg width="21" height="18" viewBox="0 0 21 18" fill="none" xmlns="http://www.w3.org/2000/svg">
<path d="M0.0496398 17.2796C0.0330932 17.2845 0.0165466 17.2893 0 17.2942V16.7509C0.108735 16.8435 0.156011 16.7923 0.18674 16.6729C0.267109 16.361 0.215106 16.0394 0.283656 15.7202C0.515308 14.6457 0.75878 13.5712 0.917154 12.4821C1.05189 11.5489 1.28354 10.6376 1.4561 9.71416C1.74448 8.17914 2.00923 6.63925 2.29761 5.10667C2.47253 4.17348 2.6971 3.25004 2.85783 2.31684C2.97602 1.63462 3.12022 0.954823 3.22659 0.272594C3.25968 0.0727984 3.33059 0.00213896 3.52915 0.00213896C9.27319 0.00701202 15.0196 0.00701202 20.7636 0.00944856C20.8369 0.00944856 20.9338 -0.029536 20.9811 0.0508696C21.0378 0.148331 20.9504 0.216554 20.9031 0.28965C20.0332 1.58101 19.1846 2.88699 18.284 4.15399C17.738 4.9215 17.251 5.72312 16.7381 6.51012C16.6199 6.69286 16.4686 6.71722 16.2866 6.71966C14.2277 6.72453 12.1688 6.7294 10.11 6.73671C9.85705 6.73671 9.60412 6.76839 9.35119 6.77326C9.18809 6.7757 9.155 6.91458 9.08172 7.01204C8.72951 7.29712 8.43877 7.64798 8.1362 7.98422C7.76036 8.4033 7.3916 8.8297 7.0394 9.26827C6.80538 9.56065 6.53354 9.81405 6.29007 10.0943C5.84095 10.6132 5.4131 11.1517 4.96398 11.6707C4.48413 12.2238 3.96409 12.7452 3.50788 13.3178C2.84365 14.1511 2.1156 14.9259 1.4301 15.7397C0.985705 16.266 0.57204 16.824 0.0496398 17.2772V17.2796Z" fill="#9C9C9C"/>
</svg>
