<svg width="10" height="14" viewBox="0 0 10 14" fill="none" xmlns="http://www.w3.org/2000/svg">
<mask id="mask0_1554_3581" style="mask-type:luminance" maskUnits="userSpaceOnUse" x="0" y="0" width="10" height="14">
<path d="M9.375 0H0.375V14H9.375V0Z" fill="white"/>
</mask>
<g mask="url(#mask0_1554_3581)">
<path d="M0.395996 7.80204C0.388996 7.80504 0.382 7.80703 0.375 7.80903V7.56403C0.422 7.60503 0.442002 7.58205 0.455002 7.52805C0.490002 7.38805 0.466994 7.24203 0.496994 7.09803C0.595994 6.61303 0.700005 6.12802 0.768005 5.63602C0.826005 5.21402 0.924993 4.80302 0.998993 4.38602C1.12299 3.69302 1.236 2.99703 1.36 2.30503C1.435 1.88403 1.53101 1.46705 1.60001 1.04505C1.65101 0.737051 1.712 0.430047 1.758 0.122047C1.772 0.0320472 1.803 3.79648e-05 1.888 3.79648e-05C4.349 0.00203796 6.812 0.00202869 9.274 0.00302869C9.305 0.00302869 9.347 -0.0149589 9.367 0.0220411C9.391 0.0660411 9.354 0.0970429 9.334 0.130043C8.961 0.713043 8.597 1.30304 8.211 1.87504C7.977 2.22104 7.768 2.58303 7.549 2.93903C7.498 3.02103 7.433 3.03203 7.355 3.03303C6.473 3.03603 5.58999 3.03802 4.70799 3.04102C4.59999 3.04102 4.491 3.05505 4.383 3.05805C4.313 3.05905 4.299 3.12102 4.267 3.16602C4.116 3.29402 3.992 3.45305 3.862 3.60505C3.701 3.79405 3.543 3.98603 3.392 4.18403C3.292 4.31603 3.175 4.43104 3.071 4.55704C2.878 4.79204 2.69501 5.03505 2.50301 5.26905C2.29701 5.51905 2.07401 5.75504 1.87801 6.01304C1.59401 6.39004 1.28201 6.74003 0.988007 7.10703C0.798007 7.34503 0.619996 7.59703 0.395996 7.80103V7.80204Z" fill="#9C9C9C"/>
<path d="M0.395996 7.80301C0.619996 7.59801 0.798007 7.346 0.988007 7.108C1.28301 6.742 1.594 6.39101 1.879 6.01501C2.074 5.75601 2.29701 5.522 2.50301 5.271C2.69501 5.036 2.878 4.79299 3.071 4.55899C3.175 4.43199 3.292 4.318 3.392 4.186C3.543 3.988 3.701 3.79399 3.862 3.60599C3.992 3.45399 4.115 3.29599 4.267 3.16699C4.287 3.23499 4.294 3.28499 4.245 3.36099C4.177 3.46599 4.17001 3.613 4.14101 3.741C4.09301 3.946 4.016 4.13801 3.967 4.34201C3.936 4.47601 3.899 4.608 3.862 4.741C3.837 4.833 3.86899 4.86999 3.95399 4.86099C4.30499 4.82199 4.657 4.83401 5.009 4.83301C5.316 4.83301 5.623 4.83199 5.929 4.83499C6.024 4.83599 6.119 4.84899 6.214 4.86099C6.264 4.86799 6.29399 4.892 6.25999 4.953C6.23799 4.991 6.222 5.033 6.196 5.069C5.634 5.878 5.127 6.72901 4.595 7.55801C3.828 8.75101 3.065 9.94701 2.302 11.143C1.862 11.833 1.42701 12.527 0.990005 13.219C0.838005 13.461 0.688994 13.704 0.537994 13.947C0.525994 13.967 0.527004 14.008 0.492004 13.998C0.451004 13.987 0.462996 13.946 0.464996 13.919C0.477996 13.648 0.556004 13.39 0.617004 13.13C0.813004 12.285 1.006 11.438 1.186 10.589C1.246 10.301 1.32301 10.018 1.38901 9.73099C1.52001 9.15799 1.649 8.58601 1.778 8.01401C1.811 7.87201 1.804 7.86301 1.664 7.86301C1.298 7.86301 0.932001 7.86301 0.567001 7.86301C0.505001 7.86301 0.439995 7.87101 0.397995 7.80301H0.395996Z" fill="#4D4D4D"/>
</g>
</svg>
