<svg width="16" height="16" viewBox="0 0 16 16" fill="none" xmlns="http://www.w3.org/2000/svg">
<path d="M0 8.21799V7.74899C0.108 7.26199 0.446013 6.93501 0.782013 6.60001C2.75301 4.63601 4.72001 2.66899 6.68201 0.696991C6.99901 0.378991 7.32102 0.088 7.77802 0H8.215C8.667 0.086 8.98699 0.372012 9.29999 0.687012C11.346 2.74301 13.399 4.79099 15.449 6.84299C15.512 6.90499 15.578 6.966 15.633 7.034C16.014 7.503 16.109 8.02599 15.868 8.58099C15.628 9.13499 15.189 9.43201 14.581 9.46701C14.485 9.47301 14.387 9.46799 14.278 9.46799V9.67801C14.278 11.194 14.282 12.709 14.277 14.225C14.274 15.266 13.533 15.997 12.492 15.998C11.69 15.998 10.889 15.998 10.087 15.998C9.71201 15.998 9.53101 15.818 9.53101 15.446C9.53001 14.227 9.531 13.009 9.53 11.79C9.529 11.34 9.23299 11.004 8.78699 10.989C8.26099 10.97 7.73499 10.971 7.20999 10.988C6.76199 11.003 6.46601 11.336 6.46301 11.786C6.46101 12.223 6.46301 12.661 6.46301 13.098C6.46301 13.895 6.46401 14.692 6.46201 15.488C6.46101 15.788 6.26901 15.996 5.98801 15.997C5.10801 15.999 4.228 16.004 3.349 15.994C2.502 15.985 1.72999 15.23 1.72299 14.385C1.70799 12.812 1.71599 11.239 1.71399 9.66599C1.71399 9.60599 1.71399 9.54599 1.71399 9.46899C1.59899 9.46899 1.506 9.47299 1.414 9.46899C0.936001 9.44799 0.545006 9.24799 0.281006 8.85199C0.154006 8.66299 0.091 8.43099 0 8.21799Z" fill="#FFCD08"/>
</svg>
