<svg width="24" height="25" viewBox="0 0 24 25" fill="none" xmlns="http://www.w3.org/2000/svg">
<path d="M0 12.8266V12.1236C0.161967 11.3929 0.668523 10.9026 1.17273 10.4001C4.12898 7.45416 7.08006 4.50352 10.0232 1.54491C10.4978 1.06777 10.9809 0.631494 11.6668 0.5H12.3226C13.0005 0.629616 13.4803 1.05838 13.9503 1.53035C17.0192 4.61388 20.0984 7.68709 23.1739 10.764C23.2678 10.858 23.3664 10.9486 23.4495 11.051C24.0213 11.7545 24.1631 12.5387 23.8021 13.3714C23.442 14.2021 22.7833 14.6483 21.8721 14.7009C21.727 14.7093 21.581 14.7023 21.4176 14.7023V15.0169C21.4176 17.2904 21.4228 19.5633 21.4158 21.8368C21.4106 23.3997 20.2994 24.4953 18.7379 24.4962C17.5351 24.4967 16.3328 24.4962 15.13 24.4962C14.5676 24.4962 14.2958 24.2272 14.2958 23.6688C14.2953 21.841 14.2967 20.0128 14.2949 18.185C14.2939 17.5097 13.8493 17.0067 13.1799 16.9832C12.3921 16.9555 11.602 16.956 10.8147 16.9823C10.1424 17.0048 9.69829 17.5045 9.695 18.1784C9.69219 18.8345 9.69406 19.491 9.69406 20.1471C9.69406 21.3423 9.69594 22.5375 9.69312 23.7326C9.69219 24.1825 9.40346 24.4939 8.98188 24.4948C7.6622 24.4981 6.34206 24.5061 5.02285 24.4916C3.75293 24.477 2.59523 23.3457 2.58396 22.0768C2.56236 19.7179 2.57363 17.3585 2.57081 14.9996C2.57081 14.9089 2.57081 14.8183 2.57081 14.7037C2.39899 14.7037 2.25955 14.7089 2.12106 14.7028C1.40418 14.6718 0.817344 14.3717 0.421112 13.7785C0.231447 13.4944 0.137085 13.146 0 12.8266Z" fill="#B1B1B1"/>
</svg>
