<svg width="16" height="16" viewBox="0 0 16 16" fill="none" xmlns="http://www.w3.org/2000/svg">
<path d="M15.832 15.12C15.82 15.145 15.804 15.168 15.796 15.195C15.544 16.019 14.595 16.269 13.985 15.667C13.252 14.941 12.523 14.212 11.797 13.48C11.542 13.223 11.302 12.952 11.076 12.71C11.56 12.219 12.06 11.713 12.573 11.193C12.603 11.222 12.656 11.272 12.707 11.323C13.568 12.181 14.426 13.043 15.291 13.897C15.527 14.13 15.744 14.37 15.832 14.702V15.12Z" fill="#FFCD08"/>
<path d="M12.662 6.417C12.659 9.953 9.821 12.823 6.326 12.828C2.834 12.832 -0.00198219 9.94599 0.00501781 6.39499C0.0110178 2.85999 2.843 0.00100907 6.335 0.00500907C9.831 0.00800908 12.665 2.881 12.662 6.417ZM6.33201 1.79401C3.80501 1.79601 1.77602 3.85 1.77202 6.409C1.76902 8.967 3.81701 11.045 6.33601 11.038C8.85101 11.032 10.9 8.95201 10.895 6.41102C10.89 3.85802 8.84801 1.79201 6.33201 1.79401Z" fill="#FFCD08"/>
</svg>
