<svg width="25" height="24" viewBox="0 0 25 24" fill="none" xmlns="http://www.w3.org/2000/svg">
<path d="M24.4977 22.6799C24.4798 22.7169 24.4557 22.7525 24.444 22.7923C24.0666 24.0281 22.6422 24.4035 21.7281 23.4998C20.6283 22.4117 19.5346 21.318 18.4451 20.2194C18.0634 19.8344 17.7023 19.4277 17.3646 19.065C18.0906 18.3287 18.84 17.5688 19.6094 16.7893C19.6541 16.8326 19.7332 16.9074 19.8102 16.9843C21.1013 18.2722 22.3882 19.5644 23.6861 20.8454C24.041 21.1956 24.3657 21.5547 24.4982 22.0535L24.4977 22.6806L24.4977 22.6799Z" fill="#B1B1B1"/>
<path d="M19.7433 9.62616C19.7384 14.929 15.4821 19.235 10.2392 19.2413C5.00099 19.2475 0.746726 14.9183 0.756906 9.59179C0.767069 4.2895 5.01458 0.00128878 10.2522 0.00683523C15.4968 0.0123867 19.7482 4.32091 19.7433 9.62616ZM10.2474 2.69109C6.45746 2.69427 3.41343 5.77543 3.40838 9.61321C3.40334 13.451 6.47568 16.5673 10.2545 16.5576C14.027 16.5479 17.0996 13.4283 17.0924 9.61597C17.0852 5.78705 14.0216 2.68731 10.2474 2.69109Z" fill="#B1B1B1"/>
</svg>
