<svg width="16" height="15" viewBox="0 0 16 15" fill="none" xmlns="http://www.w3.org/2000/svg">
<path d="M0 6.64902C0.053 6.36102 0.0940107 6.07202 0.161011 5.78702C0.446011 4.57602 1.038 3.50004 1.931 2.56204C1.948 2.54404 1.964 2.52603 1.983 2.50903C1.99 2.50303 1.99999 2.49903 1.99799 2.50003C2.42199 2.88503 2.84301 3.26704 3.27701 3.66104C2.42701 4.57904 1.92899 5.65003 1.81799 6.87503H0C0 6.79903 0 6.72402 0 6.64902Z" fill="#FFCD08"/>
<path d="M8.521 15V13.265C9.796 13.155 10.923 12.688 11.885 11.875C12.296 12.287 12.701 12.692 13.11 13.102C12.66 13.509 12.148 13.861 11.593 14.151C10.733 14.599 9.82299 14.879 8.85699 14.973C8.82399 14.976 8.79197 14.991 8.75897 15H8.521Z" fill="#FFCD08"/>
<path d="M0 8.125H1.82101C1.93601 9.348 2.42801 10.418 3.27701 11.333C2.84501 11.725 2.42001 12.11 1.98901 12.5C1.54801 12.056 1.16599 11.546 0.855988 10.993C0.405988 10.191 0.125015 9.34301 0.0280151 8.44601C0.0250151 8.41401 0.01 8.38299 0 8.35199C0 8.27599 0 8.201 0 8.125Z" fill="#FFCD08"/>
<path d="M6.974 15C6.727 14.96 6.479 14.927 6.233 14.879C4.889 14.618 3.69901 14.034 2.66501 13.132C2.65001 13.119 2.63001 13.112 2.62201 13.108C3.03601 12.692 3.43499 12.29 3.84799 11.875C4.80899 12.686 5.92902 13.16 7.21002 13.268V15H6.974Z" fill="#FFCD08"/>
<path d="M13.11 7.49801C13.112 10.262 10.754 12.508 7.85999 12.5C4.95999 12.492 2.62401 10.262 2.62201 7.50103C2.62001 4.73703 4.97799 2.49202 7.87299 2.50002C10.773 2.50802 13.107 4.73601 13.11 7.49801ZM7.39697 4.92303C7.20797 4.94603 7.04101 4.95301 6.88101 4.99001C6.09801 5.17201 5.586 5.87701 5.685 6.62401C5.785 7.37801 6.45103 7.94104 7.25403 7.94604C7.65403 7.94904 8.05502 7.94501 8.45502 7.94701C8.83902 7.94901 9.11601 8.20303 9.11701 8.55303C9.11801 8.90203 8.84102 9.16102 8.46002 9.16302C8.06502 9.16402 7.67003 9.15703 7.27503 9.16503C6.96303 9.17103 6.71202 9.06501 6.50202 8.84801C6.31002 8.65001 6.02902 8.63303 5.83402 8.79803C5.63502 8.96603 5.62399 9.24403 5.81299 9.44903C6.07499 9.73103 6.39699 9.92401 6.78699 9.99801C6.98299 10.036 7.18501 10.048 7.39801 10.073C7.39801 10.256 7.39701 10.438 7.39801 10.62C7.39901 10.78 7.46503 10.91 7.60303 10.999C7.75303 11.096 7.91599 11.105 8.07599 11.029C8.24299 10.949 8.32899 10.811 8.33399 10.634C8.33799 10.443 8.33502 10.253 8.33502 10.075C8.52102 10.053 8.68399 10.049 8.83899 10.014C9.62399 9.83703 10.135 9.14401 10.048 8.38701C9.96098 7.63301 9.284 7.05803 8.474 7.05303C8.084 7.05103 7.69402 7.05303 7.30402 7.05303C6.89402 7.05203 6.61399 6.80401 6.61499 6.44301C6.61599 6.08501 6.89601 5.84202 7.31201 5.84002C7.65401 5.84002 7.99803 5.84401 8.34003 5.83901C8.69803 5.83501 8.98299 5.95903 9.19299 6.24303C9.36399 6.47303 9.63799 6.51901 9.85999 6.36901C10.071 6.22701 10.114 5.96401 9.95899 5.73601C9.72499 5.39001 9.39898 5.15101 8.98798 5.03301C8.78198 4.97401 8.56399 4.95401 8.33399 4.91201C8.33399 4.75101 8.33599 4.57402 8.33399 4.39602C8.33099 4.11802 8.13998 3.92601 7.86798 3.92501C7.59398 3.92401 7.39997 4.11502 7.39697 4.39202C7.39497 4.57002 7.39697 4.74703 7.39697 4.92303Z" fill="#FFCD08"/>
<path d="M11.888 3.12507C10.925 2.31507 9.802 1.84308 8.521 1.73408V0.0100835C9.697 -0.113916 12.145 0.900082 13.11 1.90208C12.708 2.30408 12.307 2.70607 11.888 3.12507Z" fill="#FFCD08"/>
<path d="M2.62201 1.892C3.92201 0.760998 5.45302 0.125 7.21002 0V1.742C5.93902 1.85 4.81301 2.318 3.85101 3.125C3.44201 2.714 3.03701 2.308 2.62201 1.892Z" fill="#FFCD08"/>
<path d="M13.743 2.5C14.935 3.746 15.603 5.202 15.732 6.875H13.911C13.798 5.663 13.307 4.589 12.454 3.668C12.885 3.278 13.306 2.896 13.743 2.5Z" fill="#FFCD08"/>
<path d="M15.732 8.125C15.602 9.799 14.933 11.251 13.738 12.5C13.31 12.108 12.888 11.722 12.454 11.325C13.298 10.415 13.793 9.343 13.906 8.125H15.732Z" fill="#FFCD08"/>
</svg>
