<svg width="24" height="23" viewBox="0 0 24 23" fill="none" xmlns="http://www.w3.org/2000/svg">
<path d="M0 9.97289C0.0793635 9.54198 0.140605 9.10825 0.241215 8.68131C0.669278 6.86358 1.55665 5.25052 2.89583 3.84272C2.92145 3.81607 2.94645 3.78942 2.97395 3.76391C2.98457 3.75427 2.99957 3.7486 2.99707 3.7503C3.6326 4.32692 4.26501 4.9007 4.91617 5.49206C3.64072 6.86868 2.89396 8.47493 2.72648 10.3125H0C0 10.1991 0 10.0863 0 9.97289Z" fill="#B1B1B1"/>
<path d="M12.7822 22.5V19.8976C14.6945 19.7328 16.3854 19.0322 17.8281 17.8125C18.4447 18.4307 19.0512 19.0381 19.6649 19.6533C18.9905 20.2632 18.2216 20.7918 17.3895 21.226C16.1003 21.8991 14.7344 22.3184 13.2857 22.4594C13.2358 22.4642 13.1881 22.4863 13.1387 22.5H12.7822Z" fill="#B1B1B1"/>
<path d="M0 12.1881H2.73218C2.90384 14.0212 3.64249 15.6272 4.91617 16.9998C4.26711 17.5875 3.62933 18.1651 2.9834 18.75C2.32182 18.0839 1.74919 17.3195 1.2837 16.4898C0.60896 15.287 0.187951 14.015 0.0419757 12.6696C0.0369636 12.6214 0.0144096 12.5748 0 12.5277C0 12.4141 0 12.3011 0 12.1875V12.1881Z" fill="#B1B1B1"/>
<path d="M10.461 22.5C10.091 22.4398 9.71854 22.3898 9.35086 22.3183C7.3334 21.9264 5.54958 21.0509 3.99823 19.6976C3.9757 19.678 3.94545 19.6684 3.93359 19.6619C4.5539 19.0377 5.15344 18.4343 5.77197 17.8125C7.21361 19.0293 8.89483 19.7393 10.8162 19.9013V22.4994H10.461V22.5Z" fill="#B1B1B1"/>
<path d="M19.6653 11.2473C19.6691 15.3924 16.1322 18.7625 11.7907 18.75C7.44106 18.7375 3.93609 15.3924 3.9336 11.2521C3.9311 7.1058 7.4673 3.73752 11.8095 3.75003C16.1604 3.76255 19.6616 7.1046 19.6653 11.2473ZM11.096 7.3846C10.8129 7.41975 10.5618 7.42928 10.3225 7.48528C9.14731 7.75872 8.38009 8.81495 8.52816 9.93672C8.67748 11.0668 9.67774 11.911 10.8823 11.9193C11.4821 11.9235 12.0825 11.9181 12.6829 11.9205C13.2595 11.9229 13.6744 12.3048 13.6763 12.829C13.6775 13.3538 13.2627 13.7417 12.6904 13.744C12.0981 13.7464 11.5058 13.7357 10.9135 13.7476C10.4456 13.7572 10.0682 13.5981 9.75333 13.2728C9.46531 12.975 9.04484 12.9493 8.75183 13.1972C8.45381 13.4486 8.43694 13.8668 8.72059 14.173C9.11357 14.5971 9.59652 14.8861 10.1807 14.9975C10.4749 15.0541 10.778 15.0719 11.0972 15.1101C11.0972 15.3835 11.0966 15.6569 11.0972 15.9304C11.0985 16.1699 11.1984 16.3653 11.4059 16.4993C11.6301 16.6447 11.8751 16.6578 12.115 16.5434C12.3655 16.4236 12.4948 16.2169 12.5011 15.9512C12.5079 15.6653 12.5029 15.3793 12.5029 15.113C12.7828 15.0803 13.0271 15.0743 13.2595 15.0213C14.436 14.7556 15.2032 13.7154 15.0726 12.58C14.9427 11.4493 13.9268 10.5873 12.711 10.5801C12.1262 10.5765 11.5421 10.5801 10.9573 10.5789C10.3419 10.5777 9.92202 10.2054 9.92265 9.66506C9.9239 9.12771 10.345 8.76253 10.9679 8.76074C11.4821 8.75955 11.9969 8.76551 12.5111 8.75895C13.0484 8.7524 13.4745 8.93887 13.79 9.36422C14.0461 9.70915 14.4572 9.77825 14.7909 9.55366C15.1076 9.34039 15.172 8.94601 14.9396 8.60406C14.5878 8.08518 14.0999 7.72655 13.482 7.54962C13.1733 7.46145 12.8472 7.43047 12.5017 7.36851C12.5017 7.12605 12.5042 6.86035 12.5017 6.59466C12.4973 6.17705 12.2099 5.88871 11.802 5.88752C11.3921 5.88633 11.101 6.17288 11.096 6.5887C11.0928 6.8544 11.096 7.12129 11.096 7.3846Z" fill="#B1B1B1"/>
<path d="M17.832 4.68751C16.3877 3.47214 14.7028 2.76467 12.7822 2.60095V0.0154673C14.5459 -0.170363 18.2181 1.35034 19.6649 2.85311C19.0621 3.45661 18.4593 4.05951 17.8314 4.68751H17.832Z" fill="#B1B1B1"/>
<path d="M3.93359 2.8382C5.88418 1.14125 8.17959 0.18762 10.8162 0V2.61234C8.90867 2.77426 7.21983 3.47634 5.77721 4.68751C5.16347 4.07147 4.5563 3.4626 3.93419 2.8382H3.93359Z" fill="#B1B1B1"/>
<path d="M20.6149 3.75C22.4031 5.61916 23.4047 7.80306 23.5978 10.3125H20.8667C20.6967 8.49505 19.9607 6.88326 18.6816 5.50212C19.3271 4.91751 19.9594 4.34427 20.6149 3.75Z" fill="#B1B1B1"/>
<path d="M23.5978 12.1875C23.4031 14.698 22.4002 16.877 20.6073 18.75C19.9656 18.1624 19.3327 17.5833 18.6816 16.9872C19.9468 15.6229 20.6893 14.0139 20.8596 12.1881H23.5972L23.5978 12.1875Z" fill="#B1B1B1"/>
</svg>
