<svg width="18" height="16" viewBox="0 0 18 16" fill="none" xmlns="http://www.w3.org/2000/svg">
<path d="M8.00203 15.996C7.76103 15.996 7.51901 16.006 7.27901 15.994C6.71201 15.966 6.26701 15.5199 6.27401 14.9979C6.28001 14.4789 6.73803 14.03 7.29903 14.015C7.77503 14.003 8.25205 14.004 8.72805 14.015C9.28905 14.028 9.74899 14.474 9.75899 14.994C9.76799 15.515 9.32402 15.965 8.75802 15.994C8.50702 16.007 8.25403 15.996 8.00203 15.996Z" fill="#FFCD08"/>
<path d="M0.000976562 7.358C0.0179766 7.296 0.0360254 7.234 0.0510254 7.173C0.307025 6.125 1.24098 5.40999 2.37598 5.39499C2.42098 5.39399 2.46502 5.39101 2.52502 5.38901C2.73202 3.55801 3.60799 2.08901 5.20599 1.03201C6.37499 0.259013 7.68701 -0.0729991 9.10901 0.0130009C10.64 0.105001 11.959 0.666 13.054 1.681C14.149 2.696 14.748 3.94201 14.895 5.35501C15.209 5.41001 15.51 5.433 15.792 5.517C16.777 5.812 17.424 6.66901 17.426 7.64401C17.427 8.09001 17.427 8.53599 17.426 8.98199C17.425 10.279 16.393 11.265 15.023 11.276C14.825 11.278 14.627 11.277 14.428 11.276C14.028 11.273 13.821 11.076 13.821 10.7C13.821 9.10401 13.822 7.509 13.82 5.914C13.818 3.88 12.571 2.13 10.586 1.37C7.72 0.273996 4.406 1.92399 3.745 4.78699C3.66 5.15599 3.61698 5.54101 3.61298 5.91901C3.59798 7.50301 3.60699 9.088 3.60699 10.672C3.60699 11.054 3.476 11.231 3.078 11.272C2.299 11.352 1.54799 11.272 0.903992 10.789C0.431992 10.434 0.142997 9.97399 0.0339966 9.41299C0.0279966 9.38199 0.012 9.35401 0 9.32501C0 8.66901 0 8.01401 0 7.35901L0.000976562 7.358Z" fill="#FFCD08"/>
<path d="M2.091 11.964H2.70599C3.23199 13.819 4.43199 14.687 6.27399 14.632V15.256C4.31899 15.519 2.39 14.049 2.091 11.964Z" fill="#FFCD08"/>
</svg>
