<svg width="27" height="24" viewBox="0 0 27 24" fill="none" xmlns="http://www.w3.org/2000/svg">
<path d="M12.0025 23.9943C11.6414 23.9943 11.279 24.0092 10.9186 23.9911C10.0671 23.9483 9.40082 23.2802 9.41026 22.4973C9.41969 21.7187 10.1075 21.0445 10.9489 21.0227C11.663 21.0041 12.3778 21.0054 13.0918 21.0221C13.9333 21.042 14.6238 21.7107 14.6379 22.4905C14.6521 23.2722 13.9851 23.9477 13.137 23.9905C12.7597 24.0098 12.3811 23.9936 12.0025 23.9943Z" fill="#B1B1B1"/>
<path d="M0.00204811 11.0365C0.0272835 10.9441 0.0545633 10.8517 0.0770706 10.7594C0.460376 9.18721 1.86128 8.11564 3.56365 8.09239C3.63117 8.09174 3.69801 8.08722 3.78736 8.08334C4.09837 5.33627 5.41265 3.13306 7.80865 1.54863C9.56217 0.388574 11.5312 -0.108779 13.6639 0.0197582C15.9597 0.157338 17.9383 0.998316 19.5806 2.52138C21.2236 4.04445 22.1226 5.91243 22.3429 8.03232C22.8128 8.11435 23.2657 8.14923 23.6885 8.27583C25.1651 8.71828 26.1357 10.0036 26.1391 11.4666C26.1405 12.1352 26.1398 12.8043 26.1391 13.4728C26.1377 15.4183 24.5895 16.8975 22.5352 16.9143C22.2372 16.9169 21.9398 16.9162 21.6417 16.9143C21.0422 16.9098 20.7312 16.6146 20.7312 16.0494C20.7312 13.6563 20.7333 11.2638 20.7305 8.87136C20.7271 5.81942 18.857 3.19443 15.8792 2.05568C11.5803 0.411183 6.60963 2.88568 5.61794 7.181C5.4904 7.73455 5.42493 8.31135 5.41947 8.87847C5.39765 11.2548 5.4106 13.6317 5.40992 16.0087C5.40992 16.5816 5.21418 16.8465 4.6174 16.9078C3.44838 17.028 2.32234 16.9078 1.35657 16.1831C0.647937 15.6515 0.21416 14.9617 0.0511528 14.1188C0.0422863 14.0735 0.017733 14.0309 0 13.987C0 13.0039 0 12.0208 0 11.0378L0.00204811 11.0365Z" fill="#B1B1B1"/>
<path d="M3.13672 17.9453H4.05889C4.84731 20.7282 6.64801 22.0303 9.41029 21.9479V22.8845C6.47906 23.2784 3.58654 21.074 3.13742 17.9453H3.13672Z" fill="#B1B1B1"/>
</svg>
