<svg width="15" height="15" viewBox="0 0 15 15" fill="none" xmlns="http://www.w3.org/2000/svg">
<path d="M2.747 15C2.6 14.975 2.453 14.952 2.307 14.925C1.032 14.69 0.193007 13.945 0.0410073 12.896C-0.0489927 12.268 0.0219966 11.642 0.129997 11.019C0.224997 10.477 0.371983 9.94301 0.640983 9.43701C0.997983 8.76401 1.481 8.17399 2.312 7.81699C2.823 7.59799 3.37301 7.49101 3.94701 7.50101C4.12801 7.50401 4.319 7.578 4.484 7.651C4.751 7.768 4.99901 7.91099 5.25701 8.04199C6.03401 8.43699 6.87702 8.65099 7.80102 8.59299C8.47602 8.55099 9.10097 8.369 9.67797 8.086C9.88297 7.986 10.095 7.89001 10.28 7.76901C10.751 7.46301 11.272 7.46001 11.826 7.55801C12.888 7.74601 13.624 8.26099 14.131 9.01999C14.56 9.65999 14.791 10.35 14.891 11.065C14.966 11.594 15 12.128 15 12.661C15 13.8 14.028 14.722 12.639 14.94C12.515 14.959 12.391 14.98 12.267 15H2.74596H2.747Z" fill="#FFCD08"/>
<path d="M7.53099 6.70104C5.66399 6.69304 4.17897 5.19304 4.18797 3.32604C4.19797 1.46504 5.69399 -0.00994945 7.56199 5.05475e-05C9.40499 0.0100505 10.892 1.50806 10.889 3.35006C10.886 5.20306 9.37699 6.70804 7.53099 6.70104Z" fill="#FFCD08"/>
</svg>
