<svg width="23" height="23" viewBox="0 0 23 23" fill="none" xmlns="http://www.w3.org/2000/svg">
<path d="M4.12037 23C3.9006 22.9627 3.67951 22.9276 3.4604 22.8876C1.54846 22.5357 0.289217 21.4169 0.062186 19.8433C-0.0737686 18.9014 0.0324885 17.9626 0.195502 17.0286C0.338057 16.2149 0.558486 15.4145 0.96107 14.6557C1.49631 13.6461 2.22163 12.7611 3.46766 12.2259C4.23521 11.8963 5.05885 11.736 5.92078 11.751C6.19269 11.7557 6.47846 11.8676 6.72661 11.9762C7.12656 12.1519 7.49878 12.3671 7.88486 12.5635C9.0517 13.1562 10.3149 13.4763 11.7021 13.39C12.7145 13.3272 13.6511 13.054 14.5169 12.629C14.8238 12.4783 15.1426 12.3356 15.4204 12.1541C16.126 11.694 16.9087 11.6897 17.7389 11.8367C19.3321 12.1194 20.4356 12.8921 21.1972 14.0295C21.84 14.9901 22.1858 16.0253 22.337 17.0978C22.4485 17.8907 22.5007 18.6926 22.5 19.4908C22.4993 21.1996 21.0421 22.5825 18.9592 22.9095C18.7725 22.9388 18.5863 22.9696 18.4002 23H4.11971H4.12037Z" fill="#B1B1B1"/>
<path d="M11.2974 10.5513C8.49783 10.54 6.26899 8.28955 6.28327 5.48869C6.29755 2.69802 8.54272 0.484776 11.3438 0.500079C14.1082 0.515381 16.3391 2.76128 16.3345 5.52439C16.3299 8.30383 14.0669 10.562 11.2974 10.5513Z" fill="#B1B1B1"/>
</svg>
