<?xml version="1.0" standalone="no"?><!DOCTYPE svg PUBLIC "-//W3C//DTD SVG 1.1//EN" "http://www.w3.org/Graphics/SVG/1.1/DTD/svg11.dtd"><svg t="1686324458860" class="icon" viewBox="0 0 1024 1024" version="1.1" xmlns="http://www.w3.org/2000/svg" p-id="1664" xmlns:xlink="http://www.w3.org/1999/xlink" width="128" height="128"><path d="M184.32 1024h655.36c102.4 0 184.32-81.92 184.32-184.32V184.32c0-102.4-81.92-184.32-184.32-184.32H184.32C81.92 0 0 81.92 0 184.32v655.36c0 102.4 81.92 184.32 184.32 184.32z" fill="#3AAE36" p-id="1665"></path><path d="M885.76 465.92c0-168.96-168.96-302.08-373.76-302.08S138.24 302.08 138.24 465.92c0 148.48 133.12 276.48 312.32 296.96 10.24 5.12 30.72 10.24 35.84 20.48 5.12 10.24 0 25.6 0 35.84 0 0-5.12 25.6-5.12 30.72 0 10.24-5.12 35.84 30.72 20.48 40.96-15.36 215.04-128 291.84-215.04 56.32-61.44 81.92-122.88 81.92-189.44z m-517.12 102.4H291.84c-10.24 0-20.48-10.24-20.48-20.48V399.36c0-10.24 10.24-20.48 20.48-20.48s20.48 10.24 20.48 20.48v128h56.32c10.24 0 20.48 10.24 20.48 20.48-5.12 10.24-10.24 20.48-20.48 20.48z m71.68-20.48c0 10.24-10.24 20.48-20.48 20.48s-20.48-10.24-20.48-20.48V399.36c0-10.24 10.24-20.48 20.48-20.48s20.48 10.24 20.48 20.48v148.48z m179.2 0c0 10.24-5.12 15.36-15.36 20.48h-5.12c-5.12 0-10.24-5.12-15.36-10.24l-76.8-102.4v92.16c0 10.24-10.24 20.48-20.48 20.48s-20.48-10.24-20.48-20.48V399.36c0-10.24 5.12-15.36 15.36-20.48h5.12c5.12 0 10.24 5.12 15.36 10.24l76.8 102.4V399.36c0-10.24 10.24-20.48 20.48-20.48s20.48 10.24 20.48 20.48v148.48z m122.88-97.28c10.24 0 20.48 10.24 20.48 20.48s-10.24 20.48-20.48 20.48h-56.32v35.84h56.32c10.24 0 20.48 10.24 20.48 20.48s-10.24 20.48-20.48 20.48H665.6c-10.24 0-20.48-10.24-20.48-20.48V399.36c0-10.24 10.24-20.48 20.48-20.48h71.68c10.24 0 20.48 10.24 20.48 20.48s-10.24 20.48-20.48 20.48h-56.32v35.84l61.44-5.12z" fill="#FFFFFF" p-id="1666"></path></svg>