<svg width="29" height="27" viewBox="0 0 29 27" fill="none" xmlns="http://www.w3.org/2000/svg">
<path d="M28.3216 12.2081V13.9436C28.2787 14.2531 28.242 14.564 28.1929 14.8735C27.7871 17.4429 26.6799 19.7211 24.8177 21.6686C22.5436 24.0471 19.7028 25.4985 16.3 25.9918C15.9018 26.0497 15.5021 26.0935 15.104 26.143H13.2234C12.8972 26.1048 12.5695 26.0737 12.2433 26.0285C8.51892 25.5141 5.44538 23.9256 3.09926 21.2078C0.59234 18.3035 -0.39542 14.9724 0.142105 11.3007C0.650533 7.81843 2.44228 4.95937 5.44385 2.79847C8.88646 0.320989 12.7977 -0.498712 17.0688 0.288484C20.055 0.839662 22.5773 2.20772 24.6294 4.28665C26.5451 6.22708 27.7259 8.50246 28.1577 11.1015C28.219 11.4689 28.268 11.8392 28.3216 12.2081ZM14.1315 22.1985C19.3751 22.1971 23.9877 18.3799 24.0382 13.1126C24.0842 8.31025 19.9555 4.01389 14.2096 3.96301C8.97222 3.91637 4.32745 7.76049 4.28916 13.0532C4.25394 17.9417 8.46838 22.1236 14.13 22.2L14.1315 22.1985ZM1.08392 12.0766V14.075H3.24934V12.0766H1.08392ZM13.0504 1.04035V3.02742H15.202V1.04035H13.0504ZM25.0107 12.0766V14.075H27.1516V12.0766H25.0107ZM13.055 23.1158V25.1113H15.1989V23.1158H13.055ZM5.70572 6.64258C6.20496 6.18044 6.7042 5.71971 7.17893 5.28301C6.69041 4.83217 6.18811 4.36579 5.7195 3.93192C5.23251 4.38134 4.72868 4.84772 4.24782 5.29149C4.72102 5.73102 5.22026 6.19316 5.70572 6.64258ZM24.0704 5.30562C23.5666 4.84207 23.0643 4.3771 22.5895 3.9404C22.1194 4.37286 21.6186 4.83359 21.1485 5.26605C21.637 5.71689 22.1393 6.18327 22.6339 6.63976C23.1133 6.19457 23.611 5.73243 24.0704 5.30562ZM5.70419 22.2381C6.19424 21.7887 6.6996 21.3237 7.17587 20.887C6.68735 20.4362 6.18352 19.9698 5.7195 19.5416C5.23558 19.9868 4.73021 20.4517 4.24935 20.8955C4.72562 21.335 5.22486 21.7958 5.70419 22.2381ZM24.0872 20.8842C23.6002 20.4319 23.0979 19.9656 22.6263 19.5274C22.1378 19.9783 21.6324 20.4432 21.1668 20.8715C21.6508 21.3167 22.1561 21.7802 22.637 22.2212C23.1087 21.7859 23.6079 21.3251 24.0857 20.8842H24.0872Z" fill="#B1B1B1"/>
<path d="M6.11293 12.8076C6.3212 8.4236 10.3289 5.4755 14.4683 5.64368C19.1973 5.83589 22.3918 9.52172 22.2157 13.3418C22.0136 17.7258 18.0013 20.6739 13.8619 20.5057C9.13287 20.3135 5.94294 16.6277 6.11293 12.8076ZM14.1926 9.0087C14.1345 9.04544 14.0839 9.06806 14.0456 9.10197C13.0609 9.93439 12.0716 10.7626 11.0961 11.6035C10.211 12.3666 9.71786 13.2754 9.84038 14.4343C9.98433 15.7953 11.211 16.5528 12.5556 16.4213C13.0517 16.3733 13.4484 16.1387 13.845 15.8532C13.7118 16.3026 13.5786 16.7521 13.4392 17.2198H14.8772C14.7302 16.728 14.5893 16.2546 14.4469 15.7811C14.9874 16.2956 15.6414 16.4637 16.3749 16.3888C17.1605 16.3097 17.8206 15.9974 18.1789 15.3275C18.7363 14.2873 18.6536 13.2316 17.8879 12.3313C17.257 11.5879 16.476 10.9491 15.7378 10.2849C15.2447 9.84112 14.7118 9.43551 14.1911 9.00728L14.1926 9.0087Z" fill="#B1B1B1"/>
</svg>
