<svg width="94" height="29" viewBox="0 0 94 29" fill="none" xmlns="http://www.w3.org/2000/svg">
<path d="M12.6219 5.26741C9.60231 5.26741 6.40154 6.64279 5.2239 8.48638C5.10312 8.69123 4.92194 8.77901 4.68037 8.77901C4.19724 8.77901 3.92547 8.51565 3.92547 8.16448V0H0V28.3562H3.92547V26.1029C3.92547 25.7518 4.19724 25.4591 4.55959 25.4591C4.92194 25.4591 5.10312 25.5762 5.2239 25.7518C6.40154 27.5954 9.60231 29 12.6219 29C18.4799 29 24.7003 24.8153 24.7003 17.0898C24.7305 9.42281 18.5101 5.26741 12.6219 5.26741ZM20.4729 17.1191C20.4729 21.8597 16.8795 25.4591 12.1992 25.4591C7.4886 25.4591 3.92547 21.8597 3.92547 17.1191C3.92547 12.3784 7.4584 8.80828 12.1992 8.80828C16.8795 8.80828 20.4729 12.3784 20.4729 17.1191ZM59.1237 14.1342V28.3855H55.1982V14.1927C55.1982 10.8567 52.8429 9.10092 50.5178 9.10092C47.3171 9.10092 45.4751 11.2079 45.4751 14.8658V28.3855H41.5496V14.8658C41.5496 11.1786 39.7077 9.10092 36.5069 9.10092C34.1516 9.10092 31.7963 10.8567 31.7963 14.1927V28.3855H27.8709V14.1342C27.8709 8.04744 32.1587 5.26741 36.1748 5.26741C39.4057 5.26741 41.9724 6.73058 42.8783 9.04239C42.9688 9.30576 43.2406 9.45208 43.5124 9.45208H43.603C43.8747 9.45208 44.1163 9.30576 44.2371 9.04239C45.1128 6.70132 47.6492 5.26742 50.9406 5.26742C54.8359 5.26741 59.1237 8.04743 59.1237 14.1342ZM94 14.1342V28.3855H90.0745V14.1927C90.0745 10.8567 87.7192 9.10092 85.3942 9.10092C82.1934 9.10092 80.3514 11.2079 80.3514 14.8658V28.3855H76.426V14.8658C76.426 11.1786 74.584 9.10092 71.3832 9.10092C69.0582 9.10092 66.7029 10.8567 66.7029 14.1927V28.3855H62.717V14.1342C62.717 8.04744 67.0048 5.26741 71.0209 5.26741C74.2519 5.26741 76.8185 6.73058 77.7244 9.04239C77.815 9.30576 78.0867 9.45208 78.3283 9.45208H78.4491C78.7208 9.45208 78.9624 9.30576 79.0832 9.04239C79.9589 6.70132 82.5557 5.26742 85.7867 5.26742C89.7122 5.26741 94 8.04743 94 14.1342Z" fill="#9D9E9F"/>
</svg>
