<svg width="104" height="23" viewBox="0 0 104 23" fill="none" xmlns="http://www.w3.org/2000/svg">
<path d="M21.0746 0.857422H0.168945V22.9407H21.0746V0.857422Z" fill="#9D9E9F"/>
<path d="M18.2039 5.45043C18.2039 5.45043 16.2921 5.34314 14.2971 4.76375C12.3021 4.18435 10.6218 3.28308 10.6218 3.28308C10.6218 3.28308 8.94154 4.18435 6.94657 4.76375C4.9516 5.34314 3.03975 5.45043 3.03975 5.45043C3.03975 5.45043 2.56179 11.6091 5.22175 15.622C8.06962 19.9183 10.6218 20.5146 10.6218 20.5146C10.6218 20.5146 13.174 19.9183 16.0219 15.622C18.6819 11.6091 18.2039 5.45043 18.2039 5.45043Z" fill="white"/>
<path d="M13.6502 10.8633V9.80109C13.6502 8.29596 12.3081 7.07581 10.6526 7.07581C8.99701 7.07581 7.65491 8.29596 7.65491 9.80109V10.8633H6.86523C6.86523 10.8633 6.86523 12.741 6.86523 14.4791C6.86523 16.2173 8.08092 16.7216 8.94333 16.7216C9.56243 16.7216 10.2082 16.7216 10.5234 16.7216C10.6473 16.7216 10.7201 16.7216 10.7201 16.7216C11.0353 16.7216 11.6811 16.7216 12.3002 16.7216C13.1626 16.7216 14.3783 16.2173 14.3783 14.4791C14.3783 12.741 14.3783 10.8633 14.3783 10.8633H13.6502ZM11.5409 15.3911H10.6266H9.71222L10.0693 13.647C9.85224 13.4999 9.71222 13.269 9.71222 13.0092C9.71222 12.5648 10.1216 12.2045 10.6266 12.2045C11.1316 12.2045 11.5409 12.5648 11.5409 13.0092C11.5409 13.269 11.4009 13.4999 11.1838 13.647L11.5409 15.3911ZM12.7774 10.8633H10.637H10.6065H8.48615V9.74207C8.48615 8.69619 9.44678 7.84833 10.6318 7.84833C11.8168 7.84833 12.7774 8.69619 12.7774 9.74207L12.7774 10.8633Z" fill="#848484"/>
<path d="M27.5244 9.80719H28.3786L29.6961 14.0978H29.7033L31.0642 9.80719H31.846L30.1231 15.0397H29.2545L27.5244 9.80719Z" fill="#9D9E9F"/>
<path d="M36.4777 10.4874H33.6618V12.0422H35.4353V12.7075H33.6618V14.3744H36.4777V15.0397H32.8945V9.80719H36.4777V10.4874Z" fill="#9D9E9F"/>
<path d="M39.2207 12.8495H38.4172V15.0397H37.6499V9.80719H39.3365C40.4296 9.80719 41.0666 10.4127 41.0666 11.3097C41.0666 11.8105 40.8277 12.5056 39.9736 12.7523L41.3489 15.0397H40.4875L39.2207 12.8495ZM39.2786 10.4799H38.4172V12.1768H39.2786C39.8867 12.1768 40.2993 11.8628 40.2993 11.3097C40.2993 10.7341 39.8867 10.4799 39.2786 10.4799Z" fill="#9D9E9F"/>
<path d="M42.3828 9.80719H43.1501V15.0397H42.3828V9.80719Z" fill="#9D9E9F"/>
<path d="M45.4372 12.8495V15.0397H44.6699V9.80719H48.1228V10.4874H45.4372V12.1767H47.3989V12.8495H45.4372Z" fill="#9D9E9F"/>
<path d="M49.1426 9.80719H49.9099V15.0397H49.1426V9.80719Z" fill="#9D9E9F"/>
<path d="M55.0129 10.4874H52.197V12.0422H53.9705V12.7075H52.197V14.3744H55.0129V15.0397H51.4297V9.80719H55.0129V10.4874Z" fill="#9D9E9F"/>
<path d="M57.7414 15.0397H56.1851V9.80719H57.7414C59.3991 9.80719 60.3546 10.8686 60.3546 12.4234C60.3546 13.9782 59.3991 15.0397 57.7414 15.0397ZM57.6328 10.4725H56.9524V14.3819H57.6328C58.82 14.3819 59.5656 13.739 59.5656 12.4234C59.5656 11.1153 58.82 10.4725 57.6328 10.4725Z" fill="#9D9E9F"/>
<path d="M67.4906 15.0392H66.5206L65.9705 14.4113C65.7026 14.7925 65.2538 15.1289 64.6024 15.1289C63.7047 15.1289 63.0967 14.4487 63.0967 13.6788C63.0967 13.0658 63.4224 12.565 63.9798 12.1165C63.6613 11.7428 63.531 11.3765 63.531 11.0102C63.531 10.1506 64.2042 9.71704 64.8774 9.71704C65.5144 9.71704 66.1587 10.1057 66.1587 10.8831C66.1587 11.0775 66.1153 11.3092 65.9777 11.526L65.3479 11.4064C65.4203 11.2345 65.4638 11.0924 65.4638 10.9728C65.4638 10.6215 65.2032 10.3748 64.8847 10.3748C64.4793 10.3748 64.2621 10.6664 64.2621 11.0027C64.2621 11.2718 64.3924 11.5409 64.7037 11.9072C65.1453 12.423 65.8329 13.1779 65.9126 13.2676C66.1153 12.9014 66.2745 12.4902 66.3686 12.2137H67.1866C66.9694 12.8117 66.6726 13.3648 66.412 13.8058L67.4906 15.0093V15.0392ZM64.3924 12.6472C64.0377 12.9911 63.864 13.2676 63.864 13.6339C63.864 14.1048 64.2549 14.4337 64.6385 14.4337C64.9571 14.4337 65.2973 14.2244 65.5 13.8881L64.3924 12.6472Z" fill="#9D9E9F"/>
<path d="M72.8101 10.9056C72.5278 10.629 72.0934 10.3973 71.7315 10.3973C71.3189 10.3973 70.9135 10.6215 70.9135 11.07C70.9135 11.4064 71.1307 11.6306 71.5795 11.8698L71.9993 12.0941C72.7811 12.5127 73.2154 12.8789 73.2154 13.6414C73.2154 14.3814 72.6363 15.1289 71.5722 15.1289C70.8411 15.1289 70.3199 14.8374 69.9146 14.4038L70.3272 13.8507C70.7108 14.2618 71.1307 14.4487 71.565 14.4487C72.1079 14.4487 72.4554 14.1048 72.4554 13.6788C72.4554 13.2452 72.1803 13.0583 71.5722 12.7294L71.1958 12.5276C70.5226 12.1688 70.1462 11.7428 70.1462 11.1149C70.1462 10.2403 70.8701 9.71704 71.7098 9.71704C72.2744 9.71704 72.8318 9.96372 73.2227 10.33L72.8101 10.9056Z" fill="#9D9E9F"/>
<path d="M78.0139 10.4874H75.198V12.0422H76.9715V12.7075H75.198V14.3744H78.0139V15.0397H74.4307V9.80719H78.0139V10.4874Z" fill="#9D9E9F"/>
<path d="M81.3503 14.4412C82.1394 14.4412 82.675 14.0002 82.9067 13.305H83.7247C83.4134 14.4337 82.4941 15.1289 81.3576 15.1289C79.8736 15.1289 78.7227 14.0002 78.7227 12.423C78.7227 10.8458 79.8736 9.71704 81.3576 9.71704C82.4941 9.71704 83.4134 10.4122 83.7247 11.5409H82.9067C82.675 10.8458 82.1394 10.4047 81.3503 10.4047C80.25 10.4047 79.5117 11.2793 79.5117 12.423C79.5117 13.5666 80.25 14.4412 81.3503 14.4412Z" fill="#9D9E9F"/>
<path d="M84.8384 13.3129V9.80719H85.6057V13.298C85.6057 13.9035 85.8808 14.4566 86.6408 14.4566C87.4009 14.4566 87.676 13.9035 87.676 13.298V9.80719H88.4216V13.3129C88.4216 14.3146 87.8425 15.1294 86.6336 15.1294C85.4247 15.1294 84.8384 14.3146 84.8384 13.3129Z" fill="#9D9E9F"/>
<path d="M91.4683 12.8495H90.6648V15.0397H89.8975V9.80719H91.5841C92.6772 9.80719 93.3142 10.4127 93.3142 11.3097C93.3142 11.8105 93.0753 12.5056 92.2211 12.7523L93.5965 15.0397H92.7351L91.4683 12.8495ZM91.5262 10.4799H90.6648V12.1768H91.5262C92.1343 12.1768 92.5469 11.8628 92.5469 11.3097C92.5469 10.7341 92.1342 10.4799 91.5262 10.4799Z" fill="#9D9E9F"/>
<path d="M98.2136 10.4874H95.3977V12.0422H97.1712V12.7075H95.3977V14.3744H98.2136V15.0397H94.6304V9.80719H98.2136V10.4874Z" fill="#9D9E9F"/>
<path d="M100.942 15.0397H99.3857V9.80719H100.942C102.6 9.80719 103.555 10.8686 103.555 12.4234C103.555 13.9782 102.6 15.0397 100.942 15.0397ZM100.834 10.4725H100.153V14.3819H100.834C102.021 14.3819 102.766 13.739 102.766 12.4234C102.766 11.1153 102.021 10.4725 100.834 10.4725Z" fill="#9D9E9F"/>
<path d="M34.6714 17.3155H35.0015H35.3316L35.986 19.6621H35.9845L36.6368 17.3155H36.9563H37.2778L36.27 20.3872H35.9746H35.6791L34.6714 17.3155Z" fill="#848484"/>
<path d="M38.2935 20.387V17.3152H40.483V17.5869V17.8607H38.9147V18.5126H40.3697V18.7759V19.0413H38.9147V19.8416H40.5518V20.1132V20.387L38.2935 20.387Z" fill="#848484"/>
<path d="M41.6792 17.3152H41.9888H43.1787C43.462 17.3152 43.6903 17.3936 43.8637 17.5503C44.037 17.7071 44.1237 17.9136 44.1237 18.1699C44.1237 18.4653 44.0272 18.6812 43.8343 18.8177C43.783 18.8539 43.7251 18.8845 43.6603 18.9096C43.6967 18.925 43.7298 18.9417 43.7595 18.9598C43.9295 19.0643 44.0178 19.2398 44.0245 19.4864L44.0387 19.99C44.0414 20.0903 44.0515 20.1613 44.0691 20.2031C44.0866 20.2449 44.1203 20.2783 44.1703 20.3034V20.3849H43.4838C43.4676 20.3528 43.4534 20.2843 43.4413 20.1791C43.4292 20.0739 43.4224 19.9607 43.4211 19.8395L43.4171 19.5553C43.4144 19.4174 43.375 19.3192 43.2988 19.2607C43.2226 19.2022 43.0963 19.1729 42.9197 19.1729H42.3004V20.387H41.9908H41.6792V17.3152ZM42.3004 18.6568H43.0208C43.1814 18.6568 43.3018 18.623 43.382 18.5554C43.4623 18.4879 43.5024 18.3859 43.5024 18.2493C43.5024 18.1142 43.4643 18.0129 43.3881 17.9453C43.3119 17.8777 43.1976 17.8439 43.0451 17.8439H42.3004V18.6568Z" fill="#848484"/>
<path d="M45.2427 17.3152H45.5523H45.8639V20.387H45.5543H45.2427V17.3152Z" fill="#848484"/>
<path d="M47.0659 17.3152H47.3755H48.5654C48.8487 17.3152 49.077 17.3936 49.2504 17.5503C49.4237 17.7071 49.5104 17.9136 49.5104 18.1699C49.5104 18.4653 49.4139 18.6812 49.221 18.8177C49.1697 18.8539 49.1118 18.8845 49.047 18.9096C49.0834 18.925 49.1165 18.9417 49.1462 18.9598C49.3162 19.0643 49.4045 19.2398 49.4113 19.4864L49.4254 19.99C49.4281 20.0903 49.4382 20.1613 49.4558 20.2031C49.4733 20.2449 49.507 20.2783 49.557 20.3034V20.3849H48.8706C48.8544 20.3528 48.8402 20.2843 48.828 20.1791C48.8159 20.0739 48.8091 19.9607 48.8078 19.8395L48.8038 19.5553C48.8011 19.4174 48.7617 19.3192 48.6855 19.2607C48.6093 19.2022 48.483 19.1729 48.3064 19.1729H47.6872V20.387H47.3776H47.0659V17.3152ZM47.6872 18.6568H48.4076C48.5681 18.6568 48.6885 18.623 48.7688 18.5554C48.849 18.4879 48.8892 18.3859 48.8892 18.2493C48.8892 18.1142 48.851 18.0129 48.7748 17.9453C48.6986 17.8777 48.5843 17.8439 48.4318 17.8439H47.6872V18.6568Z" fill="#848484"/>
<path d="M51.4654 19.2314L50.4272 17.3152H50.7961H51.1669L51.786 18.6463L51.7851 18.6484L52.3659 17.3152H52.718H53.0701L52.0866 19.2189V20.387H51.777H51.4654L51.4654 19.2314Z" fill="#848484"/>
<path d="M57.4504 18.2369C57.4396 18.0906 57.3775 17.9747 57.2643 17.889C57.151 17.8033 57.0034 17.7605 56.8214 17.7605C56.6636 17.7605 56.5402 17.7964 56.4512 17.8681C56.3623 17.9399 56.3178 18.0398 56.3178 18.168C56.3178 18.2599 56.3643 18.331 56.4574 18.3811C56.5491 18.4312 56.744 18.4905 57.0422 18.5587C57.4751 18.659 57.7644 18.7747 57.9101 18.9056C58.056 19.0351 58.129 19.2434 58.129 19.5304C58.129 19.8188 58.019 20.0476 57.7992 20.2168C57.5794 20.3861 57.282 20.4707 56.9071 20.4707C56.5307 20.4707 56.2367 20.3808 56.0249 20.2011C55.8132 20.0214 55.6999 19.7658 55.6851 19.4343H56.284C56.2908 19.5973 56.3481 19.7226 56.456 19.8104C56.5639 19.8981 56.7142 19.942 56.9071 19.942C57.1053 19.942 57.2601 19.909 57.3714 19.8428C57.4826 19.7766 57.5382 19.685 57.5382 19.568C57.5382 19.4524 57.4981 19.3674 57.4179 19.3131C57.3397 19.2587 57.1726 19.2023 56.9164 19.1438C56.4445 19.0351 56.1291 18.9174 55.97 18.7907C55.8121 18.6653 55.7331 18.4696 55.7331 18.2035C55.7331 17.9054 55.8376 17.6689 56.0467 17.494C56.2557 17.3192 56.5382 17.2318 56.8942 17.2318C57.2273 17.2318 57.4984 17.3224 57.7074 17.5034C57.9164 17.6846 58.0324 17.9291 58.0554 18.2369H57.4504Z" fill="#848484"/>
<path d="M59.2241 20.387V17.3152H61.4136V17.5869V17.8607H59.8454V18.5126H61.3003V18.7759V19.0413H59.8454V19.8416H61.4824V20.1132V20.387L59.2241 20.387Z" fill="#848484"/>
<path d="M65.1285 19.311C65.0908 19.6662 64.9562 19.9483 64.7248 20.1573C64.4935 20.3662 64.199 20.4707 63.8415 20.4707C63.4233 20.4707 63.0911 20.3265 62.8449 20.0382C62.5987 19.7498 62.4756 19.3597 62.4756 18.868C62.4756 18.3665 62.5987 17.9684 62.8449 17.6738C63.0911 17.3791 63.4233 17.2318 63.8415 17.2318C64.195 17.2318 64.4877 17.3304 64.7198 17.5275C64.9518 17.7246 65.0881 17.9917 65.1285 18.3288H64.5073C64.487 18.1631 64.4178 18.0315 64.2995 17.9339C64.1813 17.8364 64.0311 17.7876 63.8487 17.7876C63.6176 17.7876 63.4366 17.8827 63.3056 18.0729C63.1745 18.263 63.109 18.5267 63.109 18.8638C63.109 19.1926 63.1742 19.4499 63.3045 19.6359C63.4349 19.8219 63.6163 19.9149 63.8487 19.9149C64.0311 19.9149 64.1813 19.8605 64.2995 19.7519C64.4178 19.6432 64.487 19.4963 64.5073 19.311L65.1285 19.311Z" fill="#848484"/>
<path d="M68.6071 19.2293C68.6084 19.6682 68.515 19.9847 68.3268 20.1791C68.1386 20.3734 67.8321 20.4706 67.4071 20.4706C66.9997 20.4706 66.6978 20.3692 66.5015 20.1665C66.3052 19.9638 66.2064 19.6514 66.2051 19.2293V17.3152H66.5147H66.8263V19.2502C66.8263 19.4704 66.8745 19.6354 66.971 19.7455C67.0675 19.8555 67.2128 19.9105 67.4071 19.9105C67.6148 19.9105 67.7632 19.8601 67.8523 19.7591C67.9413 19.6581 67.9858 19.4884 67.9858 19.2502V17.3152H68.2954H68.6071V19.2293Z" fill="#848484"/>
<path d="M69.8374 17.3152H70.147H71.3369C71.6202 17.3152 71.8485 17.3936 72.0219 17.5503C72.1952 17.7071 72.2819 17.9136 72.2819 18.1699C72.2819 18.4653 72.1854 18.6812 71.9925 18.8177C71.9412 18.8539 71.8833 18.8845 71.8185 18.9096C71.8549 18.925 71.888 18.9417 71.9176 18.9598C72.0877 19.0643 72.176 19.2398 72.1828 19.4864L72.1969 19.99C72.1996 20.0903 72.2097 20.1613 72.2273 20.2031C72.2448 20.2449 72.2785 20.2783 72.3285 20.3034V20.3849H71.642C71.6258 20.3528 71.6116 20.2843 71.5995 20.1791C71.5874 20.0739 71.5806 19.9607 71.5793 19.8395L71.5753 19.5553C71.5726 19.4174 71.5331 19.3192 71.457 19.2607C71.3808 19.2022 71.2545 19.1729 71.0778 19.1729H70.4586V20.387H70.149H69.8374V17.3152ZM70.4586 18.6568H71.1791C71.3396 18.6568 71.46 18.623 71.5403 18.5554C71.6205 18.4879 71.6607 18.3859 71.6607 18.2493C71.6607 18.1142 71.6225 18.0129 71.5463 17.9453C71.4701 17.8777 71.3557 17.8439 71.2033 17.8439H70.4586V18.6568Z" fill="#848484"/>
<path d="M73.4009 17.3152H73.7105H74.0222V20.387H73.7125H73.4009V17.3152Z" fill="#848484"/>
<path d="M75.8657 17.8607H74.9673V17.589V17.3152H77.3854V17.5869V17.8607H76.487V20.387H76.1774H75.8657V17.8607Z" fill="#848484"/>
<path d="M79.1626 19.2314L78.1245 17.3152H78.4934H78.8642L79.4833 18.6463L79.4824 18.6484L80.0632 17.3152H80.4153H80.7674L79.7839 19.2189V20.387H79.4743H79.1626V19.2314Z" fill="#848484"/>
<path d="M83.5132 17.3152H83.8228H84.1345V18.4666H85.298V17.3152H85.6076H85.9192V20.387H85.6097H85.298V18.9953H84.1345V20.387H83.8248H83.5132V17.3152Z" fill="#848484"/>
<path d="M87.1494 20.387V17.3152H89.3389V17.5869V17.8607H87.7707V18.5126H89.2256V18.7759V19.0413H87.7707V19.8416H89.4077V20.1132V20.387L87.1494 20.387Z" fill="#848484"/>
<path d="M90.5352 17.3152H90.8448H92.0347C92.3179 17.3152 92.5462 17.3936 92.7196 17.5503C92.893 17.7071 92.9797 17.9136 92.9797 18.1699C92.9797 18.4653 92.8832 18.6812 92.6903 18.8177C92.639 18.8539 92.581 18.8845 92.5163 18.9096C92.5527 18.925 92.5857 18.9417 92.6154 18.9598C92.7854 19.0643 92.8737 19.2398 92.8805 19.4864L92.8947 19.99C92.8974 20.0903 92.9074 20.1613 92.925 20.2031C92.9425 20.2449 92.9763 20.2783 93.0262 20.3034V20.3849H92.3398C92.3236 20.3528 92.3094 20.2843 92.2972 20.1791C92.2851 20.0739 92.2784 19.9607 92.277 19.8395L92.2731 19.5553C92.2704 19.4174 92.2309 19.3192 92.1548 19.2607C92.0786 19.2022 91.9522 19.1729 91.7756 19.1729H91.1564V20.387H90.8468H90.5352V17.3152ZM91.1564 18.6568H91.8768C92.0373 18.6568 92.1577 18.623 92.238 18.5554C92.3183 18.4879 92.3584 18.3859 92.3584 18.2493C92.3584 18.1142 92.3203 18.0129 92.2441 17.9453C92.1679 17.8777 92.0535 17.8439 91.9011 17.8439H91.1564V18.6568Z" fill="#848484"/>
<path d="M94.1489 20.387V17.3152H96.3384V17.5869V17.8607H94.7702V18.5126H96.2252V18.7759V19.0413H94.7702V19.8416H96.4073V20.1132V20.387L94.1489 20.387Z" fill="#848484"/>
<path d="M48.1625 7.97874C47.5428 7.97874 47.0509 7.77239 46.687 7.35972C46.3231 6.94705 46.1411 6.38888 46.1411 5.6851C46.1411 4.96742 46.3303 4.39774 46.7087 3.97611C47.0871 3.55447 47.5987 3.34363 48.2436 3.34363C48.7609 3.34363 49.1871 3.47721 49.5221 3.74436C49.857 4.01153 50.0525 4.37234 50.1085 4.82688H49.2195C49.1963 4.63548 49.0919 4.46756 48.9063 4.32299C48.7208 4.17846 48.5159 4.10619 48.2917 4.10619C47.9051 4.10619 47.6026 4.24424 47.3843 4.52035C47.1659 4.79648 47.0567 5.17972 47.0567 5.67015C47.0567 6.16858 47.1614 6.54784 47.371 6.80801C47.5805 7.06817 47.8871 7.19825 48.2908 7.19825H48.2878C48.6315 7.19825 48.9 7.06268 49.0931 6.79154C49.1993 6.63807 49.2776 6.45765 49.3278 6.25028V6.24131H48.3256V5.48477H50.1086V7.85614H49.5149L49.4281 7.28795L49.3759 7.35972C49.0767 7.77239 48.6712 7.97874 48.1596 7.97874H48.1625Z" fill="#9D9E9F"/>
<path d="M51.9594 7.35972C51.5906 6.94705 51.4062 6.38888 51.4062 5.6851C51.4062 4.96742 51.5906 4.39774 51.9594 3.97611C52.3281 3.55447 52.8253 3.34363 53.4508 3.34363C54.0801 3.34363 54.5787 3.55447 54.9465 3.97611C55.3143 4.39774 55.4982 4.96742 55.4982 5.6851C55.4982 6.38888 55.3143 6.94705 54.9465 7.35972C54.5787 7.77239 54.0801 7.97874 53.4508 7.97874C52.8253 7.97874 52.3281 7.77239 51.9594 7.35972ZM54.3022 6.79603C54.5068 6.52793 54.6091 6.15561 54.6091 5.67911C54.6091 5.19271 54.5068 4.8119 54.3022 4.53679C54.0975 4.26167 53.8137 4.12412 53.4508 4.12412C53.0897 4.12412 52.8069 4.26167 52.6023 4.53679C52.3976 4.8119 52.2953 5.19271 52.2953 5.67911C52.2953 6.15561 52.3971 6.52793 52.6008 6.79603C52.8045 7.0642 53.0878 7.19825 53.4508 7.19825C53.8137 7.19825 54.0975 7.0642 54.3022 6.79603Z" fill="#9D9E9F"/>
<path d="M56.8623 3.46313H57.3054H58.6838C59.2687 3.46313 59.7133 3.64061 60.0174 3.99543C60.3214 4.35029 60.4734 4.86965 60.4734 5.55341C60.4734 6.30697 60.3157 6.87966 60 7.27139C59.6843 7.66313 59.2215 7.85899 58.6114 7.85899H57.3054H56.8623V3.46313ZM57.7513 7.10242H58.5013C58.8624 7.10242 59.1331 6.97636 59.3137 6.72414C59.4942 6.47198 59.5844 6.09367 59.5844 5.58929C59.5844 5.13279 59.5005 4.79041 59.3325 4.5621C59.1646 4.33385 58.9116 4.21971 58.5738 4.21971H57.7513V7.10242Z" fill="#9D9E9F"/>
<path d="M62.9698 3.46313H63.4852H64.0007L65.5066 7.85899H65.0351H64.5635L64.2756 6.96486H62.661L62.3824 7.85899H61.9246H61.4639L62.9698 3.46313ZM62.9079 6.20831H64.038L63.4725 4.44098H63.4734L62.9079 6.20831Z" fill="#9D9E9F"/>
<path d="M66.7314 3.46313H67.1745H68.553C69.1379 3.46313 69.5825 3.64061 69.8865 3.99543C70.1906 4.35029 70.3426 4.86965 70.3426 5.55341C70.3426 6.30697 70.1848 6.87966 69.8692 7.27139C69.5535 7.66313 69.0906 7.85899 68.4806 7.85899H67.1745H66.7314V3.46313ZM67.6205 7.10242H68.3705C68.7316 7.10242 69.0023 6.97636 69.1829 6.72414C69.3633 6.47198 69.4536 6.09367 69.4536 5.58929C69.4536 5.13279 69.3696 4.79041 69.2017 4.5621C69.0337 4.33385 68.7808 4.21971 68.443 4.21971H67.6205V7.10242Z" fill="#9D9E9F"/>
<path d="M71.6665 3.46313H72.1096H73.488C74.073 3.46313 74.5175 3.64061 74.8216 3.99543C75.1257 4.35029 75.2777 4.86965 75.2777 5.55341C75.2777 6.30697 75.1199 6.87966 74.8042 7.27139C74.4886 7.66313 74.0257 7.85899 73.4156 7.85899H72.1096H71.6665V3.46313ZM72.5556 7.10242H73.3056C73.6666 7.10242 73.9373 6.97636 74.1179 6.72414C74.2984 6.47198 74.3887 6.09367 74.3887 5.58929C74.3887 5.13279 74.3047 4.79041 74.1367 4.5621C73.9688 4.33385 73.7158 4.21971 73.378 4.21971H72.5556V7.10242Z" fill="#9D9E9F"/>
<path d="M77.7249 6.2053L76.2393 3.46313H76.7671H77.2978L78.1837 5.36799L78.1824 5.37091L79.0137 3.46313H79.5175H80.0214L78.6139 6.18737V7.85899H78.1708H77.7249L77.7249 6.2053Z" fill="#9D9E9F"/>
<path d="M81.9209 4.50537H82.1538H83.0491C83.2623 4.50537 83.4341 4.56433 83.5646 4.68226C83.695 4.80017 83.7602 4.95559 83.7602 5.14842C83.7602 5.37066 83.6876 5.53312 83.5424 5.63581C83.5039 5.66308 83.4602 5.68615 83.4115 5.70501C83.4389 5.71655 83.4638 5.72913 83.4861 5.74274C83.614 5.82134 83.6805 5.95341 83.6856 6.13894L83.6962 6.51786C83.6982 6.59334 83.7059 6.6468 83.7191 6.67825C83.7322 6.70967 83.7576 6.73484 83.7952 6.7537V6.81502H83.2787C83.2666 6.79093 83.2559 6.7393 83.2467 6.66015C83.2376 6.58102 83.2325 6.49584 83.2315 6.40465L83.2285 6.19083C83.2265 6.08706 83.1968 6.01318 83.1395 5.96915C83.0822 5.92512 82.9871 5.9031 82.8543 5.9031H82.3883V6.81659H82.1554H81.9209L81.9209 4.50537ZM82.3883 5.51475H82.9304C83.0512 5.51475 83.1418 5.48935 83.2022 5.43852C83.2626 5.38768 83.2928 5.31092 83.2928 5.20817C83.2928 5.10652 83.264 5.03026 83.2068 4.97942C83.1494 4.92859 83.0633 4.90315 82.9486 4.90315H82.3883V5.51475Z" fill="#9D9E9F"/>
<path d="M82.8581 8.04074C81.5873 8.04074 80.5537 6.97327 80.5537 5.6612C80.5537 4.34913 81.5873 3.2818 82.8581 3.2818C84.1289 3.2818 85.1625 4.34913 85.1625 5.6612C85.1625 6.97327 84.1289 8.04074 82.8581 8.04074ZM82.8581 3.74334C81.8338 3.74334 81.0007 4.60364 81.0007 5.66119C81.0007 6.71875 81.8338 7.5792 82.8581 7.5792C83.8824 7.5792 84.7155 6.71875 84.7155 5.66119C84.7155 4.60364 83.8824 3.74334 82.8581 3.74334Z" fill="#9D9E9F"/>
</svg>
