<svg width="130" height="34" viewBox="0 0 130 34" fill="none" xmlns="http://www.w3.org/2000/svg">
<g clip-path="url(#clip0_1288_14574)">
<path d="M35.3447 9.46552H41.8936V11.7101H39.7348V21.4286H37.4471V11.7101H35.3447V9.46552Z" fill="#9D9E9F"/>
<path d="M42.794 9.16464H44.9769V13.4749C45.4065 13.1008 45.8388 12.8202 46.2738 12.6332C46.7088 12.4461 47.149 12.3526 47.5948 12.3526C48.4648 12.3526 49.1979 12.6563 49.7939 13.2635C50.3041 13.7894 50.5592 14.562 50.5592 15.5813V21.4287H48.3923V17.5494C48.3923 16.5247 48.344 15.8307 48.2473 15.4674C48.1507 15.1042 47.9855 14.8331 47.7519 14.6542C47.5183 14.4752 47.2296 14.3858 46.886 14.3858C46.4402 14.3858 46.0576 14.535 45.7381 14.8331C45.4186 15.1313 45.1971 15.538 45.0736 16.053C45.0091 16.3187 44.9769 16.926 44.9769 17.8747V21.4287H42.7939L42.794 9.16464Z" fill="#9D9E9F"/>
<path d="M51.7578 12.5803H53.6427V13.6945C53.8468 13.2553 54.118 12.9219 54.4563 12.6942C54.7946 12.4665 55.1652 12.3526 55.5679 12.3526C55.8525 12.3526 56.1506 12.4286 56.4621 12.5803L55.7774 14.4915C55.5196 14.3614 55.3074 14.2963 55.141 14.2963C54.8027 14.2963 54.5167 14.5078 54.2831 14.9307C54.0495 15.3536 53.9327 16.1831 53.9327 17.4193L53.9408 17.8503V21.4286H51.7578V12.5803Z" fill="#9D9E9F"/>
<path d="M65.9176 17.647H58.8531C58.9551 18.276 59.2277 18.7762 59.6707 19.1475C60.1138 19.5189 60.6789 19.7045 61.3664 19.7045C62.188 19.7045 62.8941 19.4145 63.4849 18.8343L65.3376 19.7127C64.8756 20.3742 64.3226 20.8634 63.6782 21.1806C63.0338 21.4978 62.2685 21.6563 61.3825 21.6563C60.0077 21.6563 58.888 21.2186 58.0234 20.343C57.1588 19.4675 56.7266 18.3708 56.7266 17.0533C56.7266 15.7033 57.1575 14.5824 58.0194 13.6904C58.8813 12.7986 59.962 12.3526 61.2616 12.3526C62.6417 12.3526 63.764 12.7986 64.6287 13.6904C65.4933 14.5824 65.9256 15.7602 65.9256 17.2241L65.9176 17.647ZM63.7185 15.8984C63.5732 15.4052 63.2868 15.0039 62.8591 14.6948C62.4314 14.3858 61.9352 14.2313 61.3704 14.2313C60.7572 14.2313 60.2193 14.4049 59.7567 14.7518C59.4662 14.9687 59.1972 15.3509 58.9498 15.8984L63.7185 15.8984Z" fill="#9D9E9F"/>
<path d="M73.7535 12.5803H75.9525V21.4286H73.7535V20.4934C73.3242 20.9055 72.8937 21.2023 72.4621 21.3839C72.0302 21.5655 71.5623 21.6564 71.0581 21.6564C69.9263 21.6564 68.9474 21.2131 68.1213 20.3267C67.2953 19.4403 66.8823 18.3383 66.8823 17.0207C66.8823 15.6545 67.282 14.535 68.0812 13.662C68.8804 12.7891 69.8512 12.3526 70.9938 12.3526C71.5193 12.3526 72.0127 12.453 72.474 12.6535C72.9353 12.8542 73.3617 13.1551 73.7535 13.5562L73.7535 12.5803ZM71.4417 14.402C70.7619 14.402 70.1973 14.6447 69.7477 15.1299C69.2981 15.6152 69.0734 16.2374 69.0734 16.9963C69.0734 17.7609 69.3021 18.3898 69.7597 18.8831C70.2173 19.3766 70.7806 19.6232 71.4496 19.6232C72.1401 19.6232 72.7128 19.3806 73.1677 18.8953C73.6225 18.4102 73.8501 17.7745 73.8501 16.9882C73.8501 16.2184 73.6225 15.5949 73.1677 15.1177C72.7128 14.6407 72.1375 14.402 71.4417 14.402Z" fill="#9D9E9F"/>
<path d="M78.0291 9.31912H80.2282V12.5803H81.5331V14.4915H80.2282V21.4286H78.0291V14.4915H76.9014V12.5803H78.0291V9.31912Z" fill="#9D9E9F"/>
<path d="M84.9251 9.46552H87.1227L89.8695 17.8097L92.6412 9.46552H94.8374L96.8252 21.4286H94.6441L93.3735 13.8734L90.8563 21.4286H88.8685L86.3735 13.8734L85.0726 21.4286H82.8735L84.9251 9.46552Z" fill="#707070"/>
<path d="M106.335 17.647H99.271C99.373 18.276 99.6457 18.7762 100.089 19.1475C100.532 19.5189 101.097 19.7045 101.784 19.7045C102.606 19.7045 103.312 19.4145 103.903 18.8343L105.756 19.7127C105.294 20.3742 104.741 20.8634 104.096 21.1806C103.452 21.4978 102.687 21.6563 101.8 21.6563C100.426 21.6563 99.306 21.2186 98.4414 20.343C97.5767 19.4675 97.1445 18.3708 97.1445 17.0533C97.1445 15.7033 97.5755 14.5824 98.4374 13.6904C99.2993 12.7986 100.38 12.3526 101.68 12.3526C103.06 12.3526 104.182 12.7986 105.047 13.6904C105.911 14.5824 106.344 15.7602 106.344 17.2241L106.335 17.647ZM104.136 15.8984C103.991 15.4052 103.705 15.0039 103.277 14.6948C102.849 14.3858 102.353 14.2313 101.788 14.2313C101.175 14.2313 100.637 14.4049 100.175 14.7518C99.8841 14.9687 99.6152 15.3509 99.3678 15.8984L104.136 15.8984Z" fill="#707070"/>
<path d="M107.969 9.31912H110.168V12.5803H111.473V14.4915H110.168V21.4286H107.969V14.4915H106.841V12.5803H107.969V9.31912Z" fill="#707070"/>
<path d="M112.134 12.5803H114.019V13.6945C114.223 13.2553 114.494 12.9219 114.832 12.6942C115.171 12.4665 115.541 12.3526 115.944 12.3526C116.228 12.3526 116.527 12.4286 116.838 12.5803L116.153 14.4915C115.896 14.3614 115.683 14.2963 115.517 14.2963C115.179 14.2963 114.893 14.5078 114.659 14.9307C114.425 15.3536 114.309 16.1831 114.309 17.4193L114.317 17.8503V21.4286H112.134V12.5803Z" fill="#707070"/>
<path d="M118.783 8.93692C119.169 8.93692 119.499 9.07797 119.775 9.3598C120.051 9.64179 120.189 9.98335 120.189 10.3845C120.189 10.7803 120.052 11.1179 119.779 11.397C119.506 11.6763 119.18 11.8159 118.799 11.8159C118.409 11.8159 118.075 11.6735 117.799 11.3889C117.524 11.1043 117.386 10.7586 117.386 10.352C117.386 9.96161 117.522 9.62819 117.795 9.35166C118.068 9.07517 118.398 8.93692 118.783 8.93692ZM117.684 12.5803H119.883V21.4286H117.684V12.5803Z" fill="#707070"/>
<path d="M121.091 12.5804H123.645L125.377 14.9919L127.1 12.5804H129.611L126.635 16.7443L130 21.4287H127.447L125.362 18.5264L123.288 21.4287H120.777L124.103 16.774L121.091 12.5804Z" fill="#707070"/>
<path d="M10.6259 7.27915C10.2202 6.86952 9.56236 6.86951 9.15663 7.27914L0.30429 16.2166C-0.101436 16.6262 -0.101429 17.2903 0.304303 17.7C0.710029 18.1096 1.36784 18.1096 1.77356 17.7L10.6259 8.76253C11.0316 8.35291 11.0316 7.68878 10.6259 7.27915Z" fill="url(#paint0_linear_1288_14574)"/>
<path d="M21.3885 15.6232C20.9827 15.2136 20.3249 15.2136 19.9192 15.6232L9.81796 25.8215C9.41224 26.2312 9.41224 26.8953 9.81798 27.3049C10.2237 27.7146 10.8815 27.7146 11.2872 27.3049L21.3885 17.1066C21.7942 16.697 21.7942 16.0329 21.3885 15.6232Z" fill="url(#paint1_linear_1288_14574)"/>
<path d="M23.8677 6.70435C23.462 6.29472 22.8042 6.29471 22.3985 6.70434L11.8014 17.4033C11.3956 17.8129 11.3956 18.4771 11.8014 18.8867C12.2071 19.2963 12.8649 19.2963 13.2706 18.8867L23.8677 8.18773C24.2735 7.77811 24.2735 7.11398 23.8677 6.70435Z" fill="url(#paint2_linear_1288_14574)"/>
<path d="M30.2224 13.12C29.8167 12.7104 29.1589 12.7104 28.7531 13.12L22.3067 19.6284C21.901 20.038 21.901 20.7021 22.3067 21.1118C22.7125 21.5214 23.3703 21.5214 23.776 21.1118L30.2224 14.6034C30.6281 14.1938 30.6281 13.5296 30.2224 13.12Z" fill="url(#paint3_linear_1288_14574)"/>
<path d="M20.6994 3.50578C20.2936 3.09614 19.6358 3.09614 19.2301 3.50576L13.0592 9.736C12.6534 10.1456 12.6535 10.8098 13.0592 11.2194C13.4649 11.629 14.1227 11.629 14.5284 11.2194L20.6994 4.98916C21.1051 4.57953 21.1051 3.9154 20.6994 3.50578Z" fill="url(#paint4_linear_1288_14574)"/>
<path d="M33.372 16.3C32.9662 15.8904 32.3084 15.8904 31.9027 16.3L29.4601 18.7661C29.0543 19.1758 29.0543 19.8399 29.4601 20.2495C29.8658 20.6592 30.5236 20.6592 30.9293 20.2495L33.372 17.7834C33.7777 17.3738 33.7777 16.7097 33.372 16.3Z" fill="url(#paint5_linear_1288_14574)"/>
<path d="M28.0069 22.8316H28.0085L28.0085 22.7986C28.0093 22.7742 28.0093 22.7499 28.0085 22.7255L28.0085 20.8501C28.0085 20.2708 27.5434 19.8012 26.9696 19.8012C26.3958 19.8012 25.9306 20.2708 25.9306 20.8501L25.9306 22.3293L16.1446 32.2094C15.7389 32.619 15.7389 33.2832 16.1446 33.6928C16.5504 34.1024 17.2082 34.1024 17.6139 33.6928L27.7059 23.5038C27.8913 23.3167 27.9909 23.0764 28.0069 22.8316Z" fill="url(#paint6_linear_1288_14574)"/>
<path d="M20.8919 23.3639V21.6752C20.8919 21.096 20.4267 20.6263 19.853 20.6263C19.2792 20.6263 18.814 21.096 18.814 21.6752L18.814 23.1545L12.9767 29.0479C12.5709 29.4575 12.5709 30.1217 12.9767 30.5313C13.3824 30.9409 14.0402 30.9409 14.4459 30.5313L20.6077 24.3103C20.8624 24.0532 20.957 23.6957 20.8919 23.3639Z" fill="url(#paint7_linear_1288_14574)"/>
<path d="M11.6446 13.4715L11.6446 11.7829C11.6446 11.2036 11.1795 10.734 10.6057 10.734C10.0319 10.734 9.56673 11.2036 9.56674 11.7829L9.56673 13.2621L3.47226 19.4152C3.06654 19.8248 3.06654 20.4889 3.47227 20.8985C3.878 21.3082 4.53581 21.3082 4.94154 20.8985L11.3604 14.418C11.6151 14.1608 11.7097 13.8033 11.6446 13.4715Z" fill="url(#paint8_linear_1288_14574)"/>
<path d="M14.1188 6.71552L14.1188 5.23631L17.5317 1.79061C17.9374 1.38099 17.9374 0.716844 17.5317 0.307219C17.1259 -0.102406 16.4681 -0.102406 16.0624 0.307219L12.3251 4.08043C12.0704 4.33761 11.9758 4.69505 12.0409 5.0269L12.0409 6.71551C12.0409 7.29481 12.506 7.76442 13.0798 7.76442C13.6536 7.76442 14.1188 7.29481 14.1188 6.71552Z" fill="url(#paint9_linear_1288_14574)"/>
<path d="M24.8443 15.0967L24.8444 13.6175L27.0451 11.3956C27.4508 10.9859 27.4508 10.3218 27.0451 9.91217C26.6394 9.50254 25.9816 9.50254 25.5758 9.91217L23.0507 12.4616C22.796 12.7188 22.7014 13.0762 22.7665 13.4081L22.7665 15.0967C22.7665 15.676 23.2316 16.1456 23.8054 16.1456C24.3792 16.1456 24.8444 15.676 24.8443 15.0967Z" fill="url(#paint10_linear_1288_14574)"/>
<path d="M10.4236 21.1017V19.4131C10.4236 18.8338 9.95848 18.3642 9.38469 18.3642C8.8109 18.3642 8.34576 18.8338 8.34576 19.4131V20.8923L6.64072 22.6137C6.23499 23.0233 6.23499 23.6875 6.64073 24.0971C7.04646 24.5067 7.70427 24.5067 8.10999 24.0971L10.1394 22.0482C10.3941 21.791 10.4887 21.4335 10.4236 21.1017Z" fill="url(#paint11_linear_1288_14574)"/>
</g>
<defs>
<linearGradient id="paint0_linear_1288_14574" x1="5.4651" y1="6.97192" x2="-2.04283" y2="18.8711" gradientUnits="userSpaceOnUse">
<stop stop-color="#9D9E9F"/>
<stop offset="1" stop-color="#9D9E9F" stop-opacity="0"/>
</linearGradient>
<linearGradient id="paint1_linear_1288_14574" x1="15.6032" y1="15.316" x2="7.23744" y2="28.5748" gradientUnits="userSpaceOnUse">
<stop stop-color="#9D9E9F"/>
<stop offset="1" stop-color="#9D9E9F" stop-opacity="0"/>
</linearGradient>
<linearGradient id="paint2_linear_1288_14574" x1="17.8345" y1="6.39713" x2="9.12816" y2="20.1957" gradientUnits="userSpaceOnUse">
<stop stop-color="#9D9E9F"/>
<stop offset="1" stop-color="#9D9E9F" stop-opacity="0"/>
</linearGradient>
<linearGradient id="paint3_linear_1288_14574" x1="26.2646" y1="12.8128" x2="20.4093" y2="22.0927" gradientUnits="userSpaceOnUse">
<stop stop-color="#9D9E9F"/>
<stop offset="1" stop-color="#9D9E9F" stop-opacity="0"/>
</linearGradient>
<linearGradient id="paint4_linear_1288_14574" x1="16.8793" y1="3.19855" x2="11.2132" y2="12.1786" gradientUnits="userSpaceOnUse">
<stop stop-color="#9D9E9F"/>
<stop offset="1" stop-color="#9D9E9F" stop-opacity="0"/>
</linearGradient>
<linearGradient id="paint5_linear_1288_14574" x1="31.416" y1="15.9928" x2="28.3109" y2="20.9141" gradientUnits="userSpaceOnUse">
<stop stop-color="#9D9E9F"/>
<stop offset="1" stop-color="#9D9E9F" stop-opacity="0"/>
</linearGradient>
<linearGradient id="paint6_linear_1288_14574" x1="21.9247" y1="19.8012" x2="11.7343" y2="33.7759" gradientUnits="userSpaceOnUse">
<stop stop-color="#9D9E9F"/>
<stop offset="1" stop-color="#9D9E9F" stop-opacity="0"/>
</linearGradient>
<linearGradient id="paint7_linear_1288_14574" x1="16.7921" y1="20.6263" x2="9.33876" y2="30.2486" gradientUnits="userSpaceOnUse">
<stop stop-color="#9D9E9F"/>
<stop offset="1" stop-color="#9D9E9F" stop-opacity="0"/>
</linearGradient>
<linearGradient id="paint8_linear_1288_14574" x1="7.41624" y1="10.734" x2="-0.215695" y2="20.6425" gradientUnits="userSpaceOnUse">
<stop stop-color="#9D9E9F"/>
<stop offset="1" stop-color="#9D9E9F" stop-opacity="0"/>
</linearGradient>
<linearGradient id="paint9_linear_1288_14574" x1="14.9285" y1="1.55246e-07" x2="9.17032" y2="6.90037" gradientUnits="userSpaceOnUse">
<stop stop-color="#9D9E9F"/>
<stop offset="1" stop-color="#9D9E9F" stop-opacity="0"/>
</linearGradient>
<linearGradient id="paint10_linear_1288_14574" x1="25.048" y1="9.60495" x2="20.1523" y2="15.1177" gradientUnits="userSpaceOnUse">
<stop stop-color="#9D9E9F"/>
<stop offset="1" stop-color="#9D9E9F" stop-opacity="0"/>
</linearGradient>
<linearGradient id="paint11_linear_1288_14574" x1="8.38998" y1="18.3642" x2="3.85317" y2="23.3003" gradientUnits="userSpaceOnUse">
<stop stop-color="#9D9E9F"/>
<stop offset="1" stop-color="#9D9E9F" stop-opacity="0"/>
</linearGradient>
<clipPath id="clip0_1288_14574">
<rect width="130" height="34" fill="white"/>
</clipPath>
</defs>
</svg>
