<svg width="44" height="43" viewBox="0 0 44 43" fill="none" xmlns="http://www.w3.org/2000/svg">
<path d="M13.1869 27.3571C12.9745 27.3571 12.7928 27.2894 12.6419 27.1536C12.491 27.018 12.4155 26.8261 12.4155 26.5779C12.4155 26.3532 12.4928 26.168 12.6475 26.0226C12.8021 25.8772 12.9819 25.8045 13.1869 25.8045C13.3843 25.8045 13.5594 25.8705 13.7123 26.0022C13.865 26.1341 13.9414 26.326 13.9414 26.5779C13.9414 26.8221 13.8668 27.0132 13.7179 27.1508C13.5688 27.2884 13.3917 27.3571 13.1869 27.3571ZM13.9414 28.997V33.585C13.9414 33.9029 13.8688 34.1432 13.7235 34.306C13.5782 34.4689 13.3937 34.5503 13.1701 34.5503C12.9466 34.5503 12.7649 34.4669 12.6252 34.3003C12.4854 34.1336 12.4155 33.8952 12.4155 33.585V29.0435C12.4155 28.7295 12.4854 28.4931 12.6252 28.3341C12.7649 28.1752 12.9466 28.0957 13.1701 28.0957C13.3936 28.0957 13.5782 28.1752 13.7235 28.3341C13.8688 28.4931 13.9414 28.7141 13.9414 28.997Z" fill="#9D9E9F"/>
<path d="M20.9449 27.3052H19.134V33.4981C19.134 33.8548 19.0575 34.1194 18.9047 34.2919C18.7519 34.4643 18.5545 34.5506 18.3123 34.5506C18.0664 34.5506 17.866 34.4634 17.7115 34.2889C17.5567 34.1145 17.4794 33.8509 17.4794 33.4981V27.3052H15.6685C15.3853 27.3052 15.1748 27.2402 15.0369 27.1103C14.899 26.9805 14.8301 26.809 14.8301 26.5957C14.8301 26.3747 14.9018 26.2003 15.0453 26.0724C15.1887 25.9444 15.3965 25.8804 15.6685 25.8804H20.9449C21.2318 25.8804 21.4451 25.9464 21.5848 26.0782C21.7246 26.21 21.7945 26.3825 21.7945 26.5957C21.7945 26.809 21.7237 26.9805 21.5821 27.1103C21.4404 27.2402 21.228 27.3052 20.9449 27.3052Z" fill="#9D9E9F"/>
<path d="M26.2107 31.7132H23.2257C23.2294 32.0737 23.2992 32.3917 23.4352 32.6669C23.5713 32.9423 23.752 33.1496 23.9775 33.2892C24.203 33.4288 24.4517 33.4985 24.7238 33.4985C24.9063 33.4985 25.0732 33.4763 25.2241 33.4317C25.375 33.3871 25.5213 33.3174 25.6629 33.2223C25.8045 33.1273 25.9349 33.0256 26.0542 32.917C26.1734 32.8085 26.3281 32.661 26.5182 32.475C26.5964 32.4052 26.7083 32.3703 26.8536 32.3703C27.0101 32.3703 27.1368 32.4149 27.2337 32.504C27.3306 32.5933 27.3791 32.7192 27.3791 32.8821C27.3791 33.0256 27.325 33.1933 27.217 33.3852C27.1088 33.577 26.9459 33.7613 26.7278 33.9376C26.5099 34.1141 26.2359 34.2604 25.9061 34.3767C25.5763 34.493 25.197 34.5512 24.7685 34.5512C23.7883 34.5512 23.0263 34.2604 22.4822 33.6789C21.938 33.0973 21.666 32.3083 21.666 31.3118C21.666 30.8428 21.7331 30.4075 21.8673 30.0062C22.0015 29.6049 22.1971 29.2609 22.4542 28.9739C22.7114 28.687 23.0281 28.4671 23.4045 28.3138C23.7809 28.1607 24.1983 28.0841 24.6568 28.0841C25.2529 28.0841 25.7644 28.215 26.1912 28.4767C26.6179 28.7384 26.9375 29.0767 27.1499 29.4916C27.3623 29.9065 27.4685 30.329 27.4685 30.7594C27.4685 31.1587 27.3586 31.4175 27.1387 31.5358C26.9187 31.6541 26.6095 31.7132 26.2107 31.7132ZM23.2257 30.8117H25.9928C25.9555 30.2689 25.8147 29.8628 25.5707 29.5933C25.3266 29.3239 25.0051 29.1891 24.6064 29.1891C24.2262 29.1891 23.9141 29.3258 23.6701 29.5991C23.426 29.8724 23.2778 30.2766 23.2257 30.8117Z" fill="#9D9E9F"/>
<path d="M34.226 32.5855C34.226 32.7832 34.1691 32.9945 34.0555 33.2194C33.9418 33.4443 33.7684 33.6585 33.5356 33.862C33.3026 34.0656 33.0091 34.2294 32.6551 34.3534C32.301 34.4775 31.9023 34.5396 31.4589 34.5396C30.5159 34.5396 29.7799 34.2537 29.2508 33.6818C28.7216 33.1099 28.457 32.3432 28.457 31.3817C28.457 30.7302 28.578 30.1545 28.8203 29.6544C29.0625 29.1542 29.4129 28.7675 29.8713 28.4941C30.3297 28.2208 30.8775 28.0841 31.5148 28.0841C31.9097 28.0841 32.2722 28.1442 32.6021 28.2644C32.9318 28.3847 33.2113 28.5398 33.4405 28.7297C33.6698 28.9197 33.8449 29.1223 33.966 29.3374C34.0871 29.5526 34.1477 29.7532 34.1477 29.9394C34.1477 30.1293 34.0796 30.2903 33.9437 30.422C33.8076 30.5539 33.6426 30.6198 33.4489 30.6198C33.3222 30.6198 33.2169 30.5859 33.1331 30.518C33.0492 30.4502 32.9551 30.3406 32.8508 30.1894C32.6644 29.8948 32.4697 29.6738 32.2666 29.5264C32.0635 29.3791 31.8055 29.3054 31.4924 29.3054C31.0414 29.3054 30.6781 29.4886 30.4023 29.855C30.1265 30.2214 29.9887 30.7226 29.9887 31.3584C29.9887 31.657 30.0241 31.9312 30.0949 32.1813C30.1656 32.4314 30.2682 32.6446 30.4023 32.821C30.5365 32.9975 30.6986 33.1312 30.8887 33.2223C31.0787 33.3135 31.2874 33.3589 31.5148 33.3589C31.8203 33.3589 32.0822 33.2853 32.3002 33.138C32.5182 32.9906 32.7111 32.7658 32.8788 32.4633C32.9718 32.2851 33.0725 32.1455 33.1806 32.0446C33.2886 31.9438 33.421 31.8934 33.5775 31.8934C33.7638 31.8934 33.9185 31.9671 34.0415 32.1144C34.1645 32.2618 34.226 32.4188 34.226 32.5855Z" fill="#9D9E9F"/>
<path d="M36.7627 26.7005V29.0556C36.9564 28.8231 37.1456 28.6389 37.33 28.5032C37.5145 28.3676 37.7185 28.2658 37.942 28.1979C38.1657 28.1302 38.406 28.0962 38.6631 28.0962C39.0506 28.0962 39.3944 28.1814 39.6943 28.352C39.9942 28.5226 40.2299 28.7707 40.4014 29.0963C40.5094 29.2864 40.5821 29.4985 40.6194 29.7331C40.6566 29.9677 40.6752 30.2381 40.6752 30.5443V33.5855C40.6752 33.9034 40.6054 34.1437 40.4657 34.3065C40.3259 34.4694 40.1405 34.5508 39.9095 34.5508C39.4065 34.5508 39.155 34.229 39.155 33.5855V30.9048C39.155 30.397 39.0823 30.0064 38.937 29.7331C38.7917 29.4598 38.5159 29.3232 38.1097 29.3232C37.8377 29.3232 37.5927 29.4036 37.3748 29.5645C37.1567 29.7254 36.9937 29.9454 36.8857 30.2245C36.8037 30.461 36.7627 30.8816 36.7627 31.4863V33.5855C36.7627 33.8995 36.6947 34.139 36.5587 34.3036C36.4226 34.4684 36.2336 34.5508 35.9914 34.5508C35.4884 34.5508 35.2368 34.2291 35.2368 33.5855V26.7005C35.2368 26.3788 35.3029 26.1375 35.4352 25.9766C35.5674 25.8158 35.7529 25.7353 35.9914 25.7353C36.2336 25.7353 36.4226 25.8167 36.5587 25.9795C36.6947 26.1423 36.7627 26.3827 36.7627 26.7005Z" fill="#9D9E9F"/>
<path d="M13.6762 36.306V41.3481H16.4106C16.6286 41.3481 16.7959 41.4033 16.9125 41.5135C17.0291 41.6238 17.0874 41.7624 17.0874 41.9294C17.0874 42.0995 17.0298 42.2373 16.9148 42.3428C16.7997 42.4484 16.6316 42.5011 16.4106 42.5011H13.1539C12.8601 42.5011 12.6489 42.4335 12.5202 42.298C12.3915 42.1625 12.3271 41.9436 12.3271 41.6411V36.306C12.3271 36.0225 12.3885 35.8098 12.5112 35.6681C12.6338 35.5263 12.795 35.4554 12.9949 35.4554C13.1977 35.4554 13.362 35.5255 13.4877 35.6657C13.6133 35.8059 13.6762 36.0193 13.6762 36.306Z" fill="#9D9E9F"/>
<path d="M21.0203 41.891C20.7205 42.1335 20.4305 42.3155 20.1505 42.4368C19.8703 42.558 19.5562 42.6187 19.208 42.6187C18.89 42.6187 18.6106 42.5533 18.37 42.4226C18.1292 42.2919 17.9437 42.1147 17.8135 41.891C17.6833 41.6673 17.6182 41.4248 17.6182 41.1632C17.6182 40.8105 17.7256 40.5095 17.9407 40.2606C18.1557 40.0118 18.4509 39.8448 18.8264 39.7598C18.9051 39.7408 19.1005 39.6983 19.4124 39.6321C19.7242 39.5659 19.9914 39.5054 20.2141 39.4502C20.4366 39.3951 20.6781 39.3281 20.9385 39.2494C20.9233 38.9092 20.8575 38.6595 20.741 38.5004C20.6243 38.3413 20.3828 38.2617 20.0165 38.2617C19.7015 38.2617 19.4646 38.3074 19.3056 38.3988C19.1467 38.4902 19.0104 38.6273 18.8968 38.8099C18.7833 38.9926 18.703 39.1132 18.6561 39.1714C18.6091 39.2297 18.5085 39.2588 18.354 39.2588C18.2147 39.2588 18.0943 39.2124 17.993 39.1194C17.8914 39.0265 17.8408 38.9075 17.8408 38.7627C17.8408 38.5358 17.918 38.3153 18.0724 38.1011C18.2268 37.8869 18.4676 37.7105 18.7946 37.5718C19.1217 37.4332 19.5289 37.3639 20.0165 37.3639C20.5615 37.3639 20.99 37.4308 21.3019 37.5648C21.6137 37.6987 21.8341 37.9105 21.9628 38.2003C22.0915 38.4902 22.1558 38.8745 22.1558 39.3534C22.1558 39.6558 22.1551 39.9126 22.1535 40.1236C22.152 40.3347 22.1497 40.5694 22.1467 40.8277C22.1467 41.0703 22.1854 41.3231 22.2626 41.5862C22.3398 41.8492 22.3784 42.0185 22.3784 42.0941C22.3784 42.2265 22.3186 42.347 22.199 42.4556C22.0793 42.5643 21.9438 42.6187 21.7924 42.6187C21.6653 42.6187 21.5396 42.5564 21.4154 42.432C21.2913 42.3076 21.1595 42.1273 21.0203 41.891ZM20.9385 40.0243C20.7569 40.0937 20.4926 40.1669 20.1459 40.2441C19.7991 40.3213 19.5592 40.3781 19.4259 40.4143C19.2927 40.4504 19.1655 40.5213 19.0444 40.6268C18.9233 40.7325 18.8627 40.8797 18.8627 41.0687C18.8627 41.2641 18.9338 41.4302 19.0762 41.5672C19.2185 41.7043 19.4048 41.7728 19.6349 41.7728C19.8802 41.7728 20.1065 41.7169 20.314 41.605C20.5214 41.4932 20.6735 41.3491 20.7705 41.1727C20.8824 40.9774 20.9385 40.656 20.9385 40.2086V40.0243Z" fill="#9D9E9F"/>
<path d="M24.4351 36.1924V38.1629C24.6682 37.9109 24.9059 37.718 25.1482 37.584C25.3904 37.4502 25.6902 37.3832 26.0476 37.3832C26.4594 37.3832 26.8205 37.4848 27.1308 37.688C27.4412 37.8912 27.682 38.1858 27.8531 38.5717C28.0241 38.9577 28.1097 39.4152 28.1097 39.9445C28.1097 40.3351 28.062 40.6934 27.9666 41.0195C27.8713 41.3455 27.7327 41.6284 27.551 41.8677C27.3693 42.1072 27.149 42.2923 26.8902 42.423C26.6312 42.5537 26.3458 42.6191 26.034 42.6191C25.8432 42.6191 25.6637 42.5955 25.4957 42.5482C25.3276 42.501 25.1845 42.4388 25.0665 42.3616C24.9483 42.2844 24.8476 42.2049 24.7644 42.1229C24.6811 42.041 24.5713 41.9182 24.4351 41.7543V41.8819C24.4351 42.1245 24.379 42.308 24.267 42.4324C24.155 42.5569 24.0127 42.6191 23.84 42.6191C23.6644 42.6191 23.5243 42.5569 23.4199 42.4324C23.3154 42.308 23.2632 42.1245 23.2632 41.8819V36.2491C23.2632 35.9876 23.3139 35.79 23.4154 35.6561C23.5168 35.5221 23.6584 35.4552 23.84 35.4552C24.0308 35.4552 24.1777 35.519 24.2806 35.6466C24.3836 35.7742 24.4351 35.9561 24.4351 36.1924ZM24.4941 40.0248C24.4941 40.5383 24.6069 40.9329 24.8325 41.2085C25.0581 41.4842 25.3541 41.622 25.7205 41.622C26.0324 41.622 26.3012 41.4811 26.5267 41.1991C26.7523 40.9171 26.8652 40.5131 26.8652 39.987C26.8652 39.6467 26.8182 39.3538 26.7244 39.1081C26.6305 38.8623 26.4972 38.6725 26.3247 38.5386C26.152 38.4047 25.9506 38.3377 25.7205 38.3377C25.4843 38.3377 25.2738 38.4047 25.0892 38.5386C24.9044 38.6725 24.7591 38.8663 24.6531 39.1199C24.5471 39.3735 24.4941 39.6751 24.4941 40.0248Z" fill="#9D9E9F"/>
<path d="M33.0967 40.9317C33.0967 41.2878 33.0134 41.5926 32.8468 41.8461C32.6803 42.0997 32.4342 42.2919 32.1088 42.4226C31.7832 42.5533 31.3872 42.6187 30.9209 42.6187C30.4758 42.6187 30.0943 42.5478 29.7764 42.4061C29.4584 42.2643 29.2237 42.0871 29.0723 41.8745C28.9208 41.6618 28.8452 41.4484 28.8452 41.2342C28.8452 41.0924 28.8936 40.9711 28.9905 40.8703C29.0874 40.7695 29.2101 40.7191 29.3585 40.7191C29.4886 40.7191 29.5885 40.7522 29.6582 40.8183C29.7279 40.8845 29.7945 40.9774 29.8581 41.0971C29.9853 41.3271 30.1375 41.4988 30.3146 41.6122C30.4918 41.7256 30.7332 41.7823 31.0391 41.7823C31.2873 41.7823 31.491 41.7249 31.65 41.6098C31.809 41.4949 31.8884 41.3633 31.8884 41.2152C31.8884 40.9885 31.8059 40.823 31.6409 40.7191C31.4758 40.6151 31.204 40.5159 30.8256 40.4214C30.3986 40.3111 30.0512 40.1954 29.7831 40.0741C29.5151 39.9528 29.3009 39.7929 29.1404 39.5944C28.9799 39.3959 28.8997 39.1518 28.8997 38.8619C28.8997 38.6036 28.9739 38.3595 29.1223 38.1295C29.2706 37.8995 29.4894 37.716 29.7786 37.5789C30.0677 37.4419 30.4168 37.3734 30.8256 37.3734C31.1465 37.3734 31.4349 37.4081 31.6909 37.4773C31.9467 37.5467 32.1602 37.6396 32.3313 37.7562C32.5023 37.8728 32.6326 38.0019 32.7219 38.1436C32.8112 38.2854 32.8559 38.4241 32.8559 38.5595C32.8559 38.7076 32.8082 38.8289 32.7129 38.9234C32.6174 39.0179 32.4819 39.0652 32.3063 39.0652C32.1791 39.0652 32.0709 39.0274 31.9816 38.9517C31.8922 38.8761 31.79 38.7627 31.6749 38.6115C31.5811 38.4855 31.4706 38.3847 31.3434 38.3091C31.2162 38.2334 31.0436 38.1956 30.8256 38.1956C30.6015 38.1956 30.4152 38.2452 30.2669 38.3445C30.1185 38.4437 30.0443 38.5674 30.0443 38.7155C30.0443 38.851 30.0988 38.962 30.2078 39.0486C30.3169 39.1353 30.4637 39.2069 30.6484 39.2636C30.8331 39.3203 31.0875 39.3897 31.4115 39.4716C31.7961 39.5692 32.1102 39.6858 32.354 39.8212C32.5978 39.9567 32.7825 40.1165 32.9081 40.3008C33.0338 40.4851 33.0967 40.6954 33.0967 40.9317Z" fill="#9D9E9F"/>
<path d="M8.88072 37.612L9.08703 37.254L8.68611 37.2693L8.54573 36.8783L8.34576 37.1597C3.88611 33.2083 1.15004 27.4772 0.834073 21.4078L0.532715 21.4249C0.848698 27.4948 3.55156 33.2311 7.96368 37.2317L8.0294 37.4876L7.69423 37.717L8.06182 37.8842L8.02524 38.2999L8.38009 38.1051L8.66964 38.394L8.74454 37.984L9.14218 37.9286L8.88072 37.612Z" fill="url(#paint0_linear_1288_14656)"/>
<path d="M4.38761 24.9047L4.10941 24.7514L4.16149 24.4284L3.87283 24.5591L3.66255 24.3153L3.64156 24.3965C3.37056 23.3521 3.23299 22.2721 3.23299 21.1792H2.93115C2.93115 22.3575 3.08852 23.5207 3.39562 24.6428L3.26652 24.6506L3.45323 24.9143L3.27161 25.1819L3.58619 25.1944L3.67398 25.5089L3.87956 25.2609L4.17065 25.3856L4.1124 25.0637L4.38761 24.9047Z" fill="url(#paint1_linear_1288_14656)"/>
<path d="M10.5626 30.6915L10.7141 30.3786L10.3794 30.4171L10.2387 30.0989L10.0589 30.3951L9.95096 30.3674C7.98155 27.3718 6.93998 23.8744 6.93998 20.222H6.63818C6.63818 23.9941 7.72992 27.6037 9.7929 30.6819L9.57565 30.8556L9.89329 30.972L9.88735 31.3223L10.1728 31.1365L10.4324 31.3597L10.4707 31.0116L10.8003 30.9397L10.5626 30.6915Z" fill="url(#paint2_linear_1288_14656)"/>
<path d="M28.3813 18.0505C27.5725 17.1074 26.6765 16.4662 26.0641 16.0927L26.1478 16.5557L25.4375 16.2513L24.9358 16.8565L24.7217 16.0889L23.9541 16.0581L24.3975 15.4054L23.942 14.7618L24.7089 14.7155L24.9086 13.9438L25.4215 14.5387L26.126 14.2199L25.9987 15.0081L26.6775 15.3824L26.3798 15.5543C27.0315 15.9519 27.97 16.6278 28.8317 17.6324C30.057 19.0611 30.2573 21.2842 30.2652 21.3781L34.0634 21.4074C34.0448 21.1487 33.7859 17.9611 32.2654 15.7574C31.1357 14.1199 30.0645 13.1751 29.33 12.6563L29.5494 13.3625L28.5282 13.0751L27.9439 13.9927L27.5232 12.9828L26.4694 13.0797L26.966 12.1079L26.2362 11.3111L27.2761 11.1091L27.4199 10.0187L28.2201 10.7386L29.1291 10.1757L29.087 11.2754L30.0769 11.6638L29.5596 12.059C30.3512 12.5986 31.5232 13.6046 32.7559 15.3912C34.4365 17.8273 34.6585 21.2419 34.6671 21.3861L37.4335 21.4074C37.4081 21.0467 36.9193 14.9452 33.1565 11.3753C29.8039 8.19442 26.6572 7.90758 25.3134 7.78508C25.1638 7.77144 25.0336 7.75956 24.9246 7.74622C24.3965 7.68176 23.9111 7.65693 23.4917 7.65326L23.9968 8.89412L22.7091 8.65568L22.0855 9.85168L21.4619 8.65568L20.1742 8.89412L20.6842 7.64116L19.7022 6.74248L20.9617 6.37608L21.0248 5.017L22.0855 5.81306L23.1462 5.017L23.2093 6.37608L24.4688 6.74248L24.1366 7.04653C24.407 7.06197 24.6933 7.08576 24.9949 7.12255C25.099 7.1352 25.2233 7.14647 25.3661 7.1595C26.7706 7.28751 30.0599 7.58732 33.5632 10.9113C37.606 14.7469 38.0215 21.1173 38.0372 21.3866L39.4205 21.4074C39.4007 21.1042 39.0267 15.9912 36.3148 12.3291C33.2482 8.18788 29.6296 6.78766 28.4724 6.42782L28.4744 6.85433L28.0104 6.54359L27.5806 6.90362L27.5249 6.3325L26.9863 6.2074L27.3808 5.80596L27.139 5.28993L27.6866 5.36047L27.9237 4.84209L28.2121 5.33148L28.7495 5.20111L28.5615 5.74083L28.6713 5.83101C29.9403 6.22074 33.62 7.66105 36.793 11.9458C39.6908 15.8591 40.0119 21.1638 40.0241 21.3877L43.6318 21.4074C43.0825 9.51958 33.6449 0.0566406 22.0822 0.0566406C10.5196 0.0566406 1.08195 9.51958 0.532715 21.4074H29.6614C29.6361 21.1644 29.4061 19.2453 28.3813 18.0505Z" fill="url(#paint3_linear_1288_14656)"/>
<defs>
<linearGradient id="paint0_linear_1288_14656" x1="2.52438" y1="17.1613" x2="20.6166" y2="34.532" gradientUnits="userSpaceOnUse">
<stop stop-color="#707070"/>
<stop offset="1" stop-color="#707070" stop-opacity="0"/>
</linearGradient>
<linearGradient id="paint1_linear_1288_14656" x1="3.26808" y1="20.0968" x2="7.45152" y2="22.7625" gradientUnits="userSpaceOnUse">
<stop stop-color="#707070"/>
<stop offset="1" stop-color="#707070" stop-opacity="0"/>
</linearGradient>
<linearGradient id="paint2_linear_1288_14656" x1="7.60102" y1="17.4376" x2="18.7989" y2="25.3644" gradientUnits="userSpaceOnUse">
<stop stop-color="#707070"/>
<stop offset="1" stop-color="#707070" stop-opacity="0"/>
</linearGradient>
<linearGradient id="paint3_linear_1288_14656" x1="-2.60312" y1="-1.76816" x2="16.7288" y2="62.4646" gradientUnits="userSpaceOnUse">
<stop stop-color="#6F6F6F"/>
<stop offset="1" stop-color="white"/>
</linearGradient>
</defs>
</svg>
