<svg width="52" height="53" viewBox="0 0 52 53" fill="none" xmlns="http://www.w3.org/2000/svg">
<path d="M25.9125 42.7487C35.1622 42.7487 42.6605 35.1819 42.6605 25.8477C42.6605 16.5135 35.1622 8.94669 25.9125 8.94669C16.6629 8.94669 9.16455 16.5135 9.16455 25.8477C9.16455 35.1819 16.6629 42.7487 25.9125 42.7487Z" fill="#707070"/>
<path d="M24.1676 28.7224C24.1676 28.7224 24.0434 28.4559 24.1676 28.3619C24.2919 28.2679 24.3462 28.0955 24.4161 27.9622C24.486 27.829 24.5637 27.6723 24.5792 27.5939C24.5947 27.5156 24.6025 27.4921 24.4705 27.5312C24.3385 27.5704 24.2444 27.5548 24.14 27.5626C24.0356 27.5704 23.9424 27.6096 23.857 27.5469C23.7716 27.4842 23.7017 27.5469 23.6784 27.3745C23.6551 27.2021 23.6318 27.0924 23.6085 27.0297C23.5852 26.967 23.492 26.9827 23.5619 26.8338C23.6318 26.6849 23.5308 26.583 23.6784 26.5203C23.8259 26.4577 24.2375 26.3715 24.1521 26.2696C24.0667 26.1677 24.222 26.2382 23.8648 26.0658C23.5075 25.8934 23.6085 25.9044 23.4842 25.8715C23.36 25.8386 23.2513 25.8778 23.228 25.9169C23.2047 25.9561 23.1037 26.0188 23.0183 26.0658C22.9329 26.1129 22.8941 26.1677 22.7931 26.1834C22.6922 26.1991 22.6611 26.152 22.5679 26.2774C22.4747 26.4028 22.3427 26.5674 22.2495 26.7398C22.1563 26.9122 22.1331 27.0532 22.1564 27.0532C22.1796 27.0532 22.964 27.0532 22.964 27.0532C22.964 27.0532 22.8785 27.351 22.7931 27.445C22.7077 27.5391 22.4126 27.7428 22.4437 27.8604C22.4747 27.9779 22.4359 28.0328 22.4359 28.0328H22.9873C22.9873 28.0328 23.0106 28.0641 23.0416 28.166C23.0727 28.2679 23.0572 28.3384 23.1581 28.4794C23.259 28.6205 23.492 28.5578 23.5308 28.5656C23.5697 28.5735 23.7793 28.5421 23.7793 28.5421C23.7793 28.5421 23.9113 28.6597 24.0201 28.7224C24.1288 28.7851 24.1676 28.7224 24.1676 28.7224Z" fill="white"/>
<path d="M25.0216 27.2329C25.0216 27.1937 25.1148 26.9743 25.0837 26.8176C25.0526 26.6608 24.8973 26.6295 24.7964 26.606C24.6954 26.5825 24.5401 26.5041 24.4625 26.4963C24.3848 26.4884 24.3382 26.4806 24.3848 26.5746C24.4314 26.6687 24.5179 26.8489 24.5873 26.9273C24.6566 27.0056 24.6877 27.1075 24.7964 27.1545C24.9051 27.2015 25.0216 27.2329 25.0216 27.2329Z" fill="white"/>
<path d="M12.597 25.0553C12.597 25.0553 12.7989 24.8907 12.6435 24.8907C12.4882 24.8907 11.6573 24.8907 11.5719 24.8907C11.4865 24.8907 11.3933 25.0083 11.3234 25.024C11.2535 25.0396 11.0128 25.1415 10.974 25.1885C10.9351 25.2355 10.7876 25.2512 10.7876 25.5412C10.7876 25.8311 10.7876 27.0614 10.7876 27.1868C10.7876 27.3122 10.9274 27.273 10.9274 27.4219C10.9274 27.5708 10.9351 28.0802 10.9429 28.135C10.9507 28.1899 11.0594 28.2212 11.0516 28.2996C11.0439 28.3779 11.0283 28.5895 11.0749 28.6679C11.1215 28.7463 11.0749 28.8325 11.2225 28.8403C11.37 28.8481 11.6651 28.8951 11.6651 28.8951C11.6651 28.8951 11.6772 28.95 11.7449 28.997C11.8126 29.044 11.9291 29.1459 12.0145 29.1381C12.1 29.1302 12.3019 29.1616 12.3795 28.9892C12.4572 28.8168 12.4028 28.6836 12.4805 28.6209C12.5581 28.5582 12.7445 28.4485 12.76 28.3623C12.7756 28.2761 12.8843 28.1899 12.8998 28.0096C12.9153 27.8294 12.9309 27.7354 12.9852 27.6962C13.0396 27.657 13.0629 27.5708 13.0629 27.4611C13.0629 27.3514 13.0784 27.1319 13.1172 27.0614C13.1561 26.9909 13.3424 26.889 13.3735 26.795C13.4046 26.7009 13.4123 26.6461 13.4667 26.5991C13.521 26.552 13.5987 26.4894 13.5909 26.2699C13.5832 26.0505 13.4822 26.0975 13.4744 26.0192C13.4667 25.9408 13.4667 25.7841 13.4589 25.643C13.4511 25.502 13.4589 25.4471 13.5055 25.3609C13.5521 25.2747 13.5998 25.2904 13.5915 25.1337C13.5832 24.9769 13.6541 24.8437 13.5915 24.828C13.5288 24.8124 13.2648 24.828 13.2648 24.828C13.2648 24.828 13.2182 25.024 13.2104 25.1023C13.2026 25.1807 13.1716 25.3296 13.125 25.3766C13.0784 25.4236 13.0473 25.4001 13.024 25.5098C13.0007 25.6195 12.9464 25.6509 12.9309 25.6979C12.9153 25.7449 12.8998 25.8053 12.8843 25.8927C12.8687 25.98 12.8687 26.0897 12.8144 26.1367C12.76 26.1837 12.729 26.1837 12.6824 26.2308C12.6358 26.2778 12.6435 26.2699 12.5814 26.3013C12.5193 26.3326 12.527 26.3405 12.4805 26.3561C12.4339 26.3718 12.5503 26.411 12.4339 26.3718C12.3174 26.3326 12.364 26.4345 12.3174 26.3326C12.2708 26.2308 12.1965 26.2229 12.2026 26.1602C12.2087 26.0975 12.1654 26.1367 12.2026 26.0349C12.2397 25.933 12.2475 25.8468 12.263 25.7841C12.2786 25.7214 12.2941 25.7136 12.2786 25.6117C12.263 25.5098 12.2164 25.5098 12.3096 25.4079C12.4028 25.3061 12.597 25.0553 12.597 25.0553Z" fill="#DFDFDF"/>
<path d="M12.2863 23.8958C12.395 23.9977 12.3639 24.0917 12.659 24.0917C12.9541 24.0917 13.3424 24.0917 13.4589 24.0917C13.5753 24.0917 13.6996 24.0055 13.7151 23.8958C13.7306 23.7861 13.653 23.7626 13.5831 23.7077C13.5132 23.6529 13.3191 23.5745 13.2414 23.5745C13.1638 23.5745 12.4261 23.598 12.4028 23.5745C12.3795 23.551 12.2585 23.4805 12.2025 23.457C12.1465 23.4335 12.0145 23.4256 11.9834 23.4256C11.9524 23.4256 11.9058 23.4883 11.9058 23.5902C11.9058 23.6921 11.9446 23.8096 11.9989 23.841C12.0533 23.8723 12.2863 23.8958 12.2863 23.8958Z" fill="#DFDFDF"/>
<path d="M22.481 25.0161C22.6511 25.0006 22.745 24.9377 22.7062 24.8045C22.6674 24.6713 22.5198 24.6086 22.481 24.4519C22.4422 24.2952 22.598 24.0602 22.598 24.0602H23.7311C23.7311 24.0602 23.8087 24.5851 23.9252 24.7027C24.0417 24.8202 24.4221 24.9299 24.4765 24.9769C24.5308 25.0239 24.6784 24.9769 24.5697 24.8829C24.461 24.7889 24.3367 24.5225 24.3367 24.3422C24.3367 24.162 24.3367 23.8251 24.3367 23.7546C24.3367 23.6841 24.4687 23.4725 24.5697 23.4333C24.6706 23.3941 24.7172 23.3706 24.8414 23.3158C24.9657 23.2609 24.9967 23.2923 24.9967 23.1826C24.9967 23.0729 25.1365 22.8613 25.152 22.6341C25.1675 22.4069 25.1675 22.1405 25.2374 22.0543C25.3073 21.9681 25.4005 21.9603 25.5402 21.9524C25.68 21.9446 25.8941 21.9446 25.9229 21.8898C25.9517 21.8349 26.0682 21.8114 26.1769 21.8036C26.2856 21.7957 26.5962 21.8349 26.6661 21.8036C26.736 21.7722 26.7825 21.6547 26.9145 21.6469C27.0465 21.639 27.2251 21.7409 27.2484 21.6469C27.2717 21.5528 27.2717 21.451 27.2096 21.3569C27.1475 21.2629 27.0931 21.1219 27.0621 21.0827C27.031 21.0435 26.9999 20.926 26.9145 20.926C26.8291 20.926 26.5884 20.8006 26.6428 20.6988C26.6971 20.5969 26.8136 20.5264 26.8136 20.5264C26.8136 20.5264 26.9534 20.5656 26.9223 20.4402C26.8913 20.3148 26.9378 20.1111 26.9068 20.0719C26.8757 20.0328 26.7981 20.0093 26.6971 19.9152C26.5962 19.8212 26.5185 19.6802 26.472 19.6097C26.4254 19.5391 26.1691 19.0298 26.1148 18.9515C26.0604 18.8731 25.8275 18.7164 25.711 18.881C25.5946 19.0455 24.7327 20.0014 24.6085 20.1033C24.4842 20.2051 24.3988 20.2051 24.3833 20.3148C24.3678 20.4245 24.2669 20.5499 24.1426 20.6518C24.0184 20.7536 23.7544 20.9965 23.7699 20.8006C23.7855 20.6047 23.801 20.495 23.7699 20.2992C23.7389 20.1033 23.7699 20.0719 23.6379 19.9231C23.5059 19.7742 23.4904 19.782 23.4593 19.6566C23.4283 19.5313 23.5292 19.3041 23.568 19.2492C23.6069 19.1944 23.8942 19.1552 23.9097 18.9828C23.9252 18.8104 23.8942 18.7321 23.8553 18.6459C23.8165 18.5597 23.8553 18.4265 23.933 18.3403C24.0106 18.2541 24.3911 18.2149 24.5852 17.9485C24.7793 17.6821 24.725 17.4392 24.7793 17.3374C24.8337 17.2355 24.7797 17.0945 24.8688 16.9848C24.9579 16.8751 24.9967 16.7575 25.0122 16.7105C25.0278 16.6635 25.1132 16.64 25.0744 16.546C25.0355 16.452 24.9657 16.452 24.9657 16.3579C24.9657 16.2639 24.9734 15.9975 24.9967 15.9975C25.02 15.9975 25.1831 15.8565 25.1986 15.7781C25.2141 15.6998 25.0666 15.5744 25.1598 15.4725C25.2529 15.3707 25.3461 15.2845 25.4238 15.3785C25.5014 15.4725 25.8741 15.7859 25.8896 15.8173C25.9052 15.8486 25.832 16.4676 25.9229 16.546C26.0139 16.6243 26.2701 16.687 26.2623 16.9769C26.2546 17.2668 26.076 17.3765 25.9983 17.4862C25.9207 17.5959 25.8508 17.9328 25.975 17.9955C26.0993 18.0582 26.2468 18.1131 26.3555 18.2149C26.4642 18.3168 26.5574 18.4578 26.6583 18.5048C26.7592 18.5518 26.899 18.5205 26.9456 18.3246C26.9922 18.1287 26.9999 18.0112 27.0388 17.8858C27.0776 17.7605 27.0543 17.6978 27.1552 17.6351C27.2562 17.5724 27.4503 17.5097 27.4425 17.3295C27.4348 17.1493 27.3494 16.64 27.2329 16.4519C27.1164 16.2639 27.0776 16.2326 27.0388 16.1385C26.9999 16.0445 26.9844 16.0053 26.9534 15.9662C26.9223 15.927 26.8369 15.9191 26.7748 15.8643C26.7127 15.8094 26.5263 15.8094 26.4953 15.7624C26.4642 15.7154 26.4331 15.7154 26.3633 15.6371C26.2934 15.5587 26.2468 15.4647 26.2002 15.4333C26.1536 15.402 26.1226 15.3917 26.1303 15.3381C26.1381 15.2845 26.208 15.1199 26.3633 15.0337C26.5186 14.9475 26.7204 14.9005 26.8369 14.9162C26.9534 14.9319 27.1009 14.9946 27.1552 14.9554C27.2096 14.9162 27.4658 14.7438 27.5202 14.7282C27.5745 14.7125 27.6444 14.6341 27.7143 14.6576C27.7842 14.6811 28.1103 14.6533 28.1413 14.6533C28.1724 14.6533 28.1957 14.8378 28.0714 14.924C27.9472 15.0102 27.7065 15.1669 27.6444 15.3393C27.5823 15.5117 27.5357 15.7311 27.6056 15.8721C27.6755 16.0132 27.9239 16.1072 28.0559 16.1307C28.1879 16.1542 28.351 15.9897 28.382 16.0759C28.4131 16.162 28.5451 16.3893 28.4674 16.4755C28.3898 16.5616 28.382 17.0083 28.5606 17.2433C28.7392 17.4784 29.0265 17.9877 29.1429 18.1836C29.2594 18.3795 29.9504 18.9123 29.9893 19.0141C30.0281 19.116 30.3387 19.3354 30.4318 19.3119C30.525 19.2884 30.5405 19.2727 30.5328 19.2179C30.525 19.163 30.4784 18.975 30.4008 18.8653C30.3231 18.7556 30.3309 18.6302 30.3464 18.5205C30.362 18.4108 30.3775 18.3168 30.3853 18.2306C30.393 18.1444 30.3655 18.0504 30.5345 17.9015C30.7036 17.7526 30.7036 17.6038 30.8123 17.5176C30.921 17.4314 30.8822 17.2982 30.8511 17.1885C30.8201 17.0788 30.789 17.0866 30.7424 17.0239C30.6958 16.9613 30.6803 16.9691 30.657 16.9064C30.6337 16.8437 30.5173 16.6243 30.5716 16.5068C30.626 16.3893 30.5949 16.2952 30.5949 16.2952C30.5949 16.2952 30.8473 16.2091 30.8841 16.1777C30.921 16.1464 30.9171 15.8251 30.8841 15.7233C30.8511 15.6214 30.7269 15.5195 30.6958 15.4177C30.6648 15.3158 30.7735 15.1904 30.6726 15.1826C30.5716 15.1748 30.5095 15.1669 30.5561 15.1043C30.6027 15.0416 30.8278 14.9319 30.9443 14.7908C31.0608 14.6498 31.1229 14.5558 31.0918 14.4539C31.0608 14.3521 30.758 14.0308 30.6648 13.9603C30.5716 13.8898 30.4319 13.7566 30.3775 13.6625C30.3231 13.5685 30.3231 13.4588 30.1446 13.3726C29.966 13.2864 29.8883 13.2081 29.7952 13.2551C29.702 13.3021 29.5855 13.4431 29.5001 13.451C29.4147 13.4588 29.2516 13.498 29.2439 13.4353C29.2361 13.3726 29.1507 13.3569 29.042 13.3805C28.9333 13.404 28.8712 13.5058 28.8401 13.5998C28.8091 13.6939 28.5451 14.1013 28.4441 14.1875C28.3432 14.2737 27.986 14.2188 27.9162 14.2267C27.8463 14.2345 27.5512 14.2267 27.5279 14.2188C27.5046 14.211 27.1475 13.9603 27.0388 13.9289C26.9301 13.8976 26.7127 13.7566 26.4409 13.9603C26.1691 14.164 25.9595 14.3364 25.7732 14.3285C25.5868 14.3207 25.4781 14.3207 25.4393 14.4226C25.4005 14.5244 25.3306 14.6028 25.3073 14.6263C25.284 14.6498 25.1054 14.7438 25.0433 14.736C24.9812 14.7281 24.8336 14.689 24.8336 14.689C24.8336 14.689 24.756 14.6263 24.7249 14.6341C24.6939 14.642 24.6706 14.7203 24.6784 14.7517C24.6861 14.783 24.4221 15.0651 24.3678 15.3315C24.3134 15.5979 24.4299 15.8878 24.4842 15.9818C24.5386 16.0758 24.5386 16.2012 24.5153 16.2169C24.492 16.2326 24.4765 16.209 24.4299 16.2796C24.3833 16.3501 24.4144 16.3814 24.36 16.4206C24.3057 16.4598 24.2979 16.4519 24.2358 16.4911C24.1737 16.5303 24.228 16.499 24.1115 16.5616C23.9951 16.6243 24.1348 16.5852 23.8941 16.6792C23.6534 16.7732 23.6767 16.8437 23.4904 16.8359C23.304 16.828 23.1177 16.6948 23.009 16.6322C22.9003 16.5695 22.7916 16.5303 22.7683 16.5381C22.745 16.546 22.5043 16.5695 22.3956 16.593C22.2869 16.6165 22.0695 16.593 22.0307 16.546C21.9918 16.499 21.922 16.4206 21.8987 16.3423C21.8754 16.2639 21.79 15.8956 21.5803 15.8486C21.3707 15.8016 21.2076 15.7859 21.1921 15.7076C21.1766 15.6292 21.161 15.4568 21.0679 15.3628C20.9747 15.2688 20.8738 15.1513 20.8815 15.0494C20.8893 14.9475 20.6719 14.4931 20.4545 14.3991C20.2371 14.305 19.6703 14.3129 19.515 14.3129C19.3597 14.3129 18.591 14.6733 18.3425 14.9867C18.0941 15.3001 18.0242 15.3315 17.9388 15.3628C17.8534 15.3942 17.6515 15.3785 17.6903 15.5352C17.7291 15.6919 17.5273 15.7624 17.7447 15.927C17.9621 16.0915 18.2959 16.1072 18.3037 16.1855C18.3115 16.2639 18.4901 16.1385 18.5056 16.4363C18.5211 16.734 18.327 16.734 18.5444 16.9064C18.7618 17.0788 18.9171 17.1258 19.018 17.3373C19.119 17.5489 19.2665 17.6664 19.2587 17.8075C19.251 17.9485 19.3985 18.1366 19.4373 18.2306C19.4761 18.3246 19.5383 18.5048 19.5072 18.6694C19.4762 18.8339 19.3053 18.9828 19.2898 19.21C19.2743 19.4372 19.251 19.6096 19.3053 19.641C19.3597 19.6723 19.4606 19.7585 19.6082 19.876C19.7557 19.9936 19.7557 20.1111 19.6703 20.2208C19.5849 20.3305 19.4995 20.5185 19.4451 20.6517C19.3907 20.7849 19.4451 21.1845 19.4451 21.3569C19.4451 21.5293 19.5693 22.399 19.7013 22.5714C19.8333 22.7438 20.0663 23.1904 20.1206 23.3001C20.175 23.4098 20.2759 23.1512 20.2992 22.9945C20.3225 22.8378 20.4855 22.6341 20.5632 22.7046C20.6408 22.7751 20.6874 23.0024 20.6719 23.2139C20.6564 23.4255 20.8039 24.1463 21.1999 24.4206C21.5959 24.6948 21.9297 24.8594 22.054 24.9064C22.1782 24.9534 22.3948 25.0239 22.481 25.0161Z" fill="#DFDFDF"/>
<path d="M18.4356 13.5848C18.4356 13.5848 18.5754 13.3184 18.7152 13.1852C18.8549 13.0519 18.9171 12.8795 19.0336 12.8012C19.15 12.7228 19.3053 12.5661 19.3209 12.5112C19.3364 12.4564 19.4451 12.2996 19.3209 12.3232C19.1966 12.3467 19.1034 12.2996 18.9714 12.3937C18.8394 12.4877 18.5754 12.5818 18.4356 12.6758C18.2958 12.7698 17.9386 12.9579 17.8687 13.0049C17.7988 13.0519 17.7057 13.1068 17.8066 13.146C17.9076 13.1852 18.0085 13.2792 18.0939 13.3811C18.1794 13.4829 18.4356 13.5848 18.4356 13.5848Z" fill="#DFDFDF"/>
<path d="M15.8891 15.042C15.9201 14.9558 15.9434 14.8617 15.9356 14.799C15.9279 14.7363 15.8813 14.6359 15.8036 14.6744C15.726 14.7128 15.6017 14.8461 15.5862 14.8696C15.5707 14.8931 15.5085 14.9871 15.462 15.0106C15.4154 15.0341 15.3532 15.0576 15.3455 15.1125C15.3377 15.1673 15.3455 15.1909 15.3066 15.2144C15.2678 15.2379 15.3066 15.23 15.1979 15.2849C15.0892 15.3398 15.1358 15.3241 15.0582 15.3789C14.9805 15.4338 14.9883 15.4338 14.9184 15.4886C14.8485 15.5435 14.9106 15.5121 14.7786 15.6454C14.6466 15.7786 14.5146 15.8491 14.4913 15.904C14.468 15.9588 14.468 15.8883 14.4136 16.0685C14.3593 16.2488 14.3593 16.2566 14.235 16.3898C14.1108 16.523 14.0021 16.6876 14.1185 16.6328C14.235 16.5779 14.2971 16.4682 14.4369 16.3742C14.5767 16.2801 14.6621 16.2253 14.732 16.1704C14.8019 16.1156 14.7165 16.2488 14.8796 16.0764C15.0426 15.904 14.9417 16.0137 15.0426 15.904C15.1436 15.7943 15.0426 15.8648 15.229 15.7159C15.4154 15.567 15.3066 15.661 15.4542 15.5435C15.6017 15.426 15.5629 15.426 15.625 15.3868C15.6872 15.3476 15.6949 15.3946 15.726 15.3241C15.757 15.2536 15.6561 15.3789 15.757 15.2536C15.858 15.1282 15.7182 15.042 15.8036 15.042C15.8891 15.042 15.8891 15.042 15.8891 15.042Z" fill="#DFDFDF"/>
<path d="M31.511 19.4853C31.542 19.4461 31.643 19.3364 31.6896 19.2894C31.7362 19.2423 31.7905 19.2737 31.7595 19.1875C31.7284 19.1013 31.8061 18.9367 31.8449 18.9681C31.8837 18.9994 32.0623 19.0307 32.1322 19.0699C32.2021 19.1091 32.2642 19.1875 32.1943 19.258C32.1244 19.3285 31.8915 19.5323 31.8138 19.595C31.7362 19.6577 31.5964 19.6577 31.5653 19.6577C31.5343 19.6577 31.3479 19.6812 31.379 19.6028C31.41 19.5244 31.511 19.4853 31.511 19.4853Z" fill="#DFDFDF"/>
<path d="M32.2251 22.1415C32.2722 22.024 32.3032 21.9691 32.2954 21.8751C32.2877 21.781 32.2901 21.6792 32.2966 21.6086C32.3032 21.5381 32.2489 21.5146 32.1867 21.5381C32.1246 21.5616 32.0702 21.6782 32.0314 21.8354C31.9926 21.9926 31.9926 22.2355 31.9693 22.2904C31.946 22.3453 31.8916 22.4158 31.8839 22.502C31.8761 22.5882 31.8062 22.643 31.8528 22.6979C31.8994 22.7528 32.0172 22.7763 32.067 22.7528C32.1168 22.7292 32.1936 22.7919 32.2251 22.6509C32.2566 22.5098 32.2251 22.1415 32.2251 22.1415Z" fill="#DFDFDF"/>
<path d="M32.7376 21.4125C32.7143 21.3968 32.6677 21.3027 32.6833 21.2401C32.6988 21.1774 32.7532 21.0598 32.8231 20.958C32.8929 20.8561 32.9784 20.6367 33.0871 20.6602C33.1958 20.6837 33.1803 20.668 33.188 20.8012C33.1958 20.9344 33.1492 21.5124 33.188 21.529C33.2269 21.5457 33.2424 21.5614 33.3123 21.6084C33.3822 21.6554 33.3511 21.7886 33.4598 21.8591C33.5685 21.9297 33.5918 22.055 33.5918 22.055C33.5918 22.1412 33.5763 22.298 33.5297 22.3842C33.4831 22.4704 33.4676 22.5409 33.4365 22.486C33.4055 22.4312 33.4521 22.392 33.3822 22.3763C33.3123 22.3607 33.289 22.345 33.2424 22.3763C33.1958 22.4077 33.1026 22.4469 33.0327 22.4625C32.9628 22.4782 32.8852 22.5487 32.8231 22.5644C32.7609 22.5801 32.7066 22.5331 32.7687 22.439C32.8308 22.345 32.893 22.1648 32.9007 22.0707C32.9085 21.9767 32.9318 21.8199 32.8929 21.7808C32.8541 21.7416 32.7454 21.7416 32.7687 21.6554C32.792 21.5692 32.7765 21.436 32.7765 21.436L32.7376 21.4125Z" fill="#DFDFDF"/>
<path d="M34.05 22.0779C34.0422 21.6235 34.2208 21.3806 34.2829 21.2865C34.3451 21.1925 34.3761 21.0906 34.5469 21.0436C34.7178 20.9966 34.7643 20.9731 34.8653 20.9026C34.9662 20.8321 35.1215 20.6597 35.1836 20.6048C35.2457 20.55 35.3079 20.3855 35.3234 20.362C35.3389 20.3384 35.533 20.2523 35.5408 20.0407C35.5486 19.8291 35.5486 19.6646 35.6262 19.5314C35.7038 19.3982 35.7504 19.1475 35.8669 18.9986C35.9834 18.8497 36.0455 18.5833 36.1697 18.4501C36.2939 18.3169 36.3483 18.2621 36.3638 18.2151C36.3794 18.168 36.3172 17.8154 36.3638 17.6431C36.4104 17.4707 36.457 17.4707 36.4881 17.3296C36.5191 17.1886 36.3328 16.8125 36.3017 16.7733C36.2707 16.7342 36.325 16.742 36.162 16.9065C35.9989 17.0711 35.9601 17.1338 35.8824 17.2905C35.8048 17.4472 35.7271 17.502 35.7349 17.5882C35.7427 17.6744 35.5951 18.0505 35.5796 18.168C35.5641 18.2856 35.5408 18.2777 35.4554 18.3953C35.37 18.5128 35.4321 18.5128 35.3467 18.6303C35.2613 18.7479 35.2535 18.7949 35.2147 18.8419C35.1759 18.8889 35.238 18.8732 35.1526 18.9633C35.0672 19.0534 34.9973 19.1289 34.9973 19.1289L34.9196 19.2258C34.9196 19.2258 34.8886 19.3707 34.873 19.4158C34.8575 19.4609 34.9352 19.5236 34.8653 19.5941C34.7954 19.6646 34.8265 19.5862 34.7488 19.7586C34.6712 19.931 34.7643 20.1426 34.7022 20.2366C34.6401 20.3306 34.5935 20.456 34.5935 20.2993C34.5935 20.1426 34.5702 20.1269 34.5314 20.0642C34.4926 20.0015 34.4072 20.0015 34.3839 19.9702C34.3606 19.9388 34.3528 19.9232 34.2907 19.9232C34.2286 19.9232 34.0966 20.025 34.0966 20.025C34.0966 20.025 33.9102 20.2836 33.8714 20.2836C33.8326 20.2836 33.8559 20.1817 33.8714 19.978C33.887 19.7743 34.0189 19.4922 34.0267 19.453C34.0345 19.4139 33.9801 19.2572 34.0578 19.1631C34.1354 19.0691 34.2208 18.9986 34.2596 18.8419C34.2985 18.6852 34.3839 18.6225 34.4382 18.505C34.4926 18.3874 34.578 18.4266 34.5392 18.3091C34.5004 18.1915 34.4926 17.7057 34.5625 17.6117C34.6324 17.5177 34.6168 17.4315 34.7178 17.3453C34.8187 17.2591 34.7255 17.2513 34.8731 17.2434C35.0206 17.2356 35.1969 17.1494 35.1709 17.0162C35.1448 16.883 35.0206 16.8282 35.0827 16.7185C35.1448 16.6088 35.238 16.5148 35.2768 16.3894C35.3156 16.264 35.2535 15.9506 35.3622 15.8174C35.4709 15.6842 35.4631 15.3865 35.5097 15.3081C35.5563 15.2297 35.4399 14.9477 35.5097 14.8066C35.5796 14.6656 35.4554 14.2895 35.5951 14.3522C35.7349 14.4149 36.1464 14.885 36.3095 15.0182C36.4725 15.1514 36.7753 15.5196 36.9306 15.6528C37.0859 15.786 37.4198 15.9898 37.3266 16.1465C37.2335 16.3032 37.1092 16.3502 37.0238 16.4364C36.9384 16.5226 36.9151 16.5147 36.8996 16.6401C36.884 16.7655 36.9617 16.9535 36.9306 17.0476C36.8996 17.1416 36.9073 17.2513 36.8763 17.2669C36.8452 17.2826 36.8064 17.4785 36.8452 17.4785C36.8841 17.4785 36.9772 17.5569 37.1015 17.4393C37.2257 17.3218 37.2024 17.4237 37.28 17.2591C37.3577 17.0946 37.3422 17.1416 37.3965 16.9614C37.4509 16.7812 37.5596 16.5069 37.6062 16.4991C37.6527 16.4912 37.8546 16.6401 37.8624 16.7577C37.8701 16.8752 37.8236 16.8438 38.0099 17.0006C38.1963 17.1573 38.3515 17.5177 38.4292 17.6431C38.5068 17.7684 38.8795 18.3326 39.0659 18.5755C39.2522 18.8184 39.5007 19.1704 39.4774 19.3117C39.4541 19.453 39.4183 19.7038 39.4789 19.7586C39.5395 19.8135 39.7724 20.1896 39.8268 20.3306C39.8811 20.4716 40.0986 20.9104 40.1296 21.0045C40.1607 21.0985 40.2694 21.6391 40.3625 21.8037C40.4557 21.9682 40.5023 22.1171 40.5023 22.2033C40.5023 22.2895 40.4402 22.2346 40.5023 22.3522C40.5644 22.4697 40.5256 22.7439 40.5877 22.838C40.6498 22.932 40.611 22.9947 40.6265 23.0887C40.6421 23.1827 40.6809 23.3316 40.743 23.4099C40.8051 23.4883 40.8284 23.5275 40.8207 23.6607C40.8129 23.7939 40.7818 24.0524 40.8595 24.1465C40.9371 24.2405 40.9526 24.3502 40.9449 24.4677C40.9371 24.5852 40.9061 24.8673 40.8595 24.789C40.8129 24.7106 40.7585 24.5696 40.6265 24.4677C40.4945 24.3659 40.4868 24.3659 40.3858 24.3345C40.2849 24.3032 39.951 24.3659 39.951 24.3659C39.951 24.3659 39.9821 24.722 39.9666 24.8025C39.951 24.883 39.9277 24.939 40.0364 25.0168C40.1451 25.0946 40.1607 25.1102 40.1762 25.2278C40.1917 25.3453 40.1917 25.3453 40.2383 25.408C40.2849 25.4707 40.4402 25.5568 40.6343 25.5568C40.8284 25.5568 41.0339 25.7136 40.9467 26.0818C40.8595 26.4501 41.0614 27.2885 40.712 29.0123C40.3626 30.7361 39.656 32.5617 39.1435 33.455C38.6311 34.3482 38.4603 34.6773 38.3127 34.6538C38.1652 34.6303 38.0254 34.5519 38.0332 34.309C38.041 34.0661 38.041 33.8702 38.0953 33.7214C38.1497 33.5725 38.1341 33.4628 38.1963 33.2747C38.2584 33.0867 38.173 32.8281 38.2428 32.7028C38.3127 32.5774 38.4137 32.2091 38.4214 31.9741C38.4292 31.739 38.3981 31.2375 38.4059 31.0965C38.4137 30.9555 38.3515 30.8614 38.468 30.7674C38.5845 30.6734 38.8019 30.4305 38.8485 30.2268C38.8951 30.023 38.7631 29.9447 38.7087 29.882C38.6544 29.8193 38.3826 29.882 38.2972 29.9603C38.2118 30.0387 37.9633 30.2816 37.808 30.3756C37.6527 30.4697 37.5052 30.7752 36.8918 30.6342C36.2784 30.4932 36.1775 30.5715 35.9213 30.4461C35.665 30.3208 35.5486 30.2738 35.4399 30.1719C35.3312 30.0701 35.4321 30.0936 35.1759 29.9995C34.9196 29.9055 34.8653 29.9604 34.5547 29.741C34.2441 29.5216 33.6928 29.2317 33.6152 29.169C33.5376 29.1063 33.2891 28.8321 33.258 28.7929C33.227 28.7537 33.2348 28.7302 33.126 28.6205C33.0173 28.5108 33.0096 28.55 32.963 28.4246C32.9164 28.2992 33.1105 28.1896 32.9242 27.884C32.7378 27.5784 32.699 27.4295 32.7534 27.359C32.8077 27.2885 32.8621 27.2493 32.7844 27.1239C32.7068 26.9986 32.6291 27.1161 32.7145 26.9124C32.7999 26.7087 32.7766 26.5441 32.831 26.4501C32.8853 26.3561 32.7999 26.4422 32.9086 26.262C33.0173 26.0818 32.994 26.121 33.0329 26.0113C33.0717 25.9016 33.022 25.9173 33.1361 25.7449C33.2503 25.5725 33.3046 25.5412 33.3667 25.455C33.4289 25.3688 33.9957 25.024 34.3062 24.9692C34.6168 24.9143 34.842 24.8046 34.8886 24.7733C34.9352 24.742 35.0749 24.7106 35.1681 24.7341C35.2613 24.7576 35.5175 24.7028 35.8281 24.7263C36.1387 24.7498 36.3328 24.8046 36.5114 24.6871C36.6899 24.5696 36.8841 24.6479 37.117 24.358C37.3499 24.0681 37.2179 23.8409 37.3655 23.8409C37.513 23.8409 37.6372 23.9114 37.8624 23.9898C38.0876 24.0681 38.0021 24.1778 38.3981 24.1621C38.7941 24.1465 39.0193 24.1935 38.996 24.0368C38.9727 23.8801 39.0426 23.8566 38.9727 23.8252C38.9028 23.7939 38.8097 23.833 38.8097 23.6998C38.8097 23.5666 38.8019 23.2611 38.8407 23.2062C38.8795 23.1514 38.9494 23.1984 38.9416 23.0338C38.9339 22.8693 38.8951 22.7856 38.9649 22.7608C39.0348 22.7361 39.0348 22.7361 39.0348 22.7361C39.0348 22.7361 38.9727 22.7047 38.9416 22.6029C38.9106 22.501 38.9494 22.2816 38.8252 22.313C38.7009 22.3443 38.6466 22.3443 38.5845 22.407C38.5224 22.4697 38.5612 22.4305 38.4447 22.5167C38.3283 22.6029 38.2817 22.6186 38.1652 22.7204C38.0487 22.8223 38.1574 22.979 37.9245 23.026C37.6916 23.073 37.5518 23.1749 37.6062 23.026C37.6605 22.8771 37.6217 22.7596 37.6916 22.6969C37.7615 22.6342 37.8236 22.5402 37.9323 22.4305C38.041 22.3208 38.072 22.3051 38.072 22.2033C38.072 22.1014 38.0099 22.0701 37.9866 22.0779C37.9633 22.0857 37.8546 22.0231 37.8857 22.0231C37.9167 22.0231 38.1186 22.0231 38.1497 21.8977C38.1807 21.7723 38.0876 21.8507 38.1807 21.7723C38.2739 21.694 38.3593 21.5451 38.437 21.4667C38.5146 21.3884 38.437 21.4041 38.5379 21.3257C38.6388 21.2474 38.5457 21.2003 38.701 21.1377C38.8562 21.075 38.9882 21.1063 38.9805 20.9496C38.9727 20.7929 39.0348 20.503 39.0193 20.4325C39.0038 20.362 38.8951 20.4403 38.8718 20.3463C38.8485 20.2523 38.7087 20.1974 38.6777 20.2209C38.6466 20.2444 38.6854 20.2993 38.5612 20.2914C38.437 20.2836 38.4059 20.2679 38.2506 20.2836C38.0953 20.2993 37.8236 20.2836 37.8003 20.3306C37.777 20.3776 37.7071 20.3541 37.7149 20.4716C37.7226 20.5892 37.5906 20.6048 37.6916 20.7851C37.7925 20.9653 37.8158 20.9731 37.8236 21.216C37.8313 21.4589 37.8624 21.6156 37.8391 21.7488C37.8158 21.882 37.9711 21.9525 37.7304 22.0309C37.4897 22.1093 37.4819 22.1095 37.3965 22.1446C37.3111 22.1798 37.3266 22.2425 37.2801 22.2816C37.2335 22.3208 37.2723 22.36 37.1481 22.4462C37.0238 22.5324 37.0083 22.46 36.9617 22.5667C36.9151 22.6734 36.7521 22.7439 36.6744 22.6812C36.5968 22.6186 36.5657 22.5872 36.5114 22.5245C36.457 22.4618 36.5036 22.5245 36.4337 22.3678C36.3639 22.2111 36.4027 22.1954 36.3328 22.1876C36.2629 22.1798 36.2086 22.1093 36.1853 22.2268C36.162 22.3443 36.061 22.5872 36.1697 22.6891C36.2784 22.7909 36.3483 22.6969 36.325 22.8536C36.3017 23.0103 36.3716 23.12 36.2319 23.1122C36.0921 23.1044 36.1076 23.1592 35.9834 23.1044C35.8592 23.0495 35.9912 23.1984 35.8592 23.0495C35.7272 22.9006 35.7893 22.8301 35.6651 22.8536C35.5408 22.8771 35.4865 22.9476 35.4244 22.9868C35.3622 23.026 35.3389 23.026 35.3389 23.1592C35.3389 23.2924 35.238 23.4883 35.1837 23.4648C35.1293 23.4413 35.0206 23.2689 34.9818 23.3316C34.9429 23.3943 34.679 23.6293 34.6557 23.7625C34.6324 23.8957 34.5004 24.0759 34.4616 24.1386C34.4227 24.2013 34.5237 24.1935 34.3917 24.2875C34.2597 24.3815 34.2907 24.4227 34.1199 24.5001C33.9491 24.5774 33.8792 24.5011 33.8326 24.5001C33.786 24.4991 33.7162 24.3737 33.6618 24.311C33.6075 24.2483 33.5686 24.1778 33.5919 24.1151C33.6152 24.0524 33.6463 24.0289 33.6618 23.9271C33.6773 23.8252 33.7084 23.692 33.7239 23.5901C33.7395 23.4883 33.7395 23.4648 33.8016 23.3629C33.8637 23.2611 34.0889 22.9868 34.0966 22.9006C34.1044 22.8144 34.1355 22.7674 34.0889 22.7282C34.0422 22.6891 34.05 22.0779 34.05 22.0779Z" fill="#DFDFDF"/>
<path d="M28.3043 31.9898C28.4984 31.9898 28.6537 31.8645 28.6459 31.7313C28.6382 31.5981 28.576 31.5746 28.6537 31.4414C28.7313 31.3082 28.8168 31.2533 28.8556 31.2063C28.8944 31.1593 28.9332 31.1593 29.0031 31.0261C29.073 30.8929 28.972 30.9556 29.0885 30.8302C29.205 30.7048 29.2671 30.5481 29.3525 30.5089C29.4379 30.4698 29.632 30.2817 29.6553 30.2112C29.6786 30.1407 29.7485 29.9213 29.6553 29.8273C29.5621 29.7332 29.3603 29.6471 29.2904 29.6314C29.2205 29.6157 29.1506 29.6079 28.941 29.459C28.7313 29.3101 28.7236 29.3101 28.5761 29.1848C28.4285 29.0594 28.5683 29.0281 28.3586 28.981C28.149 28.934 28.1102 28.934 28.0636 28.887C28.017 28.84 27.9471 28.6676 27.8928 28.5814C27.8384 28.4952 27.7608 28.4169 27.6443 28.4012C27.5278 28.3855 27.3337 28.3072 27.2639 28.2288C27.194 28.1505 27.1319 28.0721 27.1086 27.9389C27.0853 27.8057 27.0775 27.8057 26.9688 27.7195C26.8601 27.6333 26.7747 27.602 26.6815 27.5237C26.5883 27.4453 26.5029 27.4453 26.3942 27.4061C26.2855 27.3669 26.2079 27.3356 26.1069 27.2886C26.006 27.2416 25.5013 26.889 25.4159 26.795C25.3305 26.7009 25.2684 26.4894 25.082 26.5442C24.8957 26.5991 24.8569 26.7558 24.686 26.7323C24.5152 26.7088 24.1658 26.6382 24.1969 26.7009C24.2279 26.7636 24.422 26.8655 24.4065 27.0143C24.391 27.1632 24.1581 27.414 24.0959 27.4845C24.0338 27.555 23.9717 27.7195 23.863 27.8292C23.7543 27.9389 23.8552 27.8998 23.6611 28.033C23.467 28.1662 23.568 28.0486 23.4127 28.2759C23.2574 28.5031 23.172 28.5344 23.1331 28.5736C23.0943 28.6128 23.0943 28.6833 23.0477 28.8087C23.0011 28.934 23.0089 28.981 22.9623 29.0907C22.9157 29.2004 22.908 29.3728 22.9002 29.4982C22.8924 29.6236 23.0322 29.9997 23.1254 30.1172C23.2186 30.2347 23.2341 30.3836 23.335 30.4541C23.436 30.5246 23.4748 30.5481 23.4981 30.556C23.5214 30.5638 23.7698 30.5951 23.8164 30.744C23.863 30.8929 23.9639 31.0574 23.9717 31.1593C23.9795 31.2612 24.0105 31.2377 24.0804 31.3082C24.1503 31.3787 24.1814 31.41 24.259 31.4492C24.3366 31.4884 24.3522 31.4414 24.4376 31.5432C24.523 31.6451 24.5773 31.7156 24.5929 31.8488C24.6084 31.982 24.5463 32.0134 24.4997 32.0917C24.4531 32.1701 24.3988 32.9928 24.4221 33.2043C24.4453 33.4159 24.3366 33.5334 24.2512 33.6823C24.1658 33.8312 24.0571 33.8312 24.0105 33.9095C23.9639 33.9879 23.9795 34.0114 23.9639 34.0976C23.9484 34.1838 24.0727 34.6461 23.995 34.8028C23.9174 34.9595 23.9329 34.889 23.8785 35.0692C23.8242 35.2494 23.8475 35.2964 23.8242 35.4218C23.8009 35.5471 23.7543 35.6412 23.7543 35.7273C23.7543 35.8135 23.8164 35.8527 23.8242 36.2131C23.832 36.5736 23.7465 36.7381 23.7155 36.84C23.6844 36.9418 23.6611 37.0907 23.6456 37.1691C23.6301 37.2474 23.5214 37.4355 23.7 37.3806C23.8785 37.3258 23.9484 37.1769 24.1115 37.1064C24.2745 37.0359 24.3677 37.1299 24.4997 36.9967C24.6317 36.8635 24.5696 36.8948 24.7249 36.8086C24.8801 36.7225 24.8025 36.8008 24.8957 36.6049C24.9889 36.409 25.0277 36.4169 25.0121 36.2837C24.9966 36.1505 24.9423 36.1896 24.9811 36.0564C25.0199 35.9232 24.9656 35.8135 25.0432 35.6412C25.1208 35.4688 25.1597 35.3983 25.1907 35.3356C25.2218 35.2729 25.183 35.2259 25.4081 35.0457C25.6333 34.8655 25.6877 34.889 25.7265 34.7244C25.7653 34.5599 25.6333 33.9487 25.7653 33.8233C25.8973 33.698 25.8895 33.6196 26.0293 33.4864C26.1691 33.3532 26.177 33.2827 26.3011 33.2827C26.4253 33.2827 26.5417 33.2122 26.697 33.1808C26.8523 33.1495 26.9222 33.079 27.0154 32.9928C27.1086 32.9066 27.1086 32.8517 27.1707 32.7656C27.2328 32.6794 27.1629 32.7734 27.2638 32.6245C27.3648 32.4756 27.3027 32.4992 27.3803 32.4208C27.4579 32.3424 27.4191 32.3424 27.5744 32.2327C27.7297 32.123 27.8695 31.9898 28.017 32.0055C28.1645 32.0212 28.3043 31.9898 28.3043 31.9898Z" fill="#DFDFDF"/>
<path d="M1.55199 21.5428C1.05073 21.4905 0.590721 21.6092 0.499854 22.1911C0.372428 23.007 1.24381 23.2553 2.33733 23.4292C3.43087 23.6031 4.33565 23.6373 4.46307 22.8213C4.59047 22.0054 3.63228 21.7913 3.00266 21.6912L2.8554 22.6342L2.37824 22.5583L2.60904 21.0803L5.06783 21.4713L4.99889 21.9127L4.35603 21.8105L4.35394 21.8239C4.73838 22.0152 5.01022 22.4491 4.92875 22.9708C4.73451 24.2148 3.51372 24.2468 2.24125 24.0445C1.04832 23.8548 -0.183067 23.4328 0.0226616 22.1152C0.236766 20.7442 1.40179 20.8952 1.64806 20.9275L1.55199 21.5428Z" fill="#9D9E9F"/>
<path d="M1.05566 18.1803L1.31036 17.4238L6.26085 17.7481L6.06227 18.3379L4.70698 18.238L4.21487 19.6997L5.34565 20.4664L5.14708 21.0562L1.05566 18.1803ZM3.79631 19.4275L4.21073 18.1966L1.82251 18.0285L1.81819 18.0413L3.79631 19.4275Z" fill="#9D9E9F"/>
<path d="M2.28857 14.885L2.7851 14.0172L6.55365 15.0949L6.56036 15.0832L3.75133 12.3285L4.24788 11.4606L8.39664 13.8779L8.1014 14.394L4.47559 12.2813L4.46888 12.293L7.56461 15.3321L7.26936 15.8482L3.11348 14.662L3.10677 14.6737L6.73256 16.7863L6.43732 17.3023L2.28857 14.885Z" fill="#9D9E9F"/>
<path d="M5.2998 10.1293L5.6684 9.66388L9.41056 12.6821L9.04194 13.1475L5.2998 10.1293Z" fill="#9D9E9F"/>
<path d="M6.6792 8.42962L7.2291 7.89309L11.1472 9.6836L11.1568 9.67419L8.37717 6.77296L8.80167 6.3588L12.1316 9.83444L11.548 10.4039L7.74763 8.66806L7.73798 8.67747L10.4337 11.4911L10.0092 11.9053L6.6792 8.42962Z" fill="#9D9E9F"/>
<path d="M12.8118 5.07434C12.5093 4.66768 12.1103 4.40775 11.6256 4.73582C10.9457 5.19586 11.3573 6.00973 11.9738 6.93756C12.5904 7.86542 13.1803 8.55862 13.8601 8.09856C14.5399 7.63852 14.0445 6.78356 13.6896 6.24935L12.9038 6.78106L12.6348 6.37617L13.8663 5.54281L15.2526 7.62907L14.8849 7.87794L14.5224 7.33247L14.5112 7.34002C14.6333 7.7547 14.5025 8.2508 14.0679 8.54492C13.0314 9.24632 12.1786 8.36417 11.4612 7.28449C10.7886 6.2723 10.2588 5.07379 11.3565 4.33093C12.4989 3.55791 13.1806 4.52314 13.3245 4.72742L12.8118 5.07434Z" fill="#9D9E9F"/>
<path d="M16.0986 1.88236L16.655 1.68292L18.0834 5.74074L19.9169 5.08349L20.0921 5.58116L17.7022 6.43784L16.0986 1.88236Z" fill="#9D9E9F"/>
<path d="M20.7283 0.50758L21.5066 0.36145L23.6492 4.87641L23.0424 4.99033L22.4655 3.74882L20.9616 4.03116L20.8525 5.40144L20.2456 5.51536L20.7283 0.50758ZM20.9919 3.52959L22.2584 3.29184L21.2348 1.10805L21.2216 1.11053L20.9919 3.52959Z" fill="#9D9E9F"/>
<path d="M24.061 0.0257831L25.5302 0.000322457C26.1541 -0.0104902 26.7629 0.276924 26.7789 1.21794C26.7864 1.65798 26.5323 2.10254 26.0984 2.23873L26.0986 2.25225C26.6914 2.38419 26.9607 2.83323 26.9709 3.42897C26.9876 4.4106 26.4443 4.81955 25.4447 4.83686L24.1433 4.8594L24.061 0.0257831ZM24.6869 2.10066L25.3644 2.0889C25.6126 2.08461 26.1751 2.01392 26.1624 1.26925C26.1539 0.768279 25.9007 0.481485 25.3238 0.491469L24.6597 0.502969L24.6869 2.10066ZM24.7253 4.36176L25.5303 4.34781C26.1542 4.33701 26.3617 3.90678 26.3537 3.43967C26.3424 2.77622 25.9154 2.5263 25.3988 2.53525L24.6945 2.54744L24.7253 4.36176Z" fill="#9D9E9F"/>
<path d="M31.1236 2.95463C30.9346 4.15835 30.5154 5.40065 29.2099 5.19189C27.9044 4.98316 27.8863 3.67091 28.0753 2.46719C28.2643 1.26347 28.6836 0.0211745 29.989 0.22993C31.2945 0.438664 31.3126 1.75091 31.1236 2.95463ZM28.685 2.56466C28.5117 3.66808 28.477 4.58113 29.2855 4.71041C30.094 4.83968 30.3407 3.96054 30.514 2.85715C30.6872 1.75373 30.7219 0.840683 29.9134 0.711404C29.105 0.582132 28.8582 1.46127 28.685 2.56466Z" fill="#9D9E9F"/>
<path d="M33.1453 1.0018L34.6094 1.51473C35.3193 1.76342 35.6241 2.34323 35.3754 3.06598C35.2038 3.56486 34.8522 4.02937 34.2821 3.97299L34.2778 3.9858C34.6553 4.16822 34.7649 4.57215 34.656 4.97118L34.4256 5.76482C34.2772 6.27897 34.3155 6.43578 34.42 6.56554L33.7482 6.33017C33.6861 6.20094 33.7584 5.8464 33.8227 5.6181L34.0289 4.89482C34.2002 4.25244 33.8712 4.09417 33.5859 3.99426L32.8317 3.73001L32.132 5.76395L31.5742 5.56855L33.1453 1.0018ZM32.9901 3.2695L33.5415 3.4627C33.8711 3.57815 34.4732 3.78911 34.7769 2.90647C34.9309 2.45874 34.7298 2.07294 34.2101 1.89086L33.5446 1.65772L32.9901 3.2695Z" fill="#9D9E9F"/>
<path d="M38.1063 3.06891L38.8002 3.45366L37.6221 8.31661L37.0811 8.01661L37.4146 6.68726L36.0739 5.94378L35.1289 6.93404L34.5879 6.63404L38.1063 3.06891ZM36.4124 5.57524L37.5414 6.20131L38.121 3.85737L38.1093 3.85085L36.4124 5.57524Z" fill="#9D9E9F"/>
<path d="M38.8868 9.3153L38.415 8.95716L40.9802 5.51622L40.0205 4.78769L40.3351 4.36569L42.7315 6.18499L42.417 6.60701L41.4519 5.87439L38.8868 9.3153Z" fill="#9D9E9F"/>
<path d="M44.1119 10.9961C43.2359 11.835 42.154 12.5631 41.2442 11.5957C40.3344 10.6282 41.1115 9.57599 41.9874 8.73709C42.8634 7.8982 43.9453 7.1701 44.8551 8.13757C45.7649 9.105 44.9878 10.1572 44.1119 10.9961ZM42.4123 9.18891C41.6094 9.9579 41.0312 10.661 41.5946 11.2601C42.158 11.8592 42.884 11.3133 43.687 10.5443C44.4899 9.77534 45.0682 9.07225 44.5047 8.47312C43.9413 7.87398 43.2153 8.41993 42.4123 9.18891Z" fill="#9D9E9F"/>
<path d="M46.8915 10.6818L47.7461 11.9866C48.1605 12.6192 48.0538 13.2667 47.4213 13.6885C46.9847 13.9798 46.4258 14.1334 46.0068 13.7393L45.9956 13.7467C46.1858 14.1231 46.0298 14.5112 45.7032 14.7615L45.0425 15.2509C44.6152 15.5684 44.5513 15.7166 44.5562 15.8837L44.1641 15.285C44.1925 15.1443 44.4633 14.9068 44.6518 14.7648L45.2509 14.3165C45.7735 13.9111 45.6073 13.5837 45.4408 13.3295L45.0005 12.6574L43.2206 13.8446L42.895 13.3476L46.8915 10.6818ZM45.4035 12.3885L45.7254 12.88C45.9178 13.1737 46.2693 13.7103 47.0417 13.195C47.4335 12.9337 47.5059 12.5039 47.2026 12.0408L46.8141 11.4477L45.4035 12.3885Z" fill="#9D9E9F"/>
<path d="M49.1083 14.3616L49.3708 14.8953L45.0799 17.0447L44.8174 16.511L49.1083 14.3616Z" fill="#9D9E9F"/>
<path d="M50.0198 16.3035L50.8578 18.6543L50.3653 18.8331L49.7273 17.0428L48.3131 17.5561L48.9148 19.2444L48.4224 19.4232L47.8207 17.7349L46.2045 18.3215L46.8698 20.1882L46.3774 20.3669L45.5122 17.9396L50.0198 16.3035Z" fill="#9D9E9F"/>
<path d="M50.418 22.4186C50.9126 22.3251 51.2222 22.0807 51.1185 21.5216C51.0271 21.0292 50.709 20.7862 50.2078 20.8809C48.8822 21.1314 50.0898 23.2246 48.3685 23.5498C47.2804 23.7555 46.821 23.0088 46.6963 22.3366C46.4901 21.2252 46.9967 20.792 47.9991 20.6025L48.1078 21.1882C47.5802 21.2879 47.0192 21.4283 47.1785 22.2868C47.265 22.7527 47.6614 23.0497 48.1626 22.955C49.4948 22.7033 48.307 20.6064 50.0348 20.2799C50.4701 20.1976 51.3686 20.2207 51.5921 21.4252C51.76 22.3303 51.3881 22.8277 50.5267 23.0042L50.418 22.4186Z" fill="#9D9E9F"/>
<path d="M6.64393 33.2909L6.8363 33.8549L2.30178 35.43L2.10938 34.8661L6.64393 33.2909Z" fill="#9D9E9F"/>
<path d="M7.4677 35.5381L7.84037 36.2131L5.1144 39.5768L5.12096 39.5886L8.61836 37.6225L8.90604 38.1436L4.71616 40.499L4.32062 39.7824L6.96385 36.5196L6.95729 36.5078L3.56549 38.4145L3.27783 37.8934L7.4677 35.5381Z" fill="#9D9E9F"/>
<path d="M7.28836 43.8386L6.89746 43.3912L10.1019 40.5402L9.30681 39.6301L9.69982 39.2805L11.6854 41.5533L11.2924 41.9029L10.4928 40.9877L7.28836 43.8386Z" fill="#9D9E9F"/>
<path d="M12.7373 42.4936L14.7125 44.0044L14.396 44.4257L12.8919 43.2752L11.983 44.4851L13.4015 45.5702L13.085 45.9915L11.6665 44.9065L10.6279 46.2893L12.1962 47.489L11.8797 47.9103L9.84033 46.3503L12.7373 42.4936Z" fill="#9D9E9F"/>
<path d="M16.0567 44.8301L17.461 45.4958C18.1419 45.8186 18.385 46.4282 18.0623 47.1214C17.8395 47.5999 17.4412 48.0251 16.8795 47.9086L16.8738 47.9209C17.2307 48.1425 17.2979 48.5563 17.148 48.942L16.836 49.7078C16.6347 50.204 16.6566 50.3641 16.7472 50.5044L16.1028 50.1989C16.0544 50.0636 16.1632 49.7183 16.251 49.4979L16.5316 48.7996C16.7689 48.1782 16.4577 47.9858 16.1842 47.8561L15.4607 47.5131L14.5526 49.464L14.0176 49.2104L16.0567 44.8301ZM15.6663 47.0714L16.1952 47.3221C16.5114 47.472 17.0889 47.7458 17.483 46.8992C17.6829 46.4698 17.5229 46.0644 17.0244 45.828L16.386 45.5254L15.6663 47.0714Z" fill="#9D9E9F"/>
<path d="M20.1052 46.5528L20.8534 46.7169L21.5524 51.0041L21.5655 51.007L22.4155 47.0594L22.9931 47.1861L21.9748 51.9152L21.1807 51.7411L20.5019 47.5831L20.4888 47.5803L19.6645 51.4086L19.0869 51.282L20.1052 46.5528Z" fill="#9D9E9F"/>
<path d="M25.6134 47.3408L26.4058 47.3279L27.7729 52.1455L27.155 52.1556L26.7912 50.8329L25.2601 50.8579L24.9255 52.1921L24.3076 52.2022L25.6134 47.3408ZM25.3731 50.368L26.6625 50.347L26.0139 48.0189L26.0004 48.0191L25.3731 50.368Z" fill="#9D9E9F"/>
<path d="M31.0078 51.6431L30.4278 51.7582L29.6035 47.5283L28.4238 47.7624L28.3228 47.2437L31.2687 46.6591L31.3698 47.1778L30.1835 47.4132L31.0078 51.6431Z" fill="#9D9E9F"/>
<path d="M32.6587 46.159L33.2125 45.9504L34.8892 50.4849L34.3353 50.6934L32.6587 46.159Z" fill="#9D9E9F"/>
<path d="M38.6863 45.8016C39.3015 46.852 39.7634 48.0804 38.6242 48.7599C37.4849 49.4392 36.6414 48.4384 36.0262 47.388C35.4111 46.3376 34.9491 45.1092 36.0884 44.4298C37.2276 43.7504 38.0712 44.7512 38.6863 45.8016ZM36.5582 47.0707C37.1221 48.0336 37.6726 48.7604 38.3781 48.3397C39.0836 47.919 38.7182 47.0818 38.1543 46.1189C37.5904 45.156 37.0399 44.4292 36.3344 44.8499C35.6289 45.2707 35.9944 46.1079 36.5582 47.0707Z" fill="#9D9E9F"/>
<path d="M38.7539 42.7252L39.3079 42.1918L43.2185 44.0106L43.2282 44.0013L40.4646 41.0782L40.8923 40.6664L44.203 44.1682L43.615 44.7344L39.8219 42.9711L39.8122 42.9805L42.4923 45.8153L42.0646 46.227L38.7539 42.7252Z" fill="#9D9E9F"/>
<path d="M42.4956 38.5489L42.9363 37.8841L47.6396 39.4932L47.2961 40.0115L46.0113 39.5602L45.1598 40.8448L46.0562 41.8821L45.7126 42.4004L42.4956 38.5489ZM44.8251 40.472L45.5421 39.3903L43.2761 38.6027L43.2686 38.614L44.8251 40.472Z" fill="#9D9E9F"/>
<path d="M44.2012 35.6233L44.4233 35.0705L48.382 36.6908L49.1141 34.8693L49.5996 35.068L48.6454 37.4423L44.2012 35.6233Z" fill="#9D9E9F"/>
</svg>
