<svg width="91" height="19" viewBox="0 0 91 19" fill="none" xmlns="http://www.w3.org/2000/svg">
<path d="M9.49577 0.283203C8.98874 0.283203 8.49164 0.326061 8.00685 0.405187C8.00685 0.426616 8.00931 0.445581 8.00931 0.46867V8.65916C8.00931 9.31601 7.75911 9.64071 7.23813 9.64071C6.72864 9.64071 6.46775 9.31601 6.46775 8.65916V6.9548C5.66692 7.92237 5.36649 9.22124 5.70395 10.4797C6.26527 12.5788 8.42661 13.8291 10.5221 13.2687C12.6176 12.7058 13.867 10.5424 13.3073 8.44406C12.8842 6.86003 11.56 5.72102 9.93444 5.543C9.53279 5.49849 9.24226 5.13671 9.28752 4.73368C9.33115 4.33152 9.69246 4.04222 10.0949 4.08589C12.3238 4.33151 14.1402 5.89326 14.7205 8.06413C15.4892 10.9446 13.7748 13.914 10.9007 14.6838C8.02496 15.4535 5.06033 13.7376 4.29078 10.858C3.71052 8.69377 4.50147 6.43558 6.30312 5.10703C6.35499 5.0691 6.41095 5.04109 6.46774 5.01885V0.906303C6.46774 0.86757 6.47104 0.832961 6.4735 0.796693C2.88912 2.04777 0.31543 5.46061 0.31543 9.47673C0.31543 14.5535 4.42577 18.6694 9.49577 18.6694C14.5674 18.6694 18.6761 14.5535 18.6761 9.47673C18.6761 4.39907 14.5674 0.283203 9.49577 0.283203Z" fill="#9D9E9F"/>
<path d="M51.89 11.4353C51.034 11.6826 50.6167 12.0048 50.6167 12.7869C50.6167 13.5452 51.1303 14.0018 52.0217 14.0018C52.0159 14.0018 54.3015 13.9861 54.3015 13.9861V10.7521C53.276 11.226 52.4217 11.2837 51.89 11.4353ZM56.8827 13.8501C56.8827 13.8501 56.8736 13.4924 56.8736 14.3529C56.8736 15.2141 56.4036 16.0745 55.1912 16.0745H51.09C49.1731 16.0745 48.0332 14.9331 48.0332 12.9378C48.0332 10.9993 48.9451 10.1603 51.0159 9.72437C52.2694 9.45817 53.2571 9.45817 53.8447 9.26863C54.1123 9.17139 54.2637 8.92496 54.2637 8.5071C54.2637 7.66976 53.7682 7.36648 52.6102 7.36648C51.9649 7.36648 51.4513 7.55602 51.0727 7.87907C50.6357 8.27797 50.3147 8.88623 49.5723 8.88623C48.9649 8.88623 48.49 8.41313 48.49 7.78429C48.49 6.56622 50.0678 5.25412 52.5155 5.25412C55.3641 5.25412 56.8827 6.28185 56.8827 8.10739V13.8501Z" fill="#707070"/>
<path d="M27.0141 4.20808C27.0141 4.97217 26.3473 5.63987 25.5867 5.63987C24.8039 5.63987 24.1577 5.0093 24.1577 4.20808C24.1577 3.40776 24.785 2.77719 25.5867 2.77719C26.3662 2.77719 27.0141 3.42507 27.0141 4.20808Z" fill="#707070"/>
<path d="M28.8924 10.7922C28.8924 9.16786 30.2118 7.84591 31.8356 7.84591C33.4579 7.84591 34.7756 9.16786 34.7756 10.7922C34.7756 12.4183 33.4579 13.7403 31.8356 13.7403C30.2118 13.7403 28.8924 12.4183 28.8924 10.7922ZM26.4595 10.7922C26.4595 13.7609 28.871 16.1748 31.8356 16.1748C34.7986 16.1748 37.2077 13.7609 37.2077 10.7922C37.2077 7.82448 34.7986 5.4097 31.8356 5.4097C28.871 5.4097 26.4595 7.82448 26.4595 10.7922Z" fill="#707070"/>
<path d="M71.7152 10.7922C71.7152 9.16786 73.0361 7.84591 74.6592 7.84591C76.2798 7.84591 77.5991 9.16786 77.5991 10.7922C77.5991 12.4183 76.2798 13.7403 74.6592 13.7403C73.0361 13.7403 71.7152 12.4183 71.7152 10.7922ZM69.2822 10.7922C69.2822 13.7609 71.6946 16.1748 74.6592 16.1748C77.6197 16.1748 80.0313 13.7609 80.0313 10.7922C80.0313 7.82448 77.6197 5.4097 74.6592 5.4097C71.6946 5.4097 69.2822 7.82448 69.2822 10.7922Z" fill="#707070"/>
<path d="M44.8285 5.65823L42.3594 13.0098L40.0021 5.65823L37.0161 5.66402L40.2441 14.7611C40.6071 15.7921 41.4532 16.1712 42.4326 16.1712C43.4458 16.1416 44.0754 15.9438 44.5034 14.7611L47.8211 5.66402L44.8285 5.65823Z" fill="#707070"/>
<path d="M87.2778 5.50825C86.0005 5.40115 84.6235 5.65745 84.1848 6.2904V5.66982H81.5576V14.6647C81.5576 15.6759 82.0202 16.1745 82.9156 16.1745C83.8111 16.1745 84.2679 15.6759 84.2679 14.6647V9.99168C84.2679 8.65655 85.0868 7.85547 86.3445 7.85547C87.5075 7.85547 87.9083 8.50327 87.9083 9.87714V14.6647C87.9083 15.6759 88.3642 16.1745 89.2589 16.1745C90.1552 16.1745 90.6144 15.6759 90.6144 14.6647V9.09337C90.6145 6.76677 89.0466 5.65579 87.2778 5.50825Z" fill="#707070"/>
<path d="M23.269 4.96478H22.5249V14.6652C22.5249 15.6772 22.985 16.1742 23.8796 16.1742C24.7751 16.1742 25.2327 15.6772 25.2327 14.6652V6.6288C24.2969 6.52492 23.5216 5.86067 23.269 4.96478Z" fill="#707070"/>
<path d="M69.5657 4.20808C69.5657 4.97217 68.8989 5.63987 68.1383 5.63987C67.3563 5.63987 66.7085 5.0093 66.7085 4.20808C66.7085 3.40776 67.3366 2.77719 68.1383 2.77719C68.9187 2.77719 69.5657 3.42507 69.5657 4.20808Z" fill="#707070"/>
<path d="M65.8199 4.96478H65.0742L65.0775 14.6652C65.0775 15.6772 65.5367 16.1742 66.4306 16.1742C67.3269 16.1742 67.7845 15.6772 67.7845 14.6652V6.6288C66.8495 6.52492 66.0742 5.86067 65.8199 4.96478Z" fill="#707070"/>
<path d="M62.6168 13.9973C62.4266 13.9973 62.2744 14.0179 62.1599 14.0179C61.6834 14.0179 61.569 13.8465 61.569 13.3883V7.7799H62.2546C62.9789 7.7799 63.341 7.45434 63.341 6.82551C63.341 6.17524 62.9789 5.87197 62.2546 5.87197H61.5665V3.95825H58.8661L58.8628 13.2548C58.8628 15.3547 59.3772 16.174 61.7031 16.174C62.9789 16.174 63.5698 15.8121 63.5698 14.9344C63.5698 14.3608 63.2266 13.9973 62.6168 13.9973Z" fill="#707070"/>
</svg>
