<svg width="51" height="51" viewBox="0 0 51 51" fill="none" xmlns="http://www.w3.org/2000/svg">
<path d="M40.2286 30.0501C40.7586 30.7801 41.2786 31.5101 41.9286 32.1401C41.5986 32.2201 41.3886 32.4901 41.1286 32.6601C40.9586 32.7701 41.0386 33.0301 41.0886 33.2201C41.1286 33.3801 41.2486 33.4201 41.4086 33.4301C41.8186 33.4601 42.2186 33.6101 42.5586 33.8201C42.8986 34.0201 43.2186 34.0601 43.5686 33.9901C44.1086 33.8801 44.6386 33.9201 45.1686 34.0501C45.3686 34.1001 45.5486 34.3501 45.7086 34.3401C46.2286 34.2801 46.2786 34.6301 46.3886 34.9701C46.4286 35.0901 46.4786 35.2101 46.5186 35.3301C46.6186 35.5801 46.7686 35.6301 46.9586 35.4101C47.1886 35.1301 47.4386 35.1601 47.7586 35.2701C47.9486 35.3401 48.1386 35.5601 48.3886 35.3901C48.1886 35.9801 47.9286 36.5401 47.5786 37.0601C47.0586 37.8201 46.6986 38.6701 46.1786 39.4301C44.5786 41.7501 42.5886 43.6701 40.3686 45.3801C38.5286 46.7901 36.5186 47.8801 34.3486 48.6501C32.4886 49.3101 30.5686 49.8201 28.5886 50.0001C28.4786 50.0101 28.3486 49.9901 28.3486 50.1501H21.7786C21.6386 50.0901 22.0786 50.0301 21.7786 49.9901C17.0086 49.4701 12.8686 47.4701 9.16858 44.5401C7.71858 43.3901 6.41858 42.0601 5.33858 40.5401C5.07858 40.1701 4.80858 39.8101 4.49858 39.4801C4.20858 39.1801 4.26858 38.9301 4.47858 38.6201C5.28858 37.4001 6.10858 36.1801 6.88858 34.9501C7.41858 34.1201 7.87858 33.2401 8.41858 32.4201C9.11858 31.3701 9.68858 30.2601 10.3386 29.1901C10.8186 28.4001 11.2686 27.5901 11.6986 26.7801C12.4686 25.3001 13.4486 23.9401 14.1186 22.4101C14.3686 21.8401 14.7186 21.3101 14.8986 20.7101C14.9486 20.5401 15.1386 20.3801 15.2686 20.2201C15.5486 19.8801 15.7086 19.4701 16.0486 19.1201C16.0486 19.4901 16.1086 19.8601 16.0386 20.2201C15.9286 20.7601 15.9886 21.2901 15.9886 21.8201C15.9786 23.1001 15.9786 24.3801 15.9986 25.6601C16.0186 26.7401 16.0686 27.8201 16.1486 28.8901C16.1786 29.2501 16.3286 29.6401 16.3386 29.9801C16.3586 30.4401 16.4386 30.8801 16.4686 31.3301C16.5586 32.3001 16.8186 33.2401 16.9886 34.2001C17.1486 35.0701 17.4486 35.8801 17.7586 36.7001C18.2686 38.0101 18.9586 39.2101 19.9586 40.2301C20.5786 40.8601 21.3786 41.1401 22.1886 41.4001C23.3886 41.7801 24.4586 41.4301 25.5186 40.8701C26.9986 40.0901 28.1286 38.9201 29.1786 37.6501C31.4086 34.9301 33.0886 31.8901 34.6486 28.7701C34.6886 28.6901 34.7286 28.6201 34.7786 28.5501C35.1486 28.7701 35.3486 29.1001 35.4486 29.5101C35.5286 29.8301 35.7286 30.0001 36.0986 29.9601C36.3986 29.9201 36.6886 29.9601 36.9886 30.1301C37.5286 30.4301 38.1686 30.1901 38.4886 29.6601C38.7286 29.2601 38.9686 29.2601 39.2286 29.6701C39.3586 29.8701 39.4686 30.0901 39.6686 30.2401C39.9286 30.4201 40.1386 30.4501 40.2086 30.0601L40.2286 30.0501Z" fill="#9D9D9D"/>
<path d="M48.3879 35.38C48.1379 35.55 47.9479 35.33 47.7579 35.26C47.4479 35.15 47.1879 35.12 46.9579 35.4C46.7779 35.62 46.6279 35.57 46.5179 35.32C46.4679 35.2 46.4179 35.08 46.3879 34.96C46.2779 34.63 46.2279 34.28 45.7079 34.33C45.5379 34.35 45.3579 34.09 45.1679 34.04C44.6479 33.91 44.1079 33.87 43.5679 33.98C43.2179 34.05 42.8879 34.01 42.5579 33.81C42.2179 33.6 41.8279 33.45 41.4079 33.42C41.2479 33.41 41.1279 33.37 41.0879 33.21C41.0379 33.02 40.9679 32.76 41.1279 32.65C41.3979 32.48 41.6079 32.21 41.9279 32.13C42.3979 32.5 42.8379 32.9 43.3779 33.17C43.6579 33.31 43.9879 33.51 44.2379 33.24C44.4679 33 44.2679 32.68 44.1279 32.43C43.4979 31.29 42.7979 30.19 42.2879 28.99C41.5479 27.26 40.8879 25.51 40.5079 23.66C40.3279 22.8 40.0879 21.95 39.9479 21.08C39.7479 19.87 39.7279 18.64 39.5879 17.43C39.4879 16.57 39.1979 15.71 38.3479 15.28C37.6379 14.92 36.0079 15.13 35.4579 16.07C35.0079 16.83 34.5979 17.6 34.2779 18.43C33.8679 19.51 33.3479 20.55 32.8679 21.61C31.9779 23.56 30.8579 25.38 29.8979 27.3C29.8679 27.36 29.8279 27.42 29.7879 27.48C29.2379 27.44 29.1779 27.38 29.2979 26.89C29.3679 26.62 29.2779 26.43 29.0379 26.41C28.5679 26.39 28.5679 26.11 28.5879 25.78C28.5979 25.61 28.5879 25.44 28.5879 25.27C28.5879 24.74 28.4979 24.65 27.9579 24.68C27.5679 24.71 27.1779 24.77 26.7879 24.84C26.2079 24.95 25.7279 24.6 25.1879 24.53C24.3379 24.42 23.4879 24.36 22.6379 24.19C21.8879 24.04 21.2079 23.5 21.1679 22.74C21.1479 22.4 21.0079 22.15 20.6579 22.04C20.5979 20.7 20.6479 19.36 20.6279 18.02C20.6279 17.16 20.5879 16.29 20.6679 15.44C20.7579 14.31 20.8179 13.18 20.8879 12.06C20.9779 10.53 21.3879 9.03 21.2479 7.49C21.2079 7.05 21.3379 6.55 20.8879 6.18C20.8179 6.13 20.8479 5.8 20.6879 5.63C19.7179 4.6 17.7179 4.83 16.9279 6.2C16.2679 7.33 15.7679 8.55 15.1379 9.7C14.7279 10.45 14.3179 11.2 13.8979 11.95C13.2279 13.16 12.5479 14.37 11.8679 15.58C11.8279 15.65 11.7679 15.72 11.7179 15.78C11.5979 15.75 11.4779 15.72 11.3579 15.7C11.2179 15.68 11.0779 15.66 10.9979 15.82C10.9179 15.97 10.8979 16.11 11.0279 16.24C11.1079 16.32 11.1979 16.38 11.2779 16.45C11.2179 16.64 11.1379 16.81 10.9979 16.96C10.5679 16.88 10.2379 16.73 10.3179 16.19C10.3479 16.01 10.1879 15.89 9.99789 15.86C9.70789 15.81 9.41789 15.75 9.11789 15.77C8.87789 15.78 8.78789 15.69 8.86789 15.43C8.97789 15.1 9.17789 14.86 9.48789 14.71C9.68789 14.62 9.75789 14.48 9.73789 14.27C9.71789 14.04 9.55789 14 9.37789 13.98C8.51789 13.92 7.71789 13.57 6.82789 13.62C6.38789 13.65 5.90789 13.57 5.55789 13.25C4.97789 12.71 4.50789 12.07 4.08789 11.4C4.84789 10.24 5.69789 9.15 6.64789 8.13C9.14789 5.45 12.0979 3.39 15.4479 1.92C16.6379 1.4 17.8779 1.01 19.1579 0.72C20.0979 0.5 21.0479 0.37 21.9879 0.21C22.6179 0.1 23.2779 -0.03 23.9379 0.07C24.1779 0.11 24.4379 0 24.6879 0C26.3979 0 28.0879 0.15 29.7779 0.39C32.2279 0.74 34.5079 1.53 36.6779 2.64C38.0579 3.35 39.3979 4.17 40.6579 5.1C43.2679 7.03 45.3579 9.42 47.0279 12.19C48.5579 14.73 49.5179 17.47 50.0579 20.37C50.2279 21.29 50.3679 22.21 50.4379 23.15C50.4979 24.04 50.6479 24.93 50.5779 25.82C50.4979 26.88 50.4179 27.93 50.2679 28.99C49.9679 31.18 49.3479 33.26 48.4379 35.27C48.4179 35.31 48.3879 35.34 48.3679 35.37L48.3879 35.38Z" fill="#9D9D9D"/>
<path d="M4.09848 11.4102C4.51848 12.0802 4.98848 12.7202 5.56848 13.2602C5.91848 13.5802 6.40848 13.6602 6.83848 13.6302C7.71848 13.5802 8.52848 13.9302 9.38848 13.9902C9.55848 14.0002 9.72848 14.0502 9.74848 14.2802C9.76848 14.4902 9.68848 14.6202 9.49848 14.7202C9.18848 14.8702 8.98848 15.1002 8.87848 15.4402C8.79848 15.7002 8.88848 15.7902 9.12848 15.7802C9.42848 15.7602 9.71848 15.8202 10.0085 15.8702C10.1985 15.9002 10.3585 16.0202 10.3285 16.2002C10.2485 16.7402 10.5785 16.8902 11.0085 16.9702C10.2185 18.4002 9.32848 19.7602 8.47848 21.1602C7.18848 23.2902 5.89848 25.4302 4.49848 27.5002C3.52848 28.9402 2.51848 30.3602 1.51848 31.7902C1.45848 31.8802 1.37848 31.9702 1.30848 32.0602C1.14848 32.2702 1.02848 32.3202 0.948483 32.0102C0.768483 31.3302 0.578483 30.6502 0.438483 29.9602C-0.101517 27.3602 -0.0615166 24.7202 0.128483 22.1002C0.238483 20.5002 0.648483 18.9202 1.18848 17.4002C1.84848 15.5202 2.68848 13.7102 3.70848 11.9902C3.81848 11.8002 3.96848 11.6202 4.09848 11.4402V11.4102Z" fill="#9D9D9D"/>
<path d="M20.668 22.05C21.018 22.16 21.158 22.41 21.178 22.75C21.218 23.52 21.898 24.05 22.648 24.2C23.498 24.37 24.348 24.43 25.198 24.54C25.748 24.61 26.228 24.96 26.798 24.85C27.188 24.78 27.578 24.71 27.968 24.69C28.508 24.65 28.598 24.75 28.598 25.28C28.598 25.45 28.598 25.62 28.598 25.79C28.578 26.12 28.578 26.4 29.048 26.42C29.278 26.43 29.368 26.62 29.308 26.9C29.188 27.39 29.248 27.45 29.798 27.49C29.398 28.5 28.838 29.44 28.248 30.34C27.338 31.72 26.498 33.1401 25.608 34.5301C25.148 35.2501 24.568 35.8701 23.958 36.4601C23.668 36.7401 23.388 36.79 23.048 36.51C22.628 36.18 22.408 35.73 22.218 35.25C21.768 34.1 21.568 32.89 21.378 31.68C21.178 30.34 20.998 29 20.918 27.64C20.808 25.78 20.608 23.92 20.688 22.05H20.668Z" fill="#9D9D9D"/>
<path d="M40.2288 30.0501C40.1588 30.4401 39.9388 30.4101 39.6888 30.2301C39.4888 30.0901 39.3788 29.8701 39.2488 29.6601C38.9888 29.2501 38.7588 29.2501 38.5088 29.6501C38.1888 30.1901 37.5488 30.4201 37.0088 30.1201C36.7088 29.9601 36.4188 29.9101 36.1188 29.9501C35.7488 29.9901 35.5488 29.8201 35.4688 29.5001C35.3688 29.0901 35.1788 28.7501 34.7988 28.5401C35.3688 27.2701 35.9288 25.9901 36.5088 24.7301C36.6088 24.5201 36.6388 24.2801 36.8088 24.1001C36.8788 24.0301 36.8988 23.9101 37.0288 23.9501C37.1288 23.9801 37.1888 24.0401 37.2188 24.1501C37.5688 25.2201 38.0888 26.2301 38.5688 27.2401C38.8188 27.7601 39.1188 28.2501 39.3988 28.7601C39.0888 29.2301 39.2188 29.4401 39.8688 29.5101C40.0188 29.6701 40.1288 29.8501 40.2188 30.0501H40.2288Z" fill="#9D9D9D"/>
<path d="M11.2881 16.4601C11.2081 16.3901 11.1081 16.3301 11.0381 16.2501C10.9081 16.1201 10.9281 15.9801 11.0081 15.8301C11.0881 15.6701 11.2281 15.6901 11.3681 15.7101C11.4881 15.7301 11.6081 15.7601 11.7281 15.7901C11.6281 16.0401 11.4781 16.2701 11.2881 16.4601Z" fill="#9D9D9D"/>
<path d="M39.8785 29.51C39.2285 29.44 39.0985 29.23 39.4085 28.76C39.5685 29.01 39.7185 29.26 39.8785 29.51Z" fill="#9D9D9D"/>
</svg>
