<svg width="26" height="29" viewBox="0 0 26 29" fill="none" xmlns="http://www.w3.org/2000/svg">
<path d="M3.61738 12.606C3.61738 13.0709 3.61738 13.4422 3.61738 13.8136C3.61486 16.6937 3.60981 19.5713 3.60981 22.4515C3.60981 23.2094 3.61739 23.2069 2.84683 23.2018C2.07122 23.1968 1.29813 23.1917 0.522518 23.2043C0.247138 23.2094 0.143555 23.1361 0.143555 22.8355C0.16124 17.5502 0.16882 12.2624 0.176399 6.9746C0.176399 6.58806 0.176399 6.20405 0.176399 5.77456C0.436621 5.77456 0.691802 5.77456 0.94697 5.77456C1.65942 5.77456 2.36933 5.76698 3.08178 5.78719C3.20053 5.78971 3.3597 5.88572 3.42539 5.98677C5.2722 8.88963 7.10638 11.8001 8.94308 14.7105C9.22099 15.1526 9.49637 15.5973 9.7768 16.0369C9.82985 16.1202 9.90312 16.1885 9.99913 16.2996V5.79224H13.4831C13.4831 6.38342 13.4831 6.94681 13.4831 7.50768C13.4831 12.3862 13.4805 17.2647 13.4805 22.1432C13.4805 22.406 13.4805 22.6662 13.4932 22.929C13.5033 23.1184 13.4199 23.1993 13.238 23.1993C12.3159 23.1993 11.3962 23.2069 10.4741 23.1968C10.3806 23.1968 10.2518 23.1159 10.1987 23.0325C8.43023 20.2408 6.66678 17.4466 4.90587 14.6499C4.53196 14.0562 4.17825 13.4523 3.81192 12.8561C3.7715 12.7879 3.71087 12.7323 3.60981 12.6085L3.61738 12.606Z" fill="#9C9C9C"/>
<path d="M14.6056 14.4857C14.6056 11.8153 14.6031 9.1474 14.6056 6.47698C14.6081 4.7388 14.6258 3.00062 14.6334 1.26497C14.6334 1.11844 14.6309 0.971904 14.6208 0.825372C14.593 0.393354 14.8229 0.213978 15.2221 0.388301C15.3004 0.421145 15.3635 0.582836 15.3635 0.686419C15.3711 2.26796 15.3686 3.84697 15.3635 5.42851C15.3635 5.82263 15.3585 5.82516 15.7678 5.82263C18.9511 5.82263 22.1343 5.82263 25.3151 5.81253C25.6082 5.81253 25.689 5.906 25.684 6.19402C25.6663 7.04289 25.6688 7.88924 25.684 8.73812C25.689 9.01098 25.593 9.07414 25.3404 9.07414C22.9529 9.06403 20.5654 9.06403 18.1805 9.0615C17.7611 9.0615 17.7535 9.06908 17.7535 9.47836C17.7535 10.451 17.7535 11.4262 17.7535 12.3989C17.7535 12.8082 17.7535 12.8082 18.1754 12.8082C20.1334 12.8082 22.0914 12.8082 24.0494 12.8057C24.3778 12.8057 24.542 12.9707 24.542 13.3008C24.542 14.127 24.5344 14.9556 24.5471 15.7818C24.5496 16.0142 24.4738 16.0925 24.2414 16.0925C22.2 16.0774 20.1587 16.0774 18.1173 16.0622C17.8571 16.0622 17.7459 16.1279 17.751 16.4159C17.7662 17.4947 17.7636 18.5735 17.751 19.6497C17.751 19.8645 17.8369 19.9352 18.0213 19.9377C18.3043 19.9428 18.5872 19.9377 18.8702 19.9377C21.0177 19.9377 23.1626 19.9377 25.3101 19.9327C25.5829 19.9327 25.6991 19.9933 25.6915 20.3015C25.6713 21.1479 25.6789 21.9968 25.6915 22.8457C25.6941 23.0806 25.636 23.1918 25.3808 23.1918C22.1571 23.1817 18.9308 23.1842 15.7071 23.169C15.4368 23.169 15.3661 23.2575 15.3686 23.5126C15.3787 25.0714 15.3762 26.6328 15.3762 28.1916C15.3762 28.5503 15.0199 28.76 14.7041 28.5756C14.646 28.5402 14.6132 28.4189 14.6132 28.3381C14.6081 23.7223 14.6081 19.104 14.6081 14.4883L14.6056 14.4857Z" fill="#9C9C9C"/>
</svg>
