<svg width="12" height="13" viewBox="0 0 12 13" fill="none" xmlns="http://www.w3.org/2000/svg">
<path d="M1.69997 5.63799C1.69997 5.85199 1.69997 6.02198 1.69997 6.19298C1.69897 7.51498 1.69698 8.83598 1.69698 10.158C1.69698 10.506 1.69997 10.504 1.37297 10.502C1.04397 10.5 0.714971 10.497 0.385971 10.503C0.268971 10.506 0.224976 10.472 0.224976 10.334C0.232976 7.90801 0.235968 5.48098 0.238968 3.05398C0.238968 2.87598 0.238968 2.69998 0.238968 2.50298C0.349968 2.50298 0.457964 2.50298 0.565964 2.50298C0.868964 2.50298 1.16998 2.49899 1.47298 2.50899C1.52298 2.50999 1.59097 2.554 1.61797 2.6C2.40297 3.933 3.18097 5.269 3.96097 6.604C4.07897 6.807 4.19597 7.011 4.31497 7.213C4.33797 7.252 4.36897 7.28301 4.40997 7.33401V2.51098H5.88898C5.88898 2.78198 5.88898 3.041 5.88898 3.298C5.88898 5.538 5.88797 7.77698 5.88797 10.016C5.88797 10.137 5.88797 10.256 5.89297 10.377C5.89697 10.464 5.86197 10.501 5.78497 10.501C5.39297 10.501 5.00296 10.504 4.61096 10.5C4.57196 10.5 4.51697 10.463 4.49397 10.424C3.74297 9.143 2.99496 7.85999 2.24696 6.57699C2.08796 6.30399 1.93797 6.02698 1.78297 5.75298C1.76497 5.72198 1.73998 5.69601 1.69698 5.64001L1.69997 5.63799Z" fill="#9C9C9C"/>
<path d="M6.36495 6.50096C6.36495 5.27496 6.36395 4.05097 6.36495 2.82497C6.36595 2.02697 6.37394 1.22897 6.37694 0.432972C6.37694 0.364972 6.37594 0.297945 6.37094 0.230945C6.35994 0.0329451 6.45694 -0.0500436 6.62694 0.0299564C6.65994 0.0449564 6.68694 0.11995 6.68694 0.16695C6.68994 0.89295 6.68894 1.61795 6.68694 2.34395C6.68694 2.52495 6.68494 2.52595 6.85794 2.52495C8.20994 2.52495 9.56194 2.52495 10.9119 2.51995C11.0359 2.51995 11.0709 2.56296 11.0689 2.69496C11.0609 3.08496 11.0619 3.47296 11.0689 3.86296C11.0709 3.98796 11.0299 4.01696 10.9229 4.01696C9.90894 4.01296 8.89494 4.01294 7.88294 4.01094C7.70494 4.01094 7.70194 4.01496 7.70194 4.20296C7.70194 4.64896 7.70194 5.09696 7.70194 5.54296C7.70194 5.73096 7.70194 5.73095 7.88094 5.73095C8.71194 5.73095 9.54294 5.73097 10.3749 5.72997C10.5139 5.72997 10.5839 5.80596 10.5839 5.95696C10.5839 6.33696 10.5809 6.71697 10.5859 7.09597C10.5869 7.20297 10.5549 7.23897 10.4559 7.23897C9.58893 7.23197 8.72294 7.23196 7.85594 7.22496C7.74594 7.22496 7.69794 7.25495 7.69994 7.38695C7.70694 7.88195 7.70594 8.37797 7.69994 8.87197C7.69994 8.96997 7.73694 9.00296 7.81494 9.00396C7.93494 9.00596 8.05594 9.00396 8.17594 9.00396C9.08694 9.00396 9.99794 9.00397 10.9099 9.00097C11.0259 9.00097 11.0749 9.02895 11.0719 9.17095C11.0629 9.55895 11.0669 9.94895 11.0719 10.3389C11.0729 10.4459 11.0479 10.497 10.9399 10.497C9.57094 10.493 8.20093 10.494 6.83293 10.487C6.71793 10.487 6.68794 10.5279 6.68894 10.6449C6.69294 11.3599 6.69194 12.077 6.69194 12.792C6.69194 12.957 6.54094 13.053 6.40694 12.969C6.38194 12.952 6.36794 12.8969 6.36794 12.8599C6.36594 10.7409 6.36594 8.62097 6.36594 6.50197L6.36495 6.50096Z" fill="#9C9C9C"/>
</svg>
