<svg width="13" height="9" viewBox="0 0 13 9" fill="none" xmlns="http://www.w3.org/2000/svg">
<path d="M12.791 1.62C12.791 1.636 12.793 1.651 12.793 1.667C12.765 1.734 12.77 1.74801 12.825 1.75901V2.35401C12.8 2.36501 12.791 2.38899 12.789 2.41599C12.783 2.51899 12.752 2.61702 12.727 2.71702C12.668 2.96102 12.592 3.19901 12.524 3.44101C12.431 3.77401 12.338 4.10701 12.246 4.44001C12.149 4.79201 12.055 5.145 11.953 5.495C11.876 5.757 11.819 6.026 11.722 6.28C11.602 6.6 11.433 6.889 11.222 7.15C11.106 7.294 10.983 7.43199 10.847 7.54999C10.69 7.68699 10.523 7.81399 10.345 7.92099C10.211 8.00099 10.074 8.074 9.93604 8.142C9.82804 8.195 9.71003 8.227 9.59603 8.262C9.53403 8.281 9.47403 8.30699 9.40903 8.31699C9.33203 8.32799 9.25604 8.35001 9.17904 8.35401C8.97104 8.36401 8.76304 8.383 8.55404 8.383C6.52004 8.38 4.48603 8.38102 2.45203 8.38102C2.31203 8.38102 2.17004 8.395 2.03104 8.378C1.91004 8.363 1.78903 8.348 1.66803 8.318C1.37403 8.246 1.11603 8.09601 0.892033 7.88401C0.681033 7.68701 0.528038 7.442 0.425038 7.159C0.311038 6.844 0.287035 6.51799 0.306035 6.18799C0.318035 5.96999 0.375031 5.75899 0.437031 5.54999C0.534031 5.22099 0.625029 4.889 0.719029 4.56C0.752029 4.445 0.793029 4.33301 0.816029 4.21601C0.845029 4.06901 0.90304 3.93301 0.93604 3.78901C0.96104 3.67601 0.985039 3.558 1.02004 3.452C1.07604 3.284 1.12204 3.11199 1.17304 2.94199C1.19104 2.88399 1.19303 2.81301 1.21503 2.76401C1.26303 2.65801 1.28603 2.545 1.31803 2.434C1.37203 2.247 1.43103 2.06 1.50803 1.883C1.55503 1.773 1.61303 1.66701 1.67803 1.56601C1.73403 1.47901 1.77904 1.383 1.84304 1.301C1.89004 1.24 1.93203 1.174 1.98203 1.116C2.18903 0.874002 2.41503 0.655999 2.67603 0.481999C2.86703 0.355999 3.06503 0.249011 3.27703 0.169011C3.40003 0.123011 3.52404 0.0820044 3.65104 0.0560044C3.80704 0.0230044 3.96503 4.64666e-06 4.12503 4.64666e-06C6.38103 0.00100465 8.63703 -0.00200463 10.894 0.00299537C11.242 0.00299537 11.579 0.0910171 11.89 0.269017C12.056 0.364017 12.207 0.486993 12.339 0.631993C12.563 0.876993 12.702 1.17302 12.775 1.50602C12.783 1.54302 12.786 1.58201 12.791 1.62101V1.62ZM8.29204 7.61301C8.50204 7.60401 8.80603 7.63199 9.10903 7.60199C9.28503 7.58399 9.45603 7.543 9.62203 7.478C9.85103 7.388 10.06 7.25999 10.256 7.10599C10.446 6.95599 10.614 6.78101 10.758 6.58301C10.847 6.46101 10.938 6.335 11.003 6.198C11.059 6.081 11.109 5.958 11.141 5.827C11.203 5.576 11.283 5.33101 11.352 5.08201C11.469 4.66501 11.583 4.247 11.702 3.831C11.75 3.662 11.806 3.49502 11.851 3.32502C11.908 3.10902 11.976 2.89699 12.029 2.67899C12.071 2.51199 12.127 2.34899 12.151 2.17499C12.175 2.00399 12.179 1.83801 12.14 1.66901C12.094 1.47001 12.014 1.29102 11.881 1.14402C11.642 0.878017 11.335 0.773 11.005 0.758C10.63 0.741 10.255 0.754002 9.88004 0.754002C9.63804 0.754002 9.39703 0.751013 9.15503 0.790013C8.92203 0.828013 8.70103 0.904994 8.49503 1.01999C8.22203 1.17399 7.97703 1.371 7.77103 1.62C7.56703 1.866 7.41704 2.14601 7.32404 2.45801C7.22004 2.80801 7.12703 3.161 7.02703 3.512C6.89003 3.995 6.75204 4.478 6.61504 4.96C6.55904 5.156 6.50703 5.353 6.44603 5.547C6.42103 5.626 6.41004 5.712 6.37804 5.788C6.33104 5.906 6.30104 6.03002 6.29804 6.15302C6.29304 6.36102 6.27303 6.57101 6.34203 6.77701C6.39403 6.93001 6.45803 7.07701 6.55603 7.19901C6.77603 7.47401 7.06703 7.599 7.39803 7.612C7.66403 7.623 7.93104 7.61402 8.29104 7.61402L8.29204 7.61301ZM5.24204 2.47699C5.34104 2.47699 5.44104 2.47699 5.54104 2.47699C5.93904 2.47499 6.33504 2.474 6.73304 2.474C6.77304 2.474 6.80903 2.47101 6.80803 2.41501C6.80603 2.36601 6.82004 2.32301 6.83504 2.27701C6.88504 2.11901 6.93104 1.96 6.97904 1.801C7.03704 1.604 7.09104 1.406 7.15404 1.21C7.19304 1.089 7.22504 0.964992 7.25904 0.842992C7.28004 0.767992 7.26504 0.75501 7.19404 0.75501C6.38104 0.75501 5.56804 0.752993 4.75504 0.756993C4.50704 0.757993 4.26003 0.744006 4.01203 0.776006C3.86203 0.796006 3.71303 0.817009 3.57103 0.867009C3.23103 0.986009 2.93104 1.18401 2.66704 1.44501C2.46604 1.64401 2.31004 1.87801 2.18804 2.13901C2.07004 2.39401 2.01304 2.67299 1.93204 2.94199C1.81304 3.33399 1.70603 3.73 1.59203 4.124C1.52803 4.345 1.45304 4.56302 1.39504 4.78602C1.30804 5.11702 1.20104 5.44101 1.11304 5.77201C1.04004 6.04101 0.963032 6.30799 1.01903 6.59699C1.03303 6.66699 1.04203 6.73902 1.06203 6.80802C1.11403 6.99202 1.20603 7.15202 1.33603 7.28202C1.56403 7.51102 1.84103 7.615 2.15003 7.616C2.41303 7.618 2.67603 7.619 2.93903 7.616C3.29303 7.611 3.64703 7.636 4.00003 7.603C4.13803 7.59 4.27503 7.55902 4.40203 7.50202C4.57203 7.42602 4.73504 7.33002 4.88904 7.21702C5.02204 7.11802 5.14503 7.008 5.25403 6.883C5.38303 6.736 5.49504 6.57202 5.59304 6.39802C5.64804 6.30002 5.70903 6.20201 5.74303 6.09501C5.77503 5.99201 5.81404 5.888 5.83504 5.78C5.84604 5.725 5.86504 5.67202 5.88004 5.61802C5.91504 5.49502 5.95003 5.373 5.98403 5.25C6.01403 5.144 6.04604 5.03801 6.07604 4.93201C6.10804 4.81601 6.13403 4.69701 6.17403 4.58301C6.22003 4.44701 6.24904 4.30602 6.29604 4.17002C6.32104 4.09702 6.33703 4.01501 6.35903 3.94001C6.39503 3.82101 6.42303 3.7 6.46103 3.581C6.48503 3.506 6.47403 3.49302 6.40203 3.49302C5.70503 3.49302 5.00804 3.49302 4.31104 3.49302C4.28904 3.49302 4.26403 3.497 4.24503 3.487C4.20603 3.466 4.18603 3.49299 4.17203 3.51999C4.14803 3.56399 4.12403 3.61101 4.11203 3.66001C4.05703 3.89201 3.98404 4.11701 3.92104 4.34501C3.88004 4.49501 3.83404 4.643 3.78504 4.788C3.75304 4.881 3.75703 4.89301 3.84903 4.89301C4.01903 4.89301 4.18703 4.89302 4.35703 4.89402C4.45303 4.89402 4.47204 4.91601 4.44404 5.01401C4.37104 5.27901 4.29303 5.541 4.22103 5.806C4.20103 5.882 4.16204 5.90101 4.09304 5.90101C3.65704 5.89801 3.22204 5.89901 2.78504 5.90101C2.69304 5.90101 2.68404 5.89102 2.71204 5.79502C2.85204 5.30902 2.99304 4.822 3.13404 4.335C3.21904 4.041 3.30604 3.74801 3.39104 3.45401C3.45104 3.24501 3.51004 3.03499 3.57004 2.82599C3.58804 2.76199 3.61404 2.70301 3.63004 2.63801C3.67404 2.45601 3.65904 2.479 3.82404 2.478C4.29704 2.477 4.77003 2.478 5.24303 2.478L5.24204 2.47699Z" fill="#727272"/>
<path d="M7.67 0.504944C7.616 0.493944 7.61001 0.480933 7.63801 0.412933C7.64901 0.407933 7.66 0.403926 7.67 0.398926V0.504944Z" fill="#9C9C9C"/>
<path d="M7.63599 0.365967V0.366974H7.64099L7.63599 0.365967Z" fill="#9C9C9C"/>
<path d="M8.29102 7.61298C7.93202 7.61298 7.66502 7.62197 7.39802 7.61097C7.06802 7.59697 6.77702 7.47198 6.55602 7.19798C6.45802 7.07598 6.39502 6.92997 6.34302 6.77497C6.27302 6.56997 6.29302 6.35999 6.29902 6.15199C6.30102 6.02899 6.33102 5.90396 6.37902 5.78696C6.41002 5.70996 6.42102 5.62597 6.44602 5.54597C6.50802 5.35197 6.56003 5.15499 6.61503 4.95899C6.75303 4.47599 6.89102 3.99399 7.02802 3.50999C7.12702 3.15999 7.22003 2.80598 7.32403 2.45698C7.41803 2.14498 7.56802 1.86497 7.77102 1.61897C7.97802 1.36897 8.22302 1.17199 8.49602 1.01899C8.70202 0.90399 8.92202 0.825972 9.15502 0.787972C9.39702 0.748972 9.63802 0.753969 9.88102 0.752969C10.256 0.751969 10.631 0.739966 11.005 0.756966C11.335 0.770966 11.642 0.875976 11.882 1.14198C12.015 1.28998 12.095 1.46898 12.141 1.66798C12.18 1.83598 12.175 2.00299 12.152 2.17399C12.127 2.34699 12.072 2.50999 12.03 2.67799C11.976 2.89499 11.908 3.10798 11.852 3.32398C11.807 3.49398 11.75 3.66096 11.702 3.82996C11.584 4.24596 11.47 4.66397 11.353 5.08097C11.283 5.32997 11.203 5.57499 11.142 5.82499C11.109 5.95699 11.059 6.07997 11.003 6.19697C10.938 6.33497 10.848 6.45898 10.759 6.58198C10.614 6.78098 10.446 6.95599 10.257 7.10499C10.06 7.25899 9.85102 7.38697 9.62302 7.47697C9.45702 7.54197 9.28602 7.58298 9.10902 7.59998C8.80602 7.62998 8.50303 7.60298 8.29203 7.61198L8.29102 7.61298ZM8.73601 5.89799C8.97001 5.89799 9.20502 5.89696 9.43902 5.89896C9.48602 5.89896 9.52303 5.88298 9.53303 5.83598C9.57803 5.61698 9.64901 5.40499 9.70801 5.19099C9.80801 4.82999 9.91503 4.47096 10.018 4.10996C10.061 3.95796 10.095 3.80198 10.142 3.65098C10.19 3.49298 10.243 3.33697 10.281 3.17597C10.328 2.97697 10.404 2.78899 10.445 2.58799C10.469 2.47299 10.477 2.47498 10.367 2.47498C9.91703 2.47498 9.46603 2.47598 9.01603 2.47398C8.95803 2.47398 8.92702 2.50096 8.91502 2.55396C8.88702 2.68396 8.84203 2.80897 8.80903 2.93797C8.77303 3.07497 8.72902 3.21198 8.69102 3.34898C8.65202 3.48998 8.61103 3.62997 8.57203 3.77097C8.54603 3.86797 8.51002 3.96896 8.48002 4.06696C8.40102 4.32396 8.33102 4.58497 8.25602 4.84397C8.16202 5.16897 8.07003 5.49498 7.97703 5.81998C7.95903 5.88698 7.96802 5.89799 8.03202 5.89799C8.26702 5.89799 8.50201 5.89799 8.73601 5.89799Z" fill="#9C9C9C"/>
<path d="M5.24201 2.47693C4.76901 2.47693 4.29601 2.47593 3.82301 2.47693C3.65801 2.47693 3.67301 2.45393 3.62901 2.63593C3.61301 2.70093 3.58701 2.76095 3.56901 2.82395C3.50901 3.03295 3.45001 3.24294 3.39001 3.45194C3.30501 3.74594 3.21901 4.03895 3.13301 4.33295C2.99201 4.81995 2.85101 5.30594 2.71101 5.79294C2.68301 5.88894 2.69201 5.89893 2.78401 5.89893C3.22001 5.89793 3.65601 5.89593 4.09201 5.89893C4.16101 5.89893 4.20001 5.87993 4.22001 5.80393C4.29201 5.53993 4.37 5.27694 4.443 5.01194C4.47 4.91494 4.45201 4.89194 4.35601 4.89194C4.18601 4.89094 4.01802 4.89093 3.84802 4.89093C3.75702 4.89093 3.75301 4.87893 3.78401 4.78693C3.83401 4.63993 3.87901 4.49193 3.92001 4.34293C3.98201 4.11493 4.056 3.88894 4.111 3.65894C4.123 3.60894 4.14701 3.56195 4.17001 3.51795C4.18501 3.49095 4.20501 3.46393 4.24401 3.48493C4.26201 3.49493 4.28801 3.49094 4.31001 3.49094C5.00701 3.49094 5.70401 3.49094 6.40101 3.49094C6.47301 3.49094 6.48401 3.50393 6.45901 3.57993C6.42201 3.69793 6.39401 3.81893 6.35801 3.93793C6.33501 4.01293 6.32001 4.09594 6.29501 4.16794C6.24801 4.30394 6.21901 4.44494 6.17201 4.58094C6.13301 4.69494 6.10702 4.81394 6.07402 4.92994C6.04402 5.03594 6.01301 5.14193 5.98301 5.24793C5.94801 5.37093 5.91401 5.49395 5.87901 5.61695C5.86401 5.66995 5.84501 5.72396 5.83401 5.77796C5.81301 5.88696 5.77401 5.98893 5.74201 6.09293C5.70801 6.20093 5.64801 6.29794 5.59201 6.39594C5.49401 6.56994 5.38102 6.73396 5.25302 6.88096C5.14402 7.00596 5.02101 7.11694 4.88801 7.21494C4.73401 7.32894 4.57101 7.42395 4.40101 7.50095C4.27501 7.55795 4.136 7.58796 3.999 7.60096C3.646 7.63396 3.29101 7.60996 2.93801 7.61396C2.67501 7.61796 2.41201 7.61596 2.14901 7.61396C1.84001 7.61296 1.56302 7.50894 1.33502 7.27994C1.20502 7.14994 1.11302 6.98994 1.06102 6.80594C1.04202 6.73694 1.03202 6.66494 1.01802 6.59494C0.961016 6.30494 1.039 6.03993 1.111 5.76993C1.2 5.43893 1.30702 5.11494 1.39302 4.78394C1.45202 4.56094 1.52601 4.34295 1.59001 4.12195C1.70501 3.72795 1.81201 3.33195 1.93101 2.93995C2.01201 2.67095 2.06901 2.39194 2.18701 2.13694C2.30801 1.87594 2.46501 1.64194 2.66601 1.44294C2.93001 1.18294 3.22902 0.984941 3.57002 0.865941C3.71202 0.815941 3.86101 0.79493 4.01101 0.77393C4.25901 0.74193 4.50601 0.755949 4.75401 0.754949C5.56701 0.750949 6.38 0.752934 7.193 0.752934C7.264 0.752934 7.27901 0.765947 7.25801 0.840947C7.22401 0.963947 7.19201 1.08695 7.15301 1.20795C7.09001 1.40395 7.03602 1.60195 6.97702 1.79895C6.93002 1.95795 6.88501 2.11694 6.83401 2.27494C6.81901 2.32094 6.80501 2.36294 6.80601 2.41294C6.80901 2.46894 6.77301 2.47193 6.73201 2.47193C6.33401 2.47193 5.937 2.47395 5.54 2.47495C5.44 2.47495 5.34002 2.47495 5.24002 2.47495L5.24201 2.47693Z" fill="#9C9C9C"/>
<path d="M8.73596 5.89899C8.50196 5.89899 8.26697 5.89899 8.03297 5.89899C7.96897 5.89899 7.95896 5.88801 7.97796 5.82101C8.06996 5.49501 8.16297 5.17 8.25697 4.845C8.33197 4.586 8.40097 4.32499 8.48097 4.06799C8.51097 3.96999 8.54596 3.87 8.57296 3.771C8.61096 3.63 8.65297 3.49101 8.69197 3.35001C8.72997 3.21201 8.77296 3.07599 8.80996 2.93799C8.84296 2.80999 8.88797 2.68499 8.91597 2.55499C8.92797 2.50199 8.95796 2.474 9.01696 2.474C9.46696 2.477 9.91796 2.47501 10.368 2.47501C10.477 2.47501 10.47 2.47399 10.446 2.58899C10.404 2.78899 10.329 2.97799 10.282 3.17599C10.244 3.33699 10.191 3.49401 10.142 3.65201C10.096 3.80201 10.062 3.95799 10.018 4.11099C9.91497 4.47099 9.80897 4.83099 9.70897 5.19199C9.64897 5.40599 9.57797 5.617 9.53297 5.836C9.52297 5.883 9.48597 5.89899 9.43997 5.89899C9.20497 5.89799 8.97097 5.89899 8.73697 5.89899H8.73596Z" fill="#727272"/>
</svg>
