<svg width="31" height="19" viewBox="0 0 31 19" fill="none" xmlns="http://www.w3.org/2000/svg">
<path d="M30.3832 4.13638C30.3846 4.17105 30.3872 4.20439 30.3886 4.23906C30.3232 4.38441 30.3352 4.41508 30.4646 4.43908V5.73522C30.4059 5.76056 30.3832 5.81257 30.3792 5.87124C30.3646 6.0966 30.2912 6.30995 30.2339 6.52597C30.0939 7.05803 29.9152 7.57676 29.7552 8.10348C29.5351 8.82889 29.3178 9.55564 29.1004 10.281C28.8711 11.0478 28.651 11.8159 28.4097 12.5786C28.2297 13.1494 28.0936 13.7348 27.867 14.2895C27.5829 14.9869 27.1842 15.615 26.6882 16.1844C26.4148 16.4991 26.1241 16.7991 25.8054 17.0565C25.4347 17.3552 25.0413 17.6312 24.6226 17.8645C24.3079 18.0392 23.9852 18.1979 23.6585 18.3459C23.4038 18.4606 23.1278 18.5299 22.8584 18.6073C22.7131 18.6486 22.5704 18.706 22.417 18.726C22.2357 18.75 22.057 18.7993 21.8756 18.8073C21.3862 18.8286 20.8969 18.8713 20.4048 18.87C15.6136 18.8646 10.8238 18.866 6.03258 18.866C5.70188 18.866 5.36851 18.8967 5.0418 18.8593C4.75644 18.8273 4.46974 18.794 4.18571 18.73C3.4923 18.5713 2.88557 18.2446 2.35751 17.7845C1.86146 17.3538 1.50142 16.8204 1.25873 16.2044C0.989365 15.519 0.933359 14.8082 0.977364 14.0895C1.0067 13.6147 1.14005 13.1534 1.2854 12.6986C1.51476 11.9812 1.72944 11.2598 1.9508 10.5411C2.02814 10.2917 2.12416 10.0477 2.17883 9.793C2.24817 9.47296 2.38418 9.17693 2.46152 8.86223C2.52153 8.61554 2.5762 8.35951 2.66021 8.12882C2.79223 7.76211 2.89891 7.3874 3.02025 7.01803C3.06159 6.89001 3.06692 6.73533 3.11893 6.62999C3.23228 6.39796 3.28561 6.1526 3.36029 5.91124C3.4883 5.50186 3.62698 5.09649 3.80834 4.70978C3.92035 4.47108 4.05636 4.24039 4.20971 4.01904C4.3404 3.82968 4.44707 3.62166 4.59776 3.44297C4.70977 3.30962 4.80845 3.16561 4.92579 3.03893C5.41251 2.51087 5.9459 2.03615 6.56064 1.65878C7.00869 1.38275 7.4754 1.15073 7.97546 0.97604C8.26482 0.874696 8.55685 0.786685 8.85555 0.729346C9.22359 0.658671 9.59563 0.607999 9.97301 0.607999C15.2869 0.609332 20.6008 0.604 25.9147 0.613334C26.7362 0.614667 27.5282 0.805354 28.2603 1.1934C28.6524 1.40142 29.0071 1.66811 29.3191 1.98548C29.8458 2.51887 30.1739 3.16294 30.3459 3.88835C30.3659 3.9697 30.3712 4.05504 30.3846 4.13905L30.3832 4.13638ZM19.7861 17.1938C20.2821 17.1738 20.9969 17.2338 21.7103 17.1685C22.125 17.1311 22.5277 17.0418 22.9198 16.8991C23.4585 16.7031 23.9519 16.4244 24.4132 16.0883C24.8613 15.763 25.256 15.3816 25.596 14.9496C25.8054 14.6829 26.0188 14.4095 26.1721 14.1108C26.3041 13.8561 26.4215 13.5867 26.4975 13.3014C26.6442 12.756 26.8308 12.2213 26.9949 11.6799C27.2709 10.7718 27.5389 9.86101 27.8176 8.95424C27.931 8.58487 28.0643 8.22082 28.1697 7.85145C28.303 7.38073 28.463 6.91802 28.5897 6.44463C28.6884 6.07926 28.8204 5.72456 28.8764 5.34585C28.9324 4.97381 28.9431 4.6111 28.8511 4.24439C28.7417 3.81101 28.5537 3.42031 28.2403 3.09894C27.6763 2.52021 26.9535 2.29085 26.1761 2.25885C25.2947 2.22284 24.4106 2.24951 23.5278 2.25084C22.9571 2.25084 22.389 2.24284 21.8196 2.32819C21.2702 2.41086 20.7515 2.57888 20.2661 2.83091C19.6234 3.16428 19.046 3.59366 18.5593 4.13772C18.0806 4.67244 17.7272 5.28184 17.5072 5.96325C17.2618 6.72467 17.0431 7.49408 16.8084 8.25816C16.4857 9.31028 16.1603 10.3624 15.8363 11.4145C15.7056 11.8412 15.583 12.2693 15.4389 12.692C15.3803 12.8653 15.3536 13.0507 15.2803 13.2174C15.1682 13.4734 15.0976 13.7454 15.0909 14.0135C15.0789 14.4655 15.0309 14.9229 15.1949 15.3709C15.3176 15.7056 15.4669 16.0257 15.6976 16.291C16.2164 16.8898 16.9031 17.1618 17.6805 17.1911C18.3086 17.2151 18.938 17.1965 19.7847 17.1965L19.7861 17.1938ZM12.6026 6.00325C12.8373 6.00325 13.0733 6.00325 13.308 6.00325C14.2441 6.00059 15.1789 5.99659 16.115 5.99659C16.2097 5.99659 16.295 5.98992 16.291 5.86857C16.287 5.76189 16.3204 5.66855 16.355 5.56854C16.4737 5.2245 16.5817 4.8778 16.6937 4.53109C16.8311 4.10171 16.9591 3.66967 17.1071 3.24429C17.1991 2.98026 17.2751 2.71089 17.3551 2.4442C17.4045 2.28018 17.3685 2.25218 17.2005 2.25218C15.2856 2.25218 13.3707 2.24818 11.4558 2.25618C10.8731 2.25884 10.2917 2.22818 9.70764 2.29885C9.35427 2.34152 9.00224 2.38819 8.66753 2.49754C7.86611 2.75623 7.1607 3.18695 6.5393 3.75634C6.06592 4.18839 5.69788 4.69911 5.41118 5.2685C5.13248 5.82323 4.9978 6.4313 4.80711 7.0167C4.52842 7.87146 4.27506 8.73422 4.00569 9.59164C3.85501 10.073 3.67899 10.5491 3.54164 11.0345C3.33762 11.7559 3.08559 12.4613 2.87757 13.1814C2.70689 13.7694 2.5242 14.3495 2.65755 14.9802C2.68955 15.1322 2.71222 15.2896 2.75889 15.4389C2.88024 15.8403 3.09759 16.1897 3.40296 16.4724C3.94169 16.9711 4.59242 17.1978 5.32184 17.2005C5.94057 17.2031 6.56064 17.2071 7.17937 17.2005C8.0128 17.1898 8.84622 17.2431 9.67831 17.1711C10.0023 17.1431 10.3264 17.0765 10.6251 16.9524C11.0265 16.7858 11.4105 16.5777 11.7732 16.3297C12.0852 16.115 12.3759 15.875 12.632 15.603C12.9347 15.2816 13.2 14.9256 13.4307 14.5468C13.5601 14.3335 13.7041 14.1201 13.7828 13.8868C13.8588 13.6614 13.9508 13.4361 14.0001 13.2C14.0254 13.08 14.0708 12.9653 14.1068 12.848C14.1895 12.58 14.2708 12.3133 14.3521 12.0452C14.4228 11.8146 14.4962 11.5839 14.5668 11.3532C14.6442 11.0998 14.7055 10.8398 14.7975 10.5918C14.9069 10.2957 14.9749 9.98769 15.0856 9.69165C15.1442 9.5343 15.1816 9.35428 15.2349 9.19026C15.3189 8.93157 15.3843 8.66754 15.4736 8.41018C15.5309 8.24483 15.5056 8.21683 15.3363 8.21683C13.6947 8.21683 12.0532 8.21683 10.4117 8.21683C10.3597 8.21683 10.2997 8.22616 10.2557 8.20483C10.1624 8.15815 10.1157 8.21683 10.0824 8.2755C10.0263 8.37284 9.97034 8.47552 9.94234 8.5822C9.81299 9.08625 9.63964 9.57697 9.49162 10.0744C9.39561 10.3997 9.2876 10.7224 9.17159 11.0398C9.09691 11.2412 9.10625 11.2678 9.3236 11.2678C9.72231 11.2678 10.1197 11.2678 10.5184 11.2692C10.7451 11.2692 10.7891 11.3185 10.7251 11.5319C10.5531 12.1079 10.3691 12.68 10.1997 13.2574C10.1517 13.4227 10.061 13.4641 9.89833 13.4627C8.87155 13.4561 7.84478 13.4601 6.81666 13.4627C6.59931 13.4627 6.5793 13.4414 6.64465 13.2334C6.97535 12.1733 7.30738 11.1118 7.63942 10.0517C7.83944 9.41162 8.04346 8.77289 8.24349 8.13282C8.38617 7.67677 8.52352 7.21939 8.66487 6.76334C8.70754 6.62599 8.76888 6.49664 8.80621 6.35529C8.91156 5.95791 8.87556 6.00859 9.26493 6.00725C10.3784 6.00459 11.4918 6.00725 12.6053 6.00725L12.6026 6.00325Z" fill="#727272"/>
<path d="M18.3212 1.70684C18.1926 1.68297 18.1806 1.65379 18.2456 1.50788C18.2708 1.49727 18.296 1.48798 18.3212 1.47737V1.70684Z" fill="#9C9C9C"/>
<path d="M18.2412 1.40521V1.40703H18.2503L18.2412 1.40521Z" fill="#9C9C9C"/>
<path d="M19.7849 17.1936C18.9381 17.1936 18.3087 17.2123 17.6806 17.1883C16.9032 17.159 16.2178 16.8869 15.6978 16.2882C15.4671 16.0228 15.319 15.7041 15.195 15.3681C15.031 14.9201 15.079 14.4627 15.091 14.0106C15.0977 13.7426 15.1684 13.4706 15.2804 13.2145C15.3524 13.0479 15.3791 12.8638 15.4391 12.6891C15.5831 12.2678 15.7058 11.8384 15.8364 11.4117C16.1605 10.3596 16.4858 9.30878 16.8085 8.25533C17.0432 7.49125 17.2606 6.7205 17.5073 5.96042C17.7273 5.28034 18.0807 4.67094 18.5594 4.13488C19.0461 3.59082 19.6235 3.16145 20.2662 2.82808C20.7516 2.57605 21.2704 2.40803 21.8198 2.32535C22.3891 2.24001 22.9572 2.24935 23.5279 2.24801C24.4107 2.24668 25.2948 2.22001 26.1762 2.25601C26.9523 2.28668 27.6764 2.51604 28.2404 3.0961C28.5538 3.41747 28.7432 3.80818 28.8512 4.24156C28.9432 4.60827 28.9325 4.97097 28.8765 5.34301C28.8192 5.72172 28.6885 6.07643 28.5898 6.4418C28.4618 6.91385 28.3031 7.3779 28.1698 7.84862C28.0644 8.21933 27.9311 8.58337 27.8177 8.95141C27.539 9.85817 27.271 10.7689 26.995 11.677C26.831 12.2184 26.6429 12.7532 26.4976 13.2985C26.4216 13.5852 26.3029 13.8533 26.1722 14.108C26.0175 14.408 25.8055 14.68 25.5962 14.9467C25.2548 15.3801 24.8601 15.7615 24.4134 16.0855C23.9507 16.4216 23.4573 16.7003 22.9199 16.8963C22.5292 17.039 22.1265 17.127 21.7104 17.1656C20.997 17.2296 20.2823 17.171 19.7862 17.191L19.7849 17.1936ZM20.8316 13.4572C21.3837 13.4572 21.9358 13.4546 22.4878 13.4586C22.5972 13.4586 22.6852 13.4239 22.7078 13.3212C22.8145 12.8438 22.9812 12.3838 23.1212 11.9171C23.3573 11.1303 23.6079 10.3476 23.8506 9.56214C23.9533 9.23011 24.032 8.89007 24.1427 8.56203C24.2574 8.218 24.3814 7.87662 24.4707 7.52592C24.5814 7.09254 24.7601 6.68316 24.8574 6.24578C24.9134 5.99509 24.9321 5.99909 24.6734 5.99909C23.6133 5.99909 22.5518 6.00176 21.4917 5.99642C21.3544 5.99642 21.2824 6.05643 21.2544 6.17244C21.1877 6.45514 21.0823 6.72717 21.0037 7.0072C20.9183 7.30723 20.8156 7.6046 20.7263 7.90463C20.6343 8.21133 20.5369 8.51536 20.4463 8.82206C20.3836 9.03542 20.2996 9.25411 20.2289 9.4688C20.0422 10.0289 19.8782 10.5969 19.7022 11.161C19.4808 11.8691 19.2621 12.5785 19.0448 13.2879C19.0008 13.4332 19.0234 13.4572 19.1741 13.4572C19.7262 13.4572 20.2782 13.4572 20.8303 13.4572H20.8316Z" fill="#9C9C9C"/>
<path d="M12.6026 6.0033C11.4892 6.0033 10.3757 6.00196 9.26227 6.0033C8.8729 6.0033 8.90757 5.95396 8.80356 6.35133C8.76622 6.49268 8.70488 6.62203 8.66221 6.75938C8.52086 7.21543 8.38351 7.67281 8.24083 8.12886C8.04081 8.76893 7.83812 9.40767 7.63676 10.0477C7.30473 11.1079 6.97269 12.168 6.64199 13.2294C6.57665 13.4374 6.59665 13.4588 6.81401 13.4588C7.84079 13.4574 8.86757 13.4534 9.89568 13.4588C10.0584 13.4588 10.149 13.4188 10.197 13.2534C10.3664 12.6774 10.5504 12.104 10.7224 11.5279C10.7864 11.3145 10.7424 11.2652 10.5157 11.2652C10.117 11.2639 9.71966 11.2639 9.32095 11.2639C9.10492 11.2639 9.09559 11.2372 9.16893 11.0358C9.28628 10.7171 9.39296 10.3944 9.48897 10.0704C9.63698 9.57169 9.81033 9.08097 9.93968 8.57824C9.96769 8.47023 10.0237 8.36889 10.0797 8.27155C10.113 8.21287 10.161 8.1542 10.2531 8.20087C10.2957 8.22221 10.3557 8.21287 10.4091 8.21287C12.0506 8.21287 13.6921 8.21287 15.3336 8.21287C15.503 8.21287 15.5283 8.24221 15.4709 8.40622C15.3816 8.66359 15.3163 8.92762 15.2323 9.18631C15.1789 9.35033 15.1429 9.53168 15.0829 9.6877C14.9722 9.98373 14.9042 10.2918 14.7949 10.5878C14.7029 10.8358 14.6415 11.0959 14.5642 11.3492C14.4935 11.5799 14.4202 11.8106 14.3495 12.0413C14.2668 12.308 14.1855 12.576 14.1041 12.844C14.0681 12.9614 14.0228 13.0774 13.9975 13.1961C13.9481 13.4321 13.8561 13.6561 13.7801 13.8828C13.7014 14.1162 13.5587 14.3295 13.4281 14.5429C13.1974 14.9216 12.932 15.2776 12.6293 15.599C12.3733 15.871 12.0826 16.1124 11.7705 16.3258C11.4078 16.5738 11.0238 16.7818 10.6224 16.9485C10.3251 17.0725 9.99969 17.1392 9.67565 17.1672C8.84356 17.2392 8.00881 17.1858 7.17671 17.1965C6.55798 17.2045 5.93791 17.2005 5.31918 17.1965C4.58977 17.1938 3.93903 16.9672 3.4003 16.4684C3.09494 16.1857 2.87891 15.8364 2.75623 15.435C2.7109 15.2843 2.68823 15.1283 2.65489 14.9763C2.52021 14.3442 2.70423 13.7655 2.87491 13.1774C3.08294 12.4573 3.33496 11.7519 3.53899 11.0305C3.67633 10.5451 3.85235 10.0704 4.00304 9.58769C4.2724 8.73026 4.52576 7.8675 4.80446 7.01274C4.99514 6.42601 5.12982 5.81928 5.40852 5.26455C5.69389 4.69515 6.06326 4.18443 6.53664 3.75239C7.15805 3.18432 7.86346 2.75361 8.66488 2.49358C9.00091 2.38557 9.35162 2.3389 9.70499 2.2949C10.2891 2.22422 10.8705 2.25489 11.4532 2.25222C13.3681 2.24422 15.2829 2.24822 17.1978 2.24822C17.3658 2.24822 17.4018 2.27623 17.3525 2.44024C17.2725 2.70827 17.1965 2.9763 17.1045 3.24033C16.9564 3.66571 16.8284 4.09776 16.6911 4.52714C16.5804 4.87384 16.4724 5.22055 16.3524 5.56458C16.3177 5.66326 16.2844 5.7566 16.2884 5.86462C16.2937 5.98596 16.2084 5.99263 16.1124 5.99263C15.1763 5.99263 14.2415 5.99796 13.3054 5.9993C13.0707 5.9993 12.8347 5.9993 12.6 5.9993L12.6026 6.0033Z" fill="#9C9C9C"/>
<path d="M20.8334 13.4586C20.2814 13.4586 19.7293 13.4586 19.1772 13.4586C19.0266 13.4586 19.0026 13.4346 19.0479 13.2892C19.2639 12.5798 19.4839 11.8704 19.7053 11.1623C19.8813 10.5983 20.0453 10.0289 20.232 9.47015C20.3027 9.25679 20.3867 9.0381 20.4494 8.82341C20.5401 8.51671 20.6374 8.21268 20.7294 7.90598C20.8188 7.60595 20.9214 7.30858 21.0068 7.00855C21.0855 6.72852 21.1908 6.45782 21.2575 6.17379C21.2855 6.05778 21.3575 5.99777 21.4948 5.99777C22.5549 6.00311 23.6164 6.00044 24.6765 6.00044C24.9352 6.00044 24.9165 5.99644 24.8605 6.24713C24.7632 6.68451 24.5845 7.09523 24.4738 7.52727C24.3845 7.87798 24.2605 8.21935 24.1458 8.56339C24.0364 8.89142 23.9578 9.23146 23.8538 9.5635C23.6111 10.3489 23.3604 11.1317 23.1243 11.9184C22.9843 12.3851 22.8176 12.8452 22.711 13.3226C22.6883 13.4252 22.6003 13.4599 22.4909 13.4599C21.9389 13.4559 21.3868 13.4586 20.8348 13.4586H20.8334Z" fill="#727272"/>
</svg>
