<svg width="30" height="21" viewBox="0 0 30 21" fill="none" xmlns="http://www.w3.org/2000/svg">
<path d="M0 15.0564C0 14.8467 0 14.6369 0 14.4272C0.00578257 14.4028 0.0144571 14.3771 0.0187941 14.3527C0.0665002 14.0686 0.0983014 13.7817 0.164801 13.5016C0.391767 12.5435 0.826906 11.6652 1.37191 10.8316C2.32893 9.36742 3.55917 8.12245 4.93542 7.00061C6.08037 6.06688 7.3135 5.24682 8.61458 4.51607C8.67385 4.48359 8.68397 4.4457 8.68397 4.38887C8.68397 3.4186 8.68397 2.44968 8.68397 1.47941C8.68397 1.26966 8.72734 1.06938 8.81408 0.877221C9.07863 0.284503 9.69737 -0.0429799 10.3754 0.0490401C10.6602 0.088284 10.8987 0.223608 11.1358 0.362991C12.0928 0.92729 13.0527 1.48888 14.0097 2.05183C14.0733 2.08972 14.1283 2.09378 14.1991 2.07077C15.0491 1.79065 15.9107 1.54843 16.7868 1.35085C18.1312 1.04773 19.4901 0.837977 20.8722 0.770315C21.8364 0.722952 22.7992 0.736484 23.7591 0.850156C24.573 0.946236 25.3696 1.10321 26.1415 1.36303C27.0219 1.65939 27.8315 2.07213 28.511 2.68379C29.4738 3.55121 29.9682 4.6135 29.9985 5.86525C30.0188 6.69478 29.8308 7.48913 29.5186 8.25912C29.0039 9.53116 28.2117 10.6476 27.2807 11.6815C26.3251 12.7437 25.2467 13.6856 24.0728 14.5327C21.1743 16.6275 17.9563 18.1364 14.4521 19.1148C12.8633 19.5573 11.2442 19.855 9.59039 19.9781C8.77505 20.039 7.95681 20.0526 7.13858 20.0052C6.27987 19.9551 5.43128 19.8442 4.60148 19.6317C3.53315 19.357 2.53565 18.947 1.68706 18.2609C0.780644 17.5274 0.231302 16.6099 0.0578248 15.4976C0.0346945 15.3514 0.020236 15.2039 0.00144264 15.0578L0 15.0564ZM17.5414 4.33744C17.592 4.36722 17.618 4.38481 17.6455 4.39969C18.0329 4.60809 18.4218 4.81649 18.8092 5.02624C19.9209 5.62573 21.0269 6.23468 22.1458 6.82199C22.6489 7.08587 22.9467 7.67317 22.8325 8.21582C22.7457 8.62991 22.4884 8.9195 22.1097 9.13331C21.157 9.67055 20.2072 10.2132 19.2574 10.7545C17.5877 11.7058 15.918 12.6585 14.2497 13.6098C13.1091 14.2607 11.9641 14.9049 10.8264 15.5625C10.1889 15.9306 9.36776 15.7736 8.95141 15.1917C8.74035 14.8981 8.68831 14.5679 8.68686 14.2269C8.68397 12.7532 8.68686 11.2809 8.68686 9.80722C8.68686 9.77475 8.68686 9.74227 8.68686 9.70032C8.66373 9.7152 8.65795 9.71656 8.65506 9.72062C8.61892 9.76121 8.58422 9.80181 8.54953 9.84241C7.88019 10.6368 7.29326 11.4758 6.89716 12.423C6.59502 13.147 6.40998 13.8899 6.51262 14.6735C6.61815 15.4922 7.03738 16.1295 7.78767 16.568C8.41364 16.9334 9.11333 17.07 9.83615 17.1188C10.3812 17.1553 10.9247 17.1269 11.4654 17.0646C12.4224 16.955 13.352 16.7358 14.2584 16.4313C16.3358 15.7358 18.2209 14.7222 19.9253 13.4122C20.8953 12.6666 21.7757 11.8384 22.5289 10.8966C23.1173 10.1604 23.6319 9.38366 23.9818 8.51894C24.2564 7.84368 24.4256 7.14947 24.3475 6.42007C24.2333 5.34831 23.6203 4.62027 22.5694 4.20889C21.9911 3.9829 21.381 3.89494 20.758 3.88276C19.9108 3.86652 19.0781 3.96936 18.257 4.16288C18.0272 4.21701 17.7973 4.2752 17.5443 4.33744H17.5414ZM10.3465 7.74354C10.3551 7.74354 10.3653 7.74354 10.3739 7.74354C10.3739 9.20233 10.3739 10.6611 10.3754 12.1199C10.3754 12.239 10.3884 12.3594 10.4158 12.4745C10.5488 13.0618 11.2601 13.3689 11.7892 13.0685C12.9949 12.3838 14.2005 11.6963 15.4048 11.0103C16.7796 10.2267 18.1544 9.44185 19.5306 8.66103C20.1306 8.32002 20.1407 7.47966 19.5451 7.13323C19.1258 6.88829 18.7066 6.64336 18.2888 6.39707C16.1464 5.13315 14.0039 3.86787 11.86 2.60395C11.4827 2.38202 11.0274 2.41585 10.6934 2.69326C10.4462 2.89896 10.345 3.1669 10.345 3.47273C10.345 4.89633 10.345 6.31993 10.345 7.74489L10.3465 7.74354ZM18.1038 16.0213C18.1038 16.0213 18.0951 16.0078 18.0893 16.0023C18.0619 16.0132 18.0329 16.024 18.0055 16.0362C16.4471 16.7033 14.8337 17.2189 13.1496 17.5261C12.0089 17.7345 10.8582 17.8509 9.69303 17.8197C8.89503 17.7994 8.10716 17.7115 7.33519 17.5166C6.52274 17.3123 5.76377 17.001 5.11613 16.4881C4.42945 15.9441 3.99142 15.2608 3.84396 14.4258C3.80782 14.2215 3.79625 14.0131 3.77457 13.8101C3.77457 13.8101 3.76589 13.8169 3.76445 13.825C3.73843 13.917 3.70952 14.0104 3.68639 14.1024C3.51725 14.7763 3.4493 15.4556 3.58085 16.1444C3.79915 17.2893 4.49016 18.0985 5.59753 18.6033C6.28565 18.9172 7.02437 19.0539 7.78189 19.1107C8.45122 19.1594 9.11911 19.1324 9.7841 19.0566C10.7556 18.9456 11.7025 18.7345 12.6335 18.4558C14.1846 17.9916 15.6549 17.3596 17.0644 16.6018C17.4142 16.4137 17.7583 16.2161 18.1052 16.0226L18.1038 16.0213ZM15.6592 3.00586C15.678 3.02481 15.6838 3.03428 15.6939 3.03969C15.9281 3.17772 16.1608 3.31711 16.3979 3.44972C16.4297 3.46731 16.4818 3.46731 16.5194 3.45919C17.6079 3.20749 18.7095 3.03157 19.8284 2.97068C20.8418 2.91519 21.8494 2.95308 22.8455 3.14389C23.7244 3.31169 24.5557 3.59181 25.293 4.08168C25.903 4.48765 26.3613 5.00865 26.649 5.6582C26.6562 5.67444 26.6663 5.68797 26.688 5.7218C26.7068 5.33613 26.6938 4.97753 26.6229 4.62027C26.4234 3.61346 25.8539 2.85024 24.9084 2.3333C24.1856 1.93816 23.3905 1.76359 22.5665 1.69052C21.5748 1.60256 20.5917 1.68646 19.6145 1.85155C18.5751 2.02747 17.5689 2.31165 16.5815 2.65943C16.275 2.76769 15.9715 2.88542 15.6577 3.0018L15.6592 3.00586Z" fill="#9C9C9C"/>
</svg>
