<svg width="13" height="9" viewBox="0 0 13 9" fill="none" xmlns="http://www.w3.org/2000/svg">
<path d="M0.674988 6.76008C0.674988 6.66608 0.674988 6.57106 0.674988 6.47706C0.677988 6.46606 0.680983 6.45507 0.682983 6.44407C0.701983 6.31607 0.714982 6.18708 0.740982 6.06108C0.831982 5.62908 1.00598 5.23408 1.22398 4.85908C1.60698 4.20008 2.09899 3.64008 2.64899 3.13508C3.10699 2.71508 3.60099 2.34607 4.12099 2.01707C4.14499 2.00207 4.14899 1.98506 4.14899 1.96006C4.14899 1.52306 4.14899 1.08707 4.14899 0.651074C4.14899 0.556074 4.16599 0.466078 4.20099 0.380078C4.30699 0.113078 4.55398 -0.0349385 4.82498 0.00706154C4.93898 0.0250615 5.03499 0.0850833 5.12999 0.148083C5.51199 0.402083 5.89599 0.655063 6.27899 0.908063C6.30499 0.925063 6.32698 0.927065 6.35498 0.917065C6.69498 0.791065 7.03998 0.68206 7.38998 0.59306C7.92798 0.45606 8.47099 0.362067 9.02399 0.331067C9.40999 0.310067 9.79499 0.316077 10.179 0.367077C10.505 0.411077 10.823 0.481065 11.132 0.598065C11.484 0.732065 11.808 0.917066 12.08 1.19307C12.465 1.58307 12.663 2.06107 12.675 2.62407C12.683 2.99707 12.608 3.35506 12.483 3.70106C12.277 4.27406 11.96 4.77607 11.588 5.24107C11.205 5.72007 10.774 6.14307 10.304 6.52507C9.14499 7.46707 7.85798 8.14607 6.45598 8.58607C5.82098 8.78607 5.17299 8.92008 4.51099 8.97508C4.18499 9.00208 3.85799 9.00807 3.53099 8.98707C3.18699 8.96507 2.84799 8.91507 2.51599 8.81907C2.08899 8.69507 1.68999 8.51107 1.34999 8.20207C0.987991 7.87207 0.767983 7.45909 0.697983 6.95909C0.688983 6.89309 0.68298 6.82706 0.67598 6.76106L0.674988 6.76008ZM7.69199 1.93708C7.71199 1.95008 7.72299 1.95807 7.73299 1.96507C7.88799 2.05807 8.04399 2.15208 8.19899 2.24708C8.64399 2.51608 9.08598 2.79007 9.53398 3.05507C9.73498 3.17307 9.85398 3.43808 9.80798 3.68208C9.77398 3.86808 9.67098 3.99907 9.51898 4.09507C9.13798 4.33707 8.75799 4.58108 8.37799 4.82408C7.70999 5.25208 7.04198 5.68108 6.37498 6.10908C5.91898 6.40208 5.46098 6.69208 5.00598 6.98808C4.75098 7.15408 4.42198 7.08309 4.25598 6.82109C4.17098 6.68909 4.15098 6.54007 4.14998 6.38707C4.14898 5.72407 4.14998 5.06108 4.14998 4.39808C4.14998 4.38308 4.14998 4.36908 4.14998 4.35008C4.14098 4.35708 4.13798 4.35708 4.13698 4.35908C4.12298 4.37708 4.10899 4.39607 4.09499 4.41407C3.82699 4.77107 3.59299 5.14909 3.43399 5.57509C3.31299 5.90109 3.23898 6.23509 3.27998 6.58809C3.32298 6.95609 3.48998 7.24308 3.78998 7.44008C4.04098 7.60508 4.32099 7.66606 4.60999 7.68806C4.82799 7.70506 5.04499 7.69207 5.26099 7.66407C5.64399 7.61507 6.01598 7.51607 6.37898 7.37907C7.20998 7.06607 7.96399 6.61006 8.64499 6.02006C9.03299 5.68506 9.38598 5.31207 9.68698 4.88807C9.92198 4.55707 10.128 4.20707 10.268 3.81807C10.378 3.51407 10.446 3.20207 10.414 2.87407C10.369 2.39207 10.123 2.06407 9.70299 1.87907C9.47199 1.77707 9.22798 1.73807 8.97798 1.73207C8.63998 1.72507 8.30698 1.77107 7.97798 1.85807C7.88598 1.88207 7.79299 1.90908 7.69199 1.93708ZM4.81398 3.46907C4.81698 3.46907 4.82098 3.46907 4.82498 3.46907C4.82498 4.12607 4.82498 4.78207 4.82498 5.43907C4.82498 5.49207 4.83098 5.54706 4.84198 5.59806C4.89498 5.86306 5.17899 6.00107 5.39099 5.86607C5.87299 5.55807 6.35599 5.24807 6.83699 4.93907C7.38699 4.58707 7.93699 4.23406 8.48799 3.88206C8.72799 3.72906 8.73198 3.35108 8.49298 3.19508C8.32598 3.08508 8.15798 2.97409 7.99098 2.86409C7.13398 2.29509 6.27699 1.72509 5.41899 1.15709C5.26799 1.05709 5.08599 1.07206 4.95299 1.19706C4.85399 1.28906 4.81299 1.41008 4.81299 1.54808C4.81299 2.18808 4.81299 2.82907 4.81299 3.47007L4.81398 3.46907ZM7.91699 7.19407C7.91699 7.19407 7.91298 7.18808 7.91098 7.18608C7.89998 7.19108 7.88798 7.19606 7.87698 7.20106C7.25398 7.50106 6.60898 7.73308 5.93498 7.87208C5.47898 7.96508 5.01898 8.01807 4.55298 8.00407C4.23298 7.99507 3.91798 7.95508 3.60898 7.86708C3.28398 7.77508 2.98098 7.63507 2.72198 7.40507C2.44698 7.16007 2.27198 6.85209 2.21298 6.47609C2.19798 6.38509 2.19398 6.29108 2.18498 6.19908C2.18498 6.19908 2.18198 6.20207 2.18098 6.20607C2.17098 6.24707 2.15898 6.29007 2.14998 6.33107C2.08198 6.63407 2.05499 6.94007 2.10799 7.25007C2.19499 7.76507 2.47099 8.12906 2.91399 8.35606C3.18999 8.49806 3.48498 8.55906 3.78798 8.58506C4.05598 8.60706 4.32299 8.59407 4.58899 8.56007C4.97799 8.51007 5.35599 8.41508 5.72899 8.29008C6.34899 8.08108 6.93699 7.79707 7.50099 7.45607C7.64099 7.37107 7.77899 7.28208 7.91699 7.19508V7.19407ZM6.93898 1.33708C6.94598 1.34608 6.94899 1.35007 6.95299 1.35307C7.04699 1.41507 7.13998 1.47806 7.23398 1.53706C7.24698 1.54506 7.26799 1.54506 7.28299 1.54106C7.71799 1.42806 8.15898 1.34906 8.60698 1.32206C9.01198 1.29706 9.41499 1.31407 9.81299 1.40007C10.165 1.47507 10.498 1.60106 10.792 1.82206C11.036 2.00406 11.22 2.23908 11.335 2.53108C11.338 2.53808 11.342 2.54407 11.35 2.56007C11.358 2.38607 11.353 2.22507 11.324 2.06407C11.245 1.61107 11.017 1.26708 10.639 1.03508C10.35 0.857077 10.031 0.778075 9.70198 0.746075C9.30498 0.706075 8.91198 0.744066 8.52098 0.818066C8.10498 0.897066 7.70298 1.02508 7.30798 1.18208C7.18498 1.23008 7.06399 1.28307 6.93799 1.33607L6.93898 1.33708Z" fill="#9C9C9C"/>
</svg>
