<svg width="24" height="33" viewBox="0 0 24 33" fill="none" xmlns="http://www.w3.org/2000/svg">
<path d="M23.062 21.7108C23.0142 24.1614 22.0458 26.7622 20.0486 28.9503C18.0443 31.1468 15.5095 32.3833 12.5761 32.6331C9.1136 32.9279 6.08196 31.7924 3.58507 29.3699C1.56538 27.4106 0.410265 24.9881 0.185698 22.1894C-0.0922021 18.7199 1.00537 15.6868 3.44612 13.1955C5.67213 10.9218 8.43149 9.74003 11.6063 9.76249C17.9124 9.8074 23.0311 14.8615 23.062 21.7108ZM12.8484 31.3433C13.1516 31.3391 13.3761 31.2801 13.6021 31.2366C14.6 31.0471 15.553 30.7187 16.4387 30.2331C18.3363 29.1917 19.7945 27.7109 20.7728 25.7741C21.41 24.5109 21.7567 23.1691 21.8226 21.7585C21.8395 21.3978 21.8479 21.0357 21.7904 20.6652C21.7497 20.4055 21.7384 20.1192 21.737 19.8469C21.7342 19.2981 21.5419 18.7915 21.417 18.2721C21.2823 17.7149 21.0465 17.1844 20.7812 16.6749C20.2956 15.7458 19.7412 14.8672 18.9777 14.1331C18.6464 13.8145 18.3166 13.4931 17.9545 13.2096C16.8317 12.3324 15.5839 11.6994 14.2028 11.3359C13.3733 11.1183 12.5284 11.0159 11.6723 11.0004C11.3242 10.9948 10.9789 11.0411 10.6336 11.0608C9.70029 11.1155 8.80342 11.3316 7.94165 11.6671C6.62934 12.1766 5.47423 12.9401 4.45947 13.9212C3.60472 14.7479 2.91137 15.6882 2.39066 16.7549C2.20399 17.1381 2.03697 17.5311 1.89661 17.9367C1.74222 18.383 1.60889 18.8293 1.54152 19.2953C1.47836 19.722 1.40116 20.1459 1.38713 20.5796C1.36888 21.1297 1.32958 21.6785 1.418 22.2287C1.45871 22.4842 1.45871 22.7452 1.51064 23.0007C1.82222 24.5558 2.4089 25.9902 3.3577 27.273C3.65103 27.6702 3.96683 28.0464 4.3135 28.3945C5.30861 29.3938 6.45671 30.1657 7.76901 30.6893C8.56342 31.005 9.3873 31.2128 10.2364 31.3251C10.7572 31.3938 11.2807 31.4219 11.8028 31.4387C12.1733 31.4514 12.5509 31.398 12.8512 31.3461L12.8484 31.3433Z" fill="#9C9C9C"/>
<path d="M0.85501 5.04651C1.8024 5.09844 2.6782 5.36652 3.48103 5.87881C4.26841 6.38128 4.89439 7.04515 5.41931 7.83113C5.46423 7.7385 5.44598 7.67534 5.42914 7.60797C5.31124 7.13077 5.24949 6.64374 5.14843 6.16232C5.04738 5.6767 5.0151 5.17704 4.92948 4.68721C4.8579 4.28299 4.85369 3.87315 4.79334 3.46753C4.7386 3.09559 4.7386 2.71945 4.71474 2.3447C4.67544 1.72293 4.6979 1.10117 4.68386 0.480803C4.68106 0.339045 4.72176 0.207112 4.72316 0.0681619C4.72316 -0.020261 4.7807 -0.0132448 4.82281 0.035879C4.89018 0.114477 4.94632 0.204302 5.00948 0.288514C5.65511 1.13906 6.20389 2.04996 6.7246 2.9805C7.35199 4.09912 7.88393 5.26125 8.40464 6.4304C8.4664 6.56935 8.51131 6.71532 8.57728 6.85567C8.61236 6.66058 8.63341 6.4697 8.64324 6.27601C8.72324 4.70826 9.29308 3.35806 10.4454 2.27031C10.5338 2.1861 10.6166 2.09627 10.7289 2.04154C10.7612 2.0261 10.7935 2.00504 10.8243 2.0275C10.8664 2.05838 10.8243 2.08926 10.8145 2.11873C10.7303 2.36014 10.6503 2.60295 10.5577 2.84155C10.3092 3.47455 10.2026 4.13842 10.1113 4.80651C10.0313 5.39739 10.0636 5.99109 10.1057 6.58198C10.152 7.23603 10.2643 7.88306 10.4328 8.51746C10.4749 8.67746 10.4061 8.6901 10.2994 8.69431C9.4966 8.72519 8.70499 8.86133 7.93305 9.06203C7.11198 9.27537 6.31337 9.57853 5.5737 10.008C5.38282 10.1189 5.1751 10.2017 4.99685 10.335C4.93369 10.3828 4.88597 10.38 4.8593 10.2887C4.60667 9.42695 4.20104 8.63676 3.69858 7.8999C3.47682 7.57569 3.22699 7.26691 2.96453 6.96655C2.75961 6.73216 2.55469 6.48654 2.33855 6.26899C1.90906 5.83811 1.4445 5.4367 0.898519 5.14616C0.876062 5.13493 0.839568 5.12932 0.8522 5.05072L0.85501 5.04651Z" fill="#9C9C9C"/>
<path d="M17.1254 15.6053C17.1296 16.4685 16.6187 16.8629 15.8187 17.1155C15.4243 17.2404 15.0145 17.2797 14.6018 17.2545C13.2909 17.1773 12.2313 16.6425 11.4986 15.5295C11.274 15.1899 11.1463 14.8095 11.1295 14.4039C11.1014 13.674 11.4565 13.1744 12.0979 12.8544C12.4123 12.6972 12.7492 12.6579 13.0916 12.641C13.5127 12.6214 13.9408 12.606 14.3436 12.7154C15.538 13.0382 16.4938 13.6769 17.0019 14.8586C17.1043 15.0972 17.117 15.3513 17.1254 15.6053Z" fill="#9C9C9C"/>
<path d="M13.8875 18.8574C14.0559 18.8574 14.2636 18.7984 14.3829 18.8756C14.491 18.9458 14.498 19.1662 14.557 19.3163C14.738 19.7809 14.9289 20.2413 15.1029 20.7072C15.3149 21.2743 15.5114 21.8469 15.7191 22.4153C15.8903 22.8841 16.07 23.3501 16.2468 23.8161C16.3142 23.9929 16.3886 24.167 16.4546 24.3438C16.5205 24.5193 16.4925 24.5543 16.3156 24.5459C16.077 24.5361 15.8384 24.5291 15.5984 24.5263C15.5142 24.5263 15.4763 24.5136 15.4524 24.414C15.3668 24.0547 15.1886 23.7234 15.11 23.3599C15.0973 23.2982 15.0468 23.3024 14.9991 23.3024C14.2412 23.3024 13.4833 23.3038 12.7239 23.2996C12.6482 23.2996 12.6173 23.3375 12.599 23.3908C12.4797 23.7263 12.3576 24.0603 12.2524 24.4C12.2187 24.5108 12.1667 24.5263 12.0671 24.5291C11.8116 24.5375 11.5548 24.515 11.2994 24.5501C11.1422 24.5726 11.2685 24.4266 11.2109 24.3873C11.4664 24.007 11.545 23.555 11.7162 23.141C12.0067 22.4364 12.2664 21.7192 12.5246 21.002C12.7169 20.4658 12.9303 19.9367 13.1352 19.4048C13.1408 19.3879 13.1492 19.3725 13.1548 19.3556C13.2746 19.0169 13.5188 18.8508 13.8875 18.8574ZM13.8468 19.9395C13.8089 20.049 13.7794 20.143 13.7457 20.2356C13.632 20.5388 13.5141 20.842 13.4033 21.1465C13.2601 21.5423 13.124 21.9395 12.9808 22.3353C12.9078 22.5375 12.9022 22.5389 13.1268 22.5389C13.6278 22.5389 14.1289 22.5346 14.63 22.5417C14.7619 22.5431 14.7942 22.5262 14.7436 22.3873C14.4854 21.6659 14.244 20.9374 13.9829 20.2174C13.952 20.1304 13.9563 20.0111 13.8454 19.9423L13.8468 19.9395Z" fill="#9C9C9C"/>
<path d="M4.23535 22.3156C4.22973 22.6243 4.22271 22.9317 4.2171 23.2405C4.21008 23.6307 4.20026 24.0195 4.19885 24.4096C4.19885 24.4981 4.1778 24.5332 4.08377 24.5318C3.85078 24.5275 3.61779 24.5275 3.3848 24.5388C3.29217 24.543 3.27252 24.5023 3.26971 24.4293C3.2669 24.3535 3.2655 24.2777 3.2655 24.2019C3.2655 22.4489 3.26691 20.6959 3.2627 18.9429C3.2627 18.7955 3.28936 18.7422 3.45217 18.7464C4.04727 18.7604 4.64237 18.7365 5.23607 18.7632C5.67257 18.7829 6.1217 18.8095 6.50066 19.0748C6.8726 19.3345 7.13225 19.6587 7.17997 20.1401C7.21506 20.4994 7.22769 20.8517 7.12243 21.1955C6.93716 21.8047 6.35048 22.157 5.77082 22.2496C5.34414 22.317 4.91325 22.2735 4.48377 22.2805C4.39816 22.2819 4.31394 22.2833 4.23394 22.317C4.23113 22.3128 4.22833 22.3071 4.22412 22.3043C4.22272 22.3043 4.2171 22.3071 4.21429 22.3085C4.22131 22.31 4.22973 22.3114 4.23675 22.3128L4.23535 22.3156ZM4.20166 20.5261C4.20166 20.5261 4.20728 20.5261 4.21008 20.5261C4.21008 20.8054 4.21289 21.0847 4.20868 21.3626C4.20728 21.4748 4.22833 21.5324 4.36166 21.5268C4.68167 21.5155 5.00168 21.5268 5.32168 21.5142C5.73152 21.4973 6.16662 21.2812 6.24802 20.7941C6.27048 20.658 6.26908 20.5162 6.26346 20.3773C6.24662 19.9422 6.02346 19.6938 5.59678 19.5927C5.1673 19.4902 4.7322 19.552 4.29851 19.531C4.20587 19.5267 4.20026 19.5801 4.20166 19.6545C4.20447 19.945 4.20166 20.2355 4.20166 20.5261Z" fill="#9C9C9C"/>
<path d="M17.8575 21.3795C17.9641 21.3037 17.9978 21.1872 18.0483 21.0862C18.388 20.4054 18.7417 19.7317 19.0491 19.037C19.1515 18.8054 19.268 18.7394 19.4968 18.7549C19.7284 18.7703 19.9628 18.7577 20.2112 18.7577C20.1663 18.964 20.0624 19.1338 19.9712 19.3079C19.4589 20.2875 18.941 21.2658 18.4245 22.2427C18.2897 22.4981 18.2897 22.762 18.3192 23.0427C18.3515 23.3543 18.3375 23.6701 18.3417 23.9845C18.3417 24.0308 18.3417 24.0771 18.3417 24.1248C18.3333 24.5375 18.3333 24.5361 17.9276 24.5403C17.7887 24.5417 17.6497 24.5501 17.5122 24.5627C17.4041 24.5725 17.3718 24.5332 17.3732 24.4252C17.3831 23.8427 17.3803 23.2602 17.3915 22.6792C17.3957 22.4686 17.3283 22.289 17.2315 22.1065C16.7669 21.2349 16.3122 20.3563 15.8532 19.4819C15.7465 19.2784 15.6385 19.0735 15.5276 18.8728C15.4827 18.7914 15.4714 18.7451 15.5921 18.7479C15.8546 18.7535 16.1171 18.7591 16.3795 18.7549C16.5157 18.7521 16.5858 18.8138 16.6434 18.9331C17.0336 19.7402 17.4308 20.5444 17.8266 21.3486C17.8308 21.3584 17.842 21.3655 17.8575 21.3823V21.3795Z" fill="#9C9C9C"/>
<path d="M8.89122 23.8117C9.49053 23.8075 10.0912 23.8061 10.6906 23.7991C10.7846 23.7991 10.8127 23.8412 10.8113 23.9254C10.8085 24.0714 10.8056 24.2174 10.8127 24.3619C10.8197 24.4896 10.772 24.536 10.6414 24.5346C9.94247 24.5318 9.24351 24.536 8.54455 24.5374C8.36349 24.5374 8.18243 24.5205 8.00418 24.5556C7.90172 24.5753 7.8877 24.5247 7.8877 24.4405C7.89191 22.6131 7.89611 20.7871 7.89331 18.9597C7.89331 18.7955 7.92839 18.7323 8.10384 18.7506C8.2877 18.7702 8.47718 18.766 8.66244 18.7548C8.79718 18.7478 8.83227 18.7969 8.83087 18.9232C8.82806 19.7036 8.83508 20.4825 8.83508 21.2629C8.83508 22.084 8.82806 22.9037 8.82385 23.7233C8.80701 23.7809 8.83087 23.8089 8.88982 23.8089L8.89122 23.8117Z" fill="#9C9C9C"/>
<path d="M8.89015 23.8101C8.83236 23.8101 8.80898 23.7826 8.82549 23.7262C8.89016 23.722 8.90391 23.7551 8.89015 23.8101Z" fill="#9C9C9C"/>
<path d="M4.24096 22.3178C4.23219 22.3161 4.22166 22.3143 4.21289 22.3126C4.2164 22.3126 4.22342 22.3073 4.22517 22.3073C4.23043 22.3108 4.23394 22.3178 4.23745 22.3231L4.24096 22.3178Z" fill="#9C9C9C"/>
</svg>
