<svg width="10" height="15" viewBox="0 0 10 15" fill="none" xmlns="http://www.w3.org/2000/svg">
<path d="M9.95599 9.96496C9.93499 11.09 9.52399 12.284 8.67599 13.288C7.82499 14.297 6.749 14.864 5.504 14.979C4.034 15.114 2.746 14.593 1.686 13.481C0.829002 12.582 0.337994 11.47 0.242994 10.185C0.124994 8.59297 0.590997 7.19997 1.627 6.05697C2.572 5.01297 3.74399 4.47097 5.09199 4.48097C7.76899 4.50197 9.94299 6.82196 9.95599 9.96496ZM5.619 14.387C5.748 14.385 5.84299 14.358 5.93899 14.338C6.36299 14.251 6.76799 14.1 7.14399 13.877C7.94899 13.399 8.56799 12.72 8.98399 11.831C9.25399 11.251 9.40199 10.635 9.42999 9.98697C9.43699 9.82197 9.44 9.65596 9.416 9.48596C9.399 9.36596 9.394 9.23497 9.393 9.10997C9.392 8.85797 9.31 8.62496 9.257 8.38696C9.2 8.13096 9.1 7.88798 8.987 7.65398C8.781 7.22698 8.546 6.82397 8.222 6.48697C8.081 6.34097 7.941 6.19297 7.787 6.06297C7.31 5.66097 6.781 5.36997 6.194 5.20297C5.842 5.10297 5.48299 5.05596 5.11999 5.04896C4.97199 5.04696 4.826 5.06796 4.679 5.07696C4.283 5.10196 3.90199 5.20096 3.53599 5.35496C2.97899 5.58896 2.488 5.93997 2.058 6.38997C1.695 6.76897 1.4 7.20096 1.179 7.69096C1.1 7.86696 1.02899 8.04697 0.968992 8.23297C0.903992 8.43797 0.846998 8.64296 0.818998 8.85696C0.791998 9.05296 0.759004 9.24697 0.753004 9.44597C0.745004 9.69897 0.729004 9.95097 0.766004 10.203C0.783004 10.32 0.782997 10.44 0.805997 10.558C0.937997 11.271 1.18699 11.93 1.58999 12.519C1.71399 12.701 1.848 12.874 1.996 13.033C2.418 13.492 2.906 13.846 3.463 14.087C3.8 14.232 4.14999 14.327 4.50999 14.379C4.73099 14.41 4.954 14.423 5.175 14.431C5.333 14.437 5.49299 14.412 5.61999 14.388L5.619 14.387Z" fill="#9C9C9C"/>
<path d="M0.527009 2.31596C0.929009 2.33996 1.30101 2.46296 1.64201 2.69796C1.97701 2.92896 2.24201 3.23397 2.46501 3.59497C2.48401 3.55197 2.47601 3.52297 2.46901 3.49197C2.41901 3.27297 2.39302 3.04996 2.35002 2.82896C2.30702 2.60596 2.29402 2.37597 2.25702 2.15097C2.22702 1.96597 2.22502 1.77796 2.19902 1.59196C2.17602 1.42096 2.17602 1.24797 2.16602 1.07597C2.14902 0.790968 2.15902 0.504957 2.15302 0.220957C2.15202 0.155957 2.16901 0.0949702 2.17001 0.0309702C2.17001 -0.00902981 2.19402 -0.0060292 2.21202 0.0159708C2.24002 0.0529708 2.26402 0.0939681 2.29102 0.131968C2.56502 0.522968 2.79801 0.940961 3.01901 1.36796C3.28601 1.88196 3.51202 2.41496 3.73302 2.95196C3.75902 3.01496 3.77802 3.08197 3.80602 3.14697C3.82102 3.05697 3.83002 2.96996 3.83402 2.88096C3.86802 2.16096 4.11002 1.54097 4.59902 1.04197C4.63702 1.00297 4.67201 0.961961 4.71901 0.936961C4.73301 0.929961 4.74701 0.919964 4.76001 0.930964C4.77801 0.944964 4.76001 0.958972 4.75601 0.972972C4.72001 1.08297 4.68602 1.19497 4.64702 1.30397C4.54102 1.59497 4.49602 1.89996 4.45702 2.20596C4.42302 2.47696 4.43702 2.74996 4.45502 3.02096C4.47502 3.32096 4.52201 3.61797 4.59401 3.90997C4.61201 3.98297 4.58202 3.98896 4.53702 3.99096C4.19602 4.00496 3.86001 4.06697 3.53201 4.15997C3.18401 4.25797 2.84502 4.39696 2.53102 4.59396C2.45002 4.64496 2.36101 4.68297 2.28601 4.74397C2.25901 4.76597 2.23902 4.76497 2.22702 4.72297C2.12002 4.32697 1.94802 3.96397 1.73502 3.62597C1.64002 3.47697 1.53402 3.33596 1.42302 3.19796C1.33602 3.08996 1.24901 2.97697 1.15701 2.87797C0.975014 2.67997 0.778022 2.49596 0.546022 2.36196C0.536022 2.35696 0.521017 2.35396 0.526017 2.31796L0.527009 2.31596Z" fill="#9C9C9C"/>
<path d="M7.43496 7.16298C7.43696 7.55898 7.21997 7.73999 6.87997 7.85599C6.71297 7.91399 6.53896 7.93198 6.36396 7.91998C5.80696 7.88498 5.35697 7.63899 5.04597 7.12799C4.95097 6.97199 4.89597 6.79798 4.88897 6.61198C4.87697 6.27698 5.02796 6.04698 5.30096 5.89998C5.43396 5.82798 5.57696 5.80999 5.72196 5.80199C5.90096 5.79299 6.08296 5.78599 6.25396 5.83699C6.76096 5.98499 7.16696 6.27799 7.38296 6.81999C7.42596 6.92999 7.43096 7.04598 7.43496 7.16298Z" fill="#9C9C9C"/>
<path d="M6.06001 8.65594C6.13201 8.65594 6.22001 8.62893 6.27101 8.66393C6.31701 8.69593 6.32002 8.79693 6.34502 8.86593C6.42102 9.07993 6.50202 9.29094 6.57602 9.50494C6.66602 9.76494 6.75001 10.0279 6.83801 10.2889C6.91101 10.5039 6.98701 10.7179 7.06201 10.9319C7.09101 11.0129 7.12201 11.0929 7.15001 11.1739C7.17801 11.2549 7.16602 11.2709 7.09102 11.2669C6.99002 11.2619 6.88902 11.2589 6.78702 11.2579C6.75102 11.2579 6.73502 11.2519 6.72502 11.2059C6.68802 11.0409 6.61301 10.8889 6.57901 10.7219C6.57401 10.6939 6.55301 10.6959 6.53201 10.6959C6.21001 10.6959 5.88901 10.6969 5.56601 10.6949C5.53401 10.6949 5.52102 10.7119 5.51302 10.7369C5.46302 10.8909 5.41101 11.0439 5.36601 11.1999C5.35201 11.2509 5.33002 11.2579 5.28702 11.2589C5.17902 11.2629 5.07001 11.2529 4.96101 11.2689C4.89501 11.2789 4.94801 11.2119 4.92401 11.1939C5.03201 11.0189 5.06602 10.8119 5.13802 10.6219C5.26202 10.2989 5.37201 9.96893 5.48201 9.63993C5.56301 9.39393 5.65401 9.15093 5.74101 8.90693C5.74301 8.89893 5.74701 8.89194 5.74901 8.88394C5.80001 8.72894 5.90401 8.65294 6.06001 8.65594ZM6.04301 9.15193C6.02701 9.20293 6.01402 9.24593 6.00002 9.28793C5.95202 9.42793 5.90201 9.56693 5.85501 9.70693C5.79401 9.88793 5.73602 10.0709 5.67502 10.2519C5.64402 10.3449 5.64201 10.3459 5.73701 10.3459C5.95001 10.3459 6.16302 10.3439 6.37602 10.3469C6.43202 10.3479 6.44501 10.3399 6.42401 10.2759C6.31401 9.94493 6.21201 9.61093 6.10101 9.27993C6.08801 9.23993 6.08902 9.18494 6.04202 9.15394L6.04301 9.15193Z" fill="#9C9C9C"/>
<path d="M1.96202 10.243C1.96002 10.385 1.95701 10.526 1.95401 10.668C1.95101 10.847 1.94702 11.025 1.94702 11.204C1.94702 11.245 1.93801 11.261 1.89801 11.26C1.79901 11.259 1.70001 11.259 1.60101 11.264C1.56201 11.266 1.55302 11.247 1.55202 11.213C1.55102 11.179 1.55002 11.144 1.55002 11.109C1.55002 10.304 1.55101 9.49998 1.54901 8.69498C1.54901 8.62698 1.56102 8.60297 1.63002 8.60497C1.88202 8.61097 2.13501 8.59998 2.38701 8.61298C2.57201 8.62198 2.76301 8.63397 2.92401 8.75597C3.08201 8.87497 3.19202 9.02397 3.21202 9.24497C3.22702 9.40997 3.23302 9.57098 3.18802 9.72898C3.10902 10.009 2.86001 10.17 2.61401 10.213C2.43301 10.244 2.25001 10.224 2.06801 10.227C2.03101 10.228 1.99602 10.228 1.96202 10.244C1.96002 10.242 1.95902 10.239 1.95702 10.238L1.95302 10.24C1.95602 10.241 1.96001 10.241 1.96301 10.242L1.96202 10.243ZM1.94801 9.42197H1.95102C1.95102 9.54997 1.95302 9.67798 1.95102 9.80598C1.95002 9.85698 1.95902 9.88397 2.01602 9.88097C2.15202 9.87597 2.28802 9.88098 2.42302 9.87498C2.59702 9.86798 2.78202 9.76798 2.81702 9.54498C2.82602 9.48198 2.82601 9.41698 2.82301 9.35398C2.81601 9.15398 2.72101 9.03997 2.54001 8.99297C2.35801 8.94597 2.17301 8.97497 1.98901 8.96497C1.95001 8.96297 1.94701 8.98798 1.94801 9.02198C1.94901 9.15498 1.94801 9.28797 1.94801 9.42197Z" fill="#9C9C9C"/>
<path d="M7.74601 9.81297C7.79101 9.77897 7.80601 9.72496 7.82701 9.67896C7.97101 9.36596 8.12201 9.05697 8.25201 8.73797C8.29601 8.63197 8.34501 8.60196 8.44201 8.60896C8.54001 8.61596 8.64001 8.60996 8.74501 8.60996C8.72601 8.70496 8.68201 8.78297 8.64401 8.86297C8.42601 9.31197 8.20601 9.76097 7.98701 10.21C7.93001 10.327 7.93001 10.448 7.94201 10.577C7.95601 10.72 7.95001 10.865 7.95201 11.009C7.95201 11.03 7.95201 11.052 7.95201 11.074C7.94801 11.263 7.94801 11.262 7.77601 11.264C7.71701 11.265 7.65802 11.269 7.60002 11.275C7.55402 11.279 7.54001 11.261 7.54101 11.211C7.54501 10.944 7.54401 10.677 7.54801 10.41C7.55001 10.313 7.52101 10.231 7.48001 10.147C7.28301 9.74697 7.09001 9.34396 6.89501 8.94196C6.85001 8.84896 6.80401 8.75496 6.75701 8.66296C6.73801 8.62496 6.73301 8.60397 6.78401 8.60597C6.89601 8.60797 7.00701 8.61096 7.11901 8.60896C7.17601 8.60696 7.20601 8.63596 7.23101 8.69096C7.39601 9.06096 7.56501 9.42996 7.73301 9.79896C7.73501 9.80396 7.74001 9.80697 7.74601 9.81497V9.81297Z" fill="#9C9C9C"/>
<path d="M3.939 10.9301C4.194 10.9281 4.449 10.9271 4.703 10.9241C4.743 10.9241 4.755 10.9431 4.755 10.9821C4.753 11.0491 4.752 11.1161 4.755 11.1821C4.758 11.2411 4.738 11.2621 4.683 11.2621C4.386 11.2601 4.08901 11.2621 3.79201 11.2631C3.71501 11.2631 3.639 11.2551 3.563 11.2711C3.519 11.2801 3.513 11.2571 3.513 11.2191C3.515 10.3801 3.51701 9.54206 3.51601 8.70306C3.51601 8.62706 3.531 8.59805 3.605 8.60705C3.683 8.61605 3.764 8.61405 3.842 8.60905C3.9 8.60605 3.914 8.62806 3.914 8.68606C3.913 9.04406 3.916 9.40205 3.916 9.76005C3.916 10.1371 3.913 10.5131 3.911 10.8891C3.904 10.9161 3.914 10.9301 3.939 10.9301Z" fill="#9C9C9C"/>
<path d="M3.93999 10.93C3.91399 10.93 3.90398 10.917 3.91098 10.891C3.93998 10.889 3.94599 10.904 3.93999 10.93Z" fill="#9C9C9C"/>
<path d="M1.966 10.244C1.962 10.243 1.957 10.243 1.953 10.242L1.95799 10.239C1.96099 10.241 1.962 10.244 1.964 10.247L1.966 10.244Z" fill="#9C9C9C"/>
</svg>
