<svg width="13" height="13" viewBox="0 0 13 13" fill="none" xmlns="http://www.w3.org/2000/svg">
<path d="M12.026 6.51304C12.04 10.061 9.347 12.987 6.056 13C2.718 13.014 0.00100028 10.103 2.80283e-07 6.51203C-0.00099972 2.93903 2.674 0.025038 5.978 3.7975e-05C9.313 -0.024962 12.012 2.88204 12.026 6.51304ZM3.74699 0.954033C3.28999 1.17503 2.895 1.41804 2.545 1.74404C2.513 1.77404 2.494 1.82503 2.478 1.87003C2.398 2.09903 2.304 2.32404 2.245 2.56004C1.873 4.05504 1.991 5.52404 2.509 6.95304C2.685 7.44104 2.937 7.89804 3.147 8.35204C2.007 7.55504 1.193 6.41804 0.567002 5.09504C0.212002 6.76804 0.424995 8.33904 1.28799 9.78104C2.16099 11.24 3.402 12.125 4.98 12.458C2.826 11.283 1.40099 9.50304 0.981995 6.88004C1.02499 6.90104 1.05399 6.93604 1.08099 6.97204C1.67099 7.77904 2.322 8.52004 3.082 9.14204C5.132 10.821 7.41001 11.354 9.91701 10.728C10.027 10.7 10.15 10.624 10.218 10.529C10.461 10.193 10.706 9.85404 10.905 9.48704C11.097 9.13704 11.234 8.75103 11.395 8.38103L11.343 8.34504C11.126 8.47904 10.914 8.62304 10.691 8.74404C8.77099 9.78704 6.79701 9.91303 4.76801 9.15203C4.25301 8.95803 3.84799 8.62603 3.59399 8.10903C2.59299 6.06403 2.48 3.96903 3.34 1.83303C3.455 1.54703 3.59799 1.27604 3.74899 0.953041L3.74699 0.954033ZM4.664 7.86604C5.098 7.86604 5.505 7.86904 5.911 7.86604C6.663 7.86004 7.107 7.03703 6.737 6.33103C6.682 6.22503 6.678 6.15604 6.737 6.05004C6.938 5.68504 6.91299 5.32204 6.70799 4.96404C6.50499 5.08804 6.31399 5.20303 6.12399 5.31803C6.23999 5.57203 6.19 5.78704 5.991 5.80904C5.788 5.83204 5.58099 5.81504 5.39999 5.81504C5.35299 5.64504 5.351 5.43604 5.263 5.37704C5.155 5.30404 4.975 5.35703 4.826 5.35503C4.813 5.35503 4.79499 5.35003 4.78799 5.35703C4.74499 5.40303 4.67 5.45103 4.67 5.49903C4.663 6.27603 4.66499 7.05303 4.66499 7.86803L4.664 7.86604ZM6.422 1.45704C6.061 1.45704 5.725 1.45404 5.388 1.45704C4.897 1.46204 4.501 1.84704 4.45 2.36404C4.399 2.89004 4.72001 3.36404 5.21001 3.46604C5.35501 3.49604 5.506 3.48803 5.655 3.49503C5.85 3.50203 5.973 3.61204 5.972 3.78104C5.97 3.95404 5.853 4.06103 5.651 4.06603C5.489 4.07003 5.32699 4.06603 5.16499 4.06603C4.80299 4.06603 4.635 4.26204 4.661 4.65604C4.661 4.66304 4.658 4.67203 4.661 4.67603C4.699 4.71803 4.738 4.79404 4.778 4.79504C5.134 4.79904 5.49299 4.81904 5.84599 4.78004C6.33499 4.72604 6.665 4.26103 6.646 3.71503C6.629 3.21603 6.24201 2.79804 5.76601 2.76704C5.65001 2.75904 5.533 2.76304 5.416 2.75704C5.253 2.75004 5.141 2.67204 5.129 2.48304C5.118 2.31604 5.23601 2.19803 5.41701 2.18903C5.50101 2.18403 5.586 2.18804 5.67 2.18804C5.92 2.18804 6.17 2.18804 6.422 2.18804V1.45603V1.45704ZM10.258 7.86803C9.692 6.73703 9.144 5.64403 8.577 4.50803C8.163 5.33603 7.775 6.11304 7.358 6.94704C7.861 6.78204 8.30599 6.63804 8.75999 6.49004C8.97099 6.90604 9.17499 7.31204 9.38499 7.71404C9.41599 7.77504 9.474 7.85804 9.524 7.86204C9.755 7.87704 9.986 7.86904 10.258 7.86904V7.86803ZM10.261 4.80103C9.692 3.66303 9.143 2.56803 8.577 1.43703C8.164 2.26203 7.773 3.04404 7.356 3.87604C7.86 3.71104 8.308 3.56504 8.759 3.41804C8.977 3.84604 9.18399 4.25804 9.39999 4.66404C9.43199 4.72504 9.50799 4.79004 9.56799 4.79504C9.77999 4.81004 9.993 4.80103 10.261 4.80103ZM8.065 7.12804L8.03101 7.08704C7.83501 7.15004 7.64199 7.24004 7.44099 7.27204C7.11999 7.32204 7.02599 7.57303 6.91499 7.86803C7.16899 7.86803 7.4 7.87104 7.632 7.86504C7.665 7.86504 7.711 7.83704 7.726 7.80604C7.843 7.58204 7.953 7.35504 8.065 7.12804ZM8.10201 3.99104C7.82201 4.08304 7.59 4.16103 7.357 4.23603C7.12 4.31403 6.97501 4.50804 6.94901 4.80004C7.16901 4.80004 7.38899 4.80504 7.60899 4.79704C7.65099 4.79504 7.708 4.75604 7.73 4.71604C7.85 4.49404 7.96101 4.26704 8.10201 3.99104Z" fill="#9C9C9C"/>
<path d="M3.74701 0.953979C3.59601 1.27598 3.45202 1.54798 3.33802 1.83398C2.47902 3.96998 2.59202 6.06499 3.59302 8.10999C3.84602 8.62599 4.25202 8.95898 4.76702 9.15298C6.79502 9.91398 8.76902 9.78798 10.69 8.74498C10.912 8.62498 11.124 8.47998 11.341 8.34598L11.394 8.38199C11.233 8.75299 11.095 9.13799 10.904 9.48799C10.703 9.85399 10.459 10.194 10.217 10.53C10.148 10.625 10.025 10.701 9.91501 10.728C7.40901 11.355 5.13002 10.822 3.08002 9.14198C2.32002 8.51998 1.66901 7.77999 1.07901 6.97299C1.05301 6.93699 1.02402 6.90198 0.980015 6.88098C1.40002 9.50398 2.82402 11.284 4.97802 12.459C3.40002 12.125 2.15902 11.24 1.28602 9.78198C0.424015 8.33998 0.211022 6.76898 0.565022 5.09598C1.19202 6.41798 2.00602 7.55598 3.14502 8.35298C2.93602 7.89898 2.68302 7.44198 2.50702 6.95398C1.99002 5.52498 1.87202 4.05699 2.24302 2.56099C2.30202 2.32499 2.39602 2.09999 2.47602 1.87099C2.49202 1.82599 2.51103 1.77398 2.54403 1.74498C2.89303 1.41898 3.28801 1.17599 3.74501 0.954987L3.74701 0.953979Z" fill="#4D4D4D"/>
<path d="M4.66397 7.86603C4.66397 7.05203 4.66198 6.27402 4.66898 5.49702C4.66898 5.44902 4.74397 5.40103 4.78697 5.35503C4.79397 5.34803 4.81197 5.35303 4.82497 5.35303C4.97497 5.35503 5.15397 5.30303 5.26297 5.37503C5.34997 5.43403 5.35197 5.64303 5.39897 5.81303C5.57997 5.81303 5.78697 5.83104 5.98997 5.80704C6.18897 5.78404 6.23896 5.57002 6.12396 5.31602C6.31396 5.20102 6.50497 5.08604 6.70697 4.96204C6.91197 5.32004 6.93696 5.68303 6.73596 6.04803C6.67796 6.15403 6.68096 6.22403 6.73596 6.32903C7.10596 7.03603 6.66297 7.85803 5.90997 7.86403C5.50397 7.86803 5.09596 7.86403 4.66296 7.86403L4.66397 7.86603ZM5.70796 6.56203C5.30396 6.56803 5.35597 6.47603 5.35197 6.96703C5.35197 6.98803 5.34597 7.01403 5.35597 7.02803C5.37797 7.06403 5.40598 7.12202 5.43198 7.12202C5.62498 7.12502 5.82297 7.14303 6.00797 7.09703C6.08597 7.07703 6.17597 6.92304 6.18597 6.82004C6.19997 6.68304 6.10497 6.57403 5.95897 6.56303C5.87497 6.55703 5.79196 6.56203 5.70796 6.56203Z" fill="#4D4D4D"/>
<path d="M6.422 1.45601V2.18802C6.17 2.18802 5.92 2.18802 5.67 2.18802C5.586 2.18802 5.50101 2.18502 5.41701 2.18902C5.23701 2.19802 5.119 2.31602 5.129 2.48302C5.141 2.67102 5.25301 2.74902 5.41601 2.75702C5.53301 2.76302 5.65001 2.75902 5.76601 2.76702C6.24201 2.79802 6.629 3.21602 6.646 3.71502C6.665 4.26102 6.33501 4.72602 5.84701 4.78002C5.49401 4.81902 5.13401 4.79902 4.77801 4.79502C4.73801 4.79502 4.699 4.71802 4.661 4.67602C4.657 4.67202 4.661 4.66203 4.661 4.65603C4.635 4.26203 4.803 4.06602 5.165 4.06602C5.327 4.06602 5.48901 4.06902 5.65101 4.06602C5.85301 4.06102 5.97001 3.95503 5.97201 3.78103C5.97401 3.61203 5.851 3.50202 5.655 3.49502C5.506 3.48902 5.35501 3.49602 5.21001 3.46602C4.72101 3.36502 4.4 2.89102 4.45 2.36402C4.501 1.84702 4.89601 1.46202 5.38801 1.45702C5.72501 1.45402 6.06 1.45702 6.422 1.45702V1.45601Z" fill="#4D4D4D"/>
<path d="M10.258 7.86795C9.98603 7.86795 9.75502 7.87695 9.52502 7.86095C9.47402 7.85695 9.41603 7.77395 9.38503 7.71295C9.17503 7.31095 8.97103 6.90495 8.76003 6.48895C8.30603 6.63695 7.86203 6.78195 7.35803 6.94595C7.77503 6.11295 8.16303 5.33496 8.57703 4.50696C9.14503 5.64296 9.69203 6.73695 10.258 7.86795Z" fill="#4D4D4D"/>
<path d="M10.261 4.80101C9.99299 4.80101 9.77899 4.81001 9.56699 4.79501C9.50699 4.79001 9.43199 4.72402 9.39899 4.66402C9.18399 4.25902 8.97698 3.84701 8.75798 3.41801C8.30698 3.56601 7.85898 3.71202 7.35498 3.87602C7.77198 3.04402 8.16298 2.26201 8.57698 1.43701C9.14298 2.56801 9.69098 3.66301 10.26 4.80101H10.261Z" fill="#4D4D4D"/>
<path d="M8.064 7.12694C7.952 7.35394 7.84201 7.58093 7.72501 7.80493C7.71001 7.83593 7.664 7.86294 7.631 7.86394C7.4 7.86894 7.169 7.86694 6.914 7.86694C7.025 7.57194 7.118 7.32094 7.44 7.27094C7.641 7.24094 7.834 7.14894 8.03 7.08594L8.064 7.12694Z" fill="#4D4D4D"/>
<path d="M8.101 3.99097C7.961 4.26797 7.85 4.49397 7.729 4.71597C7.708 4.75497 7.65 4.79497 7.608 4.79697C7.388 4.80497 7.168 4.79997 6.948 4.79997C6.973 4.50797 7.119 4.31396 7.356 4.23596C7.589 4.16096 7.821 4.08297 8.101 3.99097Z" fill="#4D4D4D"/>
<path d="M5.70803 6.56195C5.79203 6.56195 5.87604 6.55696 5.96004 6.56296C6.10604 6.57396 6.20103 6.68296 6.18703 6.81996C6.17603 6.92296 6.08603 7.07696 6.00803 7.09696C5.82403 7.14196 5.62603 7.12396 5.43303 7.12296C5.40703 7.12296 5.37804 7.06496 5.35604 7.02896C5.34704 7.01396 5.35303 6.98795 5.35303 6.96695C5.35603 6.47595 5.30403 6.56795 5.70903 6.56195H5.70803Z" fill="#9C9C9C"/>
</svg>
