<svg width="29" height="29" viewBox="0 0 29 29" fill="none" xmlns="http://www.w3.org/2000/svg">
<path d="M28.6816 14.5475C28.7137 22.2767 22.3717 28.6508 14.6204 28.6789C6.75867 28.709 0.358453 22.367 0.356446 14.5454C0.354438 6.75999 6.65427 0.411972 14.4357 0.357767C22.2914 0.303562 28.6475 6.63552 28.6816 14.5475ZM9.18184 2.43563C8.10577 2.91745 7.17425 3.44746 6.35113 4.15614C6.27484 4.22239 6.23067 4.33281 6.19252 4.43118C6.00381 4.93107 5.78298 5.42092 5.64446 5.93486C4.76714 9.19118 5.0462 12.3913 6.26481 15.5051C6.68038 16.5691 7.27463 17.5649 7.76849 18.5526C5.08434 16.816 3.16708 14.3387 1.6915 11.4578C0.856342 15.1015 1.35824 18.5245 3.38993 21.6664C5.44571 24.8444 8.36877 26.7737 12.0848 27.4984C7.01163 24.9388 3.65694 21.0601 2.6692 15.3465C2.77159 15.3926 2.83985 15.4689 2.90209 15.5472C4.29134 17.3039 5.82514 18.918 7.61592 20.2731C12.4442 23.9309 17.8085 25.0933 23.7128 23.7282C23.9718 23.6679 24.2629 23.5033 24.4235 23.2965C24.9957 22.5638 25.5718 21.825 26.0416 21.026C26.4933 20.2631 26.8165 19.4219 27.196 18.6168L27.0715 18.5385C26.5616 18.8297 26.0617 19.1428 25.5377 19.4078C21.0146 21.6784 16.365 21.9535 11.5869 20.2952C10.3743 19.8736 9.41874 19.1509 8.82248 18.0246C6.46356 13.5677 6.19655 9.00448 8.22221 4.35088C8.49324 3.72852 8.83051 3.13628 9.18586 2.43362L9.18184 2.43563ZM11.342 17.4946C12.3639 17.4946 13.3215 17.5006 14.2791 17.4946C16.0498 17.4805 17.0958 15.6878 16.2245 14.1499C16.094 13.9191 16.086 13.7685 16.2245 13.5376C16.6983 12.7426 16.638 11.9516 16.1562 11.1727C15.6764 11.4417 15.2287 11.6926 14.781 11.9436C15.0541 12.4957 14.9356 12.9655 14.4658 13.0136C13.988 13.0638 13.5002 13.0257 13.0746 13.0257C12.9641 12.6563 12.9601 12.2006 12.7533 12.0721C12.4984 11.9135 12.0748 12.0279 11.7235 12.0239C11.6933 12.0239 11.6492 12.0118 11.6331 12.0279C11.5327 12.1283 11.3561 12.2327 11.3561 12.3371C11.338 14.0295 11.344 15.7219 11.344 17.4986L11.342 17.4946ZM15.4817 3.53177C14.6325 3.53177 13.8395 3.52575 13.0465 3.53177C11.8901 3.54181 10.9566 4.38099 10.8381 5.50725C10.7176 6.65358 11.4725 7.68549 12.6269 7.90833C12.9682 7.97458 13.3235 7.95652 13.6748 7.97057C14.1346 7.98663 14.4237 8.22553 14.4217 8.59493C14.4176 8.97236 14.1426 9.20524 13.6668 9.21528C13.2854 9.22331 12.9039 9.21528 12.5205 9.21528C11.6679 9.21528 11.2724 9.64356 11.334 10.5001C11.334 10.5162 11.328 10.5363 11.334 10.5443C11.4243 10.6367 11.5147 10.8013 11.609 10.8033C12.4482 10.8133 13.2934 10.8555 14.1265 10.7712C15.2769 10.6527 16.0538 9.64089 16.0097 8.45039C15.9695 7.36428 15.0581 6.45282 13.9378 6.38456C13.6628 6.3685 13.3878 6.37654 13.1127 6.36449C12.7293 6.34843 12.4643 6.17779 12.4362 5.76623C12.4101 5.40286 12.6891 5.14589 13.1147 5.12581C13.3135 5.11577 13.5122 5.1238 13.711 5.1238C14.2992 5.1238 14.8874 5.1238 15.4817 5.1238V3.52977V3.53177ZM24.5179 17.4986C23.1848 15.0353 21.8939 12.6523 20.5569 10.1789C19.5832 11.9817 18.6677 13.6761 17.686 15.491C18.8725 15.1337 19.9185 14.8185 20.9885 14.4973C21.4864 15.4027 21.9662 16.288 22.4601 17.1633C22.5344 17.2958 22.6709 17.4765 22.7893 17.4846C23.3314 17.5187 23.8774 17.5006 24.5179 17.5006V17.4986ZM24.5239 10.8173C23.1828 8.33796 21.8919 5.95293 20.5589 3.48761C19.5852 5.2844 18.6637 6.98886 17.682 8.80172C18.8685 8.44236 19.9245 8.12515 20.9865 7.80393C21.5004 8.73546 21.9863 9.63286 22.4962 10.5182C22.5725 10.6507 22.7512 10.7932 22.8917 10.8033C23.3916 10.8374 23.8955 10.8173 24.5259 10.8173H24.5239ZM19.3523 15.8865L19.272 15.7962C18.8103 15.9347 18.3545 16.1314 17.8828 16.1997C17.1259 16.3081 16.9051 16.8562 16.6421 17.4986C17.2423 17.4986 17.7864 17.5046 18.3325 17.4926C18.4087 17.4926 18.5171 17.4304 18.5533 17.3641C18.8283 16.8763 19.0873 16.3804 19.3523 15.8865ZM19.4386 9.05266C18.7802 9.25342 18.2321 9.42206 17.684 9.58668C17.1259 9.75532 16.7846 10.1789 16.7224 10.8153C17.2423 10.8153 17.7603 10.8254 18.2782 10.8073C18.3766 10.8033 18.5111 10.719 18.5633 10.6306C18.8464 10.1488 19.1074 9.65294 19.4386 9.05266Z" fill="#9C9C9C"/>
<path d="M9.1807 2.43573C8.82535 3.13839 8.48607 3.73063 8.21706 4.35298C6.1934 9.00659 6.46041 13.5698 8.81732 18.0267C9.41358 19.151 10.3692 19.8757 11.5818 20.2973C16.3599 21.9556 21.0094 21.6805 25.5326 19.4099C26.0565 19.1469 26.5564 18.8318 27.0664 18.5407L27.1908 18.6189C26.8114 19.426 26.4882 20.2652 26.0365 21.0281C25.5647 21.8251 24.9885 22.5659 24.4183 23.2987C24.2577 23.5054 23.9666 23.6701 23.7076 23.7303C17.8053 25.0955 12.439 23.9351 7.61076 20.2752C5.81998 18.9181 4.28619 17.306 2.89693 15.5493C2.83469 15.471 2.76643 15.3948 2.66404 15.3486C3.65178 21.0622 7.00647 24.9409 12.0797 27.5005C8.36361 26.7738 5.44055 24.8445 3.38477 21.6685C1.35309 18.5266 0.851185 15.1037 1.68634 11.4599C3.16393 14.3408 5.07918 16.8181 7.76334 18.5547C7.26947 17.567 6.67522 16.5712 6.25965 15.5072C5.04305 12.3934 4.76399 9.1953 5.6393 5.93698C5.77782 5.42303 5.99867 4.93318 6.18738 4.43329C6.22552 4.33492 6.26969 4.22249 6.34598 4.15824C7.16909 3.44956 8.0986 2.91956 9.17668 2.43774L9.1807 2.43573Z" fill="#4D4D4D"/>
<path d="M11.3428 17.4947C11.3428 15.72 11.3368 14.0255 11.3549 12.3331C11.3549 12.2287 11.5315 12.1243 11.6319 12.024C11.648 12.0079 11.6901 12.0199 11.7223 12.0199C12.0736 12.024 12.4972 11.9095 12.7522 12.0681C12.9589 12.1966 12.963 12.6523 13.0734 13.0217C13.499 13.0217 13.9868 13.0599 14.4646 13.0097C14.9344 12.9595 15.0529 12.4917 14.7798 11.9397C15.2275 11.6887 15.6772 11.4377 16.155 11.1687C16.6369 11.9477 16.6951 12.7387 16.2233 13.5337C16.0848 13.7645 16.0928 13.9171 16.2233 14.146C17.0946 15.6858 16.0506 17.4766 14.2779 17.4906C13.3203 17.4987 12.3607 17.4906 11.3408 17.4906L11.3428 17.4947ZM13.8021 14.6539C12.8485 14.666 12.971 14.4652 12.963 15.5353C12.963 15.5814 12.9489 15.6376 12.971 15.6698C13.0232 15.7481 13.0894 15.8745 13.1517 15.8745C13.6054 15.8806 14.0732 15.9187 14.5068 15.8183C14.6915 15.7762 14.9023 15.4389 14.9264 15.216C14.9605 14.9169 14.7357 14.68 14.3924 14.6559C14.1956 14.6419 13.9989 14.6539 13.8001 14.6539H13.8021Z" fill="#4D4D4D"/>
<path d="M15.481 3.52976V5.12379C14.8867 5.12379 14.2985 5.12379 13.7103 5.12379C13.5115 5.12379 13.3128 5.11777 13.114 5.1258C12.6904 5.14587 12.4114 5.40284 12.4354 5.76622C12.4636 6.17577 12.7286 6.34641 13.112 6.36448C13.387 6.37652 13.6621 6.36849 13.9371 6.38455C15.0574 6.45281 15.9688 7.36426 16.009 8.45037C16.0531 9.64088 15.2762 10.6527 14.1258 10.7711C13.2947 10.8555 12.4475 10.8133 11.6083 10.8033C11.516 10.8033 11.4236 10.6366 11.3333 10.5443C11.3252 10.5363 11.3333 10.5142 11.3333 10.5001C11.2717 9.64354 11.6672 9.21526 12.5198 9.21526C12.9012 9.21526 13.2827 9.22129 13.6661 9.21526C14.1419 9.20523 14.4169 8.97435 14.4209 8.59491C14.425 8.22552 14.1359 7.98661 13.6741 7.97055C13.3248 7.95851 12.9675 7.97457 12.6262 7.90832C11.4738 7.68748 10.7189 6.65558 10.8374 5.50723C10.9558 4.38097 11.8874 3.5418 13.0458 3.53176C13.8388 3.52574 14.6297 3.53176 15.481 3.53176V3.52976Z" fill="#4D4D4D"/>
<path d="M24.5164 17.4987C23.874 17.4987 23.3299 17.5188 22.7879 17.4826C22.6694 17.4746 22.5329 17.2939 22.4586 17.1614C21.9648 16.2861 21.4849 15.4008 20.9871 14.4953C19.917 14.8166 18.8731 15.1318 17.6846 15.4891C18.6663 13.6742 19.5818 11.9798 20.5554 10.177C21.8945 12.6504 23.1834 15.0334 24.5164 17.4967V17.4987Z" fill="#4D4D4D"/>
<path d="M24.5255 10.8174C23.8951 10.8174 23.3912 10.8374 22.8914 10.8033C22.7508 10.7933 22.5721 10.6487 22.4958 10.5182C21.9879 9.6349 21.5021 8.7375 20.9861 7.80397C19.9241 8.12518 18.8681 8.4444 17.6816 8.80175C18.6634 6.98889 19.5848 5.28444 20.5585 3.48764C21.8916 5.95297 23.1825 8.33799 24.5235 10.8174H24.5255Z" fill="#4D4D4D"/>
<path d="M19.3499 15.8845C19.0849 16.3784 18.8259 16.8742 18.5509 17.3621C18.5147 17.4283 18.4063 17.4886 18.33 17.4906C17.786 17.5006 17.2399 17.4966 16.6396 17.4966C16.9026 16.8542 17.1215 16.3061 17.8803 16.1977C18.3521 16.1314 18.8078 15.9327 19.2696 15.7942L19.3499 15.8845Z" fill="#4D4D4D"/>
<path d="M19.436 9.05255C19.1068 9.65483 18.8438 10.1487 18.5607 10.6305C18.5105 10.7168 18.374 10.8032 18.2756 10.8072C17.7577 10.8253 17.2397 10.8152 16.7197 10.8152C16.78 10.1788 17.1233 9.7552 17.6814 9.58657C18.2294 9.42194 18.7755 9.25331 19.436 9.05255Z" fill="#4D4D4D"/>
<path d="M13.8006 14.6539C13.9973 14.6539 14.1961 14.6418 14.3928 14.6559C14.7361 14.68 14.9609 14.9169 14.9268 15.216C14.9027 15.4388 14.6899 15.7761 14.5072 15.8183C14.0736 15.9166 13.6058 15.8785 13.1521 15.8745C13.0899 15.8745 13.0216 15.748 12.9714 15.6697C12.9493 15.6376 12.9634 15.5814 12.9634 15.5352C12.9714 14.4652 12.847 14.6659 13.8026 14.6539H13.8006Z" fill="#9C9C9C"/>
</svg>
