<svg width="18" height="18" viewBox="0 0 18 18" fill="none" xmlns="http://www.w3.org/2000/svg">
<path d="M8.99996 17C13.4183 17 17 13.4183 17 8.99996C17 4.58172 13.4183 1 8.99996 1C4.58172 1 1 4.58172 1 8.99996C1 13.4183 4.58172 17 8.99996 17Z" stroke="url(#paint0_linear_1959_3727)" stroke-width="1.3" stroke-miterlimit="10"/>
<path d="M14.4482 11.4466C15.5043 7.68439 14.6999 4.00625 12.6514 3.23131C10.6029 2.45637 8.08618 4.87802 7.02999 8.64025C5.97387 12.4025 6.77834 16.0806 8.82683 16.8556C10.8753 17.6305 13.3921 15.2089 14.4482 11.4466Z" stroke="url(#paint1_linear_1959_3727)" stroke-width="1.3" stroke-miterlimit="10"/>
<path d="M10.6726 13.3214C14.8343 11.9625 17.6148 9.54916 16.883 7.93099C16.1513 6.31289 12.1845 6.10275 8.02284 7.46162C3.86121 8.82057 1.08065 11.2339 1.81244 12.852C2.54414 14.4701 6.51102 14.6803 10.6726 13.3214Z" stroke="url(#paint2_linear_1959_3727)" stroke-width="1.3" stroke-miterlimit="10"/>
<path d="M14.4228 14.4858C15.7997 12.0493 14.1764 8.08514 10.7972 5.63169C7.41799 3.17833 3.56252 3.16467 2.18566 5.60132C0.808881 8.0379 2.43206 12.002 5.8113 14.4555C9.19047 16.9088 13.046 16.9225 14.4228 14.4858Z" stroke="url(#paint3_linear_1959_3727)" stroke-width="1.3" stroke-miterlimit="10"/>
<defs>
<linearGradient id="paint0_linear_1959_3727" x1="16.7136" y1="13.44" x2="3.24792" y2="5.40856" gradientUnits="userSpaceOnUse">
<stop stop-color="#CCCCCC" stop-opacity="0.752054"/>
<stop offset="0.349005" stop-color="#DCDCDC"/>
<stop offset="0.651042" stop-color="#C0C0C0" stop-opacity="0.536038"/>
<stop offset="1" stop-color="#EDEDED" stop-opacity="0"/>
</linearGradient>
<linearGradient id="paint1_linear_1959_3727" x1="8.19114" y1="4.40253" x2="15.5429" y2="11.6298" gradientUnits="userSpaceOnUse">
<stop stop-color="#DCDCDC"/>
<stop offset="0.223958" stop-color="white" stop-opacity="0.776042"/>
<stop offset="1" stop-color="#C9C9C9" stop-opacity="0"/>
</linearGradient>
<linearGradient id="paint2_linear_1959_3727" x1="13.2423" y1="5.54988" x2="12.6837" y2="12.03" gradientUnits="userSpaceOnUse">
<stop stop-color="#DADADA"/>
<stop offset="1" stop-color="#8E8E8E" stop-opacity="0"/>
</linearGradient>
<linearGradient id="paint3_linear_1959_3727" x1="0.303722" y1="11.0937" x2="23.0227" y2="9.10485" gradientUnits="userSpaceOnUse">
<stop stop-color="#DCDCDC"/>
<stop offset="0.317708" stop-color="#EDEDED" stop-opacity="0.65"/>
<stop offset="1" stop-color="#838383" stop-opacity="0.3"/>
</linearGradient>
</defs>
</svg>
