<svg width="264" height="362" viewBox="0 0 264 362" fill="none" xmlns="http://www.w3.org/2000/svg">
<g clip-path="url(#clip0_26_2)">
<path d="M135 361.52C92.36 360.4 57.12 343.98 29.73 311.03C13.78 291.84 5.79999 269.54 1.88999 245.24C0.639994 237.46 -0.200006 229.77 0.0399935 221.98C0.649994 202.69 4.90999 184.43 14.53 167.38C21.08 155.78 27 143.85 36.62 134.39C52.66 118.62 70.15 104.68 92.45 99.18C102.06 96.81 107.73 92.51 109.25 82.86C109.65 80.32 111.78 79.54 113.69 78.53C116.74 76.93 118.09 74.83 115.33 71.89C113.03 69.44 114.72 68.41 116.74 67.53C123.76 64.48 127.12 58.89 126.22 51.6C125.14 42.9 130.22 36.65 133.83 29.93C138.07 22.02 143.49 14.84 149.72 8.21C159.76 -2.48 177.31 -1.56 187.82 4.2C193.58 7.36 195.28 13.84 197.47 19.55C199.19 24.04 200.29 28.77 201.66 33.39C202.63 36.67 204.66 38.56 208.23 38.23C218.74 37.27 229.15 39.29 239.65 39.3C245.8 39.3 251.79 41.55 257.47 43.87C263.02 46.13 264.45 51.79 262.11 59.42C257.31 75.04 249.21 88.5 236.67 99.28C232.15 103.17 228.21 107.79 224.3 112.33C220.35 116.91 220.39 120.28 224.55 124.58C231.4 131.65 237.59 139.29 244.1 146.66C246.67 149.58 247.33 151.65 243.57 154.27C239.21 157.31 235.13 160.81 231.23 164.44C228.83 166.69 227.6 166.62 226.04 163.7C222.85 157.71 221.42 157.7 217.61 163.18C215.57 166.1 213.04 168.53 209.71 169.88C205.87 171.44 203.15 174.39 201.94 177.96C197.66 190.59 189.47 200.69 181.41 210.88C177.03 216.42 173.27 222.27 170.63 228.81C169.38 231.91 168.18 235.1 165.92 237.59C159.33 244.85 159.82 253.19 162.69 261.46C165.36 269.17 166.31 277.02 166.32 285C166.33 294.95 167.66 304.88 166.55 314.84C166.19 318.12 166.42 321.39 165.65 324.71C164.3 330.53 166.84 332.41 172.5 330.57C182.11 327.45 190.86 322.63 199.02 316.84C202.27 314.53 204.02 314.93 206.3 317.84C209.81 322.32 212.69 327.2 215.73 331.98C216.96 333.92 216.46 335.11 214.45 336.4C204.35 342.91 194.13 349.28 182.91 353.6C168.85 359.02 154.23 362.14 139.01 361.49C137.68 361.43 136.34 361.49 135 361.49V361.52ZM35.89 209.47C43.69 209.92 49.16 205.08 53.7 199.08C62.08 188.02 71.19 177.67 81.64 168.5C84.95 165.59 87.29 161.92 89.18 158.01C92.22 151.71 95.05 145.32 97.98 138.97C99.8 135.03 101.32 130.97 102.17 126.72C102.87 123.21 101.17 121.74 98.09 123.02C75.25 132.5 55.75 146.13 42.59 167.64C35.59 179.08 31.19 191.6 27.24 204.31C26.54 206.55 27.54 207.71 29.46 208.62C31.37 209.52 33.36 209.39 35.9 209.47H35.89ZM185.94 144.62C185.02 147.42 186 149.73 186.4 152.11C186.91 155.14 185.31 157.58 182.59 158.14C179.44 158.79 179.71 155.69 179.33 153.67C178.97 151.73 179.44 148.95 178.3 147.95C172.96 143.23 171.1 136.19 166.08 131.13C160.69 125.69 156.44 119.19 156.13 110.68C155.98 106.43 155.43 102.12 155.32 97.81C155.29 96.52 154.99 95.44 153.37 95.58C152.18 95.68 151.63 96.47 151.58 97.58C151.53 98.91 151.44 100.26 151.58 101.58C152.41 108.93 150.24 115.21 145.43 120.84C138.46 128.99 135.17 138.74 133.59 149.2C132.93 153.59 133.92 155.93 138.69 157.61C149.65 161.49 160.67 161.19 171.78 159.63C178.59 158.67 184.78 159.88 190.04 164.03C199.83 171.76 199.73 171.97 210.04 165.05C212.38 163.48 214.44 161.49 216.64 159.7C218.04 158.56 218.47 157.03 218.69 155.31C218.93 153.45 217.9 150.68 220.4 150.12C223.06 149.52 224.5 152.04 225.53 154.08C226.95 156.89 228.59 156.7 230.67 155.03C232.23 153.78 233.78 152.52 235.36 151.29C238.68 148.69 238.83 145.45 236.2 142.62C230.75 136.78 225.07 131.13 219.22 125.69C216.31 122.98 213.63 124.13 213.74 128.08C214.13 141.39 205.59 147.98 195.36 153.53C192.61 155.02 190.97 154.25 189.92 151.5C189.01 149.11 188.64 146.41 185.93 144.62H185.94ZM25.12 239.62C25.16 240.12 25.17 240.62 25.24 241.11C28.29 262.36 36.96 281.13 50.35 297.8C51.11 298.75 51.7 300.66 53.83 299.74C55.76 298.9 55.26 297.32 55.25 295.91C55.22 285.93 54.24 276.02 53.36 266.08C51.9 249.67 53.63 233.57 60.61 218.3C61.34 216.7 63.81 214.23 61.29 212.66C59.25 211.39 57.83 214.11 56.56 215.46C50.67 221.71 44.42 227.19 35.9 229.82C32.69 230.81 30.02 233.52 27.05 235.36C25.38 236.39 24.98 237.85 25.12 239.62ZM69.45 202.35C71.21 202.35 72.37 202.5 73.47 202.32C80.47 201.19 85.3 204.45 90.19 209.14C97.71 216.35 101.11 225.71 105.24 234.69C108.9 242.65 110.94 250.98 108.52 259.89C107.44 263.87 109.21 265.77 113.55 265.49C115.89 265.34 118.15 265.04 120.37 264.37C130.55 261.29 141.48 261 151.17 256.14C153.07 255.19 155.57 254.43 155.45 251.81C155.34 249.36 153.15 248.15 151.09 247.52C133.66 242.19 120.74 229.75 106.73 219.17C97.56 212.25 90.14 203.38 84.28 193.39C83.1 191.37 81.69 190.73 79.83 192.08C76.1 194.78 71.87 197 69.45 202.34V202.35ZM126.46 334.14C126.27 333.53 126.01 332.39 125.55 331.33C117.47 312.56 110.85 293.35 108.25 272.96C108.05 271.38 107.2 269.9 105.64 269.66C103.89 269.4 103.06 271 102.59 272.41C100.33 279.16 98.17 285.94 95.95 292.7C92.49 303.22 93.22 314.58 89.38 325.04C88.91 326.32 89.13 327.69 91.04 328.6C101.37 333.56 112.6 335.05 123.6 337.44C125.77 337.91 126.71 336.8 126.46 334.13V334.14ZM43.4 298.43C40.28 298.53 38.49 301 36.14 302.49C32.63 304.71 32.35 307.22 35.29 310.19C39.62 314.55 43.7 319.17 48.2 323.34C56.42 330.96 65.81 336.99 75.47 342.61C76.95 343.47 78.81 344.37 79.96 342.63C81.97 339.6 83.73 336.37 85.22 333.05C86.17 330.95 85.03 329.06 83.01 328.09C69 321.34 57.06 311.91 46.79 300.3C45.9 299.3 44.91 298.37 43.39 298.44L43.4 298.43ZM5.09999 222.65C5.09999 226.39 5.07999 229.72 5.10999 233.04C5.11999 234.17 4.78999 235.91 6.04999 236.13C10.14 236.87 14.36 237.08 18.33 235.62C21.53 234.44 20.41 231.34 20.3 229.08C19.58 214.09 21.89 199.68 27.95 185.92C28.75 184.11 28.36 182.53 26.61 181.68C23.49 180.18 20.42 178.49 16.79 178.33C14.32 178.23 12.79 178.89 12.06 181.55C8.33999 195.16 4.33999 208.71 5.09999 222.64V222.65ZM157.11 354.83C159.06 354.41 161.03 354.07 162.96 353.57C176.53 350.05 189.47 344.99 201.83 338.34C210.26 333.81 210.49 333.44 204.83 325.66C204.63 325.39 204.42 325.13 204.24 324.85C202.09 321.64 199.9 319.96 196.39 323.55C194.72 325.26 192.25 326.18 190.16 327.49C179.51 334.12 167.78 337.64 155.48 339.47C151.36 340.08 149.42 341.9 150.86 346.25C151.33 347.66 151.4 349.2 151.75 350.65C152.42 353.4 153.9 355.17 157.11 354.83ZM209.04 54.24C207.01 54.44 205.16 53.76 204.35 55.41C202.38 59.43 200.06 63.42 199.03 67.7C198.31 70.66 201.58 72.88 203.33 75.23C208.49 82.18 208.59 82.27 216.79 79.38C219.58 78.4 223.26 79.43 225.13 76.91C228.25 72.72 231.81 69.07 235.75 65.71C237.58 64.15 237.75 62.89 235.29 61.67C226.81 57.47 217.53 56.24 209.03 54.24H209.04ZM106.18 102.45C106.25 100.31 105.57 100.04 102.3 100.84C88.63 104.2 76.23 110.55 63.94 117.12C62.73 117.77 60.86 118.33 61.27 120.28C62.15 124.54 65.32 127.46 68.1 130.39C69.94 132.32 72.46 130.18 74.34 129.28C80.4 126.36 85.98 121.54 92.3 120.33C102.58 118.36 107.23 113.74 105.81 103.35C105.77 103.08 106.06 102.76 106.19 102.46L106.18 102.45ZM102.66 178.93C107.98 176.63 113.14 174.75 117.95 172.21C121.15 170.52 123.41 166.97 123.01 163.63C122.67 160.81 119.38 163.92 117.51 163.1C117.25 162.99 117.07 162.69 116.8 162.42C117.25 159.85 119.09 158.09 120.69 156.21C122.92 153.58 124.35 150.64 124.37 147.15C124.38 145.23 125.33 142.51 123 141.82C120.52 141.08 119.95 143.99 119.32 145.64C115.55 155.49 110.71 164.7 104.27 173.09C103.2 174.48 101.96 176.02 102.66 178.93ZM119.45 348.02C117.83 347.06 122.16 344.25 118.08 343.35C115.89 342.87 113.94 341.4 111.79 340.61C110.76 340.23 104.53 346.18 104.5 347.37C104.46 348.97 110.39 354.66 112.19 354.47C114.63 354.21 117.16 353.89 119.36 352.93C119.94 352.68 119.45 349.97 119.45 348.03V348.02ZM45.23 149.23C45.21 146.33 41.93 142.55 39.36 142.47C37.41 142.41 30.82 148.15 31.65 149.38C33.39 151.96 33.13 156.44 36.94 157.01C41.6 157.7 45.27 153.84 45.24 149.23H45.23ZM27.14 274.82C26.83 269.09 23.26 264.98 19.29 265.51C15.9 265.96 13.63 268.29 13.23 271.68C12.94 274.16 17.94 279.23 19.92 278.5C22.54 277.53 26.54 278.33 27.14 274.83V274.82Z" fill="#9C9C9C"/>
<path d="M35.89 209.47C33.35 209.4 31.36 209.52 29.45 208.62C27.54 207.72 26.53 206.56 27.23 204.31C31.19 191.6 35.58 179.09 42.58 167.64C55.74 146.14 75.24 132.5 98.08 123.02C101.16 121.74 102.86 123.21 102.16 126.72C101.31 130.97 99.79 135.03 97.97 138.97C95.04 145.32 92.2 151.71 89.17 158.01C87.28 161.92 84.94 165.59 81.63 168.5C71.19 177.67 62.07 188.02 53.69 199.08C49.15 205.07 43.68 209.92 35.88 209.47H35.89Z" fill="#EBEAEB"/>
<path d="M185.94 144.62C188.64 146.41 189.02 149.12 189.93 151.5C190.98 154.25 192.62 155.02 195.37 153.53C205.6 147.99 214.14 141.39 213.75 128.08C213.63 124.13 216.31 122.98 219.23 125.69C225.09 131.13 230.76 136.78 236.21 142.62C238.84 145.44 238.69 148.68 235.37 151.29C233.8 152.52 232.24 153.78 230.68 155.03C228.6 156.7 226.96 156.88 225.54 154.08C224.51 152.04 223.06 149.52 220.41 150.12C217.9 150.69 218.94 153.46 218.7 155.31C218.48 157.03 218.05 158.56 216.65 159.7C214.45 161.49 212.39 163.48 210.05 165.05C199.74 171.96 199.84 171.76 190.05 164.03C184.79 159.88 178.59 158.67 171.79 159.63C160.67 161.19 149.66 161.49 138.7 157.61C133.93 155.92 132.94 153.58 133.6 149.2C135.18 138.74 138.47 128.99 145.44 120.84C150.25 115.22 152.42 108.93 151.59 101.58C151.44 100.26 151.53 98.91 151.59 97.58C151.63 96.46 152.18 95.67 153.38 95.58C155 95.45 155.29 96.52 155.33 97.81C155.44 102.11 155.99 106.43 156.14 110.68C156.45 119.18 160.7 125.69 166.09 131.13C171.11 136.19 172.97 143.23 178.31 147.95C179.45 148.96 178.98 151.73 179.34 153.67C179.72 155.69 179.45 158.78 182.6 158.14C185.32 157.58 186.91 155.13 186.41 152.11C186.01 149.73 185.03 147.42 185.95 144.62H185.94Z" fill="#EBEAEB"/>
<path d="M25.13 239.63C24.99 237.86 25.39 236.4 27.06 235.37C30.03 233.54 32.7 230.83 35.91 229.83C44.43 227.19 50.68 221.71 56.57 215.47C57.84 214.12 59.26 211.4 61.3 212.67C63.83 214.24 61.35 216.71 60.62 218.31C53.64 233.58 51.91 249.68 53.37 266.09C54.26 276.03 55.23 285.94 55.26 295.92C55.26 297.33 55.77 298.91 53.84 299.75C51.71 300.67 51.12 298.76 50.36 297.81C36.97 281.14 28.3 262.37 25.25 241.12C25.18 240.63 25.17 240.12 25.13 239.63Z" fill="#EBEAEB"/>
<path d="M69.45 202.36C71.87 197.02 76.11 194.8 79.83 192.1C81.69 190.75 83.1 191.39 84.28 193.41C90.14 203.4 97.56 212.27 106.73 219.19C120.74 229.77 133.66 242.21 151.09 247.54C153.16 248.17 155.35 249.38 155.45 251.83C155.56 254.45 153.06 255.21 151.17 256.16C141.48 261.02 130.55 261.31 120.37 264.39C118.15 265.06 115.89 265.36 113.55 265.51C109.21 265.79 107.44 263.89 108.52 259.91C110.94 251 108.9 242.67 105.24 234.71C101.11 225.73 97.7 216.37 90.19 209.16C85.3 204.47 80.47 201.2 73.47 202.34C72.36 202.52 71.2 202.37 69.45 202.37V202.36Z" fill="#EBEAEB"/>
<path d="M126.46 334.14C126.7 336.82 125.76 337.92 123.6 337.45C112.6 335.05 101.37 333.56 91.04 328.61C89.14 327.7 88.91 326.33 89.38 325.05C93.22 314.59 92.49 303.23 95.95 292.71C98.17 285.95 100.33 279.17 102.59 272.42C103.06 271.01 103.9 269.4 105.64 269.67C107.21 269.91 108.05 271.39 108.25 272.97C110.85 293.37 117.46 312.57 125.55 331.34C126.01 332.4 126.27 333.54 126.46 334.15V334.14Z" fill="#EBEAEB"/>
<path d="M43.4 298.43C44.92 298.37 45.91 299.29 46.8 300.29C57.07 311.9 69 321.33 83.02 328.08C85.04 329.05 86.18 330.94 85.23 333.04C83.74 336.36 81.98 339.59 79.97 342.62C78.82 344.36 76.96 343.46 75.48 342.6C65.82 336.99 56.43 330.95 48.21 323.33C43.71 319.16 39.62 314.54 35.3 310.18C32.35 307.21 32.64 304.7 36.15 302.48C38.5 300.99 40.29 298.52 43.41 298.42L43.4 298.43Z" fill="#EBEAEB"/>
<path d="M5.09999 222.65C4.33999 208.72 8.32999 195.17 12.06 181.56C12.79 178.9 14.32 178.24 16.79 178.34C20.42 178.49 23.49 180.18 26.61 181.69C28.37 182.54 28.75 184.12 27.95 185.93C21.89 199.7 19.58 214.11 20.3 229.09C20.41 231.35 21.53 234.46 18.33 235.63C14.36 237.09 10.14 236.88 6.04999 236.14C4.78999 235.91 5.11999 234.18 5.10999 233.05C5.07999 229.73 5.09999 226.4 5.09999 222.66V222.65Z" fill="#EBEAEB"/>
<path d="M157.1 354.83C153.88 355.16 152.41 353.4 151.74 350.65C151.39 349.2 151.31 347.66 150.85 346.25C149.41 341.91 151.35 340.09 155.47 339.47C167.77 337.64 179.5 334.12 190.15 327.49C192.24 326.19 194.71 325.26 196.38 323.55C199.89 319.96 202.08 321.64 204.23 324.85C204.42 325.13 204.63 325.39 204.82 325.66C210.48 333.44 210.25 333.8 201.82 338.34C189.46 344.99 176.52 350.05 162.95 353.57C161.02 354.07 159.05 354.41 157.1 354.83Z" fill="#EBEAEB"/>
<path d="M209.04 54.24C217.54 56.24 226.82 57.47 235.3 61.67C237.76 62.89 237.59 64.15 235.76 65.71C231.82 69.07 228.26 72.72 225.14 76.91C223.27 79.43 219.58 78.4 216.8 79.38C208.6 82.28 208.5 82.18 203.34 75.23C201.59 72.87 198.33 70.65 199.04 67.7C200.07 63.42 202.4 59.43 204.36 55.41C205.16 53.77 207.01 54.44 209.05 54.24H209.04Z" fill="#EBEAEB"/>
<path d="M106.18 102.45C106.04 102.75 105.76 103.07 105.8 103.34C107.22 113.73 102.57 118.35 92.29 120.32C85.97 121.53 80.38 126.36 74.33 129.27C72.45 130.18 69.93 132.31 68.09 130.38C65.31 127.45 62.14 124.53 61.26 120.27C60.86 118.32 62.72 117.76 63.93 117.11C76.23 110.54 88.63 104.19 102.29 100.83C105.56 100.03 106.24 100.3 106.18 102.45Z" fill="#EBEAEB"/>
<path d="M102.65 178.93C101.95 176.02 103.19 174.48 104.26 173.09C110.7 164.71 115.54 155.49 119.31 145.64C119.94 143.99 120.51 141.08 122.99 141.82C125.32 142.52 124.38 145.24 124.36 147.15C124.33 150.63 122.9 153.58 120.68 156.21C119.08 158.09 117.25 159.85 116.79 162.42C117.06 162.69 117.24 162.98 117.5 163.1C119.37 163.92 122.66 160.81 123 163.63C123.4 166.97 121.14 170.52 117.94 172.21C113.13 174.75 107.97 176.63 102.65 178.93Z" fill="#EBEAEB"/>
<path d="M119.44 348.02C119.44 349.96 119.93 352.67 119.35 352.92C117.15 353.88 114.62 354.2 112.18 354.46C110.37 354.65 104.45 348.96 104.49 347.36C104.52 346.17 110.74 340.22 111.78 340.6C113.92 341.4 115.88 342.86 118.07 343.34C122.16 344.24 117.82 347.06 119.44 348.01V348.02Z" fill="#EBEAEB"/>
<path d="M45.23 149.23C45.26 153.84 41.59 157.7 36.93 157.01C33.12 156.44 33.39 151.96 31.64 149.38C30.81 148.15 37.4 142.42 39.35 142.47C41.92 142.55 45.2 146.32 45.22 149.23H45.23Z" fill="#EBEAEB"/>
<path d="M27.14 274.82C26.55 278.32 22.54 277.52 19.92 278.49C17.94 279.23 12.94 274.16 13.23 271.67C13.63 268.28 15.89 265.96 19.29 265.5C23.26 264.97 26.83 269.07 27.14 274.81V274.82Z" fill="#EBEAEB"/>
</g>
<defs>
<clipPath id="clip0_26_2">
<rect width="264" height="362" fill="white"/>
</clipPath>
</defs>
</svg>
