<svg width="24" height="24" viewBox="0 0 24 24" fill="none" xmlns="http://www.w3.org/2000/svg"><path d="M8.924 7.773c-.115.449-.46.673-.921.786a33.82 33.82 0 00-4.606.561c-.806.112-1.151 1.123-.69 1.685.805.898 1.842 2.133 3.339 3.256.345.225.575.674.46 1.123-.23 1.01-.69 2.807-.921 4.604-.115.786.806 1.348 1.497 1.123 1.497-.561 3.685-1.572 4.836-2.47 1.151.898 3.454 1.796 4.836 2.47.806.337 1.612-.337 1.497-1.123-.115-1.797-.576-3.593-.921-4.604-.115-.45 0-.898.46-1.123 1.382-1.01 2.534-2.358 3.34-3.256.69-.562.345-1.46-.461-1.685-1.036-.225-2.648-.45-4.606-.561-.46 0-.806-.337-1.036-.674-.23-1.01-.921-2.695-1.958-4.38-.46-.673-1.497-.673-1.957 0C10.422 4.516 9.5 6.2 8.924 7.773z" fill="url(#paint0_linear)"/><defs><linearGradient id="paint0_linear" x1="22" y1="23.5" x2="14.251" y2="4.014" gradientUnits="userSpaceOnUse"><stop stop-color="#F90"/><stop offset="1" stop-color="#FFE767"/></linearGradient></defs></svg>