<svg width="16" height="11" viewBox="0 0 16 11" fill="none" xmlns="http://www.w3.org/2000/svg">
<path d="M0 9.73096C0.069 9.73596 0.138001 9.74495 0.207001 9.74495C4.549 9.74495 8.891 9.74495 13.233 9.74495H13.443C13.443 10.0159 13.464 10.27 13.437 10.517C13.411 10.758 13.262 10.9149 13.049 10.9709C12.964 10.9929 12.873 10.996 12.784 10.996C8.744 10.997 4.70499 10.995 0.664993 11C0.346993 11 0.116 10.884 0 10.537C0 10.268 0 9.99896 0 9.73096Z" fill="#B1B1B1"/>
<path d="M0 2.99896C0.118 2.65096 0.349007 2.53796 0.667007 2.53796C4.70701 2.54296 8.746 2.54197 12.786 2.54097C12.957 2.54097 13.134 2.53897 13.26 2.68597C13.339 2.77897 13.423 2.90296 13.436 3.02296C13.463 3.27096 13.444 3.52397 13.444 3.79697H13.234C8.89199 3.79697 4.549 3.79697 0.207001 3.79697C0.138001 3.79697 0.069 3.80397 0 3.80797V2.99896Z" fill="#B1B1B1"/>
<path d="M13.809 8.46002V5.21602C13.879 5.21102 13.942 5.20601 14.019 5.20001C14.022 5.15001 14.028 5.10502 14.028 5.05902C14.029 3.90002 14.028 2.74101 14.031 1.58201C14.031 1.49401 14 1.45102 13.91 1.41002C13.544 1.24102 13.377 0.90102 13.48 0.55702C13.574 0.23802 13.929 0.00101294 14.314 1.29409e-05C14.709 -0.00198706 15.051 0.228015 15.156 0.565015C15.258 0.897015 15.091 1.23802 14.732 1.40802C14.652 1.44602 14.611 1.48101 14.611 1.56701C14.615 2.74101 14.614 3.91402 14.615 5.08702C14.615 5.12402 14.622 5.16102 14.625 5.19502C15.045 5.28402 15.184 5.43801 15.184 5.80601C15.184 6.51101 15.185 7.21501 15.184 7.92001C15.184 8.25201 14.959 8.45301 14.579 8.45901C14.328 8.46401 14.077 8.46002 13.809 8.46002Z" fill="#B1B1B1"/>
<path d="M4.49199 4.25806H1.21698V8.87106H4.49199V4.25806Z" fill="#B1B1B1"/>
<path d="M8.49498 4.25806H5.58398V8.87106H8.49498V4.25806Z" fill="#B1B1B1"/>
<path d="M12.498 4.25806H9.58704V8.87106H12.498V4.25806Z" fill="#B1B1B1"/>
</svg>
