<svg width="36" height="24" viewBox="0 0 36 24" fill="none" xmlns="http://www.w3.org/2000/svg">
<path d="M0.000936022 21.1994C0.162868 21.2102 0.3248 21.2297 0.486731 21.2297C10.7137 21.2317 20.9407 21.2307 31.1667 21.2307H31.6619C31.6619 21.8217 31.7106 22.3745 31.6478 22.9127C31.5861 23.4381 31.2369 23.7796 30.7352 23.901C30.533 23.9499 30.3187 23.9557 30.11 23.9557C20.5953 23.9587 11.0806 23.9548 1.56596 23.9645C0.818083 23.9645 0.274254 23.7131 0 22.9567C0 22.3706 0 21.7845 0 21.1994H0.000936022Z" fill="#B1B1B1"/>
<path d="M0 6.53335C0.278021 5.77636 0.821895 5.52927 1.56984 5.53025C11.0853 5.54103 20.5998 5.53809 30.1152 5.53711C30.5168 5.53711 30.9343 5.53123 31.2311 5.85285C31.4174 6.05386 31.6149 6.32547 31.6458 6.5863C31.7094 7.1256 31.6645 7.67862 31.6645 8.27185H31.1693C20.9424 8.27185 10.7146 8.27186 0.487708 8.27284C0.324826 8.27284 0.162881 8.28755 0 8.29539V6.53433L0 6.53335Z" fill="#B1B1B1"/>
<path d="M32.5239 18.4306V11.3646C32.6882 11.3522 32.8381 11.3414 33.02 11.3282C33.0273 11.2207 33.0397 11.1215 33.0397 11.0223C33.0418 8.49698 33.0397 5.97244 33.048 3.44708C33.048 3.2553 32.9746 3.16189 32.7616 3.07178C31.8996 2.70311 31.5078 1.96244 31.7486 1.21351C31.9719 0.519144 32.8081 0.00332283 33.7147 1.62978e-05C34.645 -0.00329023 35.4502 0.496825 35.6962 1.2317C35.9381 1.95418 35.5432 2.69649 34.6987 3.06682C34.5106 3.14949 34.4124 3.22554 34.4134 3.41484C34.4238 5.97079 34.4217 8.52673 34.4238 11.0827C34.4238 11.1629 34.4393 11.243 34.4475 11.3174C35.4367 11.5125 35.7634 11.8473 35.7634 12.6483C35.7634 14.1842 35.7644 15.7193 35.7634 17.2551C35.7634 17.9768 35.2341 18.4157 34.338 18.4298C33.7467 18.4389 33.1555 18.4314 32.5249 18.4314L32.5239 18.4306Z" fill="#B1B1B1"/>
<path d="M10.5811 9.27679H2.86719V19.3265H10.5811V9.27679Z" fill="#B1B1B1"/>
<path d="M20.0102 9.27679H13.1533V19.3265H20.0102V9.27679Z" fill="#B1B1B1"/>
<path d="M29.4359 9.27679H22.5791V19.3265H29.4359V9.27679Z" fill="#B1B1B1"/>
</svg>
