<?xml version="1.0" encoding="UTF-8"?>
<!DOCTYPE svg PUBLIC "-//W3C//DTD SVG 1.1//EN" "http://www.w3.org/Graphics/SVG/1.1/DTD/svg11.dtd">
<svg xmlns="http://www.w3.org/2000/svg" version="1.1" width="1083px" height="1079px" style="shape-rendering:geometricPrecision; text-rendering:geometricPrecision; image-rendering:optimizeQuality; fill-rule:evenodd; clip-rule:evenodd" xmlns:xlink="http://www.w3.org/1999/xlink">
<g><path style="opacity:0.973" fill="#b0b1b0" d="M 500.5,-0.5 C 501.167,-0.5 501.833,-0.5 502.5,-0.5C 502.833,0.833333 503.167,0.833333 503.5,-0.5C 504.167,-0.5 504.833,-0.5 505.5,-0.5C 506.167,0.833333 506.833,0.833333 507.5,-0.5C 528.5,-0.5 549.5,-0.5 570.5,-0.5C 570.833,0.833333 571.167,0.833333 571.5,-0.5C 572.167,-0.5 572.833,-0.5 573.5,-0.5C 573.833,0.833333 574.167,0.833333 574.5,-0.5C 575.5,-0.5 576.5,-0.5 577.5,-0.5C 579.5,0.833333 581.5,0.833333 583.5,-0.5C 583.833,-0.5 584.167,-0.5 584.5,-0.5C 585.745,1.27951 587.245,1.61284 589,0.5C 590.473,0.903069 591.806,1.56974 593,2.5C 595.323,2.66924 597.656,2.00258 600,0.5C 601,1.5 602,2.5 603,3.5C 604.533,3.05634 606.033,2.723 607.5,2.5C 609.382,3.09326 611.215,3.75992 613,4.5C 616.104,3.90303 619.437,3.90303 623,4.5C 624.441,5.25978 625.941,5.92644 627.5,6.5C 628.967,6.277 630.467,5.94366 632,5.5C 632.667,6.16667 633.333,6.83333 634,7.5C 635.268,7.38419 636.602,7.05085 638,6.5C 640.718,7.99102 643.551,9.32436 646.5,10.5C 649.167,10.5 651.833,10.5 654.5,10.5C 656.642,11.6005 658.808,12.6005 661,13.5C 662.743,11.773 664.576,11.1064 666.5,11.5C 671.395,14.9433 676.562,17.2767 682,18.5C 682.492,19.549 682.326,20.549 681.5,21.5C 683.36,25.6228 684.693,29.9561 685.5,34.5C 685.167,35.1667 684.833,35.8333 684.5,36.5C 685.742,42.6278 687.409,48.6278 689.5,54.5C 689.167,55.1667 688.833,55.8333 688.5,56.5C 690.148,61.7582 691.481,67.0916 692.5,72.5C 692.291,73.086 691.957,73.586 691.5,74C 693.136,75.434 694.136,77.2674 694.5,79.5C 694.291,80.086 693.957,80.586 693.5,81C 695.535,88.0615 697.368,95.2282 699,102.5C 699.635,103.966 700.469,105.3 701.5,106.5C 701.151,109.802 701.151,112.969 701.5,116C 703.653,117.891 704.32,120.057 703.5,122.5C 704.195,125.28 705.195,127.947 706.5,130.5C 706.623,132.622 706.623,134.789 706.5,137C 707.926,139.045 708.926,141.212 709.5,143.5C 709.466,146.199 710.133,148.699 711.5,151C 711.043,151.414 710.709,151.914 710.5,152.5C 711.629,154.275 712.629,155.942 713.5,157.5C 713.587,159.963 713.587,162.463 713.5,165C 715.125,167.11 716.458,169.443 717.5,172C 717.063,175.555 718.063,178.889 720.5,182C 720.167,182.333 719.833,182.667 719.5,183C 720.264,185.069 720.764,187.236 721,189.5C 723.862,196.921 726.362,204.421 728.5,212C 727.978,214.289 728.645,216.456 730.5,218.5C 730.167,219.167 729.833,219.833 729.5,220.5C 736.782,244.994 744.448,268.661 752.5,291.5C 752.291,292.086 751.957,292.586 751.5,293C 753.704,297.719 755.704,302.552 757.5,307.5C 763.711,329.397 771.711,352.064 781.5,375.5C 783.292,383.201 785.959,390.867 789.5,398.5C 788.45,400.102 789.117,400.935 791.5,401C 791.043,401.414 790.709,401.914 790.5,402.5C 791.154,404.115 791.654,405.782 792,407.5C 795.454,416.231 799.287,425.564 803.5,435.5C 803.291,436.086 802.957,436.586 802.5,437C 804.261,441.818 806.928,446.485 810.5,451C 810.043,451.414 809.709,451.914 809.5,452.5C 812.217,456.819 814.051,461.485 815,466.5C 821.722,481.477 828.555,496.477 835.5,511.5C 817.805,531.049 798.972,548.715 779,564.5C 777.168,562.37 775.334,560.203 773.5,558C 773.833,557.667 774.167,557.333 774.5,557C 773.24,555.887 772.073,555.72 771,556.5C 770.316,555.216 770.483,554.049 771.5,553C 766.299,547.448 761.799,541.281 758,534.5C 757.667,534.833 757.333,535.167 757,535.5C 754.494,529.483 750.661,524.483 745.5,520.5C 742.528,515.908 739.528,511.242 736.5,506.5C 733.992,504.123 731.492,501.789 729,499.5C 729.167,495.667 727.333,493.833 723.5,494C 724.167,493.667 724.833,493.333 725.5,493C 723.667,491.167 721.833,489.333 720,487.5C 717.57,482.705 713.736,478.538 708.5,475C 709.451,474.282 709.617,473.449 709,472.5C 705.306,468.806 701.64,465.14 698,461.5C 697.383,460.551 697.549,459.718 698.5,459C 688.619,447.113 677.952,435.78 666.5,425C 666.833,424.667 667.167,424.333 667.5,424C 630.784,384.285 592.784,345.951 553.5,309C 536.634,295.127 520.468,280.627 505,265.5C 504.586,265.957 504.086,266.291 503.5,266.5C 499.5,262.5 495.5,258.5 491.5,254.5C 490.914,254.709 490.414,255.043 490,255.5C 486.5,252 483,248.5 479.5,245C 468.047,236.518 456.047,227.685 443.5,218.5C 441.741,216.118 439.741,213.952 437.5,212C 422.055,201.18 406.722,190.18 391.5,179C 386.529,176.519 382.029,173.352 378,169.5C 377.667,169.833 377.333,170.167 377,170.5C 366.826,163.179 356.66,156.012 346.5,149C 331.677,140.422 317.01,131.589 302.5,122.5C 292.887,117.303 283.22,112.303 273.5,107.5C 272.803,105.615 271.803,105.282 270.5,106.5C 267.505,103.897 264.338,101.564 261,99.5C 260.586,99.9574 260.086,100.291 259.5,100.5C 252.472,96.6539 245.472,92.8206 238.5,89C 241.887,86.533 245.054,83.6997 248,80.5C 249.566,81.0606 250.899,80.3939 252,78.5C 252.333,78.8333 252.667,79.1667 253,79.5C 254.995,77.8231 257.161,76.3231 259.5,75C 258.66,73.3335 259.16,73.1669 261,74.5C 268.15,69.9683 275.65,65.3016 283.5,60.5C 284.086,60.7093 284.586,61.0426 285,61.5C 288.862,58.5733 292.862,55.9066 297,53.5C 297.718,54.4506 298.551,54.6172 299.5,54C 301.478,51.7668 303.645,50.6001 306,50.5C 311.811,47.9283 317.144,45.2616 322,42.5C 322.333,42.8333 322.667,43.1667 323,43.5C 324.973,42.3601 326.807,41.0267 328.5,39.5C 329.086,39.7093 329.586,40.0426 330,40.5C 332.042,38.396 334.542,37.2293 337.5,37C 338.543,35.0244 339.877,34.5244 341.5,35.5C 343.258,34.8721 344.758,33.8721 346,32.5C 346.414,32.9574 346.914,33.2907 347.5,33.5C 352.074,31.6288 356.574,29.6288 361,27.5C 362.667,27.5 364.333,27.5 366,27.5C 373.796,23.6693 381.962,20.6693 390.5,18.5C 391.086,18.7093 391.586,19.0426 392,19.5C 393.46,17.5776 395.127,16.9109 397,17.5C 398,16.8333 399,16.1667 400,15.5C 402.089,15.7451 404.089,15.7451 406,15.5C 410.373,13.1285 414.873,12.1285 419.5,12.5C 420.705,10.8624 422.038,10.5291 423.5,11.5C 426.046,10.3437 428.546,9.34366 431,8.5C 432.583,8.49296 434.249,8.8263 436,9.5C 437.079,7.6063 438.413,7.27297 440,8.5C 442.533,7.12764 445.2,6.12764 448,5.5C 448.333,5.83333 448.667,6.16667 449,6.5C 451.069,5.73622 453.236,5.23622 455.5,5C 456,4.5 456.5,4 457,3.5C 459.333,3.83333 461.667,4.16667 464,4.5C 465.333,3.83333 466.667,3.16667 468,2.5C 473.333,1.16667 478.667,1.16667 484,2.5C 484.689,1.64332 485.522,0.97665 486.5,0.5C 489.281,0.960138 492.115,1.29347 495,1.5C 496.948,0.890644 498.782,0.223978 500.5,-0.5 Z"/></g>
<g><path style="opacity:0.967" fill="#b0b1b0" d="M 896.5,444.5 C 895.833,444.5 895.5,444.833 895.5,445.5C 894.833,445.5 894.5,445.833 894.5,446.5C 893.833,446.5 893.5,446.833 893.5,447.5C 892.833,447.5 892.5,447.833 892.5,448.5C 891.167,448.833 891.167,449.167 892.5,449.5C 886.898,456.275 881.065,462.942 875,469.5C 874.383,470.449 874.549,471.282 875.5,472C 869.5,476.667 864.167,482 859.5,488C 858.451,488.492 857.451,488.326 856.5,487.5C 852.786,479.221 848.786,470.721 844.5,462C 844.833,461.667 845.167,461.333 845.5,461C 842.049,456.025 839.382,451.025 837.5,446C 838.089,444.127 837.422,442.46 835.5,441C 835.833,440.667 836.167,440.333 836.5,440C 832.459,431.311 828.459,422.644 824.5,414C 825.634,412.984 825.301,412.317 823.5,412C 823.5,410 823.5,408 823.5,406C 822.167,403.667 820.833,401.333 819.5,399C 819.833,398.667 820.167,398.333 820.5,398C 818.096,397.492 817.429,396.325 818.5,394.5C 803.366,356.378 790.032,317.878 778.5,279C 777.782,277.013 776.782,275.179 775.5,273.5C 776.718,272.197 776.385,271.197 774.5,270.5C 774.709,269.914 775.043,269.414 775.5,269C 769.702,253.757 764.535,237.59 760,220.5C 757.799,218.634 757.299,216.468 758.5,214C 756.551,209.391 754.884,204.891 753.5,200.5C 753.833,199.833 754.167,199.167 754.5,198.5C 751.266,188.99 748.433,179.656 746,170.5C 745.365,169.034 744.531,167.7 743.5,166.5C 744.281,163.279 743.614,160.279 741.5,157.5C 741.5,155.167 741.5,152.833 741.5,150.5C 739.363,148.764 738.696,146.764 739.5,144.5C 738.368,140.437 737.035,136.437 735.5,132.5C 735.709,131.914 736.043,131.414 736.5,131C 734.397,125.352 732.897,119.519 732,113.5C 731.5,113 731,112.5 730.5,112C 730.327,109.74 730.327,107.407 730.5,105C 728.32,98.6449 726.32,92.1449 724.5,85.5C 724.985,83.2229 724.319,81.0563 722.5,79C 722.957,78.586 723.291,78.086 723.5,77.5C 722.112,69.9419 720.112,62.6086 717.5,55.5C 717.931,54.7065 718.265,53.8732 718.5,53C 717.279,50.2944 716.279,47.6277 715.5,45C 715.616,43.7318 715.949,42.3985 716.5,41C 715.491,36.6871 714.491,32.1871 713.5,27.5C 715.39,27.2965 716.89,27.9632 718,29.5C 719.388,28.4464 720.888,28.2797 722.5,29C 751.178,39.5221 778.178,52.1887 803.5,67C 818.725,75.7725 833.725,84.7725 848.5,94C 850.667,95.5 852.5,97.3333 854,99.5C 854.333,98.8333 854.667,98.1667 855,97.5C 859.992,102.323 865.158,106.99 870.5,111.5C 872.164,110.777 873.831,111.11 875.5,112.5C 908.097,144.719 940.597,177.053 973,209.5C 974.577,211.901 975.411,214.234 975.5,216.5C 979.238,221.534 983.405,226.201 988,230.5C 988.617,231.449 988.451,232.282 987.5,233C 993.173,236.682 995.007,241.849 993,248.5C 989.392,268.542 983.892,288.542 976.5,308.5C 976.709,309.086 977.043,309.586 977.5,310C 974.56,312.363 973.227,315.196 973.5,318.5C 972.289,320.422 970.956,322.255 969.5,324C 969.957,324.414 970.291,324.914 970.5,325.5C 965.964,332.333 962.964,339.166 961.5,346C 958.63,352.306 954.63,358.306 949.5,364C 949.957,364.414 950.291,364.914 950.5,365.5C 946.172,370.139 943.006,375.472 941,381.5C 938.686,385.081 936.019,388.415 933,391.5C 933.958,393.787 933.124,395.453 930.5,396.5C 926.167,404.764 920.5,412.597 913.5,420C 914.451,420.718 914.617,421.551 914,422.5C 911.833,424.667 909.667,426.833 907.5,429C 907.833,429.333 908.167,429.667 908.5,430C 904.318,434.682 900.318,439.515 896.5,444.5 Z"/></g>
<g><path style="opacity:0.004" fill="#b0b1b0" d="M 759.5,42.5 C 760.833,43.1667 760.833,43.1667 759.5,42.5 Z"/></g>
<g><path style="opacity:0.978" fill="#b0b1b0" d="M 276.5,143.5 C 279.668,146.057 283.002,147.557 286.5,148C 286.167,148.333 285.833,148.667 285.5,149C 316.386,165.231 346.72,184.398 376.5,206.5C 383.675,210.326 390.342,214.993 396.5,220.5C 412.222,230.566 427.722,242.233 443,255.5C 443.414,255.043 443.914,254.709 444.5,254.5C 450.305,260.004 456.305,265.337 462.5,270.5C 463.795,271.098 465.128,271.598 466.5,272C 471.889,277.725 477.555,283.058 483.5,288C 511.934,310.721 538.934,335.055 564.5,361C 565.5,361.333 566.5,361.667 567.5,362C 599.102,393.409 629.102,425.575 657.5,458.5C 668.99,471.459 680.49,484.459 692,497.5C 692.617,498.449 692.451,499.282 691.5,500C 698.166,507.287 704.833,514.62 711.5,522C 712.19,524.787 714.023,527.287 717,529.5C 718.693,533.521 721.36,536.854 725,539.5C 725.333,540.833 725.667,542.167 726,543.5C 727.848,545.679 730.015,547.513 732.5,549C 731.549,549.718 731.383,550.551 732,551.5C 735.447,555.326 738.781,559.326 742,563.5C 745.675,569.173 749.342,574.839 753,580.5C 753.333,580.167 753.667,579.833 754,579.5C 756.425,582.882 755.925,585.715 752.5,588C 749.829,589.25 747.663,591.083 746,593.5C 745.667,593.167 745.333,592.833 745,592.5C 739.892,596.605 735.058,601.105 730.5,606C 729.551,606.617 728.718,606.451 728,605.5C 720.531,613.722 712.198,620.055 703,624.5C 702.517,625.448 702.351,626.448 702.5,627.5C 698.322,628.145 694.989,630.312 692.5,634C 691,634.5 689.5,635 688,635.5C 675.264,622.761 662.264,610.428 649,598.5C 648.667,598.833 648.333,599.167 648,599.5C 646.833,598 645.667,596.5 644.5,595C 641.102,593.444 638.102,591.277 635.5,588.5C 634.893,588.624 634.56,588.957 634.5,589.5C 630.241,585.572 625.741,581.906 621,578.5C 620.667,578.833 620.333,579.167 620,579.5C 595.345,562.921 569.178,549.088 541.5,538C 540.457,536.024 539.123,535.524 537.5,536.5C 525.407,531.432 512.574,526.098 499,520.5C 498.586,520.957 498.086,521.291 497.5,521.5C 496.023,519.18 494.19,517.847 492,517.5C 491.586,517.957 491.086,518.291 490.5,518.5C 486.5,516.833 482.5,515.167 478.5,513.5C 477.914,513.709 477.414,514.043 477,514.5C 474.111,512.737 470.945,511.404 467.5,510.5C 466.158,511.902 465.324,511.569 465,509.5C 464.667,509.833 464.333,510.167 464,510.5C 460.906,509.038 457.739,507.704 454.5,506.5C 453.914,506.709 453.414,507.043 453,507.5C 451.493,505.992 449.827,504.659 448,503.5C 445.073,504.042 442.24,503.375 439.5,501.5C 438.914,501.709 438.414,502.043 438,502.5C 434.906,501.038 431.739,499.704 428.5,498.5C 427.914,498.709 427.414,499.043 427,499.5C 424.482,497.536 421.816,496.87 419,497.5C 413.48,494.868 407.814,493.534 402,493.5C 400.088,492.308 398.088,491.308 396,490.5C 393.333,490.5 390.667,490.5 388,490.5C 385.667,489.5 383.333,488.5 381,487.5C 378.814,486.978 376.481,486.978 374,487.5C 371.482,485.536 368.816,484.87 366,485.5C 362.105,483.517 358.105,482.851 354,483.5C 352.088,482.308 350.088,481.308 348,480.5C 345.544,480.377 343.044,480.377 340.5,480.5C 338.598,478.849 336.598,478.516 334.5,479.5C 333.808,478.975 333.308,478.308 333,477.5C 331.732,477.616 330.398,477.949 329,478.5C 327.042,477.048 325.042,476.715 323,477.5C 321.559,476.74 320.059,476.074 318.5,475.5C 315.966,475.566 313.466,475.566 311,475.5C 303.733,474.053 296.4,472.387 289,470.5C 286.22,471.845 283.387,471.512 280.5,469.5C 276.455,468.747 272.622,468.747 269,469.5C 267.806,468.57 266.473,467.903 265,467.5C 261.818,468.705 258.652,468.372 255.5,466.5C 254.914,466.709 254.414,467.043 254,467.5C 246.551,465.606 239.218,464.273 232,463.5C 229.958,464.285 227.958,463.952 226,462.5C 223.273,463.188 220.606,463.522 218,463.5C 216.441,462.971 214.941,462.304 213.5,461.5C 207.2,460.534 201.033,460.534 195,461.5C 193.915,460.707 192.748,460.04 191.5,459.5C 189.722,459.569 187.889,459.903 186,460.5C 182.384,459.762 178.718,459.096 175,458.5C 171.287,458.841 167.287,459.175 163,459.5C 162.667,458.833 162.333,458.167 162,457.5C 159.28,457.635 156.614,457.968 154,458.5C 149.531,458.022 145.198,457.022 141,455.5C 134.667,455.833 128.333,456.167 122,456.5C 120.667,455.833 119.333,455.167 118,454.5C 107.793,455.386 97.4598,455.719 87,455.5C 85.6739,455.245 84.6739,454.578 84,453.5C 58.1214,454.59 32.2881,454.59 6.5,453.5C 5.2519,454.04 4.08524,454.707 3,455.5C 1.88732,454.695 0.72065,454.028 -0.5,453.5C -0.5,450.833 -0.5,448.167 -0.5,445.5C 1.03142,435.759 3.36476,425.592 6.5,415C 6.04265,414.586 5.70931,414.086 5.5,413.5C 7.56396,407.008 9.56396,400.508 11.5,394C 11.152,391.945 11.8186,389.945 13.5,388C 13.0426,387.586 12.7093,387.086 12.5,386.5C 15.3885,381.286 17.2218,375.619 18,369.5C 21.0656,365.292 23.5656,360.792 25.5,356C 25.0426,355.586 24.7093,355.086 24.5,354.5C 27.2784,348.702 29.9451,343.202 32.5,338C 31.5004,335.909 32.1671,334.243 34.5,333C 33.9781,332.439 33.6448,331.772 33.5,331C 36.0325,327.305 38.1991,323.472 40,319.5C 42.3847,310.593 46.5514,302.093 52.5,294C 53.0838,290.215 55.0838,286.882 58.5,284C 57.5494,283.282 57.3828,282.449 58,281.5C 60.8333,277.333 63.6667,273.167 66.5,269C 66.0426,268.586 65.7093,268.086 65.5,267.5C 67.9607,263.797 70.9607,259.964 74.5,256C 74.1667,255.667 73.8333,255.333 73.5,255C 76.5,251.333 79.5,247.667 82.5,244C 81.7203,242.927 81.887,241.76 83,240.5C 85.7969,236.701 88.9636,233.201 92.5,230C 91.5494,229.282 91.3828,228.449 92,227.5C 98.6211,219.227 105.621,210.894 113,202.5C 113.333,201.167 113.667,199.833 114,198.5C 139.221,173.279 164.387,148.113 189.5,123C 190.449,122.383 191.282,122.549 192,123.5C 196.913,117.076 203.079,112.409 210.5,109.5C 211.519,110.687 212.686,111.687 214,112.5C 214.333,112.167 214.667,111.833 215,111.5C 217.26,112.673 219.426,114.006 221.5,115.5C 222.965,114.391 223.965,114.891 224.5,117C 234.424,121.875 243.924,126.709 253,131.5C 260.964,135.31 268.797,139.31 276.5,143.5 Z"/></g>
<g><path style="opacity:0.004" fill="#b0b1b0" d="M 709.5,143.5 C 709.369,142.761 709.536,142.094 710,141.5C 710.692,142.437 710.525,143.103 709.5,143.5 Z"/></g>
<g><path style="opacity:0.004" fill="#b0b1b0" d="M 276.5,142.5 C 277.833,143.167 277.833,143.167 276.5,142.5 Z"/></g>
<g><path style="opacity:0.004" fill="#b0b1b0" d="M 344.5,149.5 C 345.833,150.167 345.833,150.167 344.5,149.5 Z"/></g>
<g><path style="opacity:0.004" fill="#b0b1b0" d="M 312.5,162.5 C 313.833,163.167 313.833,163.167 312.5,162.5 Z"/></g>
<g><path style="opacity:0.004" fill="#b0b1b0" d="M 470.5,240.5 C 471.833,241.167 471.833,241.167 470.5,240.5 Z"/></g>
<g><path style="opacity:0.962" fill="#b0b1b0" d="M 1082.5,475.5 C 1082.5,522.833 1082.5,570.167 1082.5,617.5C 1081.71,617.783 1081.04,618.283 1080.5,619C 1080.55,622.199 1080.55,625.366 1080.5,628.5C 1078.95,635.115 1077.62,641.782 1076.5,648.5C 1066.28,645.014 1056.28,641.681 1046.5,638.5C 1045.91,638.709 1045.41,639.043 1045,639.5C 1043.59,637.586 1041.75,636.253 1039.5,635.5C 1037.93,635.694 1036.43,635.694 1035,635.5C 1034.68,633.699 1034.02,633.366 1033,634.5C 1027.13,631.681 1021.46,629.348 1016,627.5C 1015.68,625.699 1015.02,625.366 1014,626.5C 1011.45,625.807 1009.28,624.473 1007.5,622.5C 1005.68,623.429 1004.34,622.762 1003.5,620.5C 961.272,602.399 923.605,576.732 890.5,543.5C 885.317,536.387 879.483,529.387 873,522.5C 871.85,520.246 871.516,517.913 872,515.5C 878.307,509.528 884.64,503.528 891,497.5C 895.01,490.479 900.177,484.312 906.5,479C 906.167,478.667 905.833,478.333 905.5,478C 913.412,470.79 919.912,462.624 925,453.5C 931.246,446.046 937.412,438.546 943.5,431C 943.167,430.667 942.833,430.333 942.5,430C 945.167,426.667 947.833,423.333 950.5,420C 950.167,419.667 949.833,419.333 949.5,419C 952.993,415.002 956.326,410.835 959.5,406.5C 959.291,405.914 958.957,405.414 958.5,405C 960,403.5 961.5,402 963,400.5C 965,397.167 967,393.833 969,390.5C 970.787,386.423 972.954,382.59 975.5,379C 975.167,378.667 974.833,378.333 974.5,378C 976.822,375.039 979.155,372.039 981.5,369C 981.043,368.586 980.709,368.086 980.5,367.5C 983.206,364.759 984.706,361.759 985,358.5C 986.955,356.089 988.789,353.589 990.5,351C 989.742,349.636 990.242,348.469 992,347.5C 995.907,335.599 1000.74,324.099 1006.5,313C 1006.04,312.586 1005.71,312.086 1005.5,311.5C 1009.23,305.116 1011.39,298.449 1012,291.5C 1014.47,289.168 1014.97,286.668 1013.5,284C 1014.35,282.978 1015.35,282.145 1016.5,281.5C 1018.5,282.833 1020.5,284.167 1022.5,285.5C 1022.29,286.086 1021.96,286.586 1021.5,287C 1032.39,303.936 1041.39,322.436 1048.5,342.5C 1048.39,343.442 1048.06,344.275 1047.5,345C 1049.39,346.079 1049.73,347.413 1048.5,349C 1050.39,350.101 1051.06,351.434 1050.5,353C 1052.12,353.853 1052.46,354.853 1051.5,356C 1053.09,359.504 1054.76,363.004 1056.5,366.5C 1056.31,368.07 1056.31,369.57 1056.5,371C 1058.17,373.952 1059.83,376.952 1061.5,380C 1061.17,380.333 1060.83,380.667 1060.5,381C 1062.82,386.852 1064.82,392.852 1066.5,399C 1067.61,404.779 1069.28,410.779 1071.5,417C 1070.08,418.412 1070.24,419.579 1072,420.5C 1072.68,425.234 1073.68,429.9 1075,434.5C 1075.65,433.304 1076.15,433.304 1076.5,434.5C 1074.39,437.257 1074.39,439.757 1076.5,442C 1077.72,451.251 1079.39,460.418 1081.5,469.5C 1080.55,471.661 1080.88,473.661 1082.5,475.5 Z"/></g>
<g><path style="opacity:0.004" fill="#b0b1b0" d="M 896.5,444.5 C 897.833,445.167 897.833,445.167 896.5,444.5 Z"/></g>
<g><path style="opacity:0.004" fill="#b0b1b0" d="M 895.5,445.5 C 895.833,445.5 896.167,445.5 896.5,445.5C 896.315,446.17 895.981,446.17 895.5,445.5 Z"/></g>
<g><path style="opacity:0.004" fill="#b0b1b0" d="M 894.5,446.5 C 894.833,446.5 895.167,446.5 895.5,446.5C 895.315,447.17 894.981,447.17 894.5,446.5 Z"/></g>
<g><path style="opacity:0.004" fill="#b0b1b0" d="M 893.5,447.5 C 893.833,447.5 894.167,447.5 894.5,447.5C 894.315,448.17 893.981,448.17 893.5,447.5 Z"/></g>
<g><path style="opacity:0.004" fill="#b0b1b0" d="M 892.5,448.5 C 892.833,448.5 893.167,448.5 893.5,448.5C 893.315,449.17 892.981,449.17 892.5,448.5 Z"/></g>
<g><path style="opacity:0.004" fill="#b0b1b0" d="M 226.5,464.5 C 227.833,465.167 227.833,465.167 226.5,464.5 Z"/></g>
<g><path style="opacity:0.982" fill="#b0b1b0" d="M 585.5,705.5 C 585.167,704.167 584.833,704.167 584.5,705.5C 581.755,706.737 579.422,708.57 577.5,711C 575.015,710.377 573.015,711.377 571.5,714C 567.103,715.617 563.269,718.117 560,721.5C 559.282,720.549 558.449,720.383 557.5,721C 550.86,725.571 544.36,729.738 538,733.5C 537.667,733.167 537.333,732.833 537,732.5C 534.276,735.349 531.276,737.016 528,737.5C 525.943,740.014 523.61,741.347 521,741.5C 518.743,743.046 516.576,744.712 514.5,746.5C 513.914,746.291 513.414,745.957 513,745.5C 510.789,748.575 508.122,750.242 505,750.5C 503.045,751.453 501.378,752.787 500,754.5C 499.282,753.549 498.449,753.383 497.5,754C 495.241,755.715 493.074,757.548 491,759.5C 490.586,759.043 490.086,758.709 489.5,758.5C 487.851,759.648 486.351,760.981 485,762.5C 484.667,762.167 484.333,761.833 484,761.5C 476.555,765.404 469.555,769.404 463,773.5C 462.667,773.167 462.333,772.833 462,772.5C 460.333,773.833 458.667,775.167 457,776.5C 454.601,776.028 452.601,777.028 451,779.5C 450.586,779.043 450.086,778.709 449.5,778.5C 441.547,781.46 433.714,785.46 426,790.5C 425.667,790.167 425.333,789.833 425,789.5C 423.173,790.659 421.507,791.992 420,793.5C 419.586,793.043 419.086,792.709 418.5,792.5C 416.807,794.027 414.973,795.36 413,796.5C 410.601,796.028 408.601,797.028 407,799.5C 402.551,799.478 398.551,801.145 395,804.5C 394.586,804.043 394.086,803.709 393.5,803.5C 389.714,805.036 386.214,807.036 383,809.5C 381.475,809.888 379.808,809.888 378,809.5C 375.667,811.167 373.333,812.833 371,814.5C 369.333,814.5 367.667,814.5 366,814.5C 360.667,817.167 355.333,819.833 350,822.5C 347.816,821.892 345.816,822.559 344,824.5C 342.127,823.911 340.46,824.578 339,826.5C 338.667,826.167 338.333,825.833 338,825.5C 334.43,826.723 331.097,828.39 328,830.5C 327.586,830.043 327.086,829.709 326.5,829.5C 323.147,830.798 319.98,832.465 317,834.5C 315.413,833.273 314.079,833.606 313,835.5C 311.333,835.5 309.667,835.5 308,835.5C 306.055,837.181 304.055,837.848 302,837.5C 299.227,838.926 296.393,840.26 293.5,841.5C 292.914,841.291 292.414,840.957 292,840.5C 287.47,842.896 282.803,844.896 278,846.5C 276.192,846.112 274.525,846.112 273,846.5C 271.333,847.5 269.667,848.5 268,849.5C 266.333,849.5 264.667,849.5 263,849.5C 261.108,850.13 259.441,851.13 258,852.5C 257.667,852.167 257.333,851.833 257,851.5C 253.901,852.455 250.734,853.289 247.5,854C 246.069,854.465 244.903,855.299 244,856.5C 240.921,855 237.921,855.666 235,858.5C 233.602,857.949 232.268,857.616 231,857.5C 224.795,858.245 218.795,860.245 213,863.5C 211.602,862.949 210.268,862.616 209,862.5C 207.333,863.5 205.667,864.5 204,865.5C 201.266,865.367 198.599,865.367 196,865.5C 191.696,866.812 187.363,868.146 183,869.5C 181.467,869.056 179.967,868.723 178.5,868.5C 169.424,870.249 160.257,872.249 151,874.5C 144.655,874.895 138.322,874.895 132,874.5C 131,875.167 130,875.833 129,876.5C 126.115,876.293 123.281,875.96 120.5,875.5C 118.684,877.441 116.684,878.108 114.5,877.5C 109.951,875.127 106.118,871.794 103,867.5C 94.7087,854.813 86.2087,842.813 77.5,831.5C 77.7093,830.914 78.0426,830.414 78.5,830C 76.2232,828.387 74.7232,826.22 74,823.5C 72.786,821.951 71.286,820.785 69.5,820C 70.1667,819.667 70.8333,819.333 71.5,819C 62.4234,805.294 54.7568,791.46 48.5,777.5C 45.4077,771.114 42.0743,764.448 38.5,757.5C 38.7093,756.914 39.0426,756.414 39.5,756C 36.6871,751.357 34.0204,746.69 31.5,742C 31.1119,740.475 31.1119,738.808 31.5,737C 29.9822,733.608 28.3155,730.275 26.5,727C 26.8333,726.667 27.1667,726.333 27.5,726C 23.7766,719.527 21.4433,712.861 20.5,706C 18.1295,703.326 16.9628,700.159 17,696.5C 14.6966,695.256 14.1966,693.589 15.5,691.5C 11.5495,680.212 8.21617,669.045 5.5,658C 5.6448,657.228 5.97814,656.561 6.5,656C 6.02331,653.101 5.02331,650.434 3.5,648C 3.83333,647.667 4.16667,647.333 4.5,647C 2.96643,639.71 1.29977,632.543 -0.5,625.5C -0.5,578.167 -0.5,530.833 -0.5,483.5C 8.05066,482.602 16.7173,482.602 25.5,483.5C 27.374,483.61 28.874,482.944 30,481.5C 41.3333,481.5 52.6667,481.5 64,481.5C 65.4411,482.26 66.9411,482.926 68.5,483.5C 80.3655,483.213 92.1989,482.879 104,482.5C 106.333,483.167 108.667,483.833 111,484.5C 118.484,484.345 126.151,484.012 134,483.5C 135.441,484.26 136.941,484.926 138.5,485.5C 142.034,485.207 145.867,484.874 150,484.5C 153.139,485.079 156.139,486.079 159,487.5C 163.416,487.336 167.583,487.003 171.5,486.5C 172.833,487.167 174.167,487.833 175.5,488.5C 178.545,487.802 181.545,487.468 184.5,487.5C 185.748,488.04 186.915,488.707 188,489.5C 194.98,489.156 202.146,489.156 209.5,489.5C 212.641,491.278 215.808,491.611 219,490.5C 223.263,491.404 227.763,492.404 232.5,493.5C 237.247,493.809 242.08,493.809 247,493.5C 248,494.167 249,494.833 250,495.5C 252.683,495.511 255.35,495.511 258,495.5C 259.559,496.029 261.059,496.696 262.5,497.5C 265.487,496.272 268.487,496.605 271.5,498.5C 274.487,497.272 277.487,497.605 280.5,499.5C 284.227,500.298 288.06,500.298 292,499.5C 293.67,501.698 295.67,502.032 298,500.5C 299.912,501.692 301.912,502.692 304,503.5C 306.537,503.413 309.037,503.413 311.5,503.5C 312.833,504.167 314.167,504.833 315.5,505.5C 319.411,506.742 323.244,506.742 327,505.5C 327.333,506.167 327.667,506.833 328,507.5C 329.716,507.589 331.549,507.256 333.5,506.5C 335.122,508.439 336.956,508.772 339,507.5C 339.333,508.167 339.667,508.833 340,509.5C 342.13,509.587 344.297,509.587 346.5,509.5C 348.811,510.214 350.978,511.214 353,512.5C 355.537,512.413 358.037,512.413 360.5,512.5C 362.402,514.151 364.402,514.484 366.5,513.5C 368.751,514.695 371.085,515.695 373.5,516.5C 375.898,516.899 378.398,516.899 381,516.5C 383.773,517.926 386.607,519.26 389.5,520.5C 390.086,520.291 390.586,519.957 391,519.5C 397.898,521.476 405.065,523.476 412.5,525.5C 413.086,525.291 413.586,524.957 414,524.5C 416.964,526.882 420.13,527.882 423.5,527.5C 427.033,528.375 430.366,529.708 433.5,531.5C 434.086,531.291 434.586,530.957 435,530.5C 440.687,533.212 446.353,535.212 452,536.5C 453.646,534.859 454.646,535.193 455,537.5C 482.91,545.704 511.744,556.204 541.5,569C 544.173,570.001 546.507,571.501 548.5,573.5C 550.329,572.718 551.829,573.384 553,575.5C 554.503,575.165 555.836,575.165 557,575.5C 564.98,580.134 572.98,584.801 581,589.5C 581.333,589.167 581.667,588.833 582,588.5C 582.374,589.416 582.874,590.25 583.5,591C 607.085,603.761 628.751,618.928 648.5,636.5C 653.182,641.015 657.682,645.681 662,650.5C 662.5,651.5 663,652.5 663.5,653.5C 659.945,656.302 656.612,659.302 653.5,662.5C 652.914,662.291 652.414,661.957 652,661.5C 645.601,667.581 638.435,672.415 630.5,676C 627.37,678.128 624.537,680.628 622,683.5C 621.282,682.549 620.449,682.383 619.5,683C 614.3,687.643 608.8,691.143 603,693.5C 600.943,696.014 598.61,697.347 596,697.5C 592.74,700.54 589.24,703.206 585.5,705.5 Z"/></g>
<g><path style="opacity:0.955" fill="#b0b1b0" d="M 1058.5,719.5 C 1057.17,719.833 1057.17,720.167 1058.5,720.5C 1055.76,726.573 1053.59,733.239 1052,740.5C 1049.57,746.522 1046.74,752.355 1043.5,758C 1043.96,758.414 1044.29,758.914 1044.5,759.5C 1039.52,768.464 1035.19,777.297 1031.5,786C 1031.83,786.333 1032.17,786.667 1032.5,787C 1029.63,793.306 1025.63,799.306 1020.5,805C 1020.96,805.414 1021.29,805.914 1021.5,806.5C 1018.29,810.915 1015.29,815.415 1012.5,820C 1012.96,820.414 1013.29,820.914 1013.5,821.5C 1010.72,823.675 1008.55,826.342 1007,829.5C 1007.25,832.357 1005.92,834.691 1003,836.5C 997.717,845.397 991.883,854.397 985.5,863.5C 981.167,869.5 976.833,875.5 972.5,881.5C 972.167,880.167 971.833,880.167 971.5,881.5C 970.167,881.833 970.167,882.167 971.5,882.5C 962.069,896.613 950.736,909.279 937.5,920.5C 934.222,918.937 933.555,916.604 935.5,913.5C 934.46,907.812 933.46,902.479 932.5,897.5C 930.406,881.179 926.739,865.346 921.5,850C 921.848,847.945 921.181,845.945 919.5,844C 919.957,843.586 920.291,843.086 920.5,842.5C 903,785.891 879.667,731.557 850.5,679.5C 850.709,678.914 851.043,678.414 851.5,678C 848.844,676.997 847.844,675.33 848.5,673C 847.167,672 845.833,671 844.5,670C 844.833,669.667 845.167,669.333 845.5,669C 838.59,658.064 831.924,646.564 825.5,634.5C 824.008,632.844 822.342,631.344 820.5,630C 820.833,629.667 821.167,629.333 821.5,629C 819.133,625.773 817.133,622.273 815.5,618.5C 809.219,609.145 803.053,600.145 797,591.5C 796.685,590.092 797.018,588.759 798,587.5C 802.667,582.833 807.333,578.167 812,573.5C 813.073,574.28 814.24,574.113 815.5,573C 825.776,561.723 836.443,550.723 847.5,540C 848.899,539.405 850.232,539.572 851.5,540.5C 861.488,554.334 872.821,567.167 885.5,579C 891.093,582.589 896.093,586.922 900.5,592C 911.613,599.446 922.446,607.279 933,615.5C 933.414,615.043 933.914,614.709 934.5,614.5C 937.877,618.084 941.71,621.084 946,623.5C 946.333,623.167 946.667,622.833 947,622.5C 956.889,628.774 966.889,634.774 977,640.5C 978.016,639.366 978.683,639.699 979,641.5C 991.901,646.606 1003.73,651.94 1014.5,657.5C 1015.09,657.291 1015.59,656.957 1016,656.5C 1018.61,657.779 1020.95,659.445 1023,661.5C 1024.53,661.888 1026.19,661.888 1028,661.5C 1028.32,663.301 1028.98,663.634 1030,662.5C 1043.22,668.596 1056.05,673.096 1068.5,676C 1069.57,676.739 1070.24,677.739 1070.5,679C 1067.62,690.112 1064.28,701.445 1060.5,713C 1060.83,713.333 1061.17,713.667 1061.5,714C 1059.85,715.462 1058.85,717.295 1058.5,719.5 Z"/></g>
<g><path style="opacity:0.004" fill="#b0b1b0" d="M 634.5,589.5 C 635.833,590.167 635.833,590.167 634.5,589.5 Z"/></g>
<g><path style="opacity:0.964" fill="#b0b1b0" d="M 873.5,980.5 C 873.167,979.167 872.833,979.167 872.5,980.5C 871.833,980.5 871.5,980.833 871.5,981.5C 870.5,981.833 869.833,982.5 869.5,983.5C 864.736,987.614 859.736,991.28 854.5,994.5C 847.679,999.13 840.679,1003.63 833.5,1008C 832,1009.5 830.5,1011 829,1012.5C 828.667,1012.17 828.333,1011.83 828,1011.5C 826.406,1012.72 824.906,1014.05 823.5,1015.5C 822.914,1015.29 822.414,1014.96 822,1014.5C 818.638,1017.17 815.304,1019.83 812,1022.5C 811.667,1022.17 811.333,1021.83 811,1021.5C 806.085,1024.07 801.419,1027.07 797,1030.5C 796.667,1030.17 796.333,1029.83 796,1029.5C 792.927,1032.71 789.593,1034.71 786,1035.5C 778.289,1038.75 770.623,1042.75 763,1047.5C 762.667,1047.17 762.333,1046.83 762,1046.5C 760.686,1047.31 759.519,1048.31 758.5,1049.5C 757.914,1049.29 757.414,1048.96 757,1048.5C 754.667,1050.17 752.333,1051.83 750,1053.5C 747.909,1052.5 746.243,1053.17 745,1055.5C 742.909,1054.5 741.243,1055.17 740,1057.5C 737.684,1056.63 735.684,1057.3 734,1059.5C 732.333,1059.5 730.667,1059.5 729,1059.5C 727.468,1061.56 725.468,1062.9 723,1063.5C 721.475,1063.89 719.808,1063.89 718,1063.5C 716.316,1065.7 714.316,1066.37 712,1065.5C 710.54,1067.42 708.873,1068.09 707,1067.5C 698.649,1070.39 690.649,1073.39 683,1076.5C 681.602,1075.95 680.268,1075.62 679,1075.5C 677.348,1076.4 675.848,1077.4 674.5,1078.5C 674.167,1078.5 673.833,1078.5 673.5,1078.5C 673.167,1077.17 672.833,1077.17 672.5,1078.5C 631.833,1078.5 591.167,1078.5 550.5,1078.5C 556.365,1073.82 562.198,1068.82 568,1063.5C 568.333,1063.83 568.667,1064.17 569,1064.5C 575.802,1058.7 582.302,1052.53 588.5,1046C 589.449,1045.38 590.282,1045.55 591,1046.5C 613.306,1025.53 634.973,1003.86 656,981.5C 656.333,980.167 656.667,978.833 657,977.5C 662.048,972.813 666.381,968.146 670,963.5C 672.607,958.626 675.94,954.292 680,950.5C 681.981,945.835 684.814,941.668 688.5,938C 688.167,937.667 687.833,937.333 687.5,937C 690.743,933.179 693.743,929.179 696.5,925C 696.167,924.667 695.833,924.333 695.5,924C 698.626,921.55 700.959,918.55 702.5,915C 702.167,914.667 701.833,914.333 701.5,914C 705.453,908.476 709.119,902.809 712.5,897C 711.5,894.909 712.167,893.243 714.5,892C 714.167,891.667 713.833,891.333 713.5,891C 715.167,888.667 716.833,886.333 718.5,884C 718.043,883.586 717.709,883.086 717.5,882.5C 719.924,877.915 722.257,873.415 724.5,869C 724.5,867.333 724.5,865.667 724.5,864C 726.352,859.929 728.352,855.929 730.5,852C 730.043,851.586 729.709,851.086 729.5,850.5C 731.327,847.55 731.994,844.55 731.5,841.5C 734.775,830.251 737.442,819.084 739.5,808C 739.627,806.058 739.294,804.058 738.5,802C 738.439,800.289 739.106,798.956 740.5,798C 739.277,789.331 739.277,780.831 740.5,772.5C 739.801,768.349 739.134,764.182 738.5,760C 738.819,752.899 737.819,745.899 735.5,739C 735.833,738.667 736.167,738.333 736.5,738C 735.599,732.388 733.933,727.055 731.5,722C 732.121,719.502 731.455,717.168 729.5,715C 729.833,714.667 730.167,714.333 730.5,714C 726.683,703.674 722.683,693.507 718.5,683.5C 714.85,675.885 710.85,668.052 706.5,660C 706.833,658.833 707.167,657.667 707.5,656.5C 708.167,656.833 708.833,657.167 709.5,657.5C 714.753,653.139 719.753,649.139 724.5,645.5C 727.919,643.588 730.919,641.088 733.5,638C 734.833,637.667 736.167,637.333 737.5,637C 741.589,632.293 746.089,628.793 751,626.5C 756.275,622.228 761.275,617.562 766,612.5C 768.291,613.311 770.125,612.477 771.5,610C 772.167,609.333 772.833,609.333 773.5,610C 791.246,636.418 807.246,662.751 821.5,689C 822.069,691.903 823.735,693.903 826.5,695C 825.978,695.561 825.645,696.228 825.5,697C 826.509,698.168 827.509,699.335 828.5,700.5C 828.291,701.086 827.957,701.586 827.5,702C 829.15,704.813 831.15,707.313 833.5,709.5C 833.291,710.086 832.957,710.586 832.5,711C 839.823,723.123 846.656,735.956 853,749.5C 861.356,769.964 869.856,790.298 878.5,810.5C 878.167,811.167 877.833,811.833 877.5,812.5C 878.5,813.833 879.5,815.167 880.5,816.5C 880.306,818.07 880.306,819.57 880.5,821C 883.408,822.913 884.074,825.246 882.5,828C 884.808,829.588 885.475,831.588 884.5,834C 888.288,843.143 891.622,852.476 894.5,862C 894.167,862.333 893.833,862.667 893.5,863C 895.653,864.891 896.32,867.057 895.5,869.5C 897.019,872.148 898.019,874.982 898.5,878C 898.167,878.333 897.833,878.667 897.5,879C 900.371,887.562 902.704,896.062 904.5,904.5C 904.013,905.446 903.68,906.446 903.5,907.5C 904.914,912.329 905.914,916.996 906.5,921.5C 905.478,924.255 905.811,926.588 907.5,928.5C 907.167,929.167 906.833,929.833 906.5,930.5C 907.549,935.353 908.549,940.186 909.5,945C 909.645,946.916 909.145,948.749 908,950.5C 901.333,957.167 894.667,963.833 888,970.5C 887.282,969.549 886.449,969.383 885.5,970C 881.905,974.104 877.905,977.604 873.5,980.5 Z"/></g>
<g><path style="opacity:0.004" fill="#b0b1b0" d="M 724.5,645.5 C 723.833,644.167 723.833,644.167 724.5,645.5 Z"/></g>
<g><path style="opacity:0.976" fill="#b0b1b0" d="M 620.5,976.5 C 619.833,976.5 619.5,976.833 619.5,977.5C 618.833,977.5 618.5,977.833 618.5,978.5C 617.833,978.5 617.5,978.833 617.5,979.5C 616.833,979.5 616.5,979.833 616.5,980.5C 615.833,980.5 615.5,980.833 615.5,981.5C 614.833,981.5 614.5,981.833 614.5,982.5C 613.833,982.5 613.5,982.833 613.5,983.5C 612.833,983.5 612.5,983.833 612.5,984.5C 611.833,984.5 611.5,984.833 611.5,985.5C 610.833,985.5 610.5,985.833 610.5,986.5C 609.833,986.5 609.5,986.833 609.5,987.5C 608.833,987.5 608.5,987.833 608.5,988.5C 607.833,988.5 607.5,988.833 607.5,989.5C 606.833,989.5 606.5,989.833 606.5,990.5C 605.833,990.5 605.5,990.833 605.5,991.5C 604.833,991.5 604.5,991.833 604.5,992.5C 603.833,992.5 603.5,992.833 603.5,993.5C 602.833,993.5 602.5,993.833 602.5,994.5C 601.833,994.5 601.5,994.833 601.5,995.5C 600.833,995.5 600.5,995.833 600.5,996.5C 599.833,996.5 599.5,996.833 599.5,997.5C 598.833,997.5 598.5,997.833 598.5,998.5C 597.833,998.5 597.5,998.833 597.5,999.5C 596.833,999.5 596.5,999.833 596.5,1000.5C 595.833,1000.5 595.5,1000.83 595.5,1001.5C 594.833,1001.5 594.5,1001.83 594.5,1002.5C 593.833,1002.5 593.5,1002.83 593.5,1003.5C 592.833,1003.5 592.5,1003.83 592.5,1004.5C 591.833,1004.5 591.5,1004.83 591.5,1005.5C 590.833,1005.5 590.5,1005.83 590.5,1006.5C 589.833,1006.5 589.5,1006.83 589.5,1007.5C 588.833,1007.5 588.5,1007.83 588.5,1008.5C 587.833,1008.5 587.5,1008.83 587.5,1009.5C 574.294,1022.25 560.961,1034.08 547.5,1045C 546.551,1045.62 545.718,1045.45 545,1044.5C 535.419,1054.61 524.919,1062.77 513.5,1069C 509.369,1072.08 505.369,1075.25 501.5,1078.5C 474.833,1078.5 448.167,1078.5 421.5,1078.5C 420.5,1077.17 419.5,1077.17 418.5,1078.5C 418.167,1078.5 417.833,1078.5 417.5,1078.5C 414.88,1076.89 412.047,1075.56 409,1074.5C 408.586,1074.96 408.086,1075.29 407.5,1075.5C 404.965,1074.1 402.298,1073.1 399.5,1072.5C 399.167,1071.17 398.833,1071.17 398.5,1072.5C 368.904,1063.92 339.071,1052.26 309,1037.5C 307.984,1038.63 307.317,1038.3 307,1036.5C 306.667,1036.83 306.333,1037.17 306,1037.5C 295.143,1031.32 284.31,1024.98 273.5,1018.5C 272.914,1018.71 272.414,1019.04 272,1019.5C 256.651,1008.89 241.151,998.558 225.5,988.5C 219.944,984.1 214.277,979.934 208.5,976C 205.721,972.545 202.388,969.879 198.5,968C 195.5,965.667 192.833,963 190.5,960C 188.833,959.667 187.167,959.333 185.5,959C 168.306,941.806 151.14,924.64 134,907.5C 133.691,905.609 134.525,904.275 136.5,903.5C 141.015,902.91 145.348,902.91 149.5,903.5C 151.985,901.659 154.485,901.326 157,902.5C 162.114,901.411 167.447,900.078 173,898.5C 174.533,898.944 176.033,899.277 177.5,899.5C 180.046,898.344 182.546,897.344 185,896.5C 187.776,897.648 190.443,897.314 193,895.5C 196,895.5 199,895.5 202,895.5C 205.607,893.735 209.44,892.402 213.5,891.5C 215.061,892.347 216.561,892.014 218,890.5C 218.414,890.957 218.914,891.291 219.5,891.5C 222.167,890.5 224.833,889.5 227.5,888.5C 228.962,889.471 230.295,889.138 231.5,887.5C 233.622,887.377 235.789,887.377 238,887.5C 238.667,886.833 239.333,886.167 240,885.5C 242,885.5 244,885.5 246,885.5C 247.079,883.606 248.413,883.273 250,884.5C 251.945,882.819 253.945,882.152 256,882.5C 258.567,881.73 261.067,880.73 263.5,879.5C 265.595,880.229 267.428,879.563 269,877.5C 270.903,877.694 272.737,877.694 274.5,877.5C 278.992,875.897 283.492,874.23 288,872.5C 288.333,872.833 288.667,873.167 289,873.5C 292.243,872.126 295.577,870.46 299,868.5C 299.333,868.833 299.667,869.167 300,869.5C 304.064,868.002 308.397,866.335 313,864.5C 314.667,864.5 316.333,864.5 318,864.5C 325.12,861.802 332.12,858.802 339,855.5C 340.873,856.089 342.54,855.422 344,853.5C 344.414,853.957 344.914,854.291 345.5,854.5C 348.853,853.202 352.02,851.535 355,849.5C 356.77,850.276 358.603,850.11 360.5,849C 362.448,848.017 364.282,846.85 366,845.5C 367.525,845.112 369.192,845.112 371,845.5C 372.875,844.258 374.709,842.924 376.5,841.5C 377.086,841.709 377.586,842.043 378,842.5C 379.46,840.578 381.127,839.911 383,840.5C 384.771,839.696 386.271,838.529 387.5,837C 390.465,837.444 392.965,836.277 395,833.5C 399.449,833.522 403.449,831.855 407,828.5C 407.414,828.957 407.914,829.291 408.5,829.5C 411.853,828.202 415.02,826.535 418,824.5C 418.333,824.833 418.667,825.167 419,825.5C 420.667,824.167 422.333,822.833 424,821.5C 424.333,821.833 424.667,822.167 425,822.5C 429.251,820.603 433.251,818.27 437,815.5C 439.091,816.5 440.757,815.833 442,813.5C 442.333,813.833 442.667,814.167 443,814.5C 448.836,811.794 454.503,808.794 460,805.5C 460.333,805.833 460.667,806.167 461,806.5C 462.973,805.36 464.807,804.027 466.5,802.5C 467.086,802.709 467.586,803.043 468,803.5C 475,799.167 482,794.833 489,790.5C 489.414,790.957 489.914,791.291 490.5,791.5C 501.58,785.878 512.413,779.878 523,773.5C 523.333,773.833 523.667,774.167 524,774.5C 525.797,773.001 527.631,771.501 529.5,770C 544.031,762.854 557.531,755.354 570,747.5C 570.333,747.833 570.667,748.167 571,748.5C 576.864,745.211 582.197,741.211 587,736.5C 587.414,736.957 587.914,737.291 588.5,737.5C 592.371,734.796 595.537,732.13 598,729.5C 598.414,729.957 598.914,730.291 599.5,730.5C 601.323,729.509 602.823,728.176 604,726.5C 604.718,727.451 605.551,727.617 606.5,727C 609.869,723.521 613.535,721.187 617.5,720C 619,718.5 620.5,717 622,715.5C 622.333,715.833 622.667,716.167 623,716.5C 629.395,712.098 635.561,707.431 641.5,702.5C 642.086,702.709 642.586,703.043 643,703.5C 646.333,700.833 649.667,698.167 653,695.5C 653.333,695.833 653.667,696.167 654,696.5C 662.997,690.432 671.997,683.766 681,676.5C 682.351,678.019 683.851,679.352 685.5,680.5C 685.291,681.086 684.957,681.586 684.5,682C 686.567,685.382 688.9,688.548 691.5,691.5C 690.391,692.965 690.891,693.965 693,694.5C 696.519,705.739 700.352,716.573 704.5,727C 703.577,729.048 704.077,730.881 706,732.5C 706.72,734.112 706.554,735.612 705.5,737C 707.074,738.826 707.907,740.993 708,743.5C 710.424,761.148 711.591,778.815 711.5,796.5C 710.369,803.731 709.035,810.898 707.5,818C 708.354,819.881 708.021,821.714 706.5,823.5C 706.709,824.086 707.043,824.586 707.5,825C 705.672,828.276 705.006,831.609 705.5,835C 704.978,838.014 703.645,841.014 701.5,844C 702.108,846.184 701.441,848.184 699.5,850C 699.957,850.414 700.291,850.914 700.5,851.5C 681.952,897.752 655.286,939.419 620.5,976.5 Z"/></g>
<g><path style="opacity:0.004" fill="#b0b1b0" d="M 718.5,683.5 C 717.833,684.167 717.833,684.167 718.5,683.5 Z"/></g>
<g><path style="opacity:0.004" fill="#b0b1b0" d="M 584.5,705.5 C 584.833,705.5 585.167,705.5 585.5,705.5C 585.315,706.17 584.981,706.17 584.5,705.5 Z"/></g>
<g><path style="opacity:0.004" fill="#b0b1b0" d="M 1058.5,719.5 C 1059.83,720.167 1059.83,720.167 1058.5,719.5 Z"/></g>
<g><path style="opacity:0.004" fill="#b0b1b0" d="M 561.5,750.5 C 562.833,751.167 562.833,751.167 561.5,750.5 Z"/></g>
<g><path style="opacity:0.004" fill="#b0b1b0" d="M 985.5,863.5 C 986.833,864.167 986.833,864.167 985.5,863.5 Z"/></g>
<g><path style="opacity:0.004" fill="#b0b1b0" d="M 971.5,881.5 C 971.833,881.5 972.167,881.5 972.5,881.5C 972.315,882.17 971.981,882.17 971.5,881.5 Z"/></g>
<g><path style="opacity:0.004" fill="#b0b1b0" d="M 932.5,897.5 C 931.833,898.167 931.833,898.167 932.5,897.5 Z"/></g>
<g><path style="opacity:0.004" fill="#b0b1b0" d="M 620.5,976.5 C 621.833,977.167 621.833,977.167 620.5,976.5 Z"/></g>
<g><path style="opacity:0.004" fill="#b0b1b0" d="M 619.5,977.5 C 619.833,977.5 620.167,977.5 620.5,977.5C 620.315,978.17 619.981,978.17 619.5,977.5 Z"/></g>
<g><path style="opacity:0.004" fill="#b0b1b0" d="M 618.5,978.5 C 618.833,978.5 619.167,978.5 619.5,978.5C 619.315,979.17 618.981,979.17 618.5,978.5 Z"/></g>
<g><path style="opacity:0.004" fill="#b0b1b0" d="M 617.5,979.5 C 617.833,979.5 618.167,979.5 618.5,979.5C 618.315,980.17 617.981,980.17 617.5,979.5 Z"/></g>
<g><path style="opacity:0.004" fill="#b0b1b0" d="M 616.5,980.5 C 616.833,980.5 617.167,980.5 617.5,980.5C 617.315,981.17 616.981,981.17 616.5,980.5 Z"/></g>
<g><path style="opacity:0.004" fill="#b0b1b0" d="M 872.5,980.5 C 872.833,980.5 873.167,980.5 873.5,980.5C 873.315,981.17 872.981,981.17 872.5,980.5 Z"/></g>
<g><path style="opacity:0.004" fill="#b0b1b0" d="M 615.5,981.5 C 615.833,981.5 616.167,981.5 616.5,981.5C 616.315,982.17 615.981,982.17 615.5,981.5 Z"/></g>
<g><path style="opacity:0.004" fill="#b0b1b0" d="M 871.5,981.5 C 871.833,981.5 872.167,981.5 872.5,981.5C 872.315,982.17 871.981,982.17 871.5,981.5 Z"/></g>
<g><path style="opacity:0.004" fill="#b0b1b0" d="M 614.5,982.5 C 614.833,982.5 615.167,982.5 615.5,982.5C 615.315,983.17 614.981,983.17 614.5,982.5 Z"/></g>
<g><path style="opacity:0.004" fill="#b0b1b0" d="M 613.5,983.5 C 613.833,983.5 614.167,983.5 614.5,983.5C 614.315,984.17 613.981,984.17 613.5,983.5 Z"/></g>
<g><path style="opacity:0.004" fill="#b0b1b0" d="M 869.5,983.5 C 870.833,984.167 870.833,984.167 869.5,983.5 Z"/></g>
<g><path style="opacity:0.004" fill="#b0b1b0" d="M 612.5,984.5 C 612.833,984.5 613.167,984.5 613.5,984.5C 613.315,985.17 612.981,985.17 612.5,984.5 Z"/></g>
<g><path style="opacity:0.004" fill="#b0b1b0" d="M 611.5,985.5 C 611.833,985.5 612.167,985.5 612.5,985.5C 612.315,986.17 611.981,986.17 611.5,985.5 Z"/></g>
<g><path style="opacity:0.004" fill="#b0b1b0" d="M 610.5,986.5 C 610.833,986.5 611.167,986.5 611.5,986.5C 611.315,987.17 610.981,987.17 610.5,986.5 Z"/></g>
<g><path style="opacity:0.004" fill="#b0b1b0" d="M 609.5,987.5 C 609.833,987.5 610.167,987.5 610.5,987.5C 610.315,988.17 609.981,988.17 609.5,987.5 Z"/></g>
<g><path style="opacity:0.004" fill="#b0b1b0" d="M 608.5,988.5 C 608.833,988.5 609.167,988.5 609.5,988.5C 609.315,989.17 608.981,989.17 608.5,988.5 Z"/></g>
<g><path style="opacity:0.004" fill="#b0b1b0" d="M 607.5,989.5 C 607.833,989.5 608.167,989.5 608.5,989.5C 608.315,990.17 607.981,990.17 607.5,989.5 Z"/></g>
<g><path style="opacity:0.004" fill="#b0b1b0" d="M 606.5,990.5 C 606.833,990.5 607.167,990.5 607.5,990.5C 607.315,991.17 606.981,991.17 606.5,990.5 Z"/></g>
<g><path style="opacity:0.004" fill="#b0b1b0" d="M 605.5,991.5 C 605.833,991.5 606.167,991.5 606.5,991.5C 606.315,992.17 605.981,992.17 605.5,991.5 Z"/></g>
<g><path style="opacity:0.004" fill="#b0b1b0" d="M 604.5,992.5 C 604.833,992.5 605.167,992.5 605.5,992.5C 605.315,993.17 604.981,993.17 604.5,992.5 Z"/></g>
<g><path style="opacity:0.004" fill="#b0b1b0" d="M 603.5,993.5 C 603.833,993.5 604.167,993.5 604.5,993.5C 604.315,994.17 603.981,994.17 603.5,993.5 Z"/></g>
<g><path style="opacity:0.004" fill="#b0b1b0" d="M 602.5,994.5 C 602.833,994.5 603.167,994.5 603.5,994.5C 603.315,995.17 602.981,995.17 602.5,994.5 Z"/></g>
<g><path style="opacity:0.004" fill="#b0b1b0" d="M 854.5,994.5 C 855.833,995.167 855.833,995.167 854.5,994.5 Z"/></g>
<g><path style="opacity:0.004" fill="#b0b1b0" d="M 601.5,995.5 C 601.833,995.5 602.167,995.5 602.5,995.5C 602.315,996.17 601.981,996.17 601.5,995.5 Z"/></g>
<g><path style="opacity:0.004" fill="#b0b1b0" d="M 600.5,996.5 C 600.833,996.5 601.167,996.5 601.5,996.5C 601.315,997.17 600.981,997.17 600.5,996.5 Z"/></g>
<g><path style="opacity:0.004" fill="#b0b1b0" d="M 599.5,997.5 C 599.833,997.5 600.167,997.5 600.5,997.5C 600.315,998.17 599.981,998.17 599.5,997.5 Z"/></g>
<g><path style="opacity:0.004" fill="#b0b1b0" d="M 598.5,998.5 C 598.833,998.5 599.167,998.5 599.5,998.5C 599.315,999.17 598.981,999.17 598.5,998.5 Z"/></g>
<g><path style="opacity:0.004" fill="#b0b1b0" d="M 597.5,999.5 C 597.833,999.5 598.167,999.5 598.5,999.5C 598.315,1000.17 597.981,1000.17 597.5,999.5 Z"/></g>
<g><path style="opacity:0.004" fill="#b0b1b0" d="M 596.5,1000.5 C 596.833,1000.5 597.167,1000.5 597.5,1000.5C 597.315,1001.17 596.981,1001.17 596.5,1000.5 Z"/></g>
<g><path style="opacity:0.004" fill="#b0b1b0" d="M 595.5,1001.5 C 595.833,1001.5 596.167,1001.5 596.5,1001.5C 596.315,1002.17 595.981,1002.17 595.5,1001.5 Z"/></g>
<g><path style="opacity:0.004" fill="#b0b1b0" d="M 594.5,1002.5 C 594.833,1002.5 595.167,1002.5 595.5,1002.5C 595.315,1003.17 594.981,1003.17 594.5,1002.5 Z"/></g>
<g><path style="opacity:0.004" fill="#b0b1b0" d="M 593.5,1003.5 C 593.833,1003.5 594.167,1003.5 594.5,1003.5C 594.315,1004.17 593.981,1004.17 593.5,1003.5 Z"/></g>
<g><path style="opacity:0.004" fill="#b0b1b0" d="M 592.5,1004.5 C 592.833,1004.5 593.167,1004.5 593.5,1004.5C 593.315,1005.17 592.981,1005.17 592.5,1004.5 Z"/></g>
<g><path style="opacity:0.004" fill="#b0b1b0" d="M 591.5,1005.5 C 591.833,1005.5 592.167,1005.5 592.5,1005.5C 592.315,1006.17 591.981,1006.17 591.5,1005.5 Z"/></g>
<g><path style="opacity:0.004" fill="#b0b1b0" d="M 590.5,1006.5 C 590.833,1006.5 591.167,1006.5 591.5,1006.5C 591.315,1007.17 590.981,1007.17 590.5,1006.5 Z"/></g>
<g><path style="opacity:0.004" fill="#b0b1b0" d="M 589.5,1007.5 C 589.833,1007.5 590.167,1007.5 590.5,1007.5C 590.315,1008.17 589.981,1008.17 589.5,1007.5 Z"/></g>
<g><path style="opacity:0.004" fill="#b0b1b0" d="M 588.5,1008.5 C 588.833,1008.5 589.167,1008.5 589.5,1008.5C 589.315,1009.17 588.981,1009.17 588.5,1008.5 Z"/></g>
<g><path style="opacity:0.004" fill="#b0b1b0" d="M 587.5,1009.5 C 587.833,1009.5 588.167,1009.5 588.5,1009.5C 588.315,1010.17 587.981,1010.17 587.5,1009.5 Z"/></g>
<g><path style="opacity:0.004" fill="#b0b1b0" d="M 398.5,1072.5 C 398.833,1072.5 399.167,1072.5 399.5,1072.5C 399.315,1073.17 398.981,1073.17 398.5,1072.5 Z"/></g>
</svg>
