<svg width="36" height="26" viewBox="0 0 36 26" fill="none" xmlns="http://www.w3.org/2000/svg">
<path d="M12.331 25.9967C6.34318 25.9565 1.56645 22.3895 0.248483 17.1327C-0.0792271 15.8211 -0.0614167 14.5161 0.177242 13.1743C0.487142 11.4276 1.10694 9.82145 2.18269 8.38596C4.20594 5.68897 6.98079 4.11629 10.4467 3.60099C11.8537 3.39353 13.2429 3.46045 14.6357 3.72814C14.7817 3.75491 15.0097 3.68464 15.113 3.58425C17.6385 1.08469 20.7589 -0.0764142 24.3958 0.00389303C30.1271 0.1277 35.0357 4.23675 35.8727 9.56714C36.7953 15.453 32.6063 21.0645 26.4048 22.2557C24.7591 22.5702 23.1098 22.5903 21.4642 22.2557C21.1899 22.2021 21.0296 22.2791 20.8479 22.4598C18.4613 24.7854 15.5298 25.9331 12.3346 26L12.331 25.9967ZM22.8819 15.0381C22.832 14.4893 22.7999 13.9372 22.7251 13.3884C22.7109 13.268 22.5862 13.1174 22.4687 13.0572C21.5995 12.6121 20.7161 12.1939 19.847 11.7555C19.6333 11.6484 19.5015 11.6585 19.3305 11.8291C18.6751 12.4749 17.9983 13.104 17.3357 13.7431C17.2431 13.8301 17.1648 13.9372 17.1113 14.0476C16.4844 15.2957 15.861 16.5472 15.2341 17.7919C15.1486 17.9592 15.1415 18.073 15.3018 18.2169C16.0106 18.846 16.7017 19.4951 17.4141 20.1275C17.5067 20.2112 17.6706 20.2815 17.7917 20.2714C18.8282 20.1744 19.8612 20.0372 20.9014 19.9535C21.2326 19.9268 21.3858 19.7896 21.5283 19.5386C22.344 18.1366 22.7821 16.6375 22.8819 15.0414V15.0381ZM34.6866 11.1398C34.6652 10.8554 34.651 10.4271 34.5833 10.0055C34.5583 9.84822 34.4301 9.6508 34.2841 9.57718C33.4185 9.12545 32.5315 8.71388 31.6624 8.27219C31.438 8.15842 31.3169 8.20192 31.1566 8.36253C30.5225 8.99495 29.8742 9.61064 29.2366 10.2397C29.144 10.3301 29.0514 10.4271 28.9944 10.5375C28.3496 11.8191 27.7085 13.104 27.0816 14.3923C27.0388 14.4826 27.0816 14.6666 27.1528 14.7369C27.826 15.366 28.5099 15.985 29.2081 16.594C29.3114 16.6844 29.4931 16.7479 29.6284 16.7379C30.7184 16.6375 31.8084 16.5237 32.8949 16.3933C33.0338 16.3765 33.2048 16.2561 33.276 16.1389C34.2021 14.6399 34.6438 13.017 34.6866 11.1465V11.1398ZM6.44649 20.3551C6.48567 20.3317 6.62459 20.2714 6.72789 20.1744C7.40824 19.552 8.07791 18.9162 8.76539 18.3006C8.95774 18.1299 8.96487 17.9961 8.85444 17.7852C8.24177 16.5873 7.6469 15.3794 7.03779 14.1781C6.97011 14.0443 6.88818 13.9071 6.7742 13.81C6.08315 13.2144 5.38855 12.6255 4.6797 12.05C4.59065 11.9764 4.38048 11.9496 4.27718 11.9964C3.36886 12.4247 2.47121 12.8664 1.5807 13.3248C1.46671 13.3851 1.34916 13.5357 1.33491 13.6561C1.06776 15.7976 1.55576 17.7953 2.66713 19.6725C2.80605 19.91 2.97703 20.0138 3.25131 20.0405C4.27718 20.1342 5.2995 20.2413 6.44649 20.3584V20.3551ZM7.6184 21.1213C8.17409 22.1553 8.74046 23.2227 9.31751 24.2801C9.36382 24.3637 9.48493 24.4407 9.58467 24.4641C11.2517 24.8556 12.9188 24.8489 14.5823 24.4541C14.6856 24.4307 14.8031 24.3504 14.853 24.2667C15.4371 23.2093 16.0071 22.1486 16.4915 21.2485C15.6936 20.4287 14.9563 19.6624 14.2082 18.9129C14.1334 18.8359 13.9696 18.8058 13.8485 18.8058C12.6694 18.7991 11.4939 18.7958 10.3149 18.8058C10.1795 18.8058 10.0086 18.846 9.9195 18.9296C9.15009 19.6457 8.3985 20.3785 7.62197 21.1247L7.6184 21.1213ZM11.4583 8.89792C11.4583 8.3458 11.4512 7.79034 11.4619 7.23823C11.4654 7.04416 11.4191 6.9237 11.2161 6.82666C10.29 6.37493 9.38163 5.89643 8.45549 5.4447C8.34507 5.39117 8.15984 5.36774 8.05654 5.41459C7.31919 5.76593 6.58897 6.13066 5.86587 6.50878C5.76969 6.55897 5.68064 6.69951 5.67352 6.80324C5.55597 8.08146 5.44911 9.35968 5.36005 10.6379C5.34937 10.7751 5.43129 10.9591 5.53816 11.0528C6.15439 11.5949 6.78488 12.1202 7.42605 12.6355C7.51511 12.7058 7.72527 12.7326 7.82857 12.6824C8.96487 12.1236 10.0976 11.5514 11.2161 10.9658C11.3336 10.9056 11.4441 10.7249 11.4512 10.5944C11.4761 10.0289 11.4619 9.46341 11.4619 8.89792H11.4583ZM24.4741 5.38782C24.4741 5.95332 24.4599 6.51882 24.4848 7.08431C24.4919 7.21481 24.5917 7.3955 24.7092 7.45573C25.8313 8.04131 26.9676 8.60345 28.0932 9.17899C28.2784 9.27603 28.3924 9.2526 28.5384 9.11207C29.1404 8.52315 29.7638 7.95096 30.3622 7.35535C30.462 7.25496 30.5332 7.07093 30.5225 6.93374C30.4263 5.71909 30.3124 4.50444 30.1841 3.2898C30.1699 3.16599 30.0701 3.00203 29.9561 2.9418C29.3078 2.5938 28.6524 2.25919 27.9792 1.95134C27.8332 1.88442 27.5802 1.90115 27.4306 1.97476C26.5259 2.40976 25.6425 2.87822 24.7413 3.31991C24.5275 3.42364 24.4706 3.55414 24.4777 3.76495C24.4919 4.30702 24.4812 4.84575 24.4812 5.38782H24.4741ZM16.5165 12.7828C17.1968 12.1704 17.8202 11.5815 18.472 11.0227C18.7285 10.8019 18.8033 10.571 18.7712 10.2598C18.6537 9.1221 18.5611 7.98107 18.4364 6.84673C18.4222 6.70954 18.3046 6.53555 18.1799 6.46862C17.5352 6.11728 16.8762 5.78266 16.2066 5.47147C16.0676 5.4079 15.8361 5.42128 15.6936 5.4882C14.7853 5.91316 13.8841 6.35485 12.9936 6.80993C12.8725 6.87016 12.7478 7.04416 12.7442 7.16797C12.7264 8.32573 12.7264 9.48014 12.7442 10.6379C12.7442 10.755 12.8511 10.9223 12.9579 10.9792C14.1512 11.5949 15.3552 12.1939 16.5165 12.7794V12.7828ZM15.8503 13.8067C15.0097 13.3817 14.2011 12.9702 13.389 12.5653C12.9651 12.3511 12.5376 11.973 12.1137 11.9764C11.6756 11.9764 11.2339 12.3478 10.7993 12.5653C9.9765 12.9768 9.15722 13.3951 8.32726 13.8134C8.92212 15.018 9.49205 16.1925 10.0834 17.3569C10.1368 17.4607 10.3113 17.5677 10.4324 17.5677C11.5153 17.5845 12.6017 17.5845 13.6846 17.5677C13.7986 17.5677 13.9696 17.4774 14.0159 17.3837C14.6286 16.2126 15.2199 15.0347 15.8468 13.8033L15.8503 13.8067ZM21.8239 8.06138C22.2229 7.86731 22.5755 7.68327 22.9389 7.52265C23.1562 7.42896 23.2131 7.29177 23.2096 7.07762C23.1989 5.97005 23.1989 4.86583 23.2096 3.75826C23.2096 3.53406 23.1241 3.42364 22.9246 3.32326C22.1303 2.93176 21.3288 2.55699 20.5665 2.11865C20.1498 1.88108 19.8114 1.89111 19.3875 2.08184C18.2369 2.60384 17.1861 3.2463 16.2315 4.12633C18.5077 4.95617 20.3706 6.23774 21.8239 8.06138ZM22.0056 21.0812C23.4732 21.3087 24.8481 21.282 26.2231 20.9942C26.4903 20.9373 26.6363 20.8235 26.7538 20.6027C27.2383 19.6658 27.7334 18.7322 28.2357 17.8053C28.339 17.6179 28.3212 17.5042 28.1537 17.3569C27.4413 16.7279 26.7467 16.0854 26.0414 15.4496C25.9702 15.3861 25.8669 15.3091 25.7778 15.3058C25.2328 15.2924 24.6878 15.2991 24.1108 15.2991C23.9861 17.4105 23.263 19.301 22.0056 21.0812ZM27.5696 10.3669C27.5375 10.3167 27.5304 10.2866 27.5126 10.2765C26.3513 9.68091 25.1901 9.0853 24.0253 8.49638C23.9541 8.45957 23.8365 8.43949 23.7724 8.47296C23.3628 8.66703 22.9602 8.88118 22.5364 9.09534C23.5052 10.668 24.0004 12.331 24.1393 14.1012C24.6487 14.1012 25.101 14.1112 25.5534 14.0945C25.646 14.0911 25.7814 14.0108 25.8206 13.9338C26.4119 12.7426 26.9925 11.5481 27.5696 10.3702V10.3669ZM1.71249 11.8693C2.47121 11.5046 3.15869 11.1833 3.83193 10.8387C3.92098 10.7952 3.98153 10.6413 3.99222 10.5342C4.0599 9.9486 4.10977 9.35968 4.1632 8.77411C4.19169 8.48634 4.21307 8.19523 4.24156 7.90746C3.0269 9.01503 2.22187 10.3133 1.71249 11.8726V11.8693ZM31.6196 4.3271C31.7016 5.18705 31.7835 6.04366 31.8725 6.90362C31.8797 6.95716 31.926 7.02408 31.9758 7.05085C32.6669 7.3955 33.3615 7.73011 34.1345 8.10823C33.6037 6.60916 32.8022 5.37444 31.6196 4.3271ZM22.344 11.6417C21.7848 10.1393 20.994 8.89457 19.7971 7.76023C19.8897 8.72727 19.9681 9.58722 20.0607 10.4438C20.0678 10.5108 20.1605 10.5877 20.2353 10.6212C20.9085 10.9524 21.5853 11.277 22.344 11.6417ZM28.2784 20.3919C29.7709 19.7628 30.9713 18.9397 32.0257 17.8154C31.2207 17.8655 30.494 17.9057 29.7638 17.9559C29.6854 17.9626 29.575 18.0161 29.5394 18.0797C29.1262 18.8159 28.7272 19.562 28.2748 20.3919H28.2784ZM16.4986 23.8585C17.9698 23.2227 19.1595 22.3929 20.2281 21.2485C19.3839 21.3355 18.643 21.4124 17.9057 21.4961C17.8415 21.5028 17.7596 21.5664 17.7276 21.6233C17.3286 22.3393 16.9368 23.0587 16.4986 23.8585ZM7.66115 23.8685C7.2337 23.0922 6.86325 22.4129 6.48567 21.7404C6.44648 21.6701 6.36456 21.5865 6.29688 21.5764C5.5524 21.4894 4.80793 21.4191 3.96016 21.3321C5.03234 22.4397 6.2007 23.2428 7.66471 23.8685H7.66115ZM14.1263 4.84575C12.7122 4.59813 11.4156 4.58809 10.0192 4.84909C10.7103 5.20044 11.3158 5.51163 11.9321 5.81278C12.0069 5.84959 12.1422 5.83955 12.2206 5.7994C12.8262 5.50494 13.421 5.20044 14.1263 4.84575ZM21.8631 1.35908C22.5542 1.71042 23.1562 2.02496 23.7653 2.32945C23.8223 2.35957 23.922 2.35957 23.979 2.32945C24.6024 2.02496 25.2222 1.71042 25.9239 1.35908C24.5382 1.11481 23.2559 1.11481 21.8631 1.35908Z" fill="#B1B1B1"/>
</svg>
