<svg width="16" height="12" viewBox="0 0 16 12" fill="none" xmlns="http://www.w3.org/2000/svg">
<path d="M5.48 11.998C2.819 11.98 0.69601 10.334 0.110009 7.90703C-0.0349905 7.30203 -0.0269964 6.70004 0.0790036 6.08004C0.217004 5.27404 0.49201 4.53303 0.97001 3.87003C1.86901 2.62603 3.10301 1.90004 4.64301 1.66204C5.26801 1.56604 5.88601 1.59703 6.50501 1.72103C6.57001 1.73303 6.671 1.70104 6.717 1.65404C7.839 0.501043 9.22601 -0.0349655 10.843 0.00203452C13.39 0.0590345 15.571 1.95504 15.943 4.41604C16.353 7.13204 14.492 9.72204 11.735 10.272C11.004 10.417 10.271 10.426 9.54 10.272C9.418 10.247 9.34602 10.283 9.26602 10.366C8.20502 11.439 6.902 11.969 5.482 12L5.48 11.998ZM10.17 6.94103C10.148 6.68703 10.133 6.43304 10.1 6.17904C10.094 6.12404 10.038 6.05404 9.986 6.02604C9.6 5.82104 9.20701 5.62803 8.82101 5.42603C8.72601 5.37603 8.66701 5.38104 8.59101 5.46004C8.30001 5.75804 7.99901 6.04804 7.70501 6.34304C7.66401 6.38304 7.629 6.43303 7.605 6.48403C7.326 7.06003 7.04901 7.63704 6.77101 8.21204C6.73301 8.28904 6.73 8.34104 6.801 8.40804C7.116 8.69804 7.42301 8.99803 7.74001 9.29003C7.78101 9.32803 7.85401 9.36104 7.90701 9.35604C8.36801 9.31104 8.82701 9.24803 9.28901 9.20903C9.43701 9.19703 9.505 9.13404 9.568 9.01804C9.931 8.37104 10.125 7.67904 10.17 6.94204V6.94103ZM15.416 5.14104C15.407 5.01004 15.4 4.81303 15.37 4.61803C15.359 4.54503 15.302 4.45403 15.237 4.42003C14.853 4.21203 14.458 4.02203 14.072 3.81803C13.972 3.76503 13.919 3.78604 13.847 3.86004C13.566 4.15204 13.277 4.43603 12.994 4.72603C12.953 4.76803 12.912 4.81304 12.886 4.86304C12.6 5.45504 12.315 6.04804 12.036 6.64304C12.017 6.68404 12.036 6.76904 12.068 6.80204C12.367 7.09204 12.671 7.37803 12.981 7.65903C13.027 7.70003 13.108 7.73004 13.168 7.72504C13.653 7.67904 14.137 7.62603 14.62 7.56603C14.682 7.55803 14.758 7.50304 14.789 7.44904C15.201 6.75704 15.397 6.00804 15.416 5.14504V5.14104ZM2.86501 9.39504C2.88301 9.38404 2.94401 9.35604 2.99001 9.31104C3.29301 9.02404 3.59 8.73103 3.896 8.44603C3.981 8.36803 3.98401 8.30603 3.93501 8.20903C3.66301 7.65603 3.39901 7.09804 3.12801 6.54404C3.09801 6.48204 3.06101 6.41903 3.01101 6.37403C2.70401 6.09903 2.39501 5.82703 2.08001 5.56203C2.04001 5.52803 1.94701 5.51504 1.90101 5.53704C1.49701 5.73404 1.09801 5.93803 0.703012 6.15003C0.652012 6.17803 0.600011 6.24703 0.593011 6.30303C0.475011 7.29103 0.691006 8.21304 1.18501 9.08004C1.24701 9.18904 1.32302 9.23703 1.44502 9.24903C1.90102 9.29303 2.35501 9.34104 2.86501 9.39504ZM3.38601 9.74804C3.63301 10.226 3.88502 10.718 4.14102 11.206C4.16202 11.245 4.216 11.28 4.26 11.291C5.001 11.472 5.74201 11.469 6.48101 11.287C6.52701 11.276 6.57901 11.239 6.60101 11.2C6.86101 10.712 7.11401 10.222 7.33001 9.80704C6.97501 9.42904 6.64701 9.07504 6.31501 8.72904C6.28201 8.69404 6.20901 8.68003 6.15501 8.68003C5.63101 8.67703 5.10801 8.67503 4.58401 8.68003C4.52401 8.68003 4.44801 8.69803 4.40901 8.73703C4.06701 9.06703 3.73301 9.40504 3.38801 9.75004L3.38601 9.74804ZM5.09301 4.10703C5.09301 3.85203 5.089 3.59604 5.094 3.34104C5.096 3.25104 5.07501 3.19604 4.98501 3.15104C4.57301 2.94204 4.17 2.72104 3.758 2.51304C3.709 2.48804 3.627 2.47703 3.581 2.49903C3.253 2.66103 2.928 2.83003 2.607 3.00403C2.564 3.02703 2.52501 3.09203 2.52201 3.14003C2.46901 3.73003 2.42201 4.32004 2.38201 4.91004C2.37701 4.97304 2.41401 5.05803 2.46101 5.10103C2.73501 5.35103 3.01601 5.59404 3.30001 5.83204C3.34001 5.86404 3.43301 5.87703 3.47901 5.85303C3.98401 5.59603 4.48801 5.33104 4.98501 5.06104C5.03701 5.03304 5.08601 4.95004 5.08901 4.89004C5.10101 4.62904 5.09301 4.36803 5.09301 4.10703ZM10.877 2.48704C10.877 2.74804 10.871 3.00904 10.882 3.27004C10.885 3.33004 10.93 3.41303 10.982 3.44103C11.481 3.71103 11.986 3.97103 12.486 4.23603C12.568 4.28103 12.619 4.27003 12.684 4.20603C12.951 3.93403 13.228 3.67004 13.494 3.39504C13.539 3.34804 13.57 3.26403 13.566 3.20003C13.523 2.64003 13.472 2.07904 13.415 1.51804C13.409 1.46104 13.365 1.38604 13.314 1.35804C13.026 1.19704 12.734 1.04304 12.435 0.901037C12.37 0.870037 12.258 0.877031 12.191 0.911031C11.789 1.11203 11.397 1.32803 10.996 1.53203C10.901 1.58003 10.876 1.64004 10.879 1.73804C10.885 1.98804 10.881 2.23604 10.881 2.48704H10.877ZM7.34101 5.90003C7.64301 5.61703 7.92002 5.34504 8.21002 5.08704C8.32402 4.98504 8.35701 4.87904 8.34301 4.73504C8.29101 4.21004 8.24901 3.68404 8.19401 3.16004C8.18801 3.09704 8.13501 3.01603 8.08001 2.98603C7.79301 2.82303 7.50101 2.66903 7.20301 2.52503C7.14101 2.49603 7.03802 2.50204 6.97502 2.53304C6.57102 2.72904 6.171 2.93304 5.775 3.14304C5.721 3.17104 5.66601 3.25103 5.66401 3.30803C5.65601 3.84303 5.65601 4.37504 5.66401 4.91004C5.66401 4.96404 5.71201 5.04104 5.75901 5.06704C6.28901 5.35104 6.82501 5.62803 7.34101 5.89803V5.90003ZM7.04501 6.37203C6.67101 6.17603 6.31201 5.98603 5.95101 5.79903C5.76201 5.70103 5.57201 5.52604 5.38401 5.52804C5.18901 5.52804 4.99301 5.69903 4.80001 5.79903C4.43401 5.98903 4.07001 6.18204 3.70101 6.37504C3.96501 6.93104 4.21901 7.47304 4.48101 8.01104C4.50501 8.05904 4.583 8.10804 4.637 8.10804C5.118 8.11604 5.60101 8.11604 6.08201 8.10804C6.13301 8.10804 6.20901 8.06603 6.22901 8.02303C6.50201 7.48303 6.76401 6.93904 7.04301 6.37104L7.04501 6.37203ZM9.70001 3.72103C9.87701 3.63103 10.034 3.54604 10.195 3.47204C10.292 3.42904 10.317 3.36503 10.315 3.26703C10.311 2.75503 10.311 2.24604 10.315 1.73504C10.315 1.63104 10.277 1.58003 10.189 1.53403C9.836 1.35303 9.47902 1.18003 9.14102 0.978032C8.95502 0.868032 8.80501 0.873034 8.61701 0.961034C8.10501 1.20203 7.63801 1.49804 7.21401 1.90404C8.22601 2.28704 9.05401 2.87903 9.70001 3.72103ZM9.78001 9.73003C10.433 9.83503 11.044 9.82204 11.655 9.69004C11.773 9.66304 11.838 9.61104 11.891 9.50904C12.106 9.07704 12.326 8.64604 12.549 8.21804C12.595 8.13104 12.587 8.07904 12.513 8.01104C12.196 7.72104 11.887 7.42403 11.574 7.13103C11.542 7.10103 11.496 7.06603 11.457 7.06403C11.215 7.05803 10.972 7.06104 10.716 7.06104C10.66 8.03604 10.339 8.90803 9.78001 9.73003ZM12.253 4.78504C12.239 4.76204 12.236 4.74803 12.228 4.74303C11.712 4.46803 11.196 4.19304 10.678 3.92104C10.646 3.90404 10.594 3.89503 10.566 3.91103C10.383 4.00003 10.205 4.09903 10.016 4.19803C10.447 4.92403 10.667 5.69103 10.729 6.50803C10.955 6.50803 11.156 6.51304 11.357 6.50504C11.398 6.50404 11.458 6.46704 11.476 6.43104C11.739 5.88104 11.997 5.32904 12.253 4.78504ZM0.76101 5.47803C1.09801 5.31003 1.40401 5.16203 1.70301 5.00203C1.74301 4.98203 1.77001 4.91104 1.77401 4.86204C1.80401 4.59204 1.82701 4.32004 1.85001 4.05004C1.86301 3.91704 1.872 3.78203 1.885 3.65003C1.345 4.16103 0.98701 4.76003 0.76101 5.48003V5.47803ZM14.053 1.99703C14.09 2.39403 14.126 2.78904 14.166 3.18604C14.169 3.21104 14.189 3.24203 14.211 3.25403C14.519 3.41303 14.827 3.56804 15.171 3.74204C14.935 3.05004 14.579 2.48103 14.053 1.99703ZM9.93101 5.37304C9.68201 4.68004 9.331 4.10504 8.799 3.58204C8.84 4.02804 8.87501 4.42504 8.91601 4.82004C8.91901 4.85104 8.96 4.88703 8.993 4.90203C9.293 5.05503 9.59301 5.20504 9.93101 5.37304ZM12.568 9.41204C13.232 9.12104 13.765 8.74104 14.234 8.22204C13.876 8.24604 13.553 8.26404 13.228 8.28704C13.194 8.29004 13.144 8.31503 13.129 8.34403C12.945 8.68403 12.769 9.02904 12.568 9.41204ZM7.333 11.012C7.987 10.718 8.51501 10.335 8.99001 9.80704C8.61501 9.84704 8.286 9.88304 7.958 9.92104C7.93 9.92404 7.89301 9.95403 7.87901 9.98003C7.70201 10.31 7.527 10.642 7.333 11.012ZM3.40501 11.016C3.21501 10.658 3.05 10.344 2.883 10.034C2.865 10.002 2.829 9.96303 2.799 9.95803C2.468 9.91803 2.137 9.88603 1.76 9.84603C2.237 10.357 2.75601 10.727 3.40701 11.016H3.40501ZM6.27801 2.23603C5.65001 2.12203 5.07401 2.11804 4.45301 2.23804C4.76001 2.40004 5.029 2.54403 5.303 2.68303C5.336 2.70003 5.39701 2.69504 5.43101 2.67704C5.70101 2.54104 5.96501 2.40003 6.27801 2.23603ZM9.717 0.627035C10.024 0.789035 10.292 0.935033 10.562 1.07503C10.588 1.08903 10.632 1.08903 10.657 1.07503C10.934 0.935033 11.21 0.789035 11.522 0.627035C10.906 0.515035 10.336 0.515035 9.717 0.627035Z" fill="white"/>
</svg>
