<svg width="48" height="53" viewBox="0 0 48 53" fill="none" xmlns="http://www.w3.org/2000/svg">
<path d="M23.8568 3.18855C24.9723 2.34208 26.1111 1.47366 27.2565 0.614657C28.665 -0.443424 30.0222 -0.112677 30.7141 1.45642C31.5963 3.45659 32.495 5.44892 33.3359 7.46476C33.5692 8.02593 33.9019 8.25636 34.521 8.34571C37.2189 8.73445 39.8671 9.33639 42.378 10.36C43.4323 10.7895 44.4254 11.3616 45.4202 11.9103C45.7876 12.1125 46.1071 12.4119 46.41 12.7034C47.9691 14.1957 47.9824 15.8557 46.4249 17.3465C45.0263 18.6851 43.2536 19.4407 41.4263 20.074C38.0547 21.2418 34.5491 21.8374 30.9922 22.1933C27.1869 22.5742 23.3718 22.6635 19.5533 22.4221C14.5547 22.107 9.61243 21.48 4.96143 19.5927C3.7813 19.1131 2.63262 18.4751 1.62794 17.7195C-0.570118 16.0673 -0.518808 14.0029 1.63952 12.2943C2.99013 11.2268 4.54268 10.4713 6.20446 10.0073C8.51175 9.36304 10.8621 8.85672 13.2058 8.3363C13.7205 8.22187 14.0085 8.04474 14.2105 7.56508C15.0728 5.51632 15.9832 3.4848 16.8819 1.44858C17.5738 -0.118945 18.931 -0.443421 20.3428 0.617795C21.4584 1.45642 22.5707 2.29976 23.6846 3.13838C23.7144 3.16033 23.7608 3.1619 23.8551 3.18855H23.8568Z" fill="#B7B7B7"/>
<path d="M37.017 33.3289C39.1141 33.3963 41.0374 33.6267 42.8564 34.2898C44.063 34.7303 45.225 35.2867 46.3869 35.8322C47.2178 36.2225 47.6763 36.8825 47.5654 37.7838C47.4545 38.682 46.8387 39.1695 45.9532 39.4438C40.9613 40.9878 36.2871 43.14 31.9953 46.0165C29.6069 47.6153 27.4419 49.4462 25.5616 51.5733C24.413 52.8728 23.1915 52.8728 22.0411 51.5765C18.2574 47.3159 13.4955 44.3 8.23707 41.9597C6.06053 40.991 3.77807 40.2338 1.53036 39.4125C0.704432 39.1115 0.140022 38.6303 0.0324364 37.7885C-0.0751491 36.9452 0.336986 36.3291 1.09671 35.8902C3.79627 34.3352 6.72756 33.506 9.87899 33.3571C10.0611 33.3493 10.2415 33.3399 10.5295 33.3273C10.3275 33.1204 10.1885 32.9652 10.0362 32.821C8.22714 31.1046 6.40315 29.4022 4.61061 27.6701C3.46193 26.5603 3.94855 24.8392 5.50605 24.4943C5.86688 24.4144 6.30053 24.4473 6.65474 24.557C10.5708 25.7734 14.4787 27.0196 18.3898 28.2517C19.1926 28.504 19.618 29.0433 19.8348 29.7972C21.0662 34.0938 22.3109 38.3873 23.5523 42.6808C23.6086 42.8783 23.6814 43.0726 23.8651 43.2717C24.1697 42.2309 24.4775 41.19 24.7771 40.1492C25.7735 36.7022 26.7749 33.2584 27.7564 29.8067C27.9865 28.9994 28.4665 28.4743 29.3089 28.2109C33.1439 27.0118 36.974 25.7969 40.809 24.5931C41.8799 24.2576 42.7952 24.5241 43.3116 25.3047C43.8495 26.1183 43.6989 27.0039 42.868 27.7924C40.9596 29.606 39.0429 31.4134 37.0187 33.3289H37.017Z" fill="#B7B7B7"/>
</svg>
