<?xml version="1.0" standalone="no"?><!DOCTYPE svg PUBLIC "-//W3C//DTD SVG 1.1//EN" "http://www.w3.org/Graphics/SVG/1.1/DTD/svg11.dtd"><svg t="1686311386048" class="icon" viewBox="0 0 1024 1024" version="1.1" xmlns="http://www.w3.org/2000/svg" p-id="20308" xmlns:xlink="http://www.w3.org/1999/xlink" width="128" height="128"><path d="M511.997506 511.997468m-507.998728 0a507.998728 507.998728 0 1 0 1015.997455 0 507.998728 507.998728 0 1 0-1015.997455 0Z" fill="#2298D5" p-id="20309"></path><path d="M742.435295 779.580453s134.226138-536.632428 105.1011-551.32723c-29.125039-14.687244-663.375102 243.651018-663.375102 243.651017-66.459211 31.370078 168.642516 89.159053 168.642516 89.159053L742.148051 318.614165 445.183019 603.552741s274.711174 260.220466 297.252276 176.027712z" fill="#FFFFFF" p-id="20310"></path><path d="M445.183019 603.552741s-27.265511 155.610705-12.48 171.469602L531.953411 680.314944C483.152152 639.496047 445.190578 603.552741 445.190578 603.552741z" fill="#B3B3B3" p-id="20311"></path><path d="M742.148051 318.614165L352.803809 561.055734s44.220471 192.105822 79.891651 213.95905c-14.785511-15.858897 12.48-171.469602 12.48-171.469602z" fill="#E6E6E6" p-id="20312"></path></svg>