<?xml version="1.0" standalone="no"?><!DOCTYPE svg PUBLIC "-//W3C//DTD SVG 1.1//EN" "http://www.w3.org/Graphics/SVG/1.1/DTD/svg11.dtd"><svg t="1686311240141" class="icon" viewBox="0 0 1024 1024" version="1.1" xmlns="http://www.w3.org/2000/svg" p-id="5102" xmlns:xlink="http://www.w3.org/1999/xlink" width="128" height="128"><path d="M982.698667 234.154667C952.32 262.144 939.690667 276.48 939.690667 276.48s10.922667 218.112-103.424 386.048-262.144 268.629333-476.842667 290.133333C144.725333 974.165333 4.778667 886.784 4.778667 886.784s93.866667-5.461333 153.941333-28.330667C218.453333 835.242667 304.469333 774.826667 304.469333 774.826667s-122.197333-37.888-166.229333-80.213334c-44.032-42.666667-54.954667-67.925333-54.954667-67.925333l120.832-1.706667S77.141333 557.056 40.96 503.808s-40.96-105.813333-40.96-105.813333l92.842667 37.546666S15.701333 330.069333 4.778667 248.149333s13.994667-125.952 13.994666-125.952S58.026667 196.266667 219.818667 278.186667s298.325333 77.141333 298.325333 77.141333-52.224-181.248 107.861333-261.461333 269.994667 55.296 269.994667 55.296 27.989333-7.509333 48.810667-15.36c20.821333-7.509333 50.858667-21.504 50.858666-21.504l-49.152 88.405333 76.117334-8.192s-9.557333 13.653333-39.936 41.642667z" fill="#3397DB" p-id="5103"></path></svg>