<svg width="25" height="21" viewBox="0 0 25 21" fill="none" xmlns="http://www.w3.org/2000/svg">
<path d="M23.2705 8.2771C22.9291 9.79233 22.5691 11.2895 22.2592 12.7967C21.95 14.2999 21.7813 15.8238 21.7512 17.3725H3.32487C3.24322 14.2744 2.58198 11.2714 1.79492 8.27041C1.87925 8.36411 1.96224 8.45914 2.04791 8.5515C3.17094 9.7582 4.46397 10.7112 6.0816 11.1289C6.64847 11.2754 7.25081 11.3671 7.83241 11.3477C8.584 11.3223 9.0632 10.7701 9.48952 10.2106C10.2712 9.18463 10.8046 8.02278 11.2216 6.81609C11.67 5.51904 12.0415 4.19589 12.4464 2.88412C12.4698 2.80916 12.4939 2.73487 12.5367 2.60303C12.7141 3.24419 12.864 3.82846 13.0367 4.40604C13.5326 6.06918 14.0867 7.7109 14.9441 9.22948C15.177 9.64175 15.4601 10.0272 15.7432 10.4081C16.3663 11.2467 17.1942 11.4916 18.2168 11.3143C20.1463 10.9796 21.6769 9.97839 22.9934 8.58697C23.0898 8.48525 23.1801 8.37883 23.2705 8.27844V8.2771ZM14.1389 13.7798C14.1436 12.9165 13.4215 12.185 12.5514 12.1729C11.6787 12.1602 10.9345 12.8957 10.9325 13.7732C10.9298 14.6392 11.6539 15.372 12.5193 15.3814C13.3954 15.3908 14.1343 14.6599 14.1389 13.7805V13.7798Z" fill="#9C9C9C"/>
<path d="M3.32227 20.1754V17.8075H21.7346V20.1754H3.32227Z" fill="#9C9C9C"/>
<path d="M6.12801 6.58447C7.08373 7.8079 8.08763 8.87605 9.60956 9.34588C9.19929 9.96964 8.82049 10.6115 8.09633 10.8872C7.83063 10.9883 7.50336 10.9735 7.21022 10.9441C6.78256 10.9013 6.36159 10.7989 5.92188 10.7186C6.34887 9.35257 6.21836 7.99864 6.12801 6.5838V6.58447Z" fill="#9C9C9C"/>
<path d="M15.4092 9.36391C16.9746 8.88337 17.9825 7.8199 18.9228 6.60852C18.8981 7.31996 18.8546 7.99324 18.8559 8.6672C18.8573 9.34182 18.9041 10.0158 19.1511 10.6837C18.4938 10.8898 17.8333 11.0351 17.1593 10.9427C16.9063 10.9079 16.6346 10.7433 16.4472 10.5599C16.0825 10.2018 15.7726 9.78956 15.4092 9.36391Z" fill="#9C9C9C"/>
<path d="M11.335 1.35208C11.3336 0.676118 11.863 0.144717 12.5376 0.145386C13.2123 0.145386 13.7397 0.676787 13.7376 1.35476C13.7356 2.01466 13.2056 2.54807 12.5477 2.55409C11.8777 2.55944 11.3363 2.02269 11.335 1.35275V1.35208Z" fill="#9C9C9C"/>
<path d="M6.52058 5.36705C6.5179 6.03766 5.98048 6.56304 5.30251 6.55902C4.63391 6.55434 4.11187 6.01491 4.11723 5.33426C4.12325 4.67703 4.65733 4.15433 5.32258 4.15567C5.99654 4.15701 6.52259 4.68908 6.51991 5.36772L6.52058 5.36705Z" fill="#9C9C9C"/>
<path d="M20.9535 5.36492C20.9515 6.0362 20.4147 6.56224 19.7374 6.55823C19.0675 6.55421 18.5455 6.01545 18.5508 5.33547C18.5562 4.67758 19.0896 4.15421 19.7548 4.15488C20.4295 4.15488 20.9562 4.68695 20.9542 5.36492H20.9535Z" fill="#9C9C9C"/>
<path d="M2.51276 6.96737C2.51075 7.63932 1.976 8.16604 1.29803 8.16269C0.628091 8.15934 0.104721 7.62125 0.109406 6.94127C0.114091 6.28338 0.6475 5.75867 1.31142 5.75934C1.98604 5.75934 2.51409 6.29074 2.51209 6.96804L2.51276 6.96737Z" fill="#9C9C9C"/>
<path d="M23.75 5.75855C24.4279 5.75654 24.9593 6.28326 24.96 6.95788C24.9607 7.63318 24.43 8.16324 23.7547 8.16257C23.0921 8.1619 22.5607 7.63452 22.5567 6.97595C22.5526 6.29731 23.0774 5.76123 23.7493 5.75922L23.75 5.75855Z" fill="#9C9C9C"/>
<path d="M14.1176 14.0369C13.9717 14.9043 13.1251 15.5073 12.2624 15.3574C11.4091 15.2095 10.8121 14.3702 10.9533 13.5156C11.0965 12.6502 11.9485 12.0432 12.8079 12.1958C13.6645 12.3477 14.2602 13.1849 14.117 14.0369H14.1176Z" fill="#9C9C9C"/>
</svg>
