<svg width="12" height="10" viewBox="0 0 12 10" fill="none" xmlns="http://www.w3.org/2000/svg">
<path d="M10.631 3.73305C10.474 4.42805 10.309 5.11505 10.167 5.80705C10.025 6.49705 9.94799 7.19706 9.93399 7.90706H1.47601C1.43801 6.48506 1.13499 5.10705 0.773987 3.72905C0.811987 3.77205 0.850015 3.81605 0.890015 3.85805C1.40501 4.41205 1.999 4.85004 2.741 5.04204C3.001 5.10904 3.27801 5.15104 3.54501 5.14204C3.89001 5.13004 4.10999 4.87704 4.30499 4.62004C4.66399 4.14904 4.90901 3.61604 5.10101 3.06204C5.30601 2.46704 5.47699 1.85905 5.66299 1.25705C5.67299 1.22305 5.68501 1.18905 5.70401 1.12805C5.78601 1.42205 5.85399 1.69104 5.93399 1.95604C6.16099 2.71904 6.41599 3.47304 6.80899 4.17004C6.91599 4.35904 7.04599 4.53604 7.17599 4.71104C7.46199 5.09604 7.842 5.20806 8.311 5.12706C9.197 4.97306 9.9 4.51305 10.504 3.87505C10.548 3.82805 10.59 3.77905 10.631 3.73305ZM6.44 6.25804C6.442 5.86204 6.11 5.52604 5.711 5.52104C5.31 5.51504 4.96899 5.85305 4.96799 6.25505C4.96699 6.65305 5.29901 6.98903 5.69601 6.99403C6.09801 6.99803 6.437 6.66205 6.44 6.25905V6.25804Z" fill="white"/>
<path d="M1.47501 9.19394V8.10693H9.92599V9.19394H1.47501Z" fill="white"/>
<path d="M2.76199 2.95595C3.20099 3.51695 3.66199 4.00696 4.35999 4.22296C4.17199 4.50896 3.99799 4.80395 3.66599 4.93095C3.54399 4.97695 3.393 4.96995 3.259 4.95695C3.063 4.93695 2.86899 4.88995 2.66699 4.85295C2.86299 4.22595 2.80399 3.60595 2.76199 2.95595Z" fill="white"/>
<path d="M7.02301 4.23105C7.74101 4.01105 8.20399 3.52304 8.63599 2.96704C8.62399 3.29304 8.60401 3.60205 8.60501 3.91205C8.60501 4.22105 8.62699 4.53105 8.73999 4.83705C8.43899 4.93205 8.13499 4.99904 7.82599 4.95604C7.70999 4.94004 7.58499 4.86504 7.49899 4.78004C7.33199 4.61604 7.19001 4.42705 7.02301 4.23105Z" fill="white"/>
<path d="M5.15201 0.554001C5.15101 0.244001 5.39401 0 5.70401 0C6.01401 0 6.25601 0.243993 6.25501 0.554993C6.25401 0.857993 6.01102 1.103 5.70902 1.106C5.40102 1.108 5.15301 0.862001 5.15201 0.554001Z" fill="white"/>
<path d="M2.94299 2.39707C2.94199 2.70507 2.695 2.94606 2.384 2.94406C2.077 2.94206 1.83699 2.69407 1.83999 2.38207C1.84299 2.08007 2.088 1.84007 2.393 1.84107C2.702 1.84107 2.94399 2.08607 2.94299 2.39707Z" fill="white"/>
<path d="M9.567 2.39597C9.566 2.70397 9.32002 2.94497 9.00902 2.94397C8.70202 2.94197 8.462 2.69397 8.464 2.38197C8.467 2.07997 8.71201 1.83997 9.01701 1.83997C9.32701 1.83997 9.56801 2.08497 9.56801 2.39597H9.567Z" fill="white"/>
<path d="M1.10301 3.13103C1.10201 3.44003 0.857002 3.68202 0.546002 3.68002C0.238002 3.67802 -0.00198759 3.43103 1.24095e-05 3.11903C0.00201241 2.81703 0.247014 2.57703 0.552014 2.57703C0.861014 2.57703 1.10401 2.82103 1.10301 3.13203V3.13103Z" fill="white"/>
<path d="M10.852 2.57703C11.163 2.57603 11.407 2.81703 11.407 3.12703C11.407 3.43703 11.164 3.68003 10.854 3.68003C10.55 3.68003 10.306 3.43803 10.304 3.13503C10.302 2.82403 10.544 2.57803 10.852 2.57703Z" fill="white"/>
<path d="M6.42999 6.37604C6.36299 6.77504 5.974 7.05103 5.578 6.98203C5.186 6.91503 4.91199 6.52903 4.97699 6.13703C5.04299 5.74003 5.43401 5.46104 5.82901 5.53104C6.22201 5.60104 6.49498 5.98504 6.42898 6.37604H6.42999Z" fill="white"/>
</svg>
