<?xml version="1.0" standalone="no"?><!DOCTYPE svg PUBLIC "-//W3C//DTD SVG 1.1//EN" "http://www.w3.org/Graphics/SVG/1.1/DTD/svg11.dtd"><svg t="1730398907577" class="icon" viewBox="0 0 1024 1024" version="1.1" xmlns="http://www.w3.org/2000/svg" p-id="5557" xmlns:xlink="http://www.w3.org/1999/xlink" width="200" height="200"><path d="M493.44708772 135.54847308a18.12144879 18.12144879 0 0 0-2.76855469 9.60005298V213.57137762A341.57492884 341.57492884 0 0 0 170.42507116 554.499112c0 188.29767366 152.55815014 341.57492884 341.57492884 341.57492884s341.57492884-153.27725519 341.57492884-341.57492884a340.85582379 340.85582379 0 0 0-22.97540802-123.36248181c-6.93936457-17.90571705-27.61363629-26.96644183-46.23845918-20.35067528-18.62482209 6.68767791-28.04509978 26.57093402-21.14169012 44.44069615 12.11692102 31.35298268 18.44504602 64.82732634 18.44504602 99.23650605 0 150.83229773-121.09730121 272.50488281-269.66441754 272.50488281s-269.66441754-121.67258508-269.66441754-272.46892792c0-143.53338103 109.66352955-260.67560334 248.34295057-271.64195661v67.4161042a18.12144879 18.12144879 0 0 0 27.75745746 15.3169392l163.5245034-102.54438891a18.12144879 18.12144879 0 0 0 0-30.66983332L518.43599049 129.79563195a18.12144879 18.12144879 0 0 0-24.98890277 5.75284113zM591.1015625 436.38609723c-72.80939241 0-110.09499304 49.2587005-110.09499304 134.76029859 0 85.46564241 37.28559986 134.72434289 110.09499304 134.72434289s109.73544012-49.2587005 109.73544012-134.72434289c0-85.50159808-36.92604773-134.76029858-109.73544012-134.76029859z m-190.52690014 5.82475171c-9.02476911 40.91708075-33.65411897 52.49467358-67.34419361 54.6519887l-5.78879602 0.35955214v41.70809638h60.1171875v161.15145653H448.71875V442.24680384h-48.18004254z m190.56285505 44.90811378c29.30353303 0 45.95081683 22.79563195 45.95081683 84.0274331 0 61.19584545-16.28773089 84.02743231-45.98677174 84.02743231-29.69904084 0-46.38227955-22.83158764-46.38227955-84.02743231 0-61.23180036 16.68323871-84.02743231 46.38227955-84.0274331z" fill="#333333" p-id="5558"></path></svg>