<?xml version="1.0" standalone="no"?><!DOCTYPE svg PUBLIC "-//W3C//DTD SVG 1.1//EN" "http://www.w3.org/Graphics/SVG/1.1/DTD/svg11.dtd"><svg t="1730398947999" class="icon" viewBox="0 0 1024 1024" version="1.1" xmlns="http://www.w3.org/2000/svg" p-id="5712" xmlns:xlink="http://www.w3.org/1999/xlink" width="200" height="200"><path d="M530.59918499 119.52672084c1.83423916 2.9347825 2.82472833 6.3464675 2.82472834 9.79483749v69.81114084a348.50543499 348.50543499 0 0 1 326.75135834 347.84510916c0 192.15489166-155.6535325 348.50543499-348.505435 348.50543418-192.8152175 0-348.50543499-156.35054333-348.50543418-348.50543417a347.77173916 347.77173916 0 0 1 23.47826084-125.828805c7.04347834-18.26902166 28.17391333-27.55027166 47.13994501-20.76358667 19.0027175 6.786685 28.65081501 27.11005418 21.5706525 45.34239167a279.6847825 279.6847825 0 0 0-18.81929334 101.25c0 153.89266333 123.55434751 277.9972825 275.13586917 277.99728249s275.13586917-124.10461917 275.13587-277.99728249c0-146.44565249-111.88858667-265.92798916-253.38179334-277.11684834v68.74728251a18.48913083 18.48913083 0 0 1-28.28396751 15.6644025L338.26086917 249.647645a18.48913083 18.48913083 0 0 1 0-31.32880417l166.87907666-104.625a18.48913083 18.48913083 0 0 1 25.45923916 5.83288002z m61.81385834 307.01494583c74.28668499 0 111.96195667 50.25815249 111.96195667 137.45788083 0 87.23641333-37.67527167 137.494565-111.96195667 137.49456499-74.28668499 0-112.36548916-50.25815249-112.36548916-137.49456499 0-87.19972834 38.07880418-137.45788083 112.36548916-137.45788083z m-145.27173916 5.90625v263.13994582H384.77717416v-164.45788081H323.36684751v-42.51766252l5.90625-0.36684832c34.37364167-2.20108667 59.5027175-14.01358667 68.74728332-55.76086917h49.15760833z m145.27173916 45.85597833c-30.30163083 0-47.32336917 23.25815249-47.32336917 85.6956525 0 62.47418499 17.02173916 85.73233667 47.32336917 85.73233667 30.30163083 0 46.95652166-23.25815249 46.95652167-85.73233667 0-62.4375-17.02173916-85.73233667-46.95652167-85.7323375z" fill="#333333" p-id="5713"></path></svg>