<svg width="196" height="148" viewBox="0 0 196 148" fill="none" xmlns="http://www.w3.org/2000/svg">
<path d="M98 124C50.5035 124 12 134.745 12 148H184C184 134.745 145.496 124 98 124Z" fill="url(#paint0_linear_2095_8296)" fill-opacity="0.5"/>
<path d="M49 28C49 21.3726 54.3726 16 61 16H125C131.627 16 137 21.3726 137 28V104C137 110.627 131.627 116 125 116H61C54.3726 116 49 110.627 49 104V28Z" fill="url(#paint1_linear_2095_8296)"/>
<path d="M53 32.1519C53 25.4406 58.4406 20 65.1519 20H120.848C127.559 20 133 25.4406 133 32.1519V100C133 106.627 127.627 112 121 112H65C58.3726 112 53 106.627 53 100V32.1519Z" fill="#F3F3F3"/>
<rect x="67" y="40" width="43" height="6" rx="3" fill="#DADCE2"/>
<rect x="67" y="54" width="43" height="6" rx="3" fill="#E3E4E8"/>
<rect x="67" y="68" width="26" height="6" rx="3" fill="#E9EAEC"/>
<path fill-rule="evenodd" clip-rule="evenodd" d="M87 8C85.8954 8 85 8.89543 85 10V15H73C71.8954 15 71 15.8954 71 17V24H115V17C115 15.8954 114.105 15 113 15H101V10C101 8.89543 100.105 8 99 8H87Z" fill="url(#paint2_linear_2095_8296)"/>
<path fill-rule="evenodd" clip-rule="evenodd" d="M115.544 116.504C116.695 116.12 121.241 117.832 124.08 119.301V119.033H137.08V122.211C138.687 122.268 142.879 123.07 143.825 123.413C145.311 123.953 146.217 124.797 143.613 125.957C143.185 126.147 140.623 126.321 137.08 125.222V125.533C137.08 126.545 136.849 127.502 136.437 128.356L136.457 134.895C136.459 135.725 135.787 136.4 134.957 136.4C134.13 136.4 133.459 135.731 133.457 134.904L133.446 131.369C132.582 131.794 131.609 132.033 130.58 132.033C129.405 132.033 128.302 131.721 127.351 131.176L127.497 133.956C127.542 134.813 126.86 135.533 126.001 135.533C125.205 135.533 124.547 134.909 124.505 134.114L124.08 126.033H124.099C124.086 125.868 124.08 125.701 124.08 125.533V123.893C122.397 123.378 117.934 121.206 117.044 120.505C115.802 119.526 114.12 116.978 115.544 116.504Z" fill="url(#paint3_linear_2095_8296)"/>
<path d="M118.461 103.85C119.183 96.2009 125.969 90.5852 133.619 91.3071C141.268 92.0289 146.884 98.8151 146.162 106.464L145.48 113.688C145.074 117.995 141.253 121.156 136.947 120.75L124.841 119.608C120.535 119.201 117.373 115.381 117.78 111.074L118.461 103.85Z" fill="url(#paint4_linear_2095_8296)"/>
<mask id="mask0_2095_8296" style="mask-type:alpha" maskUnits="userSpaceOnUse" x="53" y="20" width="80" height="92">
<path d="M53 32.1519C53 25.4406 58.4406 20 65.1519 20H120.848C127.559 20 133 25.4406 133 32.1519V100C133 106.627 127.627 112 121 112H65C58.3726 112 53 106.627 53 100V32.1519Z" fill="#F3F3F3"/>
</mask>
<g mask="url(#mask0_2095_8296)">
<path d="M93.7939 120.752H59.1993C56.4217 120.752 54.0787 118.702 53.712 115.958L50.0312 88.3176C49.6237 85.2411 53.3045 83.3396 55.5864 85.4517L61.7732 91.1767C63.1586 92.4602 65.3454 92.3312 66.5678 90.8914L73.9635 82.1715C75.2878 80.6095 77.7054 80.6095 79.0365 82.1715L86.4322 90.8914C87.6546 92.3312 89.8414 92.467 91.2268 91.1767L97.4136 85.4517C99.6955 83.3396 103.376 85.2343 102.969 88.3176L99.288 115.958C98.9145 118.702 96.5715 120.752 93.7939 120.752Z" fill="#D9DADC" fill-opacity="0.35"/>
</g>
<defs>
<linearGradient id="paint0_linear_2095_8296" x1="98" y1="124" x2="98" y2="148" gradientUnits="userSpaceOnUse">
<stop stop-color="#EAEDF1" stop-opacity="0.71"/>
<stop offset="1" stop-color="#F9F9FA" stop-opacity="0"/>
</linearGradient>
<linearGradient id="paint1_linear_2095_8296" x1="93" y1="16" x2="93" y2="116" gradientUnits="userSpaceOnUse">
<stop stop-color="#E5E8ED"/>
<stop offset="1" stop-color="#DBDFE5"/>
</linearGradient>
<linearGradient id="paint2_linear_2095_8296" x1="92.5" y1="8" x2="92.5" y2="28.5" gradientUnits="userSpaceOnUse">
<stop stop-color="#D6D8E1"/>
<stop offset="0.54" stop-color="#B1B4BB"/>
<stop offset="1" stop-color="#92949B"/>
</linearGradient>
<linearGradient id="paint3_linear_2095_8296" x1="128.443" y1="117.72" x2="128.443" y2="135.52" gradientUnits="userSpaceOnUse">
<stop stop-color="#DFDFDF"/>
<stop offset="1" stop-color="#878992"/>
</linearGradient>
<linearGradient id="paint4_linear_2095_8296" x1="133.619" y1="91.3071" x2="130.044" y2="118.5" gradientUnits="userSpaceOnUse">
<stop stop-color="#EBEFFF"/>
<stop offset="1" stop-color="#9A9EA4"/>
</linearGradient>
</defs>
</svg>
