<svg width="196" height="148" viewBox="0 0 196 148" fill="none" xmlns="http://www.w3.org/2000/svg">
<path d="M98 124C50.5035 124 12 134.745 12 148H184C184 134.745 145.496 124 98 124Z" fill="url(#paint0_linear_2092_4253)" fill-opacity="0.5"/>
<path fill-rule="evenodd" clip-rule="evenodd" d="M92.5 45L92 90.5322L145.894 88.9412L149.5 50L92.5 45Z" fill="url(#paint1_linear_2092_4253)"/>
<path fill-rule="evenodd" clip-rule="evenodd" d="M92.5 45L45 53L47.6683 88.1408L92.8404 90.5322L92.5 45Z" fill="url(#paint2_linear_2092_4253)"/>
<path fill-rule="evenodd" clip-rule="evenodd" d="M44.6113 129.898V53L91.5098 82.7656L101.8 57V145.323L44.6113 129.898Z" fill="url(#paint3_linear_2092_4253)"/>
<path opacity="0.31" d="M96.0782 103.827C95.9337 103.59 95.8032 103.344 95.6875 103.092C95.7457 103.13 95.803 103.169 95.8619 103.206C95.922 103.417 95.9942 103.624 96.0782 103.827ZM95.6547 108.659C95.6289 108.633 95.6021 108.607 95.5753 108.58C95.5088 108.408 95.4371 108.239 95.3673 108.069C95.4562 108.27 95.5522 108.467 95.6547 108.659ZM90.1784 104.597C89.7942 104.344 89.4083 104.094 89.0159 103.852C89.0648 103.776 89.1129 103.701 89.1601 103.625C89.5127 103.064 89.8579 102.496 90.2561 101.97C90.2893 101.928 90.3196 101.885 90.3508 101.841C90.4273 101.915 90.5006 101.993 90.5706 102.073C90.6402 102.308 90.7039 102.545 90.7719 102.783C90.9312 103.354 91.0949 103.924 91.2532 104.496C91.3274 104.768 91.3996 105.037 91.4701 105.307C91.4834 105.358 91.4947 105.411 91.5054 105.468C91.0631 105.178 90.6208 104.888 90.1785 104.597L90.1784 104.597ZM85.8212 82.8195C85.8255 82.8152 85.8304 82.8123 85.8339 82.8092C85.8865 82.7713 85.9426 82.7352 85.9972 82.7007C85.9395 82.7411 85.8807 82.7795 85.8212 82.8195ZM85.8887 101.231L85.8896 101.231C85.8886 101.229 85.8884 101.226 85.8874 101.223C85.8884 101.226 85.8894 101.229 85.8895 101.23L85.8896 101.231C85.8896 101.231 85.8896 101.233 85.8905 101.233L85.8908 101.238C85.8903 101.245 85.8844 101.233 85.8887 101.231ZM100.172 104.991C100.169 104.971 100.165 104.953 100.163 104.935C100.133 104.776 100.106 104.617 100.078 104.459C100.024 104.156 99.9709 103.85 99.9118 103.544C99.729 102.586 99.5004 101.629 99.0839 100.745C98.8432 100.233 98.5272 99.7971 98.1278 99.3978C97.7118 98.9843 97.2558 98.6104 96.8914 98.1567C96.4812 97.6445 96.2615 97.0448 96.068 96.4181C95.8944 95.8597 95.6917 95.3193 95.4508 94.7861C95.334 94.5239 95.2084 94.2559 95.0695 93.9914C95.3883 94.3054 95.6842 94.6373 95.9296 95.014C96.5756 96.006 97.065 97.106 97.6507 98.1409C97.6527 98.1464 97.6548 98.1521 97.6604 98.1594C97.6787 98.193 97.7139 98.2098 97.7454 98.2078C97.8031 98.2035 97.8552 98.1548 97.8538 98.0904C97.8533 98.0819 97.8512 98.0733 97.849 98.0642C97.8468 98.0569 97.8448 98.0512 97.8446 98.0469C97.4832 96.8913 97.1059 95.7348 96.5669 94.6467C96.3071 94.1227 95.9993 93.6236 95.7828 93.0833C95.7055 92.8886 95.635 92.6909 95.5654 92.4923C95.9113 92.9486 96.3065 93.3675 96.6912 93.789C97.0454 94.1792 97.3912 94.5785 97.7176 94.9928C97.9979 95.3479 98.1871 95.7783 98.4857 96.1299C98.4895 96.1362 98.496 96.1421 98.5006 96.1462C98.5276 96.1783 98.5661 96.1917 98.6011 96.1887C98.6571 96.1859 98.7139 96.1435 98.7115 96.0769C98.7108 96.0633 98.7076 96.0513 98.7026 96.0374C98.24 94.861 97.2851 94.0012 96.6375 92.9557C96.2669 92.3595 95.9289 91.7448 95.6132 91.1192C95.5118 90.9199 95.4072 90.723 95.3111 90.5236C95.2788 90.4552 95.2221 90.3562 95.1765 90.2544C95.0093 88.7983 94.6913 87.3134 94.073 85.9756C93.9427 84.9786 93.7112 83.9982 93.272 83.0969C92.9011 82.3348 92.3667 81.6592 91.6659 81.1729C91.0197 80.7226 90.2277 80.5229 89.4513 80.4915C89.2988 80.4856 89.146 80.4863 88.9935 80.4937C87.6955 80.5582 86.2505 81.1137 85.7906 82.3833C85.2882 82.7052 84.8714 83.1368 84.5239 83.6255C84.4459 83.6789 84.3687 83.7334 84.2922 83.789C83.3189 84.5029 82.6351 85.4541 82.3942 86.6531C82.2969 87.1346 82.2587 87.6213 82.2826 88.1041C82.3051 88.5555 82.3809 89.0039 82.5133 89.4414C82.7642 90.2821 83.178 91.0595 83.6092 91.8147C83.9702 92.4484 84.3511 93.0765 84.6511 93.7391C84.6485 93.7419 84.6453 93.7445 84.6428 93.7488C84.6428 93.7479 84.6428 93.7479 84.641 93.7489C84.0011 94.1509 83.2565 94.4085 82.7572 95.0233C82.5271 95.308 82.3442 95.6228 82.1791 95.9452C82.0485 96.1999 81.8909 96.4743 81.7908 96.757C81.7235 96.824 81.655 96.8896 81.5852 96.9539C81.0365 97.4587 80.3911 97.8387 79.796 98.2945C79.3305 98.6515 78.8716 99.0517 78.5731 99.5712C78.3485 99.9651 78.1936 100.458 78.2162 100.931C78.2237 101.064 78.2444 101.195 78.2822 101.321C78.2852 101.329 78.2874 101.337 78.2912 101.343C78.2901 101.392 78.2908 101.441 78.2932 101.49C78.305 101.728 78.3512 101.967 78.4205 102.194C78.593 102.766 78.8828 103.403 79.3264 103.822C79.3467 103.842 79.3744 103.851 79.3998 103.85C79.4033 103.85 79.4085 103.849 79.411 103.847C79.4837 103.912 79.5587 103.972 79.6388 104.029C79.6365 104.323 79.6429 104.617 79.658 104.91C79.6898 105.549 79.7531 106.187 79.8203 106.815C79.93 107.876 80.1084 108.916 80.3078 109.961C80.4222 110.564 80.5464 111.172 80.6047 111.78C79.9587 111.389 79.3144 110.994 78.6637 110.612C77.7243 110.061 76.7737 109.532 75.8199 109.01C75.3285 108.741 74.8355 108.475 74.3451 108.206C73.9851 108.008 73.629 107.79 73.254 107.616C71.9278 107.001 70.5196 106.405 69.0632 106.177C68.7467 106.126 68.3954 106.085 68.049 106.102C67.9864 106.105 67.9231 106.11 67.8618 106.118C67.8342 106.101 67.8023 106.093 67.7702 106.095C67.7513 106.096 67.7326 106.099 67.715 106.107C67.6605 106.125 67.6077 106.149 67.5589 106.173C67.4106 106.213 67.2688 106.269 67.1353 106.35C66.8973 106.491 66.7308 106.697 66.6292 106.932C66.5787 106.981 66.529 107.032 66.4802 107.083C66.2826 107.287 66.0938 107.499 65.9144 107.72C65.8218 107.831 65.7314 107.944 65.6431 108.059C65.555 108.173 65.4755 108.312 65.3698 108.393C65.1165 108.585 64.957 108.912 64.7842 109.159C64.6034 109.419 64.4198 109.677 64.2336 109.933C63.8412 110.47 63.4095 110.96 62.9774 111.466C62.0972 112.498 61.1982 113.514 60.2758 114.51C59.8114 115.012 59.355 115.526 58.8561 115.99C58.3505 116.46 57.8856 116.968 57.3976 117.451C56.5304 118.31 55.6314 119.137 54.7349 119.965C54.0566 120.329 53.2952 120.555 52.5725 120.803C52.0708 120.974 51.5669 121.151 51.0893 121.386C50.5962 121.63 50.1649 121.962 49.7194 122.271C49.3058 122.557 48.8769 122.832 48.3875 122.953C48.2415 122.988 48.096 123.004 47.9488 123.011C47.6723 123.025 47.395 123.006 47.1135 123.02C47.0142 123.025 46.9152 123.035 46.8169 123.05C46.5445 123.095 46.1036 123.204 46.0375 123.554C46.0324 123.585 46.0307 123.613 46.0321 123.641C46.0609 124.026 46.6407 124.131 46.9002 124.164L46.9002 124.164C46.9064 124.165 46.9148 124.165 46.9214 124.164C46.9428 124.163 46.9627 124.157 46.9797 124.146C47.4981 124.312 47.9832 124.604 48.5255 124.726C48.7304 124.772 48.9406 124.79 49.1503 124.779C49.5785 124.758 49.9859 124.618 50.3744 124.393C50.6908 124.209 50.9886 124.014 51.3003 123.848C51.3118 123.851 51.3227 123.851 51.3342 123.85C51.3562 123.849 51.38 123.843 51.4009 123.831C51.5082 123.77 51.6088 123.708 51.7124 123.655C51.8722 123.59 52.0372 123.54 52.2057 123.504C52.2357 123.497 52.2649 123.491 52.2945 123.486L52.3247 123.485C52.5425 123.474 52.759 123.497 52.9743 123.542C53.1132 123.569 53.2582 123.606 53.4041 123.644C53.6231 123.787 53.9466 123.817 54.2017 123.805C54.2424 123.803 54.2813 123.799 54.3181 123.796C54.392 123.789 54.4653 123.777 54.5378 123.76C54.5487 123.759 54.5596 123.757 54.5712 123.754C54.5965 123.748 54.6241 123.741 54.6496 123.733C54.6563 123.732 54.6606 123.731 54.6653 123.729C54.8616 123.672 55.0487 123.583 55.2141 123.447C55.4766 123.23 55.6603 122.922 55.7367 122.593C55.8158 122.248 55.7523 121.9 55.7749 121.568C56.2953 121.282 56.83 121.025 57.3626 120.762C57.9408 120.478 58.5009 120.169 59.0619 119.857C60.2854 119.177 61.5743 118.618 62.806 117.944C63.904 117.342 65.1077 116.659 65.8772 115.631C66.6359 114.615 67.1787 113.458 67.9186 112.434C68.1797 112.073 68.4617 111.71 68.7855 111.401C69.8415 112.514 70.9973 113.521 72.158 114.518C73.2626 115.465 74.3384 116.438 75.4764 117.344C75.1972 117.446 74.9185 117.549 74.6404 117.654C72.7523 118.367 70.8334 119.022 69.0477 119.979C68.3254 120.367 67.6124 120.785 66.956 121.278C66.3991 121.697 65.809 122.182 65.4763 122.817C65.3358 123.085 65.261 123.375 65.2752 123.659C65.2875 123.908 65.3683 124.153 65.5323 124.375C65.8602 124.814 66.3605 125.068 66.8695 125.226C67.9298 125.556 69.0837 125.588 70.2052 125.532C70.5882 125.513 70.9685 125.483 71.3405 125.452C72.8193 125.329 74.2843 125.099 75.7481 124.866C76.3653 124.768 76.982 124.696 77.6014 124.604C78.9166 124.408 80.2258 124.161 81.5178 123.848C83.354 123.404 85.2015 122.848 86.9598 122.107C87.6158 121.941 88.2485 121.678 88.847 121.361C89.7521 120.884 90.5945 120.225 91.0792 119.298C91.4554 118.576 91.6083 117.761 91.5682 116.952C91.5662 116.914 91.5645 116.879 91.5608 116.842C91.4982 115.97 91.2925 115.087 90.8919 114.306C90.5036 113.547 89.993 112.783 89.3084 112.251C89.0552 111.957 88.8075 111.658 88.5653 111.355C88.186 110.884 87.8243 110.396 87.5363 109.866C87.2075 109.261 86.9762 108.602 86.9446 107.931C86.9257 107.551 86.9699 107.168 87.0935 106.787C87.2462 106.326 87.4893 105.934 87.7738 105.555C87.9206 105.687 88.0666 105.819 88.2118 105.953C89.1532 106.811 90.0813 107.682 91.0371 108.527C91.798 109.199 92.573 109.923 93.4457 110.46C93.8155 110.687 94.2292 110.896 94.6775 110.918C94.7233 110.92 94.7699 110.92 94.8163 110.918C94.9697 110.911 95.1173 110.875 95.2627 110.812C95.2657 110.811 95.2685 110.81 95.2713 110.808C95.4683 110.74 95.6402 110.627 95.7512 110.424C95.8574 110.224 95.8937 109.998 95.8827 109.777C95.8811 109.745 95.8796 109.714 95.8763 109.684C95.8538 109.48 95.8088 109.28 95.7516 109.085C95.877 109.203 96.0041 109.321 96.1363 109.434C96.1417 109.438 96.1473 109.444 96.1536 109.448C96.1784 109.469 96.2069 109.478 96.2351 109.477C96.3006 109.473 96.3561 109.418 96.3543 109.349C96.3533 109.329 96.3461 109.306 96.331 109.287C96.3272 109.281 96.3234 109.276 96.3186 109.267C95.8782 108.66 95.5596 107.979 95.3099 107.271C95.1955 106.946 95.0973 106.615 94.9991 106.284C95.6926 107.58 96.5483 108.797 97.9459 109.428C97.9514 109.432 97.9595 109.435 97.9686 109.438C97.9865 109.446 98.005 109.45 98.0226 109.449C98.056 109.447 98.0874 109.432 98.1099 109.407C98.1325 109.382 98.1445 109.35 98.1433 109.316C98.1418 109.286 98.1281 109.256 98.0997 109.232C98.0932 109.226 98.0867 109.221 98.0831 109.217C97.2491 108.524 96.617 107.599 96.087 106.659C95.7913 106.134 95.544 105.597 95.3584 105.025C95.2753 104.766 95.1963 104.503 95.1174 104.241C95.3227 104.554 95.5341 104.864 95.7411 105.175C95.9889 105.548 96.2586 106.007 96.6883 106.219C96.7009 106.226 96.7151 106.231 96.7278 106.237C96.7457 106.245 96.7652 106.249 96.7827 106.248C96.8485 106.244 96.8912 106.185 96.8883 106.125C96.8873 106.106 96.882 106.087 96.8723 106.069C96.4207 105.254 95.9612 104.424 95.7116 103.537C96.0381 104.131 96.4428 104.674 96.9068 105.169C96.9374 105.203 96.9681 105.237 97.0014 105.27C97.0708 105.343 97.1423 105.414 97.2158 105.483C97.2177 105.486 97.2195 105.487 97.2195 105.487L97.2213 105.488C97.8186 106.05 98.5115 106.485 99.1909 106.933C99.2091 106.944 99.2297 106.951 99.2489 106.949C99.2997 106.946 99.3417 106.905 99.34 106.854C99.3388 106.831 99.3262 106.807 99.3051 106.789C98.6037 106.219 97.8122 105.743 97.1961 105.086C97.1775 105.064 97.157 105.043 97.1375 105.022C96.7144 104.552 96.4092 103.998 96.2023 103.405C96.5147 103.574 96.8448 103.709 97.193 103.787C97.8594 103.935 98.5428 103.93 99.2043 104.053C99.2131 104.054 99.2185 104.056 99.2275 104.058C99.2363 104.059 99.245 104.059 99.2556 104.058C99.3258 104.055 99.3664 103.991 99.3634 103.931C99.3615 103.893 99.3403 103.854 99.2991 103.837C99.292 103.832 99.2844 103.829 99.2766 103.826C98.4885 103.474 97.6583 103.192 96.9282 102.736C96.503 102.47 96.1485 102.147 95.8662 101.768C95.8608 101.697 95.8564 101.624 95.8528 101.553C95.8124 100.739 95.8926 99.9306 95.9079 99.106C95.9105 98.998 95.9103 98.889 95.9092 98.7805C95.9466 98.8247 95.9875 98.8667 96.028 98.9072C96.2806 99.17 96.5566 99.4092 96.8525 99.622C97.1817 99.8604 97.5242 100.069 97.8183 100.346C98.4724 100.957 98.9704 101.73 99.3222 102.552C99.3907 102.711 99.4566 102.869 99.5137 103.031C99.5864 103.361 99.6523 103.698 99.7148 104.034C99.7247 104.199 99.7341 104.37 99.7645 104.539C99.794 104.708 99.8578 104.861 99.8955 105.018C99.8976 105.028 99.8999 105.037 99.9021 105.046C99.9177 105.113 99.9808 105.144 100.035 105.139C100.102 105.136 100.177 105.089 100.174 105.007C100.174 105.001 100.174 104.995 100.172 104.991Z" fill="#9A9FA7" fill-opacity="0.37"/>
<path fill-rule="evenodd" clip-rule="evenodd" d="M44.622 52.8848L37 72.864L95.1181 85.2498L102.37 56.7721L44.622 52.8848Z" fill="url(#paint4_linear_2092_4253)"/>
<path fill-rule="evenodd" clip-rule="evenodd" d="M149.425 50L101.787 57V145.304L149.425 129.5V50Z" fill="url(#paint5_linear_2092_4253)"/>
<path fill-rule="evenodd" clip-rule="evenodd" d="M149.426 50L101.5 56.7363L107.504 83.3464L158 70.9606L149.426 50Z" fill="url(#paint6_linear_2092_4253)"/>
<path d="M45 19C45 16.2386 47.2386 14 50 14H71C73.7614 14 76 16.2386 76 19V32.7226C76 35.4841 73.7614 37.7226 71 37.7226H66.5107C65.0686 37.7226 63.6967 38.3453 62.7473 39.4308L61.2271 41.1687C60.8377 41.6139 60.1492 41.6257 59.7448 41.1941L57.973 39.3036C57.0277 38.2949 55.707 37.7226 54.3247 37.7226H50C47.2386 37.7226 45 35.4841 45 32.7226V19Z" fill="url(#paint7_linear_2092_4253)"/>
<path d="M55.9259 21.5471C57.2657 20.1598 59.4016 20.099 60.8111 21.365L60.9025 21.4502L60.9172 21.4647C60.9633 21.5103 61.0359 21.5105 61.0821 21.465L61.119 21.4293C62.527 20.0974 64.7119 20.1367 66.0741 21.5471C67.4753 22.998 67.4753 25.3503 66.0741 26.8012L61.8457 31.1796C61.3786 31.6632 60.6214 31.6632 60.1543 31.1796L55.9259 26.8012C54.5247 25.3503 54.5247 22.998 55.9259 21.5471Z" fill="#F3F5F8"/>
<path d="M127 36.1006C132.6 33.0672 143.66 25.7406 143.1 20.7006C142.4 14.4006 136.8 11.6 134 13.0006C132.229 13.8863 130.5 17.2 133.3 20C136.1 22.8 141 25.6 145.9 20.7C150.8 15.8 153.6 11.6 155 6" stroke="url(#paint8_linear_2092_4253)" stroke-width="1.4" stroke-linecap="round"/>
<defs>
<linearGradient id="paint0_linear_2092_4253" x1="98" y1="124" x2="98" y2="148" gradientUnits="userSpaceOnUse">
<stop stop-color="#EAEDF1" stop-opacity="0.71"/>
<stop offset="1" stop-color="#F9F9FA" stop-opacity="0"/>
</linearGradient>
<linearGradient id="paint1_linear_2092_4253" x1="120.526" y1="45" x2="120.526" y2="90.5322" gradientUnits="userSpaceOnUse">
<stop stop-color="#BFC4CB"/>
<stop offset="1" stop-color="#C1C1CB"/>
</linearGradient>
<linearGradient id="paint2_linear_2092_4253" x1="69.0691" y1="45" x2="69.0691" y2="90.5322" gradientUnits="userSpaceOnUse">
<stop stop-color="#D5D9DE"/>
<stop offset="1" stop-color="#C8CED7"/>
</linearGradient>
<linearGradient id="paint3_linear_2092_4253" x1="73.2054" y1="79.5547" x2="73.2054" y2="145.323" gradientUnits="userSpaceOnUse">
<stop stop-color="#F4F4F4"/>
<stop offset="1" stop-color="#F3F3F3"/>
</linearGradient>
<linearGradient id="paint4_linear_2092_4253" x1="37" y1="69.0673" x2="102.37" y2="69.0673" gradientUnits="userSpaceOnUse">
<stop stop-color="#E3E4E8"/>
<stop offset="1" stop-color="#DEE0E8"/>
</linearGradient>
<linearGradient id="paint5_linear_2092_4253" x1="125.606" y1="75.7715" x2="125.606" y2="145.304" gradientUnits="userSpaceOnUse">
<stop stop-color="#EBEDF0"/>
<stop offset="1" stop-color="#D9D9DF"/>
</linearGradient>
<linearGradient id="paint6_linear_2092_4253" x1="101.39" y1="66.6732" x2="158" y2="66.6732" gradientUnits="userSpaceOnUse">
<stop stop-color="#E3E4E8"/>
<stop offset="1" stop-color="#DEE0E8"/>
</linearGradient>
<linearGradient id="paint7_linear_2092_4253" x1="60.5" y1="14" x2="60.5" y2="52.0938" gradientUnits="userSpaceOnUse">
<stop stop-color="#D4D7DF"/>
<stop offset="1" stop-color="#BDBFC9"/>
</linearGradient>
<linearGradient id="paint8_linear_2092_4253" x1="141" y1="6" x2="141" y2="36.1006" gradientUnits="userSpaceOnUse">
<stop stop-color="white"/>
<stop offset="1" stop-color="#999999"/>
</linearGradient>
</defs>
</svg>
