<svg width="196" height="186" viewBox="0 0 196 186" fill="none" xmlns="http://www.w3.org/2000/svg">
<path d="M98 124C50.5035 124 12 134.745 12 148H184C184 134.745 145.496 124 98 124Z" fill="url(#paint0_linear_2092_2536)" fill-opacity="0.5"/>
<path d="M54 15C54 8.37258 59.3726 3 66 3H130C136.627 3 142 8.37258 142 15V103H54V15Z" fill="url(#paint1_linear_2092_2536)"/>
<path d="M58 19.1519C58 12.4406 63.4406 7 70.1519 7H125.848C132.559 7 138 12.4406 138 19.1519V99H58V19.1519Z" fill="url(#paint2_linear_2092_2536)"/>
<path d="M47 66H54.5L66 81H99H131L140.5 66H149V128C149 132.418 145.418 136 141 136H55C50.5817 136 47 132.418 47 128V66Z" fill="url(#paint3_linear_2092_2536)"/>
<path d="M69 65.5C69 55.2827 77.2827 47 87.5 47C97.7173 47 106 55.2827 106 65.5V81H69V65.5Z" fill="url(#paint4_linear_2092_2536)"/>
<path d="M69 65.5C69 55.2827 77.2827 47 87.5 47C97.7173 47 106 55.2827 106 65.5V81H69V65.5Z" fill="url(#paint5_linear_2092_2536)"/>
<rect x="102" y="28" width="24" height="7" rx="3.5" fill="url(#paint6_linear_2092_2536)"/>
<rect x="102" y="41" width="24" height="7" rx="3.5" fill="url(#paint7_linear_2092_2536)"/>
<path d="M76.0608 65.1061C77.2787 65.8441 80.0404 66.669 81.3444 64.0652" stroke="#9A9FA7" stroke-width="0.99" stroke-linecap="round"/>
<path d="M91.7268 62.9655C92.9447 63.7034 95.7065 64.5284 97.0104 61.9246" stroke="#9A9FA7" stroke-width="0.99" stroke-linecap="round"/>
<g filter="url(#filter0_i_2092_2536)">
<circle cx="86.5" cy="73.5" r="1.5" fill="#9A9FA7"/>
</g>
<path d="M49.014 173.616V174.442C48.356 174.498 47.67 174.568 46.956 174.638V175.716H46.032V174.708C45.108 174.764 44.128 174.834 43.12 174.89L42.994 173.994C44.058 173.938 45.08 173.896 46.032 173.84V172.678H43.428L43.204 171.88C43.596 171.432 43.974 170.9 44.31 170.27H42.812V169.374H44.758C44.884 169.066 45.01 168.758 45.122 168.45L46.13 168.618C46.032 168.87 45.934 169.122 45.822 169.374H49.238V170.27H45.402C45.094 170.858 44.758 171.39 44.408 171.852H46.032V170.928H46.956V171.852H49.14V172.678H46.956V173.784C47.684 173.728 48.37 173.672 49.014 173.616ZM50.974 172.692C50.82 173.868 50.442 174.89 49.84 175.758L49.14 175.03C49.756 174.12 50.092 173.042 50.12 171.782V169.584C51.856 169.416 53.228 169.108 54.208 168.66L54.852 169.416C53.816 169.864 52.556 170.186 51.044 170.354V171.81H55.244V172.692H53.76V175.73H52.794V172.692H50.974ZM53.676 176.136V181.4H52.64V180.854H45.528V181.4H44.492V176.136H53.676ZM45.528 179.986H52.64V178.894H45.528V179.986ZM45.528 178.082H52.64V176.99H45.528V178.082ZM57.862 169.318H67.914V170.298H62.902V171.236C62.874 172.104 62.818 172.93 62.72 173.686H69.048V174.652H64.708V179.538C64.708 179.986 64.932 180.224 65.38 180.224H67.158C67.494 180.224 67.746 180.126 67.9 179.944C68.096 179.72 68.222 179.076 68.292 177.984L69.244 178.292C69.132 179.664 68.922 180.49 68.614 180.798C68.348 181.05 67.928 181.176 67.34 181.176H65.072C64.148 181.176 63.7 180.7 63.7 179.748V174.652H62.566C62.342 175.87 61.992 176.92 61.516 177.816C60.648 179.328 59.248 180.518 57.302 181.358L56.742 180.462C58.674 179.594 60.004 178.46 60.76 177.032C61.096 176.332 61.348 175.534 61.53 174.652H56.924V173.686H61.698C61.81 172.93 61.866 172.104 61.88 171.236V170.298H57.862V169.318ZM75.978 169.122V177.914H75.082V170.06H72.058V177.914H71.134V169.122H75.978ZM73.108 171.082H73.976V175.632C73.948 177.2 73.724 178.46 73.276 179.398C72.842 180.266 72.142 180.952 71.162 181.442L70.616 180.602C71.54 180.14 72.198 179.524 72.562 178.754C72.898 177.942 73.08 176.906 73.108 175.632V171.082ZM74.452 178.306C75.236 179.09 75.88 179.86 76.398 180.616L75.684 181.33C75.236 180.574 74.606 179.776 73.808 178.936L74.452 178.306ZM79.786 175.338H78.554V180.098C79.17 179.86 79.814 179.538 80.458 179.132L80.64 180.028C79.772 180.574 78.792 181.022 77.672 181.372L77.252 180.476C77.462 180.378 77.574 180.238 77.574 180.042V175.338H76.566V174.358H77.574V168.576H78.554V174.358H83.202V175.338H80.668C81.312 177.578 82.25 179.286 83.468 180.49L82.782 181.274C81.466 179.93 80.458 177.942 79.786 175.338ZM82.222 169.206L82.992 169.836C82.012 171.404 80.85 172.58 79.534 173.336L78.988 172.552C80.248 171.824 81.326 170.704 82.222 169.206ZM86.114 170.746H92.148C92.596 170.046 93.002 169.276 93.352 168.464L94.332 168.814C93.996 169.528 93.618 170.172 93.198 170.746H95.886V176.5H91.504V177.83H97.216V178.782H91.504V181.442H90.496V178.782H84.784V177.83H90.496V176.5H86.114V170.746ZM94.906 175.604V174.036H91.504V175.604H94.906ZM90.496 175.604V174.036H87.094V175.604H90.496ZM87.094 173.168H90.496V171.628H87.094V173.168ZM91.504 171.628V173.168H94.906V171.628H91.504ZM88.592 168.534C89.054 169.066 89.488 169.668 89.908 170.312L89.068 170.732C88.648 170.06 88.214 169.472 87.738 168.94L88.592 168.534ZM106.764 172.132H103.502V171.18H107.954C108.416 170.34 108.822 169.444 109.172 168.492L110.138 168.828C109.788 169.696 109.396 170.48 108.948 171.18H111.076V172.132H107.772V174.162H110.656V175.114H107.772V177.228H111.398V178.194H107.772V181.386H106.764V178.194H103.194V177.228H106.764V175.114H103.908V174.162H106.764V172.132ZM105.154 168.548C105.63 169.22 106.092 169.948 106.526 170.732L105.7 171.152C105.266 170.34 104.804 169.598 104.3 168.954L105.154 168.548ZM100.296 168.758C101.192 169.458 101.934 170.144 102.536 170.844L101.864 171.544C101.318 170.872 100.562 170.172 99.596 169.416L100.296 168.758ZM98.588 172.846H101.542V178.852C101.892 178.488 102.256 178.082 102.648 177.634L102.914 178.656C102.186 179.482 101.416 180.224 100.618 180.896L100.24 180.014C100.45 179.818 100.562 179.608 100.562 179.37V173.812H98.588V172.846ZM116.998 178.572V179.524C115.766 180.056 114.366 180.476 112.784 180.798L112.658 179.832C114.31 179.524 115.766 179.104 116.998 178.572ZM114.786 168.534L115.71 168.898C115.066 170.732 114.422 172.202 113.764 173.294C114.31 173.21 114.87 173.112 115.43 173C115.654 172.496 115.906 171.964 116.158 171.39L117.04 171.712C115.92 174.092 114.996 175.8 114.24 176.822C115.164 176.64 116.074 176.402 116.984 176.094V176.99C115.64 177.424 114.338 177.718 113.106 177.886L112.854 177.004C113.022 176.934 113.162 176.85 113.288 176.738C113.75 176.178 114.324 175.226 114.996 173.882C114.282 174.022 113.568 174.148 112.854 174.26L112.602 173.392C112.756 173.322 112.896 173.196 113.008 173.028C113.694 171.726 114.282 170.228 114.786 168.534ZM120.792 170.62H118.524V174.526H120.792V170.62ZM120.792 175.436H118.524V179.496H120.792V175.436ZM121.716 179.496H123.97V175.436H121.716V179.496ZM121.716 174.526H123.97V170.62H121.716V174.526ZM123.97 180.42H118.524V181.33H117.6V169.682H124.922V181.33H123.97V180.42ZM132.958 174.302C132.384 175.898 131.292 177.214 129.668 178.278L128.996 177.452C130.564 176.416 131.6 175.128 132.104 173.574C132.258 173.028 132.384 172.44 132.482 171.796H128.492V181.386H127.47V170.816H132.594C132.664 170.102 132.706 169.332 132.706 168.52H133.728C133.728 169.346 133.686 170.116 133.63 170.816H138.544V179.832C138.544 180.77 138.082 181.246 137.186 181.246H134.988L134.708 180.238L136.85 180.294C137.298 180.294 137.522 180.056 137.522 179.608V171.796H133.518C133.448 172.328 133.364 172.832 133.252 173.294C134.708 174.666 135.926 176.024 136.92 177.354L136.164 178.124C135.352 176.92 134.274 175.646 132.958 174.302ZM147.168 168.492C147.336 168.856 147.49 169.276 147.644 169.738H152.726V172.23H151.746V170.676H142.254V172.3H141.274V169.738H146.594C146.426 169.346 146.258 168.996 146.09 168.674L147.168 168.492ZM146.636 172.972H147.406C148.54 174.386 150.5 175.618 153.272 176.682L152.726 177.508C152.166 177.284 151.648 177.06 151.172 176.836V181.414H150.206V180.826H143.948V181.414H142.968V176.78C142.394 177.06 141.82 177.298 141.232 177.522L140.7 176.696C143.262 175.744 145.236 174.512 146.636 172.972ZM143.948 179.902H150.206V177.662H143.948V179.902ZM142.996 176.766H151.018C149.31 175.926 147.966 174.946 147.014 173.854C145.894 175.03 144.55 175.996 142.996 176.766ZM148.638 171.264C150.318 172.132 151.746 173 152.894 173.868L152.194 174.554C151.172 173.714 149.772 172.832 147.994 171.894L148.638 171.264ZM145.32 171.25L145.992 171.852C144.802 172.888 143.346 173.798 141.61 174.582L141.008 173.798C142.716 173.07 144.144 172.23 145.32 171.25Z" fill="#8F8F8F"/>
<defs>
<filter id="filter0_i_2092_2536" x="85" y="72" width="3" height="3" filterUnits="userSpaceOnUse" color-interpolation-filters="sRGB">
<feFlood flood-opacity="0" result="BackgroundImageFix"/>
<feBlend mode="normal" in="SourceGraphic" in2="BackgroundImageFix" result="shape"/>
<feColorMatrix in="SourceAlpha" type="matrix" values="0 0 0 0 0 0 0 0 0 0 0 0 0 0 0 0 0 0 127 0" result="hardAlpha"/>
<feOffset/>
<feGaussianBlur stdDeviation="0.15"/>
<feComposite in2="hardAlpha" operator="arithmetic" k2="-1" k3="1"/>
<feColorMatrix type="matrix" values="0 0 0 0 0.706432 0 0 0 0 0.723414 0 0 0 0 0.774365 0 0 0 1 0"/>
<feBlend mode="normal" in2="shape" result="effect1_innerShadow_2092_2536"/>
</filter>
<linearGradient id="paint0_linear_2092_2536" x1="98" y1="124" x2="98" y2="148" gradientUnits="userSpaceOnUse">
<stop stop-color="#EAEDF1" stop-opacity="0.71"/>
<stop offset="1" stop-color="#F9F9FA" stop-opacity="0"/>
</linearGradient>
<linearGradient id="paint1_linear_2092_2536" x1="98" y1="3" x2="98" y2="103" gradientUnits="userSpaceOnUse">
<stop stop-color="#E5E8ED"/>
<stop offset="1" stop-color="#DBDFE5"/>
</linearGradient>
<linearGradient id="paint2_linear_2092_2536" x1="98" y1="7" x2="98" y2="99" gradientUnits="userSpaceOnUse">
<stop stop-color="#F4F4F4"/>
<stop offset="1" stop-color="#F3F3F3"/>
</linearGradient>
<linearGradient id="paint3_linear_2092_2536" x1="98" y1="66" x2="98" y2="136" gradientUnits="userSpaceOnUse">
<stop stop-color="#EBEDF0"/>
<stop offset="1" stop-color="#D9D9DF"/>
</linearGradient>
<linearGradient id="paint4_linear_2092_2536" x1="87.5" y1="47" x2="86.4619" y2="79.1437" gradientUnits="userSpaceOnUse">
<stop stop-color="#EBEFFF"/>
<stop offset="1" stop-color="#9A9EA4"/>
</linearGradient>
<linearGradient id="paint5_linear_2092_2536" x1="87.5" y1="47" x2="88.4389" y2="94.4913" gradientUnits="userSpaceOnUse">
<stop stop-color="#EBEFFF"/>
<stop offset="1" stop-color="#9A9EA4"/>
</linearGradient>
<linearGradient id="paint6_linear_2092_2536" x1="102" y1="31.5" x2="126" y2="31.5" gradientUnits="userSpaceOnUse">
<stop stop-color="#E3E4E8"/>
<stop offset="1" stop-color="#DEE0E8"/>
</linearGradient>
<linearGradient id="paint7_linear_2092_2536" x1="102" y1="44.5" x2="126" y2="44.5" gradientUnits="userSpaceOnUse">
<stop stop-color="#E3E4E8"/>
<stop offset="1" stop-color="#DEE0E8"/>
</linearGradient>
</defs>
</svg>
