<svg width="196" height="148" viewBox="0 0 196 148" fill="none" xmlns="http://www.w3.org/2000/svg">
<path d="M98 124C50.5035 124 12 134.745 12 148H184C184 134.745 145.496 124 98 124Z" fill="url(#paint0_linear_2092_6931)" fill-opacity="0.5"/>
<path fill-rule="evenodd" clip-rule="evenodd" d="M92.5 62L92 107.532L145.894 105.941L149.5 67L92.5 62Z" fill="url(#paint1_linear_2092_6931)"/>
<path fill-rule="evenodd" clip-rule="evenodd" d="M92.5 62L45 70L47.6683 105.141L92.8404 107.532L92.5 62Z" fill="url(#paint2_linear_2092_6931)"/>
<path d="M110.864 34.2944L67.1683 40.6433C66.1989 40.7842 65.539 41.6445 65.6506 42.6221L69.5604 76.8654C69.672 77.843 70.5179 78.6114 71.5058 78.6328L116.037 79.5954C117.148 79.6194 117.993 78.697 117.868 77.5975L113.123 36.0427C112.998 34.9431 111.955 34.136 110.864 34.2944Z" fill="url(#paint3_linear_2092_6931)"/>
<g filter="url(#filter0_i_2092_6931)">
<path d="M97.4403 55.6524L87.5646 50.8724C85.4405 49.8688 83.1779 51.4235 83.4349 53.6743L84.6556 64.3655C84.9126 66.6163 87.4804 67.7344 89.3635 66.6278L98.0185 60.7166C99.727 59.3374 99.4057 56.5239 97.4403 55.6524Z" fill="#F3F5F8"/>
</g>
<path fill-rule="evenodd" clip-rule="evenodd" d="M45.0186 132.793V70.3242L91.7627 94.5046L102.019 73.5737V145.324L45.0186 132.793Z" fill="url(#paint4_linear_2092_6931)"/>
<path opacity="0.31" d="M96.0782 109.827C95.9337 109.59 95.8032 109.344 95.6875 109.092C95.7457 109.13 95.803 109.169 95.8619 109.206C95.922 109.417 95.9942 109.624 96.0782 109.827ZM95.6547 114.659C95.6289 114.633 95.6021 114.607 95.5753 114.58C95.5088 114.408 95.4371 114.239 95.3673 114.069C95.4562 114.27 95.5522 114.467 95.6547 114.659ZM90.1784 110.597C89.7942 110.344 89.4083 110.094 89.0159 109.852C89.0648 109.776 89.1129 109.701 89.1601 109.625C89.5127 109.064 89.8579 108.496 90.2561 107.97C90.2893 107.928 90.3196 107.885 90.3508 107.841C90.4273 107.915 90.5006 107.993 90.5706 108.073C90.6402 108.308 90.7039 108.545 90.7719 108.783C90.9312 109.354 91.0949 109.924 91.2532 110.496C91.3274 110.768 91.3996 111.037 91.4701 111.307C91.4834 111.358 91.4947 111.411 91.5054 111.468C91.0631 111.178 90.6208 110.888 90.1785 110.597L90.1784 110.597ZM85.8212 88.8195C85.8255 88.8152 85.8304 88.8123 85.8339 88.8092C85.8865 88.7713 85.9426 88.7352 85.9972 88.7007C85.9395 88.7411 85.8807 88.7795 85.8212 88.8195ZM85.8887 107.231L85.8896 107.231C85.8886 107.229 85.8884 107.226 85.8874 107.223C85.8884 107.226 85.8894 107.229 85.8895 107.23L85.8896 107.231C85.8896 107.231 85.8896 107.233 85.8905 107.233L85.8908 107.238C85.8903 107.245 85.8844 107.233 85.8887 107.231ZM100.172 110.991C100.169 110.971 100.165 110.953 100.163 110.935C100.133 110.776 100.106 110.617 100.078 110.459C100.024 110.156 99.9709 109.85 99.9118 109.544C99.729 108.586 99.5004 107.629 99.0839 106.745C98.8432 106.233 98.5272 105.797 98.1278 105.398C97.7118 104.984 97.2558 104.61 96.8914 104.157C96.4812 103.644 96.2615 103.045 96.068 102.418C95.8944 101.86 95.6917 101.319 95.4508 100.786C95.334 100.524 95.2084 100.256 95.0695 99.9914C95.3883 100.305 95.6842 100.637 95.9296 101.014C96.5756 102.006 97.065 103.106 97.6507 104.141C97.6527 104.146 97.6548 104.152 97.6604 104.159C97.6787 104.193 97.7139 104.21 97.7454 104.208C97.8031 104.204 97.8552 104.155 97.8538 104.09C97.8533 104.082 97.8512 104.073 97.849 104.064C97.8468 104.057 97.8448 104.051 97.8446 104.047C97.4832 102.891 97.1059 101.735 96.5669 100.647C96.3071 100.123 95.9993 99.6236 95.7828 99.0833C95.7055 98.8886 95.635 98.6909 95.5654 98.4923C95.9113 98.9486 96.3065 99.3675 96.6912 99.789C97.0454 100.179 97.3912 100.578 97.7176 100.993C97.9979 101.348 98.1871 101.778 98.4857 102.13C98.4895 102.136 98.496 102.142 98.5006 102.146C98.5276 102.178 98.5661 102.192 98.6011 102.189C98.6571 102.186 98.7139 102.144 98.7115 102.077C98.7108 102.063 98.7076 102.051 98.7026 102.037C98.24 100.861 97.2851 100.001 96.6375 98.9557C96.2669 98.3595 95.9289 97.7448 95.6132 97.1192C95.5118 96.9199 95.4072 96.723 95.3111 96.5236C95.2788 96.4552 95.2221 96.3562 95.1765 96.2544C95.0093 94.7983 94.6913 93.3134 94.073 91.9756C93.9427 90.9786 93.7112 89.9982 93.272 89.0969C92.9011 88.3348 92.3667 87.6592 91.6659 87.1729C91.0197 86.7226 90.2277 86.5229 89.4513 86.4915C89.2988 86.4856 89.146 86.4863 88.9935 86.4937C87.6955 86.5582 86.2505 87.1137 85.7906 88.3833C85.2882 88.7052 84.8714 89.1368 84.5239 89.6255C84.4459 89.6789 84.3687 89.7334 84.2922 89.789C83.3189 90.5029 82.6351 91.4541 82.3942 92.6531C82.2969 93.1346 82.2587 93.6213 82.2826 94.1041C82.3051 94.5555 82.3809 95.0039 82.5133 95.4414C82.7642 96.2821 83.178 97.0595 83.6092 97.8147C83.9702 98.4484 84.3511 99.0765 84.6511 99.7391C84.6485 99.7419 84.6453 99.7445 84.6428 99.7488C84.6428 99.7479 84.6428 99.7479 84.641 99.7489C84.0011 100.151 83.2565 100.408 82.7572 101.023C82.5271 101.308 82.3442 101.623 82.1791 101.945C82.0485 102.2 81.8909 102.474 81.7908 102.757C81.7235 102.824 81.655 102.89 81.5852 102.954C81.0365 103.459 80.3911 103.839 79.796 104.294C79.3305 104.652 78.8716 105.052 78.5731 105.571C78.3485 105.965 78.1936 106.458 78.2162 106.931C78.2237 107.064 78.2444 107.195 78.2822 107.321C78.2852 107.329 78.2874 107.337 78.2912 107.343C78.2901 107.392 78.2908 107.441 78.2932 107.49C78.305 107.728 78.3512 107.967 78.4205 108.194C78.593 108.766 78.8828 109.403 79.3264 109.822C79.3467 109.842 79.3744 109.851 79.3998 109.85C79.4033 109.85 79.4085 109.849 79.411 109.847C79.4837 109.912 79.5587 109.972 79.6388 110.029C79.6365 110.323 79.6429 110.617 79.658 110.91C79.6898 111.549 79.7531 112.187 79.8203 112.815C79.93 113.876 80.1084 114.916 80.3078 115.961C80.4222 116.564 80.5464 117.172 80.6047 117.78C79.9587 117.389 79.3144 116.994 78.6637 116.612C77.7243 116.061 76.7737 115.532 75.8199 115.01C75.3285 114.741 74.8355 114.475 74.3451 114.206C73.9851 114.008 73.629 113.79 73.254 113.616C71.9278 113.001 70.5196 112.405 69.0632 112.177C68.7467 112.126 68.3954 112.085 68.049 112.102C67.9864 112.105 67.9231 112.11 67.8618 112.118C67.8342 112.101 67.8023 112.093 67.7702 112.095C67.7513 112.096 67.7326 112.099 67.715 112.107C67.6605 112.125 67.6077 112.149 67.5589 112.173C67.4106 112.213 67.2688 112.269 67.1353 112.35C66.8973 112.491 66.7308 112.697 66.6292 112.932C66.5787 112.981 66.529 113.032 66.4802 113.083C66.2826 113.287 66.0938 113.499 65.9144 113.72C65.8218 113.831 65.7314 113.944 65.6431 114.059C65.555 114.173 65.4755 114.312 65.3698 114.393C65.1165 114.585 64.957 114.912 64.7842 115.159C64.6034 115.419 64.4198 115.677 64.2336 115.933C63.8412 116.47 63.4095 116.96 62.9774 117.466C62.0972 118.498 61.1982 119.514 60.2758 120.51C59.8114 121.012 59.355 121.526 58.8561 121.99C58.3505 122.46 57.8856 122.968 57.3976 123.451C56.5304 124.31 55.6314 125.137 54.7349 125.965C54.0566 126.329 53.2952 126.555 52.5725 126.803C52.0708 126.974 51.5669 127.151 51.0893 127.386C50.5962 127.63 50.1649 127.962 49.7194 128.271C49.3058 128.557 48.8769 128.832 48.3875 128.953C48.2415 128.988 48.096 129.004 47.9488 129.011C47.6723 129.025 47.395 129.006 47.1135 129.02C47.0142 129.025 46.9152 129.035 46.8169 129.05C46.5445 129.095 46.1036 129.204 46.0375 129.554C46.0324 129.585 46.0307 129.613 46.0321 129.641C46.0609 130.026 46.6407 130.131 46.9002 130.164L46.9002 130.164C46.9064 130.165 46.9148 130.165 46.9214 130.164C46.9428 130.163 46.9627 130.157 46.9797 130.146C47.4981 130.312 47.9832 130.604 48.5255 130.726C48.7304 130.772 48.9406 130.79 49.1503 130.779C49.5785 130.758 49.9859 130.618 50.3744 130.393C50.6908 130.209 50.9886 130.014 51.3003 129.848C51.3118 129.851 51.3227 129.851 51.3342 129.85C51.3562 129.849 51.38 129.843 51.4009 129.831C51.5082 129.77 51.6088 129.708 51.7124 129.655C51.8722 129.59 52.0372 129.54 52.2057 129.504C52.2357 129.497 52.2649 129.491 52.2945 129.486L52.3247 129.485C52.5425 129.474 52.759 129.497 52.9743 129.542C53.1132 129.569 53.2582 129.606 53.4041 129.644C53.6231 129.787 53.9466 129.817 54.2017 129.805C54.2424 129.803 54.2813 129.799 54.3181 129.796C54.392 129.789 54.4653 129.777 54.5378 129.76C54.5487 129.759 54.5596 129.757 54.5712 129.754C54.5965 129.748 54.6241 129.741 54.6496 129.733C54.6563 129.732 54.6606 129.731 54.6653 129.729C54.8616 129.672 55.0487 129.583 55.2141 129.447C55.4766 129.23 55.6603 128.922 55.7367 128.593C55.8158 128.248 55.7523 127.9 55.7749 127.568C56.2953 127.282 56.83 127.025 57.3626 126.762C57.9408 126.478 58.5009 126.169 59.0619 125.857C60.2854 125.177 61.5743 124.618 62.806 123.944C63.904 123.342 65.1077 122.659 65.8772 121.631C66.6359 120.615 67.1787 119.458 67.9186 118.434C68.1797 118.073 68.4617 117.71 68.7855 117.401C69.8415 118.514 70.9973 119.521 72.158 120.518C73.2626 121.465 74.3384 122.438 75.4764 123.344C75.1972 123.446 74.9185 123.549 74.6404 123.654C72.7523 124.367 70.8334 125.022 69.0477 125.979C68.3254 126.367 67.6124 126.785 66.956 127.278C66.3991 127.697 65.809 128.182 65.4763 128.817C65.3358 129.085 65.261 129.375 65.2752 129.659C65.2875 129.908 65.3683 130.153 65.5323 130.375C65.8602 130.814 66.3605 131.068 66.8695 131.226C67.9298 131.556 69.0837 131.588 70.2052 131.532C70.5882 131.513 70.9685 131.483 71.3405 131.452C72.8193 131.329 74.2843 131.099 75.7481 130.866C76.3653 130.768 76.982 130.696 77.6014 130.604C78.9166 130.408 80.2258 130.161 81.5178 129.848C83.354 129.404 85.2015 128.848 86.9598 128.107C87.6158 127.941 88.2485 127.678 88.847 127.361C89.7521 126.884 90.5945 126.225 91.0792 125.298C91.4554 124.576 91.6083 123.761 91.5682 122.952C91.5662 122.914 91.5645 122.879 91.5608 122.842C91.4982 121.97 91.2925 121.087 90.8919 120.306C90.5036 119.547 89.993 118.783 89.3084 118.251C89.0552 117.957 88.8075 117.658 88.5653 117.355C88.186 116.884 87.8243 116.396 87.5363 115.866C87.2075 115.261 86.9762 114.602 86.9446 113.931C86.9257 113.551 86.9699 113.168 87.0935 112.787C87.2462 112.326 87.4893 111.934 87.7738 111.555C87.9206 111.687 88.0666 111.819 88.2118 111.953C89.1532 112.811 90.0813 113.682 91.0371 114.527C91.798 115.199 92.573 115.923 93.4457 116.46C93.8155 116.687 94.2292 116.896 94.6775 116.918C94.7233 116.92 94.7699 116.92 94.8163 116.918C94.9697 116.911 95.1173 116.875 95.2627 116.812C95.2657 116.811 95.2685 116.81 95.2713 116.808C95.4683 116.74 95.6402 116.627 95.7512 116.424C95.8574 116.224 95.8937 115.998 95.8827 115.777C95.8811 115.745 95.8796 115.714 95.8763 115.684C95.8538 115.48 95.8088 115.28 95.7516 115.085C95.877 115.203 96.0041 115.321 96.1363 115.434C96.1417 115.438 96.1473 115.444 96.1536 115.448C96.1784 115.469 96.2069 115.478 96.2351 115.477C96.3006 115.473 96.3561 115.418 96.3543 115.349C96.3533 115.329 96.3461 115.306 96.331 115.287C96.3272 115.281 96.3234 115.276 96.3186 115.267C95.8782 114.66 95.5596 113.979 95.3099 113.271C95.1955 112.946 95.0973 112.615 94.9991 112.284C95.6926 113.58 96.5483 114.797 97.9459 115.428C97.9514 115.432 97.9595 115.435 97.9686 115.438C97.9865 115.446 98.005 115.45 98.0226 115.449C98.056 115.447 98.0874 115.432 98.1099 115.407C98.1325 115.382 98.1445 115.35 98.1433 115.316C98.1418 115.286 98.1281 115.256 98.0997 115.232C98.0932 115.226 98.0867 115.221 98.0831 115.217C97.2491 114.524 96.617 113.599 96.087 112.659C95.7913 112.134 95.544 111.597 95.3584 111.025C95.2753 110.766 95.1963 110.503 95.1174 110.241C95.3227 110.554 95.5341 110.864 95.7411 111.175C95.9889 111.548 96.2586 112.007 96.6883 112.219C96.7009 112.226 96.7151 112.231 96.7278 112.237C96.7457 112.245 96.7652 112.249 96.7827 112.248C96.8485 112.244 96.8912 112.185 96.8883 112.125C96.8873 112.106 96.882 112.087 96.8723 112.069C96.4207 111.254 95.9612 110.424 95.7116 109.537C96.0381 110.131 96.4428 110.674 96.9068 111.169C96.9374 111.203 96.9681 111.237 97.0014 111.27C97.0708 111.343 97.1423 111.414 97.2158 111.483C97.2177 111.486 97.2195 111.487 97.2195 111.487L97.2213 111.488C97.8186 112.05 98.5115 112.485 99.1909 112.933C99.2091 112.944 99.2297 112.951 99.2489 112.949C99.2997 112.946 99.3417 112.905 99.34 112.854C99.3388 112.831 99.3262 112.807 99.3051 112.789C98.6037 112.219 97.8122 111.743 97.1961 111.086C97.1775 111.064 97.157 111.043 97.1375 111.022C96.7144 110.552 96.4092 109.998 96.2023 109.405C96.5147 109.574 96.8448 109.709 97.193 109.787C97.8594 109.935 98.5428 109.93 99.2043 110.053C99.2131 110.054 99.2185 110.056 99.2275 110.058C99.2363 110.059 99.245 110.059 99.2556 110.058C99.3258 110.055 99.3664 109.991 99.3634 109.931C99.3615 109.893 99.3403 109.854 99.2991 109.837C99.292 109.832 99.2844 109.829 99.2766 109.826C98.4885 109.474 97.6583 109.192 96.9282 108.736C96.503 108.47 96.1485 108.147 95.8662 107.768C95.8608 107.697 95.8564 107.624 95.8528 107.553C95.8124 106.739 95.8926 105.931 95.9079 105.106C95.9105 104.998 95.9103 104.889 95.9092 104.78C95.9466 104.825 95.9875 104.867 96.028 104.907C96.2806 105.17 96.5566 105.409 96.8525 105.622C97.1817 105.86 97.5242 106.069 97.8183 106.346C98.4724 106.957 98.9704 107.73 99.3222 108.552C99.3907 108.711 99.4566 108.869 99.5137 109.031C99.5864 109.361 99.6523 109.698 99.7148 110.034C99.7247 110.199 99.7341 110.37 99.7645 110.539C99.794 110.708 99.8578 110.861 99.8955 111.018C99.8976 111.028 99.8999 111.037 99.9021 111.046C99.9177 111.113 99.9808 111.144 100.035 111.139C100.102 111.136 100.177 111.089 100.174 111.007C100.174 111.001 100.174 110.995 100.172 110.991Z" fill="#9A9FA7" fill-opacity="0.37"/>
<path fill-rule="evenodd" clip-rule="evenodd" d="M44.622 69.8848L37 89.864L95.1181 102.25L102.37 73.7721L44.622 69.8848Z" fill="url(#paint5_linear_2092_6931)"/>
<path fill-rule="evenodd" clip-rule="evenodd" d="M149.019 68.3242L102.019 73.9798V145.324L149.019 132.556V68.3242Z" fill="url(#paint6_linear_2092_6931)"/>
<path fill-rule="evenodd" clip-rule="evenodd" d="M149.426 67L101.5 73.7363L107.504 100.346L158 87.9606L149.426 67Z" fill="url(#paint7_linear_2092_6931)"/>
<path d="M127 36.1006C132.6 33.0672 143.66 25.7406 143.1 20.7006C142.4 14.4006 136.8 11.6 134 13.0006C132.229 13.8863 130.5 17.2 133.3 20C136.1 22.8 141 25.6 145.9 20.7C150.8 15.8 153.6 11.6 155 6" stroke="url(#paint8_linear_2092_6931)" stroke-width="1.4" stroke-linecap="round"/>
<defs>
<filter id="filter0_i_2092_6931" x="83.415" y="50.5605" width="15.7129" height="16.498" filterUnits="userSpaceOnUse" color-interpolation-filters="sRGB">
<feFlood flood-opacity="0" result="BackgroundImageFix"/>
<feBlend mode="normal" in="SourceGraphic" in2="BackgroundImageFix" result="shape"/>
<feColorMatrix in="SourceAlpha" type="matrix" values="0 0 0 0 0 0 0 0 0 0 0 0 0 0 0 0 0 0 127 0" result="hardAlpha"/>
<feOffset/>
<feGaussianBlur stdDeviation="0.15"/>
<feComposite in2="hardAlpha" operator="arithmetic" k2="-1" k3="1"/>
<feColorMatrix type="matrix" values="0 0 0 0 0.706432 0 0 0 0 0.723414 0 0 0 0 0.774365 0 0 0 1 0"/>
<feBlend mode="normal" in2="shape" result="effect1_innerShadow_2092_6931"/>
</filter>
<linearGradient id="paint0_linear_2092_6931" x1="98" y1="124" x2="98" y2="148" gradientUnits="userSpaceOnUse">
<stop stop-color="#EAEDF1" stop-opacity="0.71"/>
<stop offset="1" stop-color="#F9F9FA" stop-opacity="0"/>
</linearGradient>
<linearGradient id="paint1_linear_2092_6931" x1="120.526" y1="62" x2="120.526" y2="107.532" gradientUnits="userSpaceOnUse">
<stop stop-color="#BFC4CB"/>
<stop offset="1" stop-color="#C1C1CB"/>
</linearGradient>
<linearGradient id="paint2_linear_2092_6931" x1="69.0691" y1="62" x2="69.0691" y2="107.532" gradientUnits="userSpaceOnUse">
<stop stop-color="#D5D9DE"/>
<stop offset="1" stop-color="#C8CED7"/>
</linearGradient>
<linearGradient id="paint3_linear_2092_6931" x1="88.9449" y1="35.462" x2="92.748" y2="97.7553" gradientUnits="userSpaceOnUse">
<stop stop-color="#D4D7DF"/>
<stop offset="1" stop-color="#BDBFC9"/>
</linearGradient>
<linearGradient id="paint4_linear_2092_6931" x1="73.5186" y1="91.8962" x2="73.5186" y2="145.324" gradientUnits="userSpaceOnUse">
<stop stop-color="#F4F4F4"/>
<stop offset="1" stop-color="#F3F3F3"/>
</linearGradient>
<linearGradient id="paint5_linear_2092_6931" x1="37" y1="86.0673" x2="102.37" y2="86.0673" gradientUnits="userSpaceOnUse">
<stop stop-color="#E3E4E8"/>
<stop offset="1" stop-color="#DEE0E8"/>
</linearGradient>
<linearGradient id="paint6_linear_2092_6931" x1="125.519" y1="89.1461" x2="125.519" y2="145.324" gradientUnits="userSpaceOnUse">
<stop stop-color="#EBEDF0"/>
<stop offset="1" stop-color="#D9D9DF"/>
</linearGradient>
<linearGradient id="paint7_linear_2092_6931" x1="101.39" y1="83.6732" x2="158" y2="83.6732" gradientUnits="userSpaceOnUse">
<stop stop-color="#E3E4E8"/>
<stop offset="1" stop-color="#DEE0E8"/>
</linearGradient>
<linearGradient id="paint8_linear_2092_6931" x1="141" y1="6" x2="141" y2="36.1006" gradientUnits="userSpaceOnUse">
<stop stop-color="white"/>
<stop offset="1" stop-color="#999999"/>
</linearGradient>
</defs>
</svg>
