<svg width="196" height="148" viewBox="0 0 196 148" fill="none" xmlns="http://www.w3.org/2000/svg">
<path d="M98 124C50.5035 124 12 134.745 12 148H184C184 134.745 145.496 124 98 124Z" fill="url(#paint0_linear_2092_5180)" fill-opacity="0.5"/>
<path d="M87 57.4737C87 72.2759 99.9577 84.5295 116.842 86.6296C118.525 86.8389 119.053 89.8947 121.632 89.1579C123.842 90.2632 126.484 86.7658 128.632 86.419C144.79 83.8093 157 71.8422 157 57.4737C157 41.1958 141.33 28 122 28C102.67 28 87 41.1958 87 57.4737Z" fill="url(#paint1_linear_2092_5180)"/>
<path d="M124.434 90.386C124.514 89.7809 124.088 89.2254 123.483 89.1454L119.1 88.5659C118.495 88.4859 117.94 88.9116 117.86 89.5168C117.78 90.1219 118.205 90.6774 118.811 90.7574L123.193 91.3369C123.799 91.4169 124.354 90.9912 124.434 90.386Z" fill="url(#paint2_linear_2092_5180)"/>
<path d="M129 51C129 71.0887 111.415 87.7186 88.5 90.5687C86.2156 90.8528 85.5 95 82 94C79 95.5 75.4141 90.7536 72.5 90.283C50.5701 86.7412 34 70.5001 34 51C34 28.9086 55.2665 11 81.5 11C107.734 11 129 28.9086 129 51Z" fill="url(#paint3_linear_2092_5180)"/>
<path d="M78.1966 95.6667C78.088 94.8455 78.6658 94.0917 79.4871 93.9831L85.4353 93.1966C86.2566 93.088 87.0104 93.6658 87.119 94.4871C87.2276 95.3083 86.6498 96.0621 85.8285 96.1707L79.8803 96.9572C79.059 97.0658 78.3052 96.488 78.1966 95.6667Z" fill="url(#paint4_linear_2092_5180)"/>
<path d="M121.501 88.5C121.992 93.0439 120.794 112.708 120 115.5C117.679 123.658 111.237 125.009 110.5 125.5" stroke="#C0C7D3" stroke-width="1.10526"/>
<path d="M82.6006 95C81.9339 101.167 81.5 114.4 83.1 118C84.7 121.6 87.1002 123.833 88.1003 124.5" stroke="#CFD1D9" stroke-width="1.5"/>
<circle cx="61" cy="50" r="4" fill="#F3F5F8"/>
<circle cx="82" cy="50" r="4" fill="#F3F5F8"/>
<circle cx="103" cy="50" r="4" fill="#F3F5F8"/>
<path fill-rule="evenodd" clip-rule="evenodd" d="M93 120H104V122.549C104.536 122.635 105.323 122.826 106.171 123.061C107.909 123.541 109.901 124.199 110.499 124.498C111.915 125.201 112.72 126.143 110 127C109.572 127.135 107.192 127.033 104 125.705V127.5C104 128.33 103.816 129.115 103.487 129.82L103.109 135C103.049 135.828 102.327 136.449 101.5 136.387C101.007 136.348 100.588 136.076 100.343 135.688C100.179 135.426 100.093 135.113 100.117 134.781L100.269 132.709C99.7139 132.896 99.1191 133 98.5 133C98.04 133 97.5928 132.943 97.166 132.838C96.8633 132.762 96.5713 132.662 96.291 132.539L96.417 134.924C96.4619 135.781 95.7793 136.5 94.9209 136.5C94.124 136.5 93.4668 135.877 93.4258 135.08L93.0742 128.404C93.0527 128.271 93.0352 128.139 93.0225 128.004C93.0078 127.838 93 127.67 93 127.5V127V124.615C92.6914 124.906 92.3652 125.186 92.042 125.42C91.6816 125.684 91.3242 125.893 91 126C89.5 126.5 87 126 87 124.5C87 123.699 88.9316 122.705 90.8594 121.936C91.6113 121.635 92.3633 121.367 93 121.158V120Z" fill="url(#paint5_linear_2092_5180)"/>
<mask id="mask0_2092_5180" style="mask-type:alpha" maskUnits="userSpaceOnUse" x="87" y="120" width="25" height="17">
<path fill-rule="evenodd" clip-rule="evenodd" d="M93 120H104V122.549C105.634 122.811 109.61 124.055 110.499 124.497C111.915 125.202 112.72 126.143 110 127C109.572 127.135 107.192 127.033 104 125.704V127.5C104 128.329 103.816 129.116 103.488 129.821L103.11 134.999C103.049 135.827 102.328 136.449 101.5 136.386C100.676 136.323 100.057 135.605 100.118 134.781L100.269 132.709C99.7137 132.898 99.1188 133 98.5 133C97.7145 133 96.9675 132.835 96.2915 132.539L96.417 134.923C96.4621 135.78 95.7794 136.5 94.9212 136.5C94.1245 136.5 93.4672 135.876 93.4253 135.081L93.0739 128.404C93.0253 128.11 93 127.808 93 127.5V127V124.616C92.3453 125.23 91.6156 125.795 91 126C89.5 126.5 87 126 87 124.5C87 123.387 90.731 121.9 93 121.159V120Z" fill="#AAADB8"/>
</mask>
<g mask="url(#mask0_2092_5180)">
<path d="M105.5 128.5C104.5 127.5 95.5 121.5 95 121C96.3333 119.5 99.1 116.5 99.5 116.5C100 116.5 109 119 110 119.5C110.8 119.9 115.667 124.333 118 126.5C114.167 127.5 106.3 129.3 105.5 128.5Z" fill="#ACAFB7"/>
</g>
<path d="M87.4175 105.85C88.1394 98.2009 94.9255 92.5852 102.575 93.3071C110.224 94.0289 115.84 100.815 115.118 108.464L114.436 115.688C114.03 119.995 110.209 123.156 105.903 122.75L93.7974 121.608C89.491 121.201 86.3294 117.381 86.7358 113.074L87.4175 105.85Z" fill="url(#paint6_linear_2092_5180)"/>
<path d="M110 109.553C109.641 108.455 107.5 107.231 105.5 107.231" stroke="#9A9FA7" stroke-width="0.802703" stroke-linecap="round"/>
<path d="M97.4598 104.761C96.7713 103.835 93.8973 103.418 92.0004 104.052" stroke="#9A9FA7" stroke-width="0.802703" stroke-linecap="round"/>
<defs>
<linearGradient id="paint0_linear_2092_5180" x1="98" y1="124" x2="98" y2="148" gradientUnits="userSpaceOnUse">
<stop stop-color="#EAEDF1" stop-opacity="0.71"/>
<stop offset="1" stop-color="#F9F9FA" stop-opacity="0"/>
</linearGradient>
<linearGradient id="paint1_linear_2092_5180" x1="107.263" y1="30.5789" x2="123.474" y2="87.3158" gradientUnits="userSpaceOnUse">
<stop stop-color="white"/>
<stop offset="1" stop-color="#C1C7D4"/>
</linearGradient>
<linearGradient id="paint2_linear_2092_5180" x1="107.263" y1="30.5789" x2="123.474" y2="87.3158" gradientUnits="userSpaceOnUse">
<stop stop-color="white"/>
<stop offset="1" stop-color="#C1C7D4"/>
</linearGradient>
<linearGradient id="paint3_linear_2092_5180" x1="101.5" y1="14.5" x2="79.5" y2="91.5" gradientUnits="userSpaceOnUse">
<stop stop-color="#E6E9EE"/>
<stop offset="1" stop-color="#CFD1D9"/>
</linearGradient>
<linearGradient id="paint4_linear_2092_5180" x1="101.5" y1="14.5" x2="79.5" y2="91.5" gradientUnits="userSpaceOnUse">
<stop stop-color="#E6E9EE"/>
<stop offset="1" stop-color="#CFD1D9"/>
</linearGradient>
<linearGradient id="paint5_linear_2092_5180" x1="99.4013" y1="120" x2="99.4013" y2="136.5" gradientUnits="userSpaceOnUse">
<stop stop-color="#DFDFDF"/>
<stop offset="1" stop-color="#878992"/>
</linearGradient>
<linearGradient id="paint6_linear_2092_5180" x1="102.575" y1="93.3071" x2="99" y2="120.5" gradientUnits="userSpaceOnUse">
<stop stop-color="#EBEFFF"/>
<stop offset="1" stop-color="#9A9EA4"/>
</linearGradient>
</defs>
</svg>
