<svg width="196" height="148" viewBox="0 0 196 148" fill="none" xmlns="http://www.w3.org/2000/svg">
<path d="M98 124C50.5035 124 12 134.745 12 148H184C184 134.745 145.496 124 98 124Z" fill="url(#paint0_linear_2119_9230)" fill-opacity="0.5"/>
<g clip-path="url(#clip0_2119_9230)">
<path d="M111.106 73.4941V98.7404L110.836 98.8141L110.336 98.9779L109.835 99.1416L109.566 99.2154L109.425 99.2266L109.379 99.2529L109.36 99.3041L109.206 99.3166L109.133 99.3441L109.053 99.4004L107.675 99.7254L106.239 100.014L104.905 100.253L103.839 100.429L103.2 100.529V73.4941H111.106Z" fill="#4988FD"/>
<path d="M111.106 73.4941V133.849L110.836 133.939L110.336 134.135L109.835 134.332L109.566 134.422L109.425 134.434L109.379 134.465L109.36 134.528L109.206 134.542L109.134 134.574L109.053 134.644L107.675 135.034L106.239 135.38L104.905 135.668L103.839 135.88L103.2 136V73.4941H111.106Z" fill="white"/>
<path d="M117.694 73.4941V95.2429L117.059 95.5179L116.284 95.8129L115.51 96.1491H115.407L113.95 96.6979L113.132 96.9766L112.147 97.2866L111.089 97.5966L109.789 97.9541V73.5879H117.694V73.4941Z" fill="#2767F4"/>
<path d="M117.694 72.4941V130.108L117.414 130.268L117.059 130.443L116.284 130.804L115.887 131.004L115.51 131.217H115.407L114.722 131.543L113.95 131.888L113.13 132.229L112.147 132.609L111.089 132.989L109.789 133.425V72.6079H117.694V72.4941Z" fill="#DFDFE4"/>
<path d="M117.694 73.4941H103.2V81.2191H117.694V73.4941Z" fill="url(#paint1_linear_2119_9230)" fill-opacity="0.7"/>
<path d="M148 44.8025V73.3975L125 73.5L124.754 73.4938H78.165V22.0963H122.42L122.858 22.0413L123.308 22.0125L124.268 22L125.386 22.0125L125.931 22.04L126.505 22.0963L127.903 22.2488L128.571 22.3475L129.228 22.4737L130.368 22.735L131.478 23.0475L132.561 23.4088L133.619 23.82L134.66 24.2812L135.665 24.7838L136.638 25.3288L137.579 25.915L138.494 26.545L139.368 27.2087L140.201 27.905L140.996 28.635L141.854 29.5012L142.658 30.4L143.408 31.3337L144.108 32.3013L144.758 33.305L145.354 34.3425L145.891 35.405L146.371 36.495L146.793 37.6138L147.158 38.7637L147.456 39.9263L147.69 41.11L147.86 42.315L147.963 43.5462L148 44.8025Z" fill="url(#paint2_linear_2119_9230)"/>
<path d="M140.093 51.6093L140.633 51.5818L141.149 51.5055L141.647 51.383L142.126 51.213L142.589 50.9968L143.022 50.743L143.427 50.4518L143.803 50.1218L144.147 49.7568L144.451 49.363L144.717 48.9405L144.943 48.4855L145.123 48.013L145.253 47.5193L145.334 47.0018L145.364 46.4568L145.336 45.9105L145.257 45.393L145.131 44.8993L144.957 44.428L144.736 43.973L144.476 43.5518L144.177 43.1593L143.838 42.7955L143.466 42.4655L143.064 42.1755L142.632 41.923L142.166 41.7068L141.683 41.538L141.179 41.4143L140.651 41.3393L140.093 41.3105L139.554 41.338L139.037 41.4143L138.541 41.5368L138.061 41.7068L137.597 41.9218L137.164 42.1743L136.761 42.4655L136.383 42.7955L136.039 43.1593L135.736 43.5518L135.471 43.9743L135.243 44.428L135.064 44.8993L134.933 45.393L134.853 45.9105L134.823 46.4568L134.852 47.0018L134.929 47.5205L135.056 48.0143L135.231 48.4855L135.452 48.9405L135.712 49.3643L136.009 49.7568L136.348 50.1218L136.721 50.4518L137.123 50.743L137.556 50.9955L138.022 51.213L138.503 51.3818L139.008 51.5055L139.537 51.5818L140.093 51.6093Z" fill="#D5DAE8"/>
<path d="M140.093 51.6093L140.634 51.5818L141.152 51.5055L141.649 51.383L142.129 51.213L142.593 50.9968L143.027 50.743L143.431 50.4518L143.807 50.1218L144.151 49.7568L144.453 49.363L144.718 48.9405L144.944 48.4855L145.124 48.013L145.253 47.5193L145.334 47.0018L145.364 46.4568L145.334 45.9105L145.253 45.393L145.124 44.8993L144.944 44.428L144.718 43.973L144.453 43.5518L144.151 43.1593L143.807 42.7955L143.431 42.4655L143.027 42.1755L142.593 41.9218L142.129 41.7068L141.649 41.5368L141.152 41.4143L140.634 41.338L140.093 41.3105L139.553 41.338L139.034 41.4143L138.537 41.5368L138.057 41.7068L137.593 41.9218L137.161 42.1755L136.757 42.4655L136.381 42.7955L136.037 43.1593L135.733 43.5518L135.469 43.973L135.242 44.428L135.063 44.8993L134.933 45.393L134.853 45.9105L134.823 46.4568L134.852 47.0018L134.929 47.5205L135.056 48.0143L135.229 48.4855L135.449 48.9405L135.708 49.3643L136.006 49.7568L136.344 50.1218L136.716 50.4518L137.117 50.7418L137.551 50.9955L138.017 51.213L138.499 51.3818L139.004 51.5055L139.534 51.5818L140.093 51.6093Z" fill="#DADCE2"/>
<path d="M139.435 47.7473L139.809 47.7148L140.145 47.6285L140.45 47.491L140.726 47.3023L140.959 47.0748L141.15 46.8048L141.291 46.506L141.379 46.1773L141.411 45.8123L141.379 45.4498L141.291 45.1223L141.15 44.8248L140.959 44.556L140.726 44.3285L140.45 44.141L140.145 44.0023L139.809 43.9173L139.435 43.8848L139.063 43.9173L138.726 44.0023L138.421 44.141L138.145 44.3285L137.913 44.556L137.72 44.8248L137.579 45.1223L137.491 45.4498L137.459 45.8123L137.491 46.1773L137.579 46.506L137.72 46.8048L137.913 47.0748L138.145 47.3023L138.421 47.491L138.726 47.6285L139.063 47.7148L139.435 47.7473Z" fill="url(#paint3_linear_2119_9230)"/>
<path d="M101.882 42.5062V73.4938H55.7646V42.5062L55.8021 41.2863L55.9084 40.0938L56.0834 38.9263L56.3246 37.7812L56.6334 36.6488L57.0021 35.5488L57.4296 34.4787L57.9171 33.4375L58.4621 32.4238L59.0596 31.4475L59.7071 30.5088L60.4072 29.6038L61.1559 28.74L61.9459 27.92L62.7809 27.1437L63.6609 26.4112L64.5784 25.7275L65.5309 25.0963L66.5184 24.5175L67.5446 23.9888L68.5959 23.5187L69.6759 23.1087L70.7846 22.7575L71.9246 22.4662L72.6821 22.3037L73.4409 22.18L74.2047 22.095L75.3596 22.0212L76.5546 22H81.2796L82.5821 22.04L83.8509 22.155L85.0884 22.3412L86.2971 22.6L87.4934 22.9325L88.6509 23.3275L89.7721 23.785L90.8596 24.3062L91.9171 24.8913L92.9296 25.5312L93.8997 26.225L94.8297 26.975L95.7146 27.7775L96.5484 28.625L97.3321 29.52L98.0659 30.4625L98.7447 31.445L99.3646 32.465L99.9271 33.525L100.432 34.6263L100.871 35.7525L101.242 36.9087L101.548 38.0975L101.787 39.3225L101.835 40.8425L101.882 42.5062Z" fill="url(#paint4_linear_2119_9230)"/>
<path d="M101.883 47.8384L101.59 40.4309L101.344 39.2209L101.028 38.0434L100.643 36.8984L100.188 35.7834L99.6663 34.6946L99.0838 33.6471L98.4413 32.6371L97.7375 31.6621L96.9788 30.7309L96.1688 29.8459L95.3063 29.0059L94.39 28.2109L93.4313 27.4696L92.4313 26.7821L91.3863 26.1496L90.2963 25.5696L89.1775 25.0534L88.025 24.6009L86.8363 24.2096L85.6075 23.8809L84.3688 23.6246L83.1013 23.4396L81.805 23.3271L80.4763 23.2871H75.61L74.3813 23.3196L73.19 23.4134L72.0113 23.5584L70.8425 23.7484L70.2588 24.2096L82.2275 71.1884L101.688 72.2071L101.883 47.8384Z" fill="url(#paint5_linear_2119_9230)"/>
<path d="M101.787 39.3225L101.547 38.0988L101.241 36.9087L100.867 35.7525L100.426 34.6263L99.9172 33.525L99.3521 32.4663L98.7284 31.445L98.0459 30.4625L97.3072 29.52L96.5196 28.625L95.6822 27.7775L94.7934 26.975L93.8622 26.225L92.8896 25.5312L91.8759 24.8913L90.8184 24.3062L89.7296 23.785L88.6096 23.3263L87.4559 22.9312L86.2646 22.6L85.0597 22.3412L83.8297 22.155L82.5696 22.04L81.2796 22H76.5546L75.3596 22.0212L74.2047 22.095L73.4409 22.18L72.6821 22.3037L71.9246 22.4662L70.8146 22.7463L69.7384 23.0788L68.6934 23.465L67.6759 23.9037L66.6871 24.3962L65.7221 24.9438L64.7959 25.5338L63.9059 26.17L63.0534 26.8512L62.2346 27.5775L61.4559 28.3475L60.7221 29.1537L60.0334 29.9963L59.3871 30.8775L58.7859 31.7975L58.2346 32.7463L57.7371 33.7238L57.2909 34.7325L56.8971 35.7713L56.5559 36.8438L56.2759 37.9275L56.0559 39.0325L55.8971 40.1625L55.7996 41.32L55.7646 42.5062V73.4938H101.882V42.5062L101.835 40.8425L101.787 39.3225ZM99.9909 71.6212H57.6546V42.5062L57.6846 41.4675L57.7721 40.4487L57.9134 39.4463L58.1109 38.46L58.3621 37.4875L58.6671 36.5262L59.0196 35.5913L59.4209 34.6813L59.8696 33.7938L60.3671 32.9275L60.9096 32.09L61.4934 31.285L62.1171 30.5125L62.7834 29.7712L63.4921 29.0613L64.2359 28.3913L65.0146 27.7625L65.8271 27.175L66.6746 26.6275L67.5609 26.12L68.4684 25.665L69.4046 25.2588L70.3696 24.9025L71.3659 24.5963L72.3959 24.3388L73.0109 24.215L73.6422 24.1187L74.2884 24.05L74.9934 24.0025L76.5546 23.97H81.2796L82.3971 24.0025L83.4884 24.095L84.5559 24.2475L85.6021 24.4562L86.6271 24.7237L87.6422 25.05L88.6259 25.425L89.5784 25.8525L90.5021 26.3288L91.3984 26.8563L92.2659 27.435L93.0947 28.055L93.8859 28.7175L94.6396 29.425L95.3584 30.1763L96.0322 30.9662L96.6597 31.7913L97.2409 32.6525L97.7784 33.5513L98.2696 34.49L98.7047 35.45L99.0846 36.4388L99.4097 37.46L99.6809 38.5137L99.8971 39.6037V40.22V40.915V42.595V71.6212H99.9909Z" fill="#DAE0EB"/>
<path d="M101.882 69.6328V73.4941H37.7312L37.415 73.4616L37.125 73.3728L36.855 73.2291L36.6138 73.0403L36.4075 72.8141L36.235 72.5478L36.1075 72.2578L36.0288 71.9503L36 71.6203L36.03 71.2528L36.1088 70.9191L36.235 70.6128L36.4087 70.3316L36.615 70.0953L36.855 69.9016L37.125 69.7553L37.415 69.6653L37.7312 69.6328H101.882Z" fill="url(#paint6_linear_2119_9230)"/>
<path d="M115.059 45.1719H140.08L140.331 45.1931L140.557 45.2506L140.764 45.3419L140.95 45.4681L141.106 45.6194L141.235 45.7994L141.331 45.9981L141.39 46.2169L141.411 46.4594L141.39 46.7044L141.331 46.9231L141.235 47.1231L141.106 47.3019L140.95 47.4531L140.764 47.5781L140.559 47.6694L140.331 47.7256L140.08 47.7469H115.059V45.1719Z" fill="url(#paint7_linear_2119_9230)"/>
<path d="M63.8634 56.7068C63.9038 48.975 70.2045 42.732 77.9364 42.7627C85.6683 42.7935 91.9036 49.0863 91.8632 56.8182L91.7966 69.5677L63.7968 69.4563L63.8634 56.7068Z" fill="url(#paint8_linear_2119_9230)"/>
<path d="M67.0608 56.1061C68.2787 56.8441 71.0404 57.669 72.3444 55.0652" stroke="#9A9FA7" stroke-width="0.99" stroke-linecap="round"/>
<path d="M82.7268 53.9655C83.9447 54.7034 86.7065 55.5284 88.0104 52.9246" stroke="#9A9FA7" stroke-width="0.99" stroke-linecap="round"/>
<g filter="url(#filter0_i_2119_9230)">
<circle cx="77.5" cy="64.5" r="1.5" fill="#9A9FA7"/>
</g>
</g>
<defs>
<filter id="filter0_i_2119_9230" x="76" y="63" width="3" height="3" filterUnits="userSpaceOnUse" color-interpolation-filters="sRGB">
<feFlood flood-opacity="0" result="BackgroundImageFix"/>
<feBlend mode="normal" in="SourceGraphic" in2="BackgroundImageFix" result="shape"/>
<feColorMatrix in="SourceAlpha" type="matrix" values="0 0 0 0 0 0 0 0 0 0 0 0 0 0 0 0 0 0 127 0" result="hardAlpha"/>
<feOffset/>
<feGaussianBlur stdDeviation="0.15"/>
<feComposite in2="hardAlpha" operator="arithmetic" k2="-1" k3="1"/>
<feColorMatrix type="matrix" values="0 0 0 0 0.706432 0 0 0 0 0.723414 0 0 0 0 0.774365 0 0 0 1 0"/>
<feBlend mode="normal" in2="shape" result="effect1_innerShadow_2119_9230"/>
</filter>
<linearGradient id="paint0_linear_2119_9230" x1="98" y1="124" x2="98" y2="148" gradientUnits="userSpaceOnUse">
<stop stop-color="#EAEDF1" stop-opacity="0.71"/>
<stop offset="1" stop-color="#F9F9FA" stop-opacity="0"/>
</linearGradient>
<linearGradient id="paint1_linear_2119_9230" x1="117.143" y1="77.3308" x2="106.764" y2="77.0124" gradientUnits="userSpaceOnUse">
<stop stop-color="#B1BAC7"/>
<stop offset="1" stop-color="#838FA4" stop-opacity="0.0892206"/>
</linearGradient>
<linearGradient id="paint2_linear_2119_9230" x1="158.737" y1="58.8867" x2="78.8049" y2="19.8482" gradientUnits="userSpaceOnUse">
<stop stop-color="white"/>
<stop offset="1" stop-color="#EEF1F5"/>
</linearGradient>
<linearGradient id="paint3_linear_2119_9230" x1="139.39" y1="43.8848" x2="139.39" y2="48.8336" gradientUnits="userSpaceOnUse">
<stop stop-color="#D6D8E1"/>
<stop offset="0.54" stop-color="#B1B4BB"/>
<stop offset="1" stop-color="#92949B"/>
</linearGradient>
<linearGradient id="paint4_linear_2119_9230" x1="98.8799" y1="63.754" x2="54.1137" y2="35.405" gradientUnits="userSpaceOnUse">
<stop stop-color="#AEB7C4"/>
<stop offset="1" stop-color="#CFD5E0"/>
</linearGradient>
<linearGradient id="paint5_linear_2119_9230" x1="93.2361" y1="62.9542" x2="69.2472" y2="41.908" gradientUnits="userSpaceOnUse">
<stop stop-color="#AEB7C4"/>
<stop offset="1" stop-color="#CFD5E0"/>
</linearGradient>
<linearGradient id="paint6_linear_2119_9230" x1="104.664" y1="71.5676" x2="30.2728" y2="69.0938" gradientUnits="userSpaceOnUse">
<stop stop-color="#AEB7C4"/>
<stop offset="1" stop-color="#CFD5E0"/>
</linearGradient>
<linearGradient id="paint7_linear_2119_9230" x1="127.935" y1="45.1719" x2="127.935" y2="48.4711" gradientUnits="userSpaceOnUse">
<stop stop-color="#D6D8E1"/>
<stop offset="0.54" stop-color="#B1B4BB"/>
<stop offset="1" stop-color="#92949B"/>
</linearGradient>
<linearGradient id="paint8_linear_2119_9230" x1="78" y1="51.5" x2="78.4537" y2="80.1293" gradientUnits="userSpaceOnUse">
<stop stop-color="#EBEFFF"/>
<stop offset="0.99821" stop-color="#9A9EA4"/>
</linearGradient>
<clipPath id="clip0_2119_9230">
<rect width="128" height="128" fill="white" transform="translate(28)"/>
</clipPath>
</defs>
</svg>
