<svg width="196" height="148" viewBox="0 0 196 148" fill="none" xmlns="http://www.w3.org/2000/svg">
<path d="M98 124C50.5035 124 12 134.745 12 148H184C184 134.745 145.496 124 98 124Z" fill="url(#paint0_linear_2118_8550)" fill-opacity="0.5"/>
<path d="M83.2344 33.2656L83.2734 32.0156L83.4297 30.8242L83.6641 29.6719L83.9961 28.5586L84.4062 27.4453L84.8945 26.4102L85.4805 25.4141L86.125 24.457L86.8281 23.5586L87.6094 22.7188L88.4492 21.9375L89.3477 21.2148L90.3047 20.5703L91.3008 20.0039L92.3555 19.5156L93.4492 19.1055L94.5625 18.7734L95.7148 18.5391L96.9258 18.3828L98.1562 18.3438L99.3867 18.3828L100.578 18.5391L101.73 18.7734L102.863 19.1055L103.957 19.5156L104.992 20.0039L105.988 20.5703L106.945 21.2148L107.844 21.9375L108.684 22.7188L109.465 23.5586L110.188 24.457L110.832 25.4141L111.398 26.4102L111.887 27.4453L112.316 28.5586L112.629 29.6719L112.883 30.8242L113.02 32.0156L113.078 33.2656V44.5742H125.344V33.1875L125.285 31.3125L125.09 29.4961L124.777 27.7188L124.367 25.9805L123.82 24.2813L123.195 22.6211L122.453 21.0391L121.613 19.4961L120.676 18.0117L119.66 16.6055L118.547 15.2578L117.355 13.9883L116.086 12.7969L114.738 11.6836L113.332 10.668L111.848 9.73047L110.305 8.89062L108.723 8.14844L107.063 7.52344L105.363 6.97656L103.625 6.56641L101.848 6.2539L100.031 6.07812L98.1562 6L96.2813 6.07812L94.4648 6.2539L92.6875 6.56641L90.9492 6.97656L89.2305 7.52344L87.5898 8.14844L85.9883 8.89062L84.4648 9.73047L82.9805 10.668L81.5547 11.6836L80.2266 12.7969L78.957 13.9883L77.7461 15.2578L76.6523 16.6055L75.6172 18.0117L74.6797 19.4961L73.8398 21.0391L73.1172 22.6211L72.4727 24.2813L71.9453 25.9805L71.5156 27.7188L71.2227 29.4961L71.0273 31.3125L70.9688 33.1875V44.5742H83.2344V33.2656Z" fill="url(#paint1_linear_2118_8550)"/>
<path d="M131.672 44.5742H64.6406L63.7227 44.6328L63.6987 44.6377C63.1425 44.7515 62.5956 44.9065 62.0625 45.1016L61.2812 45.4922C60.814 45.8037 60.3692 46.1503 59.9531 46.5273L59.3867 47.1719L58.918 47.875L58.5273 48.6367L58.2344 49.457L58.0586 50.3164L58 51.2148V98.9492L58.0586 99.8672L58.0635 99.8912C58.1773 100.447 58.3323 100.994 58.5273 101.527L58.918 102.309C59.2295 102.776 59.576 103.221 59.9531 103.637C60.3692 104.014 60.814 104.36 61.2812 104.672L62.0625 105.063C62.5956 105.258 63.1425 105.413 63.6987 105.526L63.7227 105.531L64.6406 105.59H131.672L132.57 105.531L133.43 105.355L134.25 105.063L135.012 104.672L135.715 104.203L136.359 103.637C136.736 103.221 137.083 102.776 137.395 102.309L137.785 101.527L138.059 100.727L138.234 99.8672L138.293 98.9492V51.2148L138.234 50.3164L138.059 49.457L138.056 49.4488C137.876 48.9082 137.655 48.3821 137.395 47.875L136.906 47.1719C136.542 46.7428 136.147 46.3409 135.724 45.9694L135.715 45.9609L135.012 45.4922L134.25 45.1016L133.43 44.8086L132.57 44.6328L131.672 44.5742Z" fill="url(#paint2_linear_2118_8550)"/>
<path d="M127.792 48.1055H68.5185L67.7068 48.1573L67.6856 48.1616C67.1938 48.2622 66.7102 48.3993 66.2388 48.5718L65.548 48.9172C65.1348 49.1926 64.7415 49.4991 64.3736 49.8325L63.8727 50.4025L63.4582 51.0242L63.1128 51.6978L62.8537 52.4232L62.6983 53.1831L62.6465 53.9775V96.1872L62.6983 96.9989L62.7026 97.0201C62.8032 97.5119 62.9403 97.9955 63.1128 98.4669L63.4582 99.1578C63.7336 99.5709 64.0401 99.9643 64.3736 100.332C64.7415 100.666 65.1348 100.972 65.548 101.248L66.2388 101.593C66.7102 101.765 67.1938 101.903 67.6856 102.003L67.7068 102.007L68.5185 102.059H127.792L128.586 102.007L129.346 101.852L130.071 101.593L130.745 101.248L131.367 100.833L131.937 100.332C132.27 99.9643 132.577 99.5709 132.852 99.1578L133.197 98.4669L133.439 97.7588L133.595 96.9989L133.646 96.1872V53.9775L133.595 53.1831L133.439 52.4232L133.437 52.4159C133.277 51.9378 133.082 51.4726 132.852 51.0242L132.42 50.4025C132.098 50.023 131.749 49.6676 131.375 49.3391L131.367 49.3317L130.745 48.9172L130.071 48.5718L129.346 48.3127L128.586 48.1573L127.792 48.1055Z" fill="#F1F1F2"/>
<path d="M122.463 74.6138C122.481 74.6756 122.39 74.7166 122.361 74.659C122.359 74.6535 122.356 74.648 122.353 74.6425C122.33 74.5942 122.384 74.5478 122.429 74.5767C122.433 74.5791 122.437 74.5814 122.44 74.5838C122.451 74.5907 122.459 74.6014 122.463 74.6138ZM122.186 80.2433C122.195 80.2606 122.171 80.2778 122.158 80.2641C122.156 80.2624 122.155 80.2604 122.154 80.2583C122.084 80.0785 122.009 79.9008 121.936 79.7232C122.014 79.8992 122.097 80.0732 122.186 80.2433ZM116.464 76.0615C116.464 76.0616 116.464 76.0615 116.464 76.0615C116.137 75.8463 115.81 75.6337 115.479 75.4254C115.347 75.3426 115.308 75.1686 115.39 75.0363C115.762 74.4447 116.126 73.8461 116.546 73.2906C116.601 73.2216 116.703 73.2106 116.764 73.2749C116.79 73.3026 116.816 73.3307 116.842 73.3592C116.865 73.3855 116.883 73.4169 116.893 73.4508C116.96 73.6821 117.023 73.9145 117.09 74.1481C117.258 74.7508 117.43 75.3519 117.597 75.9552C117.675 76.2414 117.752 76.5256 117.826 76.8101C117.842 76.8732 117.772 76.9203 117.718 76.8845C117.3 76.6104 116.882 76.3363 116.464 76.0616C116.464 76.0616 116.464 76.0615 116.464 76.0615ZM111.883 53.0863C111.882 53.0874 111.881 53.0864 111.882 53.0851C111.938 53.0451 111.997 53.0071 112.055 52.9707C111.998 53.01 111.941 53.0476 111.883 53.0863ZM111.939 72.5127C111.94 72.5123 111.94 72.5122 111.941 72.5121C111.94 72.5094 111.94 72.5061 111.939 72.5034C111.94 72.5062 111.941 72.5094 111.941 72.5112L111.941 72.5121C111.941 72.5121 111.942 72.5148 111.942 72.5161L111.942 72.5195C111.942 72.5264 111.936 72.5157 111.939 72.5127ZM127.005 76.4932C127.004 76.4821 127.001 76.4712 127 76.4602C126.997 76.4456 126.995 76.432 126.993 76.4178C126.961 76.2499 126.933 76.0827 126.904 75.9155C126.846 75.5958 126.79 75.2735 126.728 74.9512C126.535 73.9408 126.294 72.9316 125.855 71.999C125.601 71.4588 125.268 70.9996 124.847 70.5785C124.408 70.1425 123.927 69.7482 123.543 69.2697C123.11 68.7295 122.879 68.0972 122.675 67.4363C122.492 66.8474 122.278 66.2776 122.024 65.7153C121.956 65.564 122.144 65.4349 122.247 65.5647C122.346 65.6903 122.441 65.8202 122.529 65.9556C123.208 66.9986 123.723 68.1547 124.338 69.2432C124.342 69.2497 124.344 69.2555 124.347 69.2623C124.351 69.2687 124.356 69.2759 124.36 69.2818C124.38 69.3111 124.413 69.3255 124.444 69.3236C124.504 69.3191 124.559 69.2677 124.558 69.1998C124.557 69.1908 124.555 69.1818 124.553 69.1722C124.549 69.1602 124.546 69.1479 124.543 69.1359C124.163 67.9233 123.766 66.7101 123.201 65.5682C122.927 65.0157 122.602 64.4893 122.374 63.9196C122.33 63.8091 122.486 63.7215 122.564 63.8116C122.813 64.1017 123.075 64.3822 123.332 64.6638C123.705 65.0753 124.07 65.4963 124.414 65.9332C124.705 66.3017 124.903 66.747 125.209 67.1144C125.219 67.1264 125.228 67.1391 125.24 67.1496C125.268 67.1834 125.309 67.1975 125.346 67.1944C125.405 67.1915 125.465 67.1468 125.462 67.0765C125.462 67.0622 125.458 67.0494 125.453 67.0348C124.965 65.7943 123.958 64.8876 123.275 63.785C122.884 63.1564 122.528 62.5081 122.195 61.8484C122.088 61.6382 121.978 61.4305 121.877 61.2202C121.863 61.1922 121.846 61.1592 121.827 61.1232C121.763 61.0006 121.727 60.8664 121.71 60.7292C121.536 59.3284 121.224 57.9092 120.655 56.6118C120.601 56.4869 120.562 56.3553 120.543 56.2203C120.401 55.2394 120.159 54.2774 119.726 53.3885C119.335 52.5848 118.771 51.8723 118.032 51.3595C117.351 50.8846 116.516 50.6741 115.697 50.641C115.536 50.6347 115.375 50.6355 115.214 50.6433C113.995 50.7038 112.653 51.175 112.032 52.2231C111.88 52.4781 111.697 52.7172 111.466 52.9032C111.159 53.1504 110.887 53.4383 110.644 53.7528C110.547 53.8786 110.433 53.9911 110.304 54.0839C110.288 54.0953 110.272 54.1068 110.257 54.1183C109.23 54.8711 108.509 55.8743 108.255 57.1387C108.152 57.6464 108.112 58.1596 108.137 58.6688C108.161 59.1448 108.241 59.6177 108.381 60.079C108.645 60.9656 109.082 61.7854 109.536 62.5818C109.917 63.2494 110.318 63.9111 110.634 64.6092C110.635 64.6104 110.634 64.6118 110.634 64.6128C110.632 64.6147 110.63 64.6166 110.628 64.6191C110.627 64.6198 110.625 64.6211 110.624 64.6215C109.95 65.0454 109.164 65.3171 108.638 65.9654C108.395 66.2656 108.202 66.5976 108.028 66.9376C107.934 67.122 107.826 67.3162 107.733 67.5163C107.65 67.6956 107.547 67.8674 107.402 68.0013C106.823 68.5336 106.143 68.9343 105.515 69.415C105.024 69.7915 104.54 70.2136 104.225 70.7613C103.989 71.1768 103.825 71.6967 103.849 72.195C103.857 72.3355 103.879 72.4743 103.919 72.6071C103.925 72.6222 103.928 72.6388 103.928 72.6551C103.927 72.6984 103.928 72.7417 103.93 72.7849C103.943 73.0363 103.991 73.2878 104.065 73.5275C104.246 74.1309 104.552 74.8018 105.02 75.2437C105.041 75.2649 105.071 75.2746 105.097 75.2733C105.104 75.2729 105.113 75.2737 105.119 75.2783C105.166 75.321 105.215 75.3611 105.265 75.3999C105.317 75.4402 105.349 75.502 105.349 75.568C105.349 75.8425 105.355 76.1169 105.37 76.3911C105.403 77.0649 105.47 77.738 105.541 78.4007C105.656 79.5189 105.845 80.6159 106.055 81.7174C106.204 82.5066 105.393 83.0412 104.703 82.6305C104.576 82.5549 104.449 82.4796 104.321 82.4048C103.33 81.823 102.328 81.2659 101.322 80.7154C100.804 80.4316 100.284 80.1509 99.7669 79.8671C99.3872 79.658 99.0117 79.4282 98.6163 79.2449C97.2177 78.5963 95.7327 77.9677 94.1969 77.7271C93.8632 77.6742 93.4926 77.6305 93.1274 77.6486C93.0951 77.6502 93.0627 77.6523 93.0304 77.6549C92.9652 77.6603 92.8988 77.6378 92.8334 77.6411C92.8134 77.6417 92.7937 77.6458 92.7751 77.6532C92.761 77.658 92.7469 77.6632 92.733 77.6686C92.6498 77.7009 92.5666 77.7336 92.4821 77.7626C92.3719 77.8004 92.2656 77.8483 92.1638 77.9096C91.982 78.0174 91.8397 78.161 91.7344 78.3264C91.6552 78.4508 91.5751 78.5759 91.473 78.6824C91.2646 78.8978 91.0655 79.1219 90.8763 79.3542C90.7787 79.4718 90.6834 79.5911 90.5902 79.7122C90.4974 79.8327 90.4135 79.9795 90.302 80.0648C90.0349 80.267 89.8667 80.6117 89.6845 80.8718C89.4938 81.1461 89.3003 81.4182 89.1038 81.6884C88.6901 82.2547 88.2348 82.7711 87.7791 83.3052C86.851 84.3937 85.9029 85.4647 84.9302 86.5146C84.4405 87.044 83.9592 87.5868 83.4331 88.0762C82.8998 88.5715 82.4096 89.1073 81.895 89.6165C81.0213 90.4815 80.117 91.3166 79.2137 92.151C79.1296 92.2287 79.0364 92.296 78.934 92.3472C78.2584 92.685 77.5149 92.9085 76.8067 93.1513C76.2777 93.3313 75.7463 93.518 75.2426 93.7664C74.7226 94.0238 74.2678 94.3736 73.798 94.6998C73.3618 95.0013 72.9095 95.2906 72.3934 95.4183C72.2395 95.4555 72.086 95.4724 71.9308 95.4801C71.6392 95.4946 71.3468 95.474 71.05 95.4887C70.9452 95.494 70.8408 95.5047 70.7371 95.5209C70.4499 95.5685 69.9849 95.6833 69.9152 96.0527C69.9098 96.0845 69.9081 96.1144 69.9095 96.144C69.9399 96.5499 70.5507 96.6604 70.8246 96.6951C70.8248 96.6952 70.825 96.6954 70.825 96.6956C70.825 96.6959 70.8252 96.6961 70.8254 96.6961C70.832 96.6967 70.8405 96.6963 70.8473 96.696C70.8886 96.6939 70.9319 96.6835 70.971 96.6968C71.4944 96.8751 71.9888 97.1649 72.539 97.2883C72.755 97.3367 72.9766 97.3556 73.1978 97.3446C73.6494 97.3221 74.079 97.1748 74.4887 96.9376C74.8116 96.7492 75.1161 96.5509 75.4334 96.3798C75.4537 96.3688 75.4778 96.3658 75.5009 96.3647C75.524 96.3635 75.5491 96.3567 75.5712 96.3445C75.6843 96.2796 75.7904 96.2151 75.8997 96.1586C76.0682 96.0906 76.2422 96.0373 76.4199 95.9994C76.4515 95.9923 76.4823 95.9861 76.5135 95.9808L76.5454 95.9792C76.7751 95.9678 77.0034 95.9927 77.2305 96.0397C77.3075 96.0544 77.3862 96.0724 77.466 96.0918C77.6104 96.127 77.745 96.1954 77.8858 96.243C78.0894 96.3119 78.3266 96.3265 78.5247 96.3173C78.5676 96.3151 78.6087 96.3105 78.6475 96.3075C78.7254 96.2997 78.8028 96.2872 78.8792 96.27C78.8907 96.2686 78.9021 96.2661 78.9145 96.2637C78.9357 96.2583 78.9587 96.2527 78.9808 96.2461C78.9917 96.2429 79.0032 96.2411 79.0136 96.2365C79.2206 96.1771 79.4179 96.083 79.5924 95.9392C79.8692 95.7103 80.0629 95.3857 80.1435 95.039C80.1698 94.9245 80.1811 94.8096 80.1851 94.6951C80.2011 94.2361 80.4264 93.823 80.8358 93.6149C81.1748 93.4427 81.5169 93.2763 81.8581 93.1078C82.4678 92.8089 83.0585 92.4831 83.65 92.1535C84.9403 91.4361 86.2995 90.847 87.5984 90.1358C88.7562 89.5019 90.0256 88.781 90.8371 87.6973C91.6372 86.6253 92.2096 85.4053 92.9898 84.3261C93.0036 84.307 93.0175 84.2879 93.0314 84.2688C93.4715 83.6655 94.3207 83.6779 94.8591 84.1953C95.6986 85.002 96.5782 85.7656 97.4605 86.5232C98.3871 87.3176 99.2946 88.1292 100.231 88.9092C100.548 89.1728 100.464 89.6853 100.078 89.8309C98.0873 90.5822 96.0637 91.2729 94.1805 92.2827C93.4188 92.6912 92.667 93.1326 91.9747 93.6526C91.3875 94.094 90.7652 94.6057 90.4144 95.2746C90.2662 95.5581 90.1873 95.8631 90.2022 96.1635C90.2153 96.426 90.3004 96.6841 90.4733 96.9182C90.8192 97.381 91.3468 97.6494 91.8836 97.8156C93.0017 98.1631 94.2185 98.1972 95.4012 98.1385C95.8051 98.1184 96.2061 98.0863 96.5984 98.0539C98.1579 97.9246 99.7028 97.6811 101.246 97.4357C101.897 97.333 102.548 97.2563 103.201 97.1598C104.588 96.9529 105.968 96.6925 107.331 96.3626C109.234 95.9019 111.15 95.3277 112.976 94.5659C113.038 94.5397 113.103 94.5183 113.168 94.5007C113.825 94.3247 114.459 94.0576 115.06 93.7401C116.014 93.2367 116.903 92.5422 117.414 91.5643C117.81 90.8033 117.972 89.9429 117.929 89.0906C117.927 89.0501 117.926 89.013 117.922 88.9743C117.856 88.0547 117.639 87.123 117.216 86.3C116.827 85.5388 116.321 84.7734 115.652 84.2177C115.583 84.1604 115.517 84.0989 115.458 84.0305C115.222 83.7535 114.99 83.4726 114.763 83.1879C114.363 82.6909 113.981 82.1769 113.678 81.6176C113.331 80.9798 113.087 80.285 113.054 79.5767C113.034 79.1766 113.08 78.7721 113.211 78.3709C113.304 78.0892 113.429 77.8317 113.577 77.5872C113.75 77.2997 114.143 77.2642 114.39 77.4914C115.383 78.3964 116.361 79.3151 117.369 80.2055C118.172 80.9144 118.989 81.6782 119.909 82.244C120.299 82.484 120.736 82.7041 121.208 82.7272C121.257 82.7294 121.306 82.7297 121.355 82.7272C121.513 82.7193 121.666 82.6833 121.817 82.6187C121.822 82.6161 121.829 82.6144 121.835 82.6116C122.042 82.5392 122.224 82.42 122.341 82.2058C122.453 81.9953 122.491 81.7572 122.479 81.5242C122.478 81.49 122.476 81.4577 122.472 81.4263C122.468 81.3894 122.464 81.3528 122.458 81.3162C122.437 81.1695 122.625 81.0575 122.737 81.1544C122.743 81.1597 122.75 81.1646 122.756 81.17C122.759 81.1725 122.762 81.175 122.765 81.1774C122.791 81.1993 122.821 81.2089 122.851 81.2075C122.92 81.203 122.978 81.1454 122.977 81.0723C122.976 81.0511 122.968 81.0274 122.952 81.0069C122.948 81.0007 122.944 80.9953 122.939 80.9862C122.474 80.3459 122.139 79.6277 121.875 78.881C121.831 78.7549 122.024 78.6705 122.097 78.7829C122.73 79.7688 123.516 80.6345 124.631 81.1449C124.647 81.1522 124.662 81.161 124.679 81.1667C124.698 81.175 124.717 81.1785 124.736 81.1776C124.771 81.1756 124.804 81.1598 124.828 81.1337C124.852 81.1077 124.864 81.0733 124.863 81.038C124.862 81.0057 124.847 80.974 124.817 80.9494C124.806 80.9389 124.794 80.9285 124.782 80.9184C123.911 80.1892 123.25 79.2199 122.695 78.2353C122.383 77.6818 122.122 77.1157 121.926 76.5129C121.882 76.3749 122.072 76.2852 122.152 76.4055C122.212 76.4939 122.271 76.5823 122.33 76.6709C122.591 77.0645 122.876 77.548 123.329 77.7719C123.342 77.7788 123.357 77.7845 123.37 77.7903C123.389 77.7995 123.41 77.8031 123.428 77.8022C123.498 77.798 123.543 77.7354 123.54 77.6725C123.539 77.6521 123.533 77.6322 123.523 77.614C123.393 77.3797 123.263 77.1442 123.136 76.9068C123 76.6496 123.36 76.4519 123.559 76.6643C123.591 76.7007 123.624 76.7363 123.659 76.7715C123.732 76.848 123.807 76.9224 123.884 76.9947C123.885 76.9952 123.885 76.9959 123.886 76.9966C123.886 76.9978 123.887 76.9986 123.888 76.9991C123.888 76.9998 123.89 77.0003 123.89 77.0007C123.891 77.0008 123.891 77.0009 123.891 77.0011C124.521 77.5934 125.252 78.0527 125.968 78.5248C125.987 78.5368 126.009 78.5432 126.029 78.5413C126.083 78.5386 126.127 78.4948 126.125 78.441C126.124 78.4171 126.111 78.3918 126.088 78.3724C125.349 77.7718 124.514 77.2701 123.864 76.577C123.845 76.5538 123.823 76.5317 123.803 76.5097C123.609 76.2951 123.44 76.064 123.291 75.8202C123.085 75.4805 123.473 75.1203 123.861 75.2076C124.564 75.3627 125.284 75.3584 125.982 75.4878C125.991 75.4891 125.997 75.4907 126.006 75.493C126.016 75.4944 126.025 75.494 126.036 75.4934C126.11 75.4897 126.153 75.4226 126.15 75.3589C126.148 75.3269 126.133 75.2935 126.105 75.2724C126.091 75.262 126.075 75.254 126.058 75.2486C125.227 74.8775 124.352 74.5801 123.582 74.0985C123.202 73.8606 122.875 73.5797 122.603 73.2568C122.508 73.143 122.455 72.9997 122.448 72.8511C122.405 71.9924 122.49 71.1404 122.506 70.2708C122.507 70.2176 122.508 70.1642 122.508 70.1108C122.508 70.0489 122.589 70.0175 122.633 70.0612C122.899 70.3383 123.19 70.5906 123.502 70.8149C123.849 71.0663 124.21 71.2866 124.52 71.5788C125.21 72.2227 125.735 73.0385 126.106 73.9044C126.179 74.0723 126.248 74.2394 126.308 74.4096C126.385 74.758 126.454 75.1131 126.52 75.4675C126.531 75.6411 126.541 75.8224 126.573 76.0004C126.604 76.1786 126.671 76.3393 126.711 76.505C126.713 76.516 126.716 76.5253 126.718 76.5345C126.734 76.6059 126.801 76.6376 126.858 76.6331C126.928 76.6296 127.007 76.5802 127.005 76.4932Z" fill="url(#paint3_linear_2118_8550)" fill-opacity="0.49"/>
<path d="M107.668 69.2227L107.609 68.2266L107.473 67.2891L107.238 66.3906L106.926 65.5117L106.516 64.6719L106.047 63.8906L105.5 63.168L104.875 62.4844L104.211 61.8789L103.469 61.332L102.688 60.8437L101.848 60.4531L100.988 60.1211L100.09 59.8867L99.1328 59.75L98.1562 59.6914L97.1602 59.75L96.2227 59.8867L95.3242 60.1211L94.4453 60.4531L93.6055 60.8437L92.8242 61.332L92.1016 61.8789L91.418 62.4844L90.8125 63.168L90.2656 63.8906L89.7773 64.6719L89.3867 65.5117L89.0547 66.3906L88.8203 67.2891L88.6836 68.2266L88.625 69.2227L88.6836 70.2383L88.8398 71.2148L89.0937 72.1523L89.4258 73.0312L89.875 73.8906L90.3633 74.6914L90.9492 75.4336L91.6133 76.1172L92.3359 76.7422L93.0977 77.2695L93.918 77.7383L94.8164 78.1289V87.1328L94.875 87.7383L95.0312 88.3047L95.2656 88.8125L95.5977 89.2812L96.0078 89.6914L96.4766 90.0234L96.9844 90.2578L97.5508 90.4141L98.1562 90.4727L98.7617 90.4141L99.3086 90.2578L99.8359 90.0234L100.305 89.6914L100.695 89.2812L101.027 88.8125L101.281 88.3047L101.438 87.7383L101.496 87.1328V78.1289L102.375 77.7383L103.195 77.2695L103.977 76.7422L104.699 76.1172L105.344 75.4336L105.93 74.6914L106.438 73.8906L106.867 73.0312L107.219 72.1523L107.453 71.2148L107.609 70.2383L107.668 69.2227Z" fill="#DADCE2"/>
<path d="M54 88.5C54 78.2827 62.2827 70 72.5 70C82.7173 70 91 78.2827 91 88.5V104H54V88.5Z" fill="url(#paint4_linear_2118_8550)"/>
<path d="M83.4703 86.2756C82.3538 85.3916 79.7164 84.229 78.0981 86.65" stroke="#9A9FA7" stroke-width="0.99" stroke-linecap="round"/>
<path d="M67.6597 86.4494C66.5433 85.5655 63.9059 84.4028 62.2876 86.8238" stroke="#9A9FA7" stroke-width="0.99" stroke-linecap="round"/>
<g filter="url(#filter0_i_2118_8550)">
<circle cx="73.0667" cy="96.1409" r="1.5" transform="rotate(58.0282 73.0667 96.1409)" fill="#9A9FA7"/>
</g>
<path d="M47 84.5H54.5L66 99.5H99H131L140.5 84.5H149V128C149 132.418 145.418 136 141 136H55C50.5817 136 47 132.418 47 128V84.5Z" fill="url(#paint5_linear_2118_8550)"/>
<defs>
<filter id="filter0_i_2118_8550" x="71.5664" y="94.6406" width="3.00098" height="3" filterUnits="userSpaceOnUse" color-interpolation-filters="sRGB">
<feFlood flood-opacity="0" result="BackgroundImageFix"/>
<feBlend mode="normal" in="SourceGraphic" in2="BackgroundImageFix" result="shape"/>
<feColorMatrix in="SourceAlpha" type="matrix" values="0 0 0 0 0 0 0 0 0 0 0 0 0 0 0 0 0 0 127 0" result="hardAlpha"/>
<feOffset/>
<feGaussianBlur stdDeviation="0.15"/>
<feComposite in2="hardAlpha" operator="arithmetic" k2="-1" k3="1"/>
<feColorMatrix type="matrix" values="0 0 0 0 0.706432 0 0 0 0 0.723414 0 0 0 0 0.774365 0 0 0 1 0"/>
<feBlend mode="normal" in2="shape" result="effect1_innerShadow_2118_8550"/>
</filter>
<linearGradient id="paint0_linear_2118_8550" x1="98" y1="124" x2="98" y2="148" gradientUnits="userSpaceOnUse">
<stop stop-color="#EAEDF1" stop-opacity="0.71"/>
<stop offset="1" stop-color="#F9F9FA" stop-opacity="0"/>
</linearGradient>
<linearGradient id="paint1_linear_2118_8550" x1="98.1562" y1="6" x2="98.1562" y2="44.5742" gradientUnits="userSpaceOnUse">
<stop stop-color="#E2E5EA"/>
<stop offset="1" stop-color="#D5D9E1"/>
</linearGradient>
<linearGradient id="paint2_linear_2118_8550" x1="98.1465" y1="44.5742" x2="98.1465" y2="105.59" gradientUnits="userSpaceOnUse">
<stop stop-color="#E2E5EA"/>
<stop offset="1" stop-color="#D5D9E1"/>
</linearGradient>
<linearGradient id="paint3_linear_2118_8550" x1="101.115" y1="97.8547" x2="93.6309" y2="51.8306" gradientUnits="userSpaceOnUse">
<stop stop-color="#E3E4E8" stop-opacity="0.26"/>
<stop offset="1" stop-color="#DEE0E8"/>
</linearGradient>
<linearGradient id="paint4_linear_2118_8550" x1="72.5" y1="70" x2="73.4389" y2="117.491" gradientUnits="userSpaceOnUse">
<stop stop-color="#EBEFFF"/>
<stop offset="1" stop-color="#9A9EA4"/>
</linearGradient>
<linearGradient id="paint5_linear_2118_8550" x1="98" y1="66" x2="98" y2="136" gradientUnits="userSpaceOnUse">
<stop stop-color="#EBEDF0"/>
<stop offset="1" stop-color="#D9D9DF"/>
</linearGradient>
</defs>
</svg>
