<svg width="196" height="148" viewBox="0 0 196 148" fill="none" xmlns="http://www.w3.org/2000/svg">
<path d="M98 124C50.5035 124 12 134.745 12 148H184C184 134.745 145.496 124 98 124Z" fill="url(#paint0_linear_2092_7721)" fill-opacity="0.5"/>
<path d="M77 24C77 19.5817 80.5817 16 85 16H141C145.418 16 149 19.5817 149 24V98C149 102.418 145.418 106 141 106H85C80.5817 106 77 102.418 77 98V24Z" fill="url(#paint1_linear_2092_7721)"/>
<path d="M66 32C66 27.5817 69.5817 24 74 24H130C134.418 24 138 27.5817 138 32V106C138 110.418 134.418 114 130 114H74C69.5817 114 66 110.418 66 106V32Z" fill="url(#paint2_linear_2092_7721)"/>
<path d="M70 37C70 32.5817 73.5817 29 78 29H102H113L124.5 40.5L134 50V60V69V101C134 105.418 130.418 109 126 109H78C73.5817 109 70 105.418 70 101V37Z" fill="url(#paint3_linear_2092_7721)"/>
<path d="M86.0143 76.6021C85.9949 76.6692 86.0938 76.7138 86.1246 76.6511C86.1275 76.6452 86.1304 76.6392 86.1334 76.6333C86.159 76.5808 86.1001 76.5303 86.0509 76.5618C86.0469 76.5643 86.0429 76.5669 86.0388 76.5694C86.0269 76.577 86.0182 76.5886 86.0143 76.6021ZM86.3155 82.7169C86.3058 82.7356 86.3309 82.7544 86.3458 82.7395C86.3476 82.7377 86.349 82.7355 86.35 82.7331C86.4258 82.5378 86.5074 82.3448 86.5869 82.1519C86.502 82.3431 86.4114 82.5321 86.3155 82.7169ZM92.5304 78.1746C92.5305 78.1746 92.5305 78.1746 92.5305 78.1746C92.8851 77.9408 93.2409 77.7098 93.6008 77.4837C93.744 77.3937 93.7861 77.2047 93.697 77.0609C93.2931 76.4184 92.8976 75.7681 92.4415 75.1648C92.3811 75.0899 92.2709 75.0779 92.2045 75.1477C92.1759 75.1778 92.1477 75.2084 92.1199 75.2393C92.0942 75.2679 92.0756 75.3019 92.0648 75.3388C91.9914 75.59 91.9233 75.8425 91.8507 76.0962C91.6683 76.7509 91.4808 77.4038 91.2994 78.0591C91.2144 78.3699 91.1317 78.6787 91.0509 78.9877C91.0331 79.0562 91.1092 79.1074 91.1684 79.0685C91.6223 78.7708 92.0763 78.4731 92.5303 78.1746C92.5304 78.1746 92.5304 78.1746 92.5304 78.1746ZM97.5059 53.2187C97.5078 53.22 97.5086 53.2189 97.5069 53.2174C97.4467 53.174 97.3825 53.1327 97.3199 53.0931C97.381 53.1359 97.4431 53.1767 97.5059 53.2187ZM97.4449 74.3198C97.4445 74.3194 97.4438 74.3192 97.4432 74.3192C97.4443 74.3162 97.4445 74.3127 97.4457 74.3098C97.4446 74.3128 97.4433 74.3162 97.4433 74.3182L97.4432 74.3192C97.4432 74.3192 97.442 74.3221 97.4419 74.3235L97.4418 74.3272C97.4423 74.3347 97.4483 74.3231 97.4449 74.3198ZM81.0806 78.6435C81.0812 78.6314 81.0844 78.6195 81.0863 78.6076C81.0889 78.5918 81.0916 78.577 81.0938 78.5616C81.1281 78.3792 81.1592 78.1976 81.1904 78.0159C81.2529 77.6687 81.3136 77.3186 81.3813 76.9686C81.5907 75.871 81.8526 74.7748 82.3297 73.7618C82.6053 73.1751 82.9673 72.6763 83.4249 72.2189C83.9013 71.7453 84.4237 71.317 84.841 70.7973C85.311 70.2105 85.5626 69.5236 85.7843 68.8058C85.9832 68.1662 86.2153 67.5472 86.4912 66.9364C86.5644 66.7721 86.3608 66.6319 86.2491 66.7729C86.1411 66.9093 86.0386 67.0504 85.9428 67.1975C85.2051 68.3303 84.6456 69.5862 83.9774 70.7685C83.9734 70.7756 83.9709 70.7819 83.9673 70.7892C83.9638 70.7962 83.9585 70.804 83.954 70.8104C83.9319 70.8422 83.8957 70.8579 83.8628 70.8558C83.7967 70.8509 83.7371 70.7951 83.7387 70.7213C83.7392 70.7116 83.7417 70.7018 83.7442 70.6913C83.7481 70.6783 83.7513 70.6649 83.7554 70.652C84.1675 69.3348 84.5985 68.017 85.2128 66.7767C85.5104 66.1766 85.863 65.6048 86.1109 64.9859C86.1586 64.866 85.9892 64.7708 85.905 64.8686C85.6336 65.1837 85.3496 65.4884 85.0704 65.7943C84.6646 66.2413 84.2686 66.6986 83.8947 67.1731C83.5788 67.5734 83.3639 68.0571 83.0312 68.4562C83.0204 68.4692 83.0104 68.483 82.9978 68.4944C82.9669 68.5311 82.9228 68.5465 82.8827 68.5431C82.8185 68.5399 82.7535 68.4913 82.7562 68.415C82.757 68.3994 82.7607 68.3856 82.7664 68.3697C83.2963 67.0222 84.3901 66.0374 85.1319 64.8398C85.5564 64.1569 85.9435 63.4528 86.3052 62.7362C86.4214 62.5079 86.5412 62.2823 86.6512 62.0539C86.6656 62.0234 86.6842 61.9876 86.7047 61.9484C86.7742 61.8153 86.8138 61.6696 86.8323 61.5206C87.0212 59.9989 87.3599 58.4574 87.9776 57.0482C88.0371 56.9125 88.0787 56.7695 88.0999 56.6229C88.254 55.5574 88.5164 54.5125 88.987 53.547C89.4118 52.674 90.0239 51.9001 90.8267 51.3431C91.5668 50.8273 92.474 50.5986 93.3634 50.5626C93.5381 50.5558 93.7131 50.5566 93.8877 50.5651C95.2118 50.6309 96.6694 51.1427 97.3447 52.2811C97.509 52.5581 97.7083 52.8178 97.959 53.0198C98.2923 53.2884 98.5885 53.6011 98.8521 53.9427C98.9576 54.0794 99.0809 54.2016 99.2211 54.3023C99.2384 54.3147 99.2557 54.3272 99.2729 54.3397C100.388 55.1574 101.171 56.247 101.447 57.6205C101.558 58.1719 101.602 58.7294 101.575 59.2825C101.549 59.7995 101.462 60.3131 101.311 60.8143C101.023 61.7773 100.549 62.6677 100.055 63.5329C99.6421 64.2579 99.2063 64.9767 98.8628 65.735C98.8622 65.7363 98.8624 65.7378 98.8635 65.7389C98.8655 65.7409 98.8677 65.743 98.8697 65.7458C98.8702 65.7465 98.8726 65.7479 98.8734 65.7483C99.6064 66.2088 100.459 66.5039 101.031 67.2081C101.295 67.5342 101.504 67.8948 101.693 68.2641C101.796 68.4644 101.913 68.6753 102.014 68.8927C102.104 69.0875 102.216 69.274 102.374 69.4196C103.002 69.9978 103.741 70.433 104.423 70.9551C104.956 71.3641 105.482 71.8225 105.824 72.4175C106.081 72.8687 106.259 73.4335 106.233 73.9747C106.224 74.1274 106.2 74.2781 106.157 74.4224C106.15 74.4388 106.147 74.4568 106.147 74.4745C106.148 74.5215 106.147 74.5686 106.144 74.6155C106.131 74.8886 106.078 75.1618 105.999 75.4221C105.801 76.0775 105.469 76.8062 104.961 77.2862C104.938 77.3093 104.906 77.3198 104.877 77.3184C104.869 77.318 104.86 77.3188 104.854 77.3239C104.802 77.3702 104.75 77.4138 104.695 77.4559C104.638 77.4997 104.604 77.5668 104.604 77.6385C104.604 77.9367 104.597 78.2348 104.581 78.5326C104.545 79.2645 104.472 79.9956 104.395 80.7154C104.27 81.93 104.065 83.1215 103.837 84.3181C103.674 85.1752 104.555 85.756 105.305 85.3099C105.443 85.2277 105.582 85.146 105.72 85.0647C106.796 84.4328 107.885 83.8276 108.978 83.2297C109.54 82.9214 110.105 82.6164 110.667 82.3083C111.079 82.0811 111.487 81.8315 111.917 81.6324C113.436 80.9279 115.049 80.2451 116.717 79.9838C117.08 79.9263 117.482 79.8788 117.879 79.8985C117.914 79.9002 117.949 79.9025 117.984 79.9054C118.055 79.9111 118.127 79.8868 118.198 79.8903C118.22 79.8909 118.241 79.8954 118.261 79.9035C118.277 79.9087 118.292 79.9143 118.307 79.9202C118.398 79.9553 118.488 79.9908 118.58 80.0223C118.699 80.0634 118.815 80.1154 118.925 80.182C119.123 80.299 119.277 80.4551 119.392 80.6347C119.478 80.7698 119.565 80.9058 119.676 81.0214C119.902 81.2554 120.118 81.4988 120.324 81.7511C120.43 81.8788 120.533 82.0085 120.635 82.14C120.735 82.2709 120.827 82.4303 120.948 82.523C121.238 82.7426 121.42 83.117 121.618 83.3996C121.826 83.6974 122.036 83.9931 122.249 84.2865C122.699 84.9016 123.193 85.4626 123.688 86.0427C124.696 87.2251 125.726 88.3884 126.783 89.5288C127.314 90.1038 127.837 90.6934 128.409 91.225C128.988 91.763 129.521 92.345 130.079 92.8981C131.028 93.8376 132.011 94.7447 132.992 95.6511C133.083 95.7355 133.184 95.8086 133.296 95.8642C134.03 96.2311 134.837 96.4739 135.606 96.7376C136.181 96.9331 136.758 97.136 137.305 97.4057C137.87 97.6854 138.364 98.0653 138.874 98.4196C139.348 98.7471 139.84 99.0614 140.4 99.2C140.567 99.2405 140.734 99.2588 140.903 99.2672C141.219 99.2829 141.537 99.2605 141.859 99.2765C141.973 99.2823 142.087 99.2939 142.199 99.3115C142.511 99.3632 143.016 99.4879 143.092 99.8891C143.098 99.9237 143.1 99.9562 143.098 99.9883C143.065 100.429 142.402 100.549 142.104 100.587C142.104 100.587 142.104 100.587 142.104 100.587C142.104 100.588 142.104 100.588 142.103 100.588C142.096 100.589 142.087 100.588 142.079 100.588C142.035 100.586 141.988 100.574 141.945 100.589C141.377 100.782 140.84 101.097 140.242 101.231C140.007 101.284 139.767 101.304 139.526 101.292C139.036 101.268 138.569 101.108 138.124 100.85C137.773 100.646 137.443 100.43 137.098 100.244C137.076 100.232 137.05 100.229 137.025 100.228C137 100.227 136.972 100.219 136.948 100.206C136.826 100.136 136.71 100.066 136.592 100.004C136.409 99.9303 136.219 99.8725 136.026 99.8313C135.992 99.8235 135.959 99.8168 135.925 99.811L135.89 99.8093C135.641 99.7969 135.393 99.8239 135.146 99.8751C135.062 99.891 134.977 99.9105 134.89 99.9316C134.733 99.9699 134.587 100.044 134.434 100.096C134.213 100.171 133.955 100.187 133.74 100.177C133.694 100.174 133.649 100.169 133.607 100.166C133.522 100.157 133.438 100.144 133.355 100.125C133.343 100.124 133.33 100.121 133.317 100.118C133.294 100.112 133.269 100.106 133.245 100.099C133.233 100.096 133.221 100.094 133.209 100.089C132.984 100.024 132.77 99.9221 132.581 99.7658C132.28 99.5172 132.069 99.1647 131.982 98.788C131.953 98.6636 131.941 98.5389 131.937 98.4145C131.919 97.9159 131.675 97.4672 131.23 97.2412C130.862 97.0541 130.49 96.8734 130.12 96.6904C129.457 96.3657 128.816 96.0118 128.173 95.6538C126.772 94.8746 125.295 94.2347 123.884 93.4622C122.627 92.7736 121.248 91.9906 120.366 90.8135C119.497 89.649 118.876 88.3239 118.028 87.1516C118.013 87.1309 117.998 87.1101 117.983 87.0894C117.505 86.434 116.583 86.4475 115.998 87.0095C115.086 87.8858 114.13 88.7152 113.172 89.5382C112.166 90.401 111.18 91.2826 110.163 92.1298C109.819 92.4162 109.91 92.9729 110.329 93.131C112.491 93.947 114.689 94.6973 116.735 95.7942C117.562 96.2379 118.379 96.7173 119.131 97.2821C119.769 97.7616 120.445 98.3174 120.826 99.044C120.987 99.3519 121.072 99.6832 121.056 100.01C121.042 100.295 120.949 100.575 120.762 100.829C120.386 101.332 119.813 101.623 119.23 101.804C118.015 102.181 116.694 102.219 115.409 102.155C114.97 102.133 114.535 102.098 114.109 102.063C112.415 101.922 110.736 101.658 109.06 101.391C108.353 101.28 107.646 101.196 106.937 101.092C105.43 100.867 103.931 100.584 102.451 100.226C100.383 99.7253 98.3028 99.1016 96.3194 98.2741C96.2514 98.2457 96.1813 98.2225 96.1101 98.2034C95.3969 98.0122 94.7084 97.7221 94.0555 97.3772C93.0188 96.8304 92.0538 96.076 91.4987 95.0138C91.0678 94.1872 90.8926 93.2526 90.9386 92.3269C90.9408 92.2828 90.9428 92.2425 90.9471 92.2005C91.0187 91.2016 91.2543 90.1897 91.7133 89.2957C92.1361 88.4689 92.6857 87.6375 93.4127 87.0339C93.4878 86.9716 93.5592 86.9048 93.6226 86.8306C93.8794 86.5296 94.1314 86.2245 94.3783 85.9153C94.8127 85.3754 95.227 84.8172 95.5569 84.2097C95.9336 83.5169 96.1985 82.7621 96.2347 81.9928C96.2563 81.5582 96.2057 81.1188 96.0642 80.6831C95.9628 80.3771 95.8266 80.0974 95.6666 79.8318C95.4785 79.5195 95.0514 79.4809 94.7831 79.7277C93.7048 80.7107 92.6417 81.7087 91.5469 82.6758C90.6753 83.4458 89.7876 84.2755 88.788 84.89C88.3644 85.1507 87.8905 85.3898 87.377 85.4149C87.3245 85.4173 87.2711 85.4176 87.218 85.4149C87.0456 85.4064 86.8797 85.3672 86.7163 85.297C86.7099 85.2942 86.7031 85.2923 86.6969 85.2893C86.4712 85.2107 86.2743 85.0813 86.1471 84.8485C86.0255 84.62 85.9839 84.3613 85.9965 84.1082C85.9984 84.0711 86.0001 84.036 86.0039 84.0018C86.0083 83.9618 86.0134 83.922 86.0193 83.8823C86.0427 83.7229 85.8381 83.6012 85.7162 83.7065C85.7095 83.7123 85.7022 83.7176 85.6956 83.7235C85.6926 83.7261 85.6895 83.7289 85.6862 83.7315C85.6578 83.7553 85.6251 83.7657 85.5928 83.7641C85.5179 83.7593 85.4543 83.6967 85.4563 83.6173C85.4575 83.5943 85.4657 83.5686 85.483 83.5463C85.4873 83.5396 85.4917 83.5337 85.4972 83.5238C86.0017 82.8284 86.3666 82.0482 86.6526 81.2371C86.7008 81.1002 86.4906 81.0085 86.4121 81.1306C85.7242 82.2015 84.8701 83.1418 83.6593 83.6962C83.642 83.7041 83.6252 83.7137 83.6073 83.7198C83.5868 83.7288 83.5656 83.7327 83.5454 83.7317C83.5071 83.7295 83.4712 83.7124 83.4453 83.6841C83.4195 83.6557 83.4058 83.6184 83.4071 83.5801C83.4088 83.545 83.4245 83.5105 83.457 83.4839C83.4697 83.4724 83.4826 83.4612 83.4957 83.4502C84.4413 82.6581 85.1596 81.6053 85.7625 80.5358C86.1012 79.9346 86.3844 79.3196 86.5971 78.6648C86.6451 78.515 86.4392 78.4176 86.3515 78.5482C86.287 78.6442 86.2227 78.7403 86.1587 78.8365C85.8748 79.264 85.5659 79.7892 85.0738 80.0325C85.0593 80.0399 85.043 80.0461 85.0285 80.0523C85.008 80.0624 84.9856 80.0663 84.9656 80.0653C84.8902 80.0607 84.8413 79.9928 84.8447 79.9245C84.8458 79.9023 84.8519 79.8806 84.863 79.8609C85.0039 79.6064 85.1455 79.3507 85.2827 79.0927C85.4314 78.8133 85.04 78.5986 84.8235 78.8294C84.7884 78.8689 84.7533 78.9075 84.7151 78.9458C84.6359 79.0289 84.5544 79.1097 84.4705 79.1882C84.4699 79.1888 84.4693 79.1895 84.4689 79.1903C84.468 79.1916 84.4672 79.1925 84.4666 79.193C84.4658 79.1937 84.4646 79.1943 84.4636 79.1947C84.4633 79.1948 84.4631 79.195 84.4628 79.1952C83.7788 79.8385 82.9852 80.3375 82.2071 80.8502C82.1863 80.8632 82.1627 80.8703 82.1407 80.8681C82.0825 80.8652 82.0344 80.8176 82.0364 80.7592C82.0377 80.7332 82.0522 80.7057 82.0763 80.6847C82.8797 80.0323 83.7864 79.4874 84.4921 78.7345C84.5134 78.7093 84.5369 78.6853 84.5591 78.6614C84.7689 78.4283 84.9533 78.1772 85.1143 77.9124C85.3385 77.5435 84.9168 77.1522 84.4956 77.247C83.7323 77.4155 82.9495 77.4108 82.1917 77.5514C82.1816 77.5528 82.1755 77.5545 82.1652 77.557C82.1551 77.5586 82.1451 77.5581 82.133 77.5575C82.0526 77.5535 82.0061 77.4806 82.0095 77.4114C82.0113 77.3766 82.0275 77.3404 82.0585 77.3174C82.0737 77.3062 82.091 77.2975 82.109 77.2916C83.0117 76.8885 83.9626 76.5654 84.7989 76.0423C85.2117 75.7839 85.5664 75.4788 85.8617 75.128C85.9658 75.0045 86.0227 74.8488 86.0307 74.6875C86.077 73.7547 85.9852 72.8292 85.9676 71.8846C85.9663 71.8269 85.9656 71.7689 85.9653 71.7108C85.9651 71.6436 85.8776 71.6095 85.83 71.657C85.5407 71.958 85.2246 72.232 84.8856 72.4757C84.5086 72.7488 84.1163 72.9881 83.7794 73.3054C83.0301 74.0049 82.4596 74.8909 82.0567 75.8315C81.9783 76.0138 81.9028 76.1954 81.8374 76.3803C81.7541 76.7587 81.6786 77.1444 81.6071 77.5293C81.5956 77.718 81.5849 77.9148 81.5501 78.1082C81.5163 78.3018 81.4433 78.4763 81.4001 78.6563C81.3976 78.6683 81.395 78.6783 81.3924 78.6883C81.3746 78.7658 81.3023 78.8004 81.2403 78.7954C81.164 78.7916 81.0781 78.738 81.0806 78.6435Z" fill="url(#paint4_linear_2092_7721)" fill-opacity="0.49"/>
<path d="M106.982 62.1164C107.137 62.3957 107.044 62.799 106.796 62.9852C104.903 64.1953 97.8288 69.2219 91.8404 79.3061C91.5301 79.8335 90.7854 79.7094 90.5992 79.0889C90.4131 78.4373 90.5061 77.7546 90.8475 77.1961C92.2748 74.869 96.7738 68.5082 106.268 61.9302C106.517 61.7441 106.827 61.8372 106.982 62.1164ZM115.608 56.0039C106.051 56.6865 88.8617 59.6962 88.8617 77.2892C88.8617 78.158 89.1099 79.4612 88.3962 80.7644C87.9308 81.6021 86.8448 83.65 86.1622 84.9842C85.8209 85.6668 86.0381 86.5046 86.6276 86.8769C87.2172 87.2493 87.8998 86.8459 88.2101 86.1633L89.5443 83.2466C89.9476 82.3778 90.8164 81.9124 91.6852 82.1917C93.671 82.8122 97.5185 83.65 101.149 81.9745C106.424 79.5232 110.178 75.3655 111.823 67.6394C112.66 64.1022 114.925 60.7201 116.663 58.5171C117.439 57.5242 116.787 55.9108 115.608 56.0039Z" fill="url(#paint5_linear_2092_7721)"/>
<path d="M134 50H115C113.895 50 113 49.1046 113 48V29L134 50Z" fill="url(#paint6_linear_2092_7721)"/>
<path d="M56 90H93.5L99 100.985H110H118.5L125 90H151.333H160L160 128C160 132.418 156.418 136 152 136H56L56 90Z" fill="url(#paint7_linear_2092_7721)"/>
<path d="M36 90H73.5L79 100.985H90H98.5L105 90H131.333H140L140 128C140 132.418 136.418 136 132 136H48C41.3726 136 36 130.627 36 124L36 90Z" fill="url(#paint8_linear_2092_7721)"/>
<rect x="74" y="114" width="28" height="4" rx="2" fill="url(#paint9_linear_2092_7721)"/>
<g clip-path="url(#clip0_2092_7721)">
<path d="M56.5306 22.0085C57.1558 21.8169 57.5035 21.2159 57.3652 20.5165L55.7986 11.9303C55.4989 10.4561 54.1571 9.54847 52.8373 9.95279C51.5175 10.3571 50.9144 11.8606 51.4919 13.2497L55.0035 21.24C55.2807 21.8969 55.9749 22.1787 56.5306 22.0085Z" fill="url(#paint10_linear_2092_7721)"/>
<path d="M52.2177 25.8537C52.44 25.1961 52.2204 24.5062 51.673 24.1682L44.5014 19.9388C43.326 19.1921 41.859 19.8238 41.3423 21.1468C40.8339 22.5481 41.5786 24.0538 42.929 24.3856L50.7674 26.6421C51.3703 26.8157 51.9955 26.5114 52.2177 25.8537Z" fill="url(#paint11_linear_2092_7721)"/>
<path d="M51.9281 31.8097C51.7955 31.1627 51.2468 30.7737 50.5901 30.8508L42.4582 32.0144C41.1156 32.2417 40.1643 33.6436 40.4003 35.0109C40.7038 36.4051 42.0328 37.1907 43.3574 36.6168L51.0824 33.3388C51.7301 33.0884 52.0607 32.4568 51.9281 31.8097Z" fill="url(#paint12_linear_2092_7721)"/>
</g>
<defs>
<linearGradient id="paint0_linear_2092_7721" x1="98" y1="124" x2="98" y2="148" gradientUnits="userSpaceOnUse">
<stop stop-color="#EAEDF1" stop-opacity="0.71"/>
<stop offset="1" stop-color="#F9F9FA" stop-opacity="0"/>
</linearGradient>
<linearGradient id="paint1_linear_2092_7721" x1="112.719" y1="16" x2="112.719" y2="106" gradientUnits="userSpaceOnUse">
<stop stop-color="#D3D7DB"/>
<stop offset="1" stop-color="#DCDCDD"/>
</linearGradient>
<linearGradient id="paint2_linear_2092_7721" x1="102" y1="24" x2="102" y2="114" gradientUnits="userSpaceOnUse">
<stop stop-color="#E5E8ED"/>
<stop offset="1" stop-color="#DBDFE5"/>
</linearGradient>
<linearGradient id="paint3_linear_2092_7721" x1="102" y1="29" x2="102" y2="109" gradientUnits="userSpaceOnUse">
<stop stop-color="#F4F4F4"/>
<stop offset="1" stop-color="#F3F3F3"/>
</linearGradient>
<linearGradient id="paint4_linear_2092_7721" x1="109.203" y1="101.846" x2="117.332" y2="51.8548" gradientUnits="userSpaceOnUse">
<stop stop-color="#E3E4E8" stop-opacity="0.26"/>
<stop offset="1" stop-color="#DEE0E8"/>
</linearGradient>
<linearGradient id="paint5_linear_2092_7721" x1="86" y1="71.5094" x2="117" y2="71.5094" gradientUnits="userSpaceOnUse">
<stop stop-color="#E3E4E8"/>
<stop offset="1" stop-color="#DEE0E8"/>
</linearGradient>
<linearGradient id="paint6_linear_2092_7721" x1="113" y1="39.5" x2="134" y2="39.5" gradientUnits="userSpaceOnUse">
<stop stop-color="#E3E4E8"/>
<stop offset="1" stop-color="#DEE0E8"/>
</linearGradient>
<linearGradient id="paint7_linear_2092_7721" x1="141.5" y1="111.563" x2="160.028" y2="112.259" gradientUnits="userSpaceOnUse">
<stop stop-color="#BFC4CB"/>
<stop offset="1" stop-color="#C1C1CB"/>
</linearGradient>
<linearGradient id="paint8_linear_2092_7721" x1="88" y1="39.8805" x2="88" y2="136" gradientUnits="userSpaceOnUse">
<stop stop-color="#EBEDF0"/>
<stop offset="1" stop-color="#D9D9DF"/>
</linearGradient>
<linearGradient id="paint9_linear_2092_7721" x1="97.0192" y1="115.875" x2="101.948" y2="116.449" gradientUnits="userSpaceOnUse">
<stop stop-color="#BFC4CB"/>
<stop offset="1" stop-color="#C1C1CB"/>
</linearGradient>
<linearGradient id="paint10_linear_2092_7721" x1="56.8505" y1="15.3169" x2="52.5174" y2="16.6444" gradientUnits="userSpaceOnUse">
<stop stop-color="#E3E4E8"/>
<stop offset="1" stop-color="#DEE0E8"/>
</linearGradient>
<linearGradient id="paint11_linear_2092_7721" x1="52.0253" y1="22.6463" x2="41.3513" y2="23.7824" gradientUnits="userSpaceOnUse">
<stop stop-color="#E3E4E8"/>
<stop offset="1" stop-color="#DEE0E8"/>
</linearGradient>
<linearGradient id="paint12_linear_2092_7721" x1="50.7036" y1="35.4861" x2="41.307" y2="31.7315" gradientUnits="userSpaceOnUse">
<stop stop-color="#E3E4E8"/>
<stop offset="1" stop-color="#DEE0E8"/>
</linearGradient>
<clipPath id="clip0_2092_7721">
<rect width="24" height="28" fill="white" transform="matrix(-0.956139 0.292914 0.292914 0.956139 55.9473 9)"/>
</clipPath>
</defs>
</svg>
