<svg width="20" height="20" viewBox="0 0 20 20" fill="none" xmlns="http://www.w3.org/2000/svg">
<g id="Calendar">
<path id="vector" d="M7.50016 1.83268V2.91602H12.5002V1.83268C12.5002 1.74063 12.5748 1.66602 12.6668 1.66602H13.5835C13.6755 1.66602 13.7502 1.74063 13.7502 1.83268V2.91602H15.4168C16.7975 2.91602 17.9168 4.0353 17.9168 5.41602V15.8327C17.9168 17.2134 16.7975 18.3327 15.4168 18.3327H4.5835C3.20278 18.3327 2.0835 17.2134 2.0835 15.8327V5.41602C2.0835 4.0353 3.20278 2.91602 4.5835 2.91602H6.25016V1.83268C6.25016 1.74063 6.32478 1.66602 6.41683 1.66602H7.3335C7.42554 1.66602 7.50016 1.74063 7.50016 1.83268ZM16.6668 8.33268H3.3335V15.8327C3.3335 16.4984 3.85388 17.0425 4.51005 17.0806L4.5835 17.0827H15.4168C16.0825 17.0827 16.6267 16.5623 16.6647 15.9061L16.6668 15.8327V8.33268ZM6.25016 4.16602H4.5835C3.9178 4.16602 3.37364 4.6864 3.33562 5.34257L3.3335 5.41602V7.08268H16.6668V5.41602C16.6668 4.75032 16.1464 4.20616 15.4903 4.16814L15.4168 4.16602H13.7502V5.24935C13.7502 5.3414 13.6755 5.41602 13.5835 5.41602H12.6668C12.5748 5.41602 12.5002 5.3414 12.5002 5.24935V4.16602H7.50016V5.24935C7.50016 5.3414 7.42554 5.41602 7.3335 5.41602H6.41683C6.32478 5.41602 6.25016 5.3414 6.25016 5.24935V4.16602Z" fill="white"/>
</g>
</svg>
