<svg width="24" height="24" viewBox="0 0 24 24" fill="none" xmlns="http://www.w3.org/2000/svg">
<path d="M3.92879 13.707C3.53826 13.3164 2.9051 13.3164 2.51457 13.707C2.12405 14.0975 2.12405 14.7306 2.51457 15.1212L4.98943 17.596L2.16106 20.4244C1.77053 20.8149 1.77053 21.4481 2.16106 21.8386C2.55158 22.2292 3.18475 22.2292 3.57527 21.8386L6.40364 19.0103L8.87854 21.4852C9.26906 21.8757 9.90223 21.8757 10.2928 21.4852C10.6833 21.0946 10.6833 20.4615 10.2928 20.071L7.81785 17.596L9.93921 15.4747C10.3297 15.0842 10.3297 14.451 9.93921 14.0605C9.54868 13.6699 8.91551 13.6699 8.52499 14.0605L6.40364 16.1818L3.92879 13.707Z" fill="url(#paint0_linear_263_1739)"/>
<path d="M19.189 4.92525C16.4554 2.19158 12.0232 2.19158 9.28951 4.92525C7.92266 6.29209 7.23926 8.08354 7.23926 9.87499C7.23926 11.6664 7.92266 13.4579 9.28951 14.8247C12.0232 17.5584 16.4554 17.5584 19.189 14.8247C21.9227 12.0911 21.9227 7.65894 19.189 4.92525Z" stroke="#838288" stroke-width="2" stroke-linejoin="round"/>
<defs>
<linearGradient id="paint0_linear_263_1739" x1="6.22691" y1="9.05533" x2="6.22691" y2="23.875" gradientUnits="userSpaceOnUse">
<stop stop-color="#FFC089" stop-opacity="0"/>
<stop offset="1" stop-color="#FF7700"/>
</linearGradient>
</defs>
</svg>
