<svg width="21" height="20" viewBox="0 0 21 20" fill="none" xmlns="http://www.w3.org/2000/svg">
<path fill-rule="evenodd" clip-rule="evenodd" d="M0.900833 6.38259L2.07639 16.9626C2.14168 17.5502 2.63837 17.9948 3.22962 17.9948H18.5575C19.1487 17.9948 19.6454 17.5502 19.7107 16.9626L20.8863 6.38258C20.9684 5.64355 20.3439 5.0191 19.6049 5.10121L15.1962 5.59107C14.7784 5.63749 14.3682 5.45432 14.1239 5.11226L11.8378 1.91168C11.375 1.26381 10.4121 1.26381 9.94935 1.91168L7.66322 5.11226C7.4189 5.45432 7.00868 5.63749 6.59089 5.59107L2.1822 5.10121C1.44317 5.0191 0.818718 5.64356 0.900833 6.38259ZM11.2458 11.4194C11.1643 11.6531 10.9875 11.6668 10.8924 11.4331L9.96793 8.95849C9.88636 8.72478 9.73682 8.62854 9.50571 8.62854H7.61603C7.26257 8.62854 7.15381 8.86226 7.39851 9.13722L7.57525 9.32969C7.65682 9.42592 7.72479 9.50841 7.76557 9.6184L9.60087 14.114C9.68244 14.334 9.84558 14.4302 10.0767 14.4302H12.0072C12.2383 14.4302 12.3878 14.334 12.4694 14.114L14.4814 9.10972C14.5902 8.82101 14.4542 8.62854 14.1551 8.62854H12.5373C12.3062 8.62854 12.1431 8.73852 12.0751 8.95849L11.2458 11.4194Z" fill="url(#paint0_linear_2001_3672)"/>
<defs>
<linearGradient id="paint0_linear_2001_3672" x1="10.8936" y1="1.42578" x2="10.8936" y2="17.9948" gradientUnits="userSpaceOnUse">
<stop stop-color="#FFD98E"/>
<stop offset="1" stop-color="#ECB548"/>
</linearGradient>
</defs>
</svg>
