<?xml version="1.0" encoding="UTF-8"?>
<svg id="Object" xmlns="http://www.w3.org/2000/svg" viewBox="0 0 459.79 550">
  <defs>
    <style>
      .cls-1 {
        fill: #a3a3a3;
      }

      .cls-1, .cls-2, .cls-3, .cls-4, .cls-5, .cls-6 {
        stroke-width: 0px;
      }

      .cls-2 {
        fill: #72716f;
      }

      .cls-3 {
        fill: #848484;
      }

      .cls-4 {
        fill: #58595a;
      }

      .cls-5 {
        fill: #3e3d40;
      }

      .cls-6 {
        fill: #c6c6c6;
      }
    </style>
  </defs>
  <g>
    <path class="cls-2" d="m391.43,309.2h-44.65v-147.66c0-64.45-52.43-116.88-116.88-116.88s-116.88,52.43-116.88,116.88v147.66h-44.65v-147.66C68.36,72.47,140.82,0,229.89,0s161.54,72.47,161.54,161.54v147.66Z"/>
    <rect class="cls-1" y="239.13" width="459.79" height="310.87" rx="17.32" ry="17.32"/>
  </g>
  <path class="cls-3" d="m459.79,532.68v-169.26C319.72,481.93,117.76,526.46,3.31,542.8c3.15,4.35,8.23,7.2,14,7.2h425.16c9.56,0,17.31-7.75,17.31-17.31Z"/>
  <path class="cls-4" d="m267.89,347.75c0-20.98-17.01-38-38-38s-38,17.01-38,38c0,12.51,6.07,23.57,15.4,30.5l-12.09,85.92h69.37l-12.09-85.92c9.33-6.92,15.4-17.99,15.4-30.5Z"/>
  <path class="cls-6" d="m14.5,271.89v59.49c1.57-25.26,13.73-80.23,89.76-80.23H35.24c-11.41,0-20.74,9.33-20.74,20.74Z"/>
  <path class="cls-5" d="m195.21,464.16s51.49-14.55,57.28-85.92l12.09,85.92h-69.37Z"/>
</svg>