<?xml version="1.0" encoding="UTF-8"?>
<svg id="Object" xmlns="http://www.w3.org/2000/svg" viewBox="0 0 449.47 550">
  <defs>
    <style>
      .cls-1 {
        fill: #72716f;
      }

      .cls-1, .cls-2, .cls-3, .cls-4, .cls-5, .cls-6 {
        stroke-width: 0px;
      }

      .cls-2 {
        fill: #f7db5e;
      }

      .cls-3 {
        fill: #eab531;
      }

      .cls-4 {
        fill: #58595a;
      }

      .cls-5 {
        fill: #3e3d40;
      }

      .cls-6 {
        fill: #f2cb30;
      }
    </style>
  </defs>
  <g>
    <path class="cls-1" d="m314.46,127.47l4.69,16.96,42.07-11.64-4.69-16.96C333.33,31.91,246.17-17.48,162.24,5.73,78.32,28.94,28.93,116.1,52.14,200.02l38.48,139.12,42.07-11.64-38.48-139.12c-16.79-60.72,18.94-123.79,79.67-140.58,60.72-16.79,123.79,18.94,140.58,79.67Z"/>
    <path class="cls-6" d="m16.93,246.1h415.62c9.34,0,16.93,7.58,16.93,16.93v270.04c0,9.34-7.58,16.93-16.93,16.93H16.93c-9.34,0-16.93-7.58-16.93-16.93v-270.04c0-9.34,7.58-16.93,16.93-16.93Z"/>
  </g>
  <path class="cls-3" d="m449.47,533.07v-165.46C312.54,483.46,115.12,526.99,3.24,542.96c3.08,4.25,8.04,7.04,13.69,7.04h415.62c9.35,0,16.93-7.58,16.93-16.93Z"/>
  <path class="cls-4" d="m261.88,352.29c0-20.51-16.63-37.14-37.14-37.14s-37.14,16.63-37.14,37.14c0,12.23,5.94,23.04,15.05,29.81l-11.82,83.99h67.82l-11.82-83.99c9.12-6.77,15.05-17.58,15.05-29.81Z"/>
  <path class="cls-2" d="m16.41,278.13v58.15c1.54-24.69,13.42-78.43,87.75-78.43H36.68c-11.15,0-20.28,9.12-20.28,20.28Z"/>
  <path class="cls-5" d="m190.83,466.09s50.33-14.23,56-83.99l11.82,83.99h-67.82Z"/>
</svg>