<svg width="32" height="32" viewBox="0 0 32 32" fill="none" xmlns="http://www.w3.org/2000/svg">
<rect width="32" height="32" rx="16" fill="#EEB00E"/>
<g clip-path="url(#clip0_8888_70488)">
<path d="M12.0295 14.4042L15.9135 10.5203L19.7996 14.4062L22.0596 12.1462L15.9135 6L9.76953 12.1442L12.0295 14.4042Z" fill="white"/>
<path d="M10.4338 15.9992L8.17383 13.7393L5.91376 15.9993L8.17372 18.2593L10.4338 15.9992Z" fill="white"/>
<path d="M12.0294 17.5956L15.9134 21.4795L19.7994 17.5938L22.0606 19.8525L22.0595 19.8537L15.9134 25.9998L9.76927 19.8558L9.76611 19.8526L12.0294 17.5956Z" fill="white"/>
<path d="M23.654 18.261L25.9141 16.001L23.6541 13.741L21.394 16.0011L23.654 18.261Z" fill="white"/>
<path d="M18.2059 15.9984H18.2069L15.9136 13.7051L14.2188 15.3999H14.2186L14.024 15.5946L13.6223 15.9963L13.6191 15.9995L13.6223 16.0028L15.9136 18.2941L18.2069 16.0008L18.208 15.9995L18.2059 15.9984Z" fill="white"/>
</g>
<defs>
<clipPath id="clip0_8888_70488">
<rect width="20" height="20" fill="white" transform="translate(6 6)"/>
</clipPath>
</defs>
</svg>
