<svg width="32" height="32" viewBox="0 0 32 32" fill="none" xmlns="http://www.w3.org/2000/svg">
<rect width="32" height="32" rx="16" fill="#1875E1"/>
<path d="M12 7H7V12H12V7Z" fill="white"/>
<path d="M12 13H7V19H12V13Z" fill="white"/>
<path d="M12 20H7V25H12V20Z" fill="white"/>
<path d="M19 7H13V12H19V7Z" fill="white"/>
<path d="M25 7H20V12H25V7Z" fill="white"/>
<path d="M16 19C17.6568 19 19 17.6568 19 16C19 14.3432 17.6568 13 16 13C14.3432 13 13 14.3432 13 16C13 17.6568 14.3432 19 16 19Z" fill="#F9752D"/>
</svg>
