<svg width="32" height="32" viewBox="0 0 32 32" fill="none" xmlns="http://www.w3.org/2000/svg">
<path d="M31.5211 19.8706C29.3838 28.442 20.7014 33.6584 12.128 31.521C3.55811 29.384 -1.65894 20.7021 0.47928 12.1312C2.61551 3.55876 11.2979 -1.65818 19.8688 0.478793C28.4417 2.61577 33.6583 11.2987 31.5211 19.8706Z" fill="#F7931A"/>
<path d="M22.6283 14.1684C22.9335 12.207 21.3803 11.1526 19.2565 10.4492L19.9455 7.79218L18.2634 7.38912L17.5927 9.97609C17.1505 9.87014 16.6963 9.77019 16.245 9.67115L16.9205 7.06713L15.2394 6.66406L14.55 9.32013C14.184 9.23998 13.8247 9.16076 13.4759 9.07738L13.4778 9.06908L11.1581 8.51216L10.7107 10.2396C10.7107 10.2396 11.9587 10.5146 11.9323 10.5316C12.6136 10.6951 12.7367 11.1286 12.7161 11.4723L11.9314 14.4991C11.9783 14.5107 12.0392 14.5272 12.1062 14.553C12.0502 14.5397 11.9903 14.5249 11.9285 14.5107L10.8285 18.7509C10.7451 18.9499 10.5339 19.2484 10.0577 19.1351C10.0744 19.1586 8.83505 18.8416 8.83505 18.8416L8 20.693L10.1889 21.2176C10.5962 21.3157 10.9952 21.4185 11.3881 21.5152L10.692 24.2026L12.3721 24.6057L13.0615 21.9468C13.5205 22.0666 13.966 22.1772 14.402 22.2813L13.715 24.9277L15.397 25.3307L16.0932 22.6484C18.9614 23.1703 21.1183 22.9598 22.0261 20.4654C22.7577 18.457 21.9897 17.2985 20.4806 16.543C21.5796 16.2993 22.4075 15.6042 22.6283 14.1684ZM18.7851 19.3502C18.2653 21.3586 14.7484 20.2728 13.6081 20.0006L14.5318 16.4403C15.672 16.7139 19.3284 17.2556 18.7851 19.3502ZM19.3054 14.1394C18.8311 15.9663 15.9039 15.0381 14.9544 14.8105L15.7918 11.5814C16.7414 11.809 19.7993 12.2337 19.3054 14.1394Z" fill="white"/>
</svg>
