<svg width="32" height="32" viewBox="0 0 32 32" fill="none" xmlns="http://www.w3.org/2000/svg">
<path d="M31.5211 19.8706C29.3838 28.442 20.7014 33.6584 12.128 31.521C3.55811 29.384 -1.65894 20.7021 0.47928 12.1312C2.61551 3.55876 11.2979 -1.65818 19.8688 0.478793C28.4417 2.61577 33.6583 11.2987 31.5211 19.8706V19.8706Z" fill="#F0B90B"/>
<path d="M16 6L18.4776 8.53731L12.2388 14.7761L9.76123 12.2985L16 6Z" fill="white"/>
<path d="M19.7612 9.7612L22.2388 12.2985L12.2388 22.2985L9.76123 19.8209L19.7612 9.7612Z" fill="white"/>
<path d="M8.47761 13.5224L10.9552 16.0597L8.47761 18.5373L6 16.0597L8.47761 13.5224Z" fill="white"/>
<path d="M23.5223 13.5224L26 16.0597L16 26.0597L13.5223 23.5821L23.5223 13.5224Z" fill="white"/>
</svg>
