<svg width="32" height="32" viewBox="0 0 32 32" fill="none" xmlns="http://www.w3.org/2000/svg">
<circle cx="16" cy="16" r="16" fill="#FFB11A"/>
<g clip-path="url(#clip0_127_521)">
<path d="M20.6797 18.2605V13H21.8161V18.2605H20.6797Z" fill="#121214"/>
<path d="M7.4362 19.8231H5V14.5626H7.33824C8.47463 14.5626 9.13678 15.1389 9.13678 16.0403C9.13678 16.6238 8.71153 17.0009 8.41718 17.1265C8.76852 17.2742 9.21826 17.6066 9.21826 18.3088C9.21826 19.2911 8.47463 19.8231 7.4362 19.8231ZM7.24829 15.4789H6.13639V16.6906H7.24829C7.73055 16.6906 8.0004 16.4468 8.0004 16.0846C8.0004 15.7228 7.73055 15.4789 7.24829 15.4789ZM7.32176 17.6142H6.13639V18.9072H7.32176C7.83696 18.9072 8.08187 18.6118 8.08187 18.2569C8.08187 17.9024 7.83651 17.6142 7.32176 17.6142Z" fill="white"/>
<path d="M12.6846 17.6657V19.8231H11.5562V17.6657L9.80664 14.5626H11.041L12.1284 16.683L13.1993 14.5626H14.4337L12.6846 17.6657Z" fill="white"/>
<path d="M17.655 19.8231H15.2188V14.5626H17.557C18.6934 14.5626 19.3555 15.1389 19.3555 16.0403C19.3555 16.6238 18.9303 17.0009 18.6359 17.1265C18.9873 17.2742 19.437 17.6066 19.437 18.3088C19.437 19.2911 18.6934 19.8231 17.655 19.8231ZM17.467 15.4789H16.3551V16.6906H17.467C17.9493 16.6906 18.2191 16.4468 18.2191 16.0846C18.2191 15.7228 17.9493 15.4789 17.467 15.4789ZM17.5405 17.6142H16.3551V18.9072H17.5405C18.0557 18.9072 18.3006 18.6118 18.3006 18.2569C18.3006 17.9024 18.0557 17.6142 17.5405 17.6142Z" fill="white"/>
<path d="M25.4793 15.4789V19.8235H24.3429V15.4789H22.8223V14.5626H27V15.4789H25.4793Z" fill="white"/>
</g>
<defs>
<clipPath id="clip0_127_521">
<rect width="22" height="8" fill="white" transform="translate(5 12)"/>
</clipPath>
</defs>
</svg>
