<svg width="25" height="24" viewBox="0 0 25 24" fill="none" xmlns="http://www.w3.org/2000/svg">
<g clip-path="url(#clip0_1169_147)">
<path d="M22.1551 14.4192C20.8194 19.7764 15.3929 23.0367 10.0345 21.7008C4.67829 20.3652 1.41763 14.9389 2.75402 9.58206C4.08916 4.22425 9.51568 0.963624 14.8725 2.29925C20.2306 3.63487 23.4909 9.06175 22.1551 14.4192Z" fill="#F7931A"/>
<path d="M16.8643 10.5754C17.0634 9.24479 16.0501 8.52948 14.6647 8.05229L15.1141 6.24979L14.0168 5.97635L13.5793 7.73135C13.2908 7.65948 12.9945 7.59167 12.7001 7.52448L13.1408 5.75791L12.0441 5.48448L11.5944 7.28635C11.3556 7.23197 11.1212 7.17823 10.8937 7.12167L10.8949 7.11604L9.38163 6.73822L9.08973 7.9101C9.08973 7.9101 9.90387 8.09666 9.88669 8.10823C10.3311 8.21916 10.4114 8.51322 10.398 8.74635L9.88606 10.7998C9.91668 10.8076 9.95638 10.8189 10.0001 10.8364C9.96357 10.8273 9.9245 10.8173 9.88419 10.8076L9.1666 13.6842C9.11222 13.8192 8.9744 14.0217 8.66375 13.9448C8.67468 13.9607 7.86616 13.7457 7.86616 13.7457L7.32141 15.0017L8.74938 15.3576C9.01503 15.4242 9.27537 15.4938 9.53164 15.5595L9.07754 17.3826L10.1736 17.656L10.6233 15.8523C10.9227 15.9335 11.2134 16.0085 11.4978 16.0792L11.0496 17.8745L12.1469 18.1479L12.601 16.3282C14.4722 16.6823 15.8792 16.5395 16.4714 14.8473C16.9487 13.4848 16.4477 12.6989 15.4632 12.1864C16.1802 12.021 16.7202 11.5495 16.8643 10.5754ZM14.3572 14.0907C14.0181 15.4532 11.7238 14.7167 10.9799 14.532L11.5825 12.1167C12.3263 12.3023 14.7116 12.6698 14.3572 14.0907ZM14.6966 10.5557C14.3872 11.7951 12.4776 11.1654 11.8581 11.011L12.4045 8.82042C13.0239 8.9748 15.0188 9.26291 14.6966 10.5557Z" fill="white"/>
<circle cx="12.4545" cy="12" r="12" fill="#E52931"/>
<path d="M17.4545 6H14.2419L12.4627 10.1747H12.4298L10.634 6H7.45447L10.2881 11.5546H8.67358V13.0742H11.0459V13.9301H8.67358V15.4323H11.0459V18H13.8466V15.4323H16.0706V13.9301H13.8466V13.0742H16.0706V11.5546H14.6044L17.4545 6Z" fill="white"/>
</g>
<defs>
<clipPath id="clip0_1169_147">
<rect width="24" height="24" fill="white" transform="translate(0.454468)"/>
</clipPath>
</defs>
</svg>
