<svg width="32" height="32" viewBox="0 0 32 32" fill="none" xmlns="http://www.w3.org/2000/svg">
<path d="M31.5211 19.8706C29.3839 28.442 20.7014 33.6585 12.128 31.521C3.55811 29.384 -1.65895 20.7021 0.479281 12.1312C2.61551 3.55876 11.2979 -1.65819 19.8688 0.478793C28.4418 2.61577 33.6583 11.2987 31.5211 19.8706Z" fill="#7748FA"/>
<path d="M15.9968 6L15.8604 6.45573V19.6799L15.9968 19.8138L22.2441 16.1853L15.9968 6Z" fill="#CFC1F7"/>
<path d="M15.9973 6L9.75 16.1853L15.9973 19.8138V13.3952V6Z" fill="white"/>
<path d="M15.9988 20.9762L15.9219 21.0684V25.7791L15.9988 25.9998L22.2498 17.3496L15.9988 20.9762Z" fill="#CFC1F7"/>
<path d="M15.9973 25.9998V20.9762L9.75 17.3496L15.9973 25.9998Z" fill="white"/>
<path d="M15.9961 19.8131L22.2433 16.1846L15.9961 13.3945V19.8131Z" fill="#9781EE"/>
<path d="M9.75 16.1846L15.9972 19.8131V13.3945L9.75 16.1846Z" fill="#C9C1F7"/>
</svg>
