<svg width="32" height="32" viewBox="0 0 32 32" fill="none" xmlns="http://www.w3.org/2000/svg">
<path d="M28.9341 19.226C27.1531 26.3689 19.9177 30.716 12.7732 28.9347C5.6316 27.1539 1.28405 19.9189 3.0659 12.7764C4.84609 5.63265 12.0815 1.28516 19.2239 3.06599C26.368 4.84682 30.7151 12.0827 28.9341 19.226Z" fill="#F7931A"/>
<path d="M21.8796 14.1004C22.1451 12.3263 20.7941 11.3725 18.9468 10.7363L19.546 8.33292L18.083 7.96834L17.4996 10.3083C17.1149 10.2125 16.7199 10.1221 16.3274 10.0325L16.9149 7.67708L15.4527 7.3125L14.853 9.715C14.5347 9.6425 14.2221 9.57084 13.9188 9.49542L13.9204 9.48792L11.9027 8.98416L11.5135 10.5467C11.5135 10.5467 12.599 10.7954 12.5761 10.8108C13.1687 10.9587 13.2758 11.3508 13.2579 11.6617L12.5753 14.3996C12.6161 14.41 12.6691 14.425 12.7274 14.4483C12.6786 14.4363 12.6266 14.4229 12.5728 14.41L11.616 18.2454C11.5435 18.4254 11.3598 18.6954 10.9455 18.5929C10.9601 18.6142 9.88209 18.3275 9.88209 18.3275L9.15576 20.0021L11.0597 20.4767C11.4139 20.5654 11.761 20.6583 12.1027 20.7458L11.4973 23.1767L12.9587 23.5413L13.5583 21.1363C13.9575 21.2446 14.3451 21.3446 14.7243 21.4388L14.1267 23.8325L15.5898 24.1971L16.1953 21.7708C18.6901 22.2429 20.5661 22.0525 21.3558 19.7963C21.9921 17.9796 21.3241 16.9317 20.0115 16.2483C20.9674 16.0279 21.6875 15.3992 21.8796 14.1004ZM18.5368 18.7875C18.0846 20.6042 15.0255 19.6221 14.0338 19.3758L14.8372 16.1554C15.829 16.4029 19.0093 16.8929 18.5368 18.7875ZM18.9893 14.0742C18.5768 15.7267 16.0307 14.8871 15.2047 14.6812L15.9332 11.7604C16.7591 11.9663 19.4189 12.3504 18.9893 14.0742Z" fill="white"/>
<circle cx="16" cy="16" r="16" fill="#3572D1"/>
<path d="M15.1447 19.7836L16.0955 16.1965L18.3464 15.3725L18.9063 13.2644L18.8872 13.2121L16.6715 14.0231L18.2679 8H13.7404L11.6526 15.8603L9.90947 16.4984L9.3335 18.6717L11.0753 18.0342L9.84483 22.6667H21.8944L22.6668 19.7836H15.1447Z" fill="white"/>
</svg>
