<svg width="32" height="32" viewBox="0 0 32 32" fill="none" xmlns="http://www.w3.org/2000/svg">
<path d="M28.6055 3L17.68 11.1145L19.7004 6.32706L28.6055 3Z" fill="#E2761B" stroke="#E2761B" stroke-width="0.124365" stroke-linecap="round" stroke-linejoin="round"/>
<path d="M3.38352 3L14.2212 11.1914L12.2996 6.32706L3.38352 3Z" fill="#E4761B" stroke="#E4761B" stroke-width="0.124365" stroke-linecap="round" stroke-linejoin="round"/>
<path d="M24.6745 21.8094L21.7647 26.2675L27.9906 27.9804L29.7804 21.9082L24.6745 21.8094Z" fill="#E4761B" stroke="#E4761B" stroke-width="0.124365" stroke-linecap="round" stroke-linejoin="round"/>
<path d="M2.23058 21.9082L4.00941 27.9804L10.2353 26.2675L7.32548 21.8094L2.23058 21.9082Z" fill="#E4761B" stroke="#E4761B" stroke-width="0.124365" stroke-linecap="round" stroke-linejoin="round"/>
<path d="M9.88392 14.2768L8.14901 16.9012L14.3309 17.1757L14.1114 10.5326L9.88392 14.2768Z" fill="#E4761B" stroke="#E4761B" stroke-width="0.124365" stroke-linecap="round" stroke-linejoin="round"/>
<path d="M22.1051 14.2768L17.8227 10.4557L17.68 17.1757L23.8509 16.9012L22.1051 14.2768Z" fill="#E4761B" stroke="#E4761B" stroke-width="0.124365" stroke-linecap="round" stroke-linejoin="round"/>
<path d="M10.2353 26.2675L13.9466 24.4557L10.7404 21.9521L10.2353 26.2675Z" fill="#E4761B" stroke="#E4761B" stroke-width="0.124365" stroke-linecap="round" stroke-linejoin="round"/>
<path d="M18.0423 24.4557L21.7647 26.2675L21.2486 21.9521L18.0423 24.4557Z" fill="#E4761B" stroke="#E4761B" stroke-width="0.124365" stroke-linecap="round" stroke-linejoin="round"/>
<path d="M21.7647 26.2675L18.0423 24.4557L18.3388 26.8823L18.3059 27.9035L21.7647 26.2675Z" fill="#D7C1B3" stroke="#D7C1B3" stroke-width="0.124365" stroke-linecap="round" stroke-linejoin="round"/>
<path d="M10.2353 26.2675L13.6941 27.9035L13.6721 26.8823L13.9466 24.4557L10.2353 26.2675Z" fill="#D7C1B3" stroke="#D7C1B3" stroke-width="0.124365" stroke-linecap="round" stroke-linejoin="round"/>
<path d="M13.7491 20.349L10.6525 19.4377L12.8377 18.4384L13.7491 20.349Z" fill="#233447" stroke="#233447" stroke-width="0.124365" stroke-linecap="round" stroke-linejoin="round"/>
<path d="M18.24 20.349L19.1514 18.4384L21.3475 19.4377L18.24 20.349Z" fill="#233447" stroke="#233447" stroke-width="0.124365" stroke-linecap="round" stroke-linejoin="round"/>
<path d="M10.2352 26.2675L10.7623 21.8094L7.32547 21.9082L10.2352 26.2675Z" fill="#CD6116" stroke="#CD6116" stroke-width="0.124365" stroke-linecap="round" stroke-linejoin="round"/>
<path d="M21.2377 21.8094L21.7647 26.2675L24.6745 21.9082L21.2377 21.8094Z" fill="#CD6116" stroke="#CD6116" stroke-width="0.124365" stroke-linecap="round" stroke-linejoin="round"/>
<path d="M23.8509 16.9012L17.68 17.1757L18.2509 20.349L19.1623 18.4384L21.3584 19.4376L23.8509 16.9012Z" fill="#CD6116" stroke="#CD6116" stroke-width="0.124365" stroke-linecap="round" stroke-linejoin="round"/>
<path d="M10.6525 19.4376L12.8486 18.4384L13.749 20.349L14.3309 17.1757L8.149 16.9012L10.6525 19.4376Z" fill="#CD6116" stroke="#CD6116" stroke-width="0.124365" stroke-linecap="round" stroke-linejoin="round"/>
<path d="M8.14901 16.9012L10.7404 21.9521L10.6525 19.4376L8.14901 16.9012Z" fill="#E4751F" stroke="#E4751F" stroke-width="0.124365" stroke-linecap="round" stroke-linejoin="round"/>
<path d="M21.3584 19.4376L21.2486 21.9521L23.8509 16.9012L21.3584 19.4376Z" fill="#E4751F" stroke="#E4751F" stroke-width="0.124365" stroke-linecap="round" stroke-linejoin="round"/>
<path d="M14.3309 17.1758L13.749 20.3491L14.4737 24.0934L14.6384 19.1632L14.3309 17.1758Z" fill="#E4751F" stroke="#E4751F" stroke-width="0.124365" stroke-linecap="round" stroke-linejoin="round"/>
<path d="M17.68 17.1758L17.3836 19.1522L17.5153 24.0934L18.2509 20.3491L17.68 17.1758Z" fill="#E4751F" stroke="#E4751F" stroke-width="0.124365" stroke-linecap="round" stroke-linejoin="round"/>
<path d="M18.2509 20.3491L17.5153 24.0934L18.0423 24.4557L21.2486 21.9521L21.3584 19.4377L18.2509 20.3491Z" fill="#F6851B" stroke="#F6851B" stroke-width="0.124365" stroke-linecap="round" stroke-linejoin="round"/>
<path d="M10.6525 19.4377L10.7404 21.9521L13.9466 24.4557L14.4737 24.0934L13.7491 20.3491L10.6525 19.4377Z" fill="#F6851B" stroke="#F6851B" stroke-width="0.124365" stroke-linecap="round" stroke-linejoin="round"/>
<path d="M18.3059 27.9036L18.3388 26.8824L18.0643 26.6408H13.9247L13.6721 26.8824L13.6941 27.9036L10.2353 26.2675L11.4432 27.2557L13.8918 28.9577H18.0973L20.5568 27.2557L21.7647 26.2675L18.3059 27.9036Z" fill="#C0AD9E" stroke="#C0AD9E" stroke-width="0.124365" stroke-linecap="round" stroke-linejoin="round"/>
<path d="M18.0423 24.4557L17.5153 24.0934H14.4737L13.9466 24.4557L13.6721 26.8823L13.9247 26.6407H18.0643L18.3388 26.8823L18.0423 24.4557Z" fill="#161616" stroke="#161616" stroke-width="0.124365" stroke-linecap="round" stroke-linejoin="round"/>
<path d="M29.0666 11.6416L30 7.16157L28.6055 3L18.0423 10.84L22.105 14.2768L27.8478 15.9568L29.1216 14.4745L28.5725 14.0793L29.4509 13.2777L28.7702 12.7506L29.6486 12.0808L29.0666 11.6416Z" fill="#763D16" stroke="#763D16" stroke-width="0.124365" stroke-linecap="round" stroke-linejoin="round"/>
<path d="M2 7.16157L2.93334 11.6416L2.34039 12.0808L3.21882 12.7506L2.54902 13.2777L3.42745 14.0793L2.87843 14.4745L4.14118 15.9568L9.88392 14.2768L13.9466 10.84L3.38353 3L2 7.16157Z" fill="#763D16" stroke="#763D16" stroke-width="0.124365" stroke-linecap="round" stroke-linejoin="round"/>
<path d="M27.8479 15.9568L22.1051 14.2768L23.851 16.9012L21.2486 21.9521L24.6745 21.9082H29.7804L27.8479 15.9568Z" fill="#F6851B" stroke="#F6851B" stroke-width="0.124365" stroke-linecap="round" stroke-linejoin="round"/>
<path d="M9.88391 14.2768L4.14116 15.9568L2.23058 21.9082H7.32548L10.7404 21.9521L8.14901 16.9012L9.88391 14.2768Z" fill="#F6851B" stroke="#F6851B" stroke-width="0.124365" stroke-linecap="round" stroke-linejoin="round"/>
<path d="M17.68 17.1757L18.0423 10.84L19.7114 6.32709H12.2996L13.9466 10.84L14.331 17.1757L14.4627 19.1742L14.4737 24.0934H17.5153L17.5373 19.1742L17.68 17.1757Z" fill="#F6851B" stroke="#F6851B" stroke-width="0.124365" stroke-linecap="round" stroke-linejoin="round"/>
</svg>
