<svg xmlns="http://www.w3.org/2000/svg" width="1080" height="1080" viewBox="0 0 1080 1080">
  <defs>
    <style>
      .cls-1 {
        fill: #20c950;
      }

      .cls-2 {
        font-size: 75px;
        text-anchor: middle;
        font-family: Poppins;
        font-weight: 500;
        text-transform: uppercase;
      }

      .cls-2, .cls-3 {
        fill: #fff;
      }

      .cls-3 {
        fill-rule: evenodd;
      }
    </style>
  </defs>
  <circle class="cls-1" cx="540" cy="540" r="540"/>
  <text id="P" class="cls-2" transform="matrix(12.107, 0, 0, 12.12, 571.504, 889.399)"><tspan x="0">P</tspan></text>
  <path id="Rectangle_1_copy" data-name="Rectangle 1 copy" class="cls-3" d="M270.355,463.473h596a10,10,0,0,1,10,10v34.534a10,10,0,0,1-10,10h-596a10,10,0,0,1-10-10V473.473A10,10,0,0,1,270.355,463.473Z"/>
  <path id="Rectangle_1_copy_2" data-name="Rectangle 1 copy 2" class="cls-3" d="M270.355,366.988h596a10,10,0,0,1,10,10v34.535a10,10,0,0,1-10,10h-596a10,10,0,0,1-10-10V376.988A10,10,0,0,1,270.355,366.988Z"/>
</svg>
