<svg width="32" height="32" viewBox="0 0 32 32" fill="none" xmlns="http://www.w3.org/2000/svg">
<rect width="32" height="32" rx="16" fill="#0F161F"/>
<path d="M20.0738 12.8879C19.7786 12.685 19.3948 12.685 19.0701 12.8879L16.7675 14.4439L15.2029 15.4587L12.9004 17.0148C12.6052 17.2177 12.2214 17.2177 11.8967 17.0148L10.0664 15.797C9.77122 15.5941 9.56457 15.222 9.56457 14.816V12.4144C9.56457 12.0085 9.7417 11.6364 10.0664 11.4334L11.8672 10.2495C12.1624 10.0465 12.5461 10.0465 12.8709 10.2495L14.6716 11.4334C14.9668 11.6364 15.1734 12.0085 15.1734 12.4144V13.9704L16.738 12.9218V11.3657C16.738 10.9598 16.5609 10.5877 16.2362 10.3848L12.9004 8.15222C12.6052 7.94926 12.2214 7.94926 11.8967 8.15222L8.50185 10.3848C8.17712 10.5877 8 10.9598 8 11.3657V15.8647C8 16.2706 8.17712 16.6427 8.50185 16.8456L11.8967 19.0782C12.1919 19.2812 12.5757 19.2812 12.9004 19.0782L15.2029 17.556L16.7675 16.5074L19.0701 14.9852C19.3653 14.7822 19.7491 14.7822 20.0738 14.9852L21.8745 16.1691C22.1698 16.3721 22.3764 16.7442 22.3764 17.1501V19.5518C22.3764 19.9577 22.1993 20.3298 21.8745 20.5327L20.0738 21.7505C19.7786 21.9535 19.3948 21.9535 19.0701 21.7505L17.2694 20.5666C16.9742 20.3636 16.7675 19.9915 16.7675 19.5856V18.0296L15.2029 19.0782V20.6342C15.2029 21.0401 15.3801 21.4122 15.7048 21.6152L19.0996 23.8478C19.3948 24.0507 19.7786 24.0507 20.1033 23.8478L23.4982 21.6152C23.7934 21.4122 24 21.0401 24 20.6342V16.1353C24 15.7294 23.8229 15.3573 23.4982 15.1543L20.0738 12.8879Z" fill="white"/>
</svg>
