<svg width="32" height="32" viewBox="0 0 32 32" fill="none" xmlns="http://www.w3.org/2000/svg">
<g clip-path="url(#clip0_8484_70292)">
<path d="M16 32C24.8366 32 32 24.8366 32 16C32 7.16344 24.8366 0 16 0C7.16344 0 0 7.16344 0 16C0 24.8366 7.16344 32 16 32Z" fill="#0088CC"/>
<path fill-rule="evenodd" clip-rule="evenodd" d="M11.5479 10.5743L20.5218 10.5742C20.8393 10.5742 21.1566 10.6208 21.4881 10.7754C21.8856 10.9607 22.0963 11.2527 22.244 11.4686C22.2554 11.4854 22.2662 11.5027 22.2761 11.5204C22.4497 11.8295 22.5392 12.1631 22.5392 12.522C22.5392 12.8631 22.4581 13.2346 22.2761 13.5584C22.2744 13.5616 22.2726 13.5646 22.2709 13.5677L16.6013 23.3068C16.4762 23.5216 16.2461 23.6534 15.9976 23.6525C15.7491 23.6516 15.5199 23.5182 15.3964 23.3026L9.83092 13.5842C9.82932 13.5816 9.82772 13.579 9.82612 13.5763C9.69875 13.3664 9.50178 13.0418 9.46732 12.623C9.43567 12.2378 9.52224 11.8518 9.71578 11.5172C9.90932 11.1825 10.2007 10.915 10.5512 10.7512C10.9269 10.5756 11.3077 10.5743 11.5479 10.5743ZM15.3044 11.9655H11.5479C11.3011 11.9655 11.2064 11.9807 11.1401 12.0117C11.0485 12.0544 10.9716 12.1248 10.9202 12.2137C10.8688 12.3027 10.8455 12.4058 10.854 12.509C10.8588 12.5681 10.8829 12.6358 11.0252 12.8703C11.0281 12.8752 11.031 12.8802 11.0339 12.8852L15.3044 20.3423V11.9655ZM16.6957 11.9655V20.3791L21.0652 12.8734C21.1145 12.7838 21.1479 12.6543 21.1479 12.522C21.1479 12.4148 21.1257 12.3216 21.076 12.2256C21.0238 12.1506 20.992 12.1109 20.9654 12.0837C20.9426 12.0604 20.9251 12.048 20.9003 12.0364C20.797 11.9883 20.6913 11.9655 20.5218 11.9655H16.6957Z" fill="white"/>
</g>
<defs>
<clipPath id="clip0_8484_70292">
<rect width="32" height="32" fill="white"/>
</clipPath>
</defs>
</svg>
