<svg width="32" height="32" viewBox="0 0 32 32" fill="none" xmlns="http://www.w3.org/2000/svg">
<rect width="32" height="32" rx="16" fill="#0F161F"/>
<path d="M24.0638 13.2835C23.2606 12.5244 22.1495 11.3653 21.2446 10.5432L21.1911 10.5048C21.102 10.4316 21.0015 10.3742 20.8939 10.335C18.7119 9.91843 8.55688 7.97557 8.35876 8.00023C8.30324 8.00819 8.25018 8.02879 8.20347 8.06052L8.15261 8.10162C8.08997 8.16673 8.0424 8.24539 8.01339 8.33181L8 8.36743V8.56199V8.59213C9.14321 11.8503 13.6571 22.5237 14.546 25.0283C14.5995 25.1982 14.7013 25.5216 14.8914 25.538H14.9342C15.0359 25.538 15.4697 24.9516 15.4697 24.9516C15.4697 24.9516 23.2231 15.3277 24.0076 14.3029C24.1091 14.1766 24.1988 14.0408 24.2753 13.8973C24.2948 13.785 24.2856 13.6694 24.2486 13.5619C24.2115 13.4543 24.1478 13.3584 24.0638 13.2835ZM17.671 14.1456L20.6442 11.8639L22.2114 13.4311L17.671 14.1456ZM15.8525 13.8973L11.1716 9.92784L19.0539 11.449L15.8525 13.8973ZM16.6569 15.7359L21.8196 14.9292L16.3573 21.3365L16.6569 15.7359ZM10.8365 11.5955L14.7868 15.0514L14.546 20.5272L10.8365 11.5955Z" fill="white"/>
</svg>
