<svg width="32" height="32" viewBox="0 0 32 32" fill="none" xmlns="http://www.w3.org/2000/svg">
<path d="M31.5211 19.8706C29.3839 28.442 20.7014 33.6585 12.128 31.521C3.55811 29.384 -1.65895 20.7021 0.479281 12.1312C2.61551 3.55876 11.2979 -1.65819 19.8688 0.478793C28.4418 2.61577 33.6583 11.2987 31.5211 19.8706Z" fill="#EB0024"/>
<path d="M24.63 12.4227C23.8057 11.6436 22.6653 10.4539 21.7366 9.6102L21.6816 9.57083C21.5902 9.49567 21.4871 9.43673 21.3766 9.39646C19.1371 8.96896 8.71461 6.97493 8.51127 7.00024C8.4543 7.00841 8.39984 7.02955 8.3519 7.06211L8.29969 7.1043C8.23541 7.17112 8.18658 7.25185 8.15681 7.34055L8.14307 7.37711V7.57679V7.60773C9.31639 10.9517 13.9492 21.9063 14.8615 24.4769C14.9165 24.6513 15.0209 24.9831 15.216 25H15.2599C15.3644 25 15.8095 24.3981 15.8095 24.3981C15.8095 24.3981 23.7672 14.5208 24.5723 13.4689C24.6765 13.3393 24.7685 13.2 24.8471 13.0527C24.8671 12.9374 24.8577 12.8188 24.8196 12.7084C24.7816 12.598 24.7163 12.4995 24.63 12.4227ZM18.0689 13.3075L21.1203 10.9656L22.7289 12.5742L18.0689 13.3075ZM16.2024 13.0527L11.3982 8.97863L19.4882 10.5399L16.2024 13.0527ZM17.028 14.9397L22.3267 14.1117L16.7205 20.6878L17.028 14.9397ZM11.0543 10.6902L15.1086 14.2372L14.8615 19.8571L11.0543 10.6902Z" fill="white"/>
</svg>
