<svg width="32" height="32" viewBox="0 0 32 32" fill="none" xmlns="http://www.w3.org/2000/svg">
<path d="M28.9341 19.226C27.1531 26.3689 19.9177 30.716 12.7732 28.9347C5.6316 27.1539 1.28405 19.9189 3.0659 12.7764C4.84609 5.63265 12.0815 1.28516 19.2239 3.06599C26.368 4.84682 30.7151 12.0827 28.9341 19.226Z" fill="#F7931A"/>
<path d="M21.8796 14.1004C22.1451 12.3263 20.7941 11.3725 18.9468 10.7363L19.546 8.33292L18.083 7.96834L17.4996 10.3083C17.1149 10.2125 16.7199 10.1221 16.3274 10.0325L16.9149 7.67708L15.4527 7.3125L14.853 9.715C14.5347 9.6425 14.2221 9.57084 13.9188 9.49542L13.9204 9.48792L11.9027 8.98416L11.5135 10.5467C11.5135 10.5467 12.599 10.7954 12.5761 10.8108C13.1687 10.9587 13.2758 11.3508 13.2579 11.6617L12.5753 14.3996C12.6161 14.41 12.6691 14.425 12.7274 14.4483C12.6786 14.4363 12.6266 14.4229 12.5728 14.41L11.616 18.2454C11.5435 18.4254 11.3598 18.6954 10.9455 18.5929C10.9601 18.6142 9.88209 18.3275 9.88209 18.3275L9.15576 20.0021L11.0597 20.4767C11.4139 20.5654 11.761 20.6583 12.1027 20.7458L11.4973 23.1767L12.9587 23.5413L13.5583 21.1363C13.9575 21.2446 14.3451 21.3446 14.7243 21.4388L14.1267 23.8325L15.5898 24.1971L16.1953 21.7708C18.6901 22.2429 20.5661 22.0525 21.3558 19.7963C21.9921 17.9796 21.3241 16.9317 20.0115 16.2483C20.9674 16.0279 21.6875 15.3992 21.8796 14.1004ZM18.5368 18.7875C18.0846 20.6042 15.0255 19.6221 14.0338 19.3758L14.8372 16.1554C15.829 16.4029 19.0093 16.8929 18.5368 18.7875ZM18.9893 14.0742C18.5768 15.7267 16.0307 14.8871 15.2047 14.6812L15.9332 11.7604C16.7591 11.9663 19.4189 12.3504 18.9893 14.0742Z" fill="white"/>
<circle cx="16" cy="16" r="16" fill="#274DD4"/>
<mask id="mask0_5003_61087" style="mask-type:alpha" maskUnits="userSpaceOnUse" x="0" y="0" width="32" height="32">
<circle cx="16" cy="16" r="16" fill="#274DD4"/>
</mask>
<g mask="url(#mask0_5003_61087)">
<path d="M24.497 11.6055L25.1287 13.5495H27.1728L25.5191 14.751L26.1507 16.695L24.497 15.4936L22.8433 16.695L23.475 14.751L21.8213 13.5495H23.8654L24.497 11.6055Z" fill="#FF3E44"/>
<path d="M24.497 3.08105L25.1287 5.0251H27.1728L25.5191 6.22658L26.1507 8.17062L24.497 6.96914L22.8433 8.17062L23.475 6.22658L21.8213 5.0251H23.8654L24.497 3.08105Z" fill="#FF3E44"/>
<path d="M24.497 20.4775L25.1287 22.4216H27.1728L25.5191 23.6231L26.1507 25.5671L24.497 24.3656L22.8433 25.5671L23.475 23.6231L21.8213 22.4216H23.8654L24.497 20.4775Z" fill="#FF3E44"/>
<path d="M6.84665 20.4775L7.47831 22.4216H9.52239L7.86869 23.6231L8.50035 25.5671L6.84665 24.3656L5.19295 25.5671L5.8246 23.6231L4.1709 22.4216H6.21499L6.84665 20.4775Z" fill="#FF3E44"/>
<path d="M6.84714 11.6055L7.47879 13.5495H9.52288L7.86918 14.751L8.50084 16.695L6.84714 15.4936L5.19343 16.695L5.82509 14.751L4.17139 13.5495H6.21548L6.84714 11.6055Z" fill="#FF3E44"/>
<path d="M6.84714 3.08105L7.47879 5.0251H9.52288L7.86918 6.22658L8.50084 8.17062L6.84714 6.96914L5.19343 8.17062L5.82509 6.22658L4.17139 5.0251H6.21548L6.84714 3.08105Z" fill="#FF3E44"/>
</g>
<path d="M21.6838 18.9335C21.6838 15.9436 19.7253 15.1342 16.5962 14.19C15.1104 13.7404 14.6377 13.3582 14.6377 12.8187C14.6377 12.2567 15.0879 11.9194 16.0334 11.9194C16.9564 11.9194 18.0369 12.2342 19.3201 13.1334L21.4137 10.5256C20.3331 9.64886 18.8023 8.90699 17.3165 8.61474V5.89453H14.8853V8.52481C12.2289 8.88451 10.6981 10.683 10.6981 13.066C10.6981 15.9885 12.9718 16.9102 15.5381 17.6746C17.2715 18.1917 17.6992 18.5738 17.6992 19.2258C17.6992 19.8103 17.1815 20.2374 16.3035 20.2374C15.223 20.2374 13.7372 19.7428 12.4765 18.5513L10.3154 21.1816C11.6436 22.508 13.1969 23.2499 14.8628 23.5197V26.105H17.2715V23.5421C19.9504 23.1824 21.6838 21.4964 21.6838 18.9335Z" fill="white"/>
</svg>
