<svg width="32" height="32" viewBox="0 0 32 32" fill="none" xmlns="http://www.w3.org/2000/svg">
<path d="M32 16C32 7.16344 24.8366 0 16 0C7.16344 0 0 7.16344 0 16C0 24.8366 7.16344 32 16 32C24.8366 32 32 24.8366 32 16Z" fill="#50AF95"/>
<path fill-rule="evenodd" clip-rule="evenodd" d="M18.4346 17.891C18.321 17.8995 17.7338 17.9345 16.4242 17.9345C15.3824 17.9345 14.6428 17.9032 14.3834 17.891C10.3576 17.7141 7.35269 17.0142 7.35269 16.1761C7.35269 15.3381 10.3576 14.639 14.3834 14.4594V17.1938C14.6466 17.2127 15.4004 17.2573 16.4422 17.2573C17.6922 17.2573 18.3182 17.2052 18.4309 17.1948V14.4612C22.4482 14.64 25.4463 15.34 25.4463 16.1761C25.4463 17.0122 22.449 17.7122 18.4309 17.89L18.4346 17.891ZM18.4346 14.1784V11.7314H24.041V8H8.77703V11.7314H14.3823V14.1774C9.82631 14.3865 6.39999 15.2879 6.39999 16.3681C6.39999 17.4482 9.82631 18.3487 14.3823 18.5588V26.4H18.4337V18.5559C22.9794 18.3469 26.4 17.4464 26.4 16.3672C26.4 15.2879 22.9822 14.3875 18.4337 14.1774L18.4346 14.1784Z" fill="white"/>
</svg>
