<svg width="74" height="16" viewBox="0 0 74 16" fill="none" xmlns="http://www.w3.org/2000/svg">
<path d="M7.68 11.8L8.3 12.24L10.82 10.64H2.52L4.56 7.44H0.7L0.96 5.54H5.78L6.64 4.2H2.48L2.76 2.3H7.86L8.52 1.28L8.08 0.779999H12.64L11.66 2.3H16.8L16.52 4.2H10.46L9.6 5.54H17.68L17.42 7.44H8.38L7.54 8.76H15.7L15.44 10.64V10.66L10.48 13.7L12.2 14.84H7.64L3.12 11.8H7.68ZM22.4384 11.04H22.4784L22.9384 11.66L23.2384 9.52H19.5784L19.8584 7.62H27.4584L27.1784 9.52H26.0784L25.9784 10.3H27.4784L27.2184 12.18H25.7184L25.5984 12.94H35.4384L35.1784 14.84H22.6384L21.6784 13.58L21.3184 14.82H18.4584L19.7384 10.56L19.3584 9.92H22.7584L22.4384 11.04ZM36.7184 1.16L36.4584 3.06H34.2584L33.8784 4.02H36.0984L35.2784 9.9H33.5984L33.2584 9.52L33.8184 5.54H30.3984L29.8384 9.52L29.4184 9.9H27.7184L28.5384 4.02H30.4584L30.8384 3.06H28.4784L28.7384 1.16H36.7184ZM21.4184 1.92L20.7584 1.16H28.3584L27.5384 7.06H20.6984L21.4184 1.92ZM33.3584 6.1L32.8784 9.52L35.1184 12.56H32.0784L31.2184 11.16L29.7984 12.56H27.1384L30.2184 9.52L30.6984 6.1H33.3584ZM24.8984 5.52L24.9984 4.76H23.8384L23.7384 5.52H24.8984ZM24.0184 3.44H25.1784L25.2984 2.68H24.1384L24.0184 3.44ZM54.1569 8.76L53.2969 14.84H37.3369L38.1969 8.76H54.1569ZM50.2769 8L49.9369 6.68H42.9769L42.2769 8H37.9169L41.2369 1.7L40.7769 1.16H52.9369L54.6369 8H50.2769ZM49.7569 12.94L50.0769 10.66H41.7169L41.3969 12.94H49.7569ZM43.9969 4.78H49.4569L49.0369 3.06H44.9169L43.9969 4.78ZM62.4553 1.92H65.8553L65.9153 1.54L65.2753 0.779999H69.0753L68.9153 1.92H73.0953L72.8753 3.44H68.6953L68.6353 3.82H72.8153L72.6153 5.34H68.4153L68.3753 5.72H72.5553L72.3353 7.24H68.1553L68.1153 7.62H72.2953L72.0753 9.14H66.7553L66.6353 9.9H72.7353L72.4553 11.8H69.7753L72.3753 14.84H68.5553L66.3153 12.22L65.8953 15.18H62.0953L62.5153 12.16L59.4953 14.84H55.6753L59.1153 11.8H56.4953L56.7753 9.9H62.8353L62.9553 9.14H61.4153L61.3753 9.52H58.3353L59.1553 3.7L57.5953 4.02L57.9153 1.74L62.6153 0.779999L62.4553 1.92ZM61.6353 7.62H65.0753L65.1153 7.24H61.6953L61.6353 7.62ZM61.9153 5.72H65.3353L65.3753 5.34H61.9553L61.9153 5.72ZM62.1753 3.82H65.5953L65.6353 3.44H62.2353L62.1753 3.82Z" fill="url(#paint0_linear_203_4455)"/>
<defs>
<linearGradient id="paint0_linear_203_4455" x1="0" y1="8" x2="74" y2="8" gradientUnits="userSpaceOnUse">
<stop stop-color="#F4A942"/>
<stop offset="1" stop-color="#FF2A14"/>
</linearGradient>
</defs>
</svg>
